<svg width="30" height="20" viewBox="0 0 30 20" fill="none" xmlns="http://www.w3.org/2000/svg">
<path d="M26.0413 0.233398H3.95871C3.03343 0.234438 2.14635 0.602462 1.49208 1.25673C0.837814 1.911 0.469789 2.79808 0.46875 3.72336V16.2767C0.469789 17.202 0.837814 18.0891 1.49208 18.7433C2.14635 19.3976 3.03343 19.7656 3.95871 19.7667H26.0413C26.9666 19.7656 27.8536 19.3976 28.5079 18.7433C29.1622 18.0891 29.5302 17.202 29.5312 16.2767V3.72336C29.5302 2.79808 29.1622 1.911 28.5079 1.25673C27.8536 0.602462 26.9666 0.234438 26.0413 0.233398ZM1.40625 5.4766H28.5938V8.07851H1.40625V5.4766ZM3.95871 1.1709H26.0413C26.718 1.17167 27.3668 1.44084 27.8453 1.91935C28.3238 2.39786 28.593 3.04664 28.5938 3.72336V4.5391H1.40625V3.72336C1.40703 3.04664 1.67619 2.39786 2.15471 1.91935C2.63322 1.44084 3.28199 1.17167 3.95871 1.1709ZM26.0413 18.8292H3.95871C3.28199 18.8284 2.63322 18.5592 2.15471 18.0807C1.67619 17.6022 1.40703 16.9534 1.40625 16.2767V9.01601H28.5938V16.2767C28.593 16.9534 28.3238 17.6022 27.8453 18.0807C27.3668 18.5592 26.718 18.8284 26.0413 18.8292ZM4.64771 13.5704H6.48891C6.76618 13.5701 7.032 13.4598 7.22807 13.2638C7.42413 13.0677 7.53442 12.8019 7.53475 12.5246V11.3155C7.53444 11.0382 7.42415 10.7723 7.22809 10.5763C7.03202 10.3802 6.76619 10.2699 6.48891 10.2696H4.64771C4.37043 10.2699 4.10458 10.3802 3.90852 10.5763C3.71245 10.7723 3.60217 11.0382 3.60188 11.3155V12.5246C3.60219 12.8019 3.71247 13.0677 3.90854 13.2638C4.1046 13.4599 4.37044 13.5701 4.64771 13.5704ZM4.53937 11.3155C4.53974 11.2868 4.55127 11.2595 4.57151 11.2393C4.59175 11.219 4.61909 11.2075 4.64771 11.2071H6.48891C6.51753 11.2075 6.54487 11.219 6.56511 11.2393C6.58535 11.2595 6.59688 11.2868 6.59725 11.3155V12.5246C6.59687 12.5532 6.58533 12.5806 6.56509 12.6008C6.54486 12.621 6.51752 12.6326 6.48891 12.6329H4.64771C4.6191 12.6326 4.59176 12.621 4.57153 12.6008C4.55129 12.5806 4.53975 12.5532 4.53937 12.5246V11.3155ZM16.988 15.2726C16.988 15.3969 16.9386 15.5161 16.8507 15.6041C16.7628 15.692 16.6435 15.7413 16.5192 15.7413H4.09811C3.97379 15.7413 3.85456 15.692 3.76665 15.6041C3.67874 15.5161 3.62936 15.3969 3.62936 15.2726C3.62936 15.1483 3.67874 15.029 3.76665 14.9411C3.85456 14.8532 3.97379 14.8038 4.09811 14.8038H16.5192C16.6435 14.8038 16.7628 14.8532 16.8507 14.9411C16.9386 15.029 16.988 15.1483 16.988 15.2726ZM11.1896 17.0313C11.1896 17.1556 11.1403 17.2748 11.0524 17.3627C10.9644 17.4507 10.8452 17.5 10.7209 17.5H4.09811C3.97379 17.5 3.85456 17.4507 3.76665 17.3627C3.67874 17.2748 3.62936 17.1556 3.62936 17.0313C3.62936 16.907 3.67874 16.7877 3.76665 16.6998C3.85456 16.6119 3.97379 16.5625 4.09811 16.5625H10.7209C10.8452 16.5625 10.9644 16.6119 11.0524 16.6998C11.1403 16.7877 11.1896 16.907 11.1896 17.0313Z" fill="#BABABA"/>
</svg>
