<svg width="127" height="141" viewBox="0 0 127 141" fill="none" xmlns="http://www.w3.org/2000/svg">
<path d="M63.3333 141C98.3114 141 126.667 112.645 126.667 77.6667H0C0 112.645 28.3553 141 63.3333 141Z" fill="#DCD7C3"/>
<ellipse cx="63" cy="103.5" rx="48" ry="9.5" fill="#C9C3A9"/>
<g clip-path="url(#clip0_503_69)">
<path d="M129 99.424H-1V99.489H129V99.424Z" fill="#EBEBEB"/>
<path d="M60.62 87.828H10.4166C10.0233 87.8273 9.64633 87.6706 9.36848 87.3923C9.09063 87.1139 8.93457 86.7367 8.93457 86.3434V15.7716C8.93799 15.3806 9.09556 15.0067 9.37305 14.7311C9.65053 14.4556 10.0255 14.3007 10.4166 14.3H60.62C61.0137 14.3 61.3913 14.4564 61.6697 14.7348C61.9482 15.0132 62.1046 15.3909 62.1046 15.7846V86.3434C62.1046 86.7372 61.9482 87.1148 61.6697 87.3932C61.3913 87.6716 61.0137 87.828 60.62 87.828ZM10.4166 14.352C10.0405 14.3527 9.68011 14.5026 9.41444 14.7687C9.14878 15.0349 8.99957 15.3956 8.99957 15.7716V86.3434C8.99957 86.7195 9.14878 87.0802 9.41444 87.3463C9.68011 87.6125 10.0405 87.7623 10.4166 87.763H60.62C60.9963 87.7623 61.3569 87.6125 61.623 87.3465C61.8891 87.0804 62.0389 86.7197 62.0396 86.3434V15.7716C62.0389 15.3953 61.8891 15.0346 61.623 14.7686C61.3569 14.5025 60.9963 14.3527 60.62 14.352H10.4166Z" fill="#EBEBEB"/>
<path d="M116.861 87.828H66.6545C66.261 87.8273 65.8838 87.6707 65.6055 87.3924C65.3272 87.1142 65.1706 86.7369 65.1699 86.3434V15.7716C65.174 15.3803 65.3322 15.0064 65.6101 14.731C65.888 14.4555 66.2632 14.3007 66.6545 14.3H116.861C117.251 14.3014 117.625 14.4566 117.902 14.7321C118.179 15.0075 118.337 15.381 118.34 15.7716V86.3434C118.34 86.7363 118.184 87.1131 117.907 87.3913C117.63 87.6696 117.253 87.8266 116.861 87.828ZM66.6545 14.352C66.2782 14.3527 65.9175 14.5025 65.6515 14.7686C65.3854 15.0346 65.2356 15.3953 65.2349 15.7716V86.3434C65.2356 86.7197 65.3854 87.0804 65.6515 87.3465C65.9175 87.6125 66.2782 87.7623 66.6545 87.763H116.861C117.237 87.7623 117.597 87.6125 117.864 87.3465C118.13 87.0804 118.279 86.7197 118.28 86.3434V15.7716C118.279 15.3953 118.13 15.0346 117.864 14.7686C117.597 14.5025 117.237 14.3527 116.861 14.352H66.6545Z" fill="#EBEBEB"/>
<path d="M51.1145 101.899H44.3545V101.964H51.1145V101.899Z" fill="#EBEBEB"/>
<path d="M26.7056 101.195H12.6396V101.26H26.7056V101.195Z" fill="#EBEBEB"/>
<path d="M44.0942 104.315H37.251V104.38H44.0942V104.315Z" fill="#EBEBEB"/>
<path d="M76.2354 103.878H66.1396V103.943H76.2354V103.878Z" fill="#EBEBEB"/>
<path d="M81.3292 103.878H78.5498V103.943H81.3292V103.878Z" fill="#EBEBEB"/>
<path d="M115.977 102.781H101.791V102.846H115.977V102.781Z" fill="#EBEBEB"/>
<path d="M90.8374 82.9166H106.796C109.843 82.9166 112.332 81.0238 112.394 78.6604L112.989 63.8404C113.036 62.0672 111.198 60.6112 108.913 60.6112H98.9078C96.8278 60.6112 95.091 61.8176 94.857 63.4166L90.8374 82.9166Z" fill="#E6E6E6"/>
<path d="M83.4738 80.5428H99.5418V82.9166H82.3688C82.2007 82.9159 82.0398 82.8489 81.9209 82.73C81.8021 82.6112 81.7351 82.4502 81.7344 82.2822C81.7344 81.8209 81.9176 81.3785 82.2438 81.0523C82.57 80.7261 83.0125 80.5428 83.4738 80.5428Z" fill="#E6E6E6"/>
<path d="M97.9378 99.424H97.2098L95.499 93.0202L95.135 91.663L92.86 83.2H84.1812L79.8392 99.4318H79.1138L83.5338 82.8672C83.5612 82.7979 83.61 82.739 83.6731 82.6993C83.7362 82.6596 83.8104 82.641 83.8848 82.6462H93.1512C93.2252 82.6411 93.2989 82.6598 93.3616 82.6996C93.4243 82.7393 93.4726 82.7981 93.4996 82.8672L95.4912 90.3084L95.8526 91.6708L97.9378 99.424Z" fill="#E6E6E6"/>
<path d="M111.882 99.424H111.154L106.812 83.2H98.1276L95.8604 91.6708L95.499 93.028L93.7856 99.4318H93.0576L95.1376 91.6708L95.5016 90.3084L97.4906 82.8672C97.5176 82.7981 97.5659 82.7393 97.6286 82.6996C97.6912 82.6598 97.765 82.6411 97.839 82.6462H107.105C107.179 82.6411 107.253 82.6598 107.316 82.6996C107.379 82.7393 107.427 82.7981 107.454 82.8672L111.882 99.424Z" fill="#E6E6E6"/>
<path d="M26.1544 73.8608H17.9878V97.9004H26.1544V73.8608Z" fill="#F0F0F0"/>
<path d="M55.5111 97.9004H19.5557V99.424H55.5111V97.9004Z" fill="#F0F0F0"/>
<path d="M26.1542 97.9004H57.0786V73.8608H26.1542L26.1542 97.9004Z" fill="#F5F5F5"/>
<path d="M29.3653 84.7054H53.8677V76.8222H29.3653V84.7054Z" fill="#F0F0F0"/>
<path d="M29.3653 94.9416H53.8677V87.0584H29.3653V94.9416Z" fill="#F0F0F0"/>
<path d="M45.2358 80.223H37.9974C37.7691 80.223 37.584 80.4081 37.584 80.6364V80.8912C37.584 81.1195 37.7691 81.3046 37.9974 81.3046H45.2358C45.4641 81.3046 45.6492 81.1195 45.6492 80.8912V80.6364C45.6492 80.4081 45.4641 80.223 45.2358 80.223Z" fill="#F5F5F5"/>
<path d="M45.2358 90.4592H37.9974C37.7691 90.4592 37.584 90.6443 37.584 90.8726V91.1274C37.584 91.3557 37.7691 91.5408 37.9974 91.5408H45.2358C45.4641 91.5408 45.6492 91.3557 45.6492 91.1274V90.8726C45.6492 90.6443 45.4641 90.4592 45.2358 90.4592Z" fill="#F5F5F5"/>
<path d="M53.6002 68.9572H47.6202C47.6722 68.8116 47.7242 68.6556 47.7762 68.4892C47.7785 68.4807 47.7785 68.4717 47.7762 68.4632C47.8074 68.3627 47.8386 68.2587 47.8698 68.1512C47.9842 68.2876 48.1254 68.3991 48.2846 68.4787C48.4438 68.5583 48.6177 68.6043 48.7954 68.614H48.8968C49.0661 68.5986 49.2254 68.527 49.3493 68.4106C49.4732 68.2943 49.5546 68.1398 49.5806 67.9718C49.5823 67.9518 49.5777 67.9318 49.5674 67.9145C49.5572 67.8973 49.5418 67.8837 49.5234 67.8756C49.287 67.742 49.022 67.6668 48.7507 67.6564C48.4793 67.646 48.2094 67.7007 47.9634 67.8158C48.0258 67.5688 48.0856 67.3088 48.1402 67.0358C48.1442 67.024 48.1442 67.0112 48.1402 66.9994C48.1558 66.924 48.1714 66.846 48.1844 66.768C48.5224 67.106 48.8214 67.2698 49.097 67.2698C49.4324 67.2698 49.7184 67.0098 49.9732 66.5158C49.9809 66.4953 49.9809 66.4727 49.9733 66.4521C49.9656 66.4316 49.9508 66.4145 49.9316 66.404C49.2738 65.9776 48.5536 66.2688 48.2364 66.4404C48.265 66.2402 48.291 66.0348 48.3092 65.8268C48.3248 65.6526 48.3352 65.4784 48.343 65.3068C48.4383 65.4257 48.5564 65.5245 48.6903 65.5973C48.8243 65.67 48.9714 65.7154 49.123 65.7306H49.1828C49.5494 65.6968 49.8302 65.3328 49.9368 64.7634C49.9395 64.7394 49.933 64.7153 49.9186 64.6958C49.904 64.6755 49.8829 64.6608 49.8588 64.6542C49.6012 64.5798 49.3299 64.566 49.066 64.6138C48.8022 64.6616 48.5529 64.7697 48.3378 64.9298C48.3378 64.7634 48.3378 64.597 48.317 64.4306C48.3771 64.4416 48.438 64.4476 48.499 64.4488C48.693 64.4384 48.8816 64.3811 49.0487 64.282C49.2157 64.1828 49.3563 64.0447 49.4584 63.8794C49.4648 63.8683 49.4682 63.8558 49.4682 63.843C49.4682 63.8302 49.4648 63.8177 49.4584 63.8066C49.4526 63.7943 49.4443 63.7833 49.434 63.7743C49.4237 63.7654 49.4116 63.7587 49.3986 63.7546C49.2562 63.6835 49.1003 63.6433 48.9413 63.6366C48.7822 63.6298 48.6235 63.6568 48.4756 63.7156C48.3381 63.7963 48.2367 63.9265 48.1922 64.0796C48.0014 63.7276 47.7339 63.4231 47.4094 63.1886C47.0848 62.9541 46.7117 62.7956 46.3176 62.725C46.3072 62.7222 46.2961 62.7221 46.2856 62.7249C46.2752 62.7276 46.2656 62.733 46.2578 62.7406C46.2496 62.7479 46.2435 62.7574 46.2403 62.7679C46.2371 62.7785 46.2368 62.7897 46.2396 62.8004C46.3254 63.3542 46.484 64.0302 46.9676 64.3604C47.1565 64.4847 47.3785 64.549 47.6046 64.545C47.7918 64.5415 47.9775 64.5108 48.1558 64.454C48.1831 64.8479 48.1831 65.2431 48.1558 65.637C47.6439 65.092 46.9945 64.695 46.276 64.4878C46.2666 64.4846 46.2565 64.4836 46.2466 64.4849C46.2368 64.4862 46.2273 64.4897 46.219 64.4953C46.2107 64.5008 46.2038 64.5081 46.1988 64.5168C46.1938 64.5254 46.1909 64.5351 46.1902 64.545C46.1675 64.752 46.1941 64.9614 46.2678 65.1561C46.3414 65.3509 46.4601 65.5254 46.614 65.6656C46.8966 65.8865 47.2489 65.999 47.6072 65.9828C47.7819 65.9813 47.956 65.963 48.1272 65.9282C48.0934 66.2532 48.0466 66.573 47.9894 66.8772C47.693 66.6588 46.8454 66.0972 46.0992 66.3312C46.0892 66.3346 46.0802 66.3404 46.0729 66.3482C46.0657 66.3559 46.0604 66.3652 46.0576 66.3754C46.0491 66.3962 46.0491 66.4196 46.0576 66.4404C46.3852 66.9604 46.692 67.2594 47.0222 67.3608C47.1065 67.3864 47.1941 67.3995 47.2822 67.3998C47.5047 67.3919 47.7211 67.3245 47.9088 67.2048C47.8204 67.6104 47.7216 67.9848 47.6202 68.3228C47.3917 68.1225 47.1187 67.9795 46.8239 67.9058C46.5291 67.8321 46.2209 67.8298 45.925 67.899C45.916 67.9009 45.9075 67.9049 45.9002 67.9105C45.8928 67.9161 45.8868 67.9232 45.8826 67.9314C45.8784 67.9397 45.876 67.9487 45.8757 67.9579C45.8754 67.9672 45.8771 67.9763 45.8808 67.9848C45.9418 68.1604 46.0397 68.3209 46.168 68.4555C46.2963 68.59 46.4519 68.6955 46.6244 68.7648C46.7484 68.8148 46.8808 68.8404 47.0144 68.8402C47.1842 68.8395 47.3508 68.7947 47.498 68.7102L47.4018 68.991H42.376C42.2512 68.406 42.116 67.7352 42.0354 66.9968C42.2339 67.0641 42.442 67.0984 42.6516 67.0982C43.1327 67.0894 43.6001 66.9363 43.9932 66.6588C44.6562 66.2064 45.1216 65.4966 45.1476 64.8882C45.1493 64.874 45.1475 64.8596 45.1424 64.8462C45.1373 64.8328 45.129 64.8209 45.1183 64.8114C45.1075 64.802 45.0946 64.7953 45.0807 64.7919C45.0668 64.7885 45.0523 64.7885 45.0384 64.792C43.507 64.948 42.4228 65.9308 41.9678 66.4248C41.8951 65.7199 41.8578 65.0118 41.856 64.3032C42.137 64.4954 42.4673 64.6028 42.8076 64.6126C42.9619 64.6122 43.1153 64.5885 43.2626 64.5424C44.079 64.2824 44.8226 63.3958 45.5194 62.4624C45.5315 62.4471 45.5405 62.4296 45.5459 62.4109C45.5512 62.3922 45.5528 62.3726 45.5506 62.3532C45.5487 62.3369 45.542 62.3216 45.5313 62.3091C45.5207 62.2966 45.5066 62.2875 45.4908 62.283C44.131 61.8644 42.4176 63.3022 41.8638 63.817C41.8786 63.1846 41.9289 62.5535 42.0146 61.9268C42.3177 61.9876 42.6259 62.019 42.935 62.0204C43.6366 62.0433 44.3255 61.829 44.8902 61.412C45.201 61.1625 45.4539 60.8485 45.6312 60.4915C45.8086 60.1346 45.9062 59.7434 45.9172 59.345C45.9172 59.2722 45.8652 59.2306 45.7846 59.2514C44.105 59.67 42.6958 60.8374 42.1004 61.3886C42.1186 61.2768 42.1394 61.1624 42.1628 61.048C42.1711 61.0227 42.1711 60.9953 42.1628 60.97C42.1628 60.4838 42.0068 60.1302 41.6896 59.9508C41.3152 59.7402 40.7406 59.7688 39.9866 60.0418C39.94 60.0584 39.9006 60.0906 39.8748 60.1328C39.8654 60.1513 39.8606 60.1718 39.8606 60.1926C39.8606 60.2134 39.8654 60.2339 39.8748 60.2524C40.0283 60.5509 40.2591 60.8027 40.5431 60.9815C40.8271 61.1603 41.1539 61.2596 41.4894 61.269C41.6117 61.2669 41.7335 61.2539 41.8534 61.23C41.7945 61.5472 41.7451 61.8644 41.7052 62.1816C41.3126 61.8566 40.4052 61.3418 38.9492 61.711C38.906 61.7216 38.8676 61.7463 38.84 61.7812C38.8125 61.8108 38.7976 61.85 38.7984 61.8904C38.8712 62.9304 39.3184 63.5856 39.9736 63.6428H40.0672C40.413 63.6428 40.9382 63.4842 41.6272 62.8446C41.5679 63.5571 41.5497 64.2724 41.5726 64.987C41.0318 64.6802 39.7526 64.1524 38.4526 64.9558C38.4194 64.9723 38.3927 64.9995 38.3767 65.0329C38.3607 65.0663 38.3563 65.1042 38.3642 65.1404C38.7178 66.0556 39.1858 66.5002 39.7942 66.5002H39.8098C40.3168 66.5002 40.9044 66.183 41.6012 65.5564C41.6428 66.2428 41.713 66.898 41.8014 67.5064C41.2814 67.1034 40.5612 67.1684 39.5446 67.6962C39.4991 67.7196 39.4632 67.7582 39.4432 67.8054C39.4348 67.8237 39.432 67.8442 39.4352 67.8641C39.4385 67.884 39.4476 67.9025 39.4614 67.9172C39.8678 68.2864 40.3921 68.4992 40.9408 68.5178C41.2839 68.5189 41.6212 68.4292 41.9184 68.2578C41.9652 68.5178 42.0146 68.7622 42.0614 68.9988H33.3982C33.5646 68.5516 33.7466 68.029 33.9182 67.4388C33.9261 67.4215 33.9314 67.4031 33.9338 67.3842C33.9997 67.1727 34.0647 66.9543 34.1288 66.729C34.7268 67.3582 35.4132 67.704 36.0788 67.704C36.1501 67.7036 36.2212 67.6992 36.292 67.691C36.6563 67.6604 36.9991 67.5055 37.2627 67.2522C37.5264 66.999 37.695 66.6628 37.7402 66.3C37.7427 66.2581 37.7327 66.2165 37.7114 66.1803C37.6901 66.1442 37.6585 66.1153 37.6206 66.0972C36.0996 65.338 34.9218 65.6812 34.3342 65.9698C34.4668 65.4498 34.5942 64.9038 34.706 64.3344C34.7179 64.3111 34.7233 64.2851 34.7216 64.259C34.7528 64.0978 34.7814 63.9366 34.81 63.7728C35.5224 64.48 36.1542 64.8284 36.7314 64.8284C37.436 64.8284 38.0314 64.3084 38.5748 63.2398C38.5901 63.1969 38.5898 63.15 38.5742 63.1073C38.5585 63.0646 38.5284 63.0287 38.489 63.0058C37.1006 62.1062 35.5874 62.7198 34.9192 63.0812C34.9816 62.6574 35.0336 62.2258 35.0726 61.7812C35.0726 61.7812 35.0726 61.7656 35.0726 61.7604C35.1038 61.3964 35.1246 61.0298 35.1376 60.658C35.837 61.3704 36.409 61.5498 36.8042 61.5498H36.9316C37.7116 61.4718 38.294 60.71 38.5176 59.5088C38.521 59.4846 38.5195 59.4599 38.5132 59.4362C38.507 59.4126 38.4961 59.3904 38.4812 59.371C38.4503 59.3276 38.4053 59.2963 38.3538 59.2826C37.811 59.126 37.2395 59.0967 36.6835 59.1968C36.1275 59.2969 35.6021 59.5238 35.148 59.8598C35.148 59.5114 35.1324 59.1604 35.109 58.8198C35.2359 58.8438 35.3647 58.8569 35.4938 58.8588C36.7782 58.8588 37.4776 57.7148 37.5088 57.6602C37.5211 57.637 37.5275 57.6111 37.5275 57.5848C37.5275 57.5585 37.5211 57.5326 37.5088 57.5094C37.4819 57.4569 37.4365 57.4161 37.3814 57.395C36.5546 57.0908 35.8994 57.0648 35.4392 57.317C35.148 57.4849 34.9343 57.7603 34.8438 58.084C34.4426 57.3423 33.8799 56.7002 33.1972 56.2052C32.5145 55.7102 31.7293 55.3748 30.8996 55.224C30.8768 55.219 30.8532 55.2195 30.8306 55.2253C30.808 55.2312 30.7871 55.2423 30.7696 55.2578C30.7529 55.2735 30.7405 55.2932 30.7337 55.3151C30.7268 55.3369 30.7258 55.3602 30.7306 55.3826C30.91 56.5474 31.2506 57.9826 32.2672 58.6508C32.6638 58.913 33.1309 59.0481 33.6062 59.0382C33.9999 59.031 34.3904 58.9671 34.7658 58.8484C34.8174 59.678 34.8131 60.5102 34.7528 61.3392C34.1678 60.736 32.6962 59.3866 30.7956 58.9212C30.7757 58.9143 30.7544 58.9121 30.7335 58.9149C30.7126 58.9177 30.6926 58.9253 30.6752 58.9372C30.6578 58.9491 30.6433 58.9649 30.6331 58.9833C30.6229 59.0017 30.6171 59.0223 30.6162 59.0434C30.5616 60.0444 30.8762 60.8634 31.5028 61.3964C32.0944 61.8602 32.8318 62.098 33.5828 62.0672C33.954 62.0636 34.3241 62.0244 34.6878 61.9502C34.6202 62.6366 34.5188 63.3074 34.3992 63.9496C33.7778 63.4868 31.989 62.3116 30.4212 62.803C30.4001 62.8089 30.3809 62.8201 30.3654 62.8356C30.3499 62.8511 30.3387 62.8703 30.3328 62.8914C30.3277 62.9149 30.3273 62.9393 30.3318 62.963C30.3363 62.9866 30.3455 63.0092 30.3588 63.0292C31.0504 64.1394 31.6952 64.7556 32.392 64.9662C32.5713 65.0221 32.758 65.0502 32.9458 65.0494C33.4132 65.0327 33.8675 64.8908 34.2614 64.6386C34.0794 65.4888 33.8688 66.2844 33.653 66.9942C33.1737 66.5709 32.5999 66.2686 31.9797 66.1125C31.3596 65.9564 30.711 65.9512 30.0884 66.0972C30.0696 66.1015 30.052 66.1098 30.0367 66.1215C30.0213 66.1332 30.0087 66.1481 29.9996 66.1651C29.9905 66.1821 29.9851 66.2008 29.9838 66.22C29.9826 66.2393 29.9854 66.2586 29.9922 66.2766C30.1207 66.6453 30.3262 66.9823 30.5953 67.2652C30.8643 67.5481 31.1905 67.7704 31.5522 67.9172C31.8127 68.0218 32.0905 68.0765 32.3712 68.0784C32.7297 68.0761 33.0813 67.9792 33.3904 67.7976C33.2448 68.237 33.1044 68.6244 32.9744 68.965H27.3402C27.1738 68.4684 27.0022 67.9042 26.8488 67.288C27.0261 67.3454 27.2111 67.3752 27.3974 67.3764C27.9065 67.3622 28.391 67.1545 28.7523 66.7956C29.1136 66.4367 29.3246 65.9536 29.3422 65.4446C29.3413 65.4319 29.3378 65.4195 29.3318 65.4082C29.3258 65.397 29.3175 65.3871 29.3074 65.3793C29.2974 65.3714 29.2858 65.3658 29.2734 65.3627C29.261 65.3596 29.2482 65.3592 29.2356 65.3614C28.7446 65.423 28.2705 65.5808 27.8404 65.8257C27.4103 66.0707 27.0328 66.3979 26.7292 66.7888C26.5966 66.2038 26.4692 65.5798 26.4016 64.935C26.6612 65.0966 26.9591 65.1863 27.2648 65.195C27.3982 65.195 27.5307 65.1739 27.6574 65.1326C28.3438 64.9142 28.9028 64.1316 29.4046 63.3126C29.4133 63.2988 29.4192 63.2835 29.4219 63.2674C29.4246 63.2513 29.424 63.2349 29.4202 63.219C29.4167 63.2042 29.4093 63.1907 29.3987 63.1797C29.3882 63.1688 29.375 63.1608 29.3604 63.1566C28.128 62.7926 26.7864 64.0484 26.3548 64.4956C26.3013 63.947 26.2778 63.3958 26.2846 62.8446C26.5526 62.898 26.8251 62.9259 27.0984 62.9278C27.6932 62.9532 28.2772 62.764 28.7442 62.3948C28.9911 62.1681 29.1807 61.8862 29.2978 61.5721C29.4148 61.2581 29.4559 60.9208 29.4176 60.5878C29.417 60.5733 29.4129 60.5591 29.4057 60.5465C29.3984 60.5338 29.3883 60.5231 29.3761 60.5152C29.3638 60.5073 29.3499 60.5025 29.3354 60.5011C29.3209 60.4997 29.3063 60.5018 29.2928 60.5072C27.868 60.8738 26.763 61.893 26.3002 62.3766C26.3002 62.2752 26.3002 62.1764 26.3184 62.0776C26.3211 62.0536 26.3146 62.0295 26.3002 62.01C26.2952 61.8297 26.245 61.6535 26.1541 61.4977C26.0632 61.3419 25.9347 61.2114 25.7802 61.1182C25.4292 60.9336 24.9326 60.9596 24.3008 61.1988C24.2817 61.2055 24.2642 61.2162 24.2494 61.23C24.2346 61.2439 24.2229 61.2607 24.215 61.2794C24.2061 61.2948 24.2014 61.3123 24.2014 61.3301C24.2014 61.3479 24.2061 61.3654 24.215 61.3808C24.241 61.4224 24.7714 62.27 25.736 62.27C25.8417 62.2685 25.947 62.2572 26.0506 62.2362C26.0324 62.5144 26.022 62.79 26.022 63.0682C25.6713 62.815 25.2668 62.6464 24.8401 62.5756C24.4134 62.5047 23.9761 62.5336 23.5624 62.66C23.5275 62.6703 23.4972 62.6924 23.4766 62.7224C23.4659 62.7358 23.4581 62.7512 23.4536 62.7678C23.4491 62.7843 23.4481 62.8016 23.4506 62.8186C23.6248 63.7286 24.0798 64.3006 24.6674 64.35H24.7402C25.0418 64.35 25.4838 64.2096 26.0246 63.6506C26.0488 64.2776 26.1096 64.9027 26.2066 65.5226C25.7022 65.2626 24.5348 64.7946 23.474 65.4966C23.4465 65.512 23.4254 65.5367 23.4144 65.5662C23.4035 65.5957 23.4034 65.6282 23.4142 65.6578C23.825 66.456 24.28 66.846 24.8104 66.846H24.826C25.2654 66.846 25.7464 66.5678 26.2898 66.0218C26.399 66.6224 26.529 67.1944 26.672 67.7248C26.1858 67.3738 25.554 67.4284 24.722 67.8912C24.7033 67.9007 24.6867 67.9138 24.6733 67.9299C24.6599 67.946 24.6499 67.9647 24.644 67.9848C24.6395 68.0023 24.6398 68.0207 24.6449 68.0381C24.6499 68.0555 24.6595 68.0712 24.6726 68.0836C25.0569 68.3992 25.5331 68.5816 26.0298 68.6036C26.3217 68.6032 26.6078 68.5222 26.8566 68.3696C26.9164 68.5698 26.9788 68.7648 27.0386 68.9494H21.5786V69.9894H23.747L25.2732 73.8556H49.8952L51.4214 69.9894H53.6002V68.9572Z" fill="#E6E6E6"/>
<path d="M88.375 17.6124H17.9878V50.7572H18.8276L19.3138 51.5684H24.5918L25.078 50.7572H88.375V17.6124Z" fill="#E0E0E0"/>
<path d="M88.6686 17.6124H18.2788V50.7572H19.1186L19.6074 51.5684H24.8828L25.3716 50.7572H88.6686V17.6124Z" fill="#E6E6E6"/>
<path d="M87.2178 49.309V19.0632L19.7296 19.0632V49.309H87.2178Z" fill="#FAFAFA"/>
<path d="M69.0022 49.309L53.9534 19.0632H47.6328L62.679 49.309H69.0022Z" fill="white"/>
<path d="M59.6553 49.309L44.6065 19.0632H41.8037L56.8525 49.309H59.6553Z" fill="white"/>
<path d="M20.6734 51.2356C20.8816 51.2356 21.0504 51.0668 21.0504 50.8586C21.0504 50.6504 20.8816 50.4816 20.6734 50.4816C20.4652 50.4816 20.2964 50.6504 20.2964 50.8586C20.2964 51.0668 20.4652 51.2356 20.6734 51.2356Z" fill="#FAFAFA"/>
<path d="M21.8697 51.2356C22.0779 51.2356 22.2467 51.0668 22.2467 50.8586C22.2467 50.6504 22.0779 50.4816 21.8697 50.4816C21.6615 50.4816 21.4927 50.6504 21.4927 50.8586C21.4927 51.0668 21.6615 51.2356 21.8697 51.2356Z" fill="#F0F0F0"/>
<path d="M109.011 38.5138H108.751V39.9464H109.011V38.5138Z" fill="#DFF000"/>
<path d="M109.011 33.0122H108.751V37.2866H109.011V33.0122Z" fill="#DFF000"/>
<path d="M104.981 23.7328H65.3182C64.4907 23.7328 63.6971 24.0615 63.112 24.6466C62.5269 25.2317 62.1982 26.0253 62.1982 26.8528V39.9178L57.8848 44.2312L62.1982 48.5472V74.8644C62.1982 75.6919 62.5269 76.4855 63.112 77.0706C63.6971 77.6557 64.4907 77.9844 65.3182 77.9844H104.981C105.809 77.9844 106.602 77.6557 107.187 77.0706C107.772 76.4855 108.101 75.6919 108.101 74.8644V26.8528C108.101 26.0253 107.772 25.2317 107.187 24.6466C106.602 24.0615 105.809 23.7328 104.981 23.7328Z" fill="#455A64"/>
<path opacity="0.1" d="M80.0183 77.9844H69.7197L80.1327 23.7328H90.4313L80.0183 77.9844Z" fill="white"/>
<path opacity="0.1" d="M87.9094 77.9844H84.2148L94.6252 23.7328H98.3198L87.9094 77.9844Z" fill="white"/>
<path d="M88.0736 36.2414C88.0736 35.1664 87.6465 34.1354 86.8864 33.3752C86.1262 32.6151 85.0952 32.188 84.0202 32.188C82.9452 32.188 81.9142 32.6151 81.154 33.3752C80.3938 34.1354 79.9668 35.1664 79.9668 36.2414V42.8636L88.0736 39.9178V36.2414Z" fill="#263238"/>
<path d="M80.6842 46.072L80.3072 53.7134L80.2656 54.6832C80.2415 55.0626 80.1805 55.4388 80.0836 55.8064C79.9067 56.4736 79.6727 57.1242 79.3842 57.7512C78.8361 58.955 78.1808 60.1071 77.4264 61.1936L76.4878 60.6736C76.9688 59.5166 77.442 58.3336 77.806 57.1584C77.9903 56.5919 78.1354 56.0133 78.2402 55.4268C78.2844 55.1692 78.3062 54.9082 78.3052 54.6468L78.2896 53.6952C78.2775 52.4004 78.2913 51.1082 78.3312 49.8186C78.365 48.5186 78.4222 47.2446 78.5132 45.9524L80.6842 46.072Z" fill="#FFB573"/>
<path d="M79.2048 43.4798C78.326 43.7034 77.7124 47.3122 77.7124 47.3122L80.1304 48.958C80.1304 48.958 82.447 45.318 81.7736 44.3508C81.0716 43.3446 80.484 43.16 79.2048 43.4798Z" fill="#263238"/>
<path opacity="0.2" d="M79.2828 44.2858L78.6094 47.9232L79.9666 48.8462L79.2828 44.2858Z" fill="black"/>
<path d="M76.48 60.6632L75.8716 62.4962L77.91 61.763C77.91 61.763 78.1232 60.4136 77.4212 59.878L77.2236 59.956C77.0507 60.0029 76.8921 60.0921 76.7623 60.2155C76.6325 60.339 76.5355 60.4929 76.48 60.6632Z" fill="#FFB573"/>
<path d="M76.1758 64.051L77.9568 63.7026L77.9178 61.763L75.8794 62.4962L76.1758 64.051Z" fill="#FFB573"/>
<path d="M79.2048 43.4798C79.2048 43.4798 78.1882 43.836 80.2214 56.3264H88.8664C88.7208 52.8086 88.7182 50.6376 90.3978 43.4174C89.1876 43.1667 87.9605 43.005 86.7266 42.9338C85.4196 42.8401 84.1076 42.8401 82.8006 42.9338C81.1158 43.0872 79.2048 43.4798 79.2048 43.4798Z" fill="#263238"/>
<path opacity="0.7" d="M81.7476 52.533H83.89L82.4054 48.308H80.2656L81.7476 52.533Z" fill="black"/>
<path d="M81.6018 52.533H83.7442L82.2596 48.308H80.1172L81.6018 52.533Z" fill="#DFF000"/>
<path d="M86.3389 38.5138C86.0919 39.7774 85.8423 42.0914 86.7263 42.9338C86.7263 42.9338 86.3831 44.2156 84.0353 44.2156C81.4535 44.2156 82.8003 42.9338 82.8003 42.9338C84.2095 42.5984 84.1731 41.5532 83.9287 40.5704L86.3389 38.5138Z" fill="#FFB573"/>
<path opacity="0.2" d="M85.3566 39.3536L83.9292 40.56C83.9911 40.7881 84.032 41.0213 84.0514 41.2568C84.5896 41.1788 85.328 40.5886 85.3852 40.0244C85.4163 39.8009 85.4067 39.5736 85.3566 39.3536Z" fill="black"/>
<path d="M86.7059 35.36C86.9659 37.4556 87.1167 38.337 86.2665 39.5954C84.9873 41.4882 82.3665 41.3452 81.4773 39.3666C80.6973 37.5856 80.4009 34.4552 82.2781 33.254C82.6907 32.9872 83.1648 32.8304 83.6551 32.7985C84.1454 32.7666 84.6358 32.8607 85.0795 33.0717C85.5233 33.2828 85.9057 33.6038 86.1903 34.0043C86.475 34.4049 86.6525 34.8715 86.7059 35.36Z" fill="#FFB573"/>
<path d="M81.5787 33.7636C81.5657 33.8078 84.6987 37.1436 86.9087 36.8706C87.3715 36.1764 87.1557 33.995 86.3185 33.5322C85.4813 33.0694 84.2385 32.4194 83.3987 32.565C82.5589 32.7106 81.5787 33.7636 81.5787 33.7636Z" fill="#263238"/>
<path d="M80.2214 56.3264C80.2214 56.3264 77.7124 63.6064 78.95 77.9844H86.1884C86.7084 70.1844 86.5524 56.3264 86.5524 56.3264H80.2214Z" fill="white"/>
<path d="M88.8663 56.3264H82.6133C82.6133 56.3264 84.1967 70.8682 85.2133 77.9844H91.6873C92.4569 59.878 88.8663 56.3264 88.8663 56.3264Z" fill="white"/>
<path d="M83.8327 77.9844C83.8327 77.9844 83.2113 68.6036 83.9627 66.0608C84.6985 69.8464 86.8227 77.9844 86.8227 77.9844H83.8327Z" fill="#F5F5F5"/>
<path d="M83.5001 36.53C83.5313 36.699 83.4663 36.8524 83.3571 36.8732C83.2479 36.894 83.1309 36.7718 83.0971 36.6132C83.0633 36.4546 83.1309 36.2908 83.2401 36.27C83.3493 36.2492 83.4715 36.361 83.5001 36.53Z" fill="#263238"/>
<path d="M81.5944 36.8836C81.6256 37.0526 81.5606 37.206 81.4514 37.2242C81.3422 37.2424 81.2252 37.1254 81.1914 36.9642C81.1576 36.803 81.2252 36.6418 81.3344 36.621C81.4436 36.6002 81.5632 36.7146 81.5944 36.8836Z" fill="#263238"/>
<path d="M81.389 36.6132L80.96 36.5716C80.96 36.5716 81.2278 36.8498 81.389 36.6132Z" fill="#263238"/>
<path d="M82.2389 37.0786C82.1593 37.4912 82.0237 37.8909 81.8359 38.2668C81.9337 38.312 82.0402 38.3354 82.1479 38.3354C82.2557 38.3354 82.3621 38.312 82.4599 38.2668L82.2389 37.0786Z" fill="#ED893E"/>
<path d="M83.4999 38.7582C83.4194 38.7863 83.3368 38.808 83.2529 38.8232C83.2401 38.8255 83.227 38.8227 83.2163 38.8154C83.2056 38.8081 83.1982 38.7969 83.1957 38.7842C83.1933 38.7711 83.196 38.7577 83.2033 38.7466C83.2105 38.7354 83.2218 38.7275 83.2347 38.7244C83.4462 38.6908 83.6467 38.6076 83.8198 38.4815C83.9929 38.3554 84.1336 38.19 84.2305 37.999C84.233 37.993 84.2367 37.9876 84.2414 37.9831C84.246 37.9785 84.2515 37.975 84.2576 37.9725C84.2636 37.9701 84.2701 37.9689 84.2766 37.969C84.2831 37.9691 84.2895 37.9704 84.2955 37.973C84.3014 37.9756 84.3068 37.9793 84.3114 37.9839C84.3159 37.9886 84.3195 37.9941 84.3219 38.0001C84.3243 38.0062 84.3255 38.0126 84.3255 38.0191C84.3254 38.0256 84.324 38.032 84.3215 38.038C84.2397 38.2069 84.1249 38.3578 83.9837 38.4815C83.8426 38.6052 83.6781 38.6993 83.4999 38.7582Z" fill="#263238"/>
<path d="M87.6208 37.1644C87.5492 37.5664 87.321 37.9236 86.9864 38.1576C86.5392 38.4644 86.1414 38.1082 86.1206 37.596C86.0998 37.1358 86.3078 36.4182 86.8252 36.3168C86.9388 36.2967 87.0556 36.3052 87.1652 36.3416C87.2747 36.378 87.3734 36.4411 87.4524 36.5253C87.5313 36.6094 87.5881 36.7119 87.6175 36.8235C87.6469 36.9351 87.648 37.0523 87.6208 37.1644Z" fill="#FFB573"/>
<path d="M84.197 35.9996C84.1767 36.006 84.155 36.0062 84.1346 36.0002C84.1142 35.9942 84.0961 35.9822 84.0826 35.9658C83.7992 35.594 83.2012 35.6122 83.1934 35.6122C83.1667 35.6122 83.141 35.602 83.1216 35.5836C83.1023 35.5652 83.0907 35.5401 83.0894 35.5134C83.0887 35.4869 83.0983 35.4613 83.1163 35.4418C83.1343 35.4224 83.1592 35.4108 83.1856 35.4094C83.2142 35.4094 83.898 35.3886 84.2438 35.8436C84.2518 35.8541 84.2577 35.8661 84.261 35.8789C84.2644 35.8918 84.2651 35.9051 84.2631 35.9182C84.2612 35.9313 84.2566 35.9439 84.2497 35.9552C84.2428 35.9665 84.2337 35.9763 84.223 35.984L84.197 35.9996Z" fill="#263238"/>
<path d="M80.8582 36.1062C80.8417 36.1129 80.8237 36.1147 80.8062 36.1115C80.7887 36.1083 80.7725 36.1001 80.7594 36.088C80.7498 36.079 80.7422 36.0681 80.7369 36.0561C80.7317 36.044 80.729 36.031 80.729 36.0178C80.729 36.0046 80.7317 35.9916 80.7369 35.9795C80.7422 35.9675 80.7498 35.9566 80.7594 35.9476C80.8597 35.8224 80.9885 35.7231 81.1351 35.658C81.2817 35.5928 81.4417 35.5638 81.6018 35.5732C81.6149 35.5748 81.6274 35.579 81.6388 35.5855C81.6502 35.592 81.6602 35.6007 81.6682 35.6111C81.6762 35.6215 81.682 35.6334 81.6853 35.6461C81.6887 35.6588 81.6895 35.672 81.6876 35.685C81.6844 35.7115 81.6708 35.7356 81.6499 35.7522C81.629 35.7687 81.6023 35.7763 81.5758 35.7734C81.4489 35.7662 81.3221 35.7902 81.2066 35.8432C81.091 35.8962 80.9902 35.9767 80.9128 36.0776C80.8984 36.093 80.8791 36.1031 80.8582 36.1062Z" fill="#263238"/>
<path d="M91.3935 45.8952C91.6405 47.112 91.8225 48.3106 91.9681 49.5352C92.1204 50.7621 92.2072 51.9963 92.2281 53.2324V53.3494C92.2281 53.3494 92.2281 53.4326 92.2281 53.4794C92.2275 53.5369 92.2222 53.5943 92.2125 53.651C92.1656 53.9461 92.0198 54.2166 91.7991 54.418C91.6206 54.5768 91.4037 54.6861 91.1699 54.7352C91.0256 54.7668 90.8781 54.7816 90.7305 54.7794C90.5186 54.7734 90.3078 54.7464 90.1013 54.6988C89.9193 54.6598 89.7503 54.6104 89.5813 54.561C88.976 54.3562 88.386 54.1086 87.8159 53.82C86.7153 53.2657 85.6514 52.6413 84.6309 51.9506L85.1509 51.0042C85.6995 51.2278 86.2533 51.4618 86.8071 51.6776C87.3609 51.8934 87.9095 52.1144 88.4633 52.3042C88.9914 52.495 89.5306 52.6539 90.0779 52.78C90.2079 52.8086 90.3379 52.832 90.4445 52.845C90.5308 52.855 90.6181 52.855 90.7045 52.845C90.7331 52.845 90.7357 52.845 90.7045 52.845C90.6187 52.8647 90.5397 52.9069 90.4757 52.9672C90.3679 53.0647 90.2941 53.194 90.2651 53.3364V53.3962C90.2651 53.3962 90.2651 53.4482 90.2651 53.4144V53.3052C90.1663 52.1482 90.0051 50.9652 89.8361 49.8056C89.6671 48.646 89.4565 47.4526 89.2563 46.3008L91.3935 45.8952Z" fill="#FFB573"/>
<path d="M90.3977 43.42C91.2661 43.68 92.3061 46.6648 92.3061 46.6648L88.9443 49.0698C88.9443 49.0698 87.7197 46.579 88.0837 45.4584C88.4633 44.291 89.4097 43.1158 90.3977 43.42Z" fill="#263238"/>
<path d="M83.2972 36.2596L82.8682 36.218C82.8682 36.218 83.136 36.4962 83.2972 36.2596Z" fill="#263238"/>
<path d="M85.372 51.0952L83.292 50.1098L83.8432 52.2028C83.8432 52.2028 85.0678 52.8138 85.6632 52.1586L85.372 51.0952Z" fill="#FFB573"/>
<path d="M81.5498 50.5024L82.1036 52.2288L83.8456 52.2028L83.2944 50.1098L81.5498 50.5024Z" fill="#FFB573"/>
<path d="M89.1444 56.4538C86.1208 56.8439 83.0675 56.9535 80.0236 56.7814C79.9721 56.7781 79.924 56.7547 79.8895 56.7163C79.855 56.6779 79.8369 56.6276 79.839 56.576C79.839 56.3862 79.8598 56.1964 79.8676 56.0066C79.8686 55.9811 79.8747 55.956 79.8855 55.9329C79.8962 55.9098 79.9115 55.889 79.9304 55.8718C79.9492 55.8546 79.9714 55.8414 79.9954 55.8328C80.0194 55.8243 80.045 55.8206 80.0704 55.822C83.057 55.9915 86.0528 55.8845 89.0196 55.5022C89.0702 55.4963 89.1211 55.5104 89.1614 55.5415C89.2018 55.5725 89.2283 55.6182 89.2354 55.6686C89.2588 55.8584 89.2848 56.0482 89.3108 56.238C89.3141 56.2631 89.3124 56.2886 89.3058 56.313C89.2992 56.3375 89.2879 56.3604 89.2724 56.3804C89.257 56.4005 89.2377 56.4173 89.2157 56.4299C89.1938 56.4425 89.1695 56.4506 89.1444 56.4538Z" fill="#DFF000"/>
<path opacity="0.4" d="M89.1444 56.4538C86.1208 56.8439 83.0675 56.9535 80.0236 56.7814C79.9721 56.7781 79.924 56.7547 79.8895 56.7163C79.855 56.6779 79.8369 56.6276 79.839 56.576C79.839 56.3862 79.8598 56.1964 79.8676 56.0066C79.8686 55.9811 79.8747 55.956 79.8855 55.9329C79.8962 55.9098 79.9115 55.889 79.9304 55.8718C79.9492 55.8546 79.9714 55.8414 79.9954 55.8328C80.0194 55.8243 80.045 55.8206 80.0704 55.822C83.057 55.9915 86.0528 55.8845 89.0196 55.5022C89.0702 55.4963 89.1211 55.5104 89.1614 55.5415C89.2018 55.5725 89.2283 55.6182 89.2354 55.6686C89.2588 55.8584 89.2848 56.0482 89.3108 56.238C89.3141 56.2631 89.3124 56.2886 89.3058 56.313C89.2992 56.3375 89.2879 56.3604 89.2724 56.3804C89.257 56.4005 89.2377 56.4173 89.2157 56.4299C89.1938 56.4425 89.1695 56.4506 89.1444 56.4538Z" fill="black"/>
<path d="M86.1 28.0254C86.1 28.2105 86.0451 28.3915 85.9423 28.5454C85.8394 28.6993 85.6932 28.8193 85.5222 28.8902C85.3512 28.961 85.163 28.9795 84.9814 28.9434C84.7999 28.9073 84.6331 28.8182 84.5022 28.6873C84.3713 28.5564 84.2821 28.3896 84.246 28.208C84.2099 28.0264 84.2284 27.8382 84.2993 27.6672C84.3701 27.4962 84.4901 27.35 84.644 27.2471C84.7979 27.1443 84.9789 27.0894 85.164 27.0894C85.4123 27.0894 85.6503 27.188 85.8259 27.3636C86.0014 27.5391 86.1 27.7772 86.1 28.0254Z" fill="white"/>
<path d="M81.4668 28.9614C81.9837 28.9614 82.4028 28.5423 82.4028 28.0254C82.4028 27.5085 81.9837 27.0894 81.4668 27.0894C80.9498 27.0894 80.5308 27.5085 80.5308 28.0254C80.5308 28.5423 80.9498 28.9614 81.4668 28.9614Z" fill="white"/>
<path d="M89.7709 28.0254C89.7709 28.2105 89.716 28.3915 89.6132 28.5454C89.5103 28.6993 89.3642 28.8193 89.1931 28.8902C89.0221 28.961 88.8339 28.9795 88.6523 28.9434C88.4708 28.9073 88.304 28.8182 88.1731 28.6873C88.0422 28.5564 87.953 28.3896 87.9169 28.208C87.8808 28.0264 87.8993 27.8382 87.9702 27.6672C88.041 27.4962 88.161 27.35 88.3149 27.2471C88.4688 27.1443 88.6498 27.0894 88.8349 27.0894C88.9578 27.0894 89.0796 27.1136 89.1931 27.1607C89.3067 27.2077 89.4099 27.2766 89.4968 27.3636C89.5837 27.4505 89.6526 27.5537 89.6997 27.6672C89.7467 27.7808 89.7709 27.9025 89.7709 28.0254Z" fill="white"/>
<path d="M51.2236 105.427L53.106 104.991L52.3702 100.589L50.4878 101.026L51.2236 105.427Z" fill="#CE7A63"/>
<path d="M53.1553 104.749L51.0415 105.24C51.0055 105.247 50.9737 105.268 50.9528 105.298C50.9319 105.328 50.9236 105.365 50.9297 105.401L51.2027 107.094C51.2122 107.138 51.2303 107.179 51.2559 107.216C51.2814 107.253 51.314 107.284 51.3516 107.308C51.3893 107.332 51.4313 107.349 51.4754 107.357C51.5194 107.364 51.5646 107.364 51.6083 107.354C52.3415 107.172 52.6821 107.047 53.6129 106.834C54.1849 106.701 56.6315 106.194 57.4193 106.012C58.2071 105.83 58.0121 105.056 57.6611 105.061C56.0881 105.095 54.1303 105.089 53.5011 104.801C53.3947 104.746 53.2731 104.728 53.1553 104.749Z" fill="#263238"/>
<path opacity="0.2" d="M50.4878 101.028L52.3702 100.589L52.7498 102.859L50.8648 103.295L50.4878 101.028Z" fill="black"/>
<path d="M47.6613 57.3222C47.6613 57.3222 50.1417 73.0132 50.8697 78.4862C51.6679 84.4792 53.3527 102.008 53.3527 102.008L49.9415 102.96C49.9415 102.96 46.7097 85.9716 45.3785 80.145C43.9329 73.8218 40.7739 57.3326 40.7739 57.3326L47.6613 57.3222Z" fill="#DFF000"/>
<path opacity="0.5" d="M47.6613 57.3222C47.6613 57.3222 50.1417 73.0132 50.8697 78.4862C51.6679 84.4792 53.3527 102.008 53.3527 102.008L49.9415 102.96C49.9415 102.96 46.7097 85.9716 45.3785 80.145C43.9329 73.8218 40.7739 57.3326 40.7739 57.3326L47.6613 57.3222Z" fill="black"/>
<path opacity="0.3" d="M43.6161 62.8342C44.9161 66.1596 44.8433 72.735 44.2843 75.0542C43.5043 71.2504 42.5995 66.7004 41.9053 63.1618C42.1601 62.2518 42.8231 60.8114 43.6161 62.8342Z" fill="black"/>
<path d="M49.8561 103.017L53.5091 102.011L53.4493 100.526L49.3335 101.946L49.8561 103.017Z" fill="#DFF000"/>
<path d="M53.8961 104.923C53.725 104.957 53.5507 104.974 53.3761 104.972C53.3671 104.972 53.3583 104.97 53.3508 104.965C53.3434 104.96 53.3377 104.952 53.3345 104.944C53.3306 104.937 53.3286 104.929 53.3286 104.92C53.3286 104.912 53.3306 104.904 53.3345 104.897C53.3865 104.84 53.8363 104.354 54.0885 104.39C54.1169 104.395 54.1438 104.406 54.1665 104.424C54.1892 104.442 54.2071 104.465 54.2185 104.491C54.243 104.53 54.256 104.575 54.256 104.621C54.256 104.667 54.243 104.712 54.2185 104.751C54.1353 104.846 54.0208 104.907 53.8961 104.923ZM53.4853 104.879C53.8363 104.879 54.0833 104.801 54.1509 104.694C54.1655 104.669 54.1733 104.641 54.1733 104.612C54.1733 104.583 54.1655 104.555 54.1509 104.53C54.1463 104.517 54.138 104.505 54.127 104.496C54.116 104.486 54.1027 104.48 54.0885 104.478C53.9507 104.46 53.6725 104.692 53.4853 104.879Z" fill="#DFF000"/>
<path d="M53.3891 104.97H53.3683C53.3609 104.969 53.354 104.965 53.3485 104.96C53.343 104.955 53.339 104.948 53.3371 104.941C53.3371 104.918 53.1655 104.387 53.3137 104.161C53.3327 104.132 53.358 104.108 53.3877 104.09C53.4174 104.072 53.4507 104.061 53.4853 104.057C53.5232 104.049 53.5627 104.054 53.5973 104.072C53.6318 104.089 53.6593 104.118 53.6751 104.153C53.7635 104.348 53.5711 104.803 53.4151 104.959L53.3891 104.97ZM53.4749 104.151C53.4574 104.155 53.4407 104.162 53.426 104.172C53.4113 104.182 53.3987 104.195 53.3891 104.211C53.323 104.413 53.323 104.632 53.3891 104.835C53.533 104.652 53.6027 104.422 53.5841 104.19C53.5841 104.166 53.5503 104.14 53.4853 104.146L53.4749 104.151Z" fill="#DFF000"/>
<path d="M47.7654 42.406C48.067 42.8246 48.3166 43.2068 48.5714 43.6176C48.8262 44.0284 49.0654 44.4288 49.2916 44.8448C49.7568 45.6778 50.1786 46.5344 50.5552 47.411C50.7424 47.8504 50.927 48.295 51.0882 48.75C51.174 48.9762 51.2468 49.2076 51.3222 49.439C51.3586 49.5612 51.4002 49.6548 51.434 49.7978C51.4678 49.9408 51.5016 50.0786 51.525 50.2398C51.5551 50.4282 51.5716 50.6185 51.5744 50.8092C51.5742 50.9558 51.5603 51.102 51.5328 51.246C51.4815 51.5047 51.3672 51.7467 51.2 51.9506C51.0803 52.0918 50.9335 52.2076 50.7684 52.2912C50.6262 52.3646 50.4722 52.4121 50.3134 52.4316C50.1189 52.4545 49.9219 52.4385 49.7336 52.3848C49.5331 52.3304 49.3432 52.2425 49.172 52.1248C48.9354 51.9611 48.7197 51.769 48.5298 51.5528C48.354 51.3572 48.1932 51.1486 48.0488 50.9288L49.0108 49.8472C49.3697 50.0034 49.7399 50.1321 50.1184 50.232C50.1808 50.232 50.2406 50.232 50.1938 50.2008C50.1195 50.1679 50.0371 50.158 49.9572 50.1722C49.8542 50.1836 49.7539 50.2126 49.6608 50.258C49.5374 50.3209 49.4286 50.4089 49.3413 50.5164C49.254 50.6239 49.1901 50.7484 49.1538 50.882C49.1356 50.9496 49.133 50.973 49.1226 50.9756C49.1122 50.9782 49.0888 50.9288 49.0576 50.8716L48.951 50.6558C48.912 50.583 48.8678 50.466 48.8262 50.3724C48.7404 50.1748 48.6624 49.9772 48.5662 49.7822C48.3894 49.3896 48.2048 49.0022 48.0072 48.6096C47.612 47.8296 47.1882 47.0678 46.7462 46.3112C46.5226 45.9342 46.2964 45.5572 46.065 45.1854C45.8336 44.8136 45.5944 44.4314 45.376 44.1012L47.7654 42.406Z" fill="#CE7A63"/>
<path d="M47.0402 40.651C45.1266 40.2064 43.9644 41.431 44.5364 43.8256C44.8914 45.1955 45.3254 46.5437 45.8364 47.8634C45.9482 48.1598 46.0522 48.425 46.138 48.6434L50.48 46.215C50.012 44.3144 48.3194 40.95 47.0402 40.651Z" fill="#DFF000"/>
<path opacity="0.3" d="M47.1208 42.9208C45.9664 41.8808 47.1468 46.072 47.6408 47.8088L48.9174 47.0964C48.7822 45.8926 48.0074 43.7138 47.1208 42.9208Z" fill="black"/>
<path d="M36.9546 106.254H38.8812L39.1672 101.79H37.2406L36.9546 106.254Z" fill="#CE7A63"/>
<path d="M38.9851 106.031H36.8193C36.8012 106.03 36.7831 106.033 36.7661 106.039C36.7492 106.045 36.7336 106.055 36.7203 106.067C36.707 106.08 36.6963 106.094 36.6887 106.111C36.6812 106.127 36.677 106.145 36.6763 106.163L36.5567 107.877C36.556 107.921 36.5642 107.965 36.5807 108.007C36.5972 108.048 36.6218 108.085 36.6531 108.117C36.6843 108.149 36.7215 108.174 36.7625 108.191C36.8036 108.208 36.8476 108.217 36.8921 108.217C37.6461 108.204 38.0049 108.16 38.9591 108.16C39.5441 108.16 42.0349 108.222 42.8435 108.222C43.6521 108.222 43.6365 107.422 43.2933 107.349C41.7593 107.024 39.8561 106.569 39.3153 106.15C39.2224 106.073 39.1057 106.031 38.9851 106.031Z" fill="#263238"/>
<path opacity="0.2" d="M37.2405 101.79H39.1671L39.0189 104.091H37.0923L37.2405 101.79Z" fill="black"/>
<path d="M43.8993 57.3222C43.8993 57.3222 43.9643 71.955 43.6081 77.4722C43.2181 83.5172 39.8511 103.537 39.8511 103.537H36.3203C36.3203 103.537 38.0753 84.0034 37.9089 78.0208C37.7295 71.5208 37.3525 57.3222 37.3525 57.3222H43.8993Z" fill="#DFF000"/>
<path opacity="0.5" d="M43.8993 57.3222C43.8993 57.3222 43.9643 71.955 43.6081 77.4722C43.2181 83.5172 39.8511 103.537 39.8511 103.537H36.3203C36.3203 103.537 38.0753 84.0034 37.9089 78.0208C37.7295 71.5208 37.3525 57.3222 37.3525 57.3222H43.8993Z" fill="black"/>
<path d="M36.1771 103.537H39.9939L40.2149 102.196L36.0029 102.406L36.1771 103.537Z" fill="#DFF000"/>
<path d="M39.6666 106.366C39.4913 106.362 39.317 106.339 39.1466 106.298C39.1384 106.296 39.131 106.291 39.125 106.285C39.1191 106.278 39.1149 106.27 39.1128 106.262C39.1115 106.253 39.1128 106.245 39.1165 106.237C39.1202 106.229 39.1261 106.222 39.1336 106.218C39.1934 106.174 39.742 105.802 39.9786 105.893C40.005 105.904 40.0282 105.921 40.0459 105.943C40.0637 105.966 40.0754 105.992 40.08 106.02C40.0918 106.062 40.0928 106.107 40.0828 106.15C40.0728 106.192 40.0522 106.232 40.0228 106.265C39.9205 106.341 39.7937 106.377 39.6666 106.366ZM39.2766 106.233C39.6198 106.301 39.8746 106.291 39.9656 106.2C39.9847 106.179 39.9979 106.153 40.0039 106.125C40.0098 106.097 40.0083 106.068 39.9994 106.041C39.9974 106.027 39.9918 106.013 39.9832 106.002C39.9745 105.991 39.9631 105.982 39.95 105.976C39.82 105.927 39.5002 106.08 39.2766 106.233Z" fill="#DFF000"/>
<path d="M39.1621 106.298H39.1413C39.1349 106.295 39.1295 106.289 39.1254 106.283C39.1214 106.277 39.1188 106.269 39.1179 106.262C39.1179 106.239 39.0763 105.685 39.2739 105.498C39.2982 105.473 39.3281 105.454 39.3612 105.443C39.3942 105.432 39.4294 105.43 39.4637 105.435C39.5018 105.437 39.5383 105.451 39.5675 105.475C39.5966 105.5 39.6169 105.533 39.6249 105.57C39.6691 105.781 39.3779 106.184 39.1855 106.298H39.1621ZM39.4221 105.518C39.4043 105.518 39.3865 105.521 39.3699 105.528C39.3534 105.535 39.3384 105.545 39.3259 105.557C39.2183 105.742 39.1719 105.956 39.1933 106.168C39.3749 106.023 39.4947 105.814 39.5287 105.583C39.5287 105.557 39.5079 105.526 39.4429 105.518H39.4221Z" fill="#DFF000"/>
<path d="M47.6616 57.3222H37.3526C37.2876 56.4018 37.5242 53.4066 37.3942 49.5924C37.3202 46.7673 37.0009 43.9539 36.44 41.184C36.3958 40.976 36.349 40.7706 36.3022 40.5626C36.3022 40.5626 36.8222 40.456 37.5736 40.3468C38.1976 40.2558 38.9776 40.1622 39.742 40.1258C41.2012 40.0425 42.6639 40.0425 44.123 40.1258C44.7964 40.1882 45.4542 40.3 45.9768 40.4014C46.6476 40.5366 47.0428 40.6614 47.0428 40.6614C47.0428 40.6614 49.5336 46.4828 47.6616 57.3222Z" fill="#DFF000"/>
<path d="M47.8017 49.5014C47.6225 49.1895 47.384 48.9157 47.0997 48.6954C46.9078 48.5853 46.7244 48.461 46.5511 48.3236C46.5332 48.3102 46.5122 48.3018 46.4901 48.2991C46.468 48.2964 46.4455 48.2995 46.425 48.3082C46.4045 48.3169 46.3866 48.3308 46.3731 48.3486C46.3597 48.3663 46.3511 48.3873 46.3483 48.4094C46.3275 48.5602 46.3899 48.8072 46.7591 49.166C46.7877 49.6418 47.4871 50.167 47.4871 50.167L47.8017 49.5014Z" fill="#CE7A63"/>
<path opacity="0.3" d="M46.2288 50.6506H44.0864L45.5684 46.4256H47.7108L46.2288 50.6506Z" fill="black"/>
<path d="M46.3743 50.6506H44.2319L45.7139 46.4256H47.8563L46.3743 50.6506Z" fill="#263238"/>
<path opacity="0.3" d="M37.3941 49.5924C37.3201 46.7673 37.0008 43.9539 36.4399 41.184C37.1289 41.1242 38.3067 41.184 38.4939 42.3046C38.6915 43.5006 38.4029 46.3138 37.3941 49.5924Z" fill="black"/>
<path d="M38.3171 43.0066L37.2199 46.761L36.6765 48.6356L36.4165 49.5716L36.2865 50.037L36.2241 50.271V50.2996C36.2253 50.2832 36.2253 50.2666 36.2241 50.2502C36.229 50.2018 36.229 50.153 36.2241 50.1046C36.2054 49.9811 36.1602 49.8631 36.0915 49.7588C36.0499 49.6965 35.9959 49.6434 35.9329 49.6028C35.8653 49.5664 35.9095 49.6028 35.9823 49.6366C36.2058 49.715 36.4381 49.7656 36.6739 49.7874C37.2783 49.8515 37.8862 49.8775 38.4939 49.8654C39.7549 49.8498 41.0705 49.777 42.3575 49.6886L42.6435 51.1082C41.3454 51.5219 40.0172 51.834 38.6707 52.0416C37.963 52.1546 37.2475 52.212 36.5309 52.2132C36.1062 52.2136 35.6829 52.1639 35.2699 52.065C34.9666 51.9937 34.6792 51.8668 34.4223 51.6906C34.2226 51.5518 34.0521 51.3751 33.9205 51.1706C33.7571 50.9301 33.6545 50.6535 33.6215 50.3646C33.6086 50.2341 33.6086 50.1025 33.6215 49.972C33.6215 49.9148 33.6215 49.8576 33.6449 49.8004L33.6631 49.6964L33.7099 49.4364L33.8009 48.9398C33.8633 48.6096 33.9309 48.2794 34.0037 47.9518C34.1441 47.2966 34.2897 46.6518 34.4535 45.994C34.7733 44.694 35.1295 43.42 35.5403 42.1356L38.3171 43.0066Z" fill="#CE7A63"/>
<path d="M36.2995 40.56C35.0151 40.859 33.5747 44.2416 33.0677 46.1422C32.9819 46.4672 32.9143 46.7454 32.8623 46.9586C32.7947 47.2394 32.7583 47.4084 32.7583 47.4084L37.0665 48.6356C37.1549 48.4224 37.2641 48.1572 37.3785 47.8556C37.9145 46.5376 38.3728 45.1894 38.7513 43.8178C39.3623 41.4284 38.2183 40.118 36.2995 40.56Z" fill="#DFF000"/>
<path d="M43.9123 40.1102C42.6409 39.8086 42.4251 39.0208 42.5161 38.155C42.5381 37.938 42.5737 37.7227 42.6227 37.5102L41.0367 36.1842L39.8719 35.2118C40.1865 36.6236 40.5323 39.195 39.5703 40.1362C40.8458 41.1979 42.2603 42.0805 43.7745 42.7596C45.2799 41.6546 43.9123 40.1102 43.9123 40.1102Z" fill="#CE7A63"/>
<path opacity="0.2" d="M42.6227 37.5102C42.5736 37.7227 42.538 37.938 42.5161 38.155C41.9233 38.0354 41.0263 37.505 40.9561 36.8342C40.9596 36.6146 40.9902 36.3963 41.0471 36.1842L42.6227 37.5102Z" fill="black"/>
<path d="M45.5944 30.7346C46.1482 31.6134 45.103 34.1432 43.7744 33.9612C42.4458 33.7792 44.5492 29.0654 45.5944 30.7346Z" fill="#263238"/>
<path d="M39.9888 32.3648C39.7548 34.2706 39.5183 35.3704 40.2801 36.5248C40.526 36.9075 40.8718 37.2157 41.2802 37.4161C41.6886 37.6165 42.144 37.7015 42.5972 37.6618C43.0503 37.6222 43.4841 37.4595 43.8515 37.1913C44.2189 36.9231 44.506 36.5596 44.6818 36.14C45.3968 34.5358 45.6621 31.6914 43.9773 30.55C43.6153 30.2943 43.1926 30.1379 42.7514 30.0963C42.3101 30.0548 41.8657 30.1295 41.4623 30.313C41.0589 30.4966 40.7107 30.7826 40.4521 31.1425C40.1936 31.5025 40.0339 31.9239 39.9888 32.3648Z" fill="#CE7A63"/>
<path d="M39.7677 33.826C40.7427 33.7038 41.4473 32.0788 41.2471 31.3196C41.9647 31.8396 47.6613 32.5 46.7929 28.7846C45.1679 28.7846 38.3871 28.4804 39.5129 29.9442C38.7329 29.9442 37.9945 30.6514 38.5249 32.2842C39.0605 33.9638 39.7677 33.826 39.7677 33.826Z" fill="#263238"/>
<path d="M38.9332 34.0756C39.0985 34.5191 39.4129 34.8913 39.8224 35.1286C40.3424 35.4172 40.6544 34.9414 40.5452 34.3486C40.449 33.8104 40.059 33.0122 39.5052 32.9732C38.9514 32.9342 38.7252 33.514 38.9332 34.0756Z" fill="#CE7A63"/>
<path d="M42.7188 33.4984C42.6902 33.6518 42.7474 33.7922 42.8462 33.813C42.945 33.8338 43.049 33.7272 43.0776 33.5738C43.1062 33.4204 43.049 33.28 42.9502 33.2592C42.8514 33.2384 42.7474 33.345 42.7188 33.4984Z" fill="#263238"/>
<path d="M44.4351 33.865C44.4065 34.0184 44.4637 34.1614 44.5625 34.1822C44.6613 34.203 44.7653 34.0964 44.7939 33.943C44.8225 33.7896 44.7653 33.6492 44.6665 33.6284C44.5677 33.6076 44.4637 33.7142 44.4351 33.865Z" fill="#263238"/>
<path d="M43.8733 33.826C43.9681 34.3331 44.1298 34.8253 44.3543 35.2898C44.2358 35.3421 44.1073 35.3676 43.9778 35.3645C43.8484 35.3613 43.7212 35.3296 43.6055 35.2716L43.8733 33.826Z" fill="#BA4D3C"/>
<path d="M42.9089 35.5524C42.7388 35.4952 42.582 35.4043 42.448 35.285C42.314 35.1657 42.2054 35.0205 42.1289 34.8582C42.1254 34.8524 42.1231 34.8458 42.1224 34.8391C42.1216 34.8323 42.1223 34.8254 42.1245 34.8189C42.1267 34.8125 42.1302 34.8066 42.1349 34.8016C42.1396 34.7967 42.1454 34.7928 42.1517 34.7903C42.1581 34.7878 42.1649 34.7867 42.1717 34.7871C42.1785 34.7875 42.1851 34.7894 42.1912 34.7927C42.1972 34.7959 42.2024 34.8005 42.2064 34.8059C42.2105 34.8114 42.2133 34.8177 42.2147 34.8244C42.3007 34.9996 42.4259 35.1526 42.5805 35.2716C42.7352 35.3907 42.9151 35.4725 43.1065 35.5108C43.1126 35.5117 43.1185 35.5139 43.1237 35.5172C43.1289 35.5205 43.1334 35.5249 43.1368 35.53C43.1403 35.5352 43.1426 35.541 43.1436 35.5471C43.1447 35.5532 43.1444 35.5594 43.1429 35.5654C43.1398 35.5769 43.1325 35.5869 43.1223 35.5931C43.1122 35.5994 43.1 35.6016 43.0883 35.5992C43.0276 35.5872 42.9677 35.5716 42.9089 35.5524Z" fill="#263238"/>
<path d="M42.2926 32.825C42.2776 32.8198 42.2643 32.8108 42.2539 32.7989C42.2435 32.7871 42.2364 32.7727 42.2333 32.7572C42.2301 32.7417 42.2311 32.7257 42.236 32.7107C42.2409 32.6957 42.2497 32.6822 42.2614 32.6716C42.3664 32.5726 42.4941 32.501 42.6332 32.4629C42.7724 32.4248 42.9188 32.4215 43.0596 32.4532C43.0828 32.4604 43.1023 32.4764 43.1139 32.4978C43.1256 32.5191 43.1285 32.5442 43.122 32.5676C43.1142 32.5905 43.0981 32.6096 43.0769 32.6211C43.0557 32.6327 43.031 32.6358 43.0076 32.63C42.897 32.6067 42.7824 32.6106 42.6737 32.6414C42.565 32.6722 42.4654 32.7289 42.3836 32.8068C42.3714 32.8177 42.3566 32.8252 42.3406 32.8284C42.3245 32.8316 42.308 32.8304 42.2926 32.825Z" fill="#263238"/>
<path d="M45.2801 33.4282C45.2662 33.4241 45.2536 33.4164 45.2435 33.4059C45.2335 33.3954 45.2264 33.3825 45.2229 33.3684C45.1961 33.2546 45.1434 33.1485 45.069 33.0584C44.9946 32.9682 44.9005 32.8963 44.7939 32.8484C44.7824 32.8446 44.7718 32.8386 44.7627 32.8305C44.7536 32.8225 44.7463 32.8127 44.7412 32.8017C44.7361 32.7908 44.7333 32.7789 44.7329 32.7668C44.7326 32.7547 44.7348 32.7426 44.7393 32.7314C44.747 32.7087 44.7633 32.69 44.7847 32.6793C44.8062 32.6686 44.8309 32.6668 44.8537 32.6742C44.9881 32.7314 45.1072 32.8193 45.2016 32.9308C45.296 33.0423 45.3629 33.1744 45.3971 33.3164C45.4035 33.3395 45.4006 33.3642 45.3889 33.3851C45.3772 33.4061 45.3577 33.4215 45.3347 33.4282C45.3171 33.4348 45.2977 33.4348 45.2801 33.4282Z" fill="#263238"/>
<path d="M42.0143 49.7588L44.0735 48.6928L43.7199 51.0978C43.7199 51.0978 42.0273 51.5632 41.8687 50.6714L42.0143 49.7588Z" fill="#CE7A63"/>
<path d="M43.4185 49.0308C43.6489 48.7505 43.9314 48.5174 44.2505 48.3444C44.4809 48.2404 44.7011 48.115 44.9083 47.97C44.9278 47.9596 44.9497 47.9545 44.9719 47.9551C44.994 47.9558 45.0156 47.9622 45.0345 47.9738C45.0534 47.9853 45.069 48.0016 45.0797 48.021C45.0903 48.0404 45.0958 48.0623 45.0955 48.0844C45.0558 48.2479 44.983 48.4016 44.8814 48.5357C44.7799 48.6699 44.6519 48.7818 44.5053 48.8644C44.3961 49.3298 43.6161 49.738 43.6161 49.738L43.4185 49.0308Z" fill="#CE7A63"/>
<path d="M45.7583 49.0256L45.4697 50.5258C45.4573 50.5902 45.4259 50.6494 45.3796 50.6957C45.3332 50.7421 45.274 50.7734 45.2097 50.7858L43.7017 51.0978L44.0683 48.7136L45.4229 48.6434C45.4719 48.64 45.5211 48.648 45.5666 48.6668C45.6121 48.6855 45.6527 48.7145 45.6851 48.7515C45.7176 48.7885 45.7411 48.8325 45.7538 48.88C45.7664 48.9275 45.768 48.9774 45.7583 49.0256Z" fill="#CE7A63"/>
<path d="M41.8555 50.6714L42.0141 49.7588L44.0733 48.6928" fill="#CE7A63"/>
<path d="M48.7143 49.9564L47.0737 48.9632L46.9541 51.0978C46.9541 51.0978 48.6831 51.7608 48.8573 50.869L48.7143 49.9564Z" fill="#CE7A63"/>
<path d="M46.3201 48.9866L46.1901 50.6688C46.1865 50.7149 46.1983 50.7609 46.2237 50.7995C46.2492 50.8381 46.2867 50.8671 46.3305 50.882L46.9519 51.0978L47.0715 48.9632L46.5983 48.802C46.5678 48.7916 46.5352 48.7883 46.5032 48.7924C46.4712 48.7965 46.4406 48.808 46.4137 48.8258C46.3869 48.8436 46.3644 48.8674 46.3482 48.8953C46.332 48.9232 46.3223 48.9544 46.3201 48.9866Z" fill="#CE7A63"/>
<path d="M43.8993 22.6746C43.8993 22.8597 43.8445 23.0407 43.7416 23.1946C43.6388 23.3485 43.4926 23.4685 43.3215 23.5394C43.1505 23.6102 42.9623 23.6287 42.7807 23.5926C42.5992 23.5565 42.4324 23.4674 42.3015 23.3365C42.1706 23.2056 42.0814 23.0388 42.0453 22.8572C42.0092 22.6756 42.0278 22.4874 42.0986 22.3164C42.1694 22.1454 42.2894 21.9992 42.4433 21.8963C42.5973 21.7935 42.7782 21.7386 42.9633 21.7386C43.2116 21.7386 43.4497 21.8372 43.6252 22.0127C43.8007 22.1883 43.8993 22.4264 43.8993 22.6746Z" fill="#DFF000"/>
<path d="M40.2153 23.2258C40.2153 23.4109 40.1604 23.5919 40.0575 23.7458C39.9547 23.8997 39.8085 24.0197 39.6375 24.0906C39.4664 24.1614 39.2782 24.1799 39.0967 24.1438C38.9151 24.1077 38.7483 24.0186 38.6174 23.8877C38.4865 23.7568 38.3974 23.59 38.3612 23.4084C38.3251 23.2268 38.3437 23.0386 38.4145 22.8676C38.4854 22.6966 38.6053 22.5504 38.7592 22.4475C38.9132 22.3447 39.0941 22.2898 39.2793 22.2898C39.5275 22.2898 39.7656 22.3884 39.9411 22.5639C40.1166 22.7395 40.2153 22.9776 40.2153 23.2258Z" fill="#DFF000"/>
<path d="M46.6499 24.7156C47.1668 24.7156 47.5859 24.2965 47.5859 23.7796C47.5859 23.2627 47.1668 22.8436 46.6499 22.8436C46.1329 22.8436 45.7139 23.2627 45.7139 23.7796C45.7139 24.2965 46.1329 24.7156 46.6499 24.7156Z" fill="#DFF000"/>
</g>
<defs>
<clipPath id="clip0_503_69">
<rect width="115" height="113" fill="white" transform="translate(6)"/>
</clipPath>
</defs>
</svg>
