<svg width="127" height="114" viewBox="0 0 127 114" fill="none" xmlns="http://www.w3.org/2000/svg">
<path d="M63.3333 114C98.3114 114 126.667 85.6447 126.667 50.6667H0C0 85.6447 28.3553 114 63.3333 114Z" fill="#DCD7C3"/>
<ellipse cx="62.6111" cy="78.7222" rx="43.6111" ry="6.94444" fill="#C9C3A9"/>
<path d="M104.582 3.30773C104.665 2.71042 103.821 2.21877 103.188 2.16806C102.886 2.1427 102.571 2.18919 102.285 2.08917C101.666 1.87363 101.418 1.07206 100.813 0.821304C100.361 0.629715 99.8398 0.800173 99.4045 1.02135C98.9692 1.24252 98.5325 1.52004 98.0423 1.55103C97.6196 1.5778 97.1533 1.42002 96.7744 1.62851C96.4927 1.78347 96.3518 2.10326 96.0954 2.29203C95.839 2.4808 95.5178 2.51602 95.2065 2.53292C94.8951 2.54983 94.574 2.55264 94.2908 2.68225C94.0076 2.81185 93.7738 3.10487 93.833 3.41761L104.582 3.30773Z" fill="#F5F5F5"/>
<path d="M36.724 13.9451H24.8174V51.6796H36.724V13.9451Z" fill="#F5F5F5"/>
<path d="M36.7243 13.9451H30.771V51.5754H36.7243V13.9451Z" fill="#EBEBEB"/>
<path d="M30.3823 10.2415H26.1772V13.9465H30.3823V10.2415Z" fill="#F5F5F5"/>
<path d="M30.3805 10.2415H29.3789V13.9465H30.3805V10.2415Z" fill="#EBEBEB"/>
<path d="M23.8262 13.9451V13.7296H37.0725V13.9451" fill="#E0E0E0"/>
<path d="M28.1747 15.5609H27.1675V17.6853H28.1747V15.5609Z" fill="#FAFAFA"/>
<path d="M30.7707 18.5221C30.7707 18.5432 29.438 18.5615 27.794 18.5615C26.15 18.5615 24.8174 18.5432 24.8174 18.5221C24.8174 18.501 26.15 18.4812 27.794 18.4812C29.438 18.4812 30.7707 18.4982 30.7707 18.5221Z" fill="#E0E0E0"/>
<path d="M34.1806 15.5609H33.1733V17.6853H34.1806V15.5609Z" fill="#E0E0E0"/>
<path d="M36.7751 18.5221C36.7751 18.5432 35.4424 18.5615 33.7984 18.5615C32.1544 18.5615 30.8218 18.5432 30.8218 18.5221C30.8218 18.501 32.1544 18.4812 33.7984 18.4812C35.4424 18.4812 36.7751 18.4982 36.7751 18.5221Z" fill="#E0E0E0"/>
<path d="M34.1806 19.7801H33.1733V21.9059H34.1806V19.7801Z" fill="#E0E0E0"/>
<path d="M36.7751 22.7399C36.7751 22.761 35.4424 22.7793 33.7984 22.7793C32.1544 22.7793 30.8218 22.761 30.8218 22.7399C30.8218 22.7187 32.1544 22.699 33.7984 22.699C35.4424 22.699 36.7751 22.7173 36.7751 22.7399Z" fill="#E0E0E0"/>
<path d="M34.1806 24.1261H33.1733V26.2504H34.1806V24.1261Z" fill="#E0E0E0"/>
<path d="M36.7751 27.0858C36.7751 27.1084 35.4424 27.1267 33.7984 27.1267C32.1544 27.1267 30.8218 27.1084 30.8218 27.0858C30.8218 27.0633 32.1544 27.045 33.7984 27.045C35.4424 27.045 36.7751 27.0633 36.7751 27.0858Z" fill="#E0E0E0"/>
<path d="M34.1806 28.4734H33.1733V30.5978H34.1806V28.4734Z" fill="#E0E0E0"/>
<path d="M36.7751 31.4318C36.7751 31.4544 35.4424 31.4727 33.7984 31.4727C32.1544 31.4727 30.8218 31.4544 30.8218 31.4318C30.8218 31.4093 32.1544 31.391 33.7984 31.391C35.4424 31.391 36.7751 31.4093 36.7751 31.4318Z" fill="#E0E0E0"/>
<path d="M34.1806 32.6954H33.1733V34.8198H34.1806V32.6954Z" fill="#E0E0E0"/>
<path d="M36.7751 35.6538C36.7751 35.6763 35.4424 35.6946 33.7984 35.6946C32.1544 35.6946 30.8218 35.6763 30.8218 35.6538C30.8218 35.6312 32.1544 35.6129 33.7984 35.6129C35.4424 35.6129 36.7751 35.6312 36.7751 35.6538Z" fill="#E0E0E0"/>
<path d="M34.1806 36.9343H33.1733V39.0587H34.1806V36.9343Z" fill="#E0E0E0"/>
<path d="M34.1806 41.2282H33.1733V43.3526H34.1806V41.2282Z" fill="#E0E0E0"/>
<path d="M36.7751 39.8927C36.7751 39.9152 35.4424 39.9335 33.7984 39.9335C32.1544 39.9335 30.8218 39.9152 30.8218 39.8927C30.8218 39.8701 32.1544 39.8532 33.7984 39.8532C35.4424 39.8532 36.7751 39.8715 36.7751 39.8927Z" fill="#E0E0E0"/>
<path d="M28.1747 19.8449H27.1675V21.9693H28.1747V19.8449Z" fill="#FAFAFA"/>
<path d="M30.7707 22.8033C30.7707 22.8258 29.438 22.8441 27.794 22.8441C26.15 22.8441 24.8174 22.8258 24.8174 22.8033C24.8174 22.7807 26.15 22.7624 27.794 22.7624C29.438 22.7624 30.7707 22.7807 30.7707 22.8033Z" fill="#E0E0E0"/>
<path d="M28.1747 24.1275H27.1675V26.2519H28.1747V24.1275Z" fill="#FAFAFA"/>
<path d="M30.7707 27.0872C30.7707 27.1098 29.438 27.1281 27.794 27.1281C26.15 27.1281 24.8174 27.1098 24.8174 27.0872C24.8174 27.0647 26.15 27.0464 27.794 27.0464C29.438 27.0464 30.7707 27.0647 30.7707 27.0872Z" fill="#E0E0E0"/>
<path d="M28.1747 28.4115H27.1675V30.5358H28.1747V28.4115Z" fill="#FAFAFA"/>
<path d="M30.7707 31.3712C30.7707 31.3923 29.438 31.4107 27.794 31.4107C26.15 31.4107 24.8174 31.3923 24.8174 31.3712C24.8174 31.3501 26.15 31.3304 27.794 31.3304C29.438 31.3304 30.7707 31.3487 30.7707 31.3712Z" fill="#E0E0E0"/>
<path d="M28.1747 32.6954H27.1675V34.8198H28.1747V32.6954Z" fill="#FAFAFA"/>
<path d="M30.7707 35.6538C30.7707 35.6763 29.438 35.6946 27.794 35.6946C26.15 35.6946 24.8174 35.6763 24.8174 35.6538C24.8174 35.6312 26.15 35.6129 27.794 35.6129C29.438 35.6129 30.7707 35.6312 30.7707 35.6538Z" fill="#E0E0E0"/>
<path d="M28.1747 36.978H27.1675V39.1024H28.1747V36.978Z" fill="#FAFAFA"/>
<path d="M30.7707 39.935C30.7707 39.9575 29.438 39.9758 27.794 39.9758C26.15 39.9758 24.8174 39.9575 24.8174 39.935C24.8174 39.9124 26.15 39.8941 27.794 39.8941C29.438 39.8941 30.7707 39.9152 30.7707 39.935Z" fill="#E0E0E0"/>
<path d="M28.1747 41.262H27.1675V43.3864H28.1747V41.262Z" fill="#FAFAFA"/>
<path d="M83.7056 5.33913H66.543V59.7305H83.7056V5.33913Z" fill="#F5F5F5"/>
<path d="M83.7042 5.33913H75.1235V59.5812H83.7042V5.33913Z" fill="#EBEBEB"/>
<path d="M74.5633 0H68.5029V5.34053H74.5633V0Z" fill="#F5F5F5"/>
<path d="M74.5631 0H73.1191V5.34053H74.5631V0Z" fill="#EBEBEB"/>
<path d="M65.1133 5.33913V5.0278H84.2073V5.33913" fill="#E0E0E0"/>
<path d="M71.3836 7.6692H69.9312V10.7318H71.3836V7.6692Z" fill="#FAFAFA"/>
<path d="M75.1236 11.9334C75.1236 11.9658 73.2035 11.9926 70.834 11.9926C68.4645 11.9926 66.543 11.9658 66.543 11.9334C66.543 11.901 68.4631 11.8757 70.834 11.8757C73.2049 11.8757 75.1236 11.901 75.1236 11.9334Z" fill="#E0E0E0"/>
<path d="M80.0388 7.6692H78.5864V10.7318H80.0388V7.6692Z" fill="#E0E0E0"/>
<path d="M83.7803 11.9334C83.7803 11.9658 81.8588 11.9926 79.4893 11.9926C77.1198 11.9926 75.1982 11.9658 75.1982 11.9334C75.1982 11.901 77.1198 11.8757 79.4893 11.8757C81.8588 11.8757 83.7803 11.901 83.7803 11.9334Z" fill="#E0E0E0"/>
<path d="M80.0388 13.7507H78.5864V16.8133H80.0388V13.7507Z" fill="#E0E0E0"/>
<path d="M83.7803 18.0164C83.7803 18.0488 81.8588 18.0741 79.4893 18.0741C77.1198 18.0741 75.1982 18.0488 75.1982 18.0164C75.1982 17.9839 77.1198 17.9572 79.4893 17.9572C81.8588 17.9572 83.7803 17.9839 83.7803 18.0164Z" fill="#E0E0E0"/>
<path d="M80.0388 20.0154H78.5864V23.078H80.0388V20.0154Z" fill="#E0E0E0"/>
<path d="M83.7803 24.281C83.7803 24.3134 81.8588 24.3402 79.4893 24.3402C77.1198 24.3402 75.1982 24.3134 75.1982 24.281C75.1982 24.2486 77.1198 24.2219 79.4893 24.2219C81.8588 24.2219 83.7803 24.2486 83.7803 24.281Z" fill="#E0E0E0"/>
<path d="M80.0388 26.2814H78.5864V29.344H80.0388V26.2814Z" fill="#E0E0E0"/>
<path d="M83.7803 30.5457C83.7803 30.5781 81.8588 30.6049 79.4893 30.6049C77.1198 30.6049 75.1982 30.5781 75.1982 30.5457C75.1982 30.5133 77.1198 30.4879 79.4893 30.4879C81.8588 30.4879 83.7803 30.5133 83.7803 30.5457Z" fill="#E0E0E0"/>
<path d="M80.0388 32.3672H78.5864V35.4298H80.0388V32.3672Z" fill="#E0E0E0"/>
<path d="M83.7803 36.6329C83.7803 36.6639 81.8588 36.6906 79.4893 36.6906C77.1198 36.6906 75.1982 36.6639 75.1982 36.6329C75.1982 36.6019 77.1198 36.5737 79.4893 36.5737C81.8588 36.5737 83.7803 36.6005 83.7803 36.6329Z" fill="#E0E0E0"/>
<path d="M80.0388 38.4769H78.5864V41.5395H80.0388V38.4769Z" fill="#E0E0E0"/>
<path d="M80.0388 44.6683H78.5864V47.7309H80.0388V44.6683Z" fill="#E0E0E0"/>
<path d="M83.7803 42.7426C83.7803 42.775 81.8588 42.8017 79.4893 42.8017C77.1198 42.8017 75.1982 42.775 75.1982 42.7426C75.1982 42.7102 77.1198 42.6848 79.4893 42.6848C81.8588 42.6848 83.7803 42.7102 83.7803 42.7426Z" fill="#E0E0E0"/>
<path d="M71.3836 13.8437H69.9312V16.9063H71.3836V13.8437Z" fill="#FAFAFA"/>
<path d="M75.1236 18.1093C75.1236 18.1403 73.2035 18.1671 70.834 18.1671C68.4645 18.1671 66.543 18.1403 66.543 18.1093C66.543 18.0783 68.4631 18.0502 70.834 18.0502C73.2049 18.0502 75.1236 18.0769 75.1236 18.1093Z" fill="#E0E0E0"/>
<path d="M71.3836 20.0182H69.9312V23.0808H71.3836V20.0182Z" fill="#FAFAFA"/>
<path d="M75.1236 24.2838C75.1236 24.3148 73.2035 24.3416 70.834 24.3416C68.4645 24.3416 66.543 24.3148 66.543 24.2838C66.543 24.2528 68.4631 24.2247 70.834 24.2247C73.2049 24.2247 75.1236 24.2514 75.1236 24.2838Z" fill="#E0E0E0"/>
<path d="M71.3836 26.1927H69.9312V29.2553H71.3836V26.1927Z" fill="#FAFAFA"/>
<path d="M75.1236 30.4583C75.1236 30.4893 73.2035 30.5161 70.834 30.5161C68.4645 30.5161 66.543 30.4893 66.543 30.4583C66.543 30.4273 68.4631 30.3992 70.834 30.3992C73.2049 30.3992 75.1236 30.4259 75.1236 30.4583Z" fill="#E0E0E0"/>
<path d="M71.3836 32.3672H69.9312V35.4298H71.3836V32.3672Z" fill="#FAFAFA"/>
<path d="M75.1236 36.6329C75.1236 36.6639 73.2035 36.6906 70.834 36.6906C68.4645 36.6906 66.543 36.6639 66.543 36.6329C66.543 36.6019 68.4631 36.5737 70.834 36.5737C73.2049 36.5737 75.1236 36.6005 75.1236 36.6329Z" fill="#E0E0E0"/>
<path d="M71.3836 38.5417H69.9312V41.6043H71.3836V38.5417Z" fill="#FAFAFA"/>
<path d="M75.1236 42.8073C75.1236 42.8397 73.2035 42.8651 70.834 42.8651C68.4645 42.8651 66.543 42.8397 66.543 42.8073C66.543 42.7749 68.4631 42.7482 70.834 42.7482C73.2049 42.7482 75.1236 42.7749 75.1236 42.8073Z" fill="#E0E0E0"/>
<path d="M71.3836 44.7162H69.9312V47.7788H71.3836V44.7162Z" fill="#FAFAFA"/>
<path d="M89.7618 30.0132H80.3853V59.7291H89.7618V30.0132Z" fill="#F5F5F5"/>
<path d="M89.762 30.0132H85.0737V59.6474H89.762V30.0132Z" fill="#EBEBEB"/>
<path d="M84.7666 27.0957H81.4561V30.0132H84.7666V27.0957Z" fill="#F5F5F5"/>
<path d="M84.7664 27.0957H83.9775V30.0132H84.7664V27.0957Z" fill="#EBEBEB"/>
<path d="M79.6035 30.0132V29.8427H90.0366V30.0132" fill="#E0E0E0"/>
<path d="M83.0295 31.2853H82.2363V32.9588H83.0295V31.2853Z" fill="#FAFAFA"/>
<path d="M85.0735 33.6167C85.0735 33.6336 84.024 33.6477 82.7294 33.6477C81.4348 33.6477 80.3853 33.6336 80.3853 33.6167C80.3853 33.5998 81.4348 33.5843 82.7294 33.5843C84.024 33.5843 85.0735 33.5956 85.0735 33.6167Z" fill="#E0E0E0"/>
<path d="M87.7589 31.2853H86.9658V32.9588H87.7589V31.2853Z" fill="#E0E0E0"/>
<path d="M89.803 33.6167C89.803 33.6336 88.7535 33.6477 87.4589 33.6477C86.1643 33.6477 85.1147 33.6336 85.1147 33.6167C85.1147 33.5998 86.1643 33.5843 87.4589 33.5843C88.7535 33.5843 89.803 33.5956 89.803 33.6167Z" fill="#E0E0E0"/>
<path d="M87.7589 34.6085H86.9658V36.2821H87.7589V34.6085Z" fill="#E0E0E0"/>
<path d="M89.803 36.9386C89.803 36.9569 88.7535 36.971 87.4589 36.971C86.1643 36.971 85.1147 36.9569 85.1147 36.9386C85.1147 36.9202 86.1643 36.9062 87.4589 36.9062C88.7535 36.9062 89.803 36.9217 89.803 36.9386Z" fill="#E0E0E0"/>
<path d="M87.7589 38.0317H86.9658V39.7053H87.7589V38.0317Z" fill="#E0E0E0"/>
<path d="M89.803 40.3576C89.803 40.3745 88.7535 40.39 87.4589 40.39C86.1643 40.39 85.1147 40.3745 85.1147 40.3576C85.1147 40.3407 86.1643 40.3252 87.4589 40.3252C88.7535 40.3252 89.803 40.3435 89.803 40.3576Z" fill="#E0E0E0"/>
<path d="M87.7589 41.4536H86.9658V43.1272H87.7589V41.4536Z" fill="#E0E0E0"/>
<path d="M89.803 43.7851C89.803 43.802 88.7535 43.816 87.4589 43.816C86.1643 43.816 85.1147 43.802 85.1147 43.7851C85.1147 43.7681 86.1643 43.7527 87.4589 43.7527C88.7535 43.7527 89.803 43.7667 89.803 43.7851Z" fill="#E0E0E0"/>
<path d="M87.7589 44.7796H86.9658V46.4532H87.7589V44.7796Z" fill="#E0E0E0"/>
<path d="M89.803 47.1097C89.803 47.128 88.7535 47.1421 87.4589 47.1421C86.1643 47.1421 85.1147 47.128 85.1147 47.1097C85.1147 47.0913 86.1643 47.0773 87.4589 47.0773C88.7535 47.0773 89.803 47.0913 89.803 47.1097Z" fill="#E0E0E0"/>
<path d="M87.7589 48.1183H86.9658V49.7919H87.7589V48.1183Z" fill="#E0E0E0"/>
<path d="M87.7589 51.4993H86.9658V53.1729H87.7589V51.4993Z" fill="#E0E0E0"/>
<path d="M89.803 50.4483C89.803 50.4652 88.7535 50.4793 87.4589 50.4793C86.1643 50.4793 85.1147 50.4652 85.1147 50.4483C85.1147 50.4314 86.1643 50.4159 87.4589 50.4159C88.7535 50.4159 89.803 50.43 89.803 50.4483Z" fill="#E0E0E0"/>
<path d="M83.0295 34.6592H82.2363V36.3328H83.0295V34.6592Z" fill="#FAFAFA"/>
<path d="M85.0735 36.9893C85.0735 37.0076 84.024 37.0217 82.7294 37.0217C81.4348 37.0217 80.3853 37.0076 80.3853 36.9893C80.3853 36.971 81.4348 36.9569 82.7294 36.9569C84.024 36.9569 85.0735 36.9766 85.0735 36.9893Z" fill="#E0E0E0"/>
<path d="M83.0295 38.0331H82.2363V39.7067H83.0295V38.0331Z" fill="#FAFAFA"/>
<path d="M85.0735 40.3576C85.0735 40.3745 84.024 40.3886 82.7294 40.3886C81.4348 40.3886 80.3853 40.3745 80.3853 40.3576C80.3853 40.3407 81.4348 40.3252 82.7294 40.3252C84.024 40.3252 85.0735 40.3449 85.0735 40.3576Z" fill="#E0E0E0"/>
<path d="M83.0295 41.4057H82.2363V43.0792H83.0295V41.4057Z" fill="#FAFAFA"/>
<path d="M85.0735 43.7385C85.0735 43.7568 84.024 43.7709 82.7294 43.7709C81.4348 43.7709 80.3853 43.7568 80.3853 43.7385C80.3853 43.7202 81.4348 43.7075 82.7294 43.7075C84.024 43.7075 85.0735 43.7188 85.0735 43.7385Z" fill="#E0E0E0"/>
<path d="M83.0295 44.7796H82.2363V46.4532H83.0295V44.7796Z" fill="#FAFAFA"/>
<path d="M85.0735 47.1097C85.0735 47.128 84.024 47.1421 82.7294 47.1421C81.4348 47.1421 80.3853 47.128 80.3853 47.1097C80.3853 47.0913 81.4348 47.0773 82.7294 47.0773C84.024 47.0773 85.0735 47.0913 85.0735 47.1097Z" fill="#E0E0E0"/>
<path d="M83.0295 48.1521H82.2363V49.8257H83.0295V48.1521Z" fill="#FAFAFA"/>
<path d="M85.0735 50.4836C85.0735 50.5005 84.024 50.5146 82.7294 50.5146C81.4348 50.5146 80.3853 50.5005 80.3853 50.4836C80.3853 50.4667 81.4348 50.4512 82.7294 50.4512C84.024 50.4512 85.0735 50.4653 85.0735 50.4836Z" fill="#E0E0E0"/>
<path d="M83.0295 51.5261H82.2363V53.1996H83.0295V51.5261Z" fill="#FAFAFA"/>
<path d="M42.7381 40.5717H32.6431V59.7305H42.7381V40.5717Z" fill="#E0E0E0"/>
<path d="M42.7382 40.5717H38.0049V59.7305H42.7382V40.5717Z" fill="#EBEBEB"/>
<path d="M35.668 42.3735H34.7607V44.5782H35.668V42.3735Z" fill="#F5F5F5"/>
<path d="M35.668 51.0048H34.7607V53.2095H35.668V51.0048Z" fill="#F5F5F5"/>
<path d="M38.0046 45.4445C38.0046 45.4642 36.8043 45.4783 35.328 45.4783C33.8516 45.4783 32.6514 45.4642 32.6514 45.4445C32.6514 45.4248 33.8516 45.4107 35.328 45.4107C36.8043 45.4107 38.0046 45.429 38.0046 45.4445Z" fill="#F5F5F5"/>
<path d="M35.668 46.7223H34.7607V48.9269H35.668V46.7223Z" fill="#F5F5F5"/>
<path d="M38.0046 49.7961C38.0046 49.8144 36.8043 49.8299 35.328 49.8299C33.8516 49.8299 32.6514 49.8144 32.6514 49.7961C32.6514 49.7778 33.8516 49.7609 35.328 49.7609C36.8043 49.7609 38.0046 49.7736 38.0046 49.7961Z" fill="#F5F5F5"/>
<path d="M39.918 42.3735H39.0107V44.5782H39.918V42.3735Z" fill="#E0E0E0"/>
<path d="M41.8872 42.3735H40.98V44.5782H41.8872V42.3735Z" fill="#E0E0E0"/>
<path d="M39.918 46.5588H39.0107V48.7635H39.918V46.5588Z" fill="#E0E0E0"/>
<path d="M41.8872 46.5588H40.98V48.7635H41.8872V46.5588Z" fill="#E0E0E0"/>
<path d="M39.918 50.7428H39.0107V52.9475H39.918V50.7428Z" fill="#E0E0E0"/>
<path d="M41.8872 50.7428H40.98V52.9475H41.8872V50.7428Z" fill="#E0E0E0"/>
<path d="M43.4975 40.1082H31.8853V40.5886H43.4975V40.1082Z" fill="#E0E0E0"/>
<path d="M42.8086 40.6393C42.8086 40.6576 40.5546 40.6731 37.7695 40.6731C34.9845 40.6731 32.7305 40.6576 32.7305 40.6393C32.7305 40.621 34.9845 40.6041 37.7695 40.6041C40.5546 40.6041 42.8086 40.6139 42.8086 40.6393Z" fill="#EBEBEB"/>
<path d="M32.7584 59.7165H16.5015L16.4297 34.0225H32.6879L32.7584 59.7165Z" fill="#EBEBEB"/>
<path d="M32.6885 34.0225H24.5601V59.7165H32.6885V34.0225Z" fill="#E0E0E0"/>
<path d="M24.0272 28.9637H18.2866V34.0225H24.0272V28.9637Z" fill="#EBEBEB"/>
<path d="M24.0271 28.9637H22.6592V34.0225H24.0271V28.9637Z" fill="#E0E0E0"/>
<path d="M33.1644 33.7266H15.0762V34.021H33.1644V33.7266Z" fill="#E0E0E0"/>
<path d="M21.015 36.2286H19.6387V39.1306H21.015V36.2286Z" fill="white"/>
<path d="M24.5595 40.2688C24.5595 40.2998 22.7394 40.3238 20.4953 40.3238C18.2512 40.3238 16.4297 40.2998 16.4297 40.2688C16.4297 40.2378 18.2498 40.2167 20.4953 40.2167C22.7408 40.2167 24.5595 40.2378 24.5595 40.2688Z" fill="#E0E0E0"/>
<path d="M29.2152 36.2286H27.8389V39.1306H29.2152V36.2286Z" fill="#F5F5F5"/>
<path d="M32.7583 40.2688C32.7583 40.2998 30.9382 40.3238 28.6941 40.3238C26.45 40.3238 24.6299 40.2998 24.6299 40.2688C24.6299 40.2378 26.4486 40.2139 28.6941 40.2139C30.9396 40.2139 32.7583 40.2378 32.7583 40.2688Z" fill="#EBEBEB"/>
<path d="M29.2152 41.9889H27.8389V44.8909H29.2152V41.9889Z" fill="#F5F5F5"/>
<path d="M32.7583 46.0305C32.7583 46.0601 30.9382 46.0855 28.6941 46.0855C26.45 46.0855 24.6299 46.0601 24.6299 46.0305C24.6299 46.0009 26.4486 45.9742 28.6941 45.9742C30.9396 45.9742 32.7583 45.9995 32.7583 46.0305Z" fill="#EBEBEB"/>
<path d="M29.2152 47.9239H27.8389V50.8259H29.2152V47.9239Z" fill="#F5F5F5"/>
<path d="M32.7583 51.9656C32.7583 51.9952 30.9382 52.0205 28.6941 52.0205C26.45 52.0205 24.6299 51.9952 24.6299 51.9656C24.6299 51.936 26.4486 51.9092 28.6941 51.9092C30.9396 51.9092 32.7583 51.9346 32.7583 51.9656Z" fill="#EBEBEB"/>
<path d="M29.2152 53.8589H27.8389V56.7609H29.2152V53.8589Z" fill="#F5F5F5"/>
<path d="M32.7583 57.8992C32.7583 57.9302 30.9382 57.9555 28.6941 57.9555C26.45 57.9555 24.6299 57.9302 24.6299 57.8992C24.6299 57.8682 26.4486 57.8442 28.6941 57.8442C30.9396 57.8442 32.7583 57.8696 32.7583 57.8992Z" fill="#EBEBEB"/>
<path d="M21.015 42.0776H19.6387V44.9796H21.015V42.0776Z" fill="white"/>
<path d="M24.5595 46.1179C24.5595 46.1489 22.7394 46.1728 20.4953 46.1728C18.2512 46.1728 16.4297 46.1489 16.4297 46.1179C16.4297 46.0869 18.2498 46.063 20.4953 46.063C22.7408 46.063 24.5595 46.0869 24.5595 46.1179Z" fill="#E0E0E0"/>
<path d="M21.015 47.9267H19.6387V50.8287H21.015V47.9267Z" fill="white"/>
<path d="M24.5595 51.967C24.5595 51.998 22.7394 52.0219 20.4953 52.0219C18.2512 52.0219 16.4297 51.998 16.4297 51.967C16.4297 51.936 18.2498 51.9092 20.4953 51.9092C22.7408 51.9092 24.5595 51.936 24.5595 51.967Z" fill="#E0E0E0"/>
<path d="M21.015 53.7758H19.6387V56.6779H21.015V53.7758Z" fill="white"/>
<path d="M24.5595 57.8161C24.5595 57.8471 22.7394 57.871 20.4953 57.871C18.2512 57.871 16.4297 57.8471 16.4297 57.8161C16.4297 57.7851 18.2498 57.7611 20.4953 57.7611C22.7408 57.7611 24.5595 57.7851 24.5595 57.8161Z" fill="#E0E0E0"/>
<path d="M109.825 19.9308C109.942 19.0771 108.738 18.3812 107.832 18.3023C107.401 18.2671 106.951 18.3333 106.543 18.191C105.657 17.8825 105.303 16.7372 104.438 16.3724C103.792 16.0991 103.046 16.3428 102.421 16.6541C101.796 16.9654 101.174 17.3655 100.474 17.4106C99.8655 17.45 99.2062 17.2232 98.6709 17.5219C98.2737 17.7431 98.0652 18.2009 97.6989 18.4714C97.3326 18.7419 96.8748 18.7912 96.431 18.8151C95.9873 18.8391 95.5266 18.8433 95.1223 19.0292C94.718 19.2152 94.3827 19.642 94.4672 20.0788L109.825 19.9308Z" fill="#F5F5F5"/>
<path d="M113.427 50.3272H100.349V59.7291H113.427V50.3272Z" fill="#EBEBEB"/>
<path d="M103.856 50.3272C103.876 50.3272 103.856 52.3121 103.856 52.3121H102.888V50.3272H103.856Z" fill="#F5F5F5"/>
<path d="M106.888 59.7291H113.427V50.3272H106.888V59.7291Z" fill="#E0E0E0"/>
<path d="M102.499 57.8893H100.748V59.1276H102.499V57.8893Z" fill="white"/>
<path d="M103.698 57.8893H102.823V59.1276H103.698V57.8893Z" fill="white"/>
<path d="M112.185 44.2048H103.669V50.3272H112.185V44.2048Z" fill="#EBEBEB"/>
<path d="M105.954 44.2048C105.965 44.2048 105.954 45.4981 105.954 45.4981H105.323V44.2048H105.954Z" fill="#F5F5F5"/>
<path d="M107.928 50.3272H112.185V44.2048H107.928V50.3272Z" fill="#E0E0E0"/>
<path d="M105.069 49.1284H103.93V49.9356H105.069V49.1284Z" fill="white"/>
<path d="M105.85 49.1284H105.279V49.9356H105.85V49.1284Z" fill="white"/>
<path d="M25.1407 3.51904C25.2069 3.03584 24.5251 2.63716 24.0137 2.59631C23.7686 2.57659 23.515 2.61322 23.2826 2.53292C22.7811 2.35823 22.5782 1.71021 22.0908 1.50313C21.7245 1.34817 21.3033 1.48622 20.9483 1.66513C20.5933 1.84404 20.2439 2.06803 19.8467 2.08776C19.5015 2.1103 19.1268 1.9821 18.8253 2.15115C18.5999 2.27653 18.4816 2.53574 18.2745 2.68788C18.0586 2.82173 17.8086 2.89023 17.5547 2.8851C17.3022 2.87794 17.0507 2.91906 16.8137 3.00625C16.584 3.1105 16.391 3.3528 16.4418 3.60074L25.1407 3.51904Z" fill="#EBEBEB"/>
<path d="M112.2 13.3337C112.265 12.8618 111.6 12.4744 111.1 12.4335C110.862 12.4152 110.614 12.4504 110.387 12.3729C109.898 12.2011 109.702 11.5685 109.225 11.3671C108.868 11.2178 108.457 11.3516 108.11 11.5249C107.764 11.6981 107.422 11.9193 107.036 11.9475C106.699 11.97 106.331 11.8447 106.04 12.0095C105.82 12.132 105.706 12.3842 105.503 12.5335C105.291 12.6632 105.047 12.7292 104.798 12.7237C104.552 12.7172 104.307 12.7574 104.076 12.842C103.852 12.9435 103.667 13.1801 103.714 13.421L112.2 13.3337Z" fill="#EBEBEB"/>
<path d="M40.1163 6.51259C40.2375 5.62931 38.9893 4.9024 38.0553 4.82211C37.6074 4.78689 37.1439 4.85451 36.7213 4.708C35.8042 4.38821 35.4379 3.20347 34.5433 2.82592C33.8742 2.54418 33.105 2.79493 32.457 3.12176C31.809 3.44859 31.168 3.85853 30.4439 3.90502C29.8128 3.94587 29.1296 3.71202 28.5773 4.01913C28.1674 4.24875 27.9519 4.72349 27.5729 5.00524C27.194 5.28699 26.7206 5.3363 26.26 5.36165C25.7993 5.38701 25.3246 5.39124 24.9062 5.58283C24.4878 5.77441 24.1426 6.21676 24.2286 6.66896L40.1163 6.51259Z" fill="#F5F5F5"/>
<path d="M99.1669 58.2545H23.0693V65.8597H99.1669V58.2545Z" fill="#DFF000"/>
<g opacity="0.4">
<path d="M99.1669 58.2545H23.0693V65.8597H99.1669V58.2545Z" fill="black"/>
</g>
<path d="M82.6802 66.8193H60.2178V73.8624H82.6802V66.8193Z" fill="#455A64"/>
<path d="M44.521 63.6337V72.9439H52.1912L55.2655 68.4884H111.269V63.6337H44.521Z" fill="#263238"/>
<path d="M44.0428 34.1522C44.0343 34.0025 43.9675 33.8621 43.8566 33.7611C43.7457 33.6602 43.5997 33.6068 43.4498 33.6124C40.4184 33.7375 26.0273 34.3973 23.0678 35.8196C20.8024 36.9095 18.321 40.9776 16.5714 43.7178C15.317 45.6816 12.5461 50.0411 11.9857 52.2705C11.511 54.1555 11.2248 58.0763 11.2574 60.0213L12.0491 70.3134H25.0916L26.3974 66.9136C26.8141 65.8306 27.5492 64.8993 28.5058 64.2425C29.4624 63.5857 30.5956 63.2342 31.756 63.2344H44.7162V46.1546L44.0428 34.1522Z" fill="#DFF000"/>
<path d="M21.5222 36.9591C19.7263 38.6728 17.9235 41.586 16.5715 43.7177C15.4096 45.5359 12.9488 49.407 12.1451 51.741C12.1297 51.7838 12.1177 51.825 12.104 51.8678C12.5016 51.7581 13.1133 51.5336 13.3036 51.1566C13.5897 50.586 13.9564 48.6307 18.4907 41.2501C19.8685 39.0001 21.212 37.684 21.5222 36.9591Z" fill="#455A64"/>
<path d="M37.3423 36.1966C34.0076 36.3868 26.7777 36.882 24.4678 37.6669C21.4586 38.6951 18.081 46.6618 17.9217 47.0114L15.6459 52.8377C15.6332 52.8758 15.6297 52.9164 15.6357 52.9561C15.6416 52.9958 15.657 53.0336 15.6804 53.0662C15.7038 53.0988 15.7347 53.1254 15.7704 53.1438C15.8061 53.1622 15.8457 53.1718 15.8859 53.1719H21.7688C21.9916 53.1719 22.2126 53.1325 22.4217 53.0554L37.8941 47.2873C38.2358 47.1598 38.5303 46.9309 38.7382 46.6314C38.9462 46.3319 39.0576 45.976 39.0577 45.6113V37.8194C39.0578 37.5983 39.0128 37.3796 38.9254 37.1765C38.8381 36.9735 38.7102 36.7904 38.5496 36.6385C38.389 36.4865 38.1991 36.369 37.9915 36.293C37.784 36.217 37.563 36.1842 37.3423 36.1966Z" fill="#263238"/>
<path d="M16.3022 52.5995C16.3022 52.5995 18.482 47.7105 19.2154 46.1083C20.3224 43.6886 22.9083 38.7396 24.6545 38.2067C26.2602 37.7251 30.8768 37.1391 37.3749 36.7672H37.4366C37.7156 36.7681 37.983 36.8795 38.1802 37.077C38.3773 37.2745 38.4883 37.542 38.4887 37.8211V45.7895C38.4881 45.9859 38.4278 46.1774 38.3158 46.3387C38.2038 46.5 38.0453 46.6234 37.8615 46.6926L26.4299 48.1029C25.9716 48.1595 25.5312 48.3151 25.1391 48.5589C24.747 48.8027 24.4127 49.129 24.1593 49.515L22.1783 52.5361C22.062 52.5792 21.939 52.6012 21.815 52.6012L16.3022 52.5995Z" fill="#455A64"/>
<path d="M26.015 48.1903L22.1284 52.519L24.279 38.1467L24.8171 37.9616L23.7581 48.6085C23.7531 48.6619 23.7619 48.7158 23.7837 48.7649C23.8055 48.8139 23.8395 48.8566 23.8825 48.8888C23.9255 48.9209 23.976 48.9415 24.0293 48.9485C24.0825 48.9556 24.1366 48.9488 24.1865 48.9289L26.015 48.1903Z" fill="#263238"/>
<path d="M11.0019 61.0204C10.9882 60.8336 11.0516 60.6776 11.1475 60.6776L13.2313 60.4857C13.4027 60.4686 13.562 60.7924 13.5826 61.1712L13.6769 62.77C13.6923 63.027 13.6152 63.2447 13.5055 63.2635L11.3806 63.6302C11.2846 63.6474 11.1921 63.5051 11.1784 63.3166L11.0019 61.0204Z" fill="#EBEBEB"/>
<path d="M26.0154 68.4901H11.0005V74.5101H26.0154V68.4901Z" fill="#263238"/>
<path d="M36.0381 80.7978C40.5719 80.6237 44.106 76.8071 43.9319 72.2734C43.7577 67.7396 39.9412 64.2054 35.4074 64.3796C30.8736 64.5538 27.3394 68.3703 27.5136 72.9041C27.6878 77.4379 31.5043 80.972 36.0381 80.7978Z" fill="#263238"/>
<path d="M27.5144 72.4469C27.5153 72.4543 27.5153 72.4618 27.5144 72.4692C27.4857 74.6461 28.3222 76.7454 29.8403 78.306C31.3583 79.8665 33.4337 80.7606 35.6106 80.792C37.7875 80.8233 39.8878 79.9893 41.4502 78.4731C43.0125 76.9569 43.9091 74.8825 43.9431 72.7057C43.9431 72.7057 43.9431 72.692 43.9431 72.6851L27.5144 72.4469Z" fill="#263238"/>
<path d="M29.9596 72.5035C29.9428 73.6443 30.2646 74.7644 30.8845 75.7223C31.5043 76.6801 32.3943 77.4327 33.4419 77.8847C34.4894 78.3367 35.6475 78.4679 36.7696 78.2617C37.8918 78.0555 38.9275 77.5211 39.746 76.7262C40.5644 75.9313 41.1287 74.9115 41.3675 73.7958C41.6062 72.6802 41.5088 71.5188 41.0875 70.4585C40.6662 69.3982 39.9399 68.4867 39.0005 67.8392C38.0611 67.1918 36.9508 66.8374 35.81 66.821C34.2807 66.7991 32.8053 67.3853 31.7082 68.4509C30.6112 69.5165 29.9822 70.9742 29.9596 72.5035Z" fill="#FAFAFA"/>
<path d="M35.8098 66.821C34.2806 66.7991 32.8052 67.3853 31.7081 68.4509C30.611 69.5165 29.982 70.9742 29.9595 72.5035L41.494 72.6748C41.5164 71.1448 40.9302 69.6686 39.8642 68.5708C38.7982 67.473 37.3398 66.8436 35.8098 66.821Z" fill="#E0E0E0"/>
<path d="M32.2147 72.536C32.2046 73.2308 32.4008 73.9129 32.7784 74.4962C33.156 75.0795 33.6981 75.5377 34.3362 75.8128C34.9742 76.088 35.6795 76.1678 36.3629 76.042C37.0463 75.9163 37.677 75.5908 38.1753 75.1066C38.6737 74.6224 39.0173 74.0013 39.1626 73.3218C39.3079 72.6423 39.2485 71.935 38.9918 71.2893C38.7351 70.6436 38.2927 70.0886 37.7205 69.6943C37.1484 69.3001 36.4722 69.0844 35.7774 69.0745C34.846 69.0612 33.9474 69.4184 33.2793 70.0675C32.6112 70.7167 32.2283 71.6046 32.2147 72.536Z" fill="#263238"/>
<path d="M19.7924 41.4146H19.1224C18.3671 41.4146 17.7549 42.0269 17.7549 42.7821V48.2195C17.7549 48.9747 18.3671 49.587 19.1224 49.587H19.7924C20.5476 49.587 21.1599 48.9747 21.1599 48.2195V42.7821C21.1599 42.0269 20.5476 41.4146 19.7924 41.4146Z" fill="#263238"/>
<path d="M16.3467 54.6388H16.1753V45.9969C16.1757 45.5848 16.3396 45.1897 16.631 44.8984C16.9224 44.607 17.3175 44.4431 17.7296 44.4426H18.1408V44.614H17.7296C17.3629 44.6144 17.0114 44.7603 16.7522 45.0195C16.493 45.2788 16.3471 45.6303 16.3467 45.9969V54.6388Z" fill="#263238"/>
<path d="M17.5137 54.649L17.0373 46.5692C17.0306 46.4311 17.0519 46.293 17.0998 46.1633C17.1477 46.0335 17.2213 45.9148 17.3162 45.8142C17.4111 45.7135 17.5253 45.6331 17.652 45.5776C17.7786 45.5221 17.9152 45.4928 18.0535 45.4913V45.6627C17.9382 45.6627 17.8241 45.6863 17.7182 45.7321C17.6123 45.7778 17.5169 45.8447 17.4378 45.9286C17.3587 46.0125 17.2975 46.1117 17.2581 46.2201C17.2188 46.3285 17.2019 46.4438 17.2087 46.5589L17.6851 54.6405L17.5137 54.649Z" fill="#263238"/>
<path d="M18.0536 53.8608H15.7437V56.5358H18.0536V53.8608Z" fill="#263238"/>
<path d="M17.2003 48.7833H16.2612V48.9546H17.2003V48.7833Z" fill="#263238"/>
<path d="M25.0417 36.4279L25.2456 36.4005L25.8471 36.3302L28.1777 36.0612L36.8658 35.0724C37.3285 35.0227 37.7998 34.961 38.2882 34.9182C38.5376 34.8992 38.7886 34.9153 39.0336 34.9662C39.2827 35.0244 39.523 35.1155 39.7482 35.2369C40.2127 35.4954 40.5892 35.8869 40.8295 36.3611C40.9538 36.6035 41.0377 36.8645 41.078 37.1339C41.0995 37.27 41.1115 37.4074 41.1139 37.5452V37.9582C41.1139 40.1705 41.1139 42.5456 41.1139 45.0629C41.1139 50.0976 41.1139 55.6978 41.1139 61.6853V61.7298H32.0882C31.573 61.7129 31.0572 61.7375 30.5459 61.8035C29.4913 61.9553 28.4962 62.3858 27.6636 63.0507C26.8309 63.7155 26.1908 64.5906 25.8094 65.5855C25.7354 65.7682 25.673 65.9553 25.6226 66.1459C25.5669 66.3343 25.5229 66.526 25.4907 66.7199L25.4461 67.0112L25.4256 67.1569L25.417 67.3026L25.4033 67.5956V67.743V67.7601C25.441 67.7224 25.3502 67.8184 25.357 67.8081H13.9116V67.7601C13.9116 65.1777 13.9116 62.6877 13.9116 60.3092C13.9116 59.1199 13.9116 57.9587 13.9116 56.8254V55.1494C13.9116 54.8735 13.9116 54.6011 13.9116 54.3286C13.9172 54.0576 13.9367 53.7871 13.9699 53.518C14.1006 52.4812 14.4299 51.4793 14.9398 50.5672C15.4116 49.6795 15.8686 48.8227 16.3107 47.9967L18.7407 43.4436L20.7131 39.7472C20.857 39.4788 20.9952 39.2189 21.1278 38.9675C21.1963 38.8441 21.2563 38.7191 21.3283 38.6025C21.3992 38.4887 21.4764 38.3788 21.5596 38.2735C21.8568 37.9029 22.2066 37.5779 22.5981 37.3087C23.1372 36.9428 23.7398 36.6807 24.3751 36.5359C24.5932 36.4836 24.8149 36.4475 25.0383 36.4279L24.8669 36.4536C24.7555 36.4708 24.591 36.4999 24.3751 36.5496C23.7436 36.6989 23.1451 36.9638 22.6101 37.331C22.2219 37.6005 21.8755 37.9256 21.5819 38.2958C21.4989 38.3992 21.4228 38.508 21.354 38.6214C21.2837 38.7345 21.2237 38.8613 21.1552 38.9864L20.7422 39.7678L18.7869 43.4675C18.0535 44.8487 17.2447 46.3722 16.3707 48.0241L14.9998 50.5946C14.4946 51.4999 14.1693 52.4943 14.0419 53.5232C14.0092 53.7899 13.9903 54.0582 13.9853 54.3269C13.9853 54.5959 13.9853 54.8718 13.9853 55.146V56.8219C13.9853 57.9541 13.9853 59.1154 13.9853 60.3058C13.9853 62.6843 13.9853 65.1742 13.9853 67.7567L13.9425 67.7155H25.3433C25.3553 67.707 25.2611 67.7978 25.3005 67.7567V67.7378V67.5905L25.3159 67.2923V67.1449L25.3382 66.9975L25.3827 66.7011C25.4153 66.5043 25.4599 66.3097 25.5164 66.1184C25.5677 65.925 25.6312 65.7349 25.7066 65.5495C26.0941 64.5401 26.7438 63.6522 27.5887 62.9775C28.4336 62.3028 29.4432 61.8656 30.5134 61.711C31.0247 61.6459 31.5404 61.6212 32.0556 61.6373H41.0403L40.9957 61.6801C40.9957 55.6995 40.9957 50.0993 40.9957 45.0578C40.9957 42.5405 40.9957 40.1654 40.9957 37.9531C41.0069 37.6812 40.9954 37.409 40.9614 37.1391C40.9224 36.8757 40.8408 36.6205 40.7198 36.3834C40.4872 35.9198 40.1198 35.5375 39.6659 35.2866C39.4472 35.1669 39.2131 35.0775 38.9702 35.021C38.7309 34.9705 38.4858 34.9538 38.2419 34.9713C37.7569 35.0124 37.2822 35.0741 36.8213 35.1238L28.1348 36.0852L25.8026 36.3405L25.2011 36.4039L25.0417 36.4279Z" fill="#263238"/>
<path d="M38.379 55.3671C38.379 55.3671 38.427 55.3671 38.5127 55.3465C38.6386 55.3241 38.7588 55.2763 38.8657 55.206C39.0342 55.0955 39.1605 54.9312 39.2238 54.7399C39.2625 54.6206 39.2782 54.4949 39.2701 54.3697C39.2664 54.2309 39.2306 54.0949 39.1656 53.9722C39.091 53.8318 38.9801 53.714 38.8444 53.6311C38.7088 53.5482 38.5534 53.5032 38.3944 53.5009H37.2634H34.6724C34.4567 53.5012 34.2486 53.5808 34.0877 53.7246C33.9269 53.8684 33.8245 54.0663 33.8001 54.2806C33.7732 54.4841 33.811 54.691 33.9081 54.8718C34.0044 55.0429 34.1552 55.1769 34.3365 55.2523C34.5158 55.3145 34.7062 55.3379 34.8952 55.3208H35.4435H36.4289L37.8563 55.3345H38.2453C38.2901 55.3336 38.3349 55.337 38.379 55.3448C38.3346 55.3502 38.29 55.3531 38.2453 55.3534H37.8563L36.4289 55.3671H35.4435H34.8952C34.7992 55.3671 34.7067 55.3671 34.6056 55.3671C34.5027 55.3594 34.4016 55.3363 34.3057 55.2985C34.1075 55.2163 33.9423 55.0704 33.8361 54.8838C33.7297 54.6875 33.6878 54.4627 33.7162 54.2412C33.7427 54.006 33.8547 53.7886 34.0311 53.6307C34.2074 53.4727 34.4356 53.385 34.6724 53.3844H37.2634H38.3944C38.6416 53.3893 38.8772 53.4902 39.0512 53.6659C39.2252 53.8415 39.324 54.078 39.3266 54.3252C39.3321 54.4561 39.3129 54.5869 39.2701 54.7108C39.1996 54.9097 39.0637 55.0789 38.8845 55.1906C38.7727 55.2602 38.6469 55.3041 38.5161 55.3191C38.4725 55.3406 38.4265 55.3568 38.379 55.3671Z" fill="#263238"/>
<path d="M38.0654 53.2147C37.5771 53.2577 37.0867 53.272 36.5968 53.2576C36.1062 53.272 35.6153 53.2577 35.1265 53.2147C35.6152 53.1706 36.1062 53.1557 36.5968 53.1702C37.0867 53.1557 37.5772 53.1706 38.0654 53.2147Z" fill="white"/>
<path d="M26.6985 74.5598L25.3276 74.4604C25.6858 69.5509 26.2102 66.6137 26.9316 65.481C28.3162 63.3046 29.6923 62.9105 31.2157 62.6517C32.6346 62.4101 34.0655 62.4667 35.4501 62.5232L35.7928 62.5369C38.6512 62.6483 44.6386 62.5489 44.7038 62.5489L44.726 63.9198C44.6661 63.9198 38.6409 64.0209 35.7449 63.9078L35.4021 63.8941C34.0878 63.8427 32.7306 63.7862 31.4522 64.0055C30.0898 64.2369 29.1833 64.5025 28.09 66.2195C27.7593 66.7319 27.139 68.5124 26.6985 74.5598Z" fill="#263238"/>
<path d="M112.948 18.6335H45.4341V63.5857H112.948V18.6335Z" fill="#DFF000"/>
<path d="M112.139 62.6963C112.139 62.4067 112.125 45.9198 112.103 19.6497L112.139 19.6839L46.1637 19.6942L46.2083 19.6497C46.2083 34.9508 46.2083 49.515 46.2083 62.6963L46.1671 62.6552L112.142 62.6963L46.1671 62.7374H46.1191V62.6963C46.1191 49.515 46.1191 34.9508 46.1191 19.6497V19.6068H46.1688L112.144 19.6154H112.18V19.6514C112.153 45.9198 112.139 62.4084 112.139 62.6963Z" fill="#263238"/>
<g opacity="0.5">
<path d="M55.0063 42.7478L55.6438 55.6053L105.715 45.1898L104.829 31.7874L55.0063 42.7478Z" fill="black"/>
</g>
<path d="M58.8003 51.6519L59.143 50.4524C59.8132 50.7408 60.5571 50.8115 61.2696 50.6546C62.0356 50.4832 62.4692 50.1199 62.3681 49.6795C62.1607 48.7147 59.2835 49.8732 58.8671 47.9505C58.6015 46.7098 59.5149 45.6747 61.1874 45.3166C61.9979 45.1452 62.7862 45.1624 63.3843 45.3851L63.0844 46.5624C62.5292 46.3536 61.9246 46.3137 61.3468 46.4476C60.5362 46.619 60.1284 47.0337 60.2209 47.4655C60.4265 48.4577 63.314 47.2941 63.7133 49.15C63.9806 50.401 63.0501 51.4394 61.369 51.7993C60.3888 52.0118 59.3949 51.9175 58.8003 51.6519Z" fill="white"/>
<path d="M70.1928 43.4864L70.2802 49.7789L68.8836 50.0788L68.8476 47.5169L66.1143 48.103L66.152 50.6734L64.7451 50.9665L64.6577 44.6723L66.0629 44.3707L66.0972 46.8434L68.8304 46.2574L68.7962 43.7846L70.1928 43.4864Z" fill="white"/>
<path d="M71.6216 43.1797L73.0233 42.8781L73.1107 49.1706L71.7055 49.4722L71.6216 43.1797Z" fill="white"/>
<path d="M79.6553 43.4264C79.9843 44.9601 79.0606 46.1683 77.2562 46.547L75.911 46.8349L75.9367 48.5674L74.5315 48.869L74.4492 42.5696L76.8894 42.0555C78.3974 41.7248 79.4016 42.2406 79.6553 43.4264ZM78.2672 43.8497C78.1421 43.2636 77.6691 43.0769 76.9614 43.2294L75.8664 43.4641L75.8938 45.649L77.0745 45.3954C77.993 45.1932 78.4386 44.6466 78.2672 43.8446V43.8497Z" fill="white"/>
<path d="M85.8757 42.0846C86.2047 43.6269 85.2811 44.8265 83.4766 45.2052L82.1331 45.4948L82.1623 47.2273L80.7571 47.5289L80.668 41.2364L83.1082 40.712C84.6213 40.3881 85.6255 40.9039 85.8757 42.0846ZM84.4877 42.5096C84.3626 41.9218 83.8879 41.7351 83.1819 41.8876L82.0869 42.1223L82.1143 44.3089L83.295 44.0553C84.2203 43.8565 84.6625 43.3099 84.4911 42.5096H84.4877Z" fill="white"/>
<path d="M86.9043 39.8998L88.3095 39.5982L88.3986 45.8924L86.9934 46.194L86.9043 39.8998Z" fill="white"/>
<path d="M95.2599 38.1141L95.349 44.4066L94.2009 44.6534L91.142 41.3529L91.1934 45.2943L89.8225 45.5907L89.7334 39.2965L90.8884 39.0481L93.9507 42.3503L93.889 38.4089L95.2599 38.1141Z" fill="white"/>
<path d="M100.817 39.97L102.094 39.6958L102.126 42.2851C101.56 42.9163 100.805 43.3474 99.974 43.5138C98.1456 43.9062 96.7626 43.094 96.4285 41.5346C95.9864 39.4782 97.1602 37.5932 99.4445 37.0997C100.599 36.8512 101.523 37.0397 102.186 37.6138L101.36 38.6419C100.846 38.2461 100.312 38.1638 99.6467 38.3078C98.2329 38.6111 97.5458 39.8226 97.8302 41.1507C98.0239 42.0555 98.759 42.5388 99.9055 42.292C100.252 42.2213 100.578 42.0743 100.86 41.8619L100.817 39.97Z" fill="white"/>
<path d="M64.9883 30.8517V42.0812L93.5238 35.8059L93.5135 24.7066L64.9883 30.8517Z" fill="#DFF000"/>
<g opacity="0.3">
<path d="M64.9883 30.8517V42.0812L93.5238 35.8059L93.5135 24.7066L64.9883 30.8517Z" fill="black"/>
</g>
<path d="M69.1731 33.645L69.2365 36.116L72.3588 35.4066L72.3708 35.9824L69.2537 36.6918L69.3256 39.3617L68.6984 39.5039L68.5356 33.2114L72.6621 32.2741L72.6758 32.8498L69.1731 33.645Z" fill="white"/>
<path d="M77.3522 35.422L78.9442 37.1751L78.2587 37.331L76.7404 35.6602C76.6479 35.6911 76.5365 35.7151 76.432 35.739L74.7183 36.128L74.7732 38.1227L74.1374 38.2667L73.9746 31.9759L76.1407 31.4824C77.5116 31.1722 78.4335 31.6229 78.6768 32.6973C78.9579 33.9346 78.4524 34.8908 77.3522 35.422ZM78.0548 32.9013C77.8749 32.1113 77.2202 31.8165 76.2229 32.0444L74.6241 32.4077L74.6961 35.5557L76.3223 35.1873C77.6795 34.8771 78.3238 34.0888 78.0548 32.9013Z" fill="white"/>
<path d="M80.8313 30.9957L80.8879 33.2354L84.0084 32.526L84.029 33.0915L80.9067 33.7992L80.9684 36.1366L84.5876 35.3141L84.6013 35.8898L80.3532 36.8546L80.1904 30.5638L84.3169 29.6248L84.3306 30.2006L80.8313 30.9957Z" fill="white"/>
<path d="M86.5823 29.6899L86.6389 31.9279L89.7611 31.2185L89.78 31.784L86.6594 32.4934L86.7194 34.8308L90.3403 34.0083L90.3523 34.5841L86.1059 35.5437L85.9346 29.2512L90.0627 28.3138L90.0764 28.8896L86.5823 29.6899Z" fill="white"/>
<path d="M96.7949 30.8517L106.9 28.4852L106.501 27.409L96.7949 30.8517Z" fill="#FAFAFA"/>
<path d="M51.5464 38.414L58.5723 36.7689L58.2947 36.0218L51.5464 38.414Z" fill="#FAFAFA"/>
<path d="M75.6011 55.3431L85.7064 52.9748L85.3088 51.9004L75.6011 55.3431Z" fill="#FAFAFA"/>
<path d="M88.996 25.4692C88.996 25.4932 83.6015 26.7835 76.9371 28.3498C70.2728 29.9161 64.8628 31.1687 64.856 31.1448C64.8491 31.1208 70.2488 29.8304 76.9166 28.2641C83.5843 26.6979 88.9909 25.4452 88.996 25.4692Z" fill="#FAFAFA"/>
<path d="M64.9134 40.9536C64.9134 40.9776 62.6 41.4677 59.7348 42.0435C56.8696 42.6193 54.5442 43.0717 54.5391 43.0477C54.5339 43.0237 56.8525 42.5336 59.7177 41.9561C62.5829 41.3786 64.9083 40.9297 64.9134 40.9536Z" fill="#FAFAFA"/>
<path d="M65.0041 39.9374C64.9962 39.9078 64.9928 39.8772 64.9938 39.8466C64.9938 39.7764 64.9938 39.6907 64.9852 39.5879C64.9852 39.3497 64.9852 39.0275 64.9715 38.6351C64.9715 37.8177 64.9578 36.7124 64.9509 35.4906C64.9441 34.2687 64.927 33.1617 64.9184 32.346C64.9184 31.9536 64.9081 31.6314 64.9047 31.3932V31.1328C64.9003 31.1032 64.9003 31.0732 64.9047 31.0437C64.9126 31.0727 64.9166 31.1027 64.9167 31.1328C64.9167 31.203 64.927 31.287 64.9338 31.3915C64.9475 31.616 64.9612 31.9416 64.9749 32.3443C65.0041 33.148 65.0263 34.2602 65.0349 35.4888C65.0435 36.7175 65.0349 37.8297 65.0349 38.6334C65.0349 39.0275 65.0246 39.3497 65.0212 39.5879C65.0212 39.6907 65.0212 39.7764 65.0126 39.8466C65.0124 39.8771 65.0095 39.9075 65.0041 39.9374Z" fill="#FAFAFA"/>
<path d="M35.8379 39.9203C35.8379 39.9203 35.8173 39.9409 35.7744 39.9734L35.5859 40.1088C35.4146 40.2271 35.1798 40.3916 34.8816 40.5955C34.2836 40.9999 33.4508 41.5517 32.522 42.1463C31.5932 42.741 30.7449 43.2671 30.1229 43.6423C29.8144 43.8291 29.5625 43.9851 29.3877 44.081L29.1855 44.1941C29.1625 44.209 29.1377 44.2211 29.1118 44.2301C29.1118 44.2301 29.1324 44.2096 29.1752 44.1804L29.3689 44.0502L30.0903 43.5892L32.4706 42.0709L34.8422 40.5424L35.5637 40.0814L35.7625 39.958C35.7862 39.9428 35.8114 39.9301 35.8379 39.9203Z" fill="#FAFAFA"/>
<path d="M32.9091 40.6949C32.9091 40.6949 32.8886 40.7154 32.8457 40.748L32.6572 40.8834C32.4859 40.9999 32.2511 41.1661 31.9512 41.3683C31.3532 41.7745 30.5203 42.3246 29.5932 42.9106C28.6662 43.4967 27.8162 44.0331 27.1942 44.4083C26.8857 44.5951 26.6338 44.7511 26.459 44.8453L26.2568 44.9601C26.2341 44.9753 26.2093 44.9869 26.1831 44.9944C26.2023 44.9755 26.2236 44.9589 26.2465 44.9447L26.4402 44.8162L27.1599 44.3535L29.5418 42.8369L31.9135 41.3084L32.635 40.8457L32.832 40.724C32.8563 40.711 32.8823 40.7012 32.9091 40.6949Z" fill="#FAFAFA"/>
<path d="M18.4819 45.6833C18.4556 45.6365 18.4377 45.5854 18.4288 45.5325C18.4014 45.4348 18.3637 45.2909 18.3208 45.1126C18.2082 44.6469 18.1506 44.1695 18.1495 43.6903C18.147 43.2062 18.2586 42.7284 18.475 42.2954C18.5428 42.1659 18.6244 42.0441 18.7184 41.9321C18.7501 41.8894 18.7882 41.8518 18.8315 41.8207C18.7221 41.9832 18.6214 42.1514 18.5299 42.3246C18.3346 42.7551 18.2346 43.2227 18.2368 43.6955C18.242 44.1688 18.2931 44.6406 18.3894 45.1041C18.4322 45.295 18.4631 45.4885 18.4819 45.6833Z" fill="#FAFAFA"/>
<path d="M11.5037 57.833C11.4975 57.772 11.4975 57.7106 11.5037 57.6496C11.5037 57.5262 11.5037 57.348 11.514 57.1355C11.5277 56.6951 11.5602 56.0868 11.6133 55.4219C11.6665 54.757 11.7299 54.1469 11.7847 53.7082C11.8121 53.4889 11.8361 53.3124 11.855 53.1942C11.8614 53.1307 11.8746 53.0681 11.8944 53.0074C11.903 53.0711 11.903 53.1356 11.8944 53.1993L11.8498 53.7134C11.8121 54.1726 11.7607 54.7673 11.7042 55.427C11.6476 56.0868 11.6133 56.6797 11.5808 57.1407C11.5654 57.3463 11.5517 57.5194 11.5414 57.6548C11.5362 57.7155 11.5235 57.7753 11.5037 57.833Z" fill="#FAFAFA"/>
<path d="M30.2839 61.1592C30.2839 61.178 29.9531 61.2243 29.4408 61.3905C29.1408 61.4879 28.8482 61.6064 28.5651 61.7452C27.8713 62.0898 27.2437 62.5539 26.7109 63.1162C26.4934 63.3443 26.2924 63.5877 26.1094 63.8445C25.7993 64.2849 25.6536 64.5882 25.6382 64.5796C25.6637 64.5049 25.6958 64.4326 25.7341 64.3637C25.7725 64.28 25.816 64.1987 25.8644 64.1203C25.9192 64.0278 25.9792 63.9199 26.058 63.8085C26.2354 63.5435 26.4337 63.2931 26.6509 63.0596C26.9202 62.7743 27.2131 62.5123 27.5266 62.2765C27.843 62.0468 28.179 61.8455 28.5308 61.675C28.8182 61.537 29.1161 61.4224 29.4219 61.3323C29.5504 61.2894 29.6721 61.2654 29.7766 61.2397C29.8665 61.2179 29.9574 61.2008 30.0491 61.1883C30.1262 61.1711 30.2049 61.1613 30.2839 61.1592Z" fill="#FAFAFA"/>
<path d="M47.16 50.8139C47.1578 50.7894 47.1578 50.7648 47.16 50.7402C47.16 50.6877 47.16 50.6157 47.16 50.5243C47.16 50.329 47.16 50.0497 47.148 49.6932C47.1377 48.9666 47.124 47.923 47.1051 46.6361C47.0589 44.0502 46.9954 40.4875 46.9252 36.5513C46.8549 32.6151 46.795 29.0456 46.771 26.4648C46.759 25.1745 46.7555 24.1291 46.7572 23.4077C46.7572 23.0495 46.7572 22.7702 46.7572 22.5766V22.3607C46.7572 22.311 46.7572 22.287 46.7572 22.287C46.7596 22.3115 46.7596 22.3362 46.7572 22.3607C46.7572 22.4121 46.7572 22.484 46.7572 22.5766C46.7572 22.7702 46.7572 23.0495 46.7692 23.4077C46.7795 24.1343 46.7932 25.1762 46.8121 26.4631C46.8584 29.049 46.9218 32.6117 46.992 36.5496C47.0623 40.4875 47.124 44.0536 47.1462 46.6344C47.1582 47.9265 47.1634 48.9701 47.1617 49.6915C47.1617 50.0497 47.1617 50.329 47.1617 50.5243C47.1617 50.6152 47.1617 50.6871 47.1617 50.7402C47.1626 50.7648 47.162 50.7894 47.16 50.8139Z" fill="#FAFAFA"/>
<path d="M96.7406 80.7882C101.274 80.607 104.802 76.7849 104.621 72.2514C104.44 67.7179 100.618 64.1897 96.0841 64.371C91.5506 64.5523 88.0225 68.3744 88.2037 72.9079C88.385 77.4414 92.2071 80.9695 96.7406 80.7882Z" fill="#263238"/>
<path d="M88.1947 72.4469C88.1947 72.4469 88.1947 72.4624 88.1947 72.4692C88.1633 74.6476 88.9986 76.7491 90.5168 78.3116C92.0349 79.8741 94.1116 80.7696 96.2899 80.8009C98.4683 80.8323 100.57 79.997 102.132 78.4789C103.695 76.9607 104.59 74.884 104.622 72.7057V72.6851L88.1947 72.4469Z" fill="#263238"/>
<path d="M90.6398 72.5035C90.6233 73.6438 90.9453 74.7634 91.5651 75.7207C92.1849 76.678 93.0746 77.43 94.1218 77.8817C95.169 78.3334 96.3266 78.4644 97.4482 78.2582C98.5699 78.052 99.6052 77.5178 100.423 76.7232C101.241 75.9286 101.805 74.9093 102.044 73.7942C102.283 72.679 102.186 71.5181 101.765 70.4582C101.344 69.3983 100.618 68.487 99.679 67.8396C98.7402 67.1922 97.6304 66.8378 96.4901 66.821C94.9609 66.7991 93.4855 67.3853 92.3884 68.4509C91.2913 69.5165 90.6623 70.9742 90.6398 72.5035Z" fill="#FAFAFA"/>
<path d="M96.49 66.821C95.7327 66.8099 94.9807 66.9481 94.2768 67.2277C93.573 67.5072 92.9311 67.9227 92.3878 68.4504C91.8445 68.9781 91.4105 69.6076 91.1106 70.303C90.8106 70.9985 90.6506 71.7462 90.6396 72.5035L102.172 72.6748C102.184 71.9173 102.046 71.1648 101.767 70.4606C101.487 69.7563 101.072 69.114 100.544 68.5704C100.017 68.0267 99.3869 67.5924 98.6912 67.2923C97.9956 66.9921 97.2476 66.832 96.49 66.821Z" fill="#E0E0E0"/>
<path d="M92.9017 72.536C92.8916 73.2308 93.0878 73.9129 93.4654 74.4962C93.843 75.0795 94.3851 75.5377 95.0232 75.8128C95.6612 76.088 96.3665 76.1678 97.0499 76.042C97.7333 75.9163 98.364 75.5908 98.8624 75.1066C99.3607 74.6224 99.7043 74.0013 99.8496 73.3218C99.9949 72.6423 99.9355 71.935 99.6788 71.2893C99.4221 70.6436 98.9797 70.0886 98.4076 69.6943C97.8354 69.3001 97.1592 69.0844 96.4644 69.0745C95.533 69.0612 94.6344 69.4184 93.9663 70.0675C93.2982 70.7167 92.9153 71.6046 92.9017 72.536Z" fill="#263238"/>
<path d="M85.6091 74.8374C85.6091 74.8374 84.3582 63.1847 96.4325 63.1847C107.571 63.1847 107.324 73.2061 107.218 74.7569H105.472C105.472 74.7569 106.361 64.8795 96.4325 64.8795C86.5036 64.8795 87.3673 74.9574 87.3673 74.9574C87.3673 74.9574 86.6339 74.9214 85.6091 74.8374Z" fill="#455A64"/>
<path d="M92.0758 64.3911C92.046 64.4065 92.0143 64.418 91.9816 64.4254C91.9182 64.4477 91.8239 64.4699 91.7074 64.5111C91.3724 64.6176 91.0444 64.7453 90.7255 64.8932C89.6699 65.3774 88.7348 66.0895 87.9875 66.9785C87.2402 67.8674 86.6993 68.911 86.4037 70.0341C86.3132 70.3722 86.244 70.7156 86.1964 71.0623C86.1775 71.1857 86.1706 71.2816 86.1604 71.3468C86.1574 71.3803 86.1517 71.4136 86.1432 71.4462C86.1391 71.4132 86.1391 71.3798 86.1432 71.3468C86.1432 71.2799 86.1432 71.1754 86.1638 71.0589C86.1978 70.7063 86.2585 70.3569 86.3454 70.0136C86.6263 68.8733 87.1651 67.8127 87.9203 66.9134C88.6755 66.0141 89.627 65.3001 90.7015 64.8264C91.0247 64.6821 91.358 64.5618 91.6988 64.4665C91.8188 64.4322 91.9148 64.4134 91.9782 64.398C92.0104 64.392 92.0431 64.3897 92.0758 64.3911Z" fill="#FAFAFA"/>
</svg>
