<svg width="130" height="143" viewBox="0 0 130 143" fill="none" xmlns="http://www.w3.org/2000/svg">
<path d="M66.3333 143C101.311 143 129.667 114.645 129.667 79.6667H3C3 114.645 31.3553 143 66.3333 143Z" fill="#DCD7C3"/>
<ellipse cx="66" cy="105.5" rx="48" ry="9.5" fill="#C9C3A9"/>
<path d="M115.05 107.211H87.8145C88.1556 105.691 88.5495 104.259 89.053 102.94C89.0958 102.821 89.1411 102.704 89.189 102.587C89.7689 101.131 90.4871 99.8165 91.4178 98.6617L93.9662 104.021L92.5773 97.4067C93.6082 96.4428 94.8464 95.6291 96.357 94.9801C96.4524 94.9395 96.5526 94.8989 96.6528 94.8583C97.7004 94.4312 98.8743 94.0827 100.191 93.818L101.153 101.938L101.719 93.5602C101.9 93.5339 102.086 93.5101 102.272 93.4863C103.034 93.3934 103.757 93.374 104.444 93.4219C104.549 93.4267 104.649 93.434 104.752 93.4457C105.53 93.5174 106.262 93.6746 106.949 93.9013L106.384 101.809L108.274 94.448C109.166 94.8967 109.968 95.4668 110.679 96.1184C110.762 96.1948 110.846 96.2734 110.929 96.3546C111.676 97.0801 112.32 97.896 112.864 98.7527L110.679 103.384L113.401 99.6618C113.931 100.638 114.339 101.642 114.63 102.604V102.607C114.666 102.721 114.697 102.835 114.728 102.948C115.207 104.67 115.303 106.228 115.05 107.211Z" fill="#D3C7E2"/>
<path d="M92.3888 107.211H92.0092L89.0527 102.94C89.0955 102.821 89.1409 102.704 89.1888 102.587L92.3888 107.211Z" fill="#B0A2CF"/>
<path d="M98.9965 107.211H98.6791L96.3574 94.98C96.4529 94.9395 96.5531 94.8989 96.6533 94.8583L98.9965 107.211Z" fill="#B0A2CF"/>
<path d="M104.75 93.4457L103.964 107.211H103.654L104.442 93.4219C104.547 93.4266 104.647 93.4336 104.75 93.4457Z" fill="#B0A2CF"/>
<path d="M110.927 96.3543L107.445 107.211H107.121L110.677 96.1181C110.76 96.1945 110.843 96.2731 110.927 96.3543Z" fill="#B0A2CF"/>
<path d="M114.731 102.947L110.391 107.211H109.947L114.634 102.606C114.669 102.721 114.7 102.835 114.731 102.947Z" fill="#B0A2CF"/>
<path d="M93.0574 107.211H65.8223C66.1634 105.691 66.5573 104.259 67.0608 102.94C67.1036 102.821 67.1489 102.704 67.1968 102.587C67.7768 101.131 68.495 99.8165 69.4256 98.6617L71.974 104.021L70.5852 97.4067C71.616 96.4428 72.8542 95.6291 74.3648 94.9801C74.4602 94.9395 74.5604 94.8989 74.6606 94.8583C75.7083 94.4312 76.8821 94.0827 78.1993 93.818L79.161 101.938L79.7263 93.5602C79.9077 93.5339 80.0938 93.5101 80.2799 93.4863C81.0413 93.3934 81.7642 93.374 82.4513 93.4219C82.5563 93.4267 82.6565 93.434 82.7592 93.4457C83.537 93.5174 84.2698 93.6746 84.9569 93.9013L84.3912 101.809L86.281 94.448C87.1733 94.8967 87.9752 95.4668 88.6864 96.1184C88.7698 96.1948 88.8535 96.2734 88.9369 96.3546C89.6837 97.0801 90.328 97.896 90.8721 98.7527L88.6864 103.384L91.4089 99.6618C91.9387 100.638 92.3465 101.642 92.6379 102.604V102.607C92.6737 102.721 92.7048 102.835 92.7359 102.948C93.215 104.67 93.3104 106.228 93.0574 107.211Z" fill="white"/>
<path d="M70.3966 107.211H70.017L67.0605 102.94C67.1034 102.821 67.1487 102.704 67.1966 102.587L70.3966 107.211Z" fill="#3CABDC"/>
<path d="M77.0043 107.211H76.6869L74.3652 94.9801C74.4607 94.9395 74.5609 94.8989 74.6611 94.8583L77.0043 107.211Z" fill="#E8DDEE"/>
<path d="M82.7573 93.4457L81.9722 107.211H81.6621L82.4494 93.422C82.5547 93.4267 82.6549 93.4337 82.7573 93.4457Z" fill="#3CABDC"/>
<path d="M88.9345 96.3543L85.4533 107.211H85.1289L88.6843 96.1181C88.7674 96.1945 88.8511 96.2731 88.9345 96.3543Z" fill="#E8DDEE"/>
<path d="M92.7353 102.947L88.3951 107.212H87.9512L92.6376 102.606C92.6735 102.721 92.7046 102.835 92.7353 102.947Z" fill="#E8DDEE"/>
<path d="M72.4622 107.211H32.6094C33.1088 104.987 33.6846 102.892 34.4215 100.961C34.4843 100.787 34.5506 100.616 34.6206 100.444C35.4691 98.3145 36.52 96.3908 37.8818 94.7007L41.6107 102.543L39.5785 92.8642C41.0869 91.4535 42.899 90.2629 45.1091 89.3132C45.2489 89.2539 45.3954 89.1946 45.5419 89.135C47.0747 88.51 48.7926 88.0002 50.7198 87.6127L52.1271 99.4944L52.9546 87.2354C53.22 87.197 53.4924 87.1621 53.7648 87.1272C54.8787 86.9909 55.9365 86.963 56.9419 87.0331C57.0954 87.04 57.2422 87.0505 57.3925 87.0679C58.5308 87.1726 59.6026 87.4031 60.6084 87.7348L59.7808 99.3057L62.5461 88.5341C63.8518 89.1905 65.025 90.025 66.0657 90.9782C66.1877 91.0898 66.3101 91.2052 66.4322 91.3238C67.5252 92.3854 68.4679 93.5792 69.2638 94.833L66.0653 101.61L70.0492 96.1631C70.8244 97.5913 71.4212 99.0613 71.8473 100.468V100.472C71.8997 100.639 71.945 100.807 71.9903 100.971C72.6927 103.493 72.8322 105.773 72.4622 107.211Z" fill="#79D1EE"/>
<path d="M39.305 107.211H38.7498L34.4238 100.961C34.4866 100.787 34.5529 100.616 34.623 100.444L39.305 107.211Z" fill="#3CABDC"/>
<path d="M48.9689 107.211H48.5046L45.1074 89.3136C45.2473 89.2543 45.3937 89.195 45.5402 89.1354L48.9689 107.211Z" fill="#3CABDC"/>
<path d="M57.3919 87.0683L56.2431 107.211H55.7891L56.9413 87.0334C57.0951 87.0403 57.2419 87.0508 57.3919 87.0683Z" fill="#3CABDC"/>
<path d="M66.4345 91.3248L61.3402 107.212H60.8652L66.0676 90.9792C66.19 91.0908 66.3124 91.2059 66.4345 91.3248Z" fill="#3CABDC"/>
<path d="M71.9908 100.972L65.6396 107.212H64.9902L71.8478 100.473C71.9001 100.64 71.9454 100.808 71.9908 100.972Z" fill="#3CABDC"/>
<path d="M11.5332 107.211H116.322" stroke="#D3C7E2" stroke-width="1.1012" stroke-miterlimit="10" stroke-linecap="round" stroke-linejoin="round"/>
<path d="M25.5321 93.4219C25.5321 94.0954 24.9861 94.6411 24.3129 94.6411C23.6394 94.6411 23.0938 94.0951 23.0938 93.4219C23.0938 92.7485 23.6398 92.2028 24.3129 92.2028C24.9861 92.2028 25.5321 92.7485 25.5321 93.4219Z" fill="white"/>
<path d="M30.8754 2.43836C31.5488 2.43836 32.0946 1.89251 32.0946 1.21918C32.0946 0.545843 31.5488 -3.8147e-06 30.8754 -3.8147e-06C30.2021 -3.8147e-06 29.6562 0.545843 29.6562 1.21918C29.6562 1.89251 30.2021 2.43836 30.8754 2.43836Z" fill="#79D1EE"/>
<path d="M63.9262 76.322C64.5995 76.322 65.1454 75.7762 65.1454 75.1028C65.1454 74.4295 64.5995 73.8836 63.9262 73.8836C63.2529 73.8836 62.707 74.4295 62.707 75.1028C62.707 75.7762 63.2529 76.322 63.9262 76.322Z" fill="#3CABDC"/>
<path d="M106.991 35.3188C106.991 35.6464 106.725 35.9118 106.398 35.9118C106.07 35.9118 105.805 35.6464 105.805 35.3188C105.805 34.9913 106.07 34.7259 106.398 34.7259C106.725 34.7262 106.991 34.9916 106.991 35.3188Z" fill="#D3C7E2"/>
<path d="M2.81284 26.1469C2.81284 26.4745 2.54744 26.7399 2.2199 26.7399C1.89235 26.7399 1.62695 26.4745 1.62695 26.1469C1.62695 25.8194 1.89235 25.554 2.2199 25.554C2.54744 25.554 2.81284 25.8194 2.81284 26.1469Z" fill="#D3C7E2"/>
<path d="M35.4886 84.4678C35.4886 84.7954 35.2232 85.0608 34.8957 85.0608C34.5681 85.0608 34.3027 84.7954 34.3027 84.4678C34.3027 84.1403 34.5681 83.8749 34.8957 83.8749C35.2232 83.8749 35.4886 84.1406 35.4886 84.4678Z" fill="#D3C7E2"/>
<path d="M71.4364 3.65753C71.4364 4.33101 70.8904 4.87671 70.2172 4.87671C69.5437 4.87671 68.998 4.3307 68.998 3.65753C68.998 2.98437 69.5441 2.43835 70.2172 2.43835C70.8904 2.43835 71.4364 2.98437 71.4364 3.65753Z" fill="white"/>
<path d="M95.2153 13.7144C95.8886 13.7144 96.4345 13.1686 96.4345 12.4952C96.4345 11.8219 95.8886 11.2761 95.2153 11.2761C94.5419 11.2761 93.9961 11.8219 93.9961 12.4952C93.9961 13.1686 94.5419 13.7144 95.2153 13.7144Z" stroke="white" stroke-width="1.1012" stroke-miterlimit="10"/>
<path d="M109.032 78.7604C109.705 78.7604 110.251 78.2145 110.251 77.5412C110.251 76.8679 109.705 76.322 109.032 76.322C108.358 76.322 107.812 76.8679 107.812 77.5412C107.812 78.2145 108.358 78.7604 109.032 78.7604Z" stroke="white" stroke-width="1.1012" stroke-miterlimit="10"/>
<path d="M2.21918 48.5751C2.89252 48.5751 3.43836 48.0293 3.43836 47.3559C3.43836 46.6826 2.89252 46.1367 2.21918 46.1367C1.54585 46.1367 1 46.6826 1 47.3559C1 48.0293 1.54585 48.5751 2.21918 48.5751Z" stroke="white" stroke-width="1.1012" stroke-miterlimit="10"/>
<path d="M79.0132 61.9115C78.8258 70.5596 82.3105 102.917 82.3105 102.917H88.5332L88.9068 75.9735L96.7647 102.917H102.97C102.97 102.917 98.4792 66.0171 96.3271 61.454L79.0132 61.9115Z" fill="#455A64"/>
<path d="M87.7492 72.6483L86.8027 101.611" stroke="#263238" stroke-width="1.1012" stroke-miterlimit="10" stroke-linecap="round" stroke-linejoin="round"/>
<path d="M94.793 62.2391L101.506 101.611" stroke="#263238" stroke-width="1.1012" stroke-miterlimit="10" stroke-linecap="round" stroke-linejoin="round"/>
<path d="M88.7348 106.443C88.7592 106.859 88.4276 107.211 88.0122 107.211H77.6214C77.3944 107.211 77.1882 107.12 77.0418 106.97C76.8915 106.824 76.8008 106.618 76.8008 106.391C76.8008 106.09 76.965 105.814 77.2301 105.671L80.1945 104.062L81.7901 105.654H88.6895L88.7348 106.443Z" fill="#462E69"/>
<path d="M108.496 106.391C108.496 106.618 108.405 106.824 108.255 106.97C108.108 107.121 107.902 107.211 107.675 107.211H97.2845C96.8691 107.211 96.5371 106.859 96.5618 106.443L96.6072 105.637H103.842L105.305 104.174L108.067 105.672C108.332 105.815 108.496 106.09 108.496 106.391Z" fill="#462E69"/>
<path d="M88.7039 102.917H82.0769C81.9221 102.917 81.7969 102.792 81.7969 102.637V101.579C81.7969 101.425 81.9221 101.299 82.0769 101.299H88.7039C88.8586 101.299 88.9839 101.425 88.9839 101.579V102.637C88.9839 102.792 88.8583 102.917 88.7039 102.917Z" fill="#977EBA"/>
<path d="M102.954 102.917H96.3269C96.1721 102.917 96.0469 102.792 96.0469 102.637V101.579C96.0469 101.425 96.1721 101.299 96.3269 101.299H102.954C103.109 101.299 103.234 101.425 103.234 101.579V102.637C103.234 102.792 103.109 102.917 102.954 102.917Z" fill="#977EBA"/>
<path d="M88.9018 75.9732L86.9727 70.4144" stroke="#263238" stroke-width="1.1012" stroke-miterlimit="10" stroke-linecap="round" stroke-linejoin="round"/>
<path d="M88.6883 105.654H81.7889L80.1934 104.062L82.3058 102.917H88.531L88.6883 105.654Z" fill="#E59178"/>
<path d="M105.305 104.174L103.842 105.637H96.6074L96.7644 102.917H102.99L105.305 104.174Z" fill="#E59178"/>
<path d="M66.4217 53.5304H61.3608C60.9482 53.5304 60.5624 53.1962 60.4983 52.7837L58.9934 43.0765C58.9294 42.664 59.2119 42.3298 59.6244 42.3298H64.6854C65.0979 42.3298 65.4838 42.664 65.5478 43.0765L67.0527 52.7837C67.1164 53.1962 66.8342 53.5304 66.4217 53.5304Z" fill="#462E69"/>
<path d="M65.7791 53.5304H60.7182C60.3057 53.5304 59.9198 53.1962 59.8557 52.7837L58.3509 43.0765C58.2868 42.664 58.5693 42.3298 58.9818 42.3298H64.0428C64.4553 42.3298 64.8412 42.664 64.9053 43.0765L66.4101 52.7837C66.4742 53.1962 66.1917 53.5304 65.7791 53.5304Z" fill="#7253A2"/>
<path d="M60.0241 45.6693C59.741 45.6693 59.4762 45.4401 59.4321 45.1569L59.2308 43.8588C59.187 43.5756 59.3808 43.3464 59.6639 43.3464C59.9467 43.3464 60.2118 43.5756 60.2559 43.8588L60.4572 45.1569C60.501 45.4398 60.3073 45.6693 60.0241 45.6693Z" fill="#462E69"/>
<path d="M71.6423 52.6695L70.2215 55.4177C70.2215 55.4177 64.4483 53.8205 63.9331 53.499C63.4178 53.1775 62.8889 52.0056 62.9409 50.9789C62.9926 49.9521 62.4327 49.4233 62.1527 49.5374C61.8727 49.6516 61.8207 49.8485 61.8207 49.8485C61.8207 49.8485 61.3229 49.5374 60.9807 49.5891C60.6386 49.6408 60.566 49.9417 60.566 49.9417C60.566 49.9417 60.3586 49.6408 59.7051 49.9001C59.0516 50.1595 59.643 53.3018 60.3272 54.3494C61.0118 55.3968 61.6444 55.5629 61.6444 55.5629L69.3802 61.4733C70.2769 62.1585 71.4359 62.4005 72.5317 62.1313C73.6025 61.8684 74.5018 61.1451 74.9882 60.1559L77.4601 55.1272L71.6423 52.6695Z" fill="#E59178"/>
<path d="M103.438 51.8908L101.291 53.1198L100.791 53.4061L98.267 54.8482L97.401 55.3442L97.0589 54.8482L96.9333 54.6665L96.4374 53.9474L96.3293 53.7905V61.9119H78.9202C78.9202 61.9119 78.9411 60.8259 78.833 59.7018C78.819 59.5341 78.7981 59.3667 78.7737 59.2024C78.697 58.6228 78.5746 58.078 78.3932 57.7115C77.9395 56.8107 77.6357 55.7808 77.5133 55.3442C77.4749 55.2081 77.4575 55.1276 77.4575 55.1276L76.7977 54.8482L75.1567 54.157L74.6573 53.9439L71.6406 52.6696L72.4682 50.99L72.7162 50.4906L74.6225 46.6323L75.1567 45.5463L75.848 44.1461C76.218 43.399 76.7628 42.7563 77.4226 42.2781C77.688 42.0825 77.9674 41.9151 78.2676 41.7787C78.4982 41.6671 78.7391 41.5761 78.9868 41.5029L79.0147 41.4959L79.5106 41.3459L83.3689 40.2006L83.8683 40.0541L85.3941 39.6001L87.7265 39.3556L88.2224 39.3033L89.2209 39.1986L92.0804 40.0193L92.5798 40.1623L96.438 41.2692L96.7767 41.3669C96.829 41.3808 96.8813 41.3982 96.9336 41.4192C97.2339 41.5099 97.5168 41.6323 97.7891 41.7787C98.058 41.9217 98.3095 42.0895 98.5466 42.2781C99.1925 42.788 99.7129 43.4548 100.052 44.2228L100.792 45.8986L101.291 47.0299L102.821 50.4899L103.041 50.9893L103.438 51.8908Z" fill="#DFF000"/>
<path d="M102.822 50.4906H101.293V47.0306L100.793 45.8992V46.1367H96.9351V42.2784H98.5481C98.3106 42.0898 98.0592 41.9224 97.7906 41.779H96.9351V41.4195C96.8828 41.3985 96.8305 41.3811 96.7782 41.3671L96.4395 41.2695V41.7794H92.5813V40.1629L92.0819 40.0199V41.7797H88.2236V39.3042L87.7277 39.3565V41.7797H83.8694V40.0547L83.37 40.2012V41.7794H79.5118V41.3465L79.0159 41.4965V41.7794H78.2685C77.9682 41.9154 77.6889 42.0831 77.4235 42.2788H79.0155V46.137H75.1573V45.5469L74.623 46.6329H74.6579V50.4912H72.7167L72.4688 50.9906H74.6579V53.9445L75.1573 54.1576V50.9906H79.0155V54.8488H76.7985L77.4584 55.1282C77.4584 55.1282 77.4758 55.2084 77.5142 55.3448H79.0155V59.203H78.7746C78.799 59.3673 78.8199 59.5347 78.8338 59.7024H79.0155V61.9125H79.5115V59.7024H83.3697V61.9125H83.8691V59.7024H87.7274V61.9125H88.2233V59.7024H92.0815V61.9125H92.5809V59.7024H96.3308V59.203H92.5809V55.3448H96.3308V54.8488H92.5809V50.9906H96.4392V53.948L96.9351 54.6672V50.9906H100.793V53.4068L101.293 53.1204V50.9906H103.042L102.822 50.4906ZM79.0165 50.4906H75.1582V46.6323H79.0165V50.4906ZM83.3703 59.2021H79.5121V55.3438H83.3703V59.2021ZM83.3703 54.8482H79.5121V50.99H83.3703V54.8482ZM83.3703 50.4906H79.5121V46.6323H83.3703V50.4906ZM83.3703 46.1367H79.5121V42.2784H83.3703V46.1367ZM87.728 59.2021H83.8698V55.3438H87.728V59.2021ZM87.728 54.8482H83.8698V50.99H87.728V54.8482ZM87.728 50.4906H83.8698V46.6323H87.728V50.4906ZM87.728 46.1367H83.8698V42.2784H87.728V46.1367ZM92.0819 59.2021H88.2236V55.3438H92.0819V59.2021ZM92.0819 54.8482H88.2236V50.99H92.0819V54.8482ZM92.0819 50.4906H88.2236V46.6323H92.0819V50.4906ZM92.0819 46.1367H88.2236V42.2784H92.0819V46.1367ZM96.4392 50.4906H92.5809V46.6323H96.4392V50.4906ZM96.4392 46.1367H92.5809V42.2784H96.4392V46.1367ZM100.793 50.4906H96.9351V46.6323H100.793V50.4906ZM97.0607 54.8482L97.4028 55.3441L98.2688 54.8482H97.0607Z" fill="#E5F13E"/>
<path d="M97.4022 55.3454L98.9889 57.6788L91.8536 58.8818C91.8536 58.8818 90.5104 57.4921 89.3905 57.3367C88.2706 57.181 87.866 57.4924 88.0058 57.9122C88.146 58.3323 89.3747 59.1878 89.3747 59.1878C89.3747 59.1878 86.8856 59.7789 86.5279 59.7944C86.1702 59.8099 84.5988 58.69 84.21 58.9544C83.821 59.2189 84.21 60.0433 84.21 60.0433C84.21 60.0433 84.1789 60.8833 84.4745 61.3189C84.77 61.7546 85.0189 61.91 85.0189 61.91C85.0189 61.91 84.8632 62.4233 85.641 62.9522C86.4188 63.4811 87.2277 63.6834 88.1612 63.6989C89.0947 63.7145 91.319 62.5946 91.319 62.5946L102.132 63.8121C103.327 63.9466 104.516 63.5138 105.344 62.6424C106.381 61.552 106.686 59.9567 106.124 58.5609L103.437 51.8918L97.4022 55.3454Z" fill="#E59178"/>
<path d="M98.9883 57.6788L101.508 57.181" stroke="#B06A55" stroke-width="0.2" stroke-miterlimit="10" stroke-linecap="round" stroke-linejoin="round"/>
<path d="M96.3302 53.7898L93.2656 49.5894" stroke="#BECC00" stroke-width="0.2" stroke-miterlimit="10" stroke-linecap="round" stroke-linejoin="round"/>
<path d="M77.4568 55.1276C76.8347 52.4831 78.7325 49.994 78.8881 48.8427" stroke="#BECC00" stroke-width="0.2" stroke-miterlimit="10" stroke-linecap="round" stroke-linejoin="round"/>
<path d="M70.2207 55.418L72.544 55.8806" stroke="#B06A55" stroke-width="0.2" stroke-miterlimit="10" stroke-linecap="round" stroke-linejoin="round"/>
<path d="M61.8177 49.8488C61.2472 50.2584 62.0406 53.1052 62.0406 53.1052" stroke="#B06A55" stroke-width="0.2" stroke-miterlimit="10" stroke-linecap="round" stroke-linejoin="round"/>
<path d="M60.5639 49.942C60.0506 50.5695 60.7352 53.1052 60.7352 53.1052" stroke="#B06A55" stroke-width="0.2" stroke-miterlimit="10" stroke-linecap="round" stroke-linejoin="round"/>
<path d="M84.2109 60.0433C85.7665 61.1011 86.0776 61.1011 86.7932 61.1322C87.5089 61.1632 89.4066 60.8211 89.4066 60.8211" stroke="#B06A55" stroke-width="0.2" stroke-miterlimit="10" stroke-linecap="round" stroke-linejoin="round"/>
<path d="M85.0195 61.9103C85.9219 62.5635 87.6018 63.1237 89.4064 62.097" stroke="#B06A55" stroke-width="0.2" stroke-miterlimit="10" stroke-linecap="round" stroke-linejoin="round"/>
<path d="M90.6836 25.7569C92.4415 24.2168 94.7438 25.1347 95.164 27.1726C95.5841 29.2105 93.2193 31.8708 91.866 29.9417C90.5127 28.0126 91.228 26.1469 91.228 26.1469" fill="#881A4E"/>
<path d="M83.1486 34.6761C80.2603 33.6804 79.9493 29.3453 80.8203 28.018C81.6913 26.6904 83.1486 28.2875 83.1486 28.2875C83.1486 28.2875 83.1226 25.9021 85.3213 25.5495C87.5199 25.1969 89.449 25.9021 90.4859 25.7363C91.0332 25.6487 91.1736 25.9148 91.3503 26.131C91.5082 26.3248 91.7355 26.4427 91.6474 26.8147C91.4606 27.6029 91.7926 28.2288 92.5393 30.0625C93.286 31.8965 92.9125 38.3257 88.4325 37.0402" fill="#B62E68"/>
<path d="M89.7175 36.1334V40.2082C89.7175 40.2082 88.4571 41.3919 86.9034 41.3919C85.3462 41.3919 84.9727 40.2082 84.9727 40.2082V38.1098L89.7175 36.1334Z" fill="#F5A4C6"/>
<path d="M89.7178 36.1334V37.0028C87.7522 39.8379 85.7549 39.9498 84.9727 39.8623V38.1094L89.7178 36.1334Z" fill="#462E69"/>
<path d="M82.8418 30.1748V34.9269C82.8418 35.9251 83.2385 36.8827 83.9443 37.5885L84.2487 37.8929C84.737 38.3812 85.3994 38.6555 86.09 38.6555C86.5571 38.6555 87.0155 38.5299 87.4173 38.2918L89.3537 37.1442C90.1861 36.6512 90.6966 35.7554 90.6966 34.788C90.6966 34.788 91.6741 35.3968 92.2572 34.4151C92.8403 33.4334 91.9484 32.6271 91.3139 32.6613C90.6794 32.6956 89.9761 34.0162 89.9761 34.0162V31.6153C89.9761 31.6153 89.2044 31.5468 88.0895 31.8724C86.975 32.1987 83.905 32.233 82.8418 30.1748Z" fill="#E59178"/>
<path d="M91.6486 33.3795C91.3996 33.1306 90.6998 33.9465 91.3892 34.3025" stroke="#ED5B96" stroke-width="0.5506" stroke-miterlimit="10" stroke-linecap="round" stroke-linejoin="round"/>
<path d="M85.0214 33.6078L84.5347 34.88C84.4792 35.0249 84.5636 35.1853 84.7142 35.2218L85.1147 35.3188" stroke="#ED5B96" stroke-width="0.5506" stroke-miterlimit="10" stroke-linecap="round" stroke-linejoin="round"/>
<path d="M87.3032 33.981C87.3032 34.1586 87.1592 34.3026 86.9817 34.3026C86.8041 34.3026 86.6602 34.1586 86.6602 33.981C86.6602 33.8035 86.8041 33.6595 86.9817 33.6595C87.1592 33.6595 87.3032 33.8035 87.3032 33.981Z" fill="#462E69"/>
<path d="M84.1079 33.981C84.1079 34.1586 83.9639 34.3026 83.7864 34.3026C83.6088 34.3026 83.4648 34.1586 83.4648 33.981C83.4648 33.8035 83.6088 33.6595 83.7864 33.6595C83.9639 33.6595 84.1079 33.8035 84.1079 33.981Z" fill="#462E69"/>
<path d="M86.4512 32.83C86.4512 32.83 86.8659 32.3737 87.7268 32.83" stroke="#462E69" stroke-width="0.5506" stroke-miterlimit="10" stroke-linecap="round" stroke-linejoin="round"/>
<path d="M84.4221 32.83C84.4221 32.83 84.0074 32.3737 83.1465 32.83" stroke="#462E69" stroke-width="0.5506" stroke-miterlimit="10" stroke-linecap="round" stroke-linejoin="round"/>
<path d="M86.861 36.0107C86.9311 36.5041 86.588 36.961 86.0946 37.0311C85.6012 37.1011 85.1446 36.758 85.0742 36.2647" fill="white"/>
<path d="M91.8091 26.9805L90.4548 25.6706C90.3559 25.5752 90.3534 25.4176 90.4488 25.3187C90.5443 25.2197 90.7019 25.2172 90.8008 25.3129L92.155 26.6228C92.254 26.7183 92.2565 26.8758 92.1607 26.9748C92.0656 27.0737 91.908 27.0762 91.8091 26.9805Z" fill="#7B64AC"/>
<path d="M79.5084 19.5129V28.1299C79.5084 28.7219 79.0286 29.202 78.4366 29.202H75.874V31.3077C75.874 31.5084 75.6311 31.6093 75.489 31.4672L73.2238 29.202H64.8474C64.2555 29.202 63.7754 28.7219 63.7754 28.1299V19.5129C63.7754 18.919 64.257 18.4373 64.8509 18.4373H78.4331C79.027 18.4373 79.5084 18.919 79.5084 19.5129Z" fill="white"/>
<path d="M69.5836 24.0767C69.5836 24.317 69.3886 24.512 69.1482 24.512C68.9079 24.512 68.7129 24.317 68.7129 24.0767C68.7129 23.8363 68.9079 23.6413 69.1482 23.6413C69.3886 23.6416 69.5836 23.8363 69.5836 24.0767Z" fill="#7253A2"/>
<path d="M72.0758 24.0767C72.0758 24.317 71.8808 24.512 71.6404 24.512C71.4001 24.512 71.2051 24.317 71.2051 24.0767C71.2051 23.8363 71.4001 23.6413 71.6404 23.6413C71.8808 23.6413 72.0758 23.8363 72.0758 24.0767Z" fill="#7253A2"/>
<path d="M74.5719 24.0767C74.5719 24.317 74.3769 24.512 74.1365 24.512C73.8962 24.512 73.7012 24.317 73.7012 24.0767C73.7012 23.8363 73.8959 23.6413 74.1365 23.6413C74.3772 23.6416 74.5719 23.8363 74.5719 24.0767Z" fill="#7253A2"/>
<path d="M57.4765 45.5431L54.3516 48.6714V77.0719C54.3516 77.9134 53.6708 78.5942 52.8328 78.5942H14.8758C14.0343 78.5942 13.3535 77.9134 13.3535 77.0719V14.0175C13.3535 13.176 14.0343 12.4952 14.8758 12.4952H52.8328C53.6708 12.4952 54.3516 13.176 54.3516 14.0175V45.5428L57.4765 45.5431Z" fill="#D3C7E2"/>
<path d="M50.8587 15.9869H16.8438V75.1028H50.8587V15.9869Z" fill="#7253A2"/>
<path d="M40.2203 54.45V75.1028H28.9531V54.0694L30.4685 53.5317L37.5004 53.8215L40.2203 54.45Z" fill="#DFF000"/>
<path d="M40.2203 56.9257H28.9531V58.3364H40.2203V56.9257Z" fill="#D1E100"/>
<path d="M40.2203 61.5345H28.9531V62.9452H40.2203V61.5345Z" fill="#D1E100"/>
<path d="M40.2203 66.1433H28.9531V67.554H40.2203V66.1433Z" fill="#D1E100"/>
<path d="M40.2203 70.7521H28.9531V72.1628H40.2203V70.7521Z" fill="#D1E100"/>
<path d="M28.954 54.0694V75.1028H16.8418V58.364L26.7297 54.8587L28.954 54.0694Z" fill="white"/>
<path d="M50.854 56.9083V75.1028H40.2188V54.45L43.4206 55.1903L50.854 56.9083Z" fill="white"/>
<path d="M26.7284 54.8587L28.9524 54.0694V62.2397H26.1241C25.0133 62.2397 24.252 61.1201 24.6607 60.0873L26.7284 54.8587Z" fill="#E3D6EA"/>
<path d="M43.2485 62.2397H40.2188V54.45L43.4206 55.19L44.7695 60.2614C45.0349 61.2602 44.2822 62.2397 43.2485 62.2397Z" fill="#E3D6EA"/>
<path d="M25.6794 54.9823C20.7691 56.9723 21.9458 67.5933 21.9458 67.5933" stroke="#462E69" stroke-width="2.2023" stroke-miterlimit="10" stroke-linecap="round" stroke-linejoin="round"/>
<path d="M21.945 68.9625C22.701 68.9625 23.3139 68.3496 23.3139 67.5936C23.3139 66.8376 22.701 66.2248 21.945 66.2248C21.189 66.2248 20.5762 66.8376 20.5762 67.5936C20.5762 68.3496 21.189 68.9625 21.945 68.9625Z" fill="#462E69"/>
<path d="M44.0879 55.3438C48.7633 57.741 47.3941 65.7058 47.3941 65.7058" stroke="#462E69" stroke-width="2.2023" stroke-miterlimit="10" stroke-linecap="round" stroke-linejoin="round"/>
<path d="M42.0928 69.7108C41.6794 67.8077 42.8871 65.9299 44.7903 65.5168C46.6934 65.1036 48.5711 66.3111 48.9846 68.2142C49.3978 70.1173 48.1903 71.9951 46.2872 72.4082" stroke="#462E69" stroke-width="2.2023" stroke-miterlimit="10" stroke-linecap="round" stroke-linejoin="round"/>
<path d="M41.4485 34.0641C41.4174 32.3217 36.1281 28.837 29.8122 31.1393C23.4962 33.4417 23.0295 39.862 23.8697 42.19C24.7097 44.518 21.9095 48.6248 25.0832 51.3318C28.2569 54.0387 30.9013 51.9986 34.0126 52.2719C37.1238 52.5452 42.8176 53.4473 43.5022 51.5496C44.1865 49.6515 46.0531 33.9395 41.4485 34.0641Z" fill="#462E69"/>
<path d="M30.127 47.9812V54.9116C30.127 54.9116 32.2707 56.9248 34.9136 56.9248C37.5622 56.9248 38.1976 54.9116 38.1976 54.9116V51.3425L30.127 47.9812Z" fill="#F5A4C6"/>
<path d="M30.127 47.9812V49.46C33.4706 54.2822 36.8675 54.4725 38.198 54.3241V51.3429L30.127 47.9812Z" fill="#462E69"/>
<path d="M41.8194 37.2089V45.9296C41.8194 47.6276 41.1449 49.2562 39.9442 50.4569L39.4267 50.9744C38.5959 51.8052 37.4693 52.2719 36.2945 52.2719C35.4999 52.2719 34.7202 52.0582 34.0366 51.6533L30.7428 49.7017C29.327 48.863 28.4591 47.3394 28.4591 45.694C28.4591 45.694 26.7963 46.7296 25.8045 45.0596C24.8127 43.3895 26.3296 42.0184 27.4089 42.0768C28.4883 42.1351 29.6843 44.3813 29.6843 44.3813V40.2973C29.6843 40.2973 30.9203 40.8373 32.8932 40.7349C34.8658 40.6321 40.0107 40.7095 41.8194 37.2089Z" fill="#F5A4C6"/>
<path d="M26.8457 43.2975C27.269 42.8742 28.4597 44.2618 27.2868 44.8674" stroke="#ED5B96" stroke-width="0.9365" stroke-miterlimit="10" stroke-linecap="round" stroke-linejoin="round"/>
<path d="M37.9694 43.6856L38.7973 45.8497C38.8915 46.0961 38.7482 46.3691 38.4916 46.4313L37.8105 46.5965" stroke="#ED5B96" stroke-width="0.9365" stroke-miterlimit="10" stroke-linecap="round" stroke-linejoin="round"/>
<path d="M34.7813 44.8674C35.0834 44.8674 35.3283 44.6225 35.3283 44.3205C35.3283 44.0184 35.0834 43.7735 34.7813 43.7735C34.4793 43.7735 34.2344 44.0184 34.2344 44.3205C34.2344 44.6225 34.4793 44.8674 34.7813 44.8674Z" fill="#462E69"/>
<path d="M40.2188 44.8674C40.5209 44.8674 40.7658 44.6225 40.7658 44.3205C40.7658 44.0184 40.5209 43.7735 40.2188 43.7735C39.9168 43.7735 39.6719 44.0184 39.6719 44.3205C39.6719 44.6225 39.9168 44.8674 40.2188 44.8674Z" fill="#462E69"/>
<path d="M35.6815 42.3625C35.6815 42.3625 34.976 41.5862 33.5117 42.3625" stroke="#462E69" stroke-width="0.9365" stroke-miterlimit="10" stroke-linecap="round" stroke-linejoin="round"/>
<path d="M39.1328 42.3625C39.1328 42.3625 39.8383 41.5862 41.3026 42.3625" stroke="#462E69" stroke-width="0.9365" stroke-miterlimit="10" stroke-linecap="round" stroke-linejoin="round"/>
<path d="M37.9578 48.0116C37.9508 48.5563 37.661 49.031 37.2317 49.2964C36.9907 49.4464 36.7078 49.5304 36.4041 49.5269C35.943 49.52 35.5311 49.3104 35.2553 48.9857C35.0213 48.7133 34.8852 48.3607 34.8887 47.9767L37.9578 48.0116Z" fill="#462E69"/>
<path d="M37.2303 49.2964C36.9893 49.4464 36.7065 49.5304 36.4027 49.527C35.9417 49.52 35.5298 49.3104 35.2539 48.9857C35.4879 48.8671 35.7498 48.8005 36.0257 48.8005C36.4937 48.8008 36.9161 48.9857 37.2303 49.2964Z" fill="#ED5B96"/>
<path d="M35.1791 46.4471H34.2456C33.1888 46.4471 32.332 45.5904 32.332 44.5335V43.763C32.332 43.4624 32.5759 43.2186 32.8765 43.2186H36.5476C36.8482 43.2186 37.0921 43.4624 37.0921 43.763V44.5335C37.0927 45.5904 36.2359 46.4471 35.1791 46.4471Z" stroke="white" stroke-width="1.1012" stroke-miterlimit="10"/>
<path d="M41.769 46.4471H40.8355C39.7786 46.4471 38.9219 45.5904 38.9219 44.5335V43.763C38.9219 43.4624 39.1657 43.2186 39.4663 43.2186H43.1378C43.4384 43.2186 43.6822 43.4624 43.6822 43.763V44.5335C43.6825 45.5904 42.8258 46.4471 41.769 46.4471Z" stroke="white" stroke-width="1.1012" stroke-miterlimit="10"/>
<path d="M37.0898 44.0306H38.9185" stroke="white" stroke-width="1.1012" stroke-miterlimit="10"/>
<path d="M32.3311 43.8959H29.3984" stroke="white" stroke-width="1.1012" stroke-miterlimit="10"/>
<path d="M25.445 21.3666H20.1098C19.773 21.3666 19.5 21.0936 19.5 20.7568V19.7913C19.5 19.4546 19.773 19.1816 20.1098 19.1816H25.445C25.7817 19.1816 26.0547 19.4546 26.0547 19.7913V20.7568C26.0547 21.0936 25.7817 21.3666 25.445 21.3666Z" fill="#EE307D"/>
<path d="M24.2931 20.5298H21.2596C21.1679 20.5298 21.0938 20.4556 21.0938 20.364C21.0938 20.2723 21.1679 20.1981 21.2596 20.1981H24.2931C24.3847 20.1981 24.4589 20.2723 24.4589 20.364C24.4593 20.4556 24.3847 20.5298 24.2931 20.5298Z" fill="white"/>
<path d="M48.2463 20.364C48.2463 20.6788 47.9911 20.9344 47.6759 20.9344C47.3607 20.9344 47.1055 20.6792 47.1055 20.364C47.1055 20.0488 47.361 19.7935 47.6759 19.7935C47.9908 19.7935 48.2463 20.0488 48.2463 20.364Z" fill="#EE307D"/>
<path d="M34.8919 73.0491C36.5074 73.0491 37.817 71.7395 37.817 70.124C37.817 68.5085 36.5074 67.1989 34.8919 67.1989C33.2764 67.1989 31.9668 68.5085 31.9668 70.124C31.9668 71.7395 33.2764 73.0491 34.8919 73.0491Z" fill="#EE307D"/>
<path d="M34.1236 70.7074C34.0031 70.5869 34.0031 70.3919 34.1236 70.2714L35.2277 69.1674C35.3481 69.0469 35.5432 69.0469 35.6636 69.1674C35.7841 69.2879 35.7841 69.4829 35.6636 69.6034L34.5596 70.7074C34.4391 70.8276 34.2437 70.8276 34.1236 70.7074Z" fill="#E9E8EA"/>
<path d="M34.1236 69.1674C34.2441 69.0469 34.4391 69.0469 34.5596 69.1674L35.6636 70.2714C35.7841 70.3919 35.7841 70.5869 35.6636 70.7074C35.5432 70.8279 35.3481 70.8279 35.2277 70.7074L34.1236 69.6034C34.0031 69.4829 34.0031 69.2879 34.1236 69.1674Z" fill="#E9E8EA"/>
<path d="M36.5488 9.70901V21.794C36.5488 22.6241 37.222 23.2973 38.0521 23.2973H41.6462V26.2506C41.6462 26.5321 41.9868 26.6732 42.1859 26.4741L45.3628 23.2973H57.11C57.9401 23.2973 58.6133 22.6241 58.6133 21.794V9.70901C58.6133 8.87604 57.9379 8.20065 57.1049 8.20065H38.0569C37.2239 8.20065 36.5488 8.87604 36.5488 9.70901Z" fill="white"/>
<path d="M50.4668 16.1093C50.4668 16.4464 50.7401 16.7197 51.0772 16.7197C51.4142 16.7197 51.6876 16.4464 51.6876 16.1093C51.6876 15.7723 51.4142 15.4989 51.0772 15.4989C50.7401 15.4989 50.4668 15.7723 50.4668 16.1093Z" fill="#7253A2"/>
<path d="M46.9688 16.1093C46.9688 16.4464 47.2421 16.7197 47.5791 16.7197C47.9162 16.7197 48.1895 16.4464 48.1895 16.1093C48.1895 15.7723 47.9162 15.4989 47.5791 15.4989C47.2421 15.4989 46.9688 15.7723 46.9688 16.1093Z" fill="#7253A2"/>
<path d="M43.4707 16.1093C43.4707 16.4464 43.744 16.7197 44.0811 16.7197C44.4181 16.7197 44.6915 16.4464 44.6915 16.1093C44.6915 15.7723 44.4181 15.4989 44.0811 15.4989C43.744 15.4989 43.4707 15.7723 43.4707 16.1093Z" fill="#7253A2"/>
</svg>
