<svg width="127" height="129" viewBox="0 0 127 129" fill="none" xmlns="http://www.w3.org/2000/svg">
<path d="M63.3333 129C98.3114 129 126.667 100.645 126.667 65.6667H0C0 100.645 28.3553 129 63.3333 129Z" fill="#DCD7C3"/>
<ellipse cx="58.6111" cy="93.7222" rx="43.6111" ry="6.94444" fill="#C9C3A9"/>
<path d="M96.0547 73.2822V69.0668H104.684" stroke="#263238" stroke-width="0.2" stroke-miterlimit="10" stroke-linecap="round" stroke-linejoin="round"/>
<path d="M88.3867 65.081V73.2822H94.2523" stroke="#263238" stroke-width="0.2" stroke-miterlimit="10" stroke-linecap="round" stroke-linejoin="round"/>
<path d="M88.3867 62.9006V63.8786" stroke="#263238" stroke-width="0.2" stroke-miterlimit="10" stroke-linecap="round" stroke-linejoin="round"/>
<path d="M72.7617 74.6155L76.8321 77.7943V59.6755H88.3872V61.321" stroke="#263238" stroke-width="0.2" stroke-miterlimit="10" stroke-linecap="round" stroke-linejoin="round"/>
<path d="M58.0332 47.979L59.0296 47.6351V60.716L66.0678 64.1875V77.1767L71.0545 73.2823L71.7791 73.8481" stroke="#263238" stroke-width="0.2" stroke-miterlimit="10" stroke-linecap="round" stroke-linejoin="round"/>
<path d="M55.8164 48.7445L56.8525 48.3869" stroke="#263238" stroke-width="0.2" stroke-miterlimit="10" stroke-linecap="round" stroke-linejoin="round"/>
<path d="M41.8145 64.6386H49.8827V50.7935L54.4556 49.2145" stroke="#263238" stroke-width="0.2" stroke-miterlimit="10" stroke-linecap="round" stroke-linejoin="round"/>
<path d="M106.691 69.0668H107.61V91.401H97.0537H96.055H88.3873H85.4986H76.8323H66.068H65.2772H59.0298H56.9202H50.6117H49.882H39.0566V64.6386H40.4898" stroke="#263238" stroke-width="0.2" stroke-miterlimit="10" stroke-linecap="round" stroke-linejoin="round"/>
<path d="M92.9258 83.129V91.401H101.833V78.0196" stroke="#263238" stroke-width="0.2" stroke-miterlimit="10" stroke-linecap="round" stroke-linejoin="round"/>
<path d="M101.833 76.5117H92.9258V81.3243" stroke="#263238" stroke-width="0.2" stroke-miterlimit="10" stroke-linecap="round" stroke-linejoin="round"/>
<path d="M20.7207 67.2996V60.4942L32.0349 57.787V58.9525" stroke="#263238" stroke-width="0.2" stroke-miterlimit="10" stroke-linecap="round" stroke-linejoin="round"/>
<path d="M20.7207 70.4016V68.653" stroke="#263238" stroke-width="0.2" stroke-miterlimit="10" stroke-linecap="round" stroke-linejoin="round"/>
<path d="M32.0348 60.3625V91.401H22.8728H20.7206H13.4844V72.2252H20.7206" stroke="#263238" stroke-width="0.2" stroke-miterlimit="10" stroke-linecap="round" stroke-linejoin="round"/>
<path d="M30.0955 77.1767V74.5941H29.0957" stroke="#263238" stroke-width="0.2" stroke-miterlimit="10" stroke-linecap="round" stroke-linejoin="round"/>
<path d="M27.5707 74.5941H22.7598V91.401H30.095V79.1063" stroke="#263238" stroke-width="0.2" stroke-miterlimit="10" stroke-linecap="round" stroke-linejoin="round"/>
<path d="M24.0646 67.2873V68.8831C24.0646 68.9418 24.0171 68.9893 23.9584 68.9893H22.2412C22.1825 68.9893 22.1348 68.9416 22.1348 68.8831V67.2873C22.1348 67.2286 22.1825 67.1811 22.241 67.1811H23.9582C24.0169 67.1809 24.0646 67.2286 24.0646 67.2873Z" stroke="#263238" stroke-width="0.2" stroke-miterlimit="10" stroke-linecap="round" stroke-linejoin="round"/>
<path d="M27.1054 69.9147V71.5104C27.1054 71.5691 27.0577 71.6166 26.9992 71.6166H25.282C25.2233 71.6166 25.1758 71.5689 25.1758 71.5104V69.9147C25.1758 69.8559 25.2233 69.8084 25.282 69.8084H26.9992C27.0577 69.8084 27.1054 69.8559 27.1054 69.9147Z" stroke="#263238" stroke-width="0.2" stroke-miterlimit="10" stroke-linecap="round" stroke-linejoin="round"/>
<path d="M27.1054 64.6598V66.2555C27.1054 66.3143 27.0577 66.3617 26.9992 66.3617H25.282C25.2233 66.3617 25.1758 66.3143 25.1758 66.2555V64.6598C25.1758 64.6011 25.2233 64.5536 25.282 64.5536H26.9992C27.0577 64.5536 27.1054 64.6011 27.1054 64.6598Z" stroke="#263238" stroke-width="0.2" stroke-miterlimit="10" stroke-linecap="round" stroke-linejoin="round"/>
<path d="M27.1054 62.0325V63.6284C27.1054 63.6871 27.0577 63.7346 26.9992 63.7346H25.282C25.2233 63.7346 25.1758 63.6871 25.1758 63.6284V62.0325C25.1758 61.9738 25.2233 61.9263 25.282 61.9263H26.9992C27.0577 61.9261 27.1054 61.9738 27.1054 62.0325Z" stroke="#263238" stroke-width="0.2" stroke-miterlimit="10" stroke-linecap="round" stroke-linejoin="round"/>
<path d="M30.1445 69.9147V71.5104C30.1445 71.5691 30.097 71.6166 30.0383 71.6166H28.3211C28.2623 71.6166 28.2148 71.5689 28.2148 71.5104V69.9147C28.2148 69.8559 28.2623 69.8084 28.3211 69.8084H30.0383C30.097 69.8084 30.1445 69.8559 30.1445 69.9147Z" stroke="#263238" stroke-width="0.2" stroke-miterlimit="10" stroke-linecap="round" stroke-linejoin="round"/>
<path d="M30.1445 64.6598V66.2555C30.1445 66.3143 30.097 66.3617 30.0383 66.3617H28.3211C28.2623 66.3617 28.2148 66.3143 28.2148 66.2555V64.6598C28.2148 64.6011 28.2625 64.5536 28.3211 64.5536H30.0383C30.097 64.5536 30.1445 64.6011 30.1445 64.6598Z" stroke="#263238" stroke-width="0.2" stroke-miterlimit="10" stroke-linecap="round" stroke-linejoin="round"/>
<path d="M99.2402 88.6071V89.8399C99.2402 89.8986 99.2877 89.9461 99.3464 89.9461H100.677C100.735 89.9461 100.783 89.8984 100.783 89.8399V88.6071C100.783 88.5484 100.735 88.5009 100.677 88.5009H99.3464C99.2879 88.5009 99.2402 88.5484 99.2402 88.6071Z" stroke="#263238" stroke-width="0.2" stroke-miterlimit="10" stroke-linecap="round" stroke-linejoin="round"/>
<path d="M99.2402 86.507V87.74C99.2402 87.7988 99.2877 87.8462 99.3464 87.8462H100.677C100.735 87.8462 100.783 87.7985 100.783 87.74V86.507C100.783 86.4483 100.735 86.4008 100.677 86.4008H99.3464C99.2879 86.4006 99.2402 86.4483 99.2402 86.507Z" stroke="#263238" stroke-width="0.2" stroke-miterlimit="10" stroke-linecap="round" stroke-linejoin="round"/>
<path d="M99.2402 80.2062V81.4392C99.2402 81.4979 99.2877 81.5454 99.3464 81.5454H100.677C100.735 81.5454 100.783 81.4977 100.783 81.4392V80.2062C100.783 80.1475 100.735 80.1 100.677 80.1H99.3467C99.2879 80.1 99.2402 80.1475 99.2402 80.2062Z" stroke="#263238" stroke-width="0.2" stroke-miterlimit="10" stroke-linecap="round" stroke-linejoin="round"/>
<path d="M94.3789 88.6071V89.8401C94.3789 89.8988 94.4266 89.9463 94.4851 89.9463H95.815C95.8737 89.9463 95.9212 89.8986 95.9212 89.8401V88.6073C95.9212 88.5486 95.8737 88.5011 95.815 88.5011H94.4849C94.4266 88.5009 94.3789 88.5484 94.3789 88.6071Z" stroke="#263238" stroke-width="0.2" stroke-miterlimit="10" stroke-linecap="round" stroke-linejoin="round"/>
<path d="M94.3789 84.4067V85.6397C94.3789 85.6985 94.4266 85.746 94.4851 85.746H95.815C95.8737 85.746 95.9212 85.6985 95.9212 85.6397V84.4067C95.9212 84.348 95.8737 84.3005 95.815 84.3005H94.4849C94.4266 84.3003 94.3789 84.348 94.3789 84.4067Z" stroke="#263238" stroke-width="0.2" stroke-miterlimit="10" stroke-linecap="round" stroke-linejoin="round"/>
<path d="M99.2402 82.3065V83.5395C99.2402 83.5982 99.2877 83.6457 99.3464 83.6457H100.677C100.735 83.6457 100.783 83.598 100.783 83.5395V82.3065C100.783 82.2477 100.735 82.2003 100.677 82.2003H99.3467C99.2879 82.2003 99.2402 82.2477 99.2402 82.3065Z" stroke="#263238" stroke-width="0.2" stroke-miterlimit="10" stroke-linecap="round" stroke-linejoin="round"/>
<path d="M96.8086 86.507V87.74C96.8086 87.7988 96.8561 87.8462 96.9148 87.8462H98.2447C98.3034 87.8462 98.3509 87.7988 98.3509 87.74V86.507C98.3509 86.4483 98.3032 86.4008 98.2447 86.4008H96.9148C96.8561 86.4006 96.8086 86.4483 96.8086 86.507Z" stroke="#263238" stroke-width="0.2" stroke-miterlimit="10" stroke-linecap="round" stroke-linejoin="round"/>
<path d="M96.8086 80.2062V81.4392C96.8086 81.4979 96.8561 81.5454 96.9148 81.5454H98.2447C98.3034 81.5454 98.3509 81.4977 98.3509 81.4392V80.2062C98.3509 80.1475 98.3032 80.1 98.2445 80.1H96.9146C96.8561 80.1 96.8086 80.1475 96.8086 80.2062Z" stroke="#263238" stroke-width="0.2" stroke-miterlimit="10" stroke-linecap="round" stroke-linejoin="round"/>
<path d="M94.3789 78.1061V79.3391C94.3789 79.3978 94.4266 79.4453 94.4851 79.4453H95.8152C95.8739 79.4453 95.9214 79.3978 95.9214 79.3391V78.1061C95.9214 78.0474 95.8739 77.9997 95.8152 77.9997H94.4853C94.4266 77.9997 94.3789 78.0474 94.3789 78.1061Z" stroke="#263238" stroke-width="0.2" stroke-miterlimit="10" stroke-linecap="round" stroke-linejoin="round"/>
<path d="M21.6411 20.578C21.6411 20.578 21.5059 16.3007 25.6795 15.7319C29.9602 15.1485 30.6066 19.7703 30.6066 19.7703" stroke="#263238" stroke-width="0.2" stroke-miterlimit="10" stroke-linecap="round" stroke-linejoin="round"/>
<path d="M19.623 20.8831C19.9105 20.7794 20.1912 20.7097 20.4477 20.663" stroke="#263238" stroke-width="0.2" stroke-miterlimit="10" stroke-linecap="round" stroke-linejoin="round"/>
<path d="M16.957 25.1517C16.957 22.8502 17.9751 21.7005 19.062 21.129" stroke="#263238" stroke-width="0.2" stroke-miterlimit="10" stroke-linecap="round" stroke-linejoin="round"/>
<path d="M29.96 29.3819C26.755 29.3915 18.1302 30.7718 17.0645 26.1568" stroke="#263238" stroke-width="0.2" stroke-miterlimit="10" stroke-linecap="round" stroke-linejoin="round"/>
<path d="M32.0156 29.4426C31.818 29.4345 31.6249 29.4262 31.4375 29.4188" stroke="#263238" stroke-width="0.2" stroke-miterlimit="10" stroke-linecap="round" stroke-linejoin="round"/>
<path d="M37.7949 24.1252C39.0059 24.093 41.026 24.3881 41.026 26.7167C41.026 29.6378 36.2329 29.6071 32.5742 29.4653" stroke="#263238" stroke-width="0.2" stroke-miterlimit="10" stroke-linecap="round" stroke-linejoin="round"/>
<path d="M31.6445 19.4514C33.6462 18.9558 37.7692 18.5769 36.9064 24.2127" stroke="#263238" stroke-width="0.2" stroke-miterlimit="10" stroke-linecap="round" stroke-linejoin="round"/>
<path d="M83.7913 24.2751C83.7913 24.2751 83.7099 21.7029 86.2198 21.3609C88.7939 21.0101 89.1825 23.7894 89.1825 23.7894" stroke="#263238" stroke-width="0.2" stroke-miterlimit="10" stroke-linecap="round" stroke-linejoin="round"/>
<path d="M82.5781 24.4585C82.7509 24.3961 82.9199 24.3542 83.074 24.3262" stroke="#263238" stroke-width="0.2" stroke-miterlimit="10" stroke-linecap="round" stroke-linejoin="round"/>
<path d="M80.9746 27.0253C80.9746 25.6414 81.5869 24.9501 82.2405 24.6064" stroke="#263238" stroke-width="0.2" stroke-miterlimit="10" stroke-linecap="round" stroke-linejoin="round"/>
<path d="M88.7936 29.5691C86.8663 29.5749 81.6799 30.4051 81.0391 27.6298" stroke="#263238" stroke-width="0.2" stroke-miterlimit="10" stroke-linecap="round" stroke-linejoin="round"/>
<path d="M90.0313 29.6056C89.9126 29.6007 89.7964 29.5959 89.6836 29.5914" stroke="#263238" stroke-width="0.2" stroke-miterlimit="10" stroke-linecap="round" stroke-linejoin="round"/>
<path d="M93.5045 26.408C94.2328 26.3887 95.4475 26.5661 95.4475 27.9662C95.4475 29.7228 92.5654 29.7044 90.3652 29.6192" stroke="#263238" stroke-width="0.2" stroke-miterlimit="10" stroke-linecap="round" stroke-linejoin="round"/>
<path d="M89.8066 23.5975C91.0104 23.2994 93.4895 23.0715 92.9707 26.4606" stroke="#263238" stroke-width="0.2" stroke-miterlimit="10" stroke-linecap="round" stroke-linejoin="round"/>
<path d="M104.857 79.6087C104.857 79.6087 105.905 78.6017 105.49 77.656C105.074 76.7103 104.25 77.0622 104.25 77.0622C104.25 77.0622 105.417 75.5733 104.468 75.017C103.518 74.4607 102.733 75.369 102.733 75.369C102.733 75.369 103.577 73.3361 102.509 73.0579C101.441 72.7798 100.953 73.7003 100.953 73.7003C100.953 73.7003 101.487 71.5252 100.597 71.5252C99.7061 71.5252 99.4093 72.8659 99.4093 72.8659C99.4093 72.8659 98.8751 71.5127 98.0441 71.7353C97.213 71.9577 97.7473 73.5335 97.7473 73.5335C97.7473 73.5335 96.8176 72.5265 96.1053 72.9714C95.7059 73.221 95.8229 73.6649 96.0027 74.0066C95.9037 74.0295 95.8062 74.063 95.7142 74.1031C95.6222 74.0628 95.5246 74.0295 95.4256 74.0066C95.6054 73.6649 95.7227 73.2212 95.323 72.9714C94.6107 72.5265 93.6811 73.5335 93.6811 73.5335C93.6811 73.5335 94.2153 71.9579 93.3843 71.7353C92.5533 71.5127 92.019 72.8659 92.019 72.8659C92.019 72.8659 91.7222 71.5252 90.8318 71.5252C89.9414 71.5252 90.4757 73.7003 90.4757 73.7003C90.4757 73.7003 90.0845 72.9676 89.2391 73.0098C89.2223 72.9971 89.209 72.9831 89.1901 72.9712C88.4778 72.5262 87.5481 73.5332 87.5481 73.5332C87.5481 73.5332 88.0824 71.9577 87.2513 71.7351C86.4203 71.5125 85.8861 72.8657 85.8861 72.8657C85.8861 72.8657 85.8136 72.1555 84.9232 72.1555C84.0328 72.1555 84.3427 73.7001 84.3427 73.7001C84.3427 73.7001 83.8547 72.7796 82.7864 73.0577C81.7179 73.3359 82.5621 75.3687 82.5621 75.3687C82.5621 75.3687 81.7773 74.4605 80.8277 75.0168C79.878 75.5731 81.045 77.062 81.045 77.062C81.045 77.062 80.221 76.7101 79.8055 77.6558C79.39 78.6013 80.4383 79.6085 80.4383 79.6085C77.5833 80.7563 81.0781 82.6001 81.0781 82.6001H87.2109H90.0408H95.2539H96.1738H104.217C104.217 82.6001 107.712 80.7567 104.857 79.6087Z" fill="#92E3A9"/>
<path d="M73.8594 82.6003C73.8594 82.6003 70.3645 80.7565 73.2195 79.6087C73.2195 79.6087 72.1712 78.6017 72.5867 77.656C73.0023 76.7103 73.8263 77.0622 73.8263 77.0622C73.8263 77.0622 72.6592 75.5733 73.6088 75.017C74.5585 74.4607 75.3432 75.369 75.3432 75.369C75.3432 75.369 74.499 73.3361 75.5675 73.0579C76.6359 72.7798 77.124 73.7003 77.124 73.7003C77.124 73.7003 76.5897 71.525 77.4801 71.525C78.3705 71.525 78.6673 72.8659 78.6673 72.8659C78.6673 72.8659 79.2016 71.5127 80.0326 71.7353C80.8636 71.9577 80.3294 73.5335 80.3294 73.5335C80.3294 73.5335 81.259 72.5265 81.9713 72.9714C82.6837 73.4164 81.7538 74.4792 81.7538 74.4792C81.7538 74.4792 82.8153 73.5769 83.4089 74.1887C84.0025 74.8006 82.7036 75.8142 82.7036 75.8142C82.7036 75.8142 83.7651 75.5114 84.0619 76.2345C84.3587 76.9577 83.3434 77.4951 83.3434 77.4951C83.3434 77.4951 83.9866 77.4459 84.3146 78.2803C84.6425 79.1148 83.2117 79.275 83.2117 79.275C83.2117 79.275 84.223 79.1392 84.3438 79.8623C84.4645 80.5854 83.2711 80.8759 83.2711 80.8759C83.2711 80.8759 83.9896 80.7733 84.1083 81.3764C84.227 81.9795 82.8225 82.6003 82.8225 82.6003H73.8594Z" fill="#92E3A9"/>
<path d="M97.4404 82.6003C97.4404 82.6003 101.073 80.7565 98.3035 79.6087C98.3035 79.6087 99.4271 78.6017 99.0822 77.656C98.7372 76.7103 97.8869 77.0622 97.8869 77.0622C97.8869 77.0622 99.165 75.5733 98.2568 75.017C97.3486 74.4607 96.4962 75.369 96.4962 75.369C96.4962 75.369 97.4919 73.3361 96.4442 73.0579C95.3965 72.7798 94.8398 73.7003 94.8398 73.7003C94.8398 73.7003 95.5365 71.525 94.6461 71.525C93.7557 71.525 93.3588 72.8659 93.3588 72.8659C93.3588 72.8659 92.9255 71.5127 92.0779 71.7353C91.2303 71.9577 91.6469 73.5335 91.6469 73.5335C91.6469 73.5335 90.7923 72.5265 90.0469 72.9714C89.3015 73.4164 90.1519 74.4792 90.1519 74.4792C90.1519 74.4792 89.1578 73.5769 88.5184 74.1887C87.8792 74.8006 89.1025 75.8142 89.1025 75.8142C89.1025 75.8142 88.0635 75.5114 87.7128 76.2345C87.3622 76.9577 88.3371 77.4951 88.3371 77.4951C88.3371 77.4951 87.6975 77.4459 87.3075 78.2803C86.9174 79.1148 88.3361 79.275 88.3361 79.275C88.3361 79.275 87.3348 79.1392 87.1603 79.8623C86.9856 80.5854 88.1574 80.8759 88.1574 80.8759C88.1574 80.8759 87.4465 80.7733 87.2829 81.3764C87.1192 81.9795 88.4773 82.6003 88.4773 82.6003H97.4404Z" fill="#92E3A9"/>
<path opacity="0.4" d="M73.8594 82.6003C73.8594 82.6003 70.3645 80.7565 73.2195 79.6087C73.2195 79.6087 72.1712 78.6017 72.5867 77.656C73.0023 76.7103 73.8263 77.0622 73.8263 77.0622C73.8263 77.0622 72.6592 75.5733 73.6088 75.017C74.5585 74.4607 75.3432 75.369 75.3432 75.369C75.3432 75.369 74.499 73.3361 75.5675 73.0579C76.6359 72.7798 77.124 73.7003 77.124 73.7003C77.124 73.7003 76.5897 71.525 77.4801 71.525C78.3705 71.525 78.6673 72.8659 78.6673 72.8659C78.6673 72.8659 79.2016 71.5127 80.0326 71.7353C80.8636 71.9577 80.3294 73.5335 80.3294 73.5335C80.3294 73.5335 81.259 72.5265 81.9713 72.9714C82.6837 73.4164 81.7538 74.4792 81.7538 74.4792C81.7538 74.4792 82.8153 73.5769 83.4089 74.1887C84.0025 74.8006 82.7036 75.8142 82.7036 75.8142C82.7036 75.8142 83.7651 75.5114 84.0619 76.2345C84.3587 76.9577 83.3434 77.4951 83.3434 77.4951C83.3434 77.4951 83.9866 77.4459 84.3146 78.2803C84.6425 79.1148 83.2117 79.275 83.2117 79.275C83.2117 79.275 84.223 79.1392 84.3438 79.8623C84.4645 80.5854 83.2711 80.8759 83.2711 80.8759C83.2711 80.8759 83.9896 80.7733 84.1083 81.3764C84.227 81.9795 82.8225 82.6003 82.8225 82.6003H73.8594Z" fill="white"/>
<path opacity="0.4" d="M97.4404 82.6003C97.4404 82.6003 101.073 80.7565 98.3035 79.6087C98.3035 79.6087 99.4271 78.6017 99.0822 77.656C98.7372 76.7103 97.8869 77.0622 97.8869 77.0622C97.8869 77.0622 99.165 75.5733 98.2568 75.017C97.3486 74.4607 96.4962 75.369 96.4962 75.369C96.4962 75.369 97.4919 73.3361 96.4442 73.0579C95.3965 72.7798 94.8398 73.7003 94.8398 73.7003C94.8398 73.7003 95.5365 71.525 94.6461 71.525C93.7557 71.525 93.3588 72.8659 93.3588 72.8659C93.3588 72.8659 92.9255 71.5127 92.0779 71.7353C91.2303 71.9577 91.6469 73.5335 91.6469 73.5335C91.6469 73.5335 90.7923 72.5265 90.0469 72.9714C89.3015 73.4164 90.1519 74.4792 90.1519 74.4792C90.1519 74.4792 89.1578 73.5769 88.5184 74.1887C87.8792 74.8006 89.1025 75.8142 89.1025 75.8142C89.1025 75.8142 88.0635 75.5114 87.7128 76.2345C87.3622 76.9577 88.3371 77.4951 88.3371 77.4951C88.3371 77.4951 87.6975 77.4459 87.3075 78.2803C86.9174 79.1148 88.3361 79.275 88.3361 79.275C88.3361 79.275 87.3348 79.1392 87.1603 79.8623C86.9856 80.5854 88.1574 80.8759 88.1574 80.8759C88.1574 80.8759 87.4465 80.7733 87.2829 81.3764C87.1192 81.9795 88.4773 82.6003 88.4773 82.6003H97.4404Z" fill="white"/>
<path d="M104.484 91.401H73.624C73.2931 91.401 72.9837 91.1489 72.9331 90.8362L71.6543 82.9568H106.453L105.174 90.8362C105.124 91.1489 104.815 91.401 104.484 91.401Z" fill="#999999" stroke="#263238" stroke-width="0.2" stroke-miterlimit="10" stroke-linecap="round" stroke-linejoin="round"/>
<path d="M106.747 83.8835H71.3603C71.0902 83.8835 70.8335 83.6622 70.7866 83.3881L70.6385 82.5223C70.5905 82.2422 70.7743 82.0141 71.0491 82.0141H107.058C107.333 82.0141 107.517 82.2422 107.469 82.5223L107.321 83.3881C107.274 83.6622 107.017 83.8835 106.747 83.8835Z" fill="#999999" stroke="#263238" stroke-width="0.2" stroke-miterlimit="10" stroke-linecap="round" stroke-linejoin="round"/>
<path d="M12.7539 91.4011H109.308" stroke="#263238" stroke-width="0.2" stroke-miterlimit="10" stroke-linecap="round" stroke-linejoin="round"/>
<path d="M65.7902 67.7196C62.5676 67.7196 59.9551 58.3517 59.9551 46.7958C59.9551 35.2399 62.5676 25.8721 65.7902 25.8721H76.278C79.5006 25.8721 82.1131 35.2399 82.1131 46.7958C82.1131 58.3517 79.5006 67.7196 76.278 67.7196H65.7902Z" fill="#DFF000"/>
<mask id="mask0_506_121" style="mask-type:luminance" maskUnits="userSpaceOnUse" x="59" y="25" width="24" height="43">
<path d="M65.7902 67.7196C62.5676 67.7196 59.9551 58.3517 59.9551 46.7958C59.9551 35.2399 62.5676 25.8721 65.7902 25.8721H76.278C79.5006 25.8721 82.1131 35.2399 82.1131 46.7958C82.1131 58.3517 79.5006 67.7196 76.278 67.7196H65.7902Z" fill="white"/>
</mask>
<g mask="url(#mask0_506_121)">
<g opacity="0.2">
<path d="M76.382 25.8723C73.1594 25.8723 70.5469 35.2401 70.5469 46.796C70.5469 58.352 73.1594 67.7198 76.382 67.7198C79.6046 67.7198 82.2171 58.352 82.2171 46.796C82.2171 35.2401 79.6048 25.8723 76.382 25.8723Z" fill="black"/>
</g>
</g>
<path d="M65.7902 67.7196C62.5676 67.7196 59.9551 58.3517 59.9551 46.7958C59.9551 35.2399 62.5676 25.8721 65.7902 25.8721H76.278C79.5006 25.8721 82.1131 35.2399 82.1131 46.7958C82.1131 58.3517 79.5006 67.7196 76.278 67.7196H65.7902Z" stroke="#263238" stroke-width="0.2" stroke-miterlimit="10" stroke-linecap="round" stroke-linejoin="round"/>
<path d="M76.2765 67.7198C79.4991 67.7198 82.1116 58.3519 82.1116 46.796C82.1116 35.2402 79.4991 25.8723 76.2765 25.8723C73.0539 25.8723 70.4414 35.2402 70.4414 46.796C70.4414 58.3519 73.0539 67.7198 76.2765 67.7198Z" stroke="#263238" stroke-width="0.2" stroke-miterlimit="10" stroke-linecap="round" stroke-linejoin="round"/>
<path d="M76.2765 25.8723C73.0539 25.8723 70.4414 35.2401 70.4414 46.796C70.4414 58.352 73.0539 67.7198 76.2765 67.7198C79.4991 67.7198 82.1116 58.352 82.1116 46.796C82.1116 35.2401 79.4991 25.8723 76.2765 25.8723ZM76.2538 66.7773C75.4728 66.7773 74.165 65.3668 73.0507 61.3918C71.9761 57.5582 71.3842 52.4446 71.3842 46.9932C71.3842 34.9164 74.2684 27.2094 76.254 27.2094C77.035 27.2094 78.3429 28.6198 79.4571 32.5948C80.532 36.4284 81.1237 41.5418 81.1237 46.9934C81.1235 59.0702 78.2392 66.7773 76.2538 66.7773Z" stroke="#263238" stroke-width="0.2" stroke-miterlimit="10" stroke-linecap="round" stroke-linejoin="round"/>
<g opacity="0.7">
<path d="M66.3724 31.3185C66.3724 31.7519 66.0211 32.1034 65.5876 32.1034C65.1542 32.1034 64.8027 31.7521 64.8027 31.3185C64.8027 30.8852 65.154 30.5337 65.5876 30.5337C66.0209 30.5339 66.3724 30.8852 66.3724 31.3185Z" fill="white"/>
<path d="M69.9407 31.3185C69.9407 31.7519 69.5895 32.1034 69.1559 32.1034C68.7226 32.1034 68.3711 31.7521 68.3711 31.3185C68.3711 30.8852 68.7224 30.5337 69.1559 30.5337C69.5892 30.5339 69.9407 30.8852 69.9407 31.3185Z" fill="white"/>
<path d="M64.1165 33.7441C64.1165 34.1774 63.7652 34.5289 63.3317 34.5289C62.8984 34.5289 62.5469 34.1776 62.5469 33.7441C62.5469 33.3107 62.8982 32.9592 63.3317 32.9592C63.7652 32.9592 64.1165 33.3107 64.1165 33.7441Z" fill="white"/>
<path d="M67.2142 33.7441C67.2142 34.1774 66.8629 34.5289 66.4294 34.5289C65.9958 34.5289 65.6445 34.1776 65.6445 33.7441C65.6445 33.3107 65.9958 32.9592 66.4294 32.9592C66.8629 32.9592 67.2142 33.3107 67.2142 33.7441Z" fill="white"/>
<path d="M70.3118 33.7441C70.3118 34.1774 69.9606 34.5289 69.527 34.5289C69.0937 34.5289 68.7422 34.1776 68.7422 33.7441C68.7422 33.3107 69.0935 32.9592 69.527 32.9592C69.9603 32.9592 70.3118 33.3107 70.3118 33.7441Z" fill="white"/>
<path d="M65.9017 28.8933C65.9017 29.3266 65.5504 29.6781 65.1169 29.6781C64.6835 29.6781 64.332 29.3268 64.332 28.8933C64.332 28.4597 64.6833 28.1085 65.1169 28.1085C65.5504 28.1085 65.9017 28.4597 65.9017 28.8933Z" fill="white"/>
<path d="M68.9993 28.8933C68.9993 29.3266 68.6481 29.6781 68.2145 29.6781C67.781 29.6781 67.4297 29.3268 67.4297 28.8933C67.4297 28.4597 67.781 28.1085 68.2145 28.1085C68.6481 28.1085 68.9993 28.4597 68.9993 28.8933Z" fill="white"/>
<path d="M72.097 28.8933C72.097 29.3266 71.7457 29.6781 71.3122 29.6781C70.8788 29.6781 70.5273 29.3268 70.5273 28.8933C70.5273 28.4597 70.8786 28.1085 71.3122 28.1085C71.7457 28.1085 72.097 28.4597 72.097 28.8933Z" fill="white"/>
</g>
<g opacity="0.7">
<path d="M68.2715 62.2733C68.2715 62.7066 68.6228 63.0581 69.0563 63.0581C69.4896 63.0581 69.8411 62.7069 69.8411 62.2733C69.8411 61.8398 69.4898 61.4885 69.0563 61.4885C68.6228 61.4885 68.2715 61.8398 68.2715 62.2733Z" fill="white"/>
<path d="M64.9375 62.2733C64.9375 62.7066 65.2888 63.0581 65.7223 63.0581C66.1557 63.0581 66.5072 62.7069 66.5072 62.2733C66.5072 61.8398 66.1559 61.4885 65.7223 61.4885C65.2888 61.4885 64.9375 61.8398 64.9375 62.2733Z" fill="white"/>
<path d="M70.5273 64.6986C70.5273 65.1319 70.8786 65.4834 71.3122 65.4834C71.7455 65.4834 72.097 65.1321 72.097 64.6986C72.097 64.2653 71.7457 63.9138 71.3122 63.9138C70.8786 63.914 70.5273 64.2653 70.5273 64.6986Z" fill="white"/>
<path d="M67.4297 64.6986C67.4297 65.1319 67.781 65.4834 68.2145 65.4834C68.6481 65.4834 68.9993 65.1321 68.9993 64.6986C68.9993 64.2653 68.6481 63.9138 68.2145 63.9138C67.781 63.9138 67.4297 64.2653 67.4297 64.6986Z" fill="white"/>
<path d="M64.332 64.6986C64.332 65.1319 64.6833 65.4834 65.1169 65.4834C65.5502 65.4834 65.9017 65.1321 65.9017 64.6986C65.9017 64.2653 65.5504 63.9138 65.1169 63.9138C64.6835 63.914 64.332 64.2653 64.332 64.6986Z" fill="white"/>
<path d="M68.7422 59.8478C68.7422 60.2811 69.0935 60.6326 69.527 60.6326C69.9603 60.6326 70.3118 60.2814 70.3118 59.8478C70.3118 59.4145 69.9606 59.063 69.527 59.063C69.0935 59.0632 68.7422 59.4145 68.7422 59.8478Z" fill="white"/>
<path d="M65.6445 59.8478C65.6445 60.2811 65.9958 60.6326 66.4294 60.6326C66.8629 60.6326 67.2142 60.2814 67.2142 59.8478C67.2142 59.4145 66.8629 59.063 66.4294 59.063C65.9958 59.063 65.6445 59.4145 65.6445 59.8478Z" fill="white"/>
<path d="M62.5469 59.8478C62.5469 60.2811 62.8982 60.6326 63.3317 60.6326C63.765 60.6326 64.1165 60.2814 64.1165 59.8478C64.1165 59.4145 63.7652 59.063 63.3317 59.063C62.8982 59.0632 62.5469 59.4145 62.5469 59.8478Z" fill="white"/>
</g>
<path d="M75.8806 49.4872C77.3668 49.4872 78.5717 48.2823 78.5717 46.796C78.5717 45.3098 77.3668 44.1049 75.8806 44.1049C74.3943 44.1049 73.1895 45.3098 73.1895 46.796C73.1895 48.2823 74.3943 49.4872 75.8806 49.4872Z" fill="#999999"/>
<path d="M81.1236 46.796C81.1236 43.8999 78.7759 41.552 75.8795 41.552C74.0074 41.552 72.3654 42.534 71.4375 44.0099" stroke="#263238" stroke-width="0.2" stroke-miterlimit="10" stroke-linecap="round" stroke-linejoin="round"/>
<path d="M71.0601 36.033H65.6289V57.5589H71.0601C73.8738 57.5589 76.1547 55.278 76.1547 52.4643V41.1274C76.1547 38.3139 73.8738 36.033 71.0601 36.033Z" fill="#DFF000" stroke="#263238" stroke-width="0.2" stroke-miterlimit="10" stroke-linecap="round" stroke-linejoin="round"/>
<path d="M70.1579 57.5589H61.1008C58.5695 57.5589 56.5176 55.5069 56.5176 52.9756V40.6162C56.5176 38.085 58.5695 36.033 61.1008 36.033H70.1579C72.6891 36.033 74.7411 38.085 74.7411 40.6162V52.9756C74.7413 55.5069 72.6891 57.5589 70.1579 57.5589Z" fill="#999999" stroke="#263238" stroke-width="0.2" stroke-miterlimit="10" stroke-linecap="round" stroke-linejoin="round"/>
<path d="M70.2636 55.488C71.5905 55.488 72.6698 54.4085 72.6698 53.0818V40.51C72.6698 39.1833 71.5905 38.104 70.2636 38.104H60.9941C59.6672 38.104 58.5879 39.1833 58.5879 40.51V53.0818C58.5879 54.4085 59.6672 55.488 60.9941 55.488H70.2636Z" fill="#263238" stroke="#263238" stroke-width="0.2" stroke-miterlimit="10" stroke-linecap="round" stroke-linejoin="round"/>
<path d="M75.3268 48.8993C75.0029 48.8993 74.7402 47.9576 74.7402 46.7958C74.7402 45.6341 75.0029 44.6924 75.3268 44.6924H76.3811C76.7051 44.6924 76.9677 45.6341 76.9677 46.7958C76.9677 47.9576 76.7051 48.8993 76.3811 48.8993H75.3268Z" fill="#757575" stroke="#263238" stroke-width="0.2" stroke-miterlimit="10" stroke-linecap="round" stroke-linejoin="round"/>
<path d="M76.3815 48.8995C76.7055 48.8995 76.9681 47.9577 76.9681 46.796C76.9681 45.6343 76.7055 44.6926 76.3815 44.6926C76.0576 44.6926 75.7949 45.6343 75.7949 46.796C75.7949 47.9577 76.0576 48.8995 76.3815 48.8995Z" fill="#DFF000" stroke="#263238" stroke-width="0.2" stroke-miterlimit="10" stroke-linecap="round" stroke-linejoin="round"/>
<path d="M60.4716 41.4274H59.9297V41.0595C60.3681 41.0595 60.5237 40.9654 60.6414 40.6447H60.9903V43.9444H60.4716V41.4274Z" fill="white"/>
<path d="M61.5938 43.1619V41.4274C61.5938 40.8993 61.8719 40.5976 62.3811 40.5976C62.8903 40.5976 63.1685 40.8993 63.1685 41.4274V43.1619C63.1685 43.69 62.8901 43.9917 62.3811 43.9917C61.8721 43.9917 61.5938 43.69 61.5938 43.1619ZM62.6495 43.195V41.3943C62.6495 41.1585 62.5461 41.0691 62.3809 41.0691C62.216 41.0691 62.1121 41.1585 62.1121 41.3943V43.195C62.1121 43.4308 62.216 43.5202 62.3809 43.5202C62.5461 43.5202 62.6495 43.4308 62.6495 43.195Z" fill="white"/>
<path d="M63.5176 41.6489H64.0173V42.1486H63.5176V41.6489ZM63.5176 43.4447H64.0173V43.9444H63.5176V43.4447Z" fill="white"/>
<path d="M64.3652 43.1619V41.4274C64.3652 40.8993 64.6436 40.5976 65.1526 40.5976C65.6616 40.5976 65.9398 40.8993 65.9398 41.4274V43.1619C65.9398 43.69 65.6616 43.9917 65.1526 43.9917C64.6436 43.9917 64.3652 43.69 64.3652 43.1619ZM65.4212 43.195V41.3943C65.4212 41.1585 65.3175 41.0691 65.1526 41.0691C64.9877 41.0691 64.8838 41.1585 64.8838 41.3943V43.195C64.8838 43.4308 64.9877 43.5202 65.1526 43.5202C65.3175 43.5202 65.4212 43.4308 65.4212 43.195Z" fill="white"/>
<path d="M66.2734 43.1619V42.9027H66.7638V43.1997C66.7638 43.4352 66.8673 43.5202 67.0324 43.5202C67.1973 43.5202 67.3012 43.4354 67.3012 43.1997V42.4596C67.3012 42.2238 67.1973 42.1344 67.0324 42.1344C66.8675 42.1344 66.7638 42.2238 66.7638 42.4596V42.488H66.2734L66.3678 40.6449H67.735V41.1164H66.8299L66.7873 41.9037H66.7967C66.891 41.7481 67.0371 41.6633 67.2444 41.6633C67.6262 41.6633 67.8196 41.9319 67.8196 42.4176V43.1624C67.8196 43.6905 67.5556 43.9921 67.0466 43.9921C66.5376 43.9917 66.2734 43.69 66.2734 43.1619Z" fill="white"/>
<path d="M60.1045 46.3H59.7793V46.0795C60.0424 46.0795 60.1355 46.0229 60.2063 45.8308H60.4155V47.8092H60.1045V46.3Z" fill="white"/>
<path d="M60.7637 47.3485V47.1732C60.7637 46.9839 60.8201 46.8454 60.9672 46.7691V46.7634C60.8372 46.6928 60.7751 46.5684 60.7751 46.3733V46.2915C60.7751 45.975 60.9475 45.8026 61.2498 45.8026C61.5521 45.8026 61.7245 45.975 61.7245 46.2915V46.3733C61.7245 46.5684 61.6596 46.6928 61.5324 46.7634V46.7691C61.6795 46.8454 61.7361 46.9839 61.7361 47.1732V47.3485C61.7361 47.665 61.5635 47.8376 61.2498 47.8376C60.936 47.8374 60.7637 47.665 60.7637 47.3485ZM61.4251 47.3316V47.1422C61.4251 46.9924 61.3658 46.919 61.2498 46.919C61.134 46.919 61.0747 46.9924 61.0747 47.1422V47.3316C61.0747 47.4814 61.134 47.5548 61.2498 47.5548C61.3658 47.5548 61.4251 47.4814 61.4251 47.3316ZM61.4139 46.4384V46.283C61.4139 46.153 61.3573 46.0852 61.2498 46.0852C61.1425 46.0852 61.0859 46.153 61.0859 46.283V46.4384C61.0859 46.5684 61.1425 46.6364 61.2498 46.6364C61.3573 46.6364 61.4139 46.5686 61.4139 46.4384Z" fill="white"/>
<path d="M62.5394 46.1134H61.9121V45.8308H62.8445V46.1022L62.3586 47.8092H62.0419L62.5394 46.1134Z" fill="white"/>
<path d="M63.6368 46.2546H63.9175L64.1323 47.5737H63.9249L63.8874 47.3119V47.3157H63.6517L63.6139 47.5737H63.4219L63.6368 46.2546ZM63.8628 47.1365L63.7706 46.4846H63.767L63.6765 47.1365H63.8628Z" fill="white"/>
<path d="M64.2148 47.2684V46.5599C64.2148 46.3563 64.3204 46.2359 64.5203 46.2359C64.72 46.2359 64.8254 46.3566 64.8254 46.5599V46.6994H64.6295V46.5467C64.6295 46.46 64.5882 46.4242 64.5256 46.4242C64.4635 46.4242 64.4222 46.46 64.4222 46.5467V47.2834C64.4222 47.3701 64.4635 47.4041 64.5256 47.4041C64.588 47.4041 64.6295 47.3701 64.6295 47.2834V47.0818H64.8254V47.2684C64.8254 47.4719 64.72 47.5925 64.5203 47.5925C64.3204 47.5923 64.2148 47.4719 64.2148 47.2684Z" fill="white"/>
<path d="M65.1134 46.4431H64.8965V46.2546H65.5371V46.4431H65.3203V47.5735H65.1134V46.4431Z" fill="white"/>
<path d="M65.6367 46.2546H65.8438V47.5737H65.6367V46.2546Z" fill="white"/>
<path d="M65.9434 46.2546H66.1526L66.2885 47.2777H66.2921L66.4276 46.2546H66.6179L66.4182 47.5737H66.1433L65.9434 46.2546Z" fill="white"/>
<path d="M66.7188 46.2546H67.2839V46.4431H66.9259V46.7916H67.2106V46.9801H66.9259V47.3852H67.2839V47.5737H66.7188V46.2546Z" fill="white"/>
<path d="M67.6914 47.2684V46.5599C67.6914 46.3563 67.797 46.2359 67.9969 46.2359C68.1966 46.2359 68.302 46.3566 68.302 46.5599V46.6994H68.1061V46.5467C68.1061 46.46 68.0643 46.4242 68.0022 46.4242C67.9401 46.4242 67.8987 46.46 67.8987 46.5467V47.2834C67.8987 47.3701 67.9401 47.4041 68.0022 47.4041C68.0643 47.4041 68.1061 47.3701 68.1061 47.2834V47.0818H68.302V47.2684C68.302 47.4719 68.1966 47.5925 67.9969 47.5925C67.7972 47.5923 67.6914 47.4719 67.6914 47.2684Z" fill="white"/>
<path d="M68.5878 46.2546H68.8685L69.0832 47.5737H68.8759L68.8384 47.3119V47.3157H68.6029L68.5651 47.5737H68.373L68.5878 46.2546ZM68.8138 47.1365L68.7216 46.4846H68.718L68.6274 47.1365H68.8138Z" fill="white"/>
<path d="M69.1836 46.2546H69.3907V47.3852H69.7318V47.5737H69.1836V46.2546Z" fill="white"/>
<path d="M59.6643 50.5164C59.6643 50.2338 59.7434 50.0615 59.9753 49.8183C60.2127 49.5667 60.2803 49.417 60.2803 49.2334C60.2803 49.0553 60.2182 49.0074 60.1192 49.0074C60.0202 49.0074 59.9581 49.0611 59.9581 49.2025V49.4145H59.6643V49.2222C59.6643 48.9057 59.8226 48.7248 60.1277 48.7248C60.4328 48.7248 60.5911 48.9057 60.5911 49.2222C60.5911 49.4566 60.4951 49.6659 60.2068 49.9712C60.0202 50.169 59.9723 50.268 59.9723 50.4064V50.4488H60.5627V50.7314H59.6641V50.5164H59.6643Z" fill="white"/>
<path d="M60.7773 50.262V49.222C60.7773 48.9054 60.9442 48.7246 61.2493 48.7246C61.5547 48.7246 61.7212 48.9054 61.7212 49.222V50.262C61.7212 50.5786 61.5545 50.7594 61.2493 50.7594C60.944 50.7596 60.7773 50.5788 60.7773 50.262ZM61.4104 50.282V49.2022C61.4104 49.0608 61.3483 49.0072 61.2493 49.0072C61.1503 49.0072 61.0881 49.0608 61.0881 49.2022V50.282C61.0881 50.4234 61.1503 50.4768 61.2493 50.4768C61.3483 50.4768 61.4104 50.4232 61.4104 50.282Z" fill="white"/>
<path d="M62.451 50.3723H61.8574V50.0897L62.4226 48.7528H62.7618V50.0897H62.9089V50.3723H62.7618V50.7312H62.4508V50.3723H62.451ZM62.451 50.0897V49.3182H62.4455L62.14 50.0897H62.451Z" fill="white"/>
<path d="M63.6388 49.3651H63.4219V49.1766H64.0625V49.3651H63.8457V50.4957H63.6385V49.3651H63.6388Z" fill="white"/>
<path d="M64.1406 50.1828V49.4893C64.1406 49.2784 64.2517 49.1577 64.4554 49.1577C64.659 49.1577 64.7701 49.2784 64.7701 49.4893V50.1828C64.7701 50.3937 64.659 50.5143 64.4554 50.5143C64.2517 50.5145 64.1406 50.3939 64.1406 50.1828ZM64.5627 50.1959V49.4762C64.5627 49.382 64.5214 49.3462 64.4554 49.3462C64.3893 49.3462 64.348 49.382 64.348 49.4762V50.1959C64.348 50.2902 64.3893 50.3259 64.4554 50.3259C64.5212 50.3261 64.5627 50.2902 64.5627 50.1959Z" fill="white"/>
<path d="M65.0643 49.3651H64.8477V49.1766H65.4883V49.3651H65.2717V50.4957H65.0645V49.3651H65.0643Z" fill="white"/>
<path d="M65.6603 49.1766H65.941L66.1557 50.4955H65.9484L65.9109 50.2336V50.2375H65.6751L65.6374 50.4955H65.4453L65.6603 49.1766ZM65.8863 50.0585L65.7941 49.4066H65.7902L65.6999 50.0585H65.8863Z" fill="white"/>
<path d="M66.2578 49.1766H66.4649V50.307H66.806V50.4955H66.2578V49.1766Z" fill="white"/>
<path d="M67.1934 50.1904V49.4819C67.1934 49.2783 67.2989 49.1579 67.4986 49.1579C67.6983 49.1579 67.8037 49.2786 67.8037 49.4819V49.6214H67.6078V49.4687C67.6078 49.382 67.5665 49.3462 67.5039 49.3462C67.4418 49.3462 67.4005 49.382 67.4005 49.4687V50.2054C67.4005 50.2921 67.4418 50.326 67.5039 50.326C67.5663 50.326 67.6078 50.2921 67.6078 50.2054V50.0038H67.8037V50.1904C67.8037 50.3939 67.6983 50.5145 67.4986 50.5145C67.2989 50.5145 67.1934 50.3939 67.1934 50.1904Z" fill="white"/>
<path d="M68.09 49.1766H68.3707L68.5854 50.4955H68.3781L68.3405 50.2336V50.2375H68.1048L68.0671 50.4955H67.875L68.09 49.1766ZM68.316 50.0585L68.2237 49.4066H68.2201L68.1296 50.0585H68.316Z" fill="white"/>
<path d="M68.6855 49.1766H68.8927V50.307H69.2338V50.4955H68.6855V49.1766Z" fill="white"/>
<path d="M60.1891 53.2945H59.5957V53.0119L60.1609 51.675H60.5001V53.0119H60.6472V53.2945H60.5001V53.6534H60.1891V53.2945ZM60.1891 53.0117V52.24H60.1836L59.8783 53.0117H60.1891Z" fill="white"/>
<path d="M60.7773 53.184V52.1442C60.7773 51.8274 60.9442 51.6466 61.2493 51.6466C61.5547 51.6466 61.7212 51.8274 61.7212 52.1442V53.184C61.7212 53.5008 61.5545 53.6816 61.2493 53.6816C60.944 53.6816 60.7773 53.5008 60.7773 53.184ZM61.4104 53.204V52.1245C61.4104 51.983 61.3483 51.9292 61.2493 51.9292C61.1503 51.9292 61.0881 51.983 61.0881 52.1245V53.204C61.0881 53.3454 61.1503 53.3992 61.2493 53.3992C61.3483 53.399 61.4104 53.3452 61.4104 53.204Z" fill="white"/>
<path d="M62.3457 52.0988H62.5528V53.2292H62.8939V53.4177H62.3457V52.0988Z" fill="white"/>
<path d="M63.162 52.0988H63.4427L63.6575 53.4177H63.4501L63.4126 53.1558V53.1595H63.1771L63.1393 53.4177H62.9473L63.162 52.0988ZM63.388 52.9807L63.2958 52.3288H63.292L63.2017 52.9807H63.388Z" fill="white"/>
<path d="M63.7578 52.0988H64.0629C64.2702 52.0988 64.372 52.2137 64.372 52.4247V52.5546C64.372 52.7656 64.2702 52.8807 64.0629 52.8807H63.9649V53.4175H63.7578V52.0988ZM64.0629 52.6924C64.129 52.6924 64.1646 52.6623 64.1646 52.568V52.4117C64.1646 52.3176 64.129 52.2873 64.0629 52.2873H63.9649V52.6924H64.0629Z" fill="white"/>
<path d="M64.457 53.1049V53.0295H64.6531V53.12C64.6531 53.2143 64.6945 53.2483 64.7604 53.2483C64.8263 53.2483 64.8679 53.2143 64.8679 53.1164C64.8679 53.007 64.8266 52.9373 64.6907 52.8185C64.5175 52.6659 64.4606 52.5588 64.4606 52.4077C64.4606 52.2006 64.5681 52.0799 64.7697 52.0799C64.9713 52.0799 65.0712 52.2006 65.0712 52.4115V52.466H64.8753V52.3983C64.8753 52.304 64.8376 52.2684 64.7714 52.2684C64.7057 52.2684 64.668 52.304 64.668 52.3945C64.668 52.4908 64.7112 52.5605 64.8469 52.6792C65.0201 52.8319 65.075 52.9373 65.075 53.1013C65.075 53.3161 64.9656 53.4367 64.7621 53.4367C64.5588 53.4365 64.457 53.3161 64.457 53.1049Z" fill="white"/>
<path d="M70.1076 41.6589C70.0384 41.6589 69.9744 41.6775 69.9174 41.7078C69.9394 41.6478 69.9532 41.5838 69.9532 41.5162C69.9532 41.2069 69.7024 40.9561 69.3931 40.9561C69.0838 40.9561 68.833 41.2069 68.833 41.5162C68.833 41.5859 68.8472 41.6519 68.8705 41.7136C68.811 41.6799 68.7431 41.6591 68.6698 41.6591C68.4434 41.6591 68.2598 41.8427 68.2598 42.0691C68.2598 42.2955 68.4434 42.4791 68.6698 42.4791C68.8962 42.4791 69.8809 42.4791 70.1073 42.4791C70.3338 42.4791 70.5174 42.2955 70.5174 42.0691C70.5176 41.8425 70.334 41.6589 70.1076 41.6589Z" stroke="white" stroke-miterlimit="10" stroke-linecap="round" stroke-linejoin="round"/>
<path d="M70.6591 41.2319C70.7643 41.2319 70.8495 41.1467 70.8495 41.0415C70.8495 40.9364 70.7643 40.8512 70.6591 40.8512C70.554 40.8512 70.4688 40.9364 70.4688 41.0415C70.4688 41.1467 70.554 41.2319 70.6591 41.2319Z" stroke="white" stroke-miterlimit="10" stroke-linecap="round" stroke-linejoin="round"/>
<path d="M70.6582 41.4221V41.6481" stroke="white" stroke-miterlimit="10" stroke-linecap="round" stroke-linejoin="round"/>
<path d="M70.6582 40.435V40.661" stroke="white" stroke-miterlimit="10" stroke-linecap="round" stroke-linejoin="round"/>
<path d="M70.2785 41.0415H70.0527" stroke="white" stroke-miterlimit="10" stroke-linecap="round" stroke-linejoin="round"/>
<path d="M71.2648 41.0415H71.0391" stroke="white" stroke-miterlimit="10" stroke-linecap="round" stroke-linejoin="round"/>
<path d="M70.3901 41.3105L70.2305 41.4704" stroke="white" stroke-miterlimit="10" stroke-linecap="round" stroke-linejoin="round"/>
<path d="M71.0874 40.6126L70.9277 40.7725" stroke="white" stroke-miterlimit="10" stroke-linecap="round" stroke-linejoin="round"/>
<path d="M70.3903 40.7725L70.2305 40.6126" stroke="white" stroke-miterlimit="10" stroke-linecap="round" stroke-linejoin="round"/>
<path d="M71.0874 41.4704L70.9277 41.3108" stroke="white" stroke-miterlimit="10" stroke-linecap="round" stroke-linejoin="round"/>
<path d="M91.8367 37.9741H84.156C83.0565 37.9741 82.1621 38.8685 82.1621 39.9677V45.6527L79.6758 46.9012L82.1621 47.5626V50.385C82.1621 51.4844 83.0565 52.3786 84.156 52.3786H91.8367C92.9362 52.3786 93.8306 51.4842 93.8306 50.385V39.9679C93.8306 38.8685 92.9362 37.9741 91.8367 37.9741Z" fill="white" stroke="#263238" stroke-width="0.2" stroke-miterlimit="10" stroke-linecap="round" stroke-linejoin="round"/>
<path d="M89.6948 48.2215C89.6948 49.1598 88.9342 49.9205 87.9958 49.9205C87.0575 49.9205 86.2969 49.1598 86.2969 48.2215C86.2969 47.2832 87.0575 46.5225 87.9958 46.5225C88.9342 46.5225 89.6948 47.2832 89.6948 48.2215Z" fill="#92E3A9" stroke="#263238" stroke-width="0.2" stroke-miterlimit="10" stroke-linecap="round" stroke-linejoin="round"/>
<path d="M85.5299 48.2215C85.5299 48.9291 84.9562 49.503 84.2483 49.503C83.5407 49.503 82.9668 48.9294 82.9668 48.2215C82.9668 47.5138 83.5405 46.9399 84.2483 46.9399C84.9562 46.9399 85.5299 47.5136 85.5299 48.2215Z" fill="#263238" stroke="#263238" stroke-width="0.2" stroke-miterlimit="10" stroke-linecap="round" stroke-linejoin="round"/>
<path d="M93.0258 48.2215C93.0258 48.9291 92.4521 49.503 91.7444 49.503C91.0368 49.503 90.4629 48.9294 90.4629 48.2215C90.4629 47.5138 91.0366 46.9399 91.7444 46.9399C92.4521 46.9399 93.0258 47.5136 93.0258 48.2215Z" fill="#263238" stroke="#263238" stroke-width="0.2" stroke-miterlimit="10" stroke-linecap="round" stroke-linejoin="round"/>
<path d="M84.9079 48.1829C84.9137 48.0752 84.7462 48.0754 84.7404 48.1829C84.7381 48.2238 84.7313 48.2613 84.7218 48.2965C84.714 48.3258 84.7214 48.3569 84.7428 48.3784C84.7875 48.4231 84.8645 48.4038 84.8814 48.343C84.8958 48.2917 84.905 48.238 84.9079 48.1829Z" fill="white"/>
<path d="M84.2734 47.562C84.3825 47.5798 84.4601 47.679 84.4601 47.7896V48.0809C84.4601 48.0913 84.4644 48.1015 84.4716 48.1087L84.5331 48.1702C84.557 48.1941 84.5996 48.1782 84.5996 48.1441V48.1433V47.7928C84.5996 47.6056 84.4623 47.4415 84.2761 47.4216C84.1616 47.4093 84.0578 47.4515 83.9844 47.5246C83.9575 47.5516 83.9588 47.5957 83.9857 47.6226C84.0124 47.6493 84.0569 47.6504 84.0834 47.6236C84.1307 47.5762 84.1981 47.5499 84.2734 47.562Z" fill="white"/>
<path d="M84.9064 48.746L83.7137 47.553C83.6864 47.5257 83.6421 47.5257 83.6149 47.553C83.5878 47.5804 83.5878 47.6245 83.6149 47.6518L83.8753 47.9122V48.1295C83.8753 48.3052 83.995 48.4632 84.1674 48.4984C84.2605 48.5172 84.3465 48.4973 84.4186 48.4555L84.5365 48.5734C84.2503 48.7769 83.761 48.6476 83.736 48.1827C83.7303 48.0754 83.5628 48.0748 83.5685 48.1827C83.5842 48.4721 83.7625 48.725 84.0262 48.8149V48.9376C84.0262 48.9849 84.0646 49.0233 84.1119 49.0233H84.3637C84.411 49.0233 84.4494 48.9849 84.4494 48.9376V48.8138C84.5272 48.7871 84.5959 48.7451 84.6565 48.6936L84.8074 48.8445C84.8348 48.8719 84.8789 48.8717 84.9062 48.8445C84.9338 48.8174 84.9338 48.7733 84.9064 48.746ZM84.2378 48.3663C84.1148 48.3663 84.0148 48.2664 84.0148 48.1432V48.0519L84.3137 48.3508C84.2899 48.3595 84.2647 48.3663 84.2378 48.3663Z" fill="white"/>
<path d="M88.9095 48.0886C88.479 47.789 87.5824 47.789 87.1207 48.0886C86.956 48.1189 86.8237 48.2624 86.8145 48.4339C86.8044 48.6275 87.6087 48.6275 87.6189 48.4339C87.6233 48.3504 87.5966 48.2745 87.5506 48.2141C87.8442 48.1492 88.1794 48.1492 88.4662 48.2141C88.4141 48.2745 88.3793 48.3504 88.3749 48.4339C88.3647 48.6275 89.169 48.6275 89.1792 48.4339C89.1883 48.2622 89.0711 48.1189 88.9095 48.0886Z" fill="#263238"/>
<path d="M91.9899 48.2215C91.9899 48.3574 91.8799 48.4674 91.744 48.4674C91.6081 48.4674 91.498 48.3574 91.498 48.2215C91.498 48.0858 91.6081 47.9756 91.744 47.9756C91.8796 47.9756 91.9899 48.0856 91.9899 48.2215Z" fill="white"/>
<path d="M92.6891 48.2215C92.6891 48.3574 92.5791 48.4674 92.4432 48.4674C92.3073 48.4674 92.1973 48.3574 92.1973 48.2215C92.1973 48.0858 92.3073 47.9756 92.4432 47.9756C92.5791 47.9756 92.6891 48.0856 92.6891 48.2215Z" fill="white"/>
<path d="M91.2907 48.2215C91.2907 48.3574 91.1806 48.4674 91.0447 48.4674C90.9089 48.4674 90.7988 48.3574 90.7988 48.2215C90.7988 48.0858 90.9089 47.9756 91.0447 47.9756C91.1806 47.9756 91.2907 48.0856 91.2907 48.2215Z" fill="white"/>
<path d="M83.0195 43.0608V42.7315C83.0592 42.7413 83.0986 42.7447 83.1383 42.7447C83.283 42.7447 83.3522 42.6756 83.3522 42.524V40.7561H83.7143V42.5142C83.7143 42.8927 83.543 43.0739 83.1874 43.0739C83.1217 43.0739 83.0723 43.0708 83.0195 43.0608Z" fill="#263238"/>
<path d="M83.9492 42.5142V41.3027C83.9492 40.934 84.1436 40.7233 84.4989 40.7233C84.8547 40.7233 85.0487 40.934 85.0487 41.3027V42.5142C85.0487 42.8829 84.8547 43.0936 84.4989 43.0936C84.1436 43.0936 83.9492 42.8831 83.9492 42.5142ZM84.6868 42.5373V41.2798C84.6868 41.1153 84.6145 41.0525 84.4992 41.0525C84.3838 41.0525 84.3115 41.115 84.3115 41.2798V42.5373C84.3115 42.7019 84.3838 42.7644 84.4992 42.7644C84.6143 42.7644 84.6868 42.7019 84.6868 42.5373Z" fill="#263238"/>
<path d="M85.293 40.7561H85.6548V41.6944H86.0434V40.7561H86.4055V43.0606H86.0434V42.0237H85.6548V43.0606H85.293V40.7561Z" fill="#263238"/>
<path d="M86.6758 40.7561H87.1299L87.4822 42.1356H87.489V40.7561H87.8117V43.0606H87.4396L87.005 41.3784H86.9982V43.0606H86.6758V40.7561Z" fill="#263238"/>
<path d="M83.041 44.7913V43.966C83.041 43.729 83.164 43.5887 83.3968 43.5887C83.6295 43.5887 83.7523 43.7292 83.7523 43.966V44.1284H83.5242V43.9508C83.5242 43.8496 83.4758 43.8081 83.4033 43.8081C83.331 43.8081 83.2827 43.8496 83.2827 43.9508V44.8087C83.2827 44.9098 83.331 44.9493 83.4033 44.9493C83.476 44.9493 83.5242 44.9098 83.5242 44.8087V44.5738H83.7523V44.7911C83.7523 45.0281 83.6295 45.1687 83.3968 45.1687C83.1642 45.1689 83.041 45.0283 83.041 44.7913Z" fill="#263238"/>
<path d="M84.0841 43.6107H84.4113L84.6614 45.1471H84.4199L84.3763 44.842V44.8465H84.1017L84.0579 45.1471H83.834L84.0841 43.6107ZM84.3472 44.6376L84.2398 43.8783H84.2355L84.1301 44.6376H84.3472Z" fill="#263238"/>
<path d="M84.7793 43.6107H85.0206V44.9274H85.4178V45.1469H84.7793V43.6107Z" fill="#263238"/>
<path d="M85.5332 43.6107H85.7745V44.9274H86.1717V45.1469H85.5332V43.6107Z" fill="#263238"/>
<path d="M86.2891 43.6107H86.5303V45.1471H86.2891V43.6107Z" fill="#263238"/>
<path d="M86.7109 43.6107H87.0139L87.2488 44.5304H87.253V43.6107H87.468V45.1471H87.2199L86.9301 44.0256H86.9259V45.1471H86.7109V43.6107Z" fill="#263238"/>
<path d="M87.6309 44.7826V43.9749C87.6309 43.729 87.7538 43.5887 87.9908 43.5887C88.2279 43.5887 88.3508 43.7292 88.3508 43.9749V44.1066H88.1225V43.9594C88.1225 43.8496 88.0742 43.8081 87.9976 43.8081C87.9207 43.8081 87.8723 43.8496 87.8723 43.9594V44.8C87.8723 44.9098 87.9207 44.9493 87.9976 44.9493C88.0744 44.9493 88.1225 44.9098 88.1225 44.8V44.4992H88.0019V44.2798H88.3508V44.7824C88.3508 45.0283 88.2279 45.1687 87.9908 45.1687C87.754 45.1689 87.6309 45.0283 87.6309 44.7826Z" fill="#263238"/>
<path d="M88.5078 44.9143H88.7406V45.1469H88.5078V44.9143Z" fill="#263238"/>
<path d="M88.9199 44.9143H89.1527V45.1469H88.9199V44.9143Z" fill="#263238"/>
<path d="M89.334 44.9143H89.5668V45.1469H89.334V44.9143Z" fill="#263238"/>
<path d="M91.1844 41.0084L90.6131 41.5094H90.1028L90.0898 42.245H90.6001L91.1539 42.746C91.2016 42.7892 91.273 42.7498 91.2743 42.6796L91.3023 41.075C91.3038 41.0046 91.2336 40.9652 91.1844 41.0084Z" fill="#263238"/>
<path d="M91.6127 41.3906C91.8703 41.6751 91.8635 42.0784 91.5958 42.3635C91.5044 42.4608 91.6471 42.6067 91.7389 42.5091C92.0849 42.1409 92.0942 41.6134 91.7609 41.2452C91.6725 41.1475 91.5248 41.2933 91.6127 41.3906Z" fill="#263238"/>
<path d="M91.8949 40.8657C92.4302 41.4572 92.4164 42.2961 91.8595 42.8886C91.7681 42.9859 91.9108 43.1318 92.0026 43.0343C92.6364 42.3599 92.6532 41.3947 92.043 40.7203C91.9546 40.6226 91.8069 40.7684 91.8949 40.8657Z" fill="#263238"/>
<path d="M56.7386 26.6993H57.9245L58.8796 28.6469L59.2056 26.6993H61.9234C62.6657 26.6993 63.2694 26.0955 63.2694 25.3535V18.3213C63.2694 17.5791 62.6657 16.9753 61.9234 16.9753H56.7386C55.9964 16.9753 55.3926 17.5791 55.3926 18.3213V25.3535C55.3926 26.0955 55.9964 26.6993 56.7386 26.6993Z" fill="white" stroke="#263238" stroke-width="0.2" stroke-miterlimit="10" stroke-linecap="round" stroke-linejoin="round"/>
<path d="M62.063 20.0177H56.2402V24.4701H62.063V20.0177Z" fill="#DFF000" stroke="#263238" stroke-width="0.2" stroke-miterlimit="10" stroke-linecap="round" stroke-linejoin="round"/>
<path d="M59.9606 22.4915L62.0628 24.4701H56.2402L58.3681 22.4676" stroke="#263238" stroke-width="0.2" stroke-miterlimit="10" stroke-linecap="round" stroke-linejoin="round"/>
<path d="M59.1516 22.7574L56.2402 20.0177H62.0628L59.1516 22.7574Z" fill="#DFF000" stroke="#263238" stroke-width="0.2" stroke-miterlimit="10" stroke-linecap="round" stroke-linejoin="round"/>
<path d="M61.9662 19.0912C61.7966 19.0912 61.2093 19.0912 61.0397 19.0912C60.528 19.0912 60.1133 19.5061 60.1133 20.0177C60.1133 20.5295 60.5282 20.9441 61.0397 20.9441C61.2093 20.9441 61.7966 20.9441 61.9662 20.9441C62.4779 20.9441 62.8926 20.5292 62.8926 20.0177C62.8926 19.5059 62.4777 19.0912 61.9662 19.0912Z" fill="#263238" stroke="#263238" stroke-width="0.2" stroke-miterlimit="10" stroke-linecap="round" stroke-linejoin="round"/>
<path d="M61.0218 19.6295H60.7793V19.4648C60.9754 19.4648 61.0449 19.4226 61.0977 19.2793H61.2538V20.7557H61.0218V19.6295Z" fill="white"/>
<path d="M61.5234 20.4056V19.6295C61.5234 19.3931 61.6477 19.2581 61.8756 19.2581C62.1035 19.2581 62.2279 19.3931 62.2279 19.6295V20.4056C62.2279 20.642 62.1035 20.7769 61.8756 20.7769C61.6477 20.7771 61.5234 20.642 61.5234 20.4056ZM61.996 20.4205V19.6147C61.996 19.5091 61.9496 19.4692 61.8756 19.4692C61.8018 19.4692 61.7554 19.5093 61.7554 19.6147V20.4205C61.7554 20.5258 61.8018 20.5659 61.8756 20.5659C61.9493 20.5661 61.996 20.5258 61.996 20.4205Z" fill="white"/>
<path d="M57.3563 60.6704H55.8481L56.2829 58.1934L54.2189 60.6704H50.7625C49.8186 60.6704 49.0508 61.438 49.0508 62.3818V71.3248C49.0508 72.2687 49.8186 73.0365 50.7625 73.0365H57.3563C58.3001 73.0365 59.068 72.2687 59.068 71.3248V62.3818C59.068 61.438 58.3001 60.6704 57.3563 60.6704Z" fill="white" stroke="#263238" stroke-width="0.2" stroke-miterlimit="10" stroke-linecap="round" stroke-linejoin="round"/>
<path d="M51.2546 66.3583C50.6027 65.7185 50.3203 65.0185 50.3203 64.3908C50.3203 63.3214 51.0337 62.6078 52.1151 62.6078C53.1244 62.6078 53.4683 63.0749 54.0587 63.751C54.6489 63.0751 54.993 62.6078 56.0023 62.6078C57.0837 62.6078 57.7971 63.3212 57.7971 64.3908C57.7971 65.0185 57.5147 65.7185 56.8628 66.3583L54.374 68.8366C54.1997 69.0102 53.9177 69.0102 53.7435 68.8366L51.2546 66.3583Z" fill="#92E3A9" stroke="#263238" stroke-width="0.2" stroke-miterlimit="10"/>
<path d="M51.3789 65.6727H52.6507L53.3251 63.7702L54.6738 67.5754L55.348 65.6727H56.7393" stroke="#263238" stroke-width="0.2" stroke-miterlimit="10" stroke-linecap="round" stroke-linejoin="round"/>
<path d="M51.4824 71.3291V71.1627C51.4824 70.9829 51.5363 70.8515 51.6758 70.779V70.7737C51.5522 70.7067 51.4932 70.5886 51.4932 70.4035V70.3257C51.4932 70.0251 51.6569 69.8614 51.9437 69.8614C52.2308 69.8614 52.3944 70.0251 52.3944 70.3257V70.4035C52.3944 70.5886 52.3325 70.7067 52.2119 70.7737V70.779C52.3514 70.8515 52.405 70.9829 52.405 71.1627V71.3291C52.405 71.6297 52.2414 71.7932 51.9437 71.7932C51.6461 71.7934 51.4824 71.6297 51.4824 71.3291ZM52.1104 71.313V71.1332C52.1104 70.991 52.054 70.9212 51.9439 70.9212C51.8339 70.9212 51.7777 70.991 51.7777 71.1332V71.313C51.7777 71.4552 51.8339 71.525 51.9439 71.525C52.054 71.525 52.1104 71.4552 52.1104 71.313ZM52.0996 70.4654V70.3179C52.0996 70.1943 52.0459 70.13 51.9439 70.13C51.842 70.13 51.7883 70.1943 51.7883 70.3179V70.4654C51.7883 70.5888 51.842 70.6532 51.9439 70.6532C52.0459 70.6532 52.0996 70.5888 52.0996 70.4654Z" fill="#263238"/>
<path d="M53.1678 70.1569H52.5723V69.8888H53.4576V70.1463L52.9963 71.7664H52.6956L53.1678 70.1569Z" fill="#263238"/>
<path d="M54.0586 70.3077H54.3647C54.575 70.3077 54.6656 70.4054 54.6656 70.6047V70.6562C54.6656 70.7889 54.6248 70.872 54.5345 70.9089V70.9125C54.6433 70.9494 54.6857 71.0452 54.6857 71.1818V71.2924C54.6857 71.4917 54.5805 71.5988 54.3777 71.5988H54.0586V70.3077ZM54.3408 70.8334C54.4164 70.8334 54.4625 70.8002 54.4625 70.6967V70.6248C54.4625 70.5326 54.4311 70.4921 54.3592 70.4921H54.2615V70.8334H54.3408ZM54.3777 71.4143C54.4459 71.4143 54.4828 71.3829 54.4828 71.2871V71.1745C54.4828 71.0546 54.4442 71.0179 54.3518 71.0179H54.2613V71.4143H54.3777Z" fill="#263238"/>
<path d="M54.8027 70.3077H55.1014C55.3043 70.3077 55.404 70.4202 55.404 70.6269V70.7541C55.404 70.9608 55.3043 71.0734 55.1014 71.0734H55.0054V71.599H54.8027V70.3077ZM55.1014 70.8888C55.1661 70.8888 55.2011 70.8593 55.2011 70.7671V70.614C55.2011 70.5218 55.1661 70.4923 55.1014 70.4923H55.0054V70.8888H55.1014Z" fill="#263238"/>
<path d="M55.5156 70.3077H55.805L55.9341 71.2318H55.9377L56.0668 70.3077H56.3566V71.599H56.1648V70.6214H56.1612L56.0136 71.599H55.8438L55.6963 70.6214H55.6926V71.599H55.5156V70.3077Z" fill="#263238"/>
<path d="M53.2427 47.0706C53.2427 47.0706 52.7625 48.3208 53.2427 48.5207C53.7229 48.7206 53.8297 47.5993 53.9898 47.6349L53.2427 47.0706Z" fill="white" stroke="#263238" stroke-width="0.2" stroke-miterlimit="10" stroke-linecap="round" stroke-linejoin="round"/>
<path d="M55.7515 45.5045C55.7515 45.5045 58.6865 44.6955 58.6865 43.3786C58.6865 41.9951 56.9549 41.079 56.1976 40.8429C55.3943 40.5923 54.1656 40.0441 52.9998 39.4354C51.834 38.827 51.1486 38.5866 50.5501 38.2368C49.5429 37.648 48.1569 36.6448 46.7695 35.9448L47.6394 41.4125C47.6394 41.4125 52.5234 44.0121 54.3776 43.8787C54.3776 43.8787 53.2512 44.7704 53.0339 45.0954L55.7515 45.5045Z" fill="white" stroke="#263238" stroke-width="0.2" stroke-miterlimit="10" stroke-linecap="round" stroke-linejoin="round"/>
<path d="M54.3516 43.512C54.6045 43.1952 54.6668 42.2453 55.4315 42.0451" stroke="#263238" stroke-width="0.2" stroke-miterlimit="10" stroke-linecap="round" stroke-linejoin="round"/>
<path d="M55.0035 43.5119C55.0035 43.5119 56.2308 42.8119 56.8 44.0619C57.3693 45.312 56.1776 45.7621 56.1776 45.7621L53.652 46.05C53.652 46.05 52.4447 44.5561 53.99 43.9453L55.0035 43.5119Z" fill="#DFF000" stroke="#263238" stroke-width="0.2" stroke-miterlimit="10" stroke-linecap="round" stroke-linejoin="round"/>
<path d="M51.8982 38.8942C51.3468 38.6379 50.9302 38.4589 50.5501 38.2368C49.5429 37.648 48.1569 36.6448 46.7695 35.9448L47.6394 41.4125C47.6394 41.4125 49.2334 42.2607 50.9459 42.9633C51.7992 41.0087 51.9141 39.5944 51.8982 38.8942Z" fill="#DFF000" stroke="#263238" stroke-width="0.2" stroke-miterlimit="10" stroke-linecap="round" stroke-linejoin="round"/>
<path d="M55.5912 43.7454C54.9037 43.9614 53.0033 44.5204 53.03 45.0205C53.03 45.0205 52.4432 45.1706 52.5231 45.8457C52.6032 46.5207 52.8165 47.1456 53.1366 47.3958C53.4568 47.6457 54.4973 48.671 54.7107 48.3458C54.9242 48.0208 54.4705 47.6351 54.4705 47.6351C54.4705 47.6351 55.0841 48.1959 55.4044 47.9209C55.7245 47.646 54.8708 46.9707 54.6573 46.6708C54.6573 46.6708 55.6444 47.3793 55.9647 47.0208C56.2117 46.7443 55.9647 46.4456 55.9647 46.4456C55.9647 46.4456 56.4277 46.6271 56.588 46.1957C56.6808 45.9457 56.2848 45.6705 56.2848 45.6705C56.2848 45.6705 56.8061 44.8955 56.6522 44.4704C56.4981 44.0453 56.3077 43.5202 55.5912 43.7454Z" fill="white" stroke="#263238" stroke-width="0.2" stroke-miterlimit="10" stroke-linecap="round" stroke-linejoin="round"/>
<path d="M53.0039 45.5955C53.0039 45.5955 53.164 45.7545 53.2706 46.05C53.3772 46.3455 53.6441 46.9741 54.4712 47.6349" stroke="#263238" stroke-width="0.2" stroke-miterlimit="10" stroke-linecap="round" stroke-linejoin="round"/>
<path d="M53.7383 45.2205C53.7383 45.2205 53.8583 45.3455 53.9384 45.5955C54.0185 45.8454 54.3073 46.2828 54.6588 46.6705" stroke="#263238" stroke-width="0.2" stroke-miterlimit="10" stroke-linecap="round" stroke-linejoin="round"/>
<path d="M54.7902 44.6956C54.7902 44.6956 54.71 44.9705 54.9502 45.4206C55.1904 45.8707 55.2169 45.9705 55.5373 46.1957" stroke="#263238" stroke-width="0.2" stroke-miterlimit="10" stroke-linecap="round" stroke-linejoin="round"/>
<path d="M56.0723 45.4706C56.0723 45.4706 55.6987 44.9455 55.7788 44.6956" stroke="#263238" stroke-width="0.2" stroke-miterlimit="10" stroke-linecap="round" stroke-linejoin="round"/>
<path d="M55.0676 43.8317L54.1755 44.1971C53.9851 44.2752 53.7634 44.1937 53.6801 44.0152C53.5968 43.8367 53.6837 43.629 53.8741 43.551L54.7662 43.1855C54.9565 43.1075 55.1783 43.1889 55.2616 43.3672C55.3449 43.5459 55.258 43.7536 55.0676 43.8317Z" fill="#999999" stroke="#263238" stroke-width="0.2" stroke-miterlimit="10" stroke-linecap="round" stroke-linejoin="round"/>
<path d="M45.1875 58.4467C45.1875 58.4467 45.8278 65.4474 42.9465 74.998C42.9465 74.998 42.733 76.9982 41.8258 78.6982C41.8258 78.6982 41.2922 89.199 41.8793 93.4994L39.6382 94.6495L37.8773 93.9995C37.8773 93.9995 38.571 91.8494 37.5572 87.7489C36.5434 83.6486 36.1165 80.2484 37.1837 78.3982C38.2509 76.5481 36.7567 72.8479 36.5167 67.3473L36.1165 62.7382C36.1165 62.7382 31.9545 56.4465 37.0768 53.5461L45.5676 57.431L45.1875 58.4467Z" fill="white" stroke="#263238" stroke-width="0.2" stroke-miterlimit="10" stroke-linecap="round" stroke-linejoin="round"/>
<path d="M37.7623 93.3385C38.0775 93.1766 38.6847 93.5603 38.9213 94.1365C39.1579 94.7129 41.05 92.9838 41.4757 93.3385C41.9014 93.6932 41.2156 92.3631 41.9724 92.2524C42.7292 92.1416 42.5548 93.2942 43.6472 93.937C44.7396 94.5798 49.1628 95.0674 49.1863 96.4195C49.1997 97.1823 45.2618 97.1036 41.8304 97.0481C39.1787 97.0053 36.9198 97.1115 36.8397 96.7519C36.7417 96.3131 37.0063 95.6444 37.1295 95.0093C37.2738 94.265 37.3177 93.5668 37.7623 93.3385Z" fill="#4E4E4E" stroke="#263238" stroke-width="0.2" stroke-miterlimit="10" stroke-linecap="round" stroke-linejoin="round"/>
<path d="M49.1862 96.4195C49.1995 97.1823 45.2616 97.1036 41.8302 97.0481C39.1785 97.0052 36.9196 97.1115 36.8395 96.7519C36.8395 96.7519 36.7685 97.3061 36.9813 97.5499C36.9813 97.5499 38.1876 97.838 41.2389 97.7051C44.29 97.5721 44.4321 97.9525 48.0982 97.7403C48.0982 97.7403 49.47 97.5499 49.1862 96.4195Z" fill="white" stroke="#263238" stroke-width="0.2" stroke-miterlimit="10" stroke-linecap="round" stroke-linejoin="round"/>
<path d="M37.0769 53.5461C31.9545 56.4463 36.1163 62.7382 36.1163 62.7382L36.5166 67.3473C36.5789 68.7736 36.7256 70.0777 36.8899 71.261C39.9383 71.8915 42.7672 71.5992 43.8948 71.4334C45.6718 63.7556 45.1872 58.4465 45.1872 58.4465L45.5675 57.431L37.0769 53.5461Z" fill="#455A64"/>
<mask id="mask1_506_121" style="mask-type:luminance" maskUnits="userSpaceOnUse" x="34" y="53" width="12" height="19">
<path d="M37.0769 53.5461C31.9545 56.4463 36.1163 62.7382 36.1163 62.7382L36.5166 67.3473C36.5789 68.7736 36.7256 70.0777 36.8899 71.261C39.9383 71.8915 42.7672 71.5992 43.8948 71.4334C45.6718 63.7556 45.1872 58.4465 45.1872 58.4465L45.5675 57.431L37.0769 53.5461Z" fill="white"/>
</mask>
<g mask="url(#mask1_506_121)">
<path opacity="0.2" d="M45.1875 58.4467C45.1875 58.4467 45.0998 63.7185 43.0023 65.2354C40.9047 66.7522 39.7852 72.879 36.8182 74.9999C33.8513 77.1207 36.4101 64.3367 36.4101 64.3367L37.246 59.0002L40.4922 57.3263L43.6582 57.562L45.1875 58.4467Z" fill="black"/>
</g>
<path d="M37.0769 53.5461C31.9545 56.4463 36.1163 62.7382 36.1163 62.7382L36.5166 67.3473C36.5789 68.7736 36.7256 70.0777 36.8899 71.261C39.9383 71.8915 42.7672 71.5992 43.8948 71.4334C45.6718 63.7556 45.1872 58.4465 45.1872 58.4465L45.5675 57.431L37.0769 53.5461Z" stroke="#263238" stroke-width="0.2" stroke-miterlimit="10" stroke-linecap="round" stroke-linejoin="round"/>
<path d="M39.7988 77.7983C39.7988 77.7983 40.1724 78.3985 41.1862 78.7983" stroke="#263238" stroke-width="0.2" stroke-miterlimit="10" stroke-linecap="round" stroke-linejoin="round"/>
<path d="M46.1477 57.6967C46.1477 57.6967 45.1275 59.038 44.9204 59.5468C44.4209 60.7739 43.9853 63.7009 42.231 64.7196C41.8931 64.9157 41.6153 65.1898 41.4623 65.5335C40.6155 67.4343 37.8243 73.4309 35.3692 75.6482C32.4345 78.2984 29.4997 76.2482 28.8595 74.6482C28.2193 73.048 28.2676 71.5335 28.0058 69.5477C27.5854 66.3592 27.3655 59.2969 26.6719 56.5966C26.6719 56.5966 29.0196 55.6965 29.8733 57.0967C29.8733 57.0967 32.3278 63.0471 32.5413 65.5975C32.5413 65.5975 33.235 63.3974 33.235 61.3471C33.235 59.2969 32.3278 55.5466 37.0768 53.5466L46.1477 57.6967Z" fill="white" stroke="#263238" stroke-width="0.2" stroke-miterlimit="10" stroke-linecap="round" stroke-linejoin="round"/>
<path d="M46.1487 57.6967L37.0778 53.5464C32.329 55.5466 33.2359 59.2969 33.2359 61.3469C33.2359 62.8532 32.8618 64.4396 32.6631 65.1756C32.7193 66.1898 32.7653 67.7616 32.5957 68.7476C32.5957 68.7476 35.672 70.7557 38.1802 71.9304C39.6604 69.476 40.9373 66.7143 41.4632 65.5335C41.6163 65.1898 41.894 64.9157 42.232 64.7196C43.9863 63.7009 44.4217 60.7741 44.9214 59.5468C45.1285 59.0378 46.1487 57.6967 46.1487 57.6967Z" fill="#455A64" stroke="#263238" stroke-width="0.2" stroke-miterlimit="10" stroke-linecap="round" stroke-linejoin="round"/>
<path d="M32.5952 69.3475C32.5952 69.3475 32.3818 71.3478 31.4746 72.5979" stroke="#263238" stroke-width="0.2" stroke-miterlimit="10" stroke-linecap="round" stroke-linejoin="round"/>
<path d="M30.9414 76.098C30.9414 76.098 31.5284 75.398 32.5954 75.2479" stroke="#263238" stroke-width="0.2" stroke-miterlimit="10" stroke-linecap="round" stroke-linejoin="round"/>
<path d="M30.7033 58.9905C30.3444 58.9169 29.7245 58.4395 29.9551 57.8465C30.1858 57.2538 27.7028 57.3954 27.6288 56.8544C27.5549 56.3134 27.1306 57.9695 26.4681 57.5788C26.0306 57.3208 25.967 56.7191 26.1544 55.9998C26.2506 55.6299 26.5139 55.2288 26.3844 54.8272C26.003 53.6447 22.9447 50.4867 23.8951 49.4301C24.431 48.8342 27.4088 51.3718 30.0128 53.5733C32.0251 55.2743 33.8413 56.6133 33.6456 56.9409C33.401 57.3505 32.4669 57.4724 31.9006 57.8891C31.2666 58.3564 31.1987 59.0918 30.7033 58.9905Z" fill="#4E4E4E" stroke="#263238" stroke-width="0.2" stroke-miterlimit="10" stroke-linecap="round" stroke-linejoin="round"/>
<path d="M23.8945 49.4301C24.4305 48.8342 27.4082 51.3719 30.0122 53.5733C32.0245 55.2744 33.8407 56.6133 33.645 56.9409C33.645 56.9409 34.0966 56.5586 34.1072 56.2368C34.1072 56.2368 33.3843 55.2561 30.9382 53.4391C28.4922 51.6222 28.6554 51.2398 25.6787 49.0971C25.6787 49.0971 24.4856 48.3805 23.8945 49.4301Z" fill="white" stroke="#263238" stroke-width="0.2" stroke-miterlimit="10" stroke-linecap="round" stroke-linejoin="round"/>
<path d="M37.8246 36.6949C37.8246 36.6949 37.7712 41.5952 38.1982 45.0956C38.6251 48.5959 38.0915 50.796 36.1172 53.8463C36.1172 53.8463 40.3858 56.7965 46.2018 58.4467C46.2018 58.4467 49.7768 49.796 49.9368 46.1956C49.9368 46.1956 51.1107 42.1454 48.763 38.0949C46.4153 34.0447 43.107 33.1945 41.2927 33.8445C39.4789 34.4945 37.7339 35.559 37.8246 36.6949Z" fill="#DFF000" stroke="#263238" stroke-width="0.2" stroke-miterlimit="10" stroke-linecap="round" stroke-linejoin="round"/>
<path d="M50.1498 42.0451C49.9796 40.8327 49.5884 39.4638 48.7949 38.0949" stroke="#7F7F7F" stroke-width="0.2" stroke-linecap="round" stroke-linejoin="round"/>
<path d="M44.9803 31.0321C44.9803 31.0321 44.1959 29.457 43.9398 27.8818C43.6837 26.3067 44.7582 26.2617 44.7582 26.2617C44.7582 26.2617 44.5962 25.0917 45.9409 24.6191C47.2856 24.1466 49.2545 24.9791 50.5271 24.1915C51.7997 23.404 51.0474 24.709 51.0474 24.709C51.0474 24.709 52.352 23.6965 52.568 23.7639C52.7841 23.8314 52.2318 25.429 52.2318 25.429C52.2318 25.429 52.6399 24.7315 52.8801 24.8439C53.1203 24.9562 52.1758 26.5541 51.8797 27.4765C51.5835 28.3991 49.3745 30.4918 49.3745 30.4918L47.5017 32.7419L46.2532 32.2694L44.9803 31.0321Z" fill="#263238" stroke="#263238" stroke-width="0.2" stroke-miterlimit="10" stroke-linecap="round" stroke-linejoin="round"/>
<path d="M45.0919 31.797C45.0919 31.797 44.6437 33.8373 43.9395 34.1672C43.9395 34.1672 46.3726 37.8049 48.1334 37.3474C48.8163 37.17 47.5572 36.9274 48.9978 34.9471C50.4385 32.9671 45.348 31.4625 45.348 31.4625L45.0919 31.797Z" fill="white"/>
<mask id="mask2_506_121" style="mask-type:luminance" maskUnits="userSpaceOnUse" x="43" y="31" width="7" height="7">
<path d="M45.0919 31.797C45.0919 31.797 44.6437 33.8373 43.9395 34.1672C43.9395 34.1672 46.3726 37.8049 48.1334 37.3474C48.8163 37.17 47.5572 36.9274 48.9978 34.9471C50.4385 32.9671 45.348 31.4625 45.348 31.4625L45.0919 31.797Z" fill="white"/>
</mask>
<g mask="url(#mask2_506_121)">
<path d="M47.3452 31.9346C47.2485 32.0722 47.1198 32.0782 46.862 31.9378C46.8605 31.937 46.8593 31.9355 46.8578 31.9346H45.2031C45.3352 32.0663 45.5048 32.1755 45.7196 32.2482C45.7196 32.2482 45.8215 34.3313 47.6846 35.3129C49.5476 36.2944 50.08 36.131 50.7412 35.1642C51.4026 34.1975 51.8129 32.7773 51.9093 32.2439C51.9278 32.1415 51.9672 32.0389 52.0183 31.9344L47.3452 31.9346Z" fill="#263238" stroke="#263238" stroke-width="0.2" stroke-miterlimit="10" stroke-linecap="round" stroke-linejoin="round"/>
</g>
<path d="M45.0919 31.797C45.0919 31.797 44.6437 33.8373 43.9395 34.1672C43.9395 34.1672 46.3726 37.8049 48.1334 37.3474C48.8163 37.17 47.5572 36.9274 48.9978 34.9471C50.4385 32.9671 45.348 31.4625 45.348 31.4625L45.0919 31.797Z" stroke="#263238" stroke-width="0.2" stroke-miterlimit="10" stroke-linecap="round" stroke-linejoin="round"/>
<path d="M46.5006 30.8971C46.5006 30.8971 46.4045 30.267 45.4442 30.207C44.4838 30.147 44.4198 32.3972 45.9725 32.5772C45.9725 32.5772 46.5648 34.5874 48.6138 35.1574C50.6628 35.7275 51.1429 35.4574 51.5591 34.3773C51.9753 33.2971 52.0393 31.8271 52.0073 31.287C51.9753 30.747 52.4874 30.0868 52.2954 29.3069C52.1033 28.5267 51.8792 27.4767 51.8792 27.4767C51.8792 27.4767 51.6551 28.4968 50.6625 28.5267C49.67 28.5566 47.8133 27.8668 47.6212 28.1667C47.4291 28.4667 48.8029 29.4869 48.5483 29.7868C48.2937 30.0868 47.5892 30.6569 47.5572 31.3169C47.5252 31.977 47.5252 32.1869 47.013 32.037C46.6435 31.9289 46.5006 30.8971 46.5006 30.8971Z" fill="white" stroke="#263238" stroke-width="0.2" stroke-miterlimit="10" stroke-linecap="round" stroke-linejoin="round"/>
<path d="M51.9009 30.8405C51.8445 31.2388 52.1324 32.2272 52.2748 32.6821C52.3111 32.7981 52.2216 32.9155 52.0927 32.9198C51.8475 32.9276 51.5006 32.9569 51.3936 33.0569C51.3484 33.0991 51.3537 33.2933 51.3537 33.2933" fill="white"/>
<path d="M51.9009 30.8405C51.8445 31.2388 52.1324 32.2272 52.2748 32.6821C52.3111 32.7981 52.2216 32.9155 52.0927 32.9198C51.8475 32.9276 51.5006 32.9569 51.3936 33.0569C51.3484 33.0991 51.3537 33.2933 51.3537 33.2933" stroke="#263238" stroke-width="0.2" stroke-miterlimit="10" stroke-linecap="round" stroke-linejoin="round"/>
<path d="M50.8569 31.2781C50.834 31.4404 50.7388 31.5623 50.6443 31.5507C50.5497 31.539 50.4919 31.3978 50.5148 31.2354C50.5377 31.073 50.6328 30.9511 50.7274 30.9628C50.822 30.9747 50.88 31.1157 50.8569 31.2781Z" fill="#263238"/>
<path d="M50.0957 30.619C50.0957 30.619 50.4722 29.9571 51.218 30.4188" stroke="#263238" stroke-width="0.2" stroke-miterlimit="10" stroke-linecap="round" stroke-linejoin="round"/>
<path d="M51.1586 33.6323C51.1586 33.6323 50.7155 33.9103 49.8086 33.3586" stroke="#263238" stroke-width="0.2" stroke-miterlimit="10" stroke-linecap="round" stroke-linejoin="round"/>
<path d="M45.7019 26.603C45.7019 26.603 45.5775 25.2187 47.0227 25.3069C48.4679 25.3953 50.0782 25.896 51.819 24.5704" stroke="#7F7F7F" stroke-linecap="round" stroke-linejoin="round"/>
<path d="M52.2319 25.4292C52.2319 25.4292 51.3781 27.2123 50.2168 27.7519" stroke="#7F7F7F" stroke-linecap="round" stroke-linejoin="round"/>
<path d="M51.8176 25.1892C51.8176 25.1892 50.7294 26.603 48.2148 26.603" stroke="#7F7F7F" stroke-linecap="round" stroke-linejoin="round"/>
<path d="M25.6735 48.8815C25.6735 48.8815 28.0027 41.0436 28.6862 38.945C29.4464 36.6116 31.6875 36.6949 37.0233 34.8948C42.3591 33.0947 43.4554 33.7695 44.1416 34.4447C44.8529 35.1447 45.6674 39.0451 39.798 39.7952C33.9285 40.5452 32.5946 40.9953 32.5946 40.9953C32.5946 40.9953 30.7627 43.9122 30.0869 45.2457C29.5599 46.2855 27.8993 49.746 27.8993 49.746C27.8993 49.746 28.0315 50.5616 28.3453 51.4374C28.6955 52.4147 29.3131 53.5463 28.9663 53.5463C27.8908 53.5463 28.3771 52.6271 27.5967 52.3973C26.8166 52.1675 27.3237 53.7833 26.3841 54.8274C26.3841 54.8274 25.6046 54.8701 25.7112 54.1707C25.7112 54.1707 25.1744 54.2158 25.1227 53.3059C25.1227 53.3059 24.5348 53.2256 24.6029 52.5485C24.6029 52.5485 24.1693 52.3623 24.1668 51.8667C24.1642 51.371 24.1089 50.7149 25.6735 48.8815Z" fill="white" stroke="#263238" stroke-width="0.2" stroke-miterlimit="10" stroke-linecap="round" stroke-linejoin="round"/>
<path d="M44.1421 34.4447C43.4558 33.7695 42.3596 33.0947 37.0237 34.8948C36.1293 35.1965 35.3239 35.4445 34.5957 35.6607C34.9864 36.3977 35.8262 38.2418 35.7587 40.3684C36.7763 40.205 38.0952 40.0129 39.7982 39.7952C45.6678 39.0449 44.8533 35.1447 44.1421 34.4447Z" fill="#DFF000" stroke="#263238" stroke-width="0.2" stroke-miterlimit="10" stroke-linecap="round" stroke-linejoin="round"/>
<path d="M32.7894 39.945C32.7894 39.945 32.8901 40.5191 32.5938 40.9951" stroke="#263238" stroke-width="0.2" stroke-miterlimit="10" stroke-linecap="round" stroke-linejoin="round"/>
<path d="M44.3418 36.9194C44.4086 36.7087 44.4493 36.4994 44.469 36.2965" stroke="#7F7F7F" stroke-linecap="round" stroke-linejoin="round"/>
<path d="M38.3594 39.9451C38.7615 39.8906 39.1898 39.8342 39.6452 39.7759C42.2171 39.4473 43.5057 38.5136 44.0819 37.5094" stroke="#7F7F7F" stroke-width="0.2" stroke-linecap="round" stroke-linejoin="round"/>
<path d="M38.3086 45.8906C38.5106 47.52 38.9119 49.1247 39.5009 50.6572" stroke="#7F7F7F" stroke-width="0.2" stroke-linecap="round" stroke-linejoin="round"/>
<path d="M40.9941 41.6525C41.2736 42.6521 42.3656 43.227 43.3997 43.3152C44.4338 43.4034 45.4597 43.1267 46.4913 43.0112C47.5227 42.8957 48.6601 42.975 49.4481 43.6504" stroke="#7F7F7F" stroke-width="0.2" stroke-linecap="round" stroke-linejoin="round"/>
</svg>
