<svg width="127" height="121" viewBox="0 0 127 121" fill="none" xmlns="http://www.w3.org/2000/svg">
<path d="M63.3333 121C98.3114 121 126.667 92.6447 126.667 57.6667H0C0 92.6447 28.3553 121 63.3333 121Z" fill="#DCD7C3"/>
<ellipse cx="61.6111" cy="93.7222" rx="43.6111" ry="6.94444" fill="#C9C3A9"/>
<g clip-path="url(#clip0_506_119)">
<path d="M38.2059 33.7071C39.4358 34.253 39.8011 34.5616 40.5196 36.0927C41.2258 37.6119 43.4299 43.4987 43.4299 43.4987C43.4299 43.4987 41.652 46.003 42.0904 47.273C41.5424 46.8694 39.4236 44.9823 38.5347 43.38C37.2439 41.0538 38.2059 33.7071 38.2059 33.7071Z" fill="#DFF000"/>
<path d="M41.9442 47.2374C42.2974 47.9495 43.4664 48.1987 44.0996 47.1662C44.745 46.1217 46.6933 41.4692 46.6933 41.4692L44.6841 41.0775C44.6841 41.0775 43.028 42.3831 42.2974 44.1515C41.4937 46.098 41.9442 47.2374 41.9442 47.2374Z" fill="#DFF000"/>
<path d="M45.1096 40.8639C44.5007 41.3861 44.5251 42.478 45.3288 42.6917C46.1325 42.8934 46.5709 42.1932 46.6926 41.4692C46.8144 40.7452 45.8646 40.223 45.1096 40.8639Z" fill="#313858"/>
<path d="M37.938 31.5588C36.294 32.9356 34.5162 32.4965 33.9195 32.5321C34.3335 31.8793 34.9302 31.5232 34.3092 30.0871C33.3594 27.927 33.3228 24.6394 33.3228 24.6394L31.959 23.1558C33.3106 21.9571 35.5269 22.5624 36.4889 23.2982C38.7051 24.9836 37.7918 28.7341 37.6457 29.7073C37.5726 30.1939 37.7431 30.8586 37.938 31.5588Z" fill="#422129"/>
<path d="M34.1624 32.5677C32.4089 32.6745 30.2657 32.9593 28.9141 31.9505C29.2428 31.5944 28.8288 26.1942 29.803 24.5326C30.7893 22.871 31.9705 23.0965 31.9705 23.0965L34.9174 24.0578C34.9174 24.0578 34.9539 26.479 34.4059 29.5293C34.2111 30.6093 34.1502 31.6538 34.1624 32.5677Z" fill="#422129"/>
<path d="M32.6406 29.2326C32.6406 29.2326 32.7258 31.5826 32.1535 32.6508C31.7638 33.3866 30.3391 33.6359 30.3391 33.6359C30.3391 33.6359 30.1564 35.7247 31.435 37.8374C32.7258 39.9381 37.0974 40.947 37.0974 40.947C37.0974 40.947 38.0716 39.3091 38.6439 37.4457C39.2162 35.5705 38.9483 34.2886 38.9483 34.2886C38.9483 34.2886 36.8904 33.5884 36.3302 33.3391C34.9786 32.7457 35.2708 30.5975 35.2708 30.5975L32.6406 29.2326Z" fill="#E59782"/>
<path d="M32.3594 32.1404C33.3335 31.9149 34.3077 32.0217 35.2697 31.725C35.2454 31.3096 35.2697 30.5975 35.2697 30.5975L32.6394 29.2326C32.6394 29.2326 32.7003 30.9773 32.3594 32.1404Z" fill="#D4806A"/>
<path d="M36.5725 24.3545C36.6699 24.9599 37.1692 26.7045 37.2179 27.8202C37.2788 28.9477 36.7186 30.7162 35.9515 31.2384C35.1965 31.7487 34.1493 31.179 33.6378 30.8348C32.7124 30.2177 32.0183 29.3869 31.8113 28.7341C31.6042 28.0694 31.4703 26.8232 31.7017 25.5652C31.933 24.3071 32.7489 23.7967 33.6865 23.6187C34.6364 23.4407 36.5725 24.3545 36.5725 24.3545Z" fill="#E59782"/>
<path d="M34.7957 23.0134C35.8307 22.9303 36.7562 24.1765 36.7562 24.1765L37.1824 25.9687C37.1824 25.9687 34.7469 26.1467 34.4303 25.7551C34.2111 25.4821 34.7348 24.4376 32.9569 23.4644C32.8838 22.954 35.027 23.4763 34.7957 23.0134Z" fill="#422129"/>
<path d="M35.2456 57.5157C34.8924 60.4235 33.8574 67.9245 33.2607 70.6543C32.6762 73.3722 31.9334 84.5406 31.8238 85.9412C31.702 87.3535 31.9334 90.9141 32.4083 91.4838C32.8832 92.0417 33.5895 93.9525 33.5895 93.9525H29.912C29.912 93.9525 30.2529 91.7568 29.778 88.3861C29.3031 85.0035 28.1585 79.3303 28.6334 74.749C29.0961 70.1795 28.0367 64.2452 27.6836 61.3018C27.3304 58.3583 28.8039 54.7028 28.8039 54.7028L35.2456 57.5157Z" fill="#E59782"/>
<path d="M40.4338 57.5157C40.0807 60.4235 40.4947 67.9245 39.898 70.6543C39.3135 73.3722 38.2419 84.5407 38.1323 85.9412C38.0105 87.3535 38.2419 90.9141 38.7168 91.4838C39.1917 92.0417 41.4445 93.2285 41.4445 93.2285L39.3744 93.454L37.6696 92.7657L36.0866 93.1692C36.0866 93.1692 36.5615 91.7568 36.0866 88.3861C35.6116 85.0035 34.7227 80.6833 34.9784 74.749C35.1733 70.1677 33.2249 64.2452 32.8718 61.3018C32.5187 58.3583 32.8718 54.7028 32.8718 54.7028L40.4338 57.5157Z" fill="#E59782"/>
<path d="M39.9839 45.4689L28.2695 42.7154V34.2293L31.8131 32.9831L37.305 33.4578L38.4131 34.3005L39.9839 45.4689Z" fill="#E59782"/>
<path d="M30.7402 34.6091L31.5561 32.9356L34.6734 33.7071L36.293 32.9356L36.9627 33.2323L37.6325 35.8197L37.4742 55.2606L31.1299 53.6939L30.7402 34.6091Z" fill="#313858"/>
<path d="M39.6787 51.4626C39.837 52.0086 40.0196 52.5902 40.2144 53.2073C42.0532 58.9399 39.91 70.8323 39.91 70.8323C37.8277 71.5088 30.5458 72.0311 28.4513 71.3546C28.4513 71.3546 27.3432 65.2659 27.3676 56.6849C27.3798 54.9046 27.7329 53.2311 28.1226 51.5813C28.1226 51.5813 29.1698 52.6139 34.6739 52.6139C38.193 52.6139 39.6787 51.4626 39.6787 51.4626Z" fill="#35464D"/>
<path d="M34.6738 33.7071C34.6738 33.7071 35.2218 33.2442 35.8672 32.6033L36.5735 33.0543L35.4897 35.2263L34.6738 33.7071Z" fill="#DFF000"/>
<path d="M34.674 33.7071C34.674 33.7071 32.9327 33.1967 32.3116 32.4134L31.5566 32.9356L33.7242 35.1788L34.674 33.7071Z" fill="#DFF000"/>
<path d="M35.5501 62.8091L35.4648 42.0745L36.9139 33.1967L39.0084 34.0513C39.2154 34.6684 39.8243 36.7336 40.2505 38.0866C40.4575 38.7513 40.7254 40.6028 40.5549 41.754C40.4331 42.573 40.3357 47.0356 41.2612 52.2222C41.8578 55.5929 42.1136 60.198 41.6386 63.9604C40.4331 64.0316 38.777 64.2689 37.3158 64.3876C36.366 64.4588 35.5501 63.7349 35.5501 62.8091Z" fill="#DFF000"/>
<path d="M26.4912 63.5687C26.272 60.7202 26.2111 57.2071 26.7835 54.0144C27.6359 49.2076 28.1108 43.5343 28.0621 42.5136C27.9525 40.4129 27.2584 37.6 27.2584 37.6C27.2584 37.6 27.8063 34.799 28.0134 34.1699L30.6436 33.2442L31.4717 33.0543L35.3075 43.6174L36.0381 50.8336L35.0639 62.8684C34.9908 63.7467 34.1993 64.3995 33.2982 64.3283C31.082 64.1503 28.2325 63.8654 26.4912 63.5687Z" fill="#DFF000"/>
<path d="M40.8728 41.4929C40.0569 43.2732 36.696 45.5758 35.3809 46.4659C34.1632 47.2967 33.2133 47.9139 31.8495 46.6558C30.2056 45.1485 28.8418 42.5018 27.9406 41.2674L27.2344 38.1341C27.2344 38.1341 32.2148 42.6442 33.7491 43.0359C35.2713 43.4394 40.8728 41.4929 40.8728 41.4929Z" fill="#313858"/>
<path d="M31.4833 32.9831L30.8379 33.1848L31.1423 36.0689L32.3235 35.8909L31.8973 37.8255C34.1988 40.674 35.587 44.4838 35.587 44.4838C35.587 44.4838 35.5748 42.0745 34.0648 37.6712C32.8958 34.253 31.4833 32.9831 31.4833 32.9831Z" fill="#DFF000"/>
<path d="M36.8659 33.1374L37.8157 33.4816L38.3271 35.4874L37.4504 35.3806L38.0471 37.1134C37.0485 39.048 35.3438 42.6679 35.3438 42.6679C35.3438 42.6679 35.7699 39.2379 36.0135 37.3508C36.4762 33.8614 36.8659 33.1374 36.8659 33.1374Z" fill="#DFF000"/>
<path d="M33.066 92.0654C32.4693 91.9586 31.9213 92.0298 31.3855 92.374C30.8497 92.7182 29.9121 91.4364 29.9121 91.4364V93.9525H34.0158L33.066 92.0654Z" fill="#313858"/>
<path d="M38.0827 92.5046C37.1938 92.2672 36.2318 91.5907 36.2318 91.5907L35.9883 93.9525H37.2303L37.3765 93.1336L38.168 93.9525C38.168 93.9525 41.3706 93.9525 42.3326 93.9525C42.8927 93.9525 40.1163 92.4215 40.1163 92.4215C40.1163 92.4215 39.1909 92.8013 38.0827 92.5046Z" fill="#313858"/>
<path d="M32.7983 26.4078C32.433 27.476 32.1408 27.5354 32.7253 29.3987C33.1028 30.5737 32.3356 31.5232 31.3614 32.4965C30.2898 32.2591 31.0448 32.3659 30.0098 32.0099C30.3142 31.4283 31.0692 29.8972 30.9961 28.8646C30.8987 27.5828 30.643 25.6245 31.6902 24.4376C32.7253 23.2508 33.7969 23.6899 33.7969 23.6899C33.7969 23.6899 34.3935 25.0667 33.9552 25.7788C33.8212 25.9924 32.8957 26.1111 32.7983 26.4078Z" fill="#422129"/>
<path d="M32.8966 27.6659C32.8966 27.6659 32.3121 26.8707 31.9224 27.0131C31.5327 27.1437 31.4962 27.8914 31.7884 28.4849C32.0685 29.0783 33.1645 29.3869 33.1645 29.3869L32.8966 27.6659Z" fill="#E59782"/>
<path d="M37.9737 42.9765L41.566 44.1515C41.9435 44.2821 42.5158 44.0803 42.8446 43.7361L50.1752 35.9146C50.504 35.5586 50.4797 35.1788 50.1143 35.0601L46.5586 33.8614C45.8645 33.7783 45.4383 33.9088 45.0974 34.2649L37.7789 42.027C37.438 42.3831 37.4014 42.6442 37.9737 42.9765Z" fill="#969BB3"/>
<path d="M38.1682 43.0596L41.7848 44.2465C42.1501 44.3652 42.7346 44.1753 43.0634 43.8192L50.4305 35.9621C50.7593 35.6179 50.7349 35.2381 50.3575 35.1076L46.7896 33.9088C46.3999 33.7783 45.8154 33.9682 45.4623 34.3361L38.0951 42.1694C37.742 42.5374 37.7785 42.929 38.1682 43.0596Z" fill="#8C9700"/>
<path d="M45.353 41.671C45.5965 41.8134 46.2906 41.8371 46.5098 41.6472C46.729 41.4573 46.936 41.4573 47.2161 41.3624C47.4962 41.2556 47.4474 41.03 47.7762 40.8995C48.1172 40.7689 48.0076 40.3061 48.105 40.1162C48.2024 39.9263 48.3851 39.5346 48.4338 39.1548C48.4947 38.7631 48.1781 38.5732 47.7884 38.2765C47.4109 37.9798 47.0943 37.873 47.0091 38.0866C46.9238 38.3121 47.2648 38.7631 47.2648 38.7631C47.2648 38.7631 46.6072 38.2646 46.4246 38.1104C46.2419 37.9561 45.8401 38.0154 45.8888 38.324C45.9253 38.6326 46.4124 39.1904 46.5585 39.3566C46.7168 39.5109 46.7412 39.7482 46.7412 39.7482C46.7412 39.7482 46.5585 39.5821 46.2176 39.2854C45.8888 38.9886 45.2799 38.4664 44.939 38.5376C44.598 38.597 44.7076 38.8699 44.9877 39.1192C45.2068 39.321 45.7061 39.7838 45.8644 39.9263C45.8644 39.9263 45.2312 39.7364 44.9877 39.5109C44.7319 39.2854 44.5371 39.3684 44.5371 39.6177C44.5371 39.8669 45.2312 40.3179 45.219 40.401C45.2068 40.4841 45.3773 40.7927 45.1825 40.9944C44.9877 41.1962 45.1947 41.576 45.353 41.671Z" fill="#E59782"/>
<path d="M41.0677 41.3861C41.4452 41.3505 41.0555 40.4366 40.5928 39.8194C40.0692 39.1311 39.4725 39.1073 39.4725 39.1073C39.3629 39.5346 40.4588 41.4336 41.0677 41.3861Z" fill="#313858"/>
<path d="M38.6074 40.0212C38.6074 40.0212 39.6425 39.0005 39.8738 38.7631C40.1174 38.5376 40.2148 37.8018 40.3975 37.5407C40.5801 37.2795 40.8845 37.2083 41.0794 37.054C41.2742 36.8998 41.6273 36.8048 41.7978 36.8048C41.8831 36.8048 42.017 36.8641 42.017 36.8641C42.017 36.8641 42.3702 36.7811 42.5893 36.6386C42.8085 36.5081 43.2713 36.3182 43.4783 36.1876C43.7462 36.0215 44.1967 35.6417 44.3916 35.701C44.5742 35.7604 44.5133 35.9977 44.4524 36.0927C44.4037 36.1876 44.148 36.3419 44.0262 36.4725C43.8923 36.5912 43.5392 36.8285 43.5392 36.8285C43.5392 36.8285 44.1237 36.4962 44.4037 36.3063C44.5742 36.1758 44.8786 35.9384 45.0735 36.0452C45.2805 36.152 45.2196 36.3063 45.1465 36.3775C45.0126 36.5318 44.8421 36.603 44.8421 36.603C44.8421 36.603 45.11 36.7573 45.0735 36.9116C45.0491 37.0659 44.7082 37.2914 44.7082 37.2914C44.7082 37.2914 44.9882 37.4338 44.9395 37.6C44.8908 37.7662 43.9045 38.597 43.6609 38.8225C43.4174 39.0599 42.4189 39.5227 42.0657 39.6058C41.7126 39.6889 41.055 39.9856 40.8358 40.1399C40.6166 40.2942 39.3015 42.2881 39.3015 42.2881L38.6074 40.0212Z" fill="#E59782"/>
<path d="M31.2636 45.1485C30.8009 44.5907 27.9758 40.4366 27.2939 38.6088C26.9529 37.7187 26.6728 34.5854 28.0123 34.1699C30.0337 33.5528 33.4555 42.5848 33.4555 42.5848C35.5134 41.4336 39.471 39.1073 39.471 39.1073C39.471 39.1073 40.0433 40.8045 41.1636 41.3386C41.1636 41.3386 39.4832 43.2614 36.7677 45.0535C34.5271 46.5253 34.2105 46.7152 33.5773 46.7864C32.9928 46.8457 32.323 46.4659 31.2636 45.1485Z" fill="#DFF000"/>
<path d="M46.4616 87.0212C46.4373 86.7957 45.9989 81.3955 46.9853 74.6659C48.3126 65.6576 51.6126 58.5838 56.5565 54.2399L58.1395 55.949C47.1436 65.6338 48.7997 86.6177 48.824 86.8194L46.4616 87.0212Z" fill="#BEC1CB"/>
<g style="mix-blend-mode:multiply">
<path d="M58.1387 55.949L56.5557 54.2399C54.8387 55.7472 53.3166 57.5869 52.0136 59.7232C52.0745 60.4235 52.0136 61.1475 51.9284 61.8121C51.6483 63.8773 50.9908 65.8831 50.3332 67.8652C49.6391 69.9184 49.1155 71.8768 48.7623 74.0131C48.0682 78.2977 47.7151 82.5942 47.7395 86.9144L48.8232 86.8194C48.7989 86.6177 47.1428 65.6338 58.1387 55.949Z" fill="#D4D4D4"/>
</g>
<path d="M53.4622 86.1548H45.7297C45.4497 86.1548 45.2305 86.3803 45.2305 86.6414V91.7212H57.2858L55.6663 87.6265C55.3131 86.7364 54.4364 86.1548 53.4622 86.1548Z" fill="#BEC1CB"/>
<path d="M45.2305 87.8876V91.7212H57.2858L55.7759 87.8876H45.2305Z" fill="#A2A5AD"/>
<path d="M53.4267 58.4295L54.6079 59.379C55.1802 59.83 55.9839 59.8775 56.605 59.474L60.3068 57.0409L56.7024 50.4182L53.0249 55.9015C52.4769 56.7204 52.6474 57.8124 53.4267 58.4295Z" fill="#DFF000"/>
<path d="M53.6211 51.7475L60.3063 57.0409L61.7432 56.0083L55.3259 49.8485L53.6211 51.7475Z" fill="#BEC1CB"/>
<path d="M100.759 89.5374H44.8906C44.3427 89.5374 43.9043 89.9647 43.9043 90.4987V93.9525H105.301C105.301 91.5194 103.268 89.5374 100.759 89.5374Z" fill="#BEC1CB"/>
<g style="mix-blend-mode:multiply">
<path d="M103.962 90.8192H43.9043V93.9525H105.301C105.301 92.7301 104.778 91.6263 103.962 90.8192Z" fill="#D4D4D4"/>
</g>
<path d="M96.132 91.7449H43.9043V93.9525H100.26L99.8947 93.5015C98.9814 92.3977 97.6054 91.7449 96.132 91.7449Z" fill="#DFF000"/>
<path d="M56.9941 59.3197C56.9941 59.3197 60.0384 57.8005 63.6063 57.67C67.1742 57.5394 70.3159 57.2664 70.3159 57.2664V55.9727L61.7919 56.0202C61.7919 56.0202 58.1875 56.8748 56.9941 59.3197Z" fill="#BEC1CB"/>
<path d="M53.8047 48.804L61.7442 56.0083L62.6696 55.3555L54.6084 47.9732L53.8047 48.804Z" fill="#A2A5AD"/>
<path d="M89.2281 0.0949478H86.3299C86.0742 0.0949478 85.8672 0.284847 85.8672 0.534089V3.9404H89.6908V0.534089C89.6908 0.284847 89.4838 0.0949478 89.2281 0.0949478Z" fill="#99ADCC"/>
<path d="M78.1831 0.0949478H75.2728C75.0293 0.0949478 74.8223 0.284847 74.8223 0.534089V3.9404H78.6337V0.534089C78.6337 0.284847 78.4267 0.0949478 78.1831 0.0949478Z" fill="#99ADCC"/>
<path d="M91.4684 1.69722H73.0323C72.3869 1.69722 71.8633 2.20757 71.8633 2.83661V9.79166H92.6375V2.83661C92.6375 2.20757 92.1138 1.69722 91.4684 1.69722Z" fill="#B0C0D9"/>
<path d="M108.248 35.7485H56.2512C55.3136 35.7485 54.5586 35.0008 54.5586 34.0869V7.50101C54.5586 6.58712 55.3136 5.83939 56.2512 5.83939H108.248C109.185 5.83939 109.952 6.58712 109.952 7.50101V34.0869C109.952 35.0008 109.185 35.7485 108.248 35.7485Z" fill="#E5F0FF"/>
<path fill-rule="evenodd" clip-rule="evenodd" d="M110.987 7.50101V34.0869C110.987 35.5586 109.757 36.7573 108.247 36.7573H56.2511C54.7533 36.7573 53.5234 35.5586 53.5234 34.0869V7.50101C53.5234 6.0293 54.7533 4.83056 56.2511 4.83056H108.247C109.757 4.83056 110.987 6.0293 110.987 7.50101ZM56.2511 5.8394C55.3135 5.8394 54.5585 6.58712 54.5585 7.50101V34.0869C54.5585 35.0008 55.3135 35.7485 56.2511 35.7485H108.247C109.185 35.7485 109.952 35.0008 109.952 34.0869V7.50101C109.952 6.58712 109.185 5.8394 108.247 5.8394H56.2511Z" fill="#BBCAE1"/>
<path d="M57.4082 13.6371H58.7599L59.3444 12.9962L59.941 13.8508L61.037 13.7795L61.9746 9.70859L62.3034 15.7735L62.9853 13.6371L63.8255 13.7795L64.337 12.5689L64.6779 13.7795L66.7115 13.6371L67.2108 12.8538L67.7222 13.7795L68.7329 13.6371L69.6706 9.56616L69.9141 14.6341L70.596 13.4235L71.3632 13.5659L71.9477 12.4265L72.5444 13.9932L74.3222 13.922L75.0772 13.2811L75.5034 13.922L76.3436 13.9932L77.0255 14.9902L77.7805 13.4947H78.7182L79.3879 12.4977L79.8993 13.9932H81.5067L82.2617 13.3523L82.5174 13.9932H83.6986L84.551 10.1359L85.3912 15.2038L85.9027 14.0644H86.9134L88.058 13.103L88.265 13.8508H89.5436L90.2134 13.2098L91.0658 13.8508H91.8208L92.5027 9.99343L93.2577 14.9902L93.8543 13.4947H94.7798L95.2912 12.7114L95.8027 13.5659H96.7281L97.4831 12.925L97.9946 13.7083H99.1757L100.028 10.4919L100.747 14.4442L101.295 13.4947L102.731 13.3523L103.486 12.6402L103.949 13.6727L107.103 13.7439" stroke="white" stroke-width="2.8" stroke-linecap="round" stroke-linejoin="round"/>
<path d="M57.4082 22.4318H58.7599L59.3444 21.7909L59.941 22.6455L61.037 22.5742L61.9746 18.5152L62.3034 24.5682L62.9853 22.4318L63.8255 22.5742L64.337 21.3636L64.6779 22.5742L66.7115 22.4318L67.2108 21.6485L67.7222 22.5742L68.7329 22.4318L69.6706 18.3727L69.9141 23.4288L70.596 22.2182L71.3632 22.3606L71.9477 21.2212L72.5444 22.7879L74.3222 22.7167L75.0772 22.0758L75.5034 22.7167L76.3436 22.7879L77.0255 23.7848L77.7805 22.2894H78.7182L79.3879 21.2924L79.8993 22.7879H81.5067L82.2617 22.147L82.5174 22.7879H83.6986L84.551 18.9424L85.3912 23.9985L85.9027 22.8591H86.9134L88.058 21.8977L88.265 22.6455H89.5436L90.2134 22.0045L91.0658 22.6455H91.8208L92.5027 18.8L93.2577 23.7848L93.8543 22.2894H94.7798L95.2912 21.5061L95.8027 22.3606H96.7281L97.4831 21.7197L97.9946 22.503H99.1757L100.028 19.2985L100.747 23.2508L101.295 22.2894L102.731 22.147L103.486 21.4348L103.949 22.4674L107.103 22.5386" stroke="white" stroke-width="2.8" stroke-linecap="round" stroke-linejoin="round"/>
<path d="M57.4082 31.2384H58.7599L59.3444 30.5975L59.941 31.452L61.037 31.3808L61.9746 27.3217L62.3034 33.3747L62.9853 31.2384L63.8255 31.3808L64.337 30.1702L64.6779 31.3808L66.7115 31.2384L67.2108 30.455L67.7222 31.3808L68.7329 31.2384L69.6706 27.1793L69.9141 32.2354L70.596 31.0247L71.3632 31.1672L71.9477 30.0278L72.5444 31.5944L74.3222 31.5232L75.0772 30.8823L75.5034 31.5232L76.3436 31.5944L77.0255 32.5914L77.7805 31.096H78.7182L79.3879 30.099L79.8993 31.5944H81.5067L82.2617 30.9535L82.5174 31.5944H83.6986L84.551 27.749L85.3912 32.805L85.9027 31.6657H86.9134L88.058 30.7043L88.265 31.452H89.5436L90.2134 30.8111L91.0658 31.452H91.8208L92.5027 27.6066L93.2577 32.5914L93.8543 31.096H94.7798L95.2912 30.3126L95.8027 31.1672H96.7281L97.4831 30.5263L97.9946 31.3096H99.1757L100.028 28.105L100.747 32.0455L101.295 31.096L102.731 30.9535L103.486 30.2414L103.949 31.274L107.103 31.3452" stroke="white" stroke-width="2.8" stroke-linecap="round" stroke-linejoin="round"/>
<path d="M81.873 65.4796C81.873 65.4796 85.7819 70.595 86.5004 71.5207C87.231 72.4346 87.8155 73.4672 88.9723 73.2891C90.4092 73.0755 98.4461 71.2359 102.635 69.9897C103.353 69.776 103.975 69.7642 105.789 70.6068C105.789 70.6068 105.07 68.2212 104.34 66.702C104.34 66.702 102.318 67.1886 96.9118 67.5447C91.152 67.9245 91.1885 68.4111 91.1885 68.4111C91.1885 68.4111 87.8764 61.0288 86.1594 57.4801C86.1594 57.4801 82.2992 64.079 81.873 65.4796Z" fill="#E59178"/>
<path d="M102.221 67.0462C102.635 67.9601 102.878 69.0758 102.635 69.9897C103.183 69.954 104.486 70.0015 105.789 70.6068C105.789 70.6068 105.07 68.2212 104.34 66.702C104.34 66.702 103.706 66.8445 102.221 67.0462Z" fill="#EAF3F4"/>
<path d="M77.3301 60.3167C77.3301 60.3167 82.3836 68.5179 83.8327 70.1677C83.8327 70.1677 85.6592 69.9303 87.4249 69.1114C88.533 68.5891 89.9334 67.8652 90.5666 66.2629C90.5666 66.2629 87.364 59.2722 86.8161 57.3376C86.122 54.9045 84.0031 52.1747 80.8614 52.8513C80.8614 52.8513 80.2282 54.2518 79.5098 56.5543C78.8035 58.8687 77.3301 60.3167 77.3301 60.3167Z" fill="#303D43"/>
<path d="M86.9378 57.7174C86.8891 57.575 86.8485 57.4484 86.8161 57.3376C86.122 54.9045 84.0031 52.1747 80.8614 52.8513C80.8614 52.8513 80.2282 54.2518 79.5098 56.5543C78.8035 58.8687 77.3301 60.3167 77.3301 60.3167C77.3301 60.3167 80.35 65.2184 82.3958 68.2093C84.9895 65.2659 86.6943 61.5391 86.9378 57.7174Z" fill="#2B363B"/>
<path d="M105.605 68.1263L105.837 65.349C105.837 65.349 105.995 64.625 106.738 64.7793C106.738 64.7793 107.396 65.254 108.102 67.248C108.857 69.4199 109.685 71.6869 109.953 72.9212C110.221 74.1556 110.05 75.022 109.636 75.1051C109.21 75.1881 108.479 73.4316 108.479 73.4316L106.494 69.6217L105.605 68.1263Z" fill="#313858"/>
<path d="M103.962 69.9303C104.278 69.5624 104.437 68.5536 103.889 67.9364C103.328 67.3073 103.268 66.8682 103.268 66.8682C103.268 66.8682 103.56 66.5003 104.157 66.3104C104.753 66.1205 105.837 65.349 105.837 65.349C105.837 65.349 106.933 66.9275 107.761 68.7553C108.601 70.595 109.953 74.1437 109.843 74.7609C109.782 75.0457 109.429 75.5917 108.711 74.4879C108.443 74.0844 108.078 73.4316 106.982 72.6008C105.606 71.5326 103.962 69.9303 103.962 69.9303Z" fill="#252B42"/>
<path d="M76.1859 47.5341L77.0748 50.8098C77.0748 50.8098 72.1187 49.0533 71.6195 48.9346C71.1324 48.8159 69.5981 48.8159 69.0136 48.5667C68.9811 48.5508 68.9486 48.535 68.9161 48.5192C68.3804 48.2937 67.942 48.2462 67.7715 48.0919C67.601 47.9495 67.7471 47.5816 67.7593 47.3086C67.7837 47.0237 67.7593 46.7982 67.8446 46.4659C67.9298 46.1336 68.1612 45.8962 68.2464 45.7538C68.3316 45.5995 68.2342 45.3028 68.6239 45.0417C68.904 44.8518 69.3545 45.1129 69.8051 45.2553C69.9756 45.3028 70.1339 45.3384 70.2922 45.3265C70.8645 45.2909 70.9132 45.6826 71.2785 46.2285C71.6438 46.7864 74.408 46.8576 75.0412 47.0593C75.3578 47.1543 76.1859 47.5341 76.1859 47.5341Z" fill="#E59178"/>
<path d="M69.8294 46.2997C69.7442 46.454 69.5615 46.5371 69.4032 46.5015C69.5372 46.6321 69.6224 46.8338 69.5737 47.0237C69.525 47.2136 69.2936 47.3442 69.1597 47.2255C69.2936 47.3442 69.3423 47.5697 69.2815 47.7596C69.2206 47.9376 69.0501 48.0682 68.8674 48.0682C69.0136 48.1038 69.0988 48.3293 69.0014 48.448C68.977 48.4836 68.9527 48.5073 68.9161 48.5192C68.3804 48.2937 67.942 48.2462 67.7715 48.0919C67.601 47.9495 67.7471 47.5816 67.7593 47.3086C67.7837 47.0237 67.7593 46.7982 67.8446 46.4659C67.9298 46.1336 68.1612 45.8962 68.2464 45.7538C68.3316 45.5995 68.2342 45.3028 68.6239 45.0417C68.904 44.8518 69.3545 45.1129 69.8051 45.2553C69.7442 45.3265 69.6955 45.4096 69.7077 45.5164C69.7198 45.6232 69.7929 45.6944 69.8416 45.7894C69.939 45.9318 69.9269 46.1573 69.8294 46.2997Z" fill="#E59178"/>
<path d="M70.3521 44.9111C70.1208 44.9586 69.7555 45.3028 69.4267 45.4096C69.0857 45.5283 69.037 45.7538 69.1831 45.9912C69.3293 46.2167 69.7189 45.8725 69.9747 45.9556C70.2304 46.0268 70.2669 46.2404 70.6809 46.2285C71.0949 46.2167 71.2776 46.2285 71.2776 46.2285C71.2776 46.2285 71.168 44.745 70.3521 44.9111Z" fill="#E59178"/>
<path d="M72.521 62.8447C72.521 62.8447 69.5497 66.7376 68.7095 67.8295C67.8815 68.9215 67.5649 71.9955 67.1387 74.4285C66.8464 76.0545 66.2741 80.6715 65.58 84.0659C65.239 85.775 64.752 86.1311 64.752 86.1311L67.09 87.2348C67.09 87.2348 69.3184 82.7129 70.5117 79.4846C71.8025 75.9596 71.4859 73.5503 72.521 71.8649C74.4815 68.6841 81.0571 64.0909 81.0571 64.0909L75.3339 58.6788C75.3339 58.6788 74.2258 60.8864 72.521 62.8447Z" fill="#E59178"/>
<path d="M65.58 84.0778C65.239 85.775 64.752 86.1311 64.752 86.1311L67.09 87.2349C67.09 87.2349 67.6014 86.2498 68.2711 84.8849C67.3457 84.7068 66.4567 84.4457 65.58 84.0778Z" fill="#EAF3F4"/>
<path d="M77.0872 55.9965C77.0872 55.9965 71.7658 63.0821 70.2559 65.9306C70.2559 65.9306 72.6791 70.227 76.3688 70.1439C76.3688 70.1439 82.2625 64.8742 83.7603 63.4975C86.6463 60.8508 86.4149 56.8748 85.3433 54.6197L77.0872 55.9965Z" fill="#455A64"/>
<path d="M76.7939 38.4545C76.8548 37.9798 77.2201 37.8018 76.4529 37.054L78.5596 35.3924L81.202 36.8879C81.4943 41.7778 84.9769 49.7773 83.6131 50.6912C82.2493 51.6169 74.5898 43.9616 74.5898 43.9616L75.4179 40.4247L76.7939 38.4545Z" fill="#E59178"/>
<path d="M76.5869 38.3359C76.6274 38.2646 76.6761 38.1934 76.733 38.1222C77.488 37.1609 78.8274 36.5912 80.1304 36.4962C79.6311 35.8553 79.071 35.1076 78.6204 34.4192C77.6097 32.8407 77.695 31.9624 77.695 31.9624L75.3691 36.152C75.844 36.3063 76.1972 37.4338 76.4651 38.4308C76.5016 38.3952 76.5503 38.3715 76.5869 38.3359Z" fill="#E59178"/>
<path d="M81.9689 37.8136C81.9689 37.8136 79.8501 36.0808 78.1331 38.1341C76.5744 39.9975 78.194 44.0328 80.6781 44.7093C82.3342 45.1722 82.8335 44.3651 82.8335 44.3651C82.8335 44.3651 84.6357 49.2313 85.0132 51.1422C85.5368 53.6939 86.1334 55.3437 86.1334 55.3437C84.7574 56.0083 81.5427 57.6225 78.3279 58.0735C75.856 58.4177 75.5272 57.5631 75.5272 57.5631C75.5272 57.5631 75.0766 54.8808 75.1375 52.8157C75.1984 50.7505 74.212 46.454 74.1877 44.3058C74.1755 42.9884 74.7357 40.1874 75.5272 39.1904C76.5379 37.9205 77.0493 37.6237 78.4619 36.8404C79.8866 36.0571 81.6401 35.8434 81.9689 37.8136Z" fill="#DFF000"/>
<path d="M81.2512 36.7929C79.8996 36.247 78.0121 36.9947 77.9634 38.9293C77.9025 40.947 80.2892 42.5967 81.2878 42.929C83.0169 43.5106 84.6486 45.3146 84.6486 45.3146C84.6486 45.3146 82.7734 48.1513 82.0184 50.2758C81.4461 51.9018 80.3014 52.8394 79.2542 53.326C78.2069 53.8126 77.9391 53.7651 77.1719 54.1331C76.4047 54.5129 76.5509 54.774 76.6361 54.9283C76.7092 55.0944 76.7944 55.2725 76.7944 55.2725C76.7944 55.2725 76.2708 55.9252 76.4047 56.2694C76.5509 56.6136 77.0136 56.4593 77.0136 56.4593C77.0136 56.4593 76.7213 56.673 77.111 56.8035C77.5007 56.9341 77.5007 56.9341 77.5007 56.9341C77.5007 56.9341 77.6346 57.2071 77.866 57.3495C78.0974 57.4919 78.2557 57.3732 78.2557 57.3732C78.2557 57.3732 78.5723 57.7412 79.0228 57.48C79.4734 57.2189 80.6424 56.2338 81.0199 55.3555C81.3974 54.4773 83.6501 52.3053 85.2575 50.525C86.9623 48.6141 88.0339 47.2255 88.5453 46.6083C89.3003 45.6707 89.1298 44.6619 88.4844 43.8785C88.0461 43.3207 87.2302 41.8371 85.8055 40.4129C85.1723 39.772 84.125 38.9293 83.7719 38.6326C82.6394 37.6475 81.921 37.0659 81.2512 36.7929Z" fill="#E59178"/>
<path d="M65.5315 87.7808L67.8207 89.122C67.8207 89.122 68.3687 89.5493 67.8816 90.0834C67.8816 90.0834 67.1632 90.4275 65.1174 90.1783C62.9012 89.8935 60.5632 89.6323 59.382 89.3356C58.2008 89.0508 57.5311 88.5523 57.6529 88.1725C57.7868 87.7927 59.6255 87.9351 59.6255 87.9351L63.8267 87.8876L65.5315 87.7808Z" fill="#313858"/>
<path d="M65.0928 85.6444C65.2755 86.048 65.7139 86.6533 66.5054 86.4634C67.2969 86.2735 67.7109 86.404 67.7109 86.404C67.7109 86.404 67.8814 86.7957 67.7718 87.3535C67.65 87.9232 67.8205 89.122 67.8205 89.122C67.8205 89.122 65.9452 89.3593 63.9725 89.2763C62.012 89.205 58.3345 88.8253 57.8475 88.4811C57.6283 88.3149 57.336 87.8045 58.6146 87.674C59.0773 87.6265 59.8201 87.6028 61.05 87.0568C62.6087 86.3803 65.0928 85.6444 65.0928 85.6444Z" fill="#252B42"/>
<path d="M73.0201 28.7697C73.0445 29.7429 72.9714 30.645 73.0932 31.2859C73.2149 31.9386 72.5817 32.8644 72.2773 33.2679C71.9729 33.6715 72.9957 33.9801 72.9957 33.9801C72.9957 33.9801 73.4098 34.7159 73.7386 36.0096C73.8725 36.5912 74.9319 36.3657 75.5773 36.4131C76.2227 36.4606 76.7341 35.8553 77.7935 35.1669C78.8408 34.4904 79.6566 32.9712 79.6566 32.9712L80.095 29.3394L76.4662 27.4641L73.0201 28.7697Z" fill="#E59178"/>
<path d="M72.5566 29.0189C72.5566 29.0189 73.2873 27.7134 74.1762 27.0487C75.54 26.0162 76.8308 26.0043 78.2555 26.2298C79.3393 26.4078 80.6544 27.0606 80.6057 27.9864C80.6057 27.9864 82.0791 29.0308 81.6651 31.2146C81.3242 32.9237 79.1201 34.1106 78.9253 34.9889L78.1338 33.6715C78.1338 33.6715 78.5234 33.5409 78.5721 32.8288C78.5843 32.5558 78.7183 32.0692 78.7061 31.7487C78.6817 30.728 77.3788 30.5381 77.0987 31.4758C77.05 31.6419 77.1474 32.0573 77.1109 32.1641C76.9769 32.722 76.8065 32.6982 76.8065 32.6982C76.8065 32.6982 76.6725 31.9505 76.5994 31.6182C76.5386 31.4045 76.429 30.9891 75.8566 30.372C75.4792 29.9803 75.6253 29.3513 75.4426 29.2919C75.1138 29.1851 73.543 29.4818 72.5566 29.0189Z" fill="#40201D"/>
<path d="M30.3022 66.6308C29.6568 65.9306 27.952 64.9692 27.952 64.9692C27.952 64.9692 24.6642 65.4321 24.5059 65.6932C24.5059 65.6932 26.5394 66.7851 27.3066 67.426C28.0859 68.0788 29.121 70.773 29.121 70.773C29.121 70.773 30.9476 67.3311 30.3022 66.6308Z" fill="#40746E"/>
<path d="M22.2778 82.1195C22.6066 81.4904 23.6538 75.9833 23.8365 73.8232C24.0191 71.6513 26.0771 66.8207 26.5155 66.3816C26.6738 66.2154 26.9295 65.9662 27.1852 65.7169C27.5749 65.3371 27.9524 64.9692 27.9524 64.9692C27.9524 64.9692 25.6144 64.898 24.5062 65.6932C23.4103 66.4884 22.9232 69.8591 22.7771 70.8561C22.631 71.8412 21.2793 81.3243 21.2793 81.3243L22.2778 82.1195Z" fill="#96CF90"/>
<path d="M22.4611 82.9146C22.7168 77.6212 21.9131 72.5414 21.8766 70.1558C21.8279 66.6427 19.1367 60.2455 19.1367 60.2455C19.1367 60.2455 19.1367 64.898 19.3072 66.1323C19.4777 67.3548 19.7699 71.3189 20.1109 73.6452C20.464 75.9715 21.3164 83.5081 21.3164 83.5081L22.4611 82.9146Z" fill="#5FAD75"/>
<path d="M15.4696 71.2596C14.6659 71.2596 13.6065 72.2803 12.9976 72.9568C12.3644 73.6689 12.0234 75.7934 12.0234 75.7934C12.0234 75.7934 14.5197 74.2624 15.3113 73.9538C16.6386 73.4434 18.8426 72.4109 18.8426 72.4109L15.4696 71.2596Z" fill="#40746E"/>
<path d="M21.6201 86.1667C21.3279 83.3775 18.8072 78.2621 18.2593 77.3957C16.3596 74.4285 15.4707 71.2596 15.4707 71.2596L17.553 71.7937C17.553 71.7937 19.4283 75.0576 20.6947 78.3215C21.9611 81.5735 22.1316 86.4515 22.1316 86.4515L21.6201 86.1667Z" fill="#96CF90"/>
<path d="M23.2265 82.8909C22.4107 80.529 20.4989 72.8025 19.6099 71.0816C18.7332 69.3725 18.8915 68.4467 16.6387 66.5952C14.8487 65.1235 12.2793 64.5538 12.2793 64.5538C12.2793 64.5538 15.7132 68.7197 16.9066 71.1765C17.4059 72.1972 22.4107 83.4487 22.4107 83.4487L23.2265 82.8909Z" fill="#529665"/>
<path d="M21.9121 83.2944C22.3505 80.3273 22.9593 75.3662 23.349 73.9894C24.5424 69.8116 28.0981 67.7702 28.0981 67.7702C28.0981 67.7702 26.5516 72.0192 26.1497 73.301C25.7601 74.5354 22.521 83.33 22.521 83.33L21.9121 83.2944Z" fill="#40746E"/>
<path d="M23.5186 82.6654C23.0924 81.9414 17.8563 76.0664 16.4681 75.4136C15.0677 74.7727 12.0234 73.5384 12.0234 73.5384C12.0234 73.5384 16.3707 77.6212 17.9415 78.9861C19.5124 80.3391 22.2888 83.33 22.2888 83.33L23.5186 82.6654Z" fill="#96CF90"/>
<path d="M21.998 82.6654C22.132 82.1432 24.5674 75.8528 25.7973 74.8321C27.0272 73.7995 28.2571 73.028 28.2571 73.028C28.2571 73.028 27.2464 76.5174 26.2235 78.2384C25.2006 79.9475 23.0575 82.974 23.0575 82.974L21.998 82.6654Z" fill="#529665"/>
<path d="M18.6738 93.9525H25.7487L24.9572 82.1194H19.4775L18.6738 93.9525Z" fill="#DFF000"/>
</g>
<defs>
<clipPath id="clip0_506_119">
<rect width="99" height="94" fill="white" transform="translate(12)"/>
</clipPath>
</defs>
</svg>
