<svg width="127" height="107" viewBox="0 0 127 107" fill="none" xmlns="http://www.w3.org/2000/svg">
<path d="M63.3333 107C98.3114 107 126.667 78.6447 126.667 43.6667H0C0 78.6447 28.3553 107 63.3333 107Z" fill="#DCD7C3"/>
<ellipse cx="62.5" cy="71" rx="43.5" ry="10" fill="#C9C3A9"/>
<path d="M26.4693 63.1651L23.4769 64.9094C23.5178 63.836 23.6097 62.2259 23.4667 61.1525C22.568 54.5573 20.025 52.3899 18.8097 49.18C17.5433 45.7947 19.0957 44.711 21.1076 45.3199C22.905 45.8566 25.5093 48.5505 26.3263 53.4633C26.8778 56.7454 26.7757 60.2959 26.4693 63.1651Z" fill="#BA68C8"/>
<path opacity="0.7" d="M26.4693 63.1651L23.4769 64.9094C23.5178 63.836 23.6097 62.2259 23.4667 61.1525C22.568 54.5573 20.025 52.3899 18.8097 49.18C17.5433 45.7947 19.0957 44.711 21.1076 45.3199C22.905 45.8566 25.5093 48.5505 26.3263 53.4633C26.8778 56.7454 26.7757 60.2959 26.4693 63.1651Z" fill="white"/>
<path d="M24.8853 64.094L24.5789 64.2695C25.6513 56.5803 23.047 49.9128 20.4836 47.1571C20.4325 47.1055 20.4325 47.0229 20.4836 46.9713C20.5449 46.9197 20.6266 46.9197 20.6777 46.9713C23.2411 49.7271 25.8351 56.4461 24.8853 64.094Z" fill="white"/>
<path d="M24.3143 64.414L22.6394 65.3945C21.7407 62.742 20.8318 61.6789 19.688 59.9346C18.6463 58.3349 17.4411 57.3544 16.808 56.2397C16.236 55.2489 15.8071 54 16.6548 53.2466C17.9926 52.0493 19.7492 53.3188 20.9543 54.6915C21.996 55.8784 24.0897 59.0264 24.3143 64.414Z" fill="#BA68C8"/>
<path opacity="0.3" d="M24.3143 64.414L22.6394 65.3945C21.7407 62.742 20.8318 61.6789 19.688 59.9346C18.6463 58.3349 17.4411 57.3544 16.808 56.2397C16.236 55.2489 15.8071 54 16.6548 53.2466C17.9926 52.0493 19.7492 53.3188 20.9543 54.6915C21.996 55.8784 24.0897 59.0264 24.3143 64.414Z" fill="white"/>
<path d="M23.6295 64.8165L23.3844 64.961C22.6797 60.7603 19.8508 55.8991 18.0942 54.7534C18.0329 54.7122 18.0227 54.6296 18.0636 54.5677C18.1044 54.4954 18.1861 54.4851 18.2474 54.5264C20.0653 55.7133 22.884 60.5539 23.6295 64.8165Z" fill="white"/>
<path d="M99.725 62.7936L102.717 64.5378C102.676 63.4541 102.585 61.8544 102.728 60.781C103.626 54.1858 106.169 52.008 107.374 48.7982C108.651 45.4232 107.099 44.3394 105.087 44.9381C103.289 45.4851 100.685 48.1686 99.868 53.0917C99.3165 56.3635 99.4186 59.9243 99.725 62.7936Z" fill="#BA68C8"/>
<path opacity="0.7" d="M99.725 62.7936L102.717 64.5378C102.676 63.4541 102.585 61.8544 102.728 60.781C103.626 54.1858 106.169 52.008 107.374 48.7982C108.651 45.4232 107.099 44.3394 105.087 44.9381C103.289 45.4851 100.685 48.1686 99.868 53.0917C99.3165 56.3635 99.4186 59.9243 99.725 62.7936Z" fill="white"/>
<path d="M101.307 63.7122L101.603 63.8876C100.541 56.1984 103.146 49.531 105.709 46.7855C105.76 46.7339 105.75 46.6411 105.699 46.5998C105.648 46.5482 105.566 46.5482 105.515 46.5998C102.952 49.3555 100.347 56.0642 101.307 63.7122Z" fill="white"/>
<path d="M101.869 64.0424L103.554 65.0229C104.443 62.3704 105.362 61.3073 106.506 59.5527C107.537 57.9633 108.742 56.9828 109.386 55.8578C109.958 54.867 110.387 53.6284 109.539 52.875C108.201 51.6777 106.444 52.9472 105.239 54.3096C104.198 55.4966 102.104 58.6548 101.869 64.0424Z" fill="#BA68C8"/>
<path opacity="0.3" d="M101.869 64.0424L103.554 65.0229C104.443 62.3704 105.362 61.3073 106.506 59.5527C107.537 57.9633 108.742 56.9828 109.386 55.8578C109.958 54.867 110.387 53.6284 109.539 52.875C108.201 51.6777 106.444 52.9472 105.239 54.3096C104.198 55.4966 102.104 58.6548 101.869 64.0424Z" fill="white"/>
<path d="M102.564 64.445L102.81 64.5894C103.514 60.3888 106.333 55.5275 108.09 54.3716C108.151 54.3406 108.171 54.2477 108.13 54.1858C108.09 54.1239 108.008 54.1032 107.947 54.1445C106.129 55.3417 103.31 60.1823 102.564 64.445Z" fill="white"/>
<path d="M98.3047 12.3234C100.388 12.4989 101.154 13.9438 101.859 16.0596C102.482 17.9174 102.808 19.4966 103.197 21.4369C103.288 21.8807 103.442 22.6445 103.38 23.0986C103.237 24.0894 102.39 24.8016 101.593 25.4209C100.184 26.5149 98.7711 27.6124 97.3549 28.7133C96.8442 28.2179 96.6502 27.4541 96.6808 26.742C96.7115 26.0195 96.9259 25.328 97.12 24.6365C97.8247 22.0562 97.9472 19.4966 98.08 16.8544C98.0902 16.5344 98.3251 12.3234 98.3047 12.3234Z" fill="#DFF000"/>
<path d="M99.94 66.8807C99.94 67.2523 100.011 67.3968 99.5621 67.7374C99.1026 68.0677 98.1221 68.2225 97.3766 68.0264C96.723 67.8509 96.4881 67.6548 96.1817 67.2936C95.8243 66.8704 95.6098 66.3956 95.477 66.2305C95.3443 66.0654 94.7417 65.7351 94.1596 65.4771C93.5366 65.1984 92.3621 64.6514 91.9332 63.6399C91.5145 62.6388 91.8106 61.9163 91.8106 61.9163L99.94 66.8807Z" fill="#263238"/>
<path d="M96.0082 61.7718C97.2031 62.5562 98.2039 64.5275 99.838 63.9289C99.9197 64.8888 100.165 65.9312 99.9401 66.8807C99.2456 67.7477 97.7239 67.9128 96.8456 67.2936C96.4065 66.9117 96.1614 66.4679 95.7324 66.0654C95.3954 65.7557 94.9971 65.5493 94.558 65.3429C94.1597 65.1571 93.4652 64.7855 93.1384 64.5585C90.5035 62.5975 91.8107 59.0057 96.0082 61.7718Z" fill="#455A64"/>
<path d="M91.7997 71.4014C91.7997 71.8039 91.7691 72.1135 91.5342 72.2787C91.2891 72.4541 89.461 72.7534 88.9708 72.8154C88.4806 72.867 88.4091 72.547 88.0721 72.6606C87.735 72.7741 86.9384 73.3624 85.7435 73.6307C84.5487 73.8888 83.5784 74.1778 81.924 73.6307C80.2695 73.0734 80.1061 72.4335 80.1265 71.8658C80.147 71.2982 91.7997 71.4014 91.7997 71.4014Z" fill="#263238"/>
<path d="M91.5648 67.6342C91.8303 68.7901 92.1061 70.5241 91.7997 71.4014C91.4627 71.742 90.3495 71.9381 89.3793 72.0619C88.4601 72.1858 87.6227 72.4335 86.7954 72.8773C84.9061 73.672 81.5767 73.961 80.249 72.1651C78.9316 69.7706 85.815 70.3589 86.6627 67.5826C86.969 66.5711 90.3086 67.9128 91.5648 67.6342Z" fill="#455A64"/>
<path d="M100.471 54.0103C99.5522 44.1537 100.42 36.6089 99.542 28.672C99.542 28.672 85.1624 27.7741 84.8254 32.4805C84.8254 32.4805 84.6722 46.8681 84.9786 51.5229C85.1216 53.6181 86.2756 66.7053 86.2756 68.1812C89.6867 69.8945 91.8007 68.6044 91.8007 68.6044C91.7803 66.695 93.2612 59.2741 92.4543 54.6193L93.0058 46.7236C93.0058 46.7236 95.3446 60.8738 95.7326 64.6927C96.7437 66.1892 99.6033 65.8383 100.083 64.93C100.083 64.93 100.798 56.9105 100.471 54.0103Z" fill="#455A64"/>
<path d="M93.0059 46.7236L93.6084 38.1468C93.6084 38.1468 96.1922 37.6617 97.6935 35.7729C97.285 37.2902 95.6612 38.6009 94.6297 38.9622L93.5982 46.3934L94.0271 52.359L93.0059 46.7236Z" fill="#263238"/>
<path d="M94.8224 45.2271C94.9858 47.8383 95.1594 49.3658 95.3841 50.6353C95.7313 52.6273 96.7321 63.0826 96.967 65.5597C96.8853 65.5321 96.807 65.5046 96.7321 65.4771C96.487 62.8246 95.5066 52.6273 95.1594 50.6766C94.9347 49.3865 94.7713 47.859 94.6079 45.2374C94.4853 43.2764 94.373 40.4484 94.2402 39.4782L94.4547 39.4473C94.5875 40.4278 94.6998 43.2558 94.8224 45.2271Z" fill="#263238"/>
<path d="M88.011 68.8417C87.7149 64.383 87.0102 54.2477 87.0612 49.7374C87.1327 44.3498 87.3165 35.9587 87.7455 32.4805L87.96 32.5011C87.531 35.9794 87.3574 44.3601 87.2859 49.7374C87.2246 54.2683 87.9395 64.4862 88.2357 68.9037C88.1608 68.883 88.0859 68.8624 88.011 68.8417Z" fill="#263238"/>
<path d="M87.5311 38.0229C86.326 36.7947 86.4894 34.2248 86.6018 32.6147C86.6086 32.4839 86.6154 32.3601 86.6222 32.2431L86.3975 32.2225C86.3907 32.3394 86.3839 32.4667 86.3771 32.6044C86.2648 34.3073 86.0809 37.094 87.5311 38.3326V38.0229Z" fill="#263238"/>
<path d="M90.3184 11.7867L90.9107 14.594L95.435 13.469L94.863 10.5172L90.3184 11.7867Z" fill="#B16668"/>
<path d="M87.1833 6.5126C86.9689 7.0493 86.1518 8.75228 86.1825 9.02063L87.3774 9.2993L87.1833 6.5126Z" fill="#9A4A4D"/>
<path d="M88.6959 2.65253C87.307 2.90024 86.6942 4.11813 87.1232 7.13189C87.1334 7.25574 87.021 7.4828 87.021 7.94725C87.0006 9.97019 87.6236 11.6422 88.0729 12.0241C89.0329 12.4369 90.1461 12.4473 91.3717 11.9725C92.3112 11.6112 94.6806 10.6204 95.5589 8.9484C96.5802 6.98739 96.6721 4.4484 95.2934 3.54014C93.3529 2.26033 89.4619 2.51836 88.6959 2.65253Z" fill="#B16668"/>
<path d="M88.0723 12.0241C88.3174 12.2305 89.5021 12.5814 90.4314 12.3234L90.3191 11.7867C90.3191 11.7867 89.2263 12.055 88.0723 12.0241Z" fill="#9A4A4D"/>
<path d="M89.921 7.90598C90.064 8.1124 90.2989 8.06079 90.3806 7.85437C90.4827 7.61699 90.5542 7.36928 90.7074 7.15254C90.8913 6.90483 91.1466 6.70873 91.4427 6.6468C92.5764 6.40942 92.7193 7.9679 92.321 8.62845C91.6674 9.73281 90.9934 9.13419 90.9934 9.13419C90.9934 9.13419 90.7483 10.7443 91.9125 11.3119C91.9125 11.3119 93.71 11.2707 94.864 10.5172C95.5176 9.21676 95.9772 8.66974 96.3653 7.60666C97.2845 5.07799 96.7432 2.38419 95.6096 2.07455C95.4564 1.31079 94.7415 0.309646 93.0462 0.0929027C91.4325 -0.103198 90.493 0.227077 89.4615 0.588316C88.4402 0.939233 87.2964 1.78556 86.1015 1.24887C86.0198 1.90942 86.2751 2.59061 86.7653 3.0241C86.4181 2.97249 86.0606 3.24084 85.9993 3.59176C85.9381 3.94267 86.1934 4.31423 86.5406 4.38648C86.3568 4.55162 86.3364 4.86125 86.4793 5.06767C86.6121 5.2741 86.8879 5.36699 87.133 5.31538C87.3883 5.26377 87.5415 5.19153 87.7764 5.08832C88.3176 5.8624 89.3593 5.88304 89.921 5.68694C89.4921 6.65712 89.6657 7.55506 89.921 7.90598Z" fill="black"/>
<path d="M89.4617 14.0367C88.0217 14.6043 87.0821 15.0275 87.0821 15.0275C86.8166 15.3268 85.1723 17.5046 84.9476 20.5183C84.7332 23.5218 84.6719 33.5229 84.6719 33.5229C84.6719 33.5229 89.5229 35.1743 95.0276 33.9254C98.4387 33.1514 100.042 31.6342 100.042 31.6342C100.042 31.6342 99.6132 25.8027 99.7561 24.5642C99.8889 23.336 100.563 18.2374 100.451 16.1938C100.328 14.1399 99.5315 12.6124 98.3059 12.3234C96.0285 11.7867 94.3025 12.1066 89.4617 14.0367Z" fill="#BA68C8"/>
<path d="M89.4617 14.0367C88.0217 14.6043 87.0821 15.0275 87.0821 15.0275C86.8166 15.3268 85.1723 17.5046 84.9476 20.5183C84.7332 23.5218 84.6719 33.5229 84.6719 33.5229C84.6719 33.5229 89.5229 35.1743 95.0276 33.9254C98.4387 33.1514 100.042 31.6342 100.042 31.6342C100.042 31.6342 99.6132 25.8027 99.7561 24.5642C99.8889 23.336 100.563 18.2374 100.451 16.1938C100.328 14.1399 99.5315 12.6124 98.3059 12.3234C96.0285 11.7867 94.3025 12.1066 89.4617 14.0367Z" fill="#DFF000"/>
<path d="M75.8774 28.8475C75.4689 28.8475 75.0502 28.8991 74.6723 28.7339C74.2843 28.5585 74.0187 28.1869 73.6408 27.9908C73.4979 27.9186 73.3345 27.867 73.1711 27.805C72.9157 27.7122 72.6808 27.5883 72.4562 27.4335C72.3745 27.3716 72.2928 27.3096 72.1906 27.2787C72.0987 27.2477 71.9762 27.258 71.9149 27.3303C71.823 27.4232 71.823 27.6089 71.8536 27.7225C71.874 27.8257 71.9149 27.9186 71.966 27.9805C72.1191 28.2179 72.354 28.383 72.5685 28.5585C72.6843 28.6548 72.7898 28.7649 72.8851 28.8888C72.9362 28.9404 72.977 29.0126 72.9974 29.0849C73.0077 29.1571 72.9974 29.2397 72.9362 29.281C72.8953 29.3222 72.8238 29.3326 72.7625 29.3326C72.6298 29.3326 72.4562 29.3119 72.3336 29.2397C72.3132 29.2294 70.4238 28.125 70.4238 28.125C70.4238 28.125 70.6281 28.9816 71.343 29.6112C72.0477 30.2511 72.7421 30.8394 73.4774 31.2936C73.7838 31.4794 74.0698 31.6135 74.4272 31.6342C75.4894 31.6651 76.5617 31.5516 77.6034 31.2936C77.634 31.2833 77.6749 31.2729 77.6851 31.2316C77.7362 31.0665 77.4502 30.8704 77.3685 30.7569C77.2255 30.5505 77.103 30.3131 76.9804 30.0963C76.8306 29.8417 76.6808 29.5837 76.5311 29.3222C76.4596 29.219 76.3983 29.0539 76.3166 28.961C76.2247 28.8578 76.0306 28.8578 75.9081 28.8578C75.9013 28.8578 75.8911 28.8544 75.8774 28.8475Z" fill="#B16668"/>
<path d="M36.1191 71.773C36.0986 71.7833 35.8025 72.1548 35.7923 72.1858C35.7616 72.2993 35.7923 72.5367 35.8127 72.7019C35.8842 72.898 36.0067 73.2695 37.0484 73.5895C37.6203 73.7649 38.5497 73.8681 39.3157 73.3521C39.4893 73.2282 39.7037 73.0115 39.8263 72.836C39.9489 72.6606 40.1225 72.4645 40.2654 72.2993C40.3778 72.1858 40.5003 72.0826 40.6229 71.9897C41.0212 71.711 41.4808 71.5356 41.828 71.195C42.2059 70.8441 42.4918 70.4106 42.5735 69.8739C42.6348 69.4507 42.6552 69.0791 42.5633 68.6663C42.5225 68.5012 42.4408 68.3154 42.2774 68.2947C42.1344 68.2844 42.0118 68.4289 41.9301 68.5631C41.2969 69.523 40.5514 70.4106 39.6323 71.0402C38.754 71.6491 37.702 72.0103 36.6501 71.9174C36.548 71.9071 36.2314 71.7007 36.1191 71.773Z" fill="#37474F"/>
<path d="M42.4417 68.2638C42.36 68.1399 42.2375 68.0573 42.1047 68.0264C42.0843 67.789 41.8392 67.5929 41.6145 67.6342C41.3796 66.9323 40.5626 67.2317 40.0928 67.4484C40.0621 67.4587 40.1643 67.469 40.1336 67.4897C40.2051 66.7259 40.2562 66.2202 40.3277 65.6009C40.44 64.5378 40.4707 63.5057 40.583 62.4427C40.5898 62.4289 40.5932 62.4186 40.5932 62.4117L35.6094 62.3291C35.6911 63.2684 35.8749 63.8979 35.9566 64.8372C35.9975 65.4151 36.1507 66.1376 36.2017 66.7053C36.263 67.3968 36.3447 68.2947 36.2528 68.9759C36.1813 69.5539 36.1507 70.1422 36.0383 70.7202C35.9668 71.0814 35.9158 71.4427 35.977 71.8039C36.1098 72.5986 36.9064 73.0528 37.6621 73.1044C38.1932 73.1456 38.7038 73.094 39.1736 72.7844C39.4085 72.6193 39.6128 72.4025 39.8272 72.1961C40.1847 71.8349 40.5524 71.4839 40.9813 71.2259C41.5328 70.8853 42.0843 70.586 42.4519 70.0184C42.646 69.7294 42.7583 69.3578 42.6664 69.0172C42.6358 68.9037 42.5949 68.8005 42.5745 68.6869C42.5541 68.6044 42.5541 68.5321 42.5336 68.4599C42.52 68.3842 42.4894 68.3188 42.4417 68.2638Z" fill="#FFBDA7"/>
<path d="M35.7826 72.2374C35.6396 71.1227 36.0072 70.4312 36.1196 69.5952C36.8447 69.7397 37.8047 70.4312 39.2855 69.781C39.9596 70.4828 39.98 72.1961 39.98 72.1961C39.98 72.1961 39.3672 73.0734 38.346 73.2179C37.4472 73.3417 36.3749 73.2076 35.7826 72.2374Z" fill="#455A64"/>
<path d="M36.1191 69.5952L36.2008 68.8418C36.2008 68.8418 36.8749 69.2236 37.8553 69.2959C38.8357 69.3578 39.7345 68.8934 40.0613 68.4083L40.0204 69.2236C39.5608 69.9255 38.0187 70.6892 36.1191 69.5952Z" fill="#455A64"/>
<path d="M40.134 67.4897L40.0625 68.4083C40.0625 68.4083 40.5119 68.5734 40.9714 69.0791C41.4412 69.5952 41.6251 70.5138 41.5434 70.9989C41.5434 70.9989 42.1051 70.6892 42.3502 70.2248C42.3808 69.1823 42.0438 67.9851 40.134 67.4897Z" fill="#455A64"/>
<path d="M29.6546 67.0872C29.3789 66.9943 29.0725 66.9427 28.807 66.9014C28.6844 66.8911 28.5517 66.8498 28.4802 66.7466C28.4393 66.695 28.4291 66.6227 28.4189 66.5505C28.1636 65.1674 28.4904 63.7328 28.9908 62.422C29.2768 61.6583 31.0232 58.6239 31.1559 58.3762C31.1253 58.3658 26.6317 56.7454 26.6317 56.7454C26.6317 56.7454 26.55 57.4163 26.407 58.3349C26.2844 59.1812 26.0904 60.1204 25.5491 60.8429C25.3857 61.0596 24.7832 61.5654 24.5993 61.7821C24.3849 62.0401 24.1602 62.3704 24.0785 62.7007C23.9866 63.0723 24.1193 63.4851 24.1704 63.8567C24.2419 64.2385 24.6198 64.5998 24.6606 64.992C24.6912 65.2294 24.7219 65.4564 24.7832 65.6835C24.8444 65.9415 24.824 66.2615 24.8444 66.5298C24.8581 66.8257 24.8717 67.1216 24.8853 67.4174C24.8955 67.531 24.9261 67.6755 24.9057 67.789C24.8751 67.9129 26.744 68.9346 27.4895 69.3372C27.5304 69.3578 27.5815 69.3785 27.6223 69.3991C28.3066 69.6468 28.807 69.0585 28.807 69.0585C30.0938 68.8934 30.4104 68.109 30.4104 68.109C30.4512 67.5207 30.0938 67.242 29.6546 67.0872Z" fill="#FFBDA7"/>
<path d="M28.3686 66.2099C28.44 67.7271 27.1328 68.6869 27.1328 68.6869C27.1328 68.6869 27.2145 69.4094 27.9192 69.4094C27.9192 69.4094 29.1345 68.3567 29.012 66.9427C29.012 66.9427 28.5524 66.8807 28.3686 66.2099Z" fill="#455A64"/>
<path d="M24.0273 62.6078C24.1805 61.9885 24.7116 61.4209 25.1916 61.0493C25.6614 60.6778 26.0903 60.7294 26.7031 61.0493C27.3159 61.3693 27.5303 61.9989 27.5405 62.8142C27.561 63.6296 26.6112 65.6732 26.6112 65.6732C26.6112 65.6732 26.4478 62.8245 24.0273 62.6078Z" fill="#455A64"/>
<path d="M25.4785 60.9048L25.8564 60.3165C25.8564 60.3165 27.2249 60.3991 27.9602 61.2557C28.6853 62.1124 28.7977 62.969 28.7977 62.969L28.5219 63.9392C28.5219 63.9392 27.8989 61.3073 25.4785 60.9048Z" fill="#455A64"/>
<path d="M23.7927 62.9174C23.2923 63.1651 23.1697 63.9083 23.9152 64.8991C24.4871 65.6629 24.4974 66.2821 24.4361 66.9736C24.3544 67.758 24.3033 68.109 24.6097 68.3773C24.9263 68.656 27.3876 69.7397 27.3876 69.7397C27.3876 69.7397 26.8667 68.5631 26.7442 66.8498C26.6216 65.1262 26.1518 64.0321 25.3654 63.2787C24.5688 62.5252 23.7927 62.9174 23.7927 62.9174Z" fill="#263238"/>
<path d="M30.4107 68.1089C30.4107 68.1089 29.5018 68.9243 28.4193 69.0894C27.3469 69.2546 27.2856 68.8314 27.1222 67.5C26.9588 66.1789 26.5401 64.3417 26.009 63.547C25.478 62.7626 24.5997 62.4426 24.0278 62.6078C23.7725 62.7936 23.5682 62.9897 23.5273 63.1445C23.8337 62.969 24.5384 62.7832 25.2227 63.4541C25.9069 64.1353 26.4073 65.5596 26.489 66.8704C26.5605 68.1812 26.6729 69.7087 27.6839 69.8326C28.695 69.9564 29.7469 69.4713 30.4005 68.8624C30.7682 68.5218 30.4107 68.1089 30.4107 68.1089Z" fill="#37474F"/>
<path d="M29.8592 61.2351C29.8592 61.2351 30.5639 59.7282 32.6268 55.2488C34.026 52.2041 34.3017 51.0998 34.4958 50.078C34.7 49.0562 34.8226 47.1881 34.8226 47.1881L35.2311 51.5023C35.0166 52.844 34.4651 55.3624 34.8941 58.5619C35.3434 61.9472 35.9358 66.3544 35.9358 66.3544C36.2013 66.5711 37.5494 66.8394 38.2541 66.7775C39.9902 66.6537 40.7971 65.8177 40.7971 65.8177C40.7971 65.8177 41.7264 58.2832 41.9409 55.9507C42.4617 50.4495 42.5026 48.922 42.6047 42.5849C42.6966 37.0218 43.003 33.8842 41.5119 29.0952C37.723 30.8394 31.0336 30.0138 28.94 28.0321C28.5417 29.5596 27.7758 31.531 27.8677 34.9782C27.9698 38.9415 28.4805 46.3521 28.4805 46.3521C27.7451 49.0459 27.1732 51.0585 26.8158 54C26.5707 56.0333 26.2949 58.9748 26.2949 58.9748C29.0422 58.6961 29.8592 61.2351 29.8592 61.2351Z" fill="#455A64"/>
<path d="M39.9904 35.2465C39.7964 33.3475 39.4492 31.4277 38.8262 29.6112C38.9283 29.5837 39.027 29.5562 39.1223 29.5287C39.827 31.3555 40.2049 33.2752 40.4194 35.2259C41.41 34.6479 41.7062 33.5229 41.6857 32.6972C41.6653 32.2121 41.4202 30.9014 41.3385 30.4163C41.2874 30.086 41.6857 30.6846 41.6347 30.3337C41.89 31.3039 42.0023 32.3773 41.9104 33.2443C41.8287 34.1319 41.4406 35.0814 40.45 35.5562C40.6236 37.414 40.6543 39.2924 40.6747 41.1399C40.736 46.094 40.5828 51.0482 40.2457 55.9816C40.0823 58.2523 39.5717 64.3417 39.2551 66.6021C39.1326 66.6433 38.9964 66.6777 38.8466 66.7053C38.9998 64.7339 39.5921 58.9644 39.7453 56.9931C39.9292 54.5504 40.0619 52.1043 40.1436 49.6548C40.2321 47.1158 40.2696 44.5734 40.256 42.0275C40.2457 39.7672 40.2151 37.4965 39.9904 35.2465Z" fill="#37474F"/>
<path d="M34.8231 47.1881L33.8529 37.7752C33.8529 37.7752 32.5048 37.8578 30.4316 35.9381C30.4316 35.9381 30.7482 37.5482 32.9848 38.6835L34.1695 45.9495L34.4963 50.078C34.6904 48.695 34.8027 48.6124 34.8231 47.1881Z" fill="#37474F"/>
<path d="M34.2916 45.836C34.2507 45.6193 34.2303 45.3922 34.2201 45.1651C34.2064 44.9862 34.1996 44.8073 34.1996 44.6284C34.1588 44.9243 34.1145 45.2236 34.0669 45.5264C33.8013 47.0952 33.4235 48.6434 32.8924 50.1502C32.3511 51.6674 31.7384 53.1537 31.1358 54.6502C30.5537 56.1262 29.9511 57.5918 29.3179 59.0367C29.1954 59.336 29.1035 59.5837 28.9707 59.8727C29.0524 59.9553 29.1341 60.0688 29.2158 60.1514C29.2873 59.9862 29.3281 59.8418 29.3996 59.6766C30.043 58.2213 30.6558 56.7454 31.2482 55.2695C31.8405 53.7936 32.4226 52.328 32.9741 50.8418C33.5358 49.3452 33.9545 47.8177 34.2303 46.2489C34.2507 46.125 34.2711 46.0012 34.2916 45.8773C34.2916 45.8635 34.2916 45.8498 34.2916 45.836Z" fill="#37474F"/>
<path d="M38.9493 13.4587C38.3467 13.6961 37.7952 13.7064 37.1518 13.6858C36.8352 13.6755 36.5186 13.6548 36.2224 13.5619C35.865 13.4484 35.5893 13.211 35.3339 12.9427C35.191 12.7982 34.7212 12.2408 34.762 12.0344C34.6905 12.3957 34.7212 12.7775 34.8335 13.1285C34.0676 13.0665 33.3118 13.1491 32.5458 13.1285C31.9637 13.1078 31.4531 13.0975 30.8505 12.7466C30.4114 12.4885 30.0233 12.0035 29.9518 11.4874C29.8701 11.8177 29.8701 12.2099 30.0233 12.5711C29.431 12.1376 29.3493 11.4358 29.4514 10.8578C29.5535 10.2798 29.7884 9.73281 29.8803 9.15483C30.0846 7.95758 29.6556 6.70873 29.9007 5.5218C30.0437 4.86125 30.4012 4.24199 30.9016 3.76721C31.1365 3.54015 31.4122 3.33373 31.7084 3.18923C31.8105 3.13763 32.1782 3.06538 32.2395 2.97249C33.4446 1.35208 35.4054 1.44497 36.8556 1.74428C37.8871 1.97134 38.9186 2.64221 39.6437 3.40598C40.6241 4.41744 40.9918 5.88304 40.5629 7.31767C40.3995 7.87501 40.0012 8.23625 39.705 8.71102C39.3986 9.22708 39.2352 9.8257 39.225 10.4346C39.2148 11.3119 39.511 12.1789 40.0012 12.9117C39.6641 13.1285 39.3169 13.3142 38.9493 13.4587Z" fill="black"/>
<path d="M30.8612 7.91629C31.137 7.49312 31.7906 7.23509 32.2399 7.53441C32.7199 7.85436 32.6995 7.93693 32.8731 8.28785C33.057 8.64909 33.7106 8.56652 33.6799 7.70986C33.6391 6.72936 33.6187 5.65597 34.1293 4.96445C34.8238 4.03555 36.0084 4.33487 36.7131 4.76835C37.1216 4.15941 37.765 3.92202 38.3982 4.29358C38.8476 4.54129 39.4195 5.15023 39.5523 6.29587C39.6033 6.6984 39.5625 6.87386 39.5318 7.51376C39.5216 7.81308 39.5727 7.91629 39.6748 8.28785C40.0221 9.52638 39.8484 11.7248 38.8374 12.4163C38.388 12.7259 37.6936 12.9943 36.6212 12.922L36.4987 13.8096C36.4782 14.1502 36.7438 14.3257 37.2136 14.4908C36.6927 15.0378 34.2212 14.7695 33.3429 14.4702C32.2093 14.0677 32.2706 13.8819 32.2399 13.7787L32.628 11.0952C32.8016 10.672 32.9548 10.3934 32.965 10.0424C32.965 10.0424 32.8731 10.383 32.5361 10.4966C32.0459 10.672 31.525 10.445 31.1778 10.0011C30.5446 9.18578 30.5242 8.42202 30.8612 7.91629Z" fill="#FFBDA7"/>
<path d="M39.4092 6.89449L38.4492 6.6571C38.5105 6.37843 38.7658 6.21329 39.0313 6.28554C39.2969 6.34747 39.4705 6.62614 39.4092 6.89449Z" fill="#263238"/>
<path d="M36.3233 6.81192L35.3429 7.20412C35.2203 6.92545 35.3531 6.61582 35.6186 6.5126C35.8943 6.39907 36.2109 6.54357 36.3233 6.81192Z" fill="#263238"/>
<path d="M37.3457 6.96674L37.7031 9.45412L39.041 8.78325L37.3457 6.96674Z" fill="#F0997A"/>
<path d="M36.661 8.00916C36.6916 8.27751 36.4261 7.92659 36.1606 7.95756C35.895 7.99884 35.7418 8.41169 35.701 8.14334C35.6601 7.87499 35.844 7.62728 36.1095 7.59632C36.375 7.55504 36.6201 7.74081 36.661 8.00916Z" fill="#263238"/>
<path d="M39.3465 7.7718C39.3772 8.00919 39.1525 7.68923 38.9278 7.7202C38.6929 7.74084 38.5397 8.09175 38.5193 7.86469C38.4989 7.6273 38.6623 7.42088 38.8972 7.40024C39.1219 7.3796 39.3261 7.54474 39.3465 7.7718Z" fill="#263238"/>
<path d="M36.3964 10.0527C36.4067 10.0527 36.4169 10.0424 36.4271 10.0527C36.6313 10.1663 36.8049 10.3211 37.0398 10.3933C37.1488 10.4209 37.2577 10.4381 37.3667 10.4449C37.4211 10.4518 37.479 10.4518 37.5403 10.4449C37.6015 10.4449 37.673 10.4243 37.7343 10.4346C37.7854 10.4449 37.7649 10.5378 37.7343 10.5585C37.6118 10.6307 37.4381 10.6307 37.3054 10.6204C37.1624 10.6135 37.0262 10.586 36.8969 10.5378C36.7743 10.4862 36.6415 10.4243 36.5394 10.3314C36.4884 10.2901 36.3045 10.1147 36.3964 10.0527Z" fill="#B16668"/>
<path d="M36.6206 12.922C35.5891 12.7982 35.1602 12.6434 34.5474 12.2512C33.8734 11.8177 33.5159 11.1055 33.3219 10.4656C33.3219 10.4656 33.1687 11.7867 34.2513 12.633C35.2828 13.4484 36.5491 13.469 36.5491 13.469L36.6206 12.922Z" fill="#F0997A"/>
<path d="M31.8418 9.79471C31.8418 9.95985 31.9848 10.094 32.1482 10.094C32.3116 10.0837 32.4444 9.94953 32.4444 9.78439C32.4341 9.61925 32.3014 9.48508 32.138 9.48508C31.9746 9.48508 31.8418 9.62957 31.8418 9.79471Z" fill="#455A64"/>
<path d="M32.6269 25.5344C32.6269 25.5344 30.2269 26.1846 27.0201 26.1743C25.7844 26.164 24.9572 25.2351 25.0593 24.2443C25.284 22.18 26.1623 19.2179 26.6423 17.7833C27.4695 15.3062 28.4908 14.2018 29.9104 13.9541L30.8193 18.4851L29.604 21.8188L31.9631 21.4782L32.004 21.6434L32.6269 25.5344Z" fill="#FFBDA7"/>
<path d="M29.6045 21.8188C29.196 23.0883 28.6037 23.7592 28.1543 24.2443C29.3492 23.9966 30.1151 21.7466 30.1151 21.7466L29.6045 21.8188Z" fill="#F0997A"/>
<path d="M41.4609 24.2546C41.5732 24.0482 41.7775 23.8933 41.9511 23.7179C42.809 22.9128 43.1766 21.7362 43.0337 20.6216C43.0269 20.5665 43.02 20.5149 43.0132 20.4667C42.7988 19.2798 41.9 18.4438 41.1341 17.5046C40.4396 16.6376 38.6422 14.6766 38.6422 14.6766C38.6422 14.6766 37.2022 14.3773 36.4771 14.2431C34.312 13.8303 32.2183 13.758 32.2183 13.758C31.4728 13.758 30.4311 13.8612 29.9103 13.9541C29.9103 13.9541 29.0524 15.3372 28.7358 16.8647C28.6541 17.2982 28.3579 19.0011 28.8175 20.7041C28.9911 21.3647 29.706 23.8211 29.3792 25.7202C29.2056 26.6697 28.8175 28.2488 28.4805 29.3945C29.0013 30.1789 31.0643 31.3142 32.3 31.6032C38.1009 32.9862 41.2464 30.922 41.9 30.2924C41.9103 30.2408 41.226 26.2569 41.3383 24.8429C41.3486 24.6468 41.369 24.4404 41.4609 24.2546Z" fill="#DFF000"/>
<path opacity="0.1" d="M41.3394 24.8429C41.3496 24.6468 41.3701 24.4404 41.462 24.2546C41.5743 24.0482 41.7786 23.8933 41.9522 23.7179C42.8101 22.9128 43.1777 21.7362 43.0347 20.6216C43.0279 20.5665 43.0211 20.5149 43.0143 20.4667C42.9633 20.6422 42.9224 20.8073 42.9122 20.8486C42.8101 21.1479 42.6569 21.4369 42.473 21.7053C42.0952 22.242 41.5539 22.6755 40.9207 22.9335C40.5326 23.078 40.0935 23.1915 39.8688 23.5218C39.6135 23.8933 39.7565 24.4713 39.8484 24.8842C39.9607 25.4518 40.1445 25.9472 40.1547 26.5459C40.1752 27.5883 40.0935 28.641 39.8892 29.6732C39.7973 30.1686 39.4501 31.1388 39.2969 31.6238C40.073 31.4381 41.2475 30.9014 41.9011 30.2924C41.9113 30.2408 41.2271 26.2569 41.3394 24.8429Z" fill="black"/>
<path d="M53.5638 72.9392C53.7273 72.8979 53.6353 73.7959 53.5128 73.9713C53.3698 74.1777 53.1758 74.6009 52.0524 75.0241C50.929 75.4472 49.2949 75.4782 48.6004 75.5505C47.9162 75.633 46.9153 76.1284 46.2617 76.3761C44.7298 76.9438 43.4634 76.6445 42.9936 76.3245C42.8098 76.1904 42.5851 75.8498 42.5647 75.6537C42.5136 75.1892 42.6158 74.8899 42.6668 74.8899L53.5638 72.9392Z" fill="#263238"/>
<path d="M44.8924 76.211C45.5869 76.1801 46.2507 76.0046 46.8737 75.6846C47.4456 75.3957 47.895 75.148 48.5486 75.086C49.2635 75.0138 50.2644 74.9931 50.9588 74.8074C51.5614 74.6525 52.1435 74.4874 52.6644 74.1571C53.1035 73.8785 53.3588 73.5482 53.5733 73.0218C53.4712 72.1239 52.9605 71.7626 52.4295 71.5562C51.8678 71.3291 51.1937 71.1124 50.6014 71.2156C49.9376 71.3291 49.815 71.3601 49.621 71.422C49.2329 71.5356 48.181 71.5562 47.8644 71.3188C47.7418 71.2259 47.6193 71.133 47.415 70.9266C47.3231 70.8337 46.9452 70.9163 46.8227 70.8957C46.2814 70.7821 45.7299 70.6686 45.1784 70.6067C44.5656 70.5241 43.7997 70.3899 43.2788 70.8337C43.0746 71.0092 42.9622 71.2879 42.9214 71.5562C42.8703 71.8349 42.8805 72.1135 42.8397 72.3922C42.7784 72.8876 42.5946 73.3624 42.4924 73.8578C42.3699 74.4874 42.4414 75.3234 43.0031 75.7259C43.5341 76.0975 44.249 76.242 44.8924 76.211Z" fill="#37474F"/>
<path d="M49.6211 71.422C49.8968 71.3704 50.4279 71.5459 51.1428 72.3509C51.7556 73.0321 51.9292 74.5184 51.9292 74.5184C51.9292 74.5184 52.736 74.3326 53.3488 73.5379C53.5224 73.3211 53.6245 73.1456 53.6653 72.9908C53.6449 72.4129 53.2568 71.8968 52.9811 71.6594C52.5011 71.2362 51.7964 70.9885 50.8058 71.0917C49.7028 71.2053 49.6211 71.422 49.6211 71.422Z" fill="#263238"/>
<path d="M43.9223 66.4163L43.3708 71.1537C43.2074 71.5149 43.7895 71.9897 44.9742 72.1961C45.7912 72.3406 47.3844 72.0413 47.6704 71.6801L48.998 67.2729L43.9223 66.4163Z" fill="#FFA8A7"/>
<path d="M55.9023 77.5631C55.8751 77.5837 55.8546 77.6112 55.841 77.6456C55.7798 77.8211 55.7491 77.8624 55.7491 77.8624C55.7287 78.0895 55.6878 78.461 55.9125 78.7913C56.0249 78.9667 56.3312 79.1216 56.5355 79.2041C57.4342 79.5757 58.4044 79.555 59.2215 78.9874C59.4155 78.8532 59.6198 78.6881 59.7832 78.5229C60.0487 78.2443 60.1304 78.1307 60.2427 78.0069C60.4061 77.8314 60.6308 77.625 60.7636 77.5218C61.1925 77.2225 61.6827 77.0057 62.0606 76.6342C62.4487 76.2523 62.6734 75.9839 62.7449 75.4163C62.8061 74.9725 62.8266 74.4255 62.7142 73.992C62.6632 73.8165 62.5712 73.6204 62.4078 73.6101C62.2444 73.5895 62.1219 73.7546 62.03 73.8991C61.3559 74.9209 60.5695 75.8704 59.5789 76.5619C58.6291 77.2122 57.4955 77.625 56.3517 77.5424C56.2393 77.5321 56.0146 77.4908 55.9023 77.5631Z" fill="#263238"/>
<path d="M57.5054 79.0493C58.0876 79.0803 58.6186 78.9977 59.1088 78.6468C59.3744 78.4713 59.5888 78.2443 59.8135 78.0172C60.1914 77.625 60.5897 77.2534 61.0493 76.9644C61.2637 76.8303 61.4884 76.7271 61.6927 76.5722C62.2544 76.1491 62.5812 75.4576 62.6833 74.7454C62.7344 74.4151 62.7344 74.0642 62.6323 73.7443C62.3974 73.0218 61.6314 72.6605 60.9165 72.7328C60.5999 72.7534 60.3037 72.867 60.0076 72.9908C59.8442 73.0734 59.6808 73.156 59.5276 73.2489C59.405 73.3314 59.2927 73.4243 59.1701 73.4966C58.9046 73.6514 58.6186 73.6617 58.3225 73.6823C57.8629 73.7133 57.4135 73.7236 56.9642 73.7546C56.6169 73.7752 56.0757 73.7133 55.9327 74.1055C55.8714 74.281 55.8918 74.4667 55.902 74.6525C55.9293 74.9346 55.9361 75.2167 55.9225 75.4989C55.9123 75.7878 55.8612 76.0356 55.8203 76.3142C55.7488 76.7993 55.7182 77.2947 55.7386 77.7798C55.7591 78.2236 55.851 78.4507 56.3003 78.7087C56.6578 78.9255 57.0969 79.0287 57.5054 79.0493Z" fill="#37474F"/>
<path d="M61.7948 76.4897C61.8459 76.0872 61.4986 74.7248 60.7429 74.0642C59.9872 73.3933 59.3438 73.3211 59.3438 73.3211C59.3438 73.3211 60.1506 72.6812 60.9778 72.6709C61.8152 72.6709 62.571 73.0631 62.7037 73.9197C62.8365 74.7764 62.7037 75.8188 61.7948 76.4897Z" fill="#263238"/>
<path d="M55.5039 68.914C55.5039 68.914 55.9941 73.5482 56.0554 74.508C56.086 74.9106 57.0052 75.375 58.3022 75.2924C59.2111 75.2408 59.7933 74.7248 59.8954 74.281C59.9975 73.8372 60.2835 69.0379 60.2835 69.0379L55.5039 68.914Z" fill="#FFA8A7"/>
<path d="M44.1977 60.492C44.4735 58.7993 45.413 55.4037 45.6377 54.1239C45.6377 54.1239 46.0258 44.422 46.0258 41.5115C46.0258 37.445 46.4343 35.3601 46.4343 35.3601L61.0079 36.0413C61.0079 36.0413 61.4267 42.1204 61.4471 48.0241C61.4675 51.6674 61.4879 54.836 61.2939 60.234C61.1407 64.3521 60.4258 72.8567 60.4258 72.8567C60.4258 72.8567 59.4454 73.2592 57.8113 73.2695C56.4326 73.2798 55.4011 72.9392 55.4011 72.9392C55.4011 72.9392 54.5535 62.5562 54.4922 59.9966C54.4718 59.0367 53.2973 53.2569 53.2973 53.2569C53.042 56.0126 50.9075 62.1227 50.642 63.0826C49.7739 66.3337 48.3747 70.1009 48.3747 70.1009C46.4445 70.7512 44.2386 70.0596 43.3398 69.4197C43.5032 67.0665 43.6769 63.7535 44.1977 60.492Z" fill="#455A64"/>
<path d="M60.5689 72L60.4668 73.1869C60.4668 73.1869 59.854 73.7443 57.8217 73.7133C55.7995 73.6823 55.3502 73.1456 55.3502 73.1456L55.248 71.8658C57.117 72.3922 58.7306 72.5057 60.5689 72Z" fill="#263238"/>
<path d="M48.743 69.1514L48.2834 70.5034C48.2834 70.5034 47.2315 70.906 45.434 70.6066C43.6366 70.3073 43.2383 69.6881 43.2383 69.6881L43.3404 68.2741C44.8315 69.0172 46.5064 69.3888 48.743 69.1514Z" fill="#263238"/>
<path d="M48.375 42.2546C48.375 42.2546 48.5895 43.7511 51.449 44.8761L52.7563 53.5975L52.2559 57.9014C52.7359 56.219 53.175 54.4851 53.2873 53.3291C53.2941 53.2878 53.2976 53.25 53.2976 53.2156L52.1741 44.164C52.1741 44.164 50.5707 44.0608 48.375 42.2546Z" fill="#263238"/>
<path d="M33.7511 27.9392C33.7306 27.9254 33.7068 27.9117 33.6796 27.8979C33.3119 27.7225 32.883 27.5573 32.5562 27.3199C32.4234 27.2271 32.3315 27.0929 32.2396 26.9587C32.1647 26.8486 32.0864 26.7385 32.0047 26.6284C31.9536 26.5459 31.8923 26.4736 31.8719 26.3807C31.8515 26.3394 31.8515 26.2878 31.8311 26.2465C31.8004 26.133 31.7085 26.0608 31.6166 25.9782C31.4532 25.8131 31.3102 25.6273 31.1979 25.4312C31.157 25.3693 31.0957 25.266 31.0651 25.1732C31.0345 25.0803 31.0345 24.9564 31.106 24.8222C31.0651 24.7397 30.9936 24.6571 30.9425 24.5745C30.8608 24.461 30.7894 24.3165 30.8302 24.1926C30.8813 24.0585 31.0447 23.9862 31.1877 24.0069C31.3204 24.0172 31.4532 24.0998 31.5655 24.172C32.066 24.4816 32.6889 24.9564 33.1894 25.266C33.0566 25.1215 32.8728 24.9048 32.8013 24.8326C32.4847 24.4713 32.26 24.1307 31.9434 23.7798C31.9128 23.7282 31.8719 23.6766 31.8617 23.625C31.8617 23.5011 32.0455 23.4186 32.1477 23.4082C32.4132 23.3773 32.7196 23.6147 32.9238 23.7695C33.1587 23.9553 33.3732 24.1617 33.6081 24.3578C33.8736 24.5745 34.1494 24.7603 34.4455 24.9151C34.6498 25.0183 34.8438 25.1319 35.0583 25.2041C35.0991 25.2248 35.2728 25.2867 35.3136 25.2248C35.3647 25.1628 35.1502 24.9564 35.0991 24.8945C34.997 24.75 34.8949 24.6055 34.803 24.4507C34.6804 24.2236 34.5783 23.9759 34.6191 23.6972C34.6396 23.5631 34.7213 23.4289 34.8438 23.3566C34.8745 23.3463 34.9051 23.336 34.9357 23.336C34.9766 23.3463 35.0174 23.3773 35.0481 23.4082C35.2319 23.5837 35.4157 23.7901 35.5894 23.9862C35.7868 24.1926 35.9911 24.3922 36.2021 24.5849C36.5698 24.9254 36.9783 25.2144 37.3357 25.5654C37.5196 25.7511 37.6932 25.9576 37.8566 26.164C38.3162 26.742 39.0413 26.8245 39.7051 26.9897C40.1545 27.0929 40.9613 27.2477 41.6557 27.3716C42.2787 25.9782 44.5664 21.922 45.506 20.539C46.4966 19.0837 47.3136 19.1766 49.203 18.9392L48.1817 25.5241C48.1817 25.5241 45.9859 29.1674 44.9136 30.4163C43.8413 31.6651 42.6566 31.4277 41.4004 31.0665C40.0932 30.6949 37.8362 29.5287 36.58 28.992C35.6506 28.5998 34.6702 28.3624 33.7511 27.9392Z" fill="#FFA8A7"/>
<path d="M34.2724 25.9885C34.0478 25.8234 33.8129 25.6686 33.578 25.5034C33.4554 25.414 33.3329 25.3211 33.2103 25.2248C33.1422 25.1697 33.0741 25.1147 33.0061 25.0596C33.0673 25.1319 33.1388 25.2041 33.1899 25.2661C33.115 25.2179 33.0333 25.1663 32.9448 25.1112C33.1184 25.2867 33.3227 25.4415 33.5167 25.586C33.7516 25.7511 33.9967 25.906 34.2622 26.0092C34.2827 26.0195 34.2827 25.9885 34.2724 25.9885ZM32.9754 26.2053C32.7303 26.0608 32.4988 25.8991 32.2809 25.7202C32.0563 25.555 31.8316 25.3796 31.6273 25.1938C31.4129 25.0183 31.2188 24.8326 31.0044 24.6468C30.9975 24.6468 30.9941 24.6468 30.9941 24.6468C31.035 24.7087 31.0758 24.7603 31.0963 24.8222C31.2597 24.9977 31.4435 25.1628 31.6171 25.3177C31.835 25.5172 32.0597 25.7064 32.2912 25.8853C32.5158 26.0608 32.7405 26.2156 32.9856 26.3601C33.2103 26.4943 33.4758 26.6594 33.7414 26.6904C33.772 26.7007 33.7618 26.6491 33.7516 26.6388C33.4963 26.4736 33.2205 26.3601 32.9754 26.2053ZM33.1592 27.1445C33.0061 27.0516 32.8529 26.9484 32.6895 26.8452C32.5329 26.7489 32.3831 26.6422 32.2401 26.5252C32.0869 26.4014 31.9235 26.2775 31.7805 26.1433C31.8009 26.1778 31.818 26.2122 31.8316 26.2466C31.8452 26.2741 31.8554 26.3016 31.8622 26.3291C31.9337 26.4117 32.0052 26.4943 32.0971 26.5665C32.2401 26.6904 32.4035 26.8039 32.5669 26.9174C32.7303 27.0206 32.8937 27.1032 33.0673 27.1961C33.2409 27.289 33.4146 27.3819 33.6086 27.4438C33.6188 27.4541 33.629 27.4128 33.6188 27.4025C33.4656 27.3096 33.3124 27.2374 33.1592 27.1445Z" fill="#F28F8F"/>
<path d="M49.6103 18.7018C47.7822 18.8567 46.2298 18.9702 45.2698 20.7248C44.9737 21.2615 41.5524 27.258 41.5524 27.258L39.9796 27.031C39.9796 27.031 39.0094 27.2168 38.989 28.6927C38.9788 29.1881 39.0809 29.6525 39.2443 30.2924C39.8469 30.6124 41.1132 31.0872 41.9405 31.3762C43.4724 31.9232 44.0954 31.6445 44.6979 30.9324C45.8724 29.5493 49.2222 25.1319 49.3549 24.7603C49.4366 24.5436 49.6613 24.1204 49.6613 23.914L49.6103 18.7018Z" fill="#DFF000"/>
<path d="M55.2685 17.5665L55.1256 21.4472L50.2949 20.6835L50.7034 16.6376L55.2685 17.5665Z" fill="#FFA8A7"/>
<path d="M57.6075 11.0746C57.9139 11.57 58.6594 12.9014 58.8534 13.5103L57.7505 14.0367C57.4849 12.8704 57.3215 11.797 57.6075 11.0746Z" fill="#F28F8F"/>
<path d="M55.4231 7.78211C56.8835 7.78211 58.201 9.31996 57.6699 11.6732C57.6393 11.7867 57.7414 12.3234 57.8231 12.7982C58.1805 14.8417 57.9456 16.6479 57.5576 17.1124C56.6588 17.7007 55.5967 17.9381 54.269 17.6697C53.258 17.4736 50.6946 16.8647 49.5303 15.3268C48.1618 13.5103 47.6512 10.961 48.8971 9.80505C50.6435 8.17431 54.6265 7.77179 55.4231 7.78211Z" fill="#FFA8A7"/>
<path d="M57.5572 17.1124C57.3427 17.3704 56.0968 18 55.2695 17.9587V17.4323C55.2695 17.4323 56.4338 17.5149 57.5572 17.1124Z" fill="#F28F8F"/>
<path d="M56.1685 13.2007C56.046 13.4278 55.8111 13.4174 55.6885 13.2213C55.5353 12.9943 55.4332 12.7466 55.229 12.5505C55.0043 12.3234 54.6979 12.1583 54.3813 12.1479C53.166 12.1067 53.2783 13.7477 53.8094 14.367C54.6775 15.3888 55.28 14.656 55.28 14.656C55.28 14.656 55.5558 16.3796 54.4426 17.1743C54.4426 17.1743 52.0221 17.6594 50.6945 17.0814C49.7958 15.8429 49.183 15.0585 48.6009 14.0264C47.2221 11.5596 47.4673 9.30964 48.5804 8.78327C48.6111 7.9679 49.183 6.80162 50.8987 6.28556C52.543 5.79015 53.5847 5.97593 54.7081 6.17203C55.8315 6.35781 57.1592 7.039 58.3132 6.27524C58.5073 6.93579 58.3541 7.68923 57.9149 8.23625C58.2724 8.1124 58.6911 8.32914 58.8136 8.68006C58.9362 9.03097 58.7319 9.46446 58.3847 9.59863C58.6094 9.73281 58.6809 10.0528 58.5685 10.2901C58.4562 10.5275 58.1907 10.672 57.9353 10.6617C57.6596 10.6514 57.486 10.6101 57.2307 10.5379C57.2409 11.0952 56.5464 11.6319 55.9336 11.5184C55.9541 11.5184 56.0153 11.6525 56.0256 11.6732C56.0596 11.7282 56.0868 11.7867 56.1073 11.8486C56.1549 11.9656 56.1924 12.086 56.2196 12.2099C56.2707 12.4679 56.2707 12.7259 56.2196 12.9736C56.2094 13.0562 56.2094 13.1285 56.1685 13.2007Z" fill="black"/>
<path d="M48.1923 19.2282C47.0076 19.9094 45.7106 21.7362 45.7208 23.8417C45.7208 25.039 46.0271 27.9805 46.1191 30.6227C46.1497 31.4794 45.8127 38.3945 45.8127 38.3945C45.8127 38.3945 48.2127 40.5826 52.9616 40.9025C58.5582 41.2741 61.3769 39.7362 61.3769 39.7362C61.3769 39.7362 61.2033 34.1835 61.0297 30.5298C60.7846 25.1216 60.8969 23.8211 60.0391 21.9943C59.7531 21.4473 59.3446 20.7041 58.4663 20.3635L55.1982 19.4346C53.8501 19.7443 51.1948 19.3314 50.4901 18.7431L50.5106 18.5573C49.234 18.6812 48.9276 18.805 48.1923 19.2282Z" fill="#DFF000"/>
<path d="M71.8963 77.7488C71.9303 77.7695 71.9542 77.797 71.9678 77.8314C72.0291 78.0172 72.2027 78.0275 72.1822 78.2133C72.2742 78.3888 72.1925 78.7706 72.0393 78.9358C71.8963 79.1009 71.4571 79.3899 71.2529 79.4828C70.3337 79.8853 69.1797 79.7615 68.3218 79.1938C68.1278 79.0596 67.9644 78.9358 67.8214 78.7397C67.6784 78.5436 67.5457 78.3371 67.3822 78.1617C67.2597 78.0275 67.1269 77.914 66.9839 77.8211C66.5346 77.5218 66.0239 77.3257 65.6256 76.9541C65.2171 76.5722 64.8801 76.0975 64.7984 75.5195C64.7269 75.055 64.6963 74.6422 64.8086 74.1984C64.8597 74.0229 64.9516 73.8165 65.1252 73.8062C65.2886 73.7855 65.4214 73.9404 65.5235 74.0849C66.2282 75.1273 67.0657 76.0975 68.0971 76.789C69.0776 77.4495 70.2622 77.8417 71.4367 77.7385C71.549 77.7282 71.7839 77.6766 71.8963 77.7488Z" fill="#263238"/>
<path d="M72.1706 76.6239C72.0991 76.1697 72.0378 75.7672 72.0276 75.3131C72.0276 75.0963 72.0582 74.9415 72.0582 74.7248C72.048 74.4668 71.9153 73.9197 71.568 73.8888C70.894 73.8269 70.0157 73.8269 69.3314 73.7959C69.0148 73.7856 68.7289 73.7752 68.4531 73.6204C68.3306 73.5482 68.2182 73.4656 68.1059 73.3934C67.728 72.9702 66.8191 72.6915 66.0531 72.867C65.6344 72.9599 65.2361 73.1973 65.0012 73.5688C64.6642 74.1158 64.7357 74.797 64.9399 75.3853C65.1238 75.953 65.4199 76.4897 65.9204 76.8406C66.1246 76.9954 66.3595 77.0986 66.5842 77.2328C67.0642 77.5218 67.4727 77.9037 67.8812 78.2959C68.1059 78.523 68.3408 78.75 68.6063 78.9358C69.1272 79.2764 69.7502 79.328 70.3425 79.2867C70.7612 79.2558 71.1595 79.1422 71.5272 78.9255C71.9153 78.7087 72.1399 78.492 72.2216 78.0482C72.2931 77.6973 72.2625 77.1193 72.1706 76.6239Z" fill="#37474F"/>
<path d="M83.2715 68.2535C83.2715 68.2535 82.4851 63.9186 82.1787 61.7718C81.8417 59.367 81.5047 57.5195 80.5651 55.5275C80.5651 55.5275 81.0349 45.9702 81.0655 41.7798C81.1064 37.7752 79.2477 33.5229 79.2477 33.5229C76.9702 35.6078 70.3932 36.1652 66.2774 34.328C65.7055 38.1881 65.2868 42.8842 65.5728 48.5401C65.92 55.2385 66.0528 56.0023 66.5123 62.4014C66.686 64.8785 67.9115 74.4255 67.9523 74.5803C68.0647 75.0241 68.7694 75.4885 69.6374 75.5092C70.863 75.5401 71.7004 74.9828 71.7106 74.5803C71.7106 74.5803 72.5072 68.656 72.8238 65.0642C73.0894 62.1537 72.8851 59.367 72.6502 57.953L73.3855 52.07C73.3855 52.07 73.8043 55.5998 74.0187 56.6835C74.2434 57.7569 74.703 59.6869 76.2962 62.8865C78.4102 67.1285 80.5038 70.9885 80.5038 70.9885L83.2715 68.2535Z" fill="#C8856A"/>
<path d="M84.8144 69.4713C84.6817 69.2443 84.4978 69.0172 84.1098 68.7282C83.7421 68.4496 83.5583 68.336 83.3846 67.9542C83.3336 67.8303 83.2315 67.7374 83.1191 67.6652C82.9863 67.5826 82.8229 67.5723 82.6595 67.5826C82.2204 67.6136 81.7812 67.7374 81.3932 67.9438C81.1685 68.078 80.954 68.2225 80.76 68.3876C80.4842 68.6044 80.2289 68.8418 80.0246 69.1204C79.8204 69.4094 79.7795 69.6675 79.8204 70.0184C79.8919 70.6376 80.1676 71.0195 80.331 71.7007C80.4127 72.0723 80.4127 72.8257 80.3923 73.2076C80.3855 73.4278 80.3753 73.6514 80.3617 73.8785C80.3617 73.9713 80.3515 74.0849 80.3004 74.1674C80.2085 74.3326 80.0144 74.2913 79.8612 74.3119C79.6468 74.3326 79.4323 74.3945 79.2281 74.4771C79.2281 74.484 79.2246 74.4874 79.2178 74.4874C79.1089 74.5356 79.0034 74.5941 78.9012 74.6629C78.0536 75.2099 78.1455 75.953 78.1455 75.953C78.1455 75.953 78.5438 76.82 80.0144 76.9335C80.0144 76.9335 80.6272 77.5631 81.3932 77.2535C81.4442 77.2225 81.4953 77.2019 81.5463 77.1709C82.3838 76.6961 84.4672 75.4679 84.4263 75.3337C84.3957 75.2099 84.4263 75.0344 84.4263 74.9106C84.4263 74.5803 84.4298 74.2535 84.4366 73.9301C84.4366 73.6308 84.3957 73.2798 84.457 72.9908C84.5183 72.7225 84.5387 72.4748 84.5591 72.2064C84.5898 71.773 84.6408 71.3601 84.7021 70.9266C84.7532 70.5035 85.0289 69.8532 84.8144 69.4713Z" fill="#37474F"/>
<path d="M85.2235 69.8119C85.6218 69.9564 85.3971 71.0917 85.1622 72.1342C84.9171 73.1766 84.7946 73.5378 84.9273 74.4048C85.0601 75.2615 85.1316 75.6537 84.7844 75.9736C84.4371 76.2936 81.6797 77.625 81.6797 77.625C81.6797 77.625 82.221 76.2936 82.272 74.3738C82.3231 72.4644 82.4456 71.2259 83.3137 70.3486C84.1818 69.4713 85.2235 69.8119 85.2235 69.8119Z" fill="black"/>
<path d="M78.1452 75.953C78.1452 75.953 79.2278 76.8199 80.4635 76.9541C81.6993 77.0883 81.7605 76.6032 81.8729 75.117C81.9954 73.641 82.0261 71.5872 82.5878 70.6892C83.1597 69.781 84.3035 69.3578 84.6916 69.4404C84.7631 69.3991 85.1001 69.6365 85.2227 69.8119C85.2227 69.8119 84.2423 69.7706 83.4763 70.5447C82.7103 71.3085 82.5878 72.9186 82.5674 74.3842C82.5469 75.8498 82.4959 77.5424 81.3418 77.7385C80.198 77.9243 78.9623 77.4392 78.1963 76.7993C77.7469 76.4381 78.1452 75.953 78.1452 75.953Z" fill="#263238"/>
<path d="M81.486 39.1686C81.1694 37.2385 80.4851 35.5871 80.1787 34.5963C79.2187 35.164 77.983 35.6078 76.8902 35.9277C75.6953 36.289 74.4391 36.4954 73.183 36.5676C72.1311 36.6399 71.0791 36.5883 70.0272 36.516C69.1796 36.4644 68.3319 36.3922 67.4945 36.2167C67.1166 36.1342 66.7285 36.0309 66.3711 35.8761C66.2179 35.8039 66.0545 35.711 65.9217 35.5975C64.9106 41.8417 64.6757 46.5275 64.88 51.0069C65.2477 51.3165 65.7379 51.5745 66.32 51.7913C66.463 48.664 67.137 45.4335 67.137 45.4335C67.137 45.4335 67.3617 49.9438 68.0255 52.2248C72.4987 53.133 79.474 52.3796 81.9251 50.7076C82.4357 44.8142 81.9047 41.6766 81.486 39.1686Z" fill="#455A64"/>
<path d="M96.2827 21.2202C96.3338 21.0963 96.3746 20.9415 96.3032 20.8177C96.2317 20.7041 96.0581 20.6732 95.9253 20.7144C95.7925 20.7661 95.6802 20.8589 95.5883 20.9622C95.1593 21.3647 94.6487 21.9633 94.23 22.3761C94.3219 22.211 94.4649 21.953 94.5159 21.8704C94.7508 21.4576 94.8938 21.0654 95.1287 20.6525C95.1593 20.6009 95.19 20.5493 95.1798 20.4874C95.1593 20.3635 94.9653 20.3222 94.8632 20.3326C94.5874 20.3635 94.3423 20.6628 94.1789 20.8486C93.9849 21.086 93.8112 21.344 93.6274 21.5814C93.4129 21.8394 93.1781 22.0872 92.9227 22.3039C92.7491 22.4484 92.5857 22.5929 92.3917 22.7167C92.3508 22.7374 92.1976 22.8406 92.1466 22.789C92.0751 22.7374 92.2487 22.4897 92.2793 22.4174C92.3508 22.2523 92.4223 22.0872 92.4734 21.922C92.5551 21.6743 92.5959 21.406 92.504 21.1479C92.453 21.0241 92.3508 20.9002 92.2181 20.8693C92.1772 20.8589 92.1466 20.8589 92.1159 20.8693C92.0751 20.8796 92.0547 20.9209 92.024 20.9518C91.8708 21.1686 91.7483 21.406 91.6155 21.633C91.4657 21.8807 91.3091 22.1216 91.1457 22.3555C90.8495 22.758 90.6759 22.9128 90.39 23.336C90.247 23.5527 90.0019 24.203 89.8385 24.4197C89.4402 24.9358 85.0691 26.2775 85.0691 26.2775C85.0691 26.2775 84.1806 25.1835 82.6078 23.0161C81.2393 21.1273 80.6164 20.2087 78.39 19.8991L78.2266 25.8647C78.2266 25.8647 81.1372 29.0126 82.6385 30.1995C83.4861 30.8704 84.1806 31.5722 86.121 30.5711C88.1023 29.539 90.9721 27.5883 91.7176 27.0929C92.6266 26.4839 93.3006 25.9782 94.1176 25.3693C94.1381 25.3486 94.1585 25.3314 94.1789 25.3177C94.5057 25.07 95.0061 24.5539 95.2717 24.2443C95.384 24.1204 95.4453 23.9759 95.5066 23.8211C95.561 23.6972 95.6155 23.5734 95.67 23.4495C95.7108 23.367 95.7415 23.2741 95.7517 23.1812C95.7517 23.1399 95.7517 23.0883 95.7619 23.047C95.7721 22.9335 95.8436 22.8303 95.9049 22.7374C96.0376 22.5413 96.1398 22.3245 96.2112 22.1078C96.2317 22.0459 96.2827 21.9323 96.2827 21.8291C96.2929 21.7362 96.2725 21.6124 96.1806 21.4988C96.1908 21.406 96.2419 21.3131 96.2827 21.2202Z" fill="#C8856A"/>
<path d="M93.3328 23.336C93.5779 23.1709 93.7822 22.9748 93.9762 22.758C94.1396 22.5723 94.303 22.3762 94.4358 22.1697C94.3609 22.2385 94.2928 22.3074 94.2315 22.3762C94.2724 22.3039 94.3132 22.2213 94.3643 22.1388C94.3098 22.2076 94.2554 22.2764 94.2009 22.3452C94.1056 22.4622 94.0034 22.5791 93.8945 22.6961C93.7107 22.9025 93.5064 23.0986 93.3226 23.3051C93.3124 23.3154 93.3226 23.336 93.3328 23.336ZM93.966 23.8314C93.9558 23.8521 93.966 23.9037 93.9864 23.8934C94.2417 23.7902 94.4664 23.5837 94.6605 23.3979C94.8647 23.2122 95.0588 23.0057 95.2324 22.789C95.4298 22.5619 95.6137 22.328 95.7839 22.0872C95.9166 21.9014 96.0596 21.7053 96.1822 21.4989C96.1924 21.4369 96.223 21.3647 96.2434 21.3028C96.0698 21.5298 95.9064 21.7569 95.743 21.9736C95.5796 22.1904 95.3958 22.4174 95.2222 22.6239C95.0383 22.844 94.8443 23.0539 94.64 23.2535C94.4256 23.4599 94.1805 23.625 93.966 23.8314ZM94.2622 24.5642C94.2519 24.5746 94.2622 24.6055 94.2724 24.5952C94.446 24.492 94.5992 24.3681 94.7524 24.234C94.9056 24.1101 95.0485 23.9863 95.1813 23.8521C95.3141 23.7179 95.4571 23.5631 95.5694 23.4083C95.6409 23.3257 95.7022 23.2328 95.7532 23.1296C95.7532 23.1021 95.7566 23.0746 95.7634 23.047C95.7634 23.0057 95.7736 22.9679 95.7941 22.9335C95.6817 23.0883 95.549 23.2431 95.4162 23.3979C95.3005 23.5424 95.1779 23.6835 95.0485 23.8211C94.9158 23.9553 94.783 24.0791 94.6502 24.203C94.5175 24.3268 94.3847 24.4404 94.2622 24.5642Z" fill="#AF6152"/>
<path d="M68.1683 12.5504C68.1683 12.5504 66.9938 14.2225 67.1164 14.3773C67.2287 14.5218 67.8211 14.6869 67.8211 14.6869L68.1683 12.5504Z" fill="#AF6152"/>
<path d="M70.8529 8.47361C70.0767 8.85549 68.7286 9.24769 68.0955 11.4771C67.9831 11.8589 68.1261 12.4576 68.0648 12.9426C67.9831 13.4897 67.738 14.0883 67.7278 14.5218C67.6257 16.8027 68.2589 17.6904 68.6469 18.0722C68.9533 18.3819 70.5772 18.516 71.4248 18.2683C72.4869 17.9587 74.795 16.875 75.898 15.141C77.195 13.1078 77.5014 10.3727 76.0614 9.26834C74.0393 7.72017 71.6291 8.10205 70.8529 8.47361Z" fill="#C8856A"/>
<path d="M68.3418 15.6888C68.3418 15.6775 68.3531 15.6775 68.3418 15.6888V15.6888Z" fill="#FFA8A7"/>
<path d="M67.9438 15.8119C68.097 15.75 68.2195 15.6365 68.3523 15.5436C68.3727 15.5229 68.4135 15.5023 68.434 15.5229C68.4408 15.5298 68.4476 15.5401 68.4544 15.5539C68.4748 15.6571 68.4033 15.7087 68.3318 15.7706C68.3012 15.8016 68.2604 15.8326 68.2093 15.8635C68.1684 15.8842 68.1242 15.9014 68.0765 15.9151C68.005 15.9461 67.8927 15.9667 67.8212 15.9254C67.811 15.9151 67.8008 15.9048 67.8008 15.8842C67.811 15.8738 67.8212 15.8635 67.8314 15.8635C67.8655 15.8429 67.9029 15.8257 67.9438 15.8119Z" fill="#AF6152"/>
<path d="M68.7285 18.1342C69.1064 18.3509 70.1787 18.4541 70.9855 18.3509L71.1898 17.6904C71.1898 17.6904 70.526 17.9484 69.903 18.0826C69.28 18.2064 68.7387 18.1342 68.7285 18.1342Z" fill="#AF6152"/>
<path d="M70.9551 17.5768V20.9312L75.704 20.2397L75.5304 17.5459L70.9551 17.5768Z" fill="#C8856A"/>
<path d="M69.7818 7.25574C69.6797 7.27638 69.5673 7.2867 69.4652 7.31766C69.0465 7.43119 68.6482 7.62729 68.3009 7.90596C67.7086 8.39106 67.3103 9.1445 67.3205 9.91858C67.3307 10.6927 67.7699 11.4667 68.4643 11.797C68.4439 11.4564 68.5154 11.1158 68.6686 10.8268C68.495 11.1468 68.7605 11.7145 68.9545 11.9622C69.2711 12.3544 69.598 12.2615 70.0269 12.406C69.8839 12.6846 69.8328 13.0252 69.8941 13.3349C69.9043 13.4278 69.935 13.5206 69.9963 13.5929C70.1597 13.7787 70.3843 13.6032 70.5069 13.4587C70.5886 13.3555 70.6601 13.242 70.7418 13.1491C70.9767 12.8498 71.1197 12.695 71.5997 12.6227C71.9469 12.5608 72.4167 12.8601 72.5188 13.1491C72.7333 13.7787 72.5086 14.4599 72.2941 14.7695C72.0184 15.1927 71.6814 15.43 71.3545 15.4404C71.1809 15.4404 70.7928 15.3578 70.6601 15.1204C70.6601 15.1204 71.0788 17.4633 72.5903 18.1755C72.5903 18.1755 74.0711 18.6606 75.5724 18.1342C75.8379 17.8349 76.7367 16.4622 77.6763 14.945C78.3605 13.8509 78.5545 12.5298 78.5239 11.219C78.4728 9.29931 76.7469 7.6789 75.0618 7.0906C74.3162 6.84289 73.5299 6.72936 72.7435 6.75C72.0797 6.76032 71.1809 6.79129 70.5784 7.0906C70.3435 7.21445 70.0575 7.22477 69.7818 7.25574Z" fill="black"/>
<path d="M66.4623 30.5401C66.544 31.7064 66.35 32.9243 66.35 32.9243C66.2274 33.781 65.8291 35.6904 65.7168 36.4851C66.9321 37.383 69.853 38.508 73.4683 38.1674C77.4921 37.7959 79.9125 36.3819 80.4844 35.4014C80.1372 34.1938 79.2283 31.8406 79.4836 29.5906C79.6878 27.7638 79.6061 22.2523 78.3908 19.8991C78.3908 19.8991 77.4002 19.7959 75.6334 19.7236C75.6334 19.7236 73.1415 19.7856 70.9866 20.1571C70.721 20.2397 69.6896 20.508 69.2708 20.6112C69.2708 20.6112 62.2853 27.3716 66.4623 30.5401Z" fill="#DFF000"/>
<path d="M57.3527 30.8291C57.414 30.8154 57.4753 30.805 57.5365 30.7982C57.6284 30.7775 57.7101 30.7466 57.7816 30.695C57.894 30.5917 57.9144 30.4163 57.8531 30.2821C57.7918 30.1479 57.6693 30.0447 57.5263 29.9931C57.3935 29.9415 57.2404 29.9209 57.0974 29.9002C57.2506 29.8589 57.3629 29.8177 57.3731 29.6525C57.3731 29.5493 57.3527 29.4667 57.2812 29.3945C57.1484 29.25 56.9135 29.1571 56.7297 29.1365C56.505 29.1055 56.2906 29.1261 56.0761 29.1468C55.0957 29.2294 54.0846 29.1674 53.2063 28.7443C53.1757 28.7339 53.1348 28.703 53.1348 28.672C53.145 28.6411 53.1655 28.6307 53.1859 28.6101C53.4821 28.4553 53.8191 28.4346 54.1459 28.4037C54.4421 28.383 54.8199 28.383 55.0548 28.1663C55.1161 28.1147 55.1672 28.0424 55.1876 27.9599C55.208 27.8773 55.1876 27.7741 55.1161 27.7328C55.0855 27.7122 55.0446 27.7018 55.0038 27.6915C54.4012 27.547 53.7782 27.4025 53.145 27.4128C52.8489 27.4232 52.5833 27.5057 52.2974 27.547C52.0216 27.578 51.7153 27.7122 51.4395 27.7431C50.5101 27.8463 49.9076 27.3716 48.6718 26.6594C46.8642 25.617 45.2199 24.5642 45.2199 24.5642C45.2199 24.5642 43.4225 20.3016 42.6974 18.6296C41.9212 16.875 41.1859 15.203 38.6429 14.6766C37.7238 16.0596 37.8055 18.3303 37.9076 18.836C38.1118 19.8991 38.2446 20.5493 39.225 22.8612C40.0931 24.9255 40.2974 25.2454 40.9306 26.4323C41.625 27.7534 42.1663 28.1972 44.311 28.9817C45.7408 29.508 47.9263 30.1273 48.6208 30.4266C49.3255 30.7156 50.2242 31.0665 50.888 31.4381C51.6131 31.8406 52.3689 32.2225 53.1655 32.4599C53.8804 32.6766 54.6463 32.8005 55.3816 32.6663C55.5144 32.6456 56.117 32.6044 56.1374 32.4186C56.1476 32.3876 56.1374 32.367 56.117 32.336C56.0353 32.1812 55.8616 32.078 55.6778 32.0264C55.5042 31.9851 55.3101 31.9851 55.1263 31.9645C54.7382 31.9335 54.3501 31.8509 53.9825 31.6961C53.9621 31.6858 53.9416 31.6651 53.9518 31.6445C53.9518 31.6239 53.9723 31.6135 53.9927 31.6135C54.0846 31.6032 54.1765 31.6135 54.2684 31.6135C54.8506 31.6548 55.4531 31.6651 56.0352 31.5826C56.1782 31.5619 56.311 31.531 56.4438 31.4794C56.5663 31.4174 56.6889 31.3245 56.7501 31.1904C56.791 31.0975 56.8012 30.9839 56.8829 30.922C56.9748 30.8704 57.0667 30.8601 57.1689 30.8498C57.2301 30.8429 57.2914 30.836 57.3527 30.8291Z" fill="#FFBDA7"/>
<path d="M44.3105 28.9816C46.3327 29.7041 48.4365 30.1789 50.3667 31.1284C51.5105 31.7064 52.634 32.3773 53.9105 32.594C54.4314 32.6869 54.9625 32.6972 55.4935 32.6043C55.6774 32.5734 55.9225 32.5527 56.0654 32.4392C56.0859 32.4186 56.0859 32.4082 56.0654 32.367C55.7897 31.9438 55.2076 32.078 54.7786 31.9851C54.5131 31.9438 54.2476 31.8715 53.9922 31.758C53.9718 31.7477 53.9412 31.758 53.9003 31.6961C53.8697 31.6651 53.8901 31.5929 53.9208 31.5722C54.0535 31.5103 54.1965 31.5516 54.3191 31.5516C54.748 31.5826 55.1667 31.5929 55.5957 31.5619C56.0144 31.5103 56.6271 31.5206 56.7395 31.0046C56.7905 30.8188 57.0459 30.7878 57.1991 30.7672C57.3829 30.7362 57.6382 30.7362 57.7608 30.6124C57.8731 30.4679 57.8016 30.2511 57.6586 30.1479C57.4237 29.9621 57.0152 29.9725 56.7191 29.9312L57.0765 29.828C57.1684 29.8073 57.2501 29.7764 57.2808 29.7248C57.3114 29.6835 57.3114 29.5699 57.2808 29.508C57.2093 29.3738 57.0152 29.281 56.862 29.2293C56.525 29.1365 56.1369 29.2293 55.7488 29.2397C54.9829 29.2706 54.1965 29.2087 53.4714 28.93C53.3488 28.8681 53.1752 28.8371 53.0935 28.7236C53.0527 28.6617 53.114 28.5791 53.165 28.5585C53.3591 28.4553 53.5837 28.4037 53.7982 28.383C54.1659 28.3211 54.5744 28.3727 54.9012 28.2076C55.0748 28.125 55.2688 27.8566 55.0442 27.7534C54.5437 27.6296 54.0229 27.5057 53.5122 27.4748C53.1242 27.4232 52.7667 27.5057 52.3888 27.578C52.011 27.6089 51.6637 27.7947 51.2654 27.7947C50.8671 27.8154 50.4893 27.7018 50.142 27.5367C48.4569 26.6284 46.8433 25.5963 45.2195 24.5642C46.5165 25.3796 47.834 26.1537 49.1718 26.9174C49.8152 27.2787 50.4893 27.7431 51.2552 27.7121C51.6331 27.7121 51.9803 27.5264 52.3786 27.4851C53.2161 27.258 54.1046 27.4128 54.9318 27.6193C55.034 27.6399 55.1667 27.6605 55.2178 27.7638C55.2791 27.8773 55.2484 28.0115 55.1871 28.094C54.8705 28.5275 54.268 28.414 53.8084 28.4965C53.6042 28.5172 53.3591 28.5791 53.1957 28.6823C53.1957 28.672 53.1854 28.672 53.2059 28.6823C53.2978 28.7339 53.4101 28.7752 53.5122 28.8165C54.2169 29.0849 54.9931 29.1468 55.7386 29.1055C56.3003 29.0849 57.0459 28.8887 57.4135 29.4564C57.485 29.6215 57.4442 29.8589 57.2603 29.9209C57.2093 29.9415 57.1582 29.9621 57.1174 29.9725L57.1071 29.828C57.3114 29.8589 57.5565 29.8796 57.7505 30.0344C57.9548 30.1789 58.0467 30.4988 57.8731 30.7053C57.6178 30.9633 57.2195 30.8498 56.9335 30.9736C56.8722 31.0046 56.862 31.0975 56.811 31.2213C56.5761 31.6754 56.0246 31.6445 55.6059 31.6961C55.0748 31.7477 54.5335 31.6754 54.0025 31.6754C53.9922 31.6754 53.9922 31.6858 53.9922 31.6754C54.0025 31.6754 54.0127 31.6445 54.0025 31.6342C54.2271 31.7271 54.5335 31.8303 54.7991 31.8612C55.2586 31.9644 55.8816 31.8303 56.1676 32.305C56.3616 32.7076 55.4118 32.6972 55.1871 32.7488C53.4203 32.9346 51.8374 31.9851 50.3361 31.2007C48.4059 30.2511 46.3225 29.7248 44.3105 28.9816Z" fill="#F0997A"/>
<path d="M56.9543 29.9002C56.6377 29.9002 56.3211 29.9312 56.0045 29.9415C55.7083 29.9518 55.4122 29.9621 55.1058 29.9518C54.8266 29.9381 54.5509 29.9071 54.2785 29.8589C53.9824 29.8073 53.6964 29.7351 53.4002 29.6732C53.39 29.6732 53.39 29.7041 53.4002 29.7041C53.9517 29.9209 54.5849 30.0344 55.1773 30.0654C55.4734 30.0757 55.7696 30.0654 56.0556 30.0344C56.3619 30.0034 56.6581 29.9828 56.9543 29.9105V29.9002Z" fill="#F0997A"/>
<path d="M56.9235 30.8807C56.6069 30.8807 56.3005 30.9117 55.9839 30.9324C55.6878 30.9427 55.3814 30.9427 55.0852 30.9324C54.8061 30.9186 54.5269 30.8876 54.2478 30.8395C53.9618 30.7879 53.6758 30.7156 53.3797 30.664C53.3695 30.6537 53.3593 30.6846 53.3695 30.6846C53.921 30.9014 54.5541 31.0149 55.1567 31.0459C55.4529 31.0562 55.7388 31.0459 56.035 31.0149C56.3312 30.9943 56.6375 30.9633 56.9235 30.9014C56.9337 30.8911 56.9337 30.8807 56.9235 30.8807Z" fill="#F0997A"/>
<path d="M77.4102 30.4369C77.2673 30.4163 77.1243 30.4473 76.9915 30.4885C76.4298 30.6434 75.6945 30.9117 75.1328 31.0665C75.2962 30.9633 75.5311 30.8188 75.623 30.7569C76.0213 30.5092 76.3379 30.2408 76.7362 29.9931C76.7873 29.9622 76.8383 29.9312 76.8588 29.8693C76.8996 29.7557 76.7464 29.6216 76.6545 29.5803C76.3992 29.4874 76.052 29.6216 75.8068 29.7041C75.5311 29.8177 75.2554 29.9518 74.9796 30.0757C74.6732 30.1996 74.3464 30.3028 74.0196 30.3647C73.8051 30.406 73.5805 30.4576 73.3558 30.4679C73.3047 30.4679 73.1311 30.4782 73.1005 30.4163C73.0698 30.3337 73.3354 30.1996 73.3966 30.1583C73.5396 30.0447 73.6826 29.9415 73.8051 29.8177C73.9992 29.6319 74.1626 29.4255 74.1932 29.1571C74.2136 29.0126 74.183 28.8578 74.0809 28.7649C74.0605 28.7443 74.0298 28.7236 73.9992 28.7133C73.9583 28.7133 73.9175 28.7236 73.8766 28.7443C73.6417 28.8578 73.4171 29.0023 73.1924 29.1365C72.9473 29.281 72.6954 29.4152 72.4366 29.539C71.9873 29.7557 71.64 29.7764 71.2009 30.0035C70.966 30.1273 70.6494 30.3647 70.4043 30.4679C69.669 30.7982 68.1677 30.5298 67.1771 30.3647L65.6758 34.0184C67.0341 34.039 69.3217 34.0906 70.68 33.9771C71.7626 33.8842 72.6 33.7707 73.6009 33.6262C73.6281 33.6262 73.6554 33.6227 73.6826 33.6158C74.0911 33.5539 74.7651 33.3475 75.1532 33.2133C75.3064 33.1617 75.429 33.0585 75.5617 32.9656C75.6639 32.8762 75.7694 32.7902 75.8783 32.7076C75.9498 32.656 76.0213 32.5941 76.0724 32.5115C76.103 32.4805 76.1234 32.4289 76.1439 32.3979C76.2154 32.3051 76.3277 32.2535 76.4298 32.2018C76.6341 32.0883 76.8281 31.9541 76.9915 31.7993C77.0426 31.7477 77.1345 31.6755 77.1856 31.5929C77.2468 31.5103 77.2775 31.3865 77.2468 31.2523C77.3081 31.1801 77.4 31.1181 77.4715 31.0562C77.5839 30.9736 77.6962 30.8601 77.686 30.7156C77.6758 30.5711 77.543 30.4679 77.4102 30.4369Z" fill="#FFA8A7"/>
<path d="M73.8866 31.469C74.1725 31.4484 74.4483 31.3762 74.7138 31.2729C74.9487 31.2007 75.1836 31.1078 75.3981 30.984C75.3095 31.0115 75.221 31.039 75.1325 31.0665C75.1938 31.0252 75.2755 30.9736 75.3572 30.922C75.2755 30.9564 75.1972 30.9908 75.1223 31.0252C74.9793 31.0803 74.833 31.1319 74.6832 31.1801C74.4176 31.2729 74.1521 31.3452 73.8866 31.4381C73.8764 31.4484 73.8764 31.469 73.8866 31.469ZM74.2032 32.2225C74.1827 32.2225 74.1623 32.2741 74.1929 32.2741C74.4585 32.3154 74.7547 32.2328 75.01 32.1709C75.2857 32.109 75.5513 32.0161 75.8066 31.9232C76.0857 31.8131 76.3581 31.6961 76.6236 31.5723C76.8278 31.469 77.0525 31.3762 77.2568 31.2523C77.2976 31.2007 77.3487 31.1491 77.41 31.1078C77.4032 31.1078 77.3998 31.1078 77.3998 31.1078C77.1444 31.2213 76.8993 31.3452 76.644 31.4484C76.3989 31.5619 76.1334 31.6651 75.8678 31.7684C75.6091 31.8716 75.3436 31.961 75.0713 32.0367C74.7853 32.109 74.4891 32.1399 74.2032 32.2225ZM74.1112 32.9966C74.101 32.9966 74.0908 33.0379 74.1112 33.0275C74.3053 33.0275 74.5095 32.9862 74.7036 32.9553C74.8874 32.914 75.0712 32.8727 75.2551 32.8211C75.4389 32.7695 75.633 32.7076 75.8066 32.625C75.9087 32.5837 76.0108 32.5321 76.1027 32.4702C76.1164 32.4427 76.13 32.4186 76.1436 32.3979C76.1708 32.3635 76.2015 32.336 76.2355 32.3154C76.0517 32.3979 75.8678 32.4702 75.684 32.5424C75.507 32.6112 75.33 32.6732 75.153 32.7282C74.9793 32.7798 74.7955 32.8314 74.6219 32.8727C74.4483 32.914 74.2747 32.945 74.1112 32.9966Z" fill="#F28F8F"/>
<path d="M58.4659 20.3635C59.6812 20.7041 61.1416 21.2099 62.0914 23.3463C62.8982 25.1422 64.9918 29.7454 64.9918 29.7454L67.7901 30.3647C67.7901 30.3647 68.1884 31.2729 67.9433 32.5321C67.7084 33.7397 67.2591 34.1216 67.2591 34.1216C67.2591 34.1216 65.8804 34.2557 63.6642 34.1938C61.4787 34.1319 61.2846 33.6055 60.7944 32.6353C60.294 31.6651 57.271 25.8027 57.271 25.8027C57.271 25.8027 56.5153 22.1284 58.4659 20.3635Z" fill="#DFF000"/>
<path d="M50.6023 17.5975C50.6125 17.5665 50.3164 17.4943 50.2857 17.484C50.1121 17.4633 49.9181 17.4943 49.7955 17.6284C49.7036 17.7213 49.6219 17.8452 49.581 17.969C49.4074 18.0206 49.244 18.1239 49.1419 18.2787C49.0296 18.4232 48.9683 18.609 48.9785 18.7947C48.7027 18.9392 48.5189 19.2282 48.4883 19.5379C48.4781 19.5791 48.4781 19.6204 48.4679 19.672C48.4474 19.7133 48.427 19.7443 48.4066 19.7856C48.1819 20.1778 48.3044 20.6732 48.4883 21.0551C48.6721 21.4369 48.8968 21.7879 49.1317 22.1388C49.2542 22.3245 49.6423 22.758 49.8057 22.9025C50.4185 23.4702 51.113 23.7282 51.7155 24.1101C52.1955 24.4301 53.0023 25.1216 53.2474 25.3177C54.2687 26.1227 54.8406 26.5356 55.8823 27.32C56.1887 27.5573 56.6279 27.836 57.0874 28.156C58.221 28.9404 58.7725 28.9094 60.0287 28.5275C61.1521 28.1869 64.604 27.1135 65.6764 26.8349C66.381 26.7523 66.7793 26.969 67.5453 26.5459C68.6483 25.9473 70.2108 24.0585 69.2508 20.6319C67.0449 20.7454 65.85 21.375 63.7053 22.2936C61.5504 23.2122 58.6398 24.4301 58.6398 24.4301C58.6398 24.4301 54.6976 22.2626 54.0032 21.7672C53.1964 21.1789 53.1147 20.1984 52.8389 19.445C52.6244 18.8773 52.2159 18.3509 52.0117 17.9794C51.7972 17.5562 51.4806 17.5975 51.3581 17.9587C51.164 18.547 51.5623 19.0631 51.6032 19.5482C51.644 20.0539 51.1742 19.6204 51.0108 19.4243C50.7147 19.0424 50.5104 18.5057 50.5104 18.5057L50.6023 17.5975Z" fill="#C8856A"/>
<path d="M48.468 19.672C48.4475 19.7133 48.4271 19.7443 48.4067 19.7856C48.3999 19.7924 48.3965 19.7959 48.3965 19.7959C48.4033 19.8303 48.4135 19.8647 48.4271 19.8991C48.4884 20.1055 48.5701 20.3326 48.7131 20.4977C48.7335 20.5184 48.7437 20.4668 48.7335 20.4564C48.6927 20.3429 48.6416 20.2397 48.6007 20.1262C48.5667 20.0229 48.5395 19.9163 48.519 19.8062C48.5054 19.7305 48.4918 19.6514 48.4782 19.5688C48.4782 19.6032 48.4748 19.6376 48.468 19.672Z" fill="#AF6152"/>
<path d="M49.5805 17.969C49.5805 18.031 49.5703 18.0929 49.5703 18.1548C49.5703 18.3819 49.5703 18.6193 49.6418 18.836C49.652 18.867 49.6724 18.8567 49.6827 18.836C49.6929 18.7328 49.6929 18.6399 49.6929 18.547C49.6929 18.4438 49.6929 18.3406 49.7031 18.2374C49.7099 18.1342 49.7201 18.0344 49.7337 17.9381C49.7337 17.8452 49.7541 17.7626 49.7541 17.6801C49.6827 17.7626 49.6214 17.8658 49.5805 17.969Z" fill="#AF6152"/>
<path d="M49.162 19.734C49.0905 19.5172 49.0293 19.3005 49.0088 19.0734C48.9952 18.9633 48.9884 18.8532 48.9884 18.7431C48.9884 18.695 48.9918 18.6468 48.9986 18.5986C48.985 18.6674 48.9782 18.7328 48.9782 18.7947C48.951 18.8154 48.9237 18.8326 48.8965 18.8463C48.9033 18.922 48.9135 18.9977 48.9271 19.0734C48.968 19.3142 49.0361 19.5447 49.1314 19.7649C49.1518 19.7959 49.1722 19.7546 49.162 19.734Z" fill="#AF6152"/>
<path d="M87.0812 15.0275C84.9058 15.8635 84.3339 16.5138 83.0267 19.7752C82.3016 21.5814 80.3203 26.1434 80.3203 26.1434L84.2522 29.7557C84.2522 29.7557 84.5382 29.2706 85.3144 27.7328C86.305 25.7615 88.2352 22.0665 88.2352 22.0665C88.2352 22.0665 89.3893 16.3177 87.0812 15.0275Z" fill="#DFF000"/>
<path d="M84.0587 30.0241C83.1396 30.8498 81.1481 30.0447 79.8613 28.8888C78.5745 27.7328 75.7149 23.8933 74.6834 22.7787C73.6621 21.6537 73.1923 22.211 72.2834 21.8807C71.3745 21.5505 71.0375 21.4988 70.2919 21.1066C69.3421 20.6112 68.7804 20.6628 67.7285 20.8073C68.2289 19.8784 68.7498 20.0229 69.8221 19.7339C70.8945 19.4449 71.5072 19.5069 72.7226 19.4037C73.8255 19.3108 74.7549 19.3727 75.96 20.1468C77.2979 21.0034 79.5855 22.5929 80.8928 23.3876C82.2919 24.2339 83.5277 25.0287 84.3753 26.5149C84.9983 27.5986 84.4775 29.6525 84.0587 30.0241Z" fill="#B16668"/>
</svg>
