<svg width="127" height="121" viewBox="0 0 127 121" fill="none" xmlns="http://www.w3.org/2000/svg">
<path d="M63.3333 121C98.3114 121 126.667 92.6447 126.667 57.6667H0C0 92.6447 28.3553 121 63.3333 121Z" fill="#DCD7C3"/>
<ellipse cx="66.6111" cy="91.7222" rx="43.6111" ry="6.94444" fill="#C9C3A9"/>
<path d="M34.8107 91.5076H72.5332L72.5332 12.9868H34.8107L34.8107 91.5076Z" stroke="#263238" stroke-width="0.1" stroke-miterlimit="10"/>
<path d="M37.6707 10.3553C48.0561 8.6667 58.6437 8.64017 69.0374 10.277L73.909 11.0442V91.5378H71.6424V13.4725H35.2151V91.5378H32.7012V11.044L37.6707 10.3553Z" stroke="#263238" stroke-width="0.1" stroke-miterlimit="10"/>
<path d="M39.4259 88.2696H67.9199L67.9199 16.7105H39.4259L39.4259 88.2696Z" stroke="#263238" stroke-width="0.1" stroke-miterlimit="10"/>
<path d="M42.5797 83.2509H64.7598V60.9088H42.5797V83.2509Z" stroke="#263238" stroke-width="0.1" stroke-miterlimit="10"/>
<path d="M64.7624 22.0531H56.3438V57.509H64.7624V22.0531Z" stroke="#263238" stroke-width="0.1" stroke-miterlimit="10" stroke-linecap="round" stroke-linejoin="round"/>
<path d="M51.0007 22.0531H42.582V57.509H51.0007V22.0531Z" stroke="#263238" stroke-width="0.1" stroke-miterlimit="10" stroke-linecap="round" stroke-linejoin="round"/>
<path d="M45.312 80.4986H62.0273V63.661H45.312V80.4986Z" stroke="#263238" stroke-width="0.1" stroke-miterlimit="10"/>
<path d="M38.8518 43.9095C38.5835 43.9095 38.3662 44.127 38.3662 44.3951V47.5243H35.4863V48.6192H38.3662V62.9196H35.4863V64.0142H38.3662V67.385C38.3662 67.6533 38.5837 67.8706 38.8518 67.8706C39.1202 67.8706 39.3374 67.653 39.3374 67.385V44.3954C39.3374 44.1268 39.1202 43.9095 38.8518 43.9095Z" stroke="#263238" stroke-width="0.1" stroke-miterlimit="10" stroke-linecap="round" stroke-linejoin="round"/>
<path d="M37.2264 55.0513H35.6504V58.0604H37.2264V55.0513Z" stroke="#263238" stroke-width="0.1" stroke-miterlimit="10" stroke-linecap="round" stroke-linejoin="round"/>
<path d="M92.2598 91.4897V1" stroke="#263238" stroke-width="0.1" stroke-miterlimit="10" stroke-linecap="round" stroke-linejoin="round"/>
<path d="M77.2055 51.4543L76.3281 58.1285L76.662 72.8138L76.5784 86.7482H79.621L81.3345 72.3966L82.3357 59.714H83.0033L84.6722 72.9808L86.5911 86.5812H89.5949L89.1779 72.0629L88.5103 55.6253L87.509 51.2032L77.2055 51.4543Z" fill="#455A64" stroke="#263238" stroke-width="0.1" stroke-miterlimit="10" stroke-linecap="round" stroke-linejoin="round"/>
<path d="M89.5955 86.5812L90.016 87.9783C90.191 88.5597 90.5907 89.0464 91.1274 89.3305C91.8378 89.7062 92.7544 90.2171 92.821 90.3838C92.9309 90.6586 92.821 91.5378 92.821 91.5378H86.3368C86.3368 91.5378 86.1719 91.4734 86.1719 90.373C86.1719 89.8757 86.5276 88.6942 86.5276 88.6942L86.5917 86.5815H89.5955V86.5812Z" fill="white" stroke="#263238" stroke-width="0.1" stroke-miterlimit="10" stroke-linecap="round" stroke-linejoin="round"/>
<path d="M86.3355 91.5378H92.8197C92.8197 91.5378 92.8825 91.0339 92.8655 90.6699H86.1758C86.2023 91.4829 86.3355 91.5378 86.3355 91.5378Z" fill="white" stroke="#263238" stroke-width="0.1" stroke-miterlimit="10" stroke-linecap="round" stroke-linejoin="round"/>
<path d="M76.6162 86.5812L76.1957 87.9783C76.0207 88.5597 75.621 89.0464 75.0843 89.3305C74.3739 89.7062 73.4572 90.2171 73.3906 90.3838C73.2807 90.6586 73.3906 91.5378 73.3906 91.5378H79.8748C79.8748 91.5378 80.0398 91.4734 80.0398 90.373C80.0398 89.8757 79.6841 88.6942 79.6841 88.6942L79.62 86.5815H76.6162V86.5812Z" fill="white" stroke="#263238" stroke-width="0.1" stroke-miterlimit="10" stroke-linecap="round" stroke-linejoin="round"/>
<path d="M79.8747 91.5378H73.3905C73.3905 91.5378 73.3277 91.0339 73.3447 90.6699H80.0344C80.0079 91.4829 79.8747 91.5378 79.8747 91.5378Z" fill="white" stroke="#263238" stroke-width="0.1" stroke-miterlimit="10" stroke-linecap="round" stroke-linejoin="round"/>
<path d="M76.1951 35.964C76.1951 35.964 74.6514 36.4431 74.3853 37.0819C74.1192 37.7207 72.3092 48.2605 72.3625 49.0057C72.4158 49.7509 73.6932 50.6027 74.4917 50.0703C75.2902 49.5379 76.6742 43.6292 76.6742 43.6292" fill="#DFF000"/>
<path d="M76.1951 35.964C76.1951 35.964 74.6514 36.4431 74.3853 37.0819C74.1192 37.7207 72.3092 48.2605 72.3625 49.0057C72.4158 49.7509 73.6932 50.6027 74.4917 50.0703C75.2902 49.5379 76.6742 43.6292 76.6742 43.6292" stroke="#263238" stroke-width="0.1" stroke-miterlimit="10" stroke-linecap="round" stroke-linejoin="round"/>
<path d="M72.9807 44.6352C72.621 46.822 72.3412 48.7059 72.3625 49.0055C72.4158 49.7507 73.6932 50.6025 74.4917 50.0701C74.9487 49.7654 75.5973 47.7001 76.0687 45.9887L72.9807 44.6352Z" fill="white" stroke="#263238" stroke-width="0.1" stroke-miterlimit="10" stroke-linecap="round" stroke-linejoin="round"/>
<path d="M72.5042 47.8475C72.5042 47.8475 72.3435 49.2405 72.2363 50.3657C72.1292 51.4909 73.5222 58.4559 73.5222 58.4559L75.0759 58.5631C75.0759 58.5631 75.2366 53.0446 75.2366 51.8123C75.2366 50.58 75.3438 48.1156 75.3438 48.1156" fill="white"/>
<path d="M72.5042 47.8475C72.5042 47.8475 72.3435 49.2405 72.2363 50.3657C72.1292 51.4909 73.5222 58.4559 73.5222 58.4559L75.0759 58.5631C75.0759 58.5631 75.2366 53.0446 75.2366 51.8123C75.2366 50.58 75.3438 48.1156 75.3438 48.1156" stroke="#263238" stroke-width="0.1" stroke-miterlimit="10" stroke-linecap="round" stroke-linejoin="round"/>
<path d="M75.4507 57.8664C75.4507 57.8664 73.897 57.7057 73.522 57.8664C73.147 58.0271 72.9863 58.1343 72.9863 58.1343L73.3613 58.8309C73.3613 58.8309 73.3077 59.0452 73.3613 59.2594C73.4149 59.4737 73.5756 59.7416 73.5756 59.7416C73.5756 59.7416 73.3077 61.0274 73.3077 61.4024C73.3077 61.7774 73.147 62.3669 73.3613 62.6347C73.5756 62.9026 74.7007 63.224 74.7007 63.224C74.7007 63.224 74.915 63.2775 75.0757 63.1168C75.2364 62.9561 75.665 63.0633 76.0402 62.5811C76.4152 62.099 76.5223 61.9919 76.5223 61.6703C76.5223 61.3488 75.7724 59.7416 75.7724 59.7416C75.7724 59.7416 76.1473 59.3666 75.8795 59.0987C75.6117 58.8309 75.2902 58.8845 75.2902 58.7238C75.2902 58.5631 75.4509 58.1881 75.4509 58.1881V57.8664H75.4507Z" fill="#C6FF00" stroke="#263238" stroke-width="0.1" stroke-miterlimit="10" stroke-linecap="round" stroke-linejoin="round"/>
<path d="M76.1475 61.6705L75.3438 62.0455" stroke="#263238" stroke-width="0.1" stroke-miterlimit="10" stroke-linecap="round" stroke-linejoin="round"/>
<path d="M75.8797 61.9383C75.8797 61.9383 75.9869 62.474 75.8262 62.6883L75.8797 61.9383Z" fill="white"/>
<path d="M75.8797 61.9383C75.8797 61.9383 75.9869 62.474 75.8262 62.6883" stroke="#263238" stroke-width="0.1" stroke-miterlimit="10" stroke-linecap="round" stroke-linejoin="round"/>
<path d="M75.9202 42.6427C76.4228 46.4628 77.0308 51.5805 77.3127 51.827C77.7385 52.1998 86.8412 52.1998 87.2137 51.9334C87.5862 51.6671 87.9056 51.1349 87.9056 50.5494C87.9056 49.9639 90.2478 39.1578 90.4075 38.3595C90.5672 37.561 90.8333 37.0288 90.2478 36.4964C89.6623 35.964 86.8943 34.1542 85.244 33.6751C83.5939 33.196 80.8256 34.1009 80.8256 34.1009C80.8256 34.1009 78.0043 35.1655 76.6736 35.6979C76.2493 35.8676 75.9117 36.0914 75.6621 36.3607" fill="#DFF000"/>
<path d="M75.9202 42.6427C76.4228 46.4628 77.0308 51.5805 77.3127 51.827C77.7385 52.1998 86.8412 52.1998 87.2137 51.9334C87.5862 51.6671 87.9056 51.1349 87.9056 50.5494C87.9056 49.9639 90.2478 39.1578 90.4075 38.3595C90.5672 37.561 90.8333 37.0288 90.2478 36.4964C89.6623 35.964 86.8943 34.1542 85.244 33.6751C83.5939 33.196 80.8256 34.1009 80.8256 34.1009C80.8256 34.1009 78.0043 35.1655 76.6736 35.6979C76.2493 35.8676 75.9117 36.0914 75.6621 36.3607" stroke="#263238" stroke-width="0.1" stroke-miterlimit="10" stroke-linecap="round" stroke-linejoin="round"/>
<path d="M83.9672 43.1501H81.1992V47.5151H83.9672V43.1501Z" fill="#C6FF00" stroke="#263238" stroke-width="0.1" stroke-miterlimit="10" stroke-linecap="round" stroke-linejoin="round"/>
<path d="M80.666 36.4962L82.5824 43.2034L85.031 36.0704C85.031 36.0704 84.1795 34.7397 83.1146 34.633C82.05 34.5267 81.0387 35.5379 80.666 36.4962Z" fill="#DFF000" stroke="#263238" stroke-width="0.1" stroke-miterlimit="10" stroke-linecap="round" stroke-linejoin="round"/>
<path d="M82.0491 32.8233C82.0491 32.8233 80.5054 33.0893 80.2924 33.7282C80.0794 34.367 80.0263 36.9222 79.973 37.5608C79.9197 38.1996 79.3342 38.572 79.6003 38.572C79.8663 38.572 80.0794 38.1993 80.7182 37.8268C81.357 37.4541 82.2619 37.2413 82.5813 37.2413C82.9007 37.2413 84.0717 37.3477 84.6574 37.8268C85.2429 38.3059 85.509 38.6253 85.8284 38.4123C86.1478 38.1993 85.5623 37.9332 85.6154 37.4008C85.6687 36.8684 86.1475 35.0586 85.9348 33.8876C85.7217 32.7166 83.8056 32.5569 83.3265 32.5569C82.8476 32.5572 82.0491 32.8233 82.0491 32.8233Z" fill="#DFF000" stroke="#263238" stroke-width="0.1" stroke-miterlimit="10" stroke-linecap="round" stroke-linejoin="round"/>
<path d="M81.1992 32.3441C81.1992 32.3441 81.1992 34.5267 81.5186 35.4849C81.838 36.4431 82.4235 38.4126 82.8493 38.2529C83.2751 38.0932 84.7124 35.3252 84.8721 34.7927C85.0318 34.2603 85.0851 31.7053 85.0851 31.7053C85.0851 31.7053 82.9559 32.8233 81.1992 32.3441Z" fill="white" stroke="#263238" stroke-width="0.1" stroke-miterlimit="10" stroke-linecap="round" stroke-linejoin="round"/>
<path d="M86.3637 27.7131C86.3637 27.7131 86.6298 29.0437 86.2573 29.5762C85.8846 30.1086 85.5121 29.9489 85.5121 29.9489C85.5121 29.9489 85.3524 31.7587 84.7669 32.3444C84.1814 32.9299 82.6377 33.8348 81.7859 33.409C80.9343 32.9832 80.2955 31.4395 80.1358 30.4813C79.9761 29.5231 79.8164 27.873 79.8164 27.873C79.8164 27.873 80.4552 27.0745 81.9456 26.9681C83.436 26.8617 84.1814 27.5536 84.4475 27.7133C84.7136 27.873 85.5121 27.3939 85.8848 27.3939C86.2573 27.3936 86.3637 27.7131 86.3637 27.7131Z" fill="white" stroke="#263238" stroke-width="0.1" stroke-miterlimit="10" stroke-linecap="round" stroke-linejoin="round"/>
<path d="M84.3909 31.4393C84.1248 31.2262 84.2312 30.0553 84.3909 29.6295C84.5506 29.2037 85.2428 29.044 85.2428 29.044C85.2428 29.044 83.22 28.7779 82.102 28.6715C81.1458 28.5804 80.1921 28.9168 79.9355 29.0164C79.9921 29.5061 80.0622 30.0603 80.1325 30.4813C80.2922 31.4395 80.9311 32.9832 81.7826 33.409C82.5291 33.7822 83.8067 33.1334 84.5053 32.5732C84.7494 32.3006 84.9326 32.0403 85.0297 31.8653C85.2958 31.3862 85.4555 30.1619 85.4555 30.1619C85.4555 30.1619 84.6573 31.652 84.3909 31.4393Z" fill="#DFF000" stroke="#263238" stroke-width="0.1" stroke-miterlimit="10" stroke-linecap="round" stroke-linejoin="round"/>
<path d="M81.2266 28.3238C81.2266 28.4993 81.12 28.6417 80.9883 28.6417C80.8566 28.6417 80.75 28.4993 80.75 28.3238C80.75 28.1484 80.8566 28.0059 80.9883 28.0059C81.12 28.0059 81.2266 28.1484 81.2266 28.3238Z" fill="#263238"/>
<path d="M83.2305 28.3559C83.2305 28.5313 83.1239 28.6738 82.9922 28.6738C82.8605 28.6738 82.7539 28.5313 82.7539 28.3559C82.7539 28.1804 82.8605 28.038 82.9922 28.038C83.1239 28.038 83.2305 28.1801 83.2305 28.3559Z" fill="#263238"/>
<path d="M84.7129 27.8728C84.7129 27.8728 85.0856 29.3101 85.2453 29.0437C85.405 28.7776 85.5647 27.7661 85.5647 27.7661L84.7129 27.8728Z" fill="#263238" stroke="#263238" stroke-width="0.1" stroke-miterlimit="10" stroke-linecap="round" stroke-linejoin="round"/>
<path d="M79.9195 27.2339C79.9195 27.2339 79.7598 25.2644 79.7598 24.5193C79.7598 23.7741 81.1438 22.6562 82.8472 22.6562C84.5506 22.6562 86.1926 23.7465 86.3073 23.9338C86.66 24.5095 86.3606 27.7133 86.3606 27.7133L85.1896 28.1391C85.1896 28.1391 83.8056 26.9148 82.9538 26.8084C82.102 26.7015 79.9195 27.2339 79.9195 27.2339Z" fill="#263238" stroke="#263238" stroke-width="0.1" stroke-miterlimit="10" stroke-linecap="round" stroke-linejoin="round"/>
<path d="M79.5454 27.287C79.5454 27.287 81.3552 26.1691 82.7925 26.4885C84.2298 26.8079 85.188 28.1386 85.188 28.1386C85.188 28.1386 84.922 28.5644 84.0171 28.458C83.1122 28.3516 82.8991 27.4998 81.9943 27.6064C81.0894 27.7128 80.1312 28.4049 79.5457 28.4049C78.9597 28.4049 79.5454 27.287 79.5454 27.287Z" fill="#263238" stroke="#263238" stroke-width="0.1" stroke-miterlimit="10" stroke-linecap="round" stroke-linejoin="round"/>
<path d="M80.2305 26.8938C80.2305 26.8938 82.041 25.33 84.6746 27.3876" stroke="#6B6B6B" stroke-width="0.2" stroke-miterlimit="10" stroke-linecap="round" stroke-linejoin="round"/>
<path d="M90.4674 36.6511C90.4674 36.6511 91.2279 37.4892 91.4069 38.2601C91.5859 39.0311 93.6364 47.2523 93.4697 47.7689C93.3028 48.2856 91.7713 49.0195 90.9841 48.8748C90.1971 48.7304 88.2148 43.6249 88.2148 43.6249" fill="#DFF000"/>
<path d="M90.4674 36.6511C90.4674 36.6511 91.2279 37.4892 91.4069 38.2601C91.5859 39.0311 93.6364 47.2523 93.4697 47.7689C93.3028 48.2856 91.7713 49.0195 90.9841 48.8748C90.1971 48.7304 88.2148 43.6249 88.2148 43.6249" stroke="#263238" stroke-width="0.1" stroke-miterlimit="10" stroke-linecap="round" stroke-linejoin="round"/>
<path d="M93.4682 47.7689C93.5451 47.5311 93.1513 45.6587 92.687 43.6329L89.0078 45.5373C89.6504 47.0034 90.5215 48.7902 90.9826 48.8751C91.7696 49.0195 93.3012 48.2853 93.4682 47.7689Z" fill="white" stroke="#263238" stroke-width="0.1" stroke-miterlimit="10" stroke-linecap="round" stroke-linejoin="round"/>
<path d="M90.4645 46.8858L86.2148 52.1284L86.8797 53.3305C86.8797 53.3305 90.2645 50.9352 91.3791 50.0994C92.4938 49.2636 93.4155 48.2448 93.4948 47.5574C93.5742 46.87 93.2713 46.2455 93.2713 46.2455" fill="white"/>
<path d="M90.4645 46.8858L86.2148 52.1284L86.8797 53.3305C86.8797 53.3305 90.2645 50.9352 91.3791 50.0994C92.4938 49.2636 93.4155 48.2448 93.4948 47.5574C93.5742 46.87 93.2713 46.2455 93.2713 46.2455" stroke="#263238" stroke-width="0.1" stroke-miterlimit="10" stroke-linecap="round" stroke-linejoin="round"/>
<path d="M86.3916 54.2924C86.3916 54.2924 86.7861 54.1237 86.9571 54.0363C87.128 53.949 87.0404 53.778 87.1769 53.5259C87.313 53.2739 87.7301 53.3755 87.8134 53.1172C87.8968 52.8589 87.4069 51.9985 86.8434 51.7727C86.2802 51.5469 85.9628 51.5101 85.9445 51.6688C85.9263 51.8275 85.737 52.0736 85.737 52.0736L85.2529 52.5535L85.0394 53.011C85.0394 53.011 83.1498 53.5965 82.5437 53.7407C81.9377 53.8852 83.4141 55.0201 83.9773 55.2461C84.5405 55.4719 84.9981 55.6857 85.2219 55.6043C85.4457 55.5227 86.3916 54.2924 86.3916 54.2924Z" fill="#C6FF00" stroke="#263238" stroke-width="0.1" stroke-miterlimit="10" stroke-linecap="round" stroke-linejoin="round"/>
<path d="M80.3281 52.0378L84.6883 55.1137L78.5921 59.1783L74.3926 55.6389L80.3281 52.0378Z" fill="white" stroke="#263238" stroke-width="0.1" stroke-miterlimit="10" stroke-linecap="round" stroke-linejoin="round"/>
<path d="M81.2793 52.9314L81.6453 52.7222L83.1614 53.7677L82.6908 53.977L81.2793 52.9314Z" fill="white" stroke="#263238" stroke-width="0.1" stroke-miterlimit="10" stroke-linecap="round" stroke-linejoin="round"/>
<path d="M80.5455 52.5655L75.4746 55.4929L78.6634 58.1591L83.8387 54.9703L80.5455 52.5655Z" fill="white" stroke="#263238" stroke-width="0.1" stroke-miterlimit="10" stroke-linecap="round" stroke-linejoin="round"/>
<path d="M85.3727 53.3708C85.3727 53.3708 84.2297 52.5958 83.7884 52.7054C83.3471 52.8153 82.6147 53.588 82.5436 53.7405C82.4722 53.8929 81.6364 54.1715 81.671 54.3362C81.7055 54.5009 82.275 54.6739 82.6044 54.6048C82.9338 54.5357 84.2825 53.9948 84.2825 53.9948" fill="#C6FF00"/>
<path d="M85.3727 53.3708C85.3727 53.3708 84.2297 52.5958 83.7884 52.7054C83.3471 52.8153 82.6147 53.588 82.5436 53.7405C82.4722 53.8929 81.6364 54.1715 81.671 54.3362C81.7055 54.5009 82.275 54.6739 82.6044 54.6048C82.9338 54.5357 84.2825 53.9948 84.2825 53.9948" stroke="#263238" stroke-width="0.1" stroke-miterlimit="10" stroke-linecap="round" stroke-linejoin="round"/>
<path d="M108.203 53.3227H87.3438V91.5378H108.203V53.3227Z" fill="#C6FF00" stroke="#263238" stroke-width="0.1" stroke-miterlimit="10" stroke-linecap="round" stroke-linejoin="round"/>
<path d="M100.737 60.026H89.5625V71.2008H100.737V60.026Z" fill="white"/>
<path fill-rule="evenodd" clip-rule="evenodd" d="M95.1534 63.2667C95.3385 63.2667 95.4886 63.4168 95.4886 63.602V65.2782H97.1648C97.35 65.2782 97.5001 65.4283 97.5001 65.6134C97.5001 65.7986 97.35 65.9487 97.1648 65.9487H95.4886V67.6249C95.4886 67.8101 95.3385 67.9601 95.1534 67.9601C94.9682 67.9601 94.8181 67.8101 94.8181 67.6249V65.9487H93.1419C92.9567 65.9487 92.8066 65.7986 92.8066 65.6134C92.8066 65.4283 92.9567 65.2782 93.1419 65.2782L94.8181 65.2782V63.602C94.8181 63.4168 94.9682 63.2667 95.1534 63.2667Z" fill="#FF0000"/>
<path d="M99.15 53.3227H96.3965V55.4922H99.15V53.3227Z" fill="white" stroke="#263238" stroke-width="0.1" stroke-miterlimit="10" stroke-linecap="round" stroke-linejoin="round"/>
<path d="M62.3188 30.7546C62.3188 30.7546 62.0527 32.6177 60.509 33.2032C58.9653 33.7887 54.7066 35.9712 54.5469 37.8343C54.3872 39.6974 56.7827 41.6669 55.4518 42.8912C54.1211 44.1155 52.0983 45.4995 52.4708 48.0014C52.8435 50.5033 55.3985 52.1004 57.6874 51.7276C59.9763 51.3549 60.8281 50.7164 61.5733 48.4272C62.3185 46.1383 61.0942 43.2106 61.5733 42.0927C62.0524 40.9748 63.2767 40.549 63.0637 38.6859C62.8507 36.8228 61.4136 35.4388 61.7861 34.0548C62.1588 32.6708 62.7976 31.9787 62.7976 31.9787L62.3188 30.7546Z" fill="#263238" stroke="#263238" stroke-width="0.1" stroke-miterlimit="10" stroke-linecap="round" stroke-linejoin="round"/>
<path d="M56.9628 48.0332C56.7968 48.271 56.7147 48.5591 56.7763 48.8678" stroke="#6B6B6B" stroke-width="0.2" stroke-miterlimit="10" stroke-linecap="round" stroke-linejoin="round"/>
<path d="M57.1837 36.6849C56.0783 37.4629 55.5379 38.3282 56.0348 39.1565C56.7755 40.3911 59.1622 42.5308 56.6107 43.93C54.0595 45.3291 52.7426 49.6087 55.4585 51.008C58.1745 52.407 59.5735 49.3619 59.0799 48.0452C58.8984 47.5609 58.5051 47.3771 58.0929 47.3999" stroke="#6B6B6B" stroke-width="0.2" stroke-miterlimit="10" stroke-linecap="round" stroke-linejoin="round"/>
<path d="M61.3047 33.6423C61.3047 33.6423 61.4694 34.6298 59.165 35.6175C58.9222 35.7216 58.6874 35.8293 58.4629 35.9402" stroke="#6B6B6B" stroke-width="0.2" stroke-miterlimit="10" stroke-linecap="round" stroke-linejoin="round"/>
<path d="M61.4681 34.9592C61.4681 34.9592 61.5504 36.3582 60.3982 36.9344C59.246 37.5107 58.5877 39.4857 59.4107 40.3087" stroke="#6B6B6B" stroke-width="0.2" stroke-miterlimit="10" stroke-linecap="round" stroke-linejoin="round"/>
<path d="M68.9796 59.916C68.9796 59.916 69.1218 61.6938 68.9085 65.249C68.6952 68.8042 66.9175 74.2797 66.8464 75.0617C66.7753 75.8439 65.922 78.4036 65.8509 80.2525C65.7798 82.1013 64.7189 85.3336 64.6456 85.6816C64.5152 86.3011 64.0508 88.3127 64.0508 88.3127C64.0508 88.3127 65.6076 89.6907 66.1765 90.1175C66.7453 90.544 68.0574 90.8173 67.7708 91.4071C67.6587 91.6376 62.0113 91.1227 62.0113 91.1227C62.0113 91.1227 61.5847 90.1983 61.798 89.4872C62.0113 88.776 62.1534 87.7898 62.2245 87.3632C62.2956 86.9367 62.2956 84.2345 62.2956 82.6703C62.2956 81.1061 62.0824 79.0439 62.4378 77.4795C62.7933 75.9152 63.7177 73.9242 63.7177 73.9242C63.7177 73.9242 64.0731 72.3597 63.8599 69.0889C63.6466 65.818 62.7222 60.7693 62.7222 60.7693C62.7222 60.7693 67.2732 60.9826 68.9796 59.916Z" fill="white" stroke="#263238" stroke-width="0.1" stroke-miterlimit="10" stroke-linecap="round" stroke-linejoin="round"/>
<path d="M66.1768 90.1174C65.6078 89.6909 64.1647 88.5427 64.1647 88.5427C64.1647 88.5427 64.178 88.4749 64.2 88.3617C64.0639 88.3727 63.9024 88.4268 63.9024 88.6301C63.9024 88.98 63.9024 89.6799 63.9024 89.6799C63.9024 89.6799 62.7742 89.7545 61.8723 89.2206C61.8486 89.3117 61.824 89.401 61.798 89.4871C61.5847 90.1983 62.0113 91.1227 62.0113 91.1227C62.0113 91.1227 67.6589 91.6376 67.7708 91.4071C68.0577 90.8171 66.7458 90.544 66.1768 90.1174Z" fill="white" stroke="#263238" stroke-width="0.1" stroke-miterlimit="10" stroke-linecap="round" stroke-linejoin="round"/>
<path d="M65.2198 83.5346C65.5129 82.4513 65.8156 81.1791 65.8511 80.2525C65.9222 78.4036 66.7755 75.8439 66.8466 75.0617C66.9177 74.2794 68.6955 68.8042 68.9087 65.249C69.122 61.6938 68.9798 59.916 68.9798 59.916C67.2732 60.9826 62.7224 60.7693 62.7224 60.7693C62.7224 60.7693 63.6468 65.818 63.8601 69.0889C64.0734 72.3597 63.7179 73.924 63.7179 73.924C63.7179 73.924 62.7935 75.915 62.4381 77.4792C62.0826 79.0434 62.2959 81.1056 62.2959 82.67C62.2959 82.9276 62.2959 83.2175 62.2956 83.5216C63.1051 83.7156 64.1087 83.7967 65.2198 83.5346Z" fill="#263238" stroke="#263238" stroke-width="0.1" stroke-miterlimit="10" stroke-linecap="round" stroke-linejoin="round"/>
<path d="M58.741 60.2722C58.741 60.2722 59.0254 63.0455 60.092 65.2498C61.1586 67.4541 64.3584 73.2849 64.3584 73.2849C64.3584 73.2849 61.4429 76.4136 60.9453 78.1914C60.4477 79.9691 58.8832 85.231 58.5277 86.0841C58.1723 86.9374 56.6789 87.8619 57.1768 88.5728C57.6747 89.2839 59.3811 90.2081 60.1633 90.8481C60.9455 91.4882 62.5098 91.6304 62.8655 91.4882C63.2209 91.346 62.4389 90.7771 62.0121 90.2083C61.5856 89.6396 60.519 87.7197 60.519 87.364C60.519 87.0085 60.519 86.5818 60.519 86.5818C60.519 86.5818 66.7053 76.9824 67.1319 75.9158C67.5584 74.8492 68.0563 73.8536 67.9852 73.2138C67.9141 72.5738 65.852 60.2014 65.852 60.2014L58.741 60.2722Z" fill="white" stroke="#263238" stroke-width="0.1" stroke-miterlimit="10" stroke-linecap="round" stroke-linejoin="round"/>
<path d="M62.8652 91.4874C63.2207 91.3453 62.4387 90.7763 62.0119 90.2076C61.5853 89.6388 60.5187 87.7189 60.5187 87.3632C60.5187 87.3014 60.5187 87.2376 60.5187 87.1742C60.2502 87.0293 59.8694 86.9207 59.7365 87.3632C59.5232 88.0744 59.5232 88.0744 59.5232 88.0744L58.0606 86.7742C57.5179 87.4135 56.8116 88.0503 57.1768 88.572C57.6746 89.2831 59.3811 90.2073 60.1633 90.8474C60.9455 91.4874 62.5098 91.6296 62.8652 91.4874Z" fill="white" stroke="#263238" stroke-width="0.1" stroke-miterlimit="10" stroke-linecap="round" stroke-linejoin="round"/>
<path d="M67.9861 73.2128C67.915 72.5728 65.8529 60.2004 65.8529 60.2004L58.7422 60.2715C58.7422 60.2715 59.0265 63.0447 60.0931 65.249C61.1597 67.4533 64.3595 73.2842 64.3595 73.2842C64.3595 73.2842 61.4441 76.4129 60.9465 78.1906C60.7142 79.0202 60.2496 80.6087 59.784 82.1539C60.3615 82.6861 61.2306 83.3261 62.3623 83.7036C64.2224 80.7836 66.8595 76.5989 67.1328 75.9152C67.5596 74.8484 68.0572 73.8529 67.9861 73.2128Z" fill="#263238" stroke="#263238" stroke-width="0.1" stroke-miterlimit="10" stroke-linecap="round" stroke-linejoin="round"/>
<path d="M66.3051 38.8814C66.3051 38.8814 68.1409 41.6809 68.6 42.8744C69.0588 44.0677 69.8393 46.6838 69.6556 47.6935C69.4721 48.7033 67.9574 51.2275 67.9574 51.7324C67.9574 52.2373 69.3802 59.8101 69.3802 59.8101C69.3802 59.8101 69.3344 60.4985 67.0853 61.1871C64.8365 61.8755 62.3581 61.6459 60.66 61.3248C58.9618 61.0034 58.2734 60.315 58.2734 60.315C58.2734 60.315 61.119 50.8605 61.119 50.4473C61.119 50.0342 60.0635 45.1693 59.6962 43.9758C59.329 42.7826 59.2372 42.0942 59.9258 41.1302C60.6141 40.1665 63.6893 39.0649 64.4235 38.6519C65.1579 38.2388 66.0758 38.2846 66.3051 38.8814Z" fill="white" stroke="#263238" stroke-width="0.1" stroke-miterlimit="10" stroke-linecap="round" stroke-linejoin="round"/>
<path d="M66.0746 37.5502C66.0746 37.5502 67.0844 38.6058 67.4974 38.9272C67.9104 39.2484 67.9562 40.6253 68.0481 40.8549C68.14 41.0844 68.1858 41.3137 68.0481 41.2679C67.9104 41.2221 67.4974 40.2123 67.4974 40.2123L67.5432 40.8549C67.5432 40.8549 65.9827 38.9272 65.7993 38.606C65.6155 38.2846 66.0746 37.5502 66.0746 37.5502Z" fill="white" stroke="#263238" stroke-width="0.1" stroke-miterlimit="10" stroke-linecap="round" stroke-linejoin="round"/>
<path d="M67.4961 40.2123L67.6338 39.1107" stroke="#263238" stroke-width="0.1" stroke-miterlimit="10" stroke-linecap="round" stroke-linejoin="round"/>
<path d="M64.1458 26.5811C64.1458 26.5811 62.4476 27.1318 62.1262 28.7841C61.805 30.4365 62.5853 32.41 63.0441 33.649C63.5032 34.8883 63.6406 35.2553 63.549 36.1732C63.4571 37.0911 63.0441 38.4221 63.0441 38.4221C63.0441 38.4221 64.6964 40.3956 65.1095 41.4972C65.5225 42.5986 67.1288 44.2509 67.6797 44.1133C68.2304 43.9756 68.2304 42.6905 67.5879 41.2218C66.9453 39.7532 66.0274 38.973 66.0274 38.3763C66.0274 37.7797 66.3946 36.6781 66.3946 36.6781C66.3946 36.6781 67.6339 37.5042 68.0469 37.3207C68.46 37.1372 69.4239 34.7965 69.6532 34.1997C69.8828 33.6032 69.1941 32.7311 69.4697 32.3181C69.7451 31.9051 70.3418 31.4002 70.1581 30.4823C69.9746 29.5644 69.6993 27.6367 68.4142 26.7188C67.129 25.8008 64.8802 26.0762 64.1458 26.5811Z" fill="white" stroke="#263238" stroke-width="0.1" stroke-miterlimit="10" stroke-linecap="round" stroke-linejoin="round"/>
<path d="M64.4197 40.0286C64.4197 40.0286 66.3014 43.2872 66.99 44.9396C67.6784 46.5919 67.9537 49.2996 67.6784 50.2635C67.403 51.2273 66.3474 56.4596 66.4851 57.9282C66.6228 59.3968 66.8063 63.0227 66.8063 63.0227C66.8063 63.0227 65.4293 63.2522 62.1706 62.6555C58.912 62.0587 56.709 61.1408 56.709 61.1408C56.709 61.1408 60.4725 50.6766 60.4725 50.3552C60.4725 50.034 60.702 47.28 59.7841 45.5819C58.8662 43.8837 58.1318 42.1856 58.7743 41.543C59.4169 40.9004 62.6755 38.1467 62.6755 38.1467L64.4197 40.0286Z" fill="#C6FF00" stroke="#263238" stroke-width="0.1" stroke-miterlimit="10" stroke-linecap="round" stroke-linejoin="round"/>
<path d="M68.4142 26.7188C67.129 25.8008 64.8802 26.0762 64.1458 26.5811C64.1458 26.5811 62.4476 27.1318 62.1262 28.7841C61.805 30.4365 62.5853 32.41 63.0441 33.649C63.2076 34.0906 63.3297 34.4205 63.4158 34.7051C63.4774 34.7006 63.5372 34.6861 63.5948 34.6588C64.4669 34.2458 64.1455 33.0065 65.2471 32.41C66.144 31.9241 68.9576 30.1909 69.9719 29.5639C69.7533 28.6019 69.3546 27.3906 68.4142 26.7188Z" fill="#263238" stroke="#263238" stroke-width="0.1" stroke-miterlimit="10" stroke-linecap="round" stroke-linejoin="round"/>
<path d="M69.4487 28.7866C69.4487 28.7866 65.8276 32.0785 63.0293 32.4901" stroke="#6B6B6B" stroke-width="0.2" stroke-miterlimit="10" stroke-linecap="round" stroke-linejoin="round"/>
<path d="M67.2169 28.7623C65.7686 29.4893 63.7623 30.5749 62.8672 31.4202" stroke="#6B6B6B" stroke-width="0.2" stroke-miterlimit="10" stroke-linecap="round" stroke-linejoin="round"/>
<path d="M68.8752 27.9636C68.8752 27.9636 68.5921 28.0922 68.1445 28.307" stroke="#6B6B6B" stroke-width="0.2" stroke-miterlimit="10" stroke-linecap="round" stroke-linejoin="round"/>
<path d="M68.5515 32.4558L68.5057 33.0983C68.5057 33.0983 68.1385 33.3737 67.6797 33.0983" stroke="#263238" stroke-width="0.1" stroke-miterlimit="10" stroke-linecap="round" stroke-linejoin="round"/>
<path d="M68.9659 31.7674C68.9659 31.7674 68.461 31.2167 67.7266 31.5839" stroke="#263238" stroke-width="0.1" stroke-miterlimit="10" stroke-linecap="round" stroke-linejoin="round"/>
<path d="M69.6669 33.632C69.4173 33.7151 68.5658 33.9239 67.2669 33.4655C65.7064 32.9148 64.7885 32.5476 64.7885 32.5476C64.7885 32.5476 64.2836 32.3181 64.1001 32.7311C63.9166 33.1441 64.0543 33.5572 64.5131 34.1539C64.972 34.7507 66.3948 36.6781 66.3948 36.6781C66.3948 36.6781 67.6341 37.5042 68.0471 37.3207C68.4601 37.1372 69.4241 34.7965 69.6534 34.1997C69.7197 34.0278 69.7085 33.8325 69.6669 33.632ZM65.7522 35.0718C65.6603 35.3014 64.5129 33.8325 64.2836 33.3737C64.054 32.9146 64.6047 32.5934 65.0638 32.9607L66.0275 33.4655C66.0275 33.4655 65.8441 34.8423 65.7522 35.0718Z" fill="#C6FF00" stroke="#263238" stroke-width="0.1" stroke-miterlimit="10" stroke-linecap="round" stroke-linejoin="round"/>
<path d="M65.2008 33.2821C65.2008 33.2821 64.9713 31.7216 64.3748 31.6297C63.778 31.5379 63.8241 32.823 64.0994 33.3737C64.3748 33.9244 65.0173 33.8325 65.0173 33.8325" fill="white"/>
<path d="M65.2008 33.2821C65.2008 33.2821 64.9713 31.7216 64.3748 31.6297C63.778 31.5379 63.8241 32.823 64.0994 33.3737C64.3748 33.9244 65.0173 33.8325 65.0173 33.8325" stroke="#263238" stroke-width="0.1" stroke-miterlimit="10" stroke-linecap="round" stroke-linejoin="round"/>
<path d="M62.9999 36.816C62.9999 36.816 64.2392 38.3765 64.4227 38.6519C64.6062 38.9272 65.9831 40.7172 65.9831 40.7172L64.9734 42.3696C64.9734 42.3696 64.8815 42.3237 64.7899 41.9107C64.698 41.4977 62.5868 38.8356 62.541 38.6979C62.4952 38.5602 62.1738 38.2849 62.1738 38.2849L62.9999 36.816Z" fill="white" stroke="#263238" stroke-width="0.1" stroke-miterlimit="10" stroke-linecap="round" stroke-linejoin="round"/>
<path d="M79.2205 53.9061C79.1334 53.9061 79.0493 53.8608 79.003 53.78L77.6678 51.4438C77.5992 51.3239 77.641 51.1709 77.7609 51.1023C77.881 51.0335 78.034 51.0753 78.1023 51.1955L79.4375 53.5317C79.5063 53.6516 79.4643 53.8045 79.3444 53.8731C79.3053 53.8954 79.2625 53.9061 79.2205 53.9061Z" fill="white" stroke="#263238" stroke-width="0.1" stroke-miterlimit="10" stroke-linecap="round" stroke-linejoin="round"/>
<path d="M60.8994 39.982C60.8994 39.982 58.3997 41.6361 58.179 42.0384C57.9582 42.4406 62.9678 52.2088 63.3743 53.3892C63.7808 54.5697 63.9963 55.5269 64.137 55.6141C64.2777 55.7012 76.3342 55.0716 76.3342 55.0716C76.3342 55.0716 78.0328 55.0611 78.4366 54.7722C78.8403 54.4834 79.0957 53.8779 79.0957 53.8779C79.0957 53.8779 79.5527 53.8168 79.5407 53.4498C79.5285 53.0829 79.5683 52.8979 79.3848 52.9039C79.2013 52.9099 77.9475 52.4924 77.4446 52.5549C76.9414 52.6175 75.4703 53.9522 75.4703 53.9522C75.4703 53.9522 70.8099 53.2804 69.2367 52.9191C67.6635 52.5579 66.5994 52.3179 66.5994 52.3179L64.4874 44.0141" fill="#C6FF00"/>
<path d="M60.8994 39.982C60.8994 39.982 58.3997 41.6361 58.179 42.0384C57.9582 42.4406 62.9678 52.2088 63.3743 53.3892C63.7808 54.5697 63.9963 55.527 64.137 55.6141C64.2777 55.7012 76.3342 55.0716 76.3342 55.0716C76.3342 55.0716 78.0328 55.0611 78.4366 54.7722C78.8403 54.4834 79.0957 53.8779 79.0957 53.8779C79.0957 53.8779 79.5527 53.8168 79.5407 53.4498C79.5285 53.0829 79.5683 52.8979 79.3848 52.9039C79.2013 52.9099 77.9475 52.4924 77.4446 52.5549C76.9414 52.6175 75.4703 53.9522 75.4703 53.9522C75.4703 53.9522 70.8099 53.2804 69.2367 52.9191C67.6635 52.5579 66.5994 52.3179 66.5994 52.3179L64.4874 44.0141" stroke="#263238" stroke-width="0.1" stroke-miterlimit="10" stroke-linecap="round" stroke-linejoin="round"/>
<path d="M67.5156 55.5054C71.1257 55.3437 76.3333 55.0719 76.3333 55.0719C76.3333 55.0719 78.0319 55.0614 78.4357 54.7725C78.8394 54.4836 79.0948 53.8781 79.0948 53.8781C79.0948 53.8781 79.5518 53.817 79.5398 53.4501C79.5276 53.0831 79.5674 52.8981 79.3839 52.9041C79.2004 52.9101 77.9466 52.4926 77.4437 52.5552C76.9405 52.6178 75.4694 53.9525 75.4694 53.9525C75.4694 53.9525 70.809 53.2806 69.2358 52.9194C68.7287 52.803 68.2756 52.6994 67.8928 52.6123L67.5156 55.5054Z" fill="white" stroke="#263238" stroke-width="0.1" stroke-miterlimit="10" stroke-linecap="round" stroke-linejoin="round"/>
<path d="M67.3831 52.4298L67.1641 55.5139L68.4988 55.6073L68.7746 52.8428L67.3831 52.4298Z" fill="white" stroke="#263238" stroke-width="0.1" stroke-miterlimit="10" stroke-linecap="round" stroke-linejoin="round"/>
<path d="M30.595 60.1103C30.6068 60.1178 30.8369 59.2269 30.8449 59.1688C30.938 58.499 30.7245 57.1498 30.0426 56.8204C29.5512 56.5831 29.002 56.8684 28.8231 57.3603C28.6401 57.8627 28.8721 58.4792 29.1465 58.9035C29.4686 59.4011 30.594 60.1095 30.595 60.1103Z" fill="#263238"/>
<path d="M34.5644 55.2924C33.8114 55.2113 32.9165 56.2434 32.6412 56.8612C32.6174 56.9147 32.3415 57.7923 32.3553 57.7923C32.3553 57.7923 32.3683 57.7921 32.3713 57.7921C32.2289 57.9538 32.078 58.129 31.9168 58.3237C31.6221 58.6857 31.2927 59.0972 30.9643 59.5693C30.6349 60.0402 30.2902 60.5613 29.9768 61.1428C29.6617 61.7253 29.36 62.3541 29.133 63.042C29.1305 63.0497 29.1287 63.0582 29.1262 63.066C29.13 62.8442 29.1202 62.2234 29.114 62.1759C29.0271 61.505 28.4649 60.2602 27.7199 60.1225C27.1833 60.0234 26.7289 60.4437 26.6861 60.9656C26.6426 61.4985 27.0288 62.0319 27.4056 62.3684C27.8303 62.7478 29.0098 63.1156 29.1039 63.1443C28.8937 63.8017 28.7315 64.4931 28.6056 65.2019C28.5332 65.6072 28.4732 66.0175 28.4178 66.4297C28.4151 66.2378 28.4111 66.0663 28.4081 66.0423C28.3212 65.3714 27.759 64.1266 27.0141 63.9889C26.4774 63.8898 26.0231 64.3101 25.9802 64.832C25.9364 65.3649 26.3229 65.8983 26.6997 66.2348C27.0819 66.5762 28.0812 66.9099 28.3467 66.9945C28.3272 67.1529 28.3059 67.3109 28.2872 67.4691C28.1963 68.2293 28.1089 68.9882 28.0006 69.7299C27.9625 69.9915 27.9152 70.2473 27.8691 70.5037C27.8664 70.3332 27.8629 70.1898 27.8599 70.1677C27.773 69.4969 27.2108 68.2521 26.4659 68.1144C25.9292 68.015 25.4749 68.4355 25.4321 68.9575C25.3885 69.4904 25.775 70.0238 26.1517 70.3602C26.5164 70.6861 27.4361 71.0023 27.7512 71.1044C27.6959 71.3655 27.6411 71.6271 27.5758 71.8776C27.5272 72.0476 27.4924 72.2148 27.4343 72.3828C27.3803 72.5505 27.3267 72.7162 27.2736 72.8807C27.1597 73.1933 27.0443 73.5167 26.9257 73.8191C26.8448 74.0299 26.7637 74.2294 26.6826 74.4306C26.7237 74.1708 26.793 73.6607 26.794 73.6173C26.8043 73.168 26.6448 72.4376 26.3272 71.9242C26.3292 71.8579 26.3252 71.7915 26.3147 71.726C26.2316 71.209 25.746 70.8251 25.2185 70.9655C24.4866 71.1605 24.0225 72.4451 23.9877 73.1205C23.9857 73.1603 24.0118 73.5951 24.0328 73.8692C23.996 73.71 23.9619 73.555 23.9221 73.3916C23.8453 73.0679 23.7592 72.747 23.6678 72.4016C23.6178 72.2363 23.5672 72.0694 23.5164 71.9009C23.4696 71.7327 23.3982 71.561 23.3397 71.3888C23.1947 70.993 23.029 70.599 22.853 70.2055C23.1364 70.1377 24.1389 69.8821 24.5414 69.573C24.9422 69.2656 25.3672 68.7625 25.3635 68.2278C25.3597 67.7044 24.9379 67.251 24.3952 67.3101C23.6423 67.392 22.9887 68.5915 22.852 69.2538C22.8435 69.2951 22.799 69.7815 22.7794 70.0491C22.6718 69.8135 22.5657 69.5777 22.449 69.3429C22.1124 68.6651 21.7506 67.9895 21.3927 67.3139C21.2831 67.1069 21.1762 66.8996 21.0683 66.6923C21.1694 66.6693 22.3677 66.3912 22.8185 66.0453C23.2193 65.7379 23.6443 65.2347 23.6405 64.7001C23.6368 64.1766 23.215 63.7233 22.6723 63.7824C21.9194 63.8643 21.2658 65.0638 21.1291 65.7261C21.1188 65.7759 21.0555 66.4758 21.0483 66.6548C20.8112 66.1982 20.5789 65.7411 20.3684 65.281C20.077 64.6467 19.8262 64.0082 19.6292 63.3719C19.6763 63.3611 20.9281 63.0768 21.3902 62.7223C21.7909 62.4149 22.216 61.9118 22.2122 61.3771C22.2085 60.8534 21.7867 60.4006 21.2443 60.4595C20.4913 60.5413 19.8377 61.7408 19.7011 62.4032C19.692 62.4467 19.6432 62.9801 19.6262 63.2342C19.6024 63.2367 19.6069 63.2362 19.5832 63.2387C19.3802 62.5544 19.2695 61.8657 19.1979 61.2159C19.1556 60.8397 19.1363 60.4777 19.1253 60.1253C19.3639 60.0962 20.453 59.9513 20.9038 59.6782C21.3359 59.4166 21.8137 58.9633 21.8685 58.4314C21.9224 57.9107 21.5526 57.4138 21.007 57.4128C20.2495 57.4113 19.4683 58.532 19.2597 59.1753C19.2482 59.2104 19.1724 59.5788 19.1208 59.8479C19.1186 59.6887 19.1128 59.5245 19.1136 59.3721C19.1146 58.7994 19.1509 58.2749 19.1867 57.8106C19.2092 57.5468 19.2347 57.3087 19.261 57.0862C19.4803 56.9355 20.3561 56.317 20.6257 55.8752C20.8886 55.4439 21.1038 54.8213 20.9073 54.3239C20.7151 53.8371 20.1581 53.5665 19.6735 53.817C19.0007 54.165 18.8237 55.5195 18.9348 56.1865C18.9446 56.2441 19.1987 57.1285 19.2102 57.1207C19.2102 57.1207 19.2209 57.1135 19.2235 57.1117C19.1939 57.3252 19.1646 57.5548 19.1376 57.8058C19.0915 58.2702 19.0437 58.7953 19.0302 59.3703C19.0152 59.9448 19.0152 60.5696 19.0745 61.2274C19.1331 61.887 19.2282 62.5779 19.4184 63.277C19.4207 63.285 19.424 63.2928 19.426 63.3008C19.3068 63.1136 18.9561 62.6014 18.9248 62.5651C18.4823 62.0537 17.3266 61.3253 16.6294 61.6214C16.127 61.8347 15.9801 62.436 16.2322 62.8948C16.4897 63.3634 17.1063 63.5952 17.6062 63.668C18.1699 63.7501 19.3564 63.4062 19.4507 63.3784C19.638 64.0425 19.884 64.7088 20.1704 65.3694C20.3336 65.7474 20.5096 66.1229 20.6911 66.4971C20.5829 66.3386 20.4848 66.1977 20.469 66.1794C20.0265 65.668 18.8708 64.9399 18.1736 65.2357C17.6712 65.449 17.5243 66.0503 17.7764 66.5091C18.0339 66.9777 18.6505 67.2095 19.1504 67.2823C19.6575 67.3562 20.675 67.0833 20.9434 67.0072C21.0145 67.1502 21.0838 67.2936 21.1554 67.436C21.4991 68.1201 21.845 68.8012 22.1634 69.4799C22.2758 69.7189 22.3777 69.9585 22.4808 70.1978C22.3845 70.0571 22.3023 69.9394 22.2878 69.9227C21.8453 69.4113 20.6896 68.6829 19.9924 68.979C19.49 69.1922 19.3431 69.7935 19.5952 70.2523C19.8527 70.7209 20.4693 70.9527 20.9692 71.0253C21.4533 71.0959 22.3945 70.8523 22.7139 70.7637C22.8117 71.012 22.9104 71.2604 22.994 71.5054C23.0473 71.6739 23.1104 71.8326 23.1547 72.0048C23.202 72.1745 23.2488 72.3425 23.2954 72.5087C23.373 72.8323 23.4551 73.1658 23.5229 73.4834C23.5717 73.704 23.6143 73.915 23.6576 74.1275C23.5484 73.8882 23.3249 73.4244 23.3019 73.3876C22.9419 72.8148 21.9099 71.9199 21.1759 72.1072C20.6473 72.2421 20.4107 72.8141 20.5904 73.3057C20.7742 73.8078 21.3484 74.1302 21.8315 74.2782C22.3634 74.4409 23.5412 74.2922 23.6881 74.2727C23.7587 74.6246 23.824 74.9676 23.8803 75.292C24.0786 76.4166 24.201 77.3611 24.2773 78.0219C24.2909 78.1393 24.3024 78.2442 24.3129 78.3431H22.0353L22.7114 91.5363H26.9082L27.5843 78.3431H25.4606C25.4764 78.3105 25.4914 78.28 25.5077 78.2457C25.799 77.6387 26.203 76.7661 26.6396 75.6987C26.7783 75.3618 26.9197 74.9988 27.0616 74.6249C27.204 74.6547 28.37 74.8915 28.9132 74.7688C29.4058 74.6574 30.0028 74.3788 30.2234 73.8917C30.4394 73.4148 30.2461 72.8266 29.7287 72.6529C29.0108 72.4116 27.9147 73.2271 27.5132 73.7713C27.4894 73.8033 27.2714 74.1803 27.1377 74.4206C27.1948 74.2674 27.2521 74.1195 27.3089 73.961C27.4236 73.6486 27.5287 73.3335 27.6431 72.9951C27.6927 72.8296 27.7425 72.6626 27.793 72.4937C27.8469 72.3275 27.8822 72.145 27.928 71.969C28.0256 71.559 28.1044 71.1387 28.1748 70.7137C28.4486 70.8133 29.4259 71.1532 29.932 71.1177C30.4359 71.0824 31.0679 70.8972 31.3598 70.4491C31.6454 70.0103 31.5435 69.3998 31.0587 69.1494C30.3856 68.8023 29.1788 69.4423 28.6992 69.9194C28.6694 69.9492 28.3638 70.3302 28.2001 70.5427C28.2404 70.2869 28.2817 70.0318 28.314 69.7715C28.4071 69.0205 28.4782 68.2573 28.5523 67.4966C28.5748 67.2636 28.6001 67.0315 28.6246 66.7992C28.7215 66.8358 29.8744 67.2651 30.4414 67.225C30.9453 67.1897 31.5773 67.0045 31.8692 66.5564C32.1548 66.1176 32.0529 65.5071 31.5681 65.257C30.895 64.9098 29.6879 65.5499 29.2088 66.027C29.1728 66.063 28.734 66.6117 28.6291 66.7569C28.6832 66.2453 28.7417 65.7359 28.8201 65.2362C28.927 64.5464 29.0699 63.8755 29.2566 63.236C29.3017 63.2532 30.503 63.7063 31.0837 63.6658C31.5876 63.6305 32.2196 63.4452 32.5115 62.9972C32.7971 62.5584 32.6952 61.9478 32.2104 61.6978C31.5373 61.3506 30.3305 61.9906 29.8511 62.4677C29.8196 62.499 29.4849 62.9168 29.3305 63.1193C29.3092 63.1083 29.3132 63.1103 29.2919 63.0993C29.5002 62.4164 29.7878 61.7814 30.0864 61.1999C30.2587 60.8627 30.4421 60.5503 30.6276 60.2502C30.8426 60.3576 31.8309 60.8374 32.3576 60.8585C32.8625 60.8787 33.5108 60.7641 33.8502 60.3508C34.1824 59.946 34.1481 59.328 33.6935 59.0261C33.0625 58.6071 31.7928 59.1107 31.2639 59.5323C31.2351 59.5553 30.9686 59.8206 30.7771 60.0166C30.8629 59.8825 30.9488 59.7425 31.0334 59.6156C31.3503 59.1385 31.6697 58.721 31.9558 58.3538C32.1203 58.1463 32.273 57.9618 32.4174 57.7906C32.6835 57.7858 33.7551 57.7533 34.2237 57.5333C34.681 57.3185 35.2037 56.918 35.3143 56.3948C35.4222 55.8837 35.1068 55.3507 34.5644 55.2924ZM26.2261 75.5253C25.771 76.5728 25.3522 77.4279 25.0511 78.0214C24.9902 78.1411 24.9359 78.2469 24.8851 78.3446H24.8348C24.82 78.2287 24.8035 78.102 24.784 77.9598C24.6921 77.2927 24.5477 76.3423 24.3229 75.2111C24.2526 74.8534 24.1705 74.4727 24.0823 74.0827C24.171 74.0474 24.6731 73.8444 25.1182 73.5956C25.5059 74.0153 26.4992 74.5067 26.6278 74.5693C26.4929 74.9015 26.358 75.2234 26.2261 75.5253Z" fill="#263238"/>
<path d="M17.1479 59.8179C17.6913 60.0552 19.021 60.0254 19.022 60.0254C19.0358 60.0251 18.7364 59.155 18.7111 59.1022C18.4192 58.492 17.4968 57.4844 16.7464 57.5858C16.2057 57.6589 15.905 58.2001 16.027 58.7092C16.1516 59.2291 16.685 59.6154 17.1479 59.8179Z" fill="#263238"/>
<path d="M114.296 91.5378H19.1758" stroke="#263238" stroke-width="0.1" stroke-miterlimit="10" stroke-linecap="round" stroke-linejoin="round"/>
</svg>
