<svg width="18" height="16" viewBox="0 0 18 16" fill="none" xmlns="http://www.w3.org/2000/svg">
<path d="M11.9833 8.00006C11.9833 9.65006 10.6499 10.9834 8.99993 10.9834C7.34993 10.9834 6.0166 9.65006 6.0166 8.00006C6.0166 6.35006 7.34993 5.01672 8.99993 5.01672C10.6499 5.01672 11.9833 6.35006 11.9833 8.00006Z" stroke="#C6C6C6" stroke-width="1.5" stroke-linecap="round" stroke-linejoin="round"/>
<path d="M8.99987 14.8916C11.9415 14.8916 14.6832 13.1583 16.5915 10.1583C17.3415 8.98331 17.3415 7.00831 16.5915 5.83331C14.6832 2.83331 11.9415 1.09998 8.99987 1.09998C6.0582 1.09998 3.31654 2.83331 1.4082 5.83331C0.658203 7.00831 0.658203 8.98331 1.4082 10.1583C3.31654 13.1583 6.0582 14.8916 8.99987 14.8916Z" stroke="#C6C6C6" stroke-width="1.5" stroke-linecap="round" stroke-linejoin="round"/>
</svg>
