<svg width="112" height="50" viewBox="0 0 112 50" fill="none" xmlns="http://www.w3.org/2000/svg">
<g clip-path="url(#clip0_237_33)">
<path d="M23.4609 49.1573C21.6346 49.7191 19.7146 50 17.7947 50C15.3596 50.0468 12.9714 49.5318 10.8173 48.4551C8.75685 47.4251 7.67981 46.3015 7.02421 44.8034C6.46228 43.4925 6.27496 41.1517 6.22814 37.9213V37.5936C6.22814 37.3595 6.18131 34.1292 6.18131 34.1292V15.0281H0V13.9045H6.22814V12.7809C6.22814 12.7341 6.22814 12.6404 6.22814 12.4532C6.32179 6.8352 6.22814 5.14981 6.13448 4.68164C5.80668 3.18352 5.24475 2.24719 4.40184 1.87265C3.79308 1.54494 3.09065 1.40449 2.38823 1.40449H2.06044V0.0936279H12.6904V13.9045H21.6346V15.0281H12.7372V17.4625C12.7372 19.5693 12.7372 31.133 12.7372 37.6404V38.2022C12.7372 41.3389 12.9246 43.3989 13.3928 44.4757C13.8611 45.6929 14.8445 46.676 16.3898 47.3783C17.9352 48.1273 19.621 48.5019 21.3536 48.5019C21.9155 48.5019 22.4775 48.4551 23.0394 48.4082" fill="#00212F"/>
<path d="M42.6135 47.8464H42.9881V49.2509H28.4714V47.8464H28.8461C29.5017 47.7996 30.2041 47.6592 30.8128 47.4251C31.6557 47.0038 32.1709 46.0206 32.4987 44.4288C32.5455 44.1479 32.5455 43.9139 32.5455 43.633V19.6161C32.5455 19.3352 32.4987 19.1011 32.4987 18.867C32.2177 17.2753 31.6557 16.2921 30.8128 15.8708C30.2041 15.6367 29.5017 15.4494 28.8461 15.4494H28.4714V14.045H38.8673V43.6798C38.8673 43.9607 38.9141 44.1948 38.9609 44.4288C39.2419 46.0206 39.8038 47.0038 40.6467 47.4251C41.2555 47.6592 41.9579 47.8464 42.6135 47.8464Z" fill="#00212F"/>
<path d="M41.3491 15.4026L41.9111 15.1217C43.6437 14.3258 45.5636 13.9513 47.4836 13.9981C49.4972 13.9981 51.0425 14.4663 52.1664 15.4963C53.3371 16.5262 53.899 17.5562 53.899 18.633C53.899 19.2884 53.6181 19.897 53.103 20.3184C52.6347 20.7397 51.9791 20.9738 51.3235 20.9738C50.8552 20.9738 49.4036 20.9738 48.2797 18.3052C47.3431 16.1517 45.2827 15.7772 44.6739 15.6835C44.112 15.5899 43.4564 15.4963 42.0984 15.7303H41.6769" fill="#00212F"/>
<path d="M70.8041 49.2509H54.6484V48.0805L54.9762 48.0337C56.1001 47.9401 57.224 47.7996 58.301 47.5655C58.6757 47.4719 59.0971 46.4888 59.1908 45.6929V45.6461C59.1908 45.5524 59.1908 45.5056 59.1908 45.412C59.1908 45.2247 59.2376 45.0375 59.2376 44.8034C59.3312 43.2116 59.4249 40.6835 59.4249 36.6573V26.779C59.4249 26.7322 59.4249 26.6386 59.4249 26.4045C59.5186 20.7865 59.4249 19.0543 59.3312 18.633C59.0034 17.1348 58.4415 16.1985 57.5986 15.824C56.943 15.5899 56.2406 15.4494 55.585 15.4026H55.2104V14.045H65.8404V36.7041C65.8404 40.7303 65.934 43.3053 66.0277 44.8502C66.0277 45.0375 66.0277 45.2247 66.0745 45.4588C66.0745 45.5524 66.0745 45.5993 66.0745 45.6929V45.7397C66.1682 46.5356 66.5896 47.4719 66.9642 47.5655C68.0881 47.7996 69.1651 47.9401 70.289 48.0337L70.6168 48.0805L70.8041 49.2509Z" fill="#00212F"/>
<path d="M60.4551 5.71161C59.7995 5.103 59.4717 4.21348 59.4717 3.32397C59.4717 2.43446 59.7995 1.59176 60.4551 0.983146C61.0638 0.327715 61.9067 0 62.7496 0C63.6394 0 64.4355 0.327715 65.0442 0.983146C65.653 1.59176 66.0276 2.43446 65.9808 3.32397C65.9808 4.21348 65.653 5.05618 65.0442 5.71161C64.4355 6.36704 63.6394 6.69476 62.7496 6.69476C61.9067 6.69476 61.0638 6.32022 60.4551 5.71161Z" fill="#00212F"/>
<path d="M68.5095 14.4195C69.7271 14.2322 70.9914 14.0918 72.2558 14.0918C76.002 14.1386 78.8585 14.7004 81.0595 15.7772C83.354 16.9008 84.8057 18.2116 85.5081 19.8502C86.2105 21.5356 86.5852 24.3446 86.5852 28.2303V29.4476L86.632 36.0487C86.632 40.309 86.7256 43.0243 86.8193 44.7097C86.8193 44.9438 86.8193 45.1311 86.8661 45.3652C86.8661 45.4588 86.8661 45.5056 86.8661 45.5993V45.6929C86.9598 46.6292 87.3812 47.5655 87.6622 47.6592C88.6456 47.8933 89.6758 48.0337 90.706 48.1273L91.0338 48.1742V49.3446H76.2362V48.1742L76.564 48.1273C77.5942 48.0337 78.5776 47.8933 79.6078 47.6592C79.8887 47.5655 80.3102 46.5824 80.4039 45.6929V45.6461C80.4039 45.5524 80.4039 45.5056 80.4039 45.412C80.4039 45.1779 80.4507 44.9906 80.4507 44.7566C80.4975 43.8202 80.5443 42.2753 80.5912 40.1217V27.4345C80.5912 24.4382 80.357 22.2846 79.8888 20.8333C79.3736 19.2884 78.2029 17.9775 76.3766 16.9476C74.5503 15.9176 72.6772 14.9813 69.4461 15.1685C69.2588 15.1685 68.8373 15.2154 68.65 15.2154" fill="#00212F"/>
<path d="M111.029 49.2509H96.2317V48.0805L96.5595 48.0337C97.5898 47.9401 98.5731 47.7996 99.6034 47.5655C99.8843 47.4719 100.306 46.4888 100.399 45.5993V45.5524C100.399 45.4588 100.399 45.412 100.399 45.3184C100.399 45.0843 100.446 44.897 100.446 44.6629C100.493 43.7266 100.54 42.1817 100.587 40.0281V27.294C100.587 24.2978 100.353 22.1442 99.8843 20.6929C99.3692 19.1479 98.1985 17.8371 96.3722 16.8071C94.5459 15.7772 92.2045 15.2622 89.4885 15.2622C88.5519 15.2622 86.7256 15.4494 86.6788 15.4494L86.5383 14.7472C88.4115 14.279 90.2846 14.045 92.2045 14.045C95.9508 14.0918 98.8073 14.6536 101.008 15.7303C103.303 16.8539 104.754 18.1648 105.457 19.8034C106.159 21.4888 106.534 24.2978 106.534 28.1835V29.4008L106.581 36.0019C106.581 40.2622 106.674 42.9775 106.768 44.6629C106.768 44.897 106.768 45.0843 106.815 45.3184C106.815 45.412 106.815 45.4588 106.815 45.5524V45.6461C106.909 46.5824 107.33 47.5187 107.611 47.6124C108.594 47.8464 109.625 47.9869 110.655 48.0805L110.983 48.1273V49.2509H111.029Z" fill="#00212F"/>
</g>
<defs>
<clipPath id="clip0_237_33">
<rect width="111.029" height="50" fill="white"/>
</clipPath>
</defs>
</svg>
