<svg width="20" height="20" viewBox="0 0 20 20" fill="none" xmlns="http://www.w3.org/2000/svg">
<path d="M17.51 0H13.3596C12.9012 0 12.5295 0.372266 12.5295 0.831445C12.5295 1.29062 12.9012 1.66289 13.3596 1.66289H17.1664L11.4952 7.3434C8.42601 4.9184 3.97526 5.44477 1.55429 8.51906C-0.866689 11.5934 -0.34122 16.0514 2.728 18.4764C5.79722 20.9014 10.248 20.375 12.6689 17.3007C14.6967 14.7259 14.6967 11.094 12.6689 8.5191L18.3401 2.83859V6.65164C18.3401 7.11086 18.7117 7.48309 19.1702 7.48309C19.6286 7.48309 20.0003 7.11082 20.0003 6.65164V2.49437C20.0003 1.11676 18.8853 0 17.51 0ZM7.13394 18.292C4.15405 18.292 1.73839 15.8723 1.73839 12.8875C1.73839 9.90273 4.15405 7.48309 7.13394 7.48309C10.1138 7.48309 12.5295 9.90273 12.5295 12.8875C12.5258 15.8708 10.1123 18.2883 7.13394 18.292Z" fill="white"/>
</svg>
