<svg width="202" height="191" viewBox="0 0 202 191" fill="none" xmlns="http://www.w3.org/2000/svg">
<path d="M97.5 190.848C151.348 190.848 195 147.419 195 93.8476H0C0 147.419 43.6522 190.848 97.5 190.848Z" fill="#DCD7C3"/>
<ellipse cx="102" cy="146.348" rx="67" ry="10.5" fill="#C9C3A9"/>
<path d="M202 133.84H8V133.927H202V133.84Z" fill="#EBEBEB"/>
<path d="M182.561 139.471H169.711V139.559H182.561V139.471Z" fill="#EBEBEB"/>
<path d="M136.512 140.423H133.141V140.511H136.512V140.423Z" fill="#EBEBEB"/>
<path d="M169.321 136.223H161.875V136.311H169.321V136.223Z" fill="#EBEBEB"/>
<path d="M45.1132 136.812H28.3555V136.899H45.1132V136.812Z" fill="#EBEBEB"/>
<path d="M51.0264 136.812H48.5703V136.899H51.0264V136.812Z" fill="#EBEBEB"/>
<path d="M95.3596 138.288H59.0117V138.376H95.3596V138.288Z" fill="#EBEBEB"/>
<path d="M99.9547 118.23H25.0358C24.4489 118.229 23.8864 118.018 23.4717 117.643C23.0571 117.269 22.8242 116.761 22.8242 116.232V21.231C22.8293 20.7046 23.0645 20.2013 23.4786 19.8304C23.8927 19.4595 24.4523 19.2509 25.0358 19.25H99.9547C100.542 19.25 101.106 19.4606 101.521 19.8353C101.937 20.2101 102.17 20.7185 102.17 21.2485V116.232C102.17 116.762 101.937 117.27 101.521 117.645C101.106 118.019 100.542 118.23 99.9547 118.23ZM25.0358 19.32C24.4746 19.3209 23.9368 19.5227 23.5403 19.881C23.1439 20.2392 22.9212 20.7248 22.9212 21.231V116.232C22.9212 116.738 23.1439 117.223 23.5403 117.582C23.9368 117.94 24.4746 118.142 25.0358 118.143H99.9547C100.516 118.142 101.055 117.94 101.452 117.582C101.849 117.224 102.072 116.738 102.073 116.232V21.231C102.072 20.7245 101.849 20.2389 101.452 19.8807C101.055 19.5226 100.516 19.3209 99.9547 19.32H25.0358Z" fill="#EBEBEB"/>
<path d="M183.884 118.23H108.962C108.374 118.229 107.811 118.018 107.396 117.644C106.981 117.269 106.747 116.761 106.746 116.232V21.231C106.752 20.7043 106.988 20.201 107.403 19.8302C107.818 19.4593 108.378 19.2509 108.962 19.25H183.884C184.467 19.2518 185.026 19.4608 185.439 19.8316C185.852 20.2024 186.087 20.7052 186.092 21.231V116.232C186.092 116.76 185.86 117.268 185.446 117.642C185.032 118.017 184.471 118.228 183.884 118.23ZM108.962 19.32C108.4 19.3209 107.862 19.5226 107.465 19.8807C107.068 20.2389 106.844 20.7245 106.843 21.231V116.232C106.844 116.738 107.068 117.224 107.465 117.582C107.862 117.94 108.4 118.142 108.962 118.143H183.884C184.446 118.142 184.984 117.94 185.381 117.582C185.778 117.224 186.002 116.738 186.003 116.232V21.231C186.002 20.7245 185.778 20.2389 185.381 19.8807C184.984 19.5226 184.446 19.3209 183.884 19.32H108.962Z" fill="#EBEBEB"/>
<path d="M174.701 49.252H35.3008V110.264H174.701V49.252Z" fill="#F0F0F0"/>
<path d="M148.728 100.699L147.774 100.594C147.706 100.59 147.639 100.59 147.572 100.594C147.245 100.61 146.929 100.7 146.65 100.853C146.371 101.007 146.138 101.221 145.973 101.476C145.477 101.315 145.077 101.21 145.077 101.21C144.959 100.936 144.765 100.696 144.512 100.512C144.26 100.328 143.958 100.206 143.637 100.16L142.683 100.055C141.663 99.9425 140.708 100.755 140.464 101.871C139.42 101.457 138.33 101.146 137.212 100.944L137.577 99.813C137.577 99.813 138.167 98.8855 137.767 98.035C137.508 97.4253 137.346 96.7854 137.286 96.1345C137.286 96.1345 138.279 94.7625 137.833 93.5445C137.387 92.3265 134.915 92.0325 134.915 92.0325C134.915 92.0325 134.632 91.812 134.097 91.462L134.065 91.441L134.108 91.2835L133.192 90.741C133.192 90.741 133.192 90.79 133.158 90.874C132.475 90.4645 131.606 89.985 130.573 89.474C130.399 89.2745 130.275 89.0785 130.364 88.942C130.453 88.8055 130.562 88.6585 130.67 88.5185L130.837 88.3155L130.996 88.354C131.449 88.4251 131.913 88.4078 132.357 88.3033C132.802 88.1989 133.216 88.0097 133.573 87.7485C133.844 87.5501 134.097 87.3324 134.329 87.0975C134.939 86.5039 135.432 85.821 135.788 85.078C135.788 85.078 135.788 85.078 135.811 85.078C135.832 85.0847 135.854 85.0847 135.874 85.078C135.884 85.0692 135.892 85.0586 135.897 85.0469C135.903 85.0351 135.906 85.0225 135.906 85.0098C135.906 84.997 135.903 84.9844 135.897 84.9727C135.892 84.9609 135.884 84.9503 135.874 84.9415C135.874 84.9415 135.854 84.9415 135.85 84.9205C135.948 84.6858 136.026 84.4448 136.083 84.1995C136.213 83.865 136.316 83.5222 136.39 83.174C137.166 82.782 137.798 80.9515 137.212 80.0835C136.595 79.1595 134.384 78.526 134.178 78.4665C134.634 78.6553 135.055 78.9055 135.427 79.2085C135.315 79.1595 133.538 78.372 132.354 78.344C131.171 78.316 129.425 79.6285 129.064 81.0355L129.382 80.6015C129.146 81.1234 128.984 81.6703 128.901 82.229C128.724 82.3763 128.602 82.5695 128.552 82.782C128.466 83.1869 128.525 83.6059 128.719 83.979C128.622 84.4265 128.57 84.881 128.564 85.337C128.564 85.4525 128.564 85.5715 128.564 85.687C128.318 86.391 127.955 87.0568 127.485 87.661C127.287 87.8192 127.054 87.9384 126.802 88.011L126.24 87.8605C125.522 87.683 124.794 87.5416 124.059 87.437C124.059 87.353 124.059 87.304 124.059 87.304L122.565 87.199V87.269C122.391 87.269 122.235 87.241 122.092 87.234C121.374 86.968 120.276 86.702 119.376 87.1255C117.921 87.8255 116.869 90.5905 116.869 90.5905C116.869 90.5905 114.576 95.1405 114.014 95.886C113.451 96.6315 112.652 104.636 112.652 104.636C112.652 104.636 112.481 104.874 112.264 105.217C112.214 105.189 112.16 105.165 112.105 105.147C111.981 105.099 111.85 105.066 111.717 105.049L110.766 104.93C109.687 104.79 108.659 105.676 108.465 106.901C108.271 108.126 108.989 109.235 110.068 109.372L111.018 109.494C111.085 109.497 111.153 109.497 111.22 109.494C111.547 109.483 111.865 109.399 112.148 109.25C112.43 109.101 112.667 108.891 112.838 108.64C113.331 108.812 113.727 108.924 113.727 108.924C113.838 109.2 114.027 109.445 114.275 109.635C114.523 109.826 114.822 109.954 115.143 110.009L116.097 110.131H116.295C117.296 110.131 118.212 109.295 118.394 108.143C118.588 106.915 117.87 105.809 116.796 105.672L115.841 105.55C115.41 105.5 114.974 105.602 114.623 105.833C114.557 105.448 114.51 104.888 114.483 104.51C115.073 103.324 116.78 99.61 116.384 97.293C116.307 96.8275 118.154 96.6945 120.09 94.3005C119.993 95.3225 119.985 95.7005 119.942 96.684C119.861 98.336 119.845 99.834 119.853 101.042C119.754 101.099 119.649 101.147 119.539 101.185L119.927 103.758C119.504 105.902 119.259 108.072 119.193 110.25H147.991C146.051 109.512 142.276 108.875 140.894 108.658C140.844 108.462 140.805 108.357 140.805 108.357L133.076 107.261L132.413 104.416L132.688 102.575C132.656 102.514 132.627 102.452 132.603 102.389C132.739 101.276 132.913 100.184 133.111 99.1445C133.258 99.7745 133.433 100.391 133.635 100.961C134.155 102.466 134.834 103.632 135.575 103.733C136.549 103.866 139.455 104.125 141.488 104.304C141.668 104.393 141.866 104.451 142.07 104.475L143.024 104.58C143.024 104.58 146.016 104.93 146.478 104.93C146.527 104.925 146.574 104.905 146.61 104.874C146.781 104.956 146.968 105.009 147.16 105.032L148.115 105.137C149.194 105.256 150.202 104.356 150.369 103.124C150.536 101.892 149.807 100.818 148.728 100.699Z" fill="#E0E0E0"/>
<path d="M82.8586 102.977H82.1757C81.7254 102.989 81.2822 103.082 80.8714 103.249C80.4606 103.416 80.0904 103.654 79.7817 103.95V100.579C80.0213 100.856 80.3259 101.081 80.6734 101.238C81.0209 101.395 81.4028 101.481 81.7916 101.489H82.3037C83.9256 101.489 85.237 99.9915 85.237 98.1435C85.237 96.2955 83.9256 94.7975 82.3037 94.7975H81.7916C81.3718 94.8101 80.9613 94.9118 80.5932 95.0942C80.2252 95.2766 79.9099 95.5347 79.6731 95.8475H78.1211V97.6605H76.0724C76.0658 97.62 76.0514 97.581 76.0298 97.545C75.7 97.216 74.1169 97.272 74.1169 97.272C74.1169 97.272 71.0129 97.461 70.4232 97.398C70.004 97.3809 69.5881 97.472 69.2242 97.6605H66.5121C66.2987 96.0505 65.0843 94.8115 63.6138 94.8115H63.0977C61.4759 94.8115 60.1606 96.3095 60.1606 98.1575C60.1606 100.006 61.4759 101.504 63.0977 101.504H63.6099H63.769V103.015H63.5012C61.3401 103.015 59.5902 105.014 59.5902 107.478C59.5779 108.477 59.8851 109.457 60.4748 110.302H67.2105C67.7048 109.602 68.0006 108.803 68.0719 107.975H68.4405C68.4289 108.752 68.4717 109.53 68.5685 110.302C68.5685 110.337 68.5685 110.355 68.5957 110.358C68.6283 110.365 68.6623 110.363 68.6938 110.354C68.7254 110.344 68.7532 110.326 68.7742 110.302C68.9565 110.155 69.1622 109.805 69.6937 110.015C69.8379 110.077 69.9961 110.107 70.1554 110.103C70.1554 110.169 70.1554 110.236 70.1554 110.302H76.2897C76.3285 109.746 76.3518 108.93 76.3634 107.975H78.1017V110.25H85.8966C86.4743 109.41 86.7757 108.439 86.7657 107.45C86.7657 104.975 85.0236 102.977 82.8586 102.977ZM68.4327 106.939H68.0758C67.9089 105.189 66.8536 103.758 65.4374 103.212V100.762C66.0445 100.18 66.4223 99.4349 66.5121 98.6405H68.8401C68.5297 100.404 68.4211 104.164 68.4327 106.939ZM78.0978 106.939H76.3634C76.3634 104.062 76.2858 100.426 76.1578 98.6265H78.0978V106.939Z" fill="#E0E0E0"/>
<path d="M65.2815 49.252L35.3008 109.938V90.8635L55.857 49.252H65.2815Z" fill="#F5F5F5"/>
<path d="M174.702 76.048V95.123L167.221 110.264H157.801L174.702 76.048Z" fill="#F5F5F5"/>
<path d="M77.4244 49.252L47.2845 110.264H42.5742L72.7102 49.252H77.4244Z" fill="#F5F5F5"/>
<path d="M160.909 49.252L130.773 110.264H126.062L156.198 49.252H160.909Z" fill="#F5F5F5"/>
<path d="M139.527 49.252L109.387 110.264H107.758L137.898 49.252H139.527Z" fill="#F5F5F5"/>
<path d="M82.0577 49.252H81.3516V110.264H82.0577V49.252Z" fill="#E0E0E0"/>
<path d="M128.648 49.252H127.941V110.264H128.648V49.252Z" fill="#E0E0E0"/>
<circle cx="105" cy="38" r="8" fill="#D9D9D9"/>
<circle cx="105" cy="38" r="7" fill="#DFF000"/>
<path d="M105.345 37.7755H105.268C105.191 37.753 105.124 37.7096 105.076 37.6513C105.028 37.5929 105.002 37.5226 105 37.45V34.475C105 34.3877 105.038 34.3041 105.107 34.2424C105.175 34.1807 105.268 34.146 105.365 34.146C105.461 34.146 105.554 34.1807 105.623 34.2424C105.691 34.3041 105.729 34.3877 105.729 34.475V35.9485L107.196 33.096C107.237 33.0166 107.311 32.9551 107.402 32.9249C107.493 32.8947 107.593 32.8983 107.681 32.935C107.769 32.9717 107.837 33.0384 107.871 33.1204C107.904 33.2025 107.9 33.2931 107.86 33.3725L105.698 37.5725C105.667 37.6333 105.617 37.6847 105.555 37.7206C105.492 37.7566 105.42 37.7757 105.345 37.7755Z" fill="#263238"/>
<path d="M164.64 140.084H165.804C167.119 140.084 168.186 141.302 168.186 142.8C168.186 144.298 167.119 145.516 165.804 145.516H164.64C163.325 145.516 162.258 144.301 162.258 142.8C162.258 141.298 163.325 140.084 164.64 140.084Z" fill="#263238"/>
<path opacity="0.1" d="M164.64 140.084H165.804C167.119 140.084 168.186 141.302 168.186 142.8C168.186 144.298 167.119 145.516 165.804 145.516H164.64C163.325 145.516 162.258 144.301 162.258 142.8C162.258 141.298 163.325 140.084 164.64 140.084Z" fill="white"/>
<path opacity="0.2" d="M162.258 142.8C162.258 144.301 163.325 145.516 164.64 145.516C165.955 145.516 167.022 144.301 167.022 142.8C167.022 141.298 165.955 140.084 164.64 140.084C163.325 140.084 162.258 141.302 162.258 142.8Z" fill="white"/>
<path d="M159.884 141.75H164.214C164.727 141.75 165.142 142.222 165.142 142.8C165.142 143.377 164.727 143.85 164.214 143.85H159.884C159.372 143.85 158.957 143.377 158.957 142.8C158.957 142.222 159.372 141.75 159.884 141.75Z" fill="#263238"/>
<path d="M158.433 140.084H159.597C160.912 140.084 161.979 141.302 161.979 142.8C161.979 144.298 160.912 145.516 159.597 145.516H158.433C157.118 145.516 156.051 144.301 156.051 142.8C156.051 141.298 157.118 140.084 158.433 140.084Z" fill="#263238"/>
<path opacity="0.1" d="M158.433 140.084H159.597C160.912 140.084 161.979 141.302 161.979 142.8C161.979 144.298 160.912 145.516 159.597 145.516H158.433C157.118 145.516 156.051 144.301 156.051 142.8C156.051 141.298 157.118 140.084 158.433 140.084Z" fill="white"/>
<path opacity="0.2" d="M156.051 142.8C156.051 144.301 157.118 145.516 158.433 145.516C159.748 145.516 160.815 144.301 160.815 142.8C160.815 141.298 159.748 140.084 158.433 140.084C157.118 140.084 156.051 141.302 156.051 142.8Z" fill="white"/>
<path d="M156.605 132.468C156.436 132.472 156.27 132.427 156.131 132.34C155.991 132.253 155.886 132.129 155.829 131.985C155.801 131.913 155.748 131.85 155.679 131.806C155.609 131.761 155.526 131.737 155.441 131.737C155.356 131.736 155.273 131.76 155.203 131.804C155.133 131.849 155.081 131.912 155.053 131.985C154.998 132.126 154.896 132.248 154.76 132.335C154.625 132.421 154.463 132.468 154.297 132.468H154.277V134.075H156.605V132.468ZM155.441 132.394C155.39 132.394 155.339 132.381 155.297 132.355C155.254 132.329 155.22 132.292 155.201 132.249C155.181 132.206 155.176 132.159 155.187 132.113C155.197 132.067 155.222 132.026 155.259 131.993C155.296 131.96 155.342 131.938 155.393 131.93C155.444 131.921 155.496 131.926 155.544 131.944C155.591 131.963 155.631 131.993 155.659 132.032C155.687 132.071 155.702 132.117 155.701 132.163C155.7 132.225 155.672 132.284 155.624 132.327C155.575 132.37 155.51 132.395 155.441 132.394Z" fill="#263238"/>
<path d="M157.607 137.217V134.473C157.607 134.401 157.592 134.33 157.561 134.264C157.53 134.197 157.485 134.137 157.429 134.086C157.372 134.035 157.305 133.995 157.231 133.968C157.157 133.941 157.078 133.927 156.998 133.927H153.894C153.734 133.927 153.58 133.985 153.466 134.087C153.353 134.19 153.289 134.329 153.289 134.473V137.217C153.289 137.292 153.322 137.363 153.38 137.415C153.438 137.468 153.517 137.498 153.599 137.498H157.305C157.386 137.496 157.463 137.465 157.519 137.413C157.576 137.361 157.608 137.291 157.607 137.217Z" fill="#DFF000"/>
<path d="M153.281 138.747V144.97C153.281 145.115 153.345 145.254 153.459 145.356C153.572 145.458 153.726 145.516 153.887 145.516H156.991C157.07 145.516 157.149 145.503 157.223 145.475C157.297 145.448 157.364 145.408 157.421 145.357C157.478 145.307 157.523 145.246 157.553 145.18C157.584 145.113 157.6 145.042 157.6 144.97V138.747C157.6 138.71 157.592 138.674 157.576 138.64C157.56 138.606 157.538 138.575 157.509 138.549C157.48 138.523 157.446 138.502 157.408 138.488C157.37 138.474 157.33 138.467 157.289 138.467H153.584C153.503 138.469 153.426 138.499 153.369 138.551C153.313 138.604 153.281 138.674 153.281 138.747Z" fill="#DFF000"/>
<path d="M157.249 137.081H153.641V138.754H157.249V137.081Z" fill="#DFF000"/>
<path d="M149.129 145.516H148.353C147.48 145.516 146.77 144.711 146.77 143.713C146.77 142.716 147.48 141.911 148.353 141.911H149.129C150.002 141.911 150.712 142.719 150.712 143.713C150.712 144.707 150.009 145.516 149.129 145.516Z" fill="#263238"/>
<path opacity="0.1" d="M149.129 145.516H148.353C147.48 145.516 146.77 144.711 146.77 143.713C146.77 142.716 147.48 141.911 148.353 141.911H149.129C150.002 141.911 150.712 142.719 150.712 143.713C150.712 144.707 150.009 145.516 149.129 145.516Z" fill="white"/>
<path opacity="0.2" d="M149.13 145.516C150.004 145.516 150.713 144.709 150.713 143.713C150.713 142.718 150.004 141.911 149.13 141.911C148.256 141.911 147.547 142.718 147.547 143.713C147.547 144.709 148.256 145.516 149.13 145.516Z" fill="white"/>
<path d="M152.285 144.413H149.41C149.234 144.378 149.076 144.289 148.963 144.162C148.851 144.034 148.789 143.876 148.789 143.713C148.789 143.551 148.851 143.393 148.963 143.265C149.076 143.138 149.234 143.049 149.41 143.013H152.285C152.458 143.052 152.613 143.142 152.723 143.269C152.833 143.396 152.893 143.552 152.893 143.713C152.893 143.875 152.833 144.031 152.723 144.158C152.613 144.285 152.458 144.375 152.285 144.413Z" fill="#263238"/>
<path d="M153.25 145.516H152.474C151.601 145.516 150.891 144.711 150.891 143.713C150.891 142.716 151.601 141.911 152.474 141.911H153.25C154.123 141.911 154.833 142.719 154.833 143.713C154.833 144.707 154.123 145.516 153.25 145.516Z" fill="#263238"/>
<path opacity="0.1" d="M153.25 145.516H152.474C151.601 145.516 150.891 144.711 150.891 143.713C150.891 142.716 151.601 141.911 152.474 141.911H153.25C154.123 141.911 154.833 142.719 154.833 143.713C154.833 144.707 154.123 145.516 153.25 145.516Z" fill="white"/>
<path opacity="0.2" d="M153.251 145.516C154.125 145.516 154.834 144.709 154.834 143.713C154.834 142.718 154.125 141.911 153.251 141.911C152.377 141.911 151.668 142.718 151.668 143.713C151.668 144.709 152.377 145.516 153.251 145.516Z" fill="white"/>
<path d="M45.6129 103.373C44.5536 103.989 44.6041 118.055 44.9106 118.142C45.2171 118.23 45.3723 117.418 46.191 117.744C47.0097 118.069 47.2657 117.512 49.2096 117.512C51.1535 117.512 50.9479 118.849 51.1496 117.512C51.3514 116.175 51.1496 103.943 51.1496 103.943L45.6129 103.373Z" fill="#DFF000"/>
<path opacity="0.3" d="M45.6129 103.373C44.5536 103.989 44.6041 118.055 44.9106 118.142C45.2171 118.23 45.3723 117.418 46.191 117.744C47.0097 118.069 47.2657 117.512 49.2096 117.512C51.1535 117.512 50.9479 118.849 51.1496 117.512C51.3514 116.175 51.1496 103.943 51.1496 103.943L45.6129 103.373Z" fill="white"/>
<path d="M60.7075 109.599H61.5029C64.0171 109.599 66.058 111.923 66.058 114.79C66.058 117.656 64.0171 119.98 61.5029 119.98H60.7075C58.1932 119.98 56.1523 117.656 56.1523 114.79C56.1523 111.923 58.1932 109.599 60.7075 109.599Z" fill="#263238"/>
<path opacity="0.2" d="M56.1562 114.8C56.1562 117.667 58.1933 119.99 60.7075 119.99C63.2217 119.99 65.2626 117.667 65.2626 114.8C65.2626 111.934 63.2217 109.61 60.7075 109.61C58.1933 109.61 56.1562 111.923 56.1562 114.8Z" fill="white"/>
<path d="M59.9498 110.95H60.5396C62.402 110.95 63.9113 112.672 63.9113 114.8C63.9113 116.928 62.402 118.65 60.5396 118.65H59.9498C58.0874 118.65 56.5781 116.928 56.5781 114.8C56.5781 112.672 58.0874 110.95 59.9498 110.95Z" fill="#263238"/>
<path opacity="0.1" d="M56.5781 114.8C56.5781 116.925 58.0874 118.65 59.9498 118.65C61.8122 118.65 63.3254 116.928 63.3254 114.8C63.3254 112.672 61.8122 110.95 59.9498 110.95C58.0874 110.95 56.5781 112.665 56.5781 114.8Z" fill="white"/>
<path d="M59.2157 113.61H59.398C59.9684 113.61 60.4301 114.139 60.4301 114.79C60.4301 115.441 59.9684 115.969 59.398 115.969H59.2157C58.6453 115.969 58.1836 115.441 58.1836 114.79C58.1836 114.139 58.6259 113.61 59.2157 113.61Z" fill="#263238"/>
<path opacity="0.2" d="M58.1641 114.8C58.1641 115.451 58.6258 115.979 59.1961 115.979C59.7665 115.979 60.2321 115.451 60.2321 114.8C60.2321 114.149 59.7665 113.621 59.1961 113.621C58.6258 113.621 58.1641 114.139 58.1641 114.8Z" fill="white"/>
<path d="M60.2347 100.062H60.8322C62.7179 100.062 64.2466 101.812 64.2466 103.954C64.2466 106.096 62.7179 107.849 60.8322 107.849H60.2347C58.349 107.849 56.8203 106.099 56.8203 103.954C56.8203 101.808 58.349 100.062 60.2347 100.062Z" fill="#263238"/>
<path opacity="0.2" d="M56.8203 103.95C56.8203 106.102 58.349 107.845 60.2347 107.845C62.1204 107.845 63.653 106.095 63.653 103.95C63.653 101.804 62.1204 100.058 60.2347 100.058C58.349 100.058 56.8203 101.804 56.8203 103.95Z" fill="white"/>
<path d="M59.6665 101.069H60.1088C61.5056 101.069 62.6386 102.361 62.6386 103.954C62.6386 105.546 61.5056 106.837 60.1088 106.837H59.6665C58.2697 106.837 57.1367 105.546 57.1367 103.954C57.1367 102.361 58.2697 101.069 59.6665 101.069Z" fill="#263238"/>
<path opacity="0.1" d="M57.1367 103.95C57.1367 105.543 58.2697 106.834 59.6665 106.834C61.0633 106.834 62.1962 105.543 62.1962 103.95C62.1962 102.357 61.0633 101.066 59.6665 101.066C58.2697 101.066 57.1367 102.361 57.1367 103.95Z" fill="white"/>
<path d="M59.1015 103.071H59.2373C59.4592 103.117 59.6574 103.23 59.7993 103.39C59.9412 103.551 60.0185 103.75 60.0185 103.955C60.0185 104.161 59.9412 104.36 59.7993 104.52C59.6574 104.681 59.4592 104.793 59.2373 104.839H59.1015C58.8796 104.793 58.6814 104.681 58.5395 104.52C58.3976 104.36 58.3203 104.161 58.3203 103.955C58.3203 103.75 58.3976 103.551 58.5395 103.39C58.6814 103.23 58.8796 103.117 59.1015 103.071Z" fill="#263238"/>
<path opacity="0.2" d="M58.3247 103.95C58.359 104.081 58.4335 104.201 58.5398 104.296C58.646 104.391 58.7797 104.456 58.9256 104.486C59.0714 104.515 59.2234 104.507 59.3643 104.462C59.5051 104.417 59.6291 104.337 59.722 104.232C59.8149 104.126 59.8729 103.999 59.8895 103.865C59.906 103.731 59.8804 103.596 59.8156 103.474C59.7507 103.353 59.6493 103.25 59.5229 103.178C59.3965 103.107 59.2502 103.068 59.1007 103.068C58.8697 103.095 58.6594 103.202 58.5145 103.367C58.3697 103.532 58.3016 103.741 58.3247 103.95Z" fill="white"/>
<path d="M60.9123 121.45H61.8667C64.8854 121.45 67.3337 124.25 67.3337 127.68C67.3337 131.11 64.8854 133.91 61.8667 133.91H60.9123C57.8975 133.91 55.4492 131.11 55.4492 127.68C55.4492 124.25 57.8975 121.45 60.9123 121.45Z" fill="#263238"/>
<path opacity="0.2" d="M60.9123 133.917C63.9294 133.917 66.3753 131.128 66.3753 127.687C66.3753 124.246 63.9294 121.457 60.9123 121.457C57.8951 121.457 55.4492 124.246 55.4492 127.687C55.4492 131.128 57.8951 133.917 60.9123 133.917Z" fill="white"/>
<path d="M59.9922 123.071H60.6983C62.9371 123.071 64.749 125.139 64.749 127.687C64.749 130.235 62.9526 132.3 60.7138 132.3H59.9922C57.7573 132.3 55.9453 130.232 55.9453 127.684C55.9453 125.136 57.7728 123.071 59.9922 123.071Z" fill="#263238"/>
<path opacity="0.1" d="M55.957 127.687C55.957 130.235 57.769 132.304 60.0039 132.304C62.2387 132.304 64.0546 130.235 64.0546 127.687C64.0546 125.139 62.2426 123.071 60.0039 123.071C57.7651 123.071 55.957 125.139 55.957 127.687Z" fill="white"/>
<path d="M59.0971 126.273H59.3144C60.0011 126.273 60.556 126.907 60.556 127.673C60.556 128.44 60.0011 129.073 59.3144 129.073H59.0971C58.4142 129.073 57.8594 128.44 57.8594 127.673C57.8594 126.907 58.4142 126.273 59.0971 126.273Z" fill="#263238"/>
<path opacity="0.2" d="M57.8594 127.687C57.8594 128.468 58.4142 129.087 59.0971 129.087C59.78 129.087 60.3387 128.454 60.3387 127.687C60.3387 126.921 59.7839 126.287 59.0971 126.287C58.4103 126.287 57.8594 126.907 57.8594 127.687Z" fill="white"/>
<path d="M39.6049 143.567L40.443 143.671L41.1569 143.567L46.682 144.267V144.991H45.13H36.4504H34.8984V144.267L39.6049 143.567Z" fill="#263238"/>
<path opacity="0.2" d="M39.6049 143.567L40.443 143.671L41.1569 143.567L46.682 144.267V144.991H45.13H36.4504H34.8984V144.267L39.6049 143.567Z" fill="white"/>
<path opacity="0.2" d="M40.4414 143.671L45.1323 144.267V144.991H46.6843V144.267L41.1553 143.567L40.4414 143.671Z" fill="white"/>
<path d="M39.2943 143.647H41.2305L41.2305 101.262H39.2943L39.2943 143.647Z" fill="#263238"/>
<path opacity="0.2" d="M39.2943 143.647H41.2305L41.2305 101.262H39.2943L39.2943 143.647Z" fill="white"/>
<path opacity="0.2" d="M40.2605 143.647H41.2305L41.2305 101.262H40.2605L40.2605 143.647Z" fill="white"/>
<path d="M56.2728 143.567L57.1109 143.671L57.8248 143.567L63.35 144.267V144.991H61.798H53.1184H51.5664V144.267L56.2728 143.567Z" fill="#263238"/>
<path opacity="0.2" d="M56.2728 143.567L57.1109 143.671L57.8248 143.567L63.35 144.267V144.991H61.798H53.1184H51.5664V144.267L56.2728 143.567Z" fill="white"/>
<path opacity="0.2" d="M57.1094 143.671L61.7964 144.267V144.991H63.3484V144.267L57.8194 143.567L57.1094 143.671Z" fill="white"/>
<path d="M55.9623 143.647H57.8984L57.8984 101.262H55.9623L55.9623 143.647Z" fill="#263238"/>
<path opacity="0.2" d="M55.9623 143.647H57.8984L57.8984 101.262H55.9623L55.9623 143.647Z" fill="white"/>
<path opacity="0.2" d="M56.9284 143.647H57.8984L57.8984 101.262H56.9284L56.9284 143.647Z" fill="white"/>
<path d="M41.2512 127.687C41.248 127.833 41.2955 127.976 41.387 128.096C41.4177 128.139 41.4576 128.175 41.5042 128.204C41.5509 128.232 41.6034 128.251 41.6586 128.261H41.7168H58.9207C59.1768 128.261 59.3824 128.002 59.3824 127.68C59.3856 127.534 59.3381 127.391 59.2466 127.271C59.2129 127.219 59.1653 127.177 59.1083 127.147C59.0513 127.117 58.9867 127.1 58.9207 127.099H41.7168H41.6586C41.5257 127.139 41.4124 127.22 41.3381 127.327C41.2638 127.434 41.2331 127.562 41.2512 127.687Z" fill="#263238"/>
<path opacity="0.5" d="M41.2512 127.687C41.248 127.833 41.2955 127.976 41.387 128.096C41.4177 128.139 41.4576 128.175 41.5042 128.204C41.5509 128.232 41.6034 128.251 41.6586 128.261H41.7168H58.9207C59.1768 128.261 59.3824 128.002 59.3824 127.68C59.3856 127.534 59.3381 127.391 59.2466 127.271C59.2129 127.219 59.1653 127.177 59.1083 127.147C59.0513 127.117 58.9867 127.1 58.9207 127.099H41.7168H41.6586C41.5257 127.139 41.4124 127.22 41.3381 127.327C41.2638 127.434 41.2331 127.562 41.2512 127.687Z" fill="white"/>
<path d="M39.1896 121.45H40.1441C43.1627 121.45 45.611 124.25 45.611 127.68C45.611 131.11 43.1627 133.91 40.1441 133.91H39.1896C36.1748 133.91 33.7266 131.11 33.7266 127.68C33.7266 124.25 36.1748 121.45 39.1896 121.45Z" fill="#263238"/>
<path opacity="0.2" d="M33.7266 127.687C33.7266 131.128 36.1748 133.917 39.1896 133.917C42.2044 133.917 44.6565 131.117 44.6565 127.687C44.6565 124.257 42.2082 121.45 39.1896 121.45C36.171 121.45 33.7266 124.25 33.7266 127.687Z" fill="white"/>
<path d="M38.2812 123.071H38.9913C41.2261 123.071 43.0381 125.139 43.0381 127.687C43.0381 130.235 41.2261 132.3 38.9913 132.3H38.2812C36.0463 132.3 34.2344 130.232 34.2344 127.684C34.2344 125.136 36.0463 123.071 38.2812 123.071Z" fill="#263238"/>
<path opacity="0.1" d="M34.2344 127.687C34.2344 130.235 36.0463 132.304 38.2812 132.304C40.5161 132.304 42.3319 130.235 42.3319 127.687C42.3319 125.139 40.52 123.071 38.2812 123.071C36.0425 123.071 34.2344 125.139 34.2344 127.687Z" fill="white"/>
<path d="M37.3783 126.273H37.5917C38.2785 126.273 38.8333 126.907 38.8333 127.673C38.8333 128.44 38.2785 129.073 37.5917 129.073H37.3783C36.6916 129.073 36.1367 128.44 36.1367 127.673C36.1367 126.907 36.711 126.273 37.3783 126.273Z" fill="#263238"/>
<path opacity="0.2" d="M36.1367 127.687C36.1367 128.468 36.6916 129.087 37.3783 129.087C38.0651 129.087 38.616 128.454 38.616 127.687C38.616 126.921 38.0612 126.287 37.3783 126.287C36.6954 126.287 36.1367 126.907 36.1367 127.687Z" fill="white"/>
<path d="M35.8177 127.687C35.8146 127.833 35.862 127.976 35.9535 128.096C35.9824 128.14 36.0212 128.177 36.0674 128.205C36.1137 128.234 36.1661 128.253 36.2212 128.261H36.2794H37.199C37.4512 128.261 37.6607 128.002 37.6607 127.68C37.6626 127.534 37.6153 127.391 37.5249 127.271C37.4897 127.221 37.4418 127.179 37.3851 127.149C37.3284 127.119 37.2646 127.102 37.199 127.099H36.2794H36.2212C36.0891 127.14 35.9767 127.221 35.9031 127.328C35.8296 127.435 35.7994 127.562 35.8177 127.687Z" fill="#263238"/>
<path opacity="0.2" d="M35.8159 127.687C35.8128 127.833 35.8603 127.976 35.9517 128.096C35.9806 128.14 36.0195 128.177 36.0657 128.205C36.1119 128.234 36.1643 128.253 36.2195 128.261C36.3503 128.222 36.4623 128.144 36.5365 128.039C36.6107 127.935 36.6427 127.81 36.6269 127.687C36.63 127.541 36.5826 127.398 36.4911 127.277C36.4618 127.234 36.4223 127.197 36.3754 127.168C36.3285 127.14 36.2753 127.121 36.2195 127.113C36.0902 127.153 35.9799 127.232 35.9066 127.336C35.8333 127.441 35.8014 127.564 35.8159 127.687Z" fill="white"/>
<path d="M41.2501 114.8C41.2469 114.946 41.2944 115.089 41.3859 115.21C41.4166 115.252 41.4565 115.288 41.5032 115.317C41.5498 115.345 41.6023 115.364 41.6575 115.374H41.7157H58.9196C59.1757 115.374 59.3813 115.115 59.3813 114.793C59.3845 114.647 59.337 114.504 59.2455 114.384C59.2119 114.332 59.1643 114.29 59.1072 114.26C59.0502 114.23 58.9856 114.213 58.9196 114.212H41.6575C41.5258 114.254 41.4139 114.335 41.3399 114.442C41.2659 114.549 41.2342 114.675 41.2501 114.8Z" fill="#263238"/>
<path opacity="0.5" d="M41.2501 114.8C41.2469 114.946 41.2944 115.089 41.3859 115.21C41.4166 115.252 41.4565 115.288 41.5032 115.317C41.5498 115.345 41.6023 115.364 41.6575 115.374H41.7157H58.9196C59.1757 115.374 59.3813 115.115 59.3813 114.793C59.3845 114.647 59.337 114.504 59.2455 114.384C59.2119 114.332 59.1643 114.29 59.1072 114.26C59.0502 114.23 58.9856 114.213 58.9196 114.212H41.6575C41.5258 114.254 41.4139 114.335 41.3399 114.442C41.2659 114.549 41.2342 114.675 41.2501 114.8Z" fill="white"/>
<path d="M38.985 109.599H39.761C42.2752 109.599 44.3161 111.923 44.3161 114.79C44.3161 117.656 42.2946 119.98 39.7804 119.98H39.0044C36.4901 119.98 34.4531 117.656 34.4531 114.79C34.4531 111.923 36.4707 109.599 38.985 109.599Z" fill="#263238"/>
<path opacity="0.2" d="M38.9848 119.98C41.5005 119.98 43.5399 117.656 43.5399 114.79C43.5399 111.923 41.5005 109.599 38.9848 109.599C36.4691 109.599 34.4297 111.923 34.4297 114.79C34.4297 117.656 36.4691 119.98 38.9848 119.98Z" fill="white"/>
<path d="M38.2272 110.95H38.8169C40.6793 110.95 42.1887 112.672 42.1887 114.8C42.1887 116.928 40.6793 118.65 38.8169 118.65H38.2272C36.3648 118.65 34.8555 116.928 34.8555 114.8C34.8555 112.672 36.3648 110.95 38.2272 110.95Z" fill="#263238"/>
<path opacity="0.1" d="M38.2272 118.636C40.0893 118.636 41.5989 116.914 41.5989 114.79C41.5989 112.665 40.0893 110.943 38.2272 110.943C36.365 110.943 34.8555 112.665 34.8555 114.79C34.8555 116.914 36.365 118.636 38.2272 118.636Z" fill="white"/>
<path d="M37.4852 113.61H37.6676C38.2379 113.61 38.6996 114.139 38.6996 114.79C38.6996 115.441 38.2379 115.969 37.6676 115.969H37.4852C36.9148 115.969 36.4531 115.441 36.4531 114.79C36.4531 114.139 36.8993 113.61 37.4852 113.61Z" fill="#263238"/>
<path opacity="0.2" d="M36.4375 114.8C36.4375 115.451 36.8992 115.98 37.4696 115.98C38.0399 115.98 38.5055 115.451 38.5055 114.8C38.5055 114.149 38.0438 113.61 37.4851 113.61C36.9264 113.61 36.4375 114.139 36.4375 114.8Z" fill="white"/>
<path d="M35.817 114.8C35.8138 114.946 35.8613 115.089 35.9528 115.21C35.9816 115.253 36.0205 115.29 36.0667 115.318C36.1129 115.347 36.1654 115.366 36.2205 115.374H36.2787H37.1983C37.4505 115.374 37.66 115.115 37.66 114.793C37.6619 114.647 37.6145 114.504 37.5242 114.384C37.4905 114.332 37.4429 114.29 37.3859 114.26C37.3289 114.23 37.2643 114.213 37.1983 114.212H36.2205C36.0892 114.254 35.9776 114.335 35.9043 114.442C35.8309 114.549 35.8002 114.675 35.817 114.8Z" fill="#263238"/>
<path opacity="0.2" d="M35.8196 114.8C35.8165 114.946 35.864 115.089 35.9554 115.21C35.9843 115.253 36.0232 115.29 36.0694 115.318C36.1156 115.347 36.168 115.366 36.2232 115.374C36.354 115.335 36.466 115.257 36.5402 115.152C36.6144 115.048 36.6464 114.923 36.6306 114.8C36.6337 114.654 36.5863 114.511 36.4948 114.39C36.4642 114.348 36.4245 114.311 36.3778 114.282C36.3312 114.253 36.2786 114.233 36.2232 114.222C36.094 114.264 35.984 114.344 35.9108 114.448C35.8377 114.553 35.8056 114.677 35.8196 114.8Z" fill="white"/>
<path d="M41.2507 103.95C41.2475 104.096 41.295 104.239 41.3865 104.36C41.4497 104.445 41.547 104.505 41.6581 104.527H58.9202C59.1763 104.527 59.3819 104.268 59.3819 103.946C59.3851 103.801 59.3376 103.657 59.2461 103.537C59.2125 103.486 59.1649 103.443 59.1078 103.413C59.0508 103.383 58.9862 103.367 58.9202 103.365H41.7163H41.6581C41.5259 103.406 41.4132 103.486 41.339 103.592C41.2647 103.699 41.2335 103.825 41.2507 103.95Z" fill="#263238"/>
<path opacity="0.5" d="M41.2507 103.95C41.2475 104.096 41.295 104.239 41.3865 104.36C41.4497 104.445 41.547 104.505 41.6581 104.527H58.9202C59.1763 104.527 59.3819 104.268 59.3819 103.946C59.3851 103.801 59.3376 103.657 59.2461 103.537C59.2125 103.486 59.1649 103.443 59.1078 103.413C59.0508 103.383 58.9862 103.367 58.9202 103.365H41.7163H41.6581C41.5259 103.406 41.4132 103.486 41.339 103.592C41.2647 103.699 41.2335 103.825 41.2507 103.95Z" fill="white"/>
<path d="M38.5121 100.062H39.1096C40.9953 100.062 42.524 101.812 42.524 103.954C42.524 106.096 40.9953 107.849 39.1096 107.849H38.5121C36.6264 107.849 35.0977 106.099 35.0977 103.954C35.0977 101.808 36.6264 100.062 38.5121 100.062Z" fill="#263238"/>
<path opacity="0.2" d="M35.0977 103.95C35.0977 106.102 36.6264 107.845 38.5121 107.845C40.3977 107.845 41.9303 106.095 41.9303 103.95C41.9303 101.804 40.4016 100.058 38.5121 100.058C36.6225 100.058 35.0977 101.804 35.0977 103.95Z" fill="white"/>
<path d="M37.9438 101.069H38.3861C39.7829 101.069 40.9159 102.361 40.9159 103.954C40.9159 105.546 39.7829 106.837 38.3861 106.837H37.9438C36.547 106.837 35.4141 105.546 35.4141 103.954C35.4141 102.361 36.547 101.069 37.9438 101.069Z" fill="#263238"/>
<path opacity="0.1" d="M37.9438 106.837C39.341 106.837 40.4736 105.546 40.4736 103.954C40.4736 102.361 39.341 101.069 37.9438 101.069C36.5467 101.069 35.4141 102.361 35.4141 103.954C35.4141 105.546 36.5467 106.837 37.9438 106.837Z" fill="white"/>
<path d="M37.3789 103.071H37.5147C37.7366 103.117 37.9347 103.23 38.0766 103.39C38.2186 103.551 38.2959 103.75 38.2959 103.955C38.2959 104.161 38.2186 104.36 38.0766 104.52C37.9347 104.681 37.7366 104.793 37.5147 104.839H37.3789C37.1569 104.793 36.9588 104.681 36.8169 104.52C36.6749 104.36 36.5977 104.161 36.5977 103.955C36.5977 103.75 36.6749 103.551 36.8169 103.39C36.9588 103.23 37.1569 103.117 37.3789 103.071Z" fill="#263238"/>
<path opacity="0.2" d="M36.6021 103.95C36.6363 104.081 36.7109 104.201 36.8171 104.296C36.9234 104.391 37.0571 104.456 37.2029 104.486C37.3487 104.515 37.5008 104.507 37.6416 104.462C37.7825 104.417 37.9064 104.337 37.9993 104.232C38.0922 104.126 38.1503 103.999 38.1668 103.865C38.1834 103.731 38.1577 103.596 38.0929 103.474C38.0281 103.353 37.9266 103.25 37.8002 103.178C37.6738 103.107 37.5275 103.068 37.3781 103.068C37.147 103.095 36.9368 103.202 36.7919 103.367C36.647 103.532 36.5789 103.741 36.6021 103.95Z" fill="white"/>
<path d="M35.8172 103.95C35.8141 104.096 35.8616 104.239 35.953 104.36C35.9831 104.402 36.0223 104.439 36.0682 104.468C36.1142 104.497 36.166 104.517 36.2208 104.527H37.1985C37.4507 104.527 37.6602 104.268 37.6602 103.946C37.6614 103.801 37.6141 103.658 37.5244 103.537C37.4892 103.487 37.4413 103.445 37.3846 103.416C37.3279 103.386 37.2641 103.369 37.1985 103.365H36.279H36.2208C36.0893 103.406 35.9775 103.487 35.904 103.593C35.8305 103.7 35.7999 103.826 35.8172 103.95Z" fill="#263238"/>
<path opacity="0.2" d="M35.8159 103.95C35.8128 104.096 35.8603 104.239 35.9517 104.36C35.9818 104.402 36.021 104.439 36.0669 104.468C36.1129 104.497 36.1647 104.517 36.2195 104.527C36.3502 104.488 36.4618 104.409 36.5359 104.303C36.61 104.198 36.6421 104.074 36.6269 103.95C36.63 103.804 36.5826 103.661 36.4911 103.54C36.4618 103.497 36.4223 103.46 36.3754 103.431C36.3285 103.403 36.2753 103.384 36.2195 103.376C36.0902 103.416 35.9799 103.495 35.9066 103.599C35.8333 103.704 35.8014 103.827 35.8159 103.95Z" fill="white"/>
<path d="M57.418 104.723V106.274H57.7167L58.7333 104.556L58.5626 103.943H58.2716C58.2716 104.65 57.418 104.723 57.418 104.723Z" fill="#263238"/>
<path opacity="0.2" d="M57.418 104.723V106.274H57.7167L58.7333 104.556L58.5626 103.943H58.2716C58.2716 104.65 57.418 104.723 57.418 104.723Z" fill="white"/>
<path d="M57.418 104.723V106.274H57.4684L58.485 104.556L58.3142 103.943H58.2716C58.2716 104.65 57.418 104.723 57.418 104.723Z" fill="#263238"/>
<path d="M57.418 115.573V117.124H57.7167L58.7333 115.406L58.5626 114.793H58.2716C58.2716 115.5 57.418 115.573 57.418 115.573Z" fill="#263238"/>
<path opacity="0.2" d="M57.418 115.573V117.124H57.7167L58.7333 115.406L58.5626 114.793H58.2716C58.2716 115.5 57.418 115.573 57.418 115.573Z" fill="white"/>
<path d="M57.418 115.573V117.124H57.4684L58.485 115.406L58.3142 114.793H58.2716C58.2716 115.5 57.418 115.573 57.418 115.573Z" fill="#263238"/>
<path d="M57.418 128.52V130.071H57.7167L58.7333 128.352L58.5626 127.74H58.2716C58.2716 128.45 57.418 128.52 57.418 128.52Z" fill="#263238"/>
<path opacity="0.2" d="M57.418 128.52V130.071H57.7167L58.7333 128.352L58.5626 127.74H58.2716C58.2716 128.45 57.418 128.52 57.418 128.52Z" fill="white"/>
<path d="M57.418 128.52V130.071H57.4684L58.485 128.352L58.3142 127.74H58.2716C58.2716 128.45 57.418 128.52 57.418 128.52Z" fill="#263238"/>
<path d="M45.6094 103.373C47.2351 103.373 46.3854 110.338 46.6221 112.032C46.8587 113.726 46.5561 119.406 46.9014 119.648C47.2467 119.889 48.1663 119.126 48.9345 119.336C49.7028 119.546 50.0248 119.473 51.0918 119.266C52.1588 119.06 53.2297 118.85 53.6914 118.99C54.1531 119.13 53.9126 103.625 53.5285 103.24C53.1443 102.855 51.3052 102.921 51.3052 102.921C51.3052 102.921 47.6968 103.142 47.0062 103.068C46.5179 103.047 46.0331 103.152 45.6094 103.373Z" fill="#DFF000"/>
<path opacity="0.5" d="M45.6094 103.373C47.2351 103.373 46.3854 110.338 46.6221 112.032C46.8587 113.726 46.5561 119.406 46.9014 119.648C47.2467 119.889 48.1663 119.126 48.9345 119.336C49.7028 119.546 50.0248 119.473 51.0918 119.266C52.1588 119.06 53.2297 118.85 53.6914 118.99C54.1531 119.13 53.9126 103.625 53.5285 103.24C53.1443 102.855 51.3052 102.921 51.3052 102.921C51.3052 102.921 47.6968 103.142 47.0062 103.068C46.5179 103.047 46.0331 103.152 45.6094 103.373Z" fill="#DFF000"/>
<path d="M134.515 143.923L127.667 142.481V125.034H125.363V135.335H85.9883V136.899H125.363V142.481L118.518 143.923C118.356 143.957 118.211 144.04 118.108 144.158C118.004 144.275 117.948 144.421 117.948 144.571V145.638H135.082V144.571C135.083 144.421 135.027 144.275 134.924 144.158C134.821 144.04 134.677 143.958 134.515 143.923Z" fill="#263238"/>
<path opacity="0.1" d="M134.515 143.923L127.667 142.481V125.034H125.363V135.335H85.9883V136.899H125.363V142.481L118.518 143.923C118.356 143.957 118.211 144.04 118.108 144.158C118.004 144.275 117.948 144.421 117.948 144.571V145.638H135.082V144.571C135.083 144.421 135.027 144.275 134.924 144.158C134.821 144.04 134.677 143.958 134.515 143.923Z" fill="white"/>
<path d="M87.6803 142.481V125.034H85.3756V142.481L78.5274 143.923C78.3657 143.958 78.2215 144.04 78.1186 144.158C78.0157 144.275 77.9601 144.421 77.9609 144.571V145.638H95.095V144.571C95.095 144.421 95.0386 144.275 94.935 144.158C94.8314 144.04 94.6868 143.957 94.5247 143.923L87.6803 142.481Z" fill="#263238"/>
<path opacity="0.2" d="M87.6803 142.481V125.034H85.3756V142.481L78.5274 143.923C78.3657 143.958 78.2215 144.04 78.1186 144.158C78.0157 144.275 77.9601 144.421 77.9609 144.571V145.638H95.095V144.571C95.095 144.421 95.0386 144.275 94.935 144.158C94.8314 144.04 94.6868 143.957 94.5247 143.923L87.6803 142.481Z" fill="white"/>
<path d="M78.2265 122.906H134.335V125.381C134.335 125.506 134.28 125.626 134.182 125.715C134.084 125.803 133.95 125.853 133.811 125.853H78.7426C78.6036 125.853 78.4704 125.803 78.3722 125.715C78.2739 125.626 78.2188 125.506 78.2188 125.381V122.906H78.2265Z" fill="#263238"/>
<path opacity="0.2" d="M134.335 122.906V125.377C134.335 125.439 134.322 125.5 134.295 125.558C134.269 125.615 134.23 125.667 134.182 125.711C134.133 125.755 134.075 125.79 134.012 125.814C133.948 125.837 133.88 125.85 133.811 125.85H78.7426C78.6738 125.85 78.6056 125.837 78.5421 125.814C78.4785 125.79 78.4208 125.755 78.3722 125.711C78.3235 125.667 78.2849 125.615 78.2586 125.558C78.2323 125.5 78.2188 125.439 78.2188 125.377V122.906H134.335Z" fill="white"/>
<path opacity="0.2" d="M134.338 122.906V125.377C134.338 125.439 134.324 125.5 134.298 125.558C134.272 125.615 134.233 125.667 134.184 125.711C134.136 125.755 134.078 125.79 134.014 125.814C133.951 125.837 133.883 125.85 133.814 125.85H95.9219V122.906H134.338Z" fill="black"/>
<path d="M138.864 121.8C138.862 122.368 138.61 122.913 138.165 123.315C137.719 123.717 137.116 123.944 136.485 123.946H76.0698C75.439 123.946 74.8341 123.719 74.388 123.317C73.942 122.915 73.6914 122.369 73.6914 121.8C73.6914 121.231 73.942 120.685 74.388 120.283C74.8341 119.881 75.439 119.654 76.0698 119.654H136.485C137.116 119.656 137.719 119.883 138.165 120.285C138.61 120.687 138.862 121.232 138.864 121.8Z" fill="#DFF000"/>
<path opacity="0.2" d="M100.04 121.8C100.038 122.369 99.7867 122.914 99.3402 123.316C98.8938 123.718 98.289 123.945 97.6582 123.946H76.0698C75.439 123.946 74.8341 123.719 74.388 123.317C73.942 122.915 73.6914 122.369 73.6914 121.8C73.6914 121.231 73.942 120.685 74.388 120.283C74.8341 119.881 75.439 119.654 76.0698 119.654H97.6582C98.289 119.655 98.8938 119.882 99.3402 120.284C99.7867 120.686 100.038 121.231 100.04 121.8Z" fill="white"/>
<path d="M119.331 104.069L119.106 105.469C119.106 105.469 111.525 104.842 109.705 104.594C108.832 104.475 108.041 103.12 107.435 101.367C106.835 99.5689 106.445 97.719 106.271 95.8475C106.252 95.6725 106.24 95.4975 106.229 95.3365L105.387 94.9865L108.937 90.9475C108.937 90.9475 111.812 91.2975 112.332 92.6975C112.852 94.0975 111.696 95.711 111.696 95.711C111.766 96.4686 111.956 97.2133 112.258 97.923C112.72 98.9135 112.037 99.9915 112.037 99.9915L111.61 101.308C114.555 101.735 119.331 104.069 119.331 104.069Z" fill="#EBB376"/>
<path d="M123.19 106.106L124.3 106.229C125.557 106.365 126.732 105.319 126.923 103.887C127.113 102.456 126.255 101.182 125.002 101.045L123.892 100.923C122.635 100.783 121.46 101.833 121.266 103.264C121.072 104.696 121.933 105.966 123.19 106.106Z" fill="#263238"/>
<path opacity="0.1" d="M123.19 106.106L124.3 106.229C125.557 106.365 126.732 105.319 126.923 103.887C127.113 102.456 126.255 101.182 125.002 101.045L123.892 100.923C122.635 100.783 121.46 101.833 121.266 103.264C121.072 104.696 121.933 105.966 123.19 106.106Z" fill="white"/>
<path opacity="0.2" d="M121.265 103.25C121.459 101.819 122.634 100.769 123.891 100.909C125.149 101.049 126.006 102.309 125.812 103.75C125.618 105.193 124.446 106.229 123.189 106.092C121.932 105.956 121.075 104.696 121.265 103.25Z" fill="white"/>
<path d="M118.865 104.02L123.001 104.475C123.486 104.531 123.943 104.125 124.021 103.565C124.099 103.005 123.761 102.515 123.272 102.462L119.14 102.008C118.872 102.009 118.615 102.105 118.425 102.275C118.234 102.445 118.125 102.676 118.12 102.917C118.046 103.474 118.38 103.968 118.865 104.02Z" fill="#263238"/>
<path d="M122.399 105.987C122.833 105.987 124.009 103.845 124.071 103.187C124.133 102.529 120.753 101.633 120.753 101.633L118.379 105.585C118.379 105.585 121.859 105.987 122.399 105.987Z" fill="#EBB376"/>
<path d="M117.264 105.455L118.377 105.577C119.631 105.714 120.806 104.664 121 103.236C121.194 101.808 120.333 100.531 119.06 100.394L117.951 100.271C116.693 100.131 115.522 101.181 115.328 102.613C115.134 104.044 116.011 105.315 117.264 105.455Z" fill="#263238"/>
<path opacity="0.1" d="M117.264 105.455L118.377 105.577C119.631 105.714 120.806 104.664 121 103.236C121.194 101.808 120.333 100.531 119.06 100.394L117.951 100.271C116.693 100.131 115.522 101.181 115.328 102.613C115.134 104.044 116.011 105.315 117.264 105.455Z" fill="white"/>
<path opacity="0.2" d="M115.343 102.613C115.537 101.181 116.709 100.131 117.966 100.271C119.223 100.411 120.081 101.671 119.906 103.113C119.732 104.555 118.537 105.591 117.28 105.455C116.022 105.318 115.149 104.044 115.343 102.613Z" fill="white"/>
<path opacity="0.2" d="M107.437 101.363C106.837 99.5654 106.447 97.7155 106.273 95.844C106.898 95.2945 107.437 94.8745 107.437 94.8745C107.437 94.8745 108.392 98.5075 107.437 101.363Z" fill="black"/>
<path d="M91.4509 104.625L106.013 105.385L106.788 108.696L115.778 109.97C115.778 109.97 117.621 115.01 113.373 120.687C113.373 120.687 100.286 121.012 94.9817 121.012C88.083 121.012 91.4509 104.625 91.4509 104.625Z" fill="#B0B0B0"/>
<path d="M101.284 108.85C101.269 108.85 101.254 108.846 101.24 108.84C101.227 108.833 101.215 108.823 101.207 108.812C100.861 108.367 100.547 107.229 100.4 106.631C100.225 107.212 99.8411 108.276 99.2358 108.57C99.2248 108.578 99.212 108.584 99.1983 108.587C99.1845 108.59 99.1702 108.59 99.1563 108.588C99.1424 108.586 99.1292 108.581 99.1178 108.573C99.1063 108.566 99.0968 108.556 99.0899 108.545C99.0829 108.534 99.0788 108.521 99.0778 108.508C99.0768 108.496 99.0789 108.483 99.0839 108.471C99.0889 108.459 99.0968 108.448 99.1069 108.439C99.1171 108.43 99.1293 108.424 99.1427 108.419C99.6897 108.146 100.058 107.079 100.217 106.537C99.8527 106.887 99.1737 107.415 98.5995 107.446C98.5058 107.453 98.4115 107.443 98.3227 107.415C98.2339 107.387 98.1524 107.343 98.0834 107.285C97.773 107.026 97.7808 106.816 97.8429 106.683C98.0369 106.274 99.0069 106.067 100.4 106.148C100.574 106.169 102.34 106.386 102.708 107.037C102.759 107.132 102.78 107.238 102.77 107.343C102.761 107.448 102.721 107.549 102.654 107.635C102.608 107.724 102.536 107.8 102.446 107.855C102.356 107.909 102.25 107.94 102.142 107.943C101.599 107.943 100.978 107.209 100.59 106.712C100.745 107.321 101.036 108.321 101.339 108.713C101.346 108.723 101.351 108.733 101.354 108.744C101.357 108.755 101.357 108.766 101.355 108.777C101.353 108.789 101.348 108.799 101.341 108.809C101.335 108.818 101.326 108.826 101.315 108.833C101.306 108.84 101.296 108.846 101.284 108.85ZM100.59 106.347C100.931 106.851 101.657 107.747 102.161 107.768C102.236 107.764 102.307 107.741 102.368 107.702C102.429 107.663 102.477 107.61 102.507 107.548C102.557 107.486 102.587 107.413 102.595 107.337C102.603 107.26 102.589 107.184 102.553 107.114C102.32 106.666 101.195 106.417 100.59 106.33V106.347ZM99.8139 106.306C98.7275 106.306 98.13 106.515 98.0175 106.75C97.9476 106.897 98.0834 107.054 98.2115 107.156C98.262 107.201 98.3232 107.235 98.3905 107.255C98.4578 107.275 98.5293 107.28 98.5995 107.271C99.1659 107.24 99.8993 106.599 100.198 106.312L99.8139 106.306Z" fill="white"/>
<path d="M125.421 112.91C124.385 111.549 115.275 110.225 115.275 110.225C111.942 114.271 113.428 119.791 113.428 119.791C119.209 119.767 127.101 118.191 127.101 118.191C127.101 118.191 125.952 113.624 125.421 112.91Z" fill="#EBB376"/>
<path d="M118.113 115.059C118.708 116.132 119.158 117.264 119.456 118.433C120.748 125.625 130.669 141.579 130.669 141.579L132.818 140.7C132.818 140.7 129.326 125.335 127.099 118.206C126.479 116.221 125.291 114.044 124.989 113.131L118.113 115.059Z" fill="#EBB376"/>
<path d="M129.442 145.177L129.83 143.5L129.896 140.504H132.678C132.689 140.393 132.734 140.288 132.808 140.199C132.881 140.109 132.98 140.04 133.094 139.998C133.207 139.956 133.332 139.942 133.454 139.959C133.575 139.976 133.689 140.023 133.784 140.094L134.195 141.97C134.897 142.541 136.523 144.028 138.719 144.459C139.208 144.557 139.053 145.624 137.854 145.624C136.655 145.624 134.047 145.54 133.198 145.54C131.793 145.54 130.978 145.603 129.857 145.621H129.764C129.656 145.6 129.562 145.542 129.502 145.458C129.442 145.375 129.42 145.274 129.442 145.177Z" fill="#263238"/>
<path d="M95.9219 113.995C96.323 115.138 96.573 116.32 96.6668 117.516C96.6979 124.8 103.736 141.953 103.736 141.953L106.014 141.379C106.014 141.379 105.238 125.709 104.256 118.352C103.988 116.305 103.193 113.988 103.049 113.043L95.9219 113.995Z" fill="#EBB376"/>
<path d="M102.255 145.176L102.643 143.514L102.712 140.518H105.494C105.506 140.407 105.551 140.302 105.624 140.213C105.697 140.123 105.796 140.054 105.91 140.012C106.024 139.97 106.149 139.956 106.27 139.973C106.392 139.99 106.506 140.037 106.6 140.108L107.012 141.984C107.714 142.555 109.34 144.042 111.532 144.473C112.024 144.571 111.865 145.638 110.67 145.638C109.475 145.638 106.86 145.554 105.995 145.554C104.587 145.554 103.772 145.617 102.65 145.635C102.621 145.639 102.591 145.639 102.561 145.635C102.508 145.623 102.457 145.602 102.413 145.572C102.368 145.543 102.331 145.506 102.302 145.463C102.274 145.421 102.255 145.373 102.247 145.324C102.239 145.275 102.241 145.225 102.255 145.176Z" fill="#263238"/>
<path d="M94.8521 119.392C94.1615 118.65 94.5456 112.791 96.8465 110.992C99.1473 109.193 102.604 110.803 102.988 112.207C103.373 113.61 103.815 116.127 103.815 116.127C103.815 116.127 97.153 121.856 94.8521 119.392Z" fill="#EBB376"/>
<path d="M108.925 90.9335C108.925 90.9335 106.48 98.2835 106.011 105.381L91.4493 104.625C91.4493 104.625 91.263 100.975 91.4803 96.3865C91.5346 95.2175 91.6122 93.9855 91.7286 92.736C91.9404 90.242 92.3554 87.7655 92.9702 85.3265C93.6186 85.3314 94.2662 85.3676 94.9102 85.435C96.2341 85.5583 97.5447 85.7784 98.8291 86.093C99.8922 86.3542 100.93 86.6925 101.933 87.1045C102.62 87.388 103.268 87.6785 103.873 87.962C105.303 88.6404 106.677 89.41 107.986 90.265C108.595 90.678 108.925 90.9335 108.925 90.9335Z" fill="#EBB376"/>
<path d="M81.9134 106.092L80.8037 105.949C79.5544 105.788 78.3555 106.817 78.1304 108.245C77.9054 109.673 78.7396 110.957 79.9928 111.118L81.0986 111.262C82.3519 111.419 83.5508 110.394 83.7719 108.966C83.9931 107.538 83.1667 106.25 81.9134 106.092Z" fill="#263238"/>
<path opacity="0.1" d="M81.9134 106.092L80.8037 105.949C79.5544 105.788 78.3555 106.817 78.1304 108.245C77.9054 109.673 78.7396 110.957 79.9928 111.118L81.0986 111.262C82.3519 111.419 83.5508 110.394 83.7719 108.966C83.9931 107.538 83.1667 106.25 81.9134 106.092Z" fill="white"/>
<path opacity="0.2" d="M83.7718 108.965C83.5506 110.393 82.3517 111.416 81.0984 111.262C79.8452 111.108 79.0149 109.813 79.2399 108.385C79.465 106.957 80.66 105.934 81.9132 106.092C83.1665 106.249 83.9968 107.537 83.7718 108.965Z" fill="white"/>
<path d="M86.1903 108.252L82.0698 107.723C81.5848 107.66 81.1192 108.073 81.0299 108.615C80.9657 108.85 81.0057 109.098 81.1412 109.307C81.2767 109.515 81.4971 109.668 81.7555 109.732L85.8761 110.25C86.1436 110.251 86.4013 110.159 86.5951 109.993C86.7889 109.826 86.9039 109.599 86.9159 109.358C87.0013 108.812 86.6792 108.311 86.1903 108.252Z" fill="#263238"/>
<path d="M94.8613 85.75C94.8613 85.75 92.5333 84.434 90.8416 85.2355C89.1499 86.037 87.9277 89.271 87.9277 89.271C87.9277 89.271 85.2583 94.5735 84.6026 95.431C83.9468 96.2885 83.0195 105.609 83.0195 105.609L84.9052 105.938C84.9052 105.938 87.8967 100.356 87.3419 97.097C87.2332 96.4495 90.3605 96.3585 93.0105 91.5845C93.0105 91.5845 94.5625 89.7575 94.9001 88.3925C95.1091 87.5204 95.0958 86.6168 94.8613 85.75Z" fill="#EBB376"/>
<path d="M83.0186 105.609C83.0186 105.609 81.0437 108.336 80.9699 108.997C80.8962 109.659 84.2524 110.61 84.2524 110.61C84.2524 110.61 85.5988 107.88 85.4164 107.481C85.2341 107.082 85.1099 105.031 85.1099 105.031L83.0186 105.609Z" fill="#EBB376"/>
<path d="M87.8197 106.848L86.7139 106.705C85.4607 106.544 84.2656 107.572 84.0406 109C83.8155 110.428 84.6497 111.713 85.8991 111.874L87.0088 112.017C88.262 112.175 89.4571 111.149 89.6821 109.721C89.9071 108.293 89.0923 107.006 87.8197 106.848Z" fill="#263238"/>
<path opacity="0.1" d="M87.8197 106.848L86.7139 106.705C85.4607 106.544 84.2656 107.572 84.0406 109C83.8155 110.428 84.6497 111.713 85.8991 111.874L87.0088 112.017C88.262 112.175 89.4571 111.149 89.6821 109.721C89.9071 108.293 89.0923 107.006 87.8197 106.848Z" fill="white"/>
<path opacity="0.2" d="M89.6808 109.721C89.4557 111.149 88.2607 112.171 87.0074 112.017C85.7542 111.863 84.9239 110.568 85.145 109.14C85.3662 107.712 86.569 106.69 87.8184 106.848C89.0677 107.005 89.9058 108.293 89.6808 109.721Z" fill="white"/>
<path opacity="0.1" d="M107.974 90.272C106.279 90.2475 102.93 89.5965 102.93 89.5965L101.925 90.594L101.506 89.6C101.506 89.6 95.4844 86.1665 95.3292 85.9845C95.175 85.8107 95.0349 85.6271 94.9102 85.435C96.234 85.5583 97.5446 85.7784 98.829 86.093C99.8921 86.3542 100.93 86.6925 101.933 87.1045C102.62 87.388 103.268 87.6785 103.873 87.962C105.299 88.6431 106.67 89.4151 107.974 90.272Z" fill="black"/>
<path d="M103.632 87.3565C103.365 87.759 104.727 88.6305 104.498 88.7915C103.77 89.2327 102.952 89.5396 102.092 89.6945C100.643 88.8684 99.3842 87.7991 98.3828 86.5445C98.8911 86.5025 99.9542 86.1945 100.276 85.876C101.103 85.043 101.995 82.334 101.995 82.334L105.247 85.484C105.247 85.484 105.173 85.5505 105.056 85.6695C104.529 86.1942 104.053 86.7586 103.632 87.3565Z" fill="#EBB376"/>
<path opacity="0.2" d="M101.59 84.609C101.59 84.609 101.625 86.5865 103.635 87.3565C104.055 86.7574 104.531 86.1919 105.059 85.666C104.938 85.554 104.857 85.484 104.857 85.484L101.59 84.609Z" fill="black"/>
<path d="M110.751 80.1045C110.751 80.1045 110.336 83.7515 107.95 84.0665C105.563 84.3815 108.726 78.9075 108.726 78.9075L110.751 80.1045Z" fill="#263238"/>
<path opacity="0.2" d="M110.751 80.1045C110.751 80.1045 110.336 83.7515 107.95 84.0665C105.563 84.3815 108.726 78.9075 108.726 78.9075L110.751 80.1045Z" fill="white"/>
<path d="M108.247 85.211C107.975 85.4819 107.68 85.7345 107.367 85.967C107.265 86.0412 107.159 86.1102 107.049 86.1735C106.258 86.6411 105.299 86.8188 104.367 86.6705C103.685 86.5612 103.052 86.2741 102.548 85.8445C102 85.3599 101.655 84.7194 101.57 84.0315C101.322 82.3305 102.292 81.2315 103.77 79.2505C104.078 78.8171 104.497 78.457 104.992 78.2005C105.402 77.9846 105.855 77.8438 106.326 77.7861C106.796 77.7284 107.275 77.7549 107.734 77.8641C108.193 77.9733 108.624 78.1631 109.002 78.4226C109.379 78.6821 109.697 79.0063 109.935 79.3765C111.134 81.221 109.827 83.65 108.247 85.211Z" fill="#EBB376"/>
<path opacity="0.1" d="M108.246 85.211C107.973 85.4819 107.678 85.7345 107.365 85.967C107.263 86.0412 107.157 86.1102 107.047 86.1735C106.256 86.6411 105.297 86.8188 104.366 86.6705C103.683 86.5612 103.05 86.2741 102.546 85.8445C102.224 84.6965 102.503 83.1705 103.69 81.2315L104.521 80.724C104.521 80.724 104.133 82.446 104.521 82.6875C104.909 82.929 105.568 82.4635 105.755 84.2905C106.058 84.6985 106.507 85.0001 107.027 85.1445C107.428 85.2188 107.838 85.2412 108.246 85.211Z" fill="black"/>
<path d="M106.512 81.977C106.448 82.0299 106.409 82.1031 106.403 82.1814C106.397 82.2596 106.425 82.3369 106.481 82.397C106.594 82.474 106.791 82.397 106.919 82.257C107.047 82.117 107.067 81.907 106.954 81.837C106.842 81.767 106.648 81.823 106.512 81.977Z" fill="#263238"/>
<path d="M108.45 83.3C108.385 83.3529 108.346 83.4261 108.341 83.5044C108.335 83.5826 108.363 83.6599 108.418 83.72C108.531 83.797 108.729 83.72 108.857 83.58C108.985 83.44 109 83.23 108.892 83.16C108.783 83.09 108.574 83.1635 108.45 83.3Z" fill="#263238"/>
<path d="M107.769 82.95C107.575 83.5636 107.474 84.1983 107.47 84.8365C107.288 84.8307 107.11 84.7892 106.948 84.7149C106.786 84.6405 106.644 84.5351 106.531 84.406L107.769 82.95Z" fill="#D58745"/>
<path d="M106.745 80.8955C106.751 80.916 106.763 80.9347 106.779 80.95C106.795 80.9653 106.816 80.9767 106.838 80.983C106.991 81.0179 107.134 81.0845 107.253 81.1774C107.373 81.2703 107.468 81.3871 107.529 81.5185C107.533 81.5333 107.54 81.5472 107.551 81.5594C107.561 81.5715 107.574 81.5816 107.588 81.5891C107.603 81.5966 107.619 81.6013 107.636 81.6029C107.653 81.6045 107.67 81.603 107.686 81.5984C107.702 81.5939 107.717 81.5864 107.73 81.5765C107.743 81.5666 107.753 81.5544 107.761 81.5406C107.768 81.5269 107.773 81.512 107.773 81.4967C107.774 81.4815 107.771 81.4663 107.765 81.452C107.696 81.2811 107.581 81.128 107.431 81.0061C107.281 80.8841 107.1 80.7969 106.904 80.752C106.873 80.7432 106.839 80.746 106.81 80.7598C106.781 80.7736 106.759 80.7972 106.749 80.8255C106.742 80.8482 106.74 80.8722 106.745 80.8955Z" fill="#263238"/>
<path d="M109.971 82.866C109.995 82.8712 110.02 82.8712 110.045 82.866C110.068 82.8444 110.081 82.8156 110.081 82.7855C110.081 82.7554 110.068 82.7266 110.045 82.705C109.915 82.5659 109.751 82.4571 109.565 82.3876C109.38 82.3181 109.178 82.2901 108.978 82.306C108.961 82.3081 108.945 82.3132 108.931 82.3209C108.917 82.3286 108.905 82.3388 108.895 82.3508C108.885 82.3629 108.878 82.3766 108.874 82.3912C108.871 82.4057 108.87 82.4208 108.873 82.4355C108.879 82.4643 108.896 82.49 108.922 82.5076C108.948 82.5251 108.98 82.5331 109.013 82.53C109.172 82.5217 109.331 82.5472 109.477 82.6043C109.623 82.6615 109.752 82.7487 109.854 82.859C109.872 82.8687 109.891 82.8744 109.912 82.8756C109.932 82.8768 109.952 82.8735 109.971 82.866Z" fill="#263238"/>
<path d="M108.266 77.0665C105.806 75.9255 103.303 76.6535 102.058 80.3145C101.363 82.383 101.561 83.594 101.561 83.594C101.585 82.453 102.76 80.759 103.113 80.8675C103.466 80.976 103.245 81.305 103.245 81.305C104.207 81.2385 105.662 80.416 105.775 79.4745C106.043 77.259 108.712 78.1935 108.98 79.1665C108.98 79.1665 109.903 80.465 110.737 80.1045C111.572 79.744 111.118 77 108.266 77.0665Z" fill="#263238"/>
<path d="M105.774 84.9555C105.761 84.9591 105.746 84.9591 105.732 84.9555C105.412 84.7996 105.163 84.5474 105.029 84.243C104.894 83.9385 104.882 83.6011 104.995 83.2895C104.999 83.2784 105.005 83.2681 105.013 83.2592C105.022 83.2504 105.032 83.2431 105.044 83.2379C105.055 83.2327 105.068 83.2296 105.081 83.2289C105.094 83.2281 105.107 83.2297 105.119 83.2335C105.131 83.2371 105.142 83.2428 105.152 83.2504C105.162 83.258 105.17 83.2673 105.176 83.2777C105.182 83.2881 105.185 83.2995 105.186 83.3112C105.187 83.3228 105.185 83.3345 105.181 83.3455C105.076 83.6162 105.082 83.9119 105.199 84.1787C105.316 84.4454 105.535 84.6653 105.817 84.798C105.829 84.8032 105.839 84.8104 105.847 84.8192C105.856 84.8281 105.862 84.8383 105.866 84.8494C105.87 84.8605 105.872 84.8722 105.871 84.8838C105.87 84.8954 105.866 84.9067 105.86 84.917C105.851 84.9298 105.838 84.9401 105.823 84.9469C105.808 84.9536 105.791 84.9566 105.774 84.9555Z" fill="#263238"/>
<path opacity="0.2" d="M108.266 77.0665C105.806 75.9255 103.303 76.6535 102.058 80.3145C101.363 82.383 101.561 83.594 101.561 83.594C101.585 82.453 102.76 80.759 103.113 80.8675C103.466 80.976 103.245 81.305 103.245 81.305C104.207 81.2385 105.662 80.416 105.775 79.4745C106.043 77.259 108.712 78.1935 108.98 79.1665C108.98 79.1665 109.903 80.465 110.737 80.1045C111.572 79.744 111.118 77 108.266 77.0665Z" fill="white"/>
<path d="M106.728 77.7665C106.728 77.7665 109.312 80.7555 110.34 80.724C111.368 80.6925 112.373 78.1655 111.616 77.0385C110.86 75.9115 108.066 75.152 108.066 75.152C108.605 75.3723 109.103 75.665 109.544 76.02C109.544 76.02 107.383 75.0435 105.963 75.012C104.543 74.9805 102.553 76.5065 102.134 78.162L102.522 77.6545C102.522 77.6545 101.606 79.653 102.091 80.332C102.075 80.3145 103.837 75.187 106.728 77.7665Z" fill="#263238"/>
<path d="M101.539 80.178C101.475 80.4706 101.477 80.7716 101.543 81.0636C101.61 81.3556 101.74 81.6328 101.927 81.879C102.419 82.537 103.238 82.2605 103.576 81.571C103.874 80.955 103.991 79.856 103.257 79.443C103.097 79.3514 102.914 79.2979 102.724 79.2875C102.534 79.277 102.345 79.3101 102.174 79.3834C102.002 79.4568 101.854 79.5681 101.743 79.707C101.632 79.846 101.562 80.008 101.539 80.178Z" fill="#EBB376"/>
<path opacity="0.2" d="M108.878 94.8745L107.769 91.8855L104.777 90.9335C104.777 90.9335 106.174 91.588 106.531 91.84C107.059 92.2075 107.718 93.6845 107.718 93.6845C107.718 93.6845 107.039 96.2885 106.259 96.8695C105.305 97.5695 101.603 97.5065 101.603 96.3865C101.603 94.5175 101.829 91.931 101.829 91.931C101.829 91.931 101.293 96.0995 100.502 96.292C98.8836 96.684 94.507 94.8745 94.0724 93.87C93.8008 93.24 94.5846 89.3935 95.2015 89.0715C95.8184 88.7495 98.1425 89.299 98.1425 89.299C98.1425 89.299 96.4004 88.2945 95.7369 88.284C94.7475 88.284 92.1053 89.684 92.1053 89.684L93.3352 89.383C93.3729 89.9907 93.3638 90.6 93.3081 91.2065C93.2305 91.5565 92.6679 92.2915 91.6746 93.534C91.5582 94.7835 91.5504 95.207 91.4961 96.376C92.3458 95.676 92.8037 94.4685 93.0481 93.2995C93.2693 93.9225 93.3624 94.5805 93.7038 94.864C95.0851 96.0155 100.855 96.964 100.855 96.964C100.855 96.964 104.735 98.539 105.98 97.8425C106.787 97.3945 108.118 94.3425 108.002 94.1675C107.885 93.9925 108.878 94.8745 108.878 94.8745Z" fill="black"/>
<path d="M96.2809 85.449C96.2809 85.449 95.8386 94.5175 100.308 96.04C104.778 97.5625 106.939 89.4355 106.939 89.4355L108.002 90.062C108.002 90.062 105.096 101.077 106.353 103.243L106.027 105.385L91.4658 104.625L91.0312 101.626C91.0312 101.626 93.5377 100.839 94.0499 96.824C94.562 92.8095 94.5582 85.3265 94.5582 85.3265L96.2809 85.449Z" fill="#DFF000"/>
<path opacity="0.5" d="M96.2809 85.449C96.2809 85.449 95.8386 94.5175 100.308 96.04C104.778 97.5625 106.939 89.4355 106.939 89.4355L108.002 90.062C108.002 90.062 105.096 101.077 106.353 103.243L106.027 105.385L91.4658 104.625L91.0312 101.626C91.0312 101.626 93.5377 100.839 94.0499 96.824C94.562 92.8095 94.5582 85.3265 94.5582 85.3265L96.2809 85.449Z" fill="white"/>
</svg>
