<svg width="73" height="83" viewBox="0 0 73 83" fill="none" xmlns="http://www.w3.org/2000/svg">
<path d="M36.5 83C56.6584 83 73 66.4345 73 46H0C0 66.4345 16.3416 83 36.5 83Z" fill="#DCD7C3"/>
<path d="M37.0662 68.2121C51.5129 68.2121 63.2242 67.1474 63.2242 65.8341C63.2242 64.5207 51.5129 63.4561 37.0662 63.4561C22.6195 63.4561 10.9082 64.5207 10.9082 65.8341C10.9082 67.1474 22.6195 68.2121 37.0662 68.2121Z" fill="#C9C3A9"/>
<path d="M27.4114 13.7488C27.4915 13.1671 26.6705 12.6885 26.0536 12.6388C25.7594 12.6151 25.4538 12.66 25.175 12.5629C24.5712 12.3523 24.3299 11.5722 23.7408 11.3238C23.3003 11.138 22.7931 11.3034 22.3661 11.5183C21.939 11.7331 21.517 12.0036 21.0399 12.0342C20.625 12.0608 20.1743 11.9069 19.8112 12.1096C19.5405 12.2607 19.3988 12.5724 19.1495 12.7564C18.9056 12.9363 18.5873 12.9744 18.2846 12.9909C17.9818 13.0073 17.6685 13.0104 17.3928 13.1367C17.1172 13.2629 16.8892 13.5543 16.9463 13.852L27.4114 13.7488Z" fill="#F5F5F5"/>
<path d="M8.88086 35.5471C8.88086 35.5471 8.90956 35.6023 8.96232 35.7116C9.01523 35.822 9.09288 35.9841 9.19461 36.1964C9.4322 36.6028 9.76935 37.2206 10.3735 37.8876C10.6705 38.2232 11.0261 38.5742 11.4458 38.9231C11.5458 39.0162 11.6629 39.0928 11.7759 39.179C11.8903 39.2636 12.007 39.35 12.1258 39.438C12.2511 39.5167 12.3786 39.5971 12.5087 39.6789C12.6387 39.7608 12.7695 39.8468 12.9129 39.9167C13.0536 39.9909 13.197 40.0664 13.3426 40.1431C13.4891 40.2181 13.646 40.2778 13.8009 40.3474C13.879 40.3812 13.9575 40.4152 14.0368 40.4497C14.1159 40.4842 14.2 40.5079 14.2822 40.5379C14.448 40.5946 14.6164 40.6523 14.7871 40.7106C15.4807 40.9104 16.2352 41.0487 17.0354 41.0838C18.6348 41.1532 20.4113 40.7051 21.9967 39.6845C22.7886 39.1766 23.5321 38.531 24.1749 37.7613C24.8171 36.9924 25.359 36.0977 25.7323 35.1078C25.778 34.9838 25.8275 34.8606 25.8707 34.7348C25.9067 34.6068 25.9429 34.4783 25.9792 34.3495L26.0337 34.156C26.0534 34.0918 26.0698 34.0266 26.0802 33.96C26.1053 33.8277 26.1303 33.6951 26.1553 33.5621C26.2593 33.0307 26.2917 32.4798 26.264 31.928C26.2308 31.377 26.1235 30.8217 25.9067 30.3019C25.6918 29.7821 25.3555 29.3061 24.9085 28.9477C24.4663 28.5876 23.9214 28.3338 23.3434 28.2737C23.0555 28.2434 22.7607 28.2631 22.4798 28.3404C22.1991 28.4177 21.9331 28.5509 21.7006 28.7309C21.2321 29.0905 20.9113 29.6265 20.7479 30.1991C20.6674 30.4867 20.6238 30.7871 20.6311 31.0882C20.6371 31.3892 20.6937 31.6884 20.7889 31.9762C20.98 32.5523 21.3208 33.0707 21.7461 33.4938C22.1713 33.918 22.6714 34.2608 23.2097 34.509C24.2933 35.0065 25.481 35.1598 26.629 35.1987C28.9368 35.2628 31.1665 34.984 33.2231 34.4677C35.2809 33.9483 37.1641 33.1936 38.8407 32.3306C39.6766 31.8931 40.4609 31.4278 41.1946 30.9496C41.9274 30.4694 42.6012 29.966 43.2311 29.4692C44.4778 28.4585 45.5195 27.4408 46.3667 26.4883C47.211 25.5328 47.8721 24.6524 48.3708 23.9063C48.5015 23.7238 48.6095 23.5412 48.7185 23.3747C48.8242 23.2062 48.9297 23.0527 49.0147 22.9021C49.1881 22.6033 49.3439 22.3554 49.4548 22.1466C49.5676 21.9399 49.6537 21.782 49.7123 21.6744C49.7706 21.5682 49.8022 21.5146 49.8022 21.5146C49.8022 21.5146 49.775 21.5704 49.7187 21.6778C49.6614 21.7861 49.5774 21.9452 49.4672 22.1536C49.3583 22.3636 49.2045 22.6128 49.0327 22.9131C48.9485 23.0644 48.8438 23.2186 48.7389 23.3879C48.6308 23.5551 48.5235 23.7384 48.3935 23.9218C47.8978 24.6712 47.239 25.5552 46.3962 26.5147C45.5505 27.4712 44.5095 28.4932 43.2623 29.5083C42.6323 30.0074 41.958 30.5131 41.2245 30.9955C40.4901 31.4758 39.7049 31.9433 38.8676 32.383C37.1883 33.2502 35.3016 34.0088 33.2389 34.5312C31.1774 35.0506 28.9419 35.3316 26.6265 35.2682C25.4741 35.2294 24.277 35.0763 23.18 34.5731C22.6344 34.3218 22.1275 33.9744 21.6957 33.5438C21.2639 33.1144 20.9166 32.5868 20.7216 31.9985C20.6243 31.7053 20.5664 31.398 20.5603 31.0896C20.5528 30.7813 20.5975 30.4742 20.6798 30.18C20.847 29.5945 21.175 29.0459 21.6575 28.6755C21.8969 28.4901 22.1716 28.3526 22.4614 28.2728C22.7514 28.1932 23.0551 28.1729 23.3509 28.2044C23.9449 28.2666 24.501 28.5265 24.9523 28.8941C25.4084 29.2598 25.7523 29.7477 25.9701 30.2756C26.1903 30.8043 26.2985 31.3673 26.3317 31.9245C26.3593 32.4822 26.3261 33.0381 26.221 33.5736C26.1956 33.7077 26.1703 33.8414 26.145 33.9747C26.1344 34.0419 26.1178 34.1074 26.0979 34.1722L26.0428 34.3672C26.0061 34.4969 25.9695 34.6264 25.9331 34.7553C25.8896 34.8821 25.8397 35.0061 25.7935 35.1311C25.4166 36.128 24.87 37.0282 24.2227 37.8015C23.575 38.5754 22.826 39.224 22.0284 39.7342C20.432 40.7591 18.6424 41.2072 17.0335 41.1341C16.2287 41.0973 15.4705 40.9565 14.774 40.754C14.6027 40.6949 14.4337 40.6367 14.2673 40.5793C14.1847 40.5489 14.1003 40.5249 14.021 40.4899C13.9416 40.4552 13.8627 40.4208 13.7843 40.3867C13.6289 40.3162 13.4715 40.2559 13.3247 40.1802C13.1786 40.1027 13.035 40.0266 12.8938 39.9516C12.7502 39.8809 12.619 39.7943 12.4887 39.7117C12.3584 39.6292 12.2305 39.5481 12.1051 39.4685C11.986 39.3799 11.8692 39.2928 11.7547 39.2074C11.6415 39.1205 11.5243 39.0433 11.4243 38.9493C11.0045 38.5976 10.6491 38.244 10.3528 37.9059C9.75004 37.2341 9.41602 36.6123 9.18196 36.2032C9.08282 35.9893 9.0072 35.8258 8.95566 35.7145C8.90507 35.6042 8.88086 35.5471 8.88086 35.5471Z" fill="#E0E0E0"/>
<path d="M13.7012 47.8928C13.7012 47.8928 13.7446 47.9 13.8285 47.9174C13.914 47.9357 14.038 47.962 14.2003 47.9966C14.3642 48.0321 14.566 48.0759 14.8043 48.1276C15.0429 48.1794 15.3232 48.213 15.636 48.2655C16.8875 48.4597 18.7288 48.62 20.9927 48.4512C22.1216 48.3501 23.3562 48.1939 24.6591 47.9074C25.9612 47.6206 27.3345 47.2317 28.7448 46.7227C31.577 45.7242 34.4878 44.1375 37.4692 42.3841C38.2176 41.9485 38.9367 41.4845 39.6523 41.0387C40.004 40.8061 40.353 40.5753 40.6992 40.3463C40.8717 40.2309 41.0463 40.12 41.2151 40.0021C41.3836 39.8839 41.5514 39.7663 41.7185 39.649C42.0524 39.4142 42.3833 39.1815 42.7109 38.951C43.032 38.7113 43.3498 38.4739 43.6646 38.239C43.8219 38.1215 43.9784 38.0047 44.134 37.8885C44.2892 37.7718 44.4377 37.6481 44.5885 37.5292C44.8887 37.2896 45.1854 37.0527 45.4785 36.8188C47.8073 34.926 49.742 33.0276 51.2491 31.3328C51.4384 31.1216 51.6301 30.9215 51.8044 30.7156C51.9763 30.5077 52.1437 30.305 52.3064 30.1081C52.6291 29.7119 52.9455 29.3479 53.2199 28.9905C53.4889 28.629 53.7393 28.2926 53.9698 27.9828C54.0851 27.8281 54.1954 27.68 54.3007 27.5387C54.3529 27.4678 54.4056 27.3998 54.4537 27.3314C54.4999 27.2616 54.5451 27.1938 54.5889 27.1277C54.9398 26.6004 55.2123 26.1906 55.3984 25.9109C55.4908 25.7732 55.5617 25.6678 55.6105 25.5954C55.6587 25.5245 55.6848 25.4891 55.6848 25.4891C55.6848 25.4891 55.6627 25.5271 55.6166 25.5992C55.5692 25.6726 55.5004 25.7792 55.4105 25.9185C55.2269 26.2 54.9579 26.6124 54.6116 27.1432C54.5681 27.2097 54.5235 27.2779 54.4776 27.348C54.4299 27.4168 54.3775 27.4851 54.3257 27.5563C54.2213 27.6983 54.1117 27.8471 53.997 28.0027C53.7677 28.3139 53.5186 28.6517 53.2511 29.0147C52.978 29.3736 52.6626 29.7391 52.3409 30.1368C52.1787 30.3345 52.0117 30.5379 51.8403 30.7466C51.6665 30.9533 51.4752 31.1542 51.2864 31.3661C49.7824 33.0671 47.8487 34.9716 45.5197 36.8692C45.2265 37.1038 44.9298 37.3413 44.6295 37.5814C44.4785 37.7006 44.33 37.8246 44.1747 37.9416C44.019 38.058 43.8624 38.1751 43.7051 38.2929C43.3902 38.5283 43.0721 38.7661 42.7509 39.0063C42.423 39.2372 42.092 39.4705 41.7578 39.7058C41.5907 39.8231 41.4227 39.941 41.2541 40.0595C41.0852 40.1775 40.9106 40.2887 40.738 40.4043C40.3914 40.6336 40.0421 40.8649 39.6902 41.0977C38.9741 41.5441 38.2543 42.0086 37.5053 42.4447C34.5221 44.1991 31.6069 45.7862 28.7668 46.7837C27.3533 47.2921 25.9765 47.6794 24.6713 47.9645C23.3652 48.2491 22.1277 48.4028 20.9963 48.5009C18.7275 48.6635 16.8833 48.4953 15.6316 48.2924C15.3188 48.2377 15.0385 48.202 14.8001 48.148C14.5622 48.0936 14.3605 48.0476 14.197 48.0102C14.0355 47.9727 13.9117 47.944 13.8266 47.9241C13.7435 47.9047 13.7012 47.8928 13.7012 47.8928Z" fill="#E0E0E0"/>
<path d="M46.4464 57.2319C46.7259 57.1701 47.0247 57.2532 47.2612 57.4142C47.4978 57.5753 47.6776 57.8083 47.8185 58.0575C48.091 58.5394 48.1641 59.1728 48.1496 59.7263C47.5371 59.671 47.0366 59.1625 46.799 58.8887C46.4233 58.4558 46.0072 57.4453 46.4464 57.2319Z" fill="#EBEBEB"/>
<path d="M49.1195 60.1453C48.8769 59.9371 48.7813 59.585 48.8497 59.2726C48.9181 58.9602 49.1351 58.6916 49.4076 58.5242C49.5335 58.4468 49.6877 58.3881 49.8273 58.4368C49.9578 58.4823 50.0435 58.6156 50.0636 58.7524C50.0837 58.8892 50.0477 59.0284 49.9962 59.1565C49.8191 59.5962 49.5669 59.9892 49.1195 60.1453Z" fill="#EBEBEB"/>
<path d="M49.4221 61.4976C49.4152 61.5003 49.3496 61.3776 49.261 61.1689C49.2166 61.0644 49.1777 60.9314 49.1538 60.7833C49.1307 60.6356 49.102 60.4735 49.0971 60.2983C49.084 59.9491 49.166 59.6337 49.2705 59.4307C49.322 59.3284 49.3768 59.2533 49.4161 59.2034C49.4579 59.1551 49.483 59.1308 49.4862 59.1335C49.495 59.1404 49.4016 59.2461 49.3102 59.4494C49.2188 59.6515 49.1464 59.9566 49.1591 60.2966C49.1636 60.4655 49.1904 60.6275 49.2101 60.7743C49.2308 60.9211 49.2634 61.0482 49.3019 61.1535C49.3791 61.3636 49.4311 61.4941 49.4221 61.4976Z" fill="#E0E0E0"/>
<path d="M46.8303 57.9735C46.8337 57.971 46.8773 58.0203 46.9534 58.112C47.0295 58.2037 47.1378 58.3376 47.2701 58.5044C47.5348 58.8378 47.8953 59.3028 48.2809 59.8259C48.6664 60.3493 49.0021 60.8328 49.2375 61.1878C49.3553 61.3653 49.4488 61.51 49.5114 61.6113C49.5742 61.7125 49.6073 61.7694 49.6037 61.7719C49.6002 61.7742 49.5603 61.7217 49.4912 61.6247C49.4163 61.5182 49.3187 61.3797 49.2012 61.2127C48.9566 60.8644 48.616 60.3856 48.2308 59.8629C47.8454 59.3473 47.4967 58.8808 47.2353 58.5314C47.1133 58.3675 47.012 58.2315 46.9342 58.1271C46.8641 58.0305 46.827 57.9761 46.8303 57.9735Z" fill="#E0E0E0"/>
<path d="M48.6773 60.7271C48.14 60.3201 47.3995 60.1969 46.7593 60.4079C46.5964 60.4617 46.4169 60.5668 46.4049 60.738C46.3929 60.9095 46.557 61.0391 46.713 61.1115C47.3619 61.4124 48.1907 61.269 48.7007 60.7672" fill="#EBEBEB"/>
<path d="M47.1777 60.6859C47.1769 60.6817 47.2103 60.6721 47.2712 60.6582C47.332 60.6434 47.4212 60.6279 47.5319 60.6118C47.7525 60.585 48.0686 60.5565 48.4066 60.6396C48.5747 60.6813 48.7273 60.7501 48.8537 60.8312C48.9808 60.9121 49.0773 61.0084 49.1526 61.092C49.2251 61.1784 49.2785 61.2522 49.3087 61.3075C49.3406 61.3616 49.3563 61.3923 49.3527 61.3946C49.3422 61.4016 49.2711 61.282 49.1204 61.1217C49.0429 61.0442 48.9468 60.9545 48.8231 60.8795C48.7001 60.8043 48.5537 60.7401 48.3917 60.6998C48.0664 60.6194 47.7563 60.64 47.5367 60.6555C47.3161 60.6753 47.1795 60.6959 47.1777 60.6859Z" fill="#E0E0E0"/>
<path d="M65.3736 65.3435C65.1834 61.5894 65.2664 62.8944 65.0761 59.1403L58.3824 55.4105L52.3641 57.7771L51.3056 59.4915C50.6646 60.5296 49.7855 61.3979 48.7466 62.0377C47.4599 62.8302 45.7248 64.075 45.0957 65.3435H65.3736Z" fill="#E0E0E0"/>
<path d="M53.707 47.1953C54.1832 50.5853 54.6592 53.9755 55.1353 57.3656L55.507 57.3777C55.2699 53.9233 55.0174 50.4002 53.707 47.1953Z" fill="#E0E0E0"/>
<path d="M57.6725 46.719C56.6748 47.8118 56.2738 49.3151 56.0211 50.7732C55.6627 52.8408 55.6302 55.2821 55.7377 57.3779L56.2589 57.3894C56.0476 53.7695 56.5369 50.1625 57.6725 46.719Z" fill="#E0E0E0"/>
<path d="M53.9688 53.2122C53.8542 52.7084 53.7231 52.1957 53.4354 51.7666C53.0469 51.1868 52.4139 50.8202 51.7769 50.5347C51.14 50.2494 50.4699 50.0211 49.8945 49.626C50.5366 50.6788 51.994 50.9589 52.7361 51.9437C53.1054 52.4336 53.2586 53.0483 53.4033 53.6445C53.7189 54.9445 53.9131 56.0697 54.2286 57.3697H54.6509C54.5119 55.9568 54.2839 54.5962 53.9688 53.2122Z" fill="#E0E0E0"/>
<path d="M56.6406 57.3777C56.6406 57.3777 56.9983 53.3384 57.2635 52.5968C57.5287 51.8551 60.0359 49.806 60.0117 49.9025C59.9876 49.9989 58.1313 52.2408 57.8661 52.6989C57.6009 53.1569 57.1429 57.3776 57.1429 57.3776L56.6406 57.3777Z" fill="#E0E0E0"/>
<path d="M10.1791 28.4402C10.0469 28.5196 9.92414 28.6144 9.81153 28.7218C9.90387 28.4554 9.95107 28.1827 9.93937 27.8964C9.92142 27.4574 9.78324 27.0124 9.63378 26.5767C9.62929 26.5636 9.6248 26.5506 9.62031 26.5375C9.21136 26.9378 8.89475 27.3841 8.76324 27.8672C8.73577 27.968 8.71714 28.0707 8.70517 28.1743C8.64043 28.0999 8.57366 28.0271 8.50457 27.9566C8.03986 27.4812 7.1258 26.9449 6.68557 26.6783C6.78988 27.5139 7.06107 28.2902 7.48947 28.9748C7.51585 29.0171 7.54332 29.0588 7.5712 29.1002C7.43983 29.0805 7.30614 29.0726 7.16932 29.0782C6.73031 29.0961 6.28532 29.2339 5.84971 29.3833C5.83666 29.3878 5.8236 29.3923 5.81055 29.3968C6.21079 29.8053 6.65728 30.1217 7.14035 30.2532C7.36203 30.3134 7.59255 30.3352 7.82525 30.3213C7.73331 30.3918 7.64723 30.469 7.56875 30.5532C7.27282 30.8705 7.07766 31.2886 6.95281 31.7433C6.9641 31.7399 6.97525 31.7365 6.9864 31.7331C7.36081 31.6185 7.73726 31.4922 8.06121 31.2918C8.38231 31.0931 8.62656 30.823 8.83111 30.4984C8.95854 30.2962 8.98247 30.1939 9.15519 29.8438L9.15533 29.8437V29.8438C9.53368 29.7478 9.63867 29.7456 9.86307 29.6632C10.2232 29.5308 10.5382 29.3482 10.7994 29.0754C11.0629 28.8003 11.265 28.4584 11.455 28.1161C11.4607 28.1059 11.4664 28.0956 11.472 28.0854C11.0006 28.1131 10.5511 28.2169 10.1791 28.4402Z" fill="#EBEBEB"/>
<path d="M10.2041 30.9329C10.1869 30.9487 9.60697 30.3408 8.90902 29.5755C8.21079 28.81 7.6589 28.1768 7.67618 28.1611C7.69345 28.1455 8.27322 28.7531 8.97144 29.5187C9.66939 30.2839 10.2214 30.9172 10.2041 30.9329Z" fill="#E0E0E0"/>
<path d="M8.86126 29.4693C8.86234 29.4925 8.68704 29.5197 8.46971 29.5301C8.25238 29.5404 8.07531 29.5298 8.07422 29.5065C8.07314 29.4833 8.24844 29.4561 8.46577 29.4457C8.6831 29.4355 8.86017 29.446 8.86126 29.4693Z" fill="#E0E0E0"/>
<path d="M8.56835 29.1973C8.54604 29.1886 8.57569 29.0627 8.60548 28.9083C8.63621 28.7541 8.65648 28.6262 8.68041 28.6266C8.70312 28.6266 8.72067 28.7618 8.6883 28.9246C8.65675 29.0873 8.58929 29.2059 8.56835 29.1973Z" fill="#E0E0E0"/>
<path d="M19.5306 42.8314C19.574 42.9517 19.6316 43.0667 19.7009 43.1755C19.499 43.0577 19.2848 42.9757 19.0502 42.9395C18.6902 42.8839 18.3062 42.9251 17.9279 42.9771C17.9166 42.9786 17.9052 42.9802 17.8939 42.9818C18.1539 43.3784 18.4663 43.7074 18.8383 43.8917C18.9158 43.9302 18.9963 43.9617 19.0789 43.988C19.008 44.0288 18.9381 44.0715 18.8697 44.1164C18.4088 44.4183 17.8263 45.0758 17.5391 45.3914C18.2354 45.4402 18.9101 45.3438 19.5354 45.1048C19.574 45.0901 19.6124 45.0743 19.6505 45.0583C19.6133 45.1621 19.5856 45.2695 19.5683 45.3817C19.5127 45.7417 19.5536 46.1255 19.6054 46.5038C19.6069 46.5151 19.6086 46.5265 19.6102 46.5378C20.0065 46.2777 20.3352 45.9651 20.5194 45.5932C20.6038 45.4225 20.6584 45.2385 20.6843 45.0471C20.7269 45.1332 20.776 45.2155 20.8319 45.2929C21.0426 45.5843 21.3514 45.81 21.7013 45.9842C21.7004 45.9745 21.6994 45.9649 21.6984 45.9552C21.665 45.6324 21.6225 45.3061 21.5112 45.0104C21.4011 44.7175 21.2204 44.4757 20.9891 44.2574C20.8451 44.1214 20.7657 44.0855 20.5086 43.8891C20.5086 43.8891 20.5086 43.8891 20.5085 43.889C20.5085 43.889 20.5085 43.8891 20.5086 43.8891C20.4911 43.5661 20.506 43.4802 20.4749 43.2844C20.4248 42.9703 20.3267 42.685 20.1466 42.4289C19.9649 42.1706 19.7191 41.9516 19.4712 41.7423C19.4637 41.7361 19.4564 41.7298 19.4489 41.7236C19.3959 42.1109 19.4085 42.4932 19.5306 42.8314Z" fill="#EBEBEB"/>
<path d="M21.5613 43.2099C21.5713 43.2264 20.9842 43.6009 20.2501 44.0462C19.5157 44.4916 18.9125 44.8392 18.9025 44.8226C18.8924 44.8061 19.4794 44.4317 20.2138 43.9863C20.9479 43.5411 21.5512 43.1935 21.5613 43.2099Z" fill="#E0E0E0"/>
<path d="M20.1576 44.0674C20.1768 44.0703 20.1708 44.2172 20.1444 44.3956C20.1181 44.574 20.0812 44.7163 20.062 44.7136C20.0428 44.7107 20.0488 44.5638 20.0752 44.3854C20.1016 44.2068 20.1386 44.0646 20.1576 44.0674Z" fill="#E0E0E0"/>
<path d="M19.8878 44.2631C19.8771 44.2798 19.7794 44.2356 19.6586 44.1866C19.5381 44.137 19.4373 44.1 19.4415 44.0807C19.4451 44.0622 19.5579 44.0697 19.6851 44.1219C19.8124 44.1736 19.8981 44.2474 19.8878 44.2631Z" fill="#E0E0E0"/>
<path d="M57.0735 21.0766C57.0735 21.0766 59.0057 19.5458 57.2828 17.5716C57.2828 17.5716 55.432 19.3645 57.0735 21.0766Z" fill="#EBEBEB"/>
<path d="M57.2895 16.795C57.3134 16.7964 57.2943 17.5041 57.2469 18.3758C57.1995 19.2477 57.1417 19.9534 57.1177 19.952C57.0938 19.9507 57.113 19.243 57.1604 18.3712C57.2078 17.4995 57.2656 16.7938 57.2895 16.795Z" fill="#E0E0E0"/>
<path d="M56.7389 19.5431C56.7208 19.5274 56.799 19.408 56.9136 19.2765C57.0281 19.1448 57.1355 19.051 57.1536 19.0666C57.1717 19.0823 57.0935 19.2017 56.979 19.3333C56.8645 19.4649 56.757 19.5588 56.7389 19.5431Z" fill="#E0E0E0"/>
<path d="M57.1986 18.2361C57.2182 18.2224 57.3211 18.3359 57.4286 18.4897C57.536 18.6436 57.6071 18.7792 57.5876 18.7929C57.568 18.8066 57.465 18.6931 57.3576 18.5393C57.2501 18.3854 57.1789 18.2497 57.1986 18.2361Z" fill="#E0E0E0"/>
<path d="M41.0293 26.76C41.0293 26.76 42.8834 28.3845 44.5146 26.3339C44.5146 26.3339 42.4173 24.8367 41.0293 26.76Z" fill="#EBEBEB"/>
<path d="M45.2789 26.2008C45.2819 26.2245 44.5823 26.3334 43.7162 26.4438C42.8501 26.5544 42.1456 26.6247 42.1426 26.601C42.1396 26.5774 42.839 26.4684 43.7054 26.358C44.5713 26.2474 45.2759 26.177 45.2789 26.2008Z" fill="#E0E0E0"/>
<path d="M42.4775 26.1553C42.4897 26.1348 42.6212 26.1902 42.7712 26.2791C42.9212 26.368 43.033 26.4567 43.0208 26.4774C43.0086 26.4979 42.877 26.4426 42.727 26.3536C42.577 26.2647 42.4652 26.1759 42.4775 26.1553Z" fill="#E0E0E0"/>
<path d="M43.8467 26.3713C43.8637 26.3882 43.7705 26.5099 43.6387 26.6432C43.5068 26.7766 43.3862 26.871 43.3692 26.8543C43.3522 26.8374 43.4453 26.7157 43.5771 26.5824C43.7091 26.449 43.8297 26.3545 43.8467 26.3713Z" fill="#E0E0E0"/>
<path d="M42.768 51.4506C42.768 51.4506 44.4826 50.2229 43.0924 48.4644C43.0924 48.4644 41.4364 49.9195 42.768 51.4506Z" fill="#EBEBEB"/>
<path d="M43.1313 47.8011C43.1434 47.8024 43.091 48.4057 43.0142 49.1485C42.9375 49.8916 42.8654 50.4927 42.8533 50.4915C42.8412 50.4903 42.8936 49.887 42.9704 49.144C43.0471 48.4012 43.1192 47.7999 43.1313 47.8011Z" fill="#E0E0E0"/>
<path d="M42.5456 50.1263C42.5368 50.1179 42.6135 50.0238 42.7167 49.9162C42.8201 49.8085 42.9109 49.7281 42.9196 49.7366C42.9285 49.745 42.8518 49.8391 42.7485 49.9468C42.6453 50.0544 42.5545 50.1348 42.5456 50.1263Z" fill="#E0E0E0"/>
<path d="M42.9933 49.0285C43.0036 49.022 43.0812 49.127 43.1666 49.2627C43.252 49.3986 43.3128 49.5139 43.3024 49.5205C43.2921 49.527 43.2146 49.4221 43.1292 49.2863C43.0439 49.1505 42.9831 49.0351 42.9933 49.0285Z" fill="#E0E0E0"/>
<path d="M52.2535 39.7491C52.2535 39.7491 53.8277 38.3459 52.2581 36.7454C52.2581 36.7454 50.7664 38.3686 52.2535 39.7491Z" fill="#EBEBEB"/>
<path d="M52.2246 36.082C52.2369 36.082 52.249 36.6875 52.2517 37.4343C52.2546 38.1813 52.2469 38.7868 52.2347 38.7868C52.2225 38.7868 52.2104 38.1815 52.2076 37.4344C52.2048 36.6876 52.2124 36.082 52.2246 36.082Z" fill="#E0E0E0"/>
<path d="M51.8916 38.4562C51.8819 38.4487 51.9481 38.347 52.0394 38.2289C52.1306 38.1109 52.2124 38.0213 52.222 38.0286C52.2317 38.0361 52.1655 38.1378 52.0742 38.2559C51.9831 38.3739 51.9012 38.4637 51.8916 38.4562Z" fill="#E0E0E0"/>
<path d="M52.2196 37.3171C52.2291 37.3095 52.3175 37.4055 52.4168 37.5315C52.5162 37.6575 52.589 37.7657 52.5794 37.7732C52.5699 37.7807 52.4817 37.6848 52.3822 37.5587C52.2828 37.4329 52.2101 37.3247 52.2196 37.3171Z" fill="#E0E0E0"/>
<path d="M56.8202 11.0696C58.2828 11.0696 59.4685 9.88391 59.4685 8.42128C59.4685 6.95865 58.2828 5.77295 56.8202 5.77295C55.3576 5.77295 54.1719 6.95865 54.1719 8.42128C54.1719 9.88391 55.3576 11.0696 56.8202 11.0696Z" fill="#EBEBEB"/>
<path d="M56.4419 14.3431C56.4266 14.3431 56.4141 13.854 56.4141 13.2508C56.4141 12.6473 56.4266 12.1583 56.4419 12.1583C56.4573 12.1583 56.4698 12.6473 56.4698 13.2508C56.4698 13.8539 56.4573 14.3431 56.4419 14.3431Z" fill="#E0E0E0"/>
<path d="M54.9153 11.5425C54.9286 11.5502 54.6796 12.0065 54.3591 12.5615C54.0384 13.1168 53.7677 13.5606 53.7544 13.5528C53.7411 13.5451 53.9901 13.0889 54.3108 12.5336C54.6313 11.9786 54.902 11.5347 54.9153 11.5425Z" fill="#E0E0E0"/>
<path d="M53.3501 10.5672C53.3596 10.5793 53.0827 10.8153 52.7316 11.0945C52.3803 11.3737 52.0879 11.5902 52.0784 11.5781C52.0688 11.566 52.3456 11.33 52.6969 11.0508C53.048 10.7716 53.3406 10.5551 53.3501 10.5672Z" fill="#E0E0E0"/>
<path d="M59.0838 13.2668C59.0759 13.2682 59.0521 13.1648 59.014 12.9981C58.9759 12.8313 58.9219 12.6015 58.8543 12.3498C58.7865 12.098 58.7179 11.8721 58.6673 11.7088C58.6167 11.5455 58.5853 11.4441 58.5929 11.4413C58.5997 11.4387 58.6442 11.5352 58.7046 11.696C58.765 11.8568 58.84 12.0821 58.9082 12.3353C58.9762 12.5884 59.0245 12.821 59.0527 12.9903C59.081 13.1598 59.0911 13.2656 59.0838 13.2668Z" fill="#E0E0E0"/>
<path d="M61.7713 11.3607C61.7613 11.3723 61.4107 11.0825 60.9885 10.7135C60.5662 10.3444 60.2322 10.0358 60.2424 10.0243C60.2525 10.0127 60.6029 10.3024 61.0252 10.6715C61.4474 11.0406 61.7814 11.3492 61.7713 11.3607Z" fill="#E0E0E0"/>
<path d="M62.7984 8.74127C62.7967 8.7493 62.6752 8.72795 62.479 8.69531C62.2829 8.66267 62.0114 8.62064 61.7103 8.58596C61.4091 8.55155 61.1353 8.53102 60.9367 8.51837C60.7383 8.50572 60.6152 8.49892 60.6152 8.49076C60.6152 8.48355 60.7386 8.47635 60.9382 8.47893C61.1377 8.48151 61.4137 8.49579 61.7166 8.53047C62.0193 8.56529 62.2913 8.61371 62.4862 8.65655C62.6815 8.69939 62.8001 8.73434 62.7984 8.74127Z" fill="#E0E0E0"/>
<path d="M62.8027 6.16543C62.8064 6.18039 62.233 6.33285 61.5223 6.50598C60.8113 6.6791 60.2322 6.80735 60.2285 6.79239C60.2249 6.77743 60.7981 6.62498 61.5091 6.45171C62.2198 6.27872 62.7991 6.15047 62.8027 6.16543Z" fill="#E0E0E0"/>
<path d="M59.8093 3.16431C59.8221 3.17274 59.5479 3.61039 59.1967 4.1416C58.8454 4.67296 58.5505 5.09673 58.5375 5.08816C58.5248 5.0796 58.7989 4.64222 59.1502 4.11087C59.5014 3.57965 59.7965 3.15588 59.8093 3.16431Z" fill="#E0E0E0"/>
<path d="M56.8404 2.53735C56.8484 2.53776 56.8475 2.67675 56.8442 2.90102C56.841 3.12528 56.8366 3.43495 56.8369 3.77686C56.8373 4.11903 56.8425 4.42857 56.8461 4.65283C56.8498 4.8771 56.851 5.01595 56.8431 5.01636C56.8357 5.01677 56.8206 4.87859 56.8068 4.65433C56.7929 4.43007 56.7817 4.11985 56.7813 3.77686C56.781 3.434 56.7916 3.12379 56.8049 2.89952C56.8181 2.67526 56.8331 2.53695 56.8404 2.53735Z" fill="#E0E0E0"/>
<path d="M54.5916 5.33852C54.5784 5.34654 54.2995 4.91392 53.9686 4.37237C53.6376 3.83068 53.38 3.38515 53.3931 3.37712C53.4061 3.3691 53.685 3.80158 54.0162 4.34327C54.3471 4.88482 54.6047 5.33049 54.5916 5.33852Z" fill="#E0E0E0"/>
<path d="M53.247 6.48042C53.2454 6.48763 53.1375 6.47199 52.9653 6.43581C52.7931 6.39964 52.5569 6.34184 52.2992 6.26595C52.0416 6.18993 51.8116 6.11023 51.6475 6.04713C51.4832 5.98416 51.3841 5.93873 51.3868 5.9318C51.3896 5.92432 51.4934 5.95655 51.6605 6.00986C51.8277 6.06331 52.0585 6.13675 52.315 6.2125C52.5715 6.28812 52.8051 6.35163 52.9746 6.39746C53.1439 6.44329 53.2486 6.47253 53.247 6.48042Z" fill="#E0E0E0"/>
<path d="M52.6605 8.51508C52.662 8.53044 52.2835 8.57927 51.8154 8.62428C51.347 8.6693 50.9663 8.69337 50.9648 8.678C50.9634 8.66277 51.3417 8.61381 51.8101 8.5688C52.2782 8.52378 52.659 8.49971 52.6605 8.51508Z" fill="#E0E0E0"/>
<path d="M30.866 6.89468C30.9423 6.34007 30.1596 5.88392 29.5715 5.83646C29.2911 5.81388 28.9998 5.85672 28.7341 5.76411C28.1584 5.56351 27.9284 4.81972 27.3667 4.58281C26.9467 4.40574 26.4633 4.56336 26.0562 4.76832C25.649 4.97327 25.2467 5.23112 24.792 5.26023C24.3963 5.28552 23.9667 5.13878 23.6205 5.33204C23.3625 5.47606 23.2274 5.77322 22.9897 5.94866C22.7571 6.12016 22.4537 6.1566 22.1651 6.17224C21.8765 6.18788 21.5777 6.19088 21.315 6.3111C21.0522 6.43146 20.8348 6.70931 20.8893 6.99314L30.866 6.89468Z" fill="#EBEBEB"/>
<path d="M15.0091 8.8736C15.0892 8.29193 14.2682 7.81335 13.6513 7.76357C13.3571 7.73991 13.0515 7.78479 12.7727 7.68768C12.1689 7.47716 11.9276 6.69706 11.3385 6.44859C10.898 6.26281 10.3908 6.42819 9.96377 6.64307C9.53673 6.85795 9.11472 7.12845 8.63763 7.15905C8.22269 7.18557 7.77199 7.03176 7.40887 7.2344C7.13837 7.38549 6.99652 7.6972 6.74723 7.88121C6.50325 8.06114 6.18501 8.09922 5.88227 8.11568C5.57953 8.13213 5.26619 8.13526 4.99052 8.26147C4.71485 8.38768 4.48677 8.67912 4.54403 8.97683L15.0091 8.8736Z" fill="#F5F5F5"/>
<path d="M10.304 50.1183C10.0186 50.0017 9.66988 50.0584 9.43623 50.2595C9.20258 50.4607 9.0946 50.7971 9.16763 51.0967C8.62091 50.8547 7.94132 51.177 7.64538 51.6965C7.34945 52.216 7.37325 52.8655 7.54461 53.4385C7.1585 53.4498 6.79334 53.7217 6.67189 54.0883C6.55045 54.455 6.68101 54.8911 6.98388 55.1308C6.5344 55.1038 6.09131 55.443 6.00005 55.8839C5.9088 56.3248 6.18093 56.8121 6.60417 56.9657C6.1419 57.3035 5.96673 57.9813 6.20718 58.5008C6.44777 59.0204 7.07799 59.3253 7.63464 59.1915C7.64443 59.6466 7.90841 60.0882 8.30485 60.3122C8.70129 60.5362 9.21577 60.5345 9.61072 60.3079C9.95262 60.7873 10.5127 61.1043 11.0996 61.1509C11.6866 61.1975 12.2896 60.9726 12.703 60.5532C13.1035 60.8013 13.5466 61.0343 14.017 61.0088C14.4874 60.9833 14.9674 60.5971 14.9259 60.1279C15.3507 60.2733 15.8224 60.3956 16.2396 60.2298C16.6569 60.064 16.9221 59.4833 16.6242 59.1473C17.3842 59.2858 18.1795 58.5921 18.1455 57.8203C18.5391 57.9919 19.0352 57.8903 19.3297 57.5778C19.6241 57.2653 19.6959 56.764 19.5012 56.3813C20.0153 56.1848 20.1817 55.4876 19.9745 54.9778C19.7672 54.468 19.2999 54.1155 18.8346 53.8218C19.1527 53.3609 19.1771 52.7149 18.8945 52.2314C18.6119 51.7479 18.037 51.452 17.4794 51.503C17.6018 51.0392 17.3823 50.5069 16.9686 50.2641C16.5549 50.0214 15.9831 50.0892 15.638 50.4222C15.6656 49.6668 14.8111 49.024 14.0931 49.2599C13.8715 49.3327 13.663 49.4728 13.4297 49.4655C13.1123 49.4556 12.8706 49.1801 12.5712 49.0745C12.1044 48.9103 11.531 49.2641 11.4688 49.7551C11.4717 49.531 11.2177 49.3633 10.9971 49.4029C10.7765 49.4424 10.6087 49.6358 10.5347 49.8474C10.4607 50.0591 10.4634 50.2886 10.4671 50.5129" fill="#EBEBEB"/>
<path d="M10.1468 56.6143C10.1721 56.6115 10.4069 58.5597 10.6712 60.9653C10.9356 63.3717 11.1292 65.3241 11.1039 65.327C11.0786 65.3298 10.8438 63.3819 10.5795 60.9755C10.3151 58.5699 10.1213 56.6171 10.1468 56.6143Z" fill="#E0E0E0"/>
<path d="M10.497 59.4475C10.4767 59.4632 10.1377 59.0567 9.73972 58.5397C9.34165 58.0227 9.03537 57.5911 9.05564 57.5755C9.0759 57.56 9.41481 57.9664 9.81302 58.4834C10.2108 59.0004 10.5171 59.432 10.497 59.4475Z" fill="#E0E0E0"/>
<path d="M11.8959 53.9663C11.9215 53.9654 12.0327 56.5045 12.1446 59.6368C12.2566 62.7703 12.3266 65.3102 12.301 65.3112C12.2756 65.3121 12.1642 62.7735 12.0523 59.6401C11.9405 56.5079 11.8703 53.9673 11.8959 53.9663Z" fill="#E0E0E0"/>
<path d="M13.2874 54.084C13.2905 54.0841 13.2919 54.1234 13.2913 54.1981C13.2896 54.2824 13.2874 54.3905 13.2847 54.5242C13.2762 54.8189 13.2647 55.2256 13.2505 55.7229C13.2221 56.735 13.1929 58.1335 13.1867 59.6782C13.1812 61.2234 13.1999 62.6222 13.2207 63.6344C13.2312 64.1321 13.2397 64.5387 13.2458 64.8334C13.2475 64.9671 13.2489 65.0752 13.25 65.1596C13.2499 65.2341 13.2484 65.2734 13.2451 65.2735C13.242 65.2737 13.2372 65.2346 13.2314 65.1602C13.2258 65.0762 13.2187 64.9682 13.2099 64.8348C13.1927 64.552 13.1738 64.1425 13.1555 63.6364C13.1181 62.624 13.089 61.2243 13.0944 59.6778C13.1005 58.1319 13.1402 56.7327 13.1853 55.7206C13.2076 55.2146 13.2296 54.8052 13.2488 54.5224C13.2586 54.389 13.2666 54.281 13.2727 54.197C13.2792 54.1229 13.2841 54.0838 13.2874 54.084Z" fill="#E0E0E0"/>
<path d="M13.8743 57.8149C13.8971 57.8223 13.8018 58.1475 13.5891 58.504C13.3779 58.8615 13.138 59.1007 13.1206 59.0844C13.1 59.0669 13.3036 58.806 13.5097 58.4569C13.7176 58.1089 13.8491 57.8053 13.8743 57.8149Z" fill="#E0E0E0"/>
<path d="M15.8592 55.7123C15.8623 55.7131 15.8573 55.7467 15.845 55.8102C15.8297 55.8835 15.8106 55.9749 15.7872 56.0867C15.7319 56.339 15.6564 56.6822 15.5645 57.101C15.3769 57.9574 15.1268 59.1424 14.8787 60.4565C14.6311 61.7712 14.4325 62.966 14.2954 63.8319C14.2285 64.2553 14.1737 64.6025 14.1335 64.8576C14.1146 64.9702 14.0991 65.0623 14.0867 65.1361C14.075 65.1997 14.0672 65.2328 14.0641 65.2324C14.061 65.232 14.0625 65.198 14.0682 65.1337C14.0761 65.0592 14.0859 64.9663 14.0978 64.8527C14.1252 64.6089 14.1703 64.2568 14.2308 63.8224C14.3515 62.9533 14.5401 61.7556 14.7879 60.4395C15.0362 59.124 15.2968 57.9398 15.5008 57.0866C15.6027 56.6598 15.6888 56.3155 15.7521 56.0784C15.7823 55.9682 15.8071 55.8781 15.8268 55.8059C15.8452 55.7437 15.8562 55.7115 15.8592 55.7123Z" fill="#E0E0E0"/>
<path d="M16.6535 57.6974C16.6707 57.7163 16.336 58.0474 15.9059 58.4369C15.4759 58.8266 15.1135 59.127 15.0963 59.1081C15.0792 59.0892 15.4139 58.7582 15.8439 58.3685C16.2738 57.9789 16.6364 57.6785 16.6535 57.6974Z" fill="#E0E0E0"/>
<path d="M15.4782 57.3258C15.4556 57.3376 15.2932 57.0739 15.1156 56.7366C14.9379 56.3992 14.8121 56.1162 14.8347 56.1044C14.8572 56.0926 15.0196 56.3563 15.1972 56.6937C15.375 57.0308 15.5008 57.314 15.4782 57.3258Z" fill="#E0E0E0"/>
<path d="M19.5005 52.222C19.4275 51.6471 19.8416 51.0509 20.4059 50.9187C20.4619 51.4664 20.1338 52.0921 19.5005 52.222Z" fill="#E0E0E0"/>
<path d="M19.7891 52.8191C20.062 53.2527 20.9122 53.3554 21.4205 53.0758C21.0652 52.576 20.2808 52.4525 19.7891 52.8191Z" fill="#E0E0E0"/>
<path d="M10.4539 52.1818C10.3573 52.4771 10.3881 52.8118 10.5368 53.0845C10.6856 53.3571 10.9846 53.5002 11.2851 53.579C11.3258 53.0037 10.9788 52.4205 10.4539 52.1818Z" fill="#E0E0E0"/>
<path d="M39.3125 21.5769C39.3125 21.5769 42.1593 19.9988 42.5614 19.5656C42.9637 19.1325 42.9018 19.1325 43.2731 18.854C43.6444 18.5754 47.0791 17.0902 47.0791 17.0902C47.0791 17.0902 47.8526 16.8735 48.0383 17.3377C48.0383 17.3377 46.2126 19.4109 45.9961 19.6893C45.7794 19.9678 44.3561 20.7414 44.3561 20.7414C44.3561 20.7414 43.1493 21.8862 42.8708 22.3814C42.5923 22.8764 39.9622 24.6092 39.9622 24.6092L39.3125 21.5769Z" fill="#FFBE9D"/>
<path d="M48.0392 17.4197C48.0392 17.4197 48.9331 16.7639 49.0717 15.9695C49.2104 15.175 49.4247 14.822 49.4247 14.822C49.4247 14.822 49.5508 14.3427 49.3616 14.368C49.1725 14.3933 48.8572 14.6706 48.6933 15.213C48.6933 15.213 48.4412 15.6038 48.3654 15.5282C48.2898 15.4526 48.2267 15.2381 48.1385 14.7841C48.0502 14.3302 47.7601 13.3718 47.6214 13.3591C47.4827 13.3465 47.47 13.4852 47.4827 13.6997C47.4953 13.914 47.8232 15.2381 47.6465 15.2508C47.47 15.2634 47.0613 13.9683 46.8016 13.8384C46.726 13.8006 46.6124 13.8889 46.6124 13.8889L46.8898 14.8221L46.6124 14.6707C46.6124 14.6707 46.5998 14.8472 46.6124 15.0238C46.625 15.2003 47.1168 16.2092 47.1042 16.3857C47.0915 16.5622 46.9024 16.6631 46.9024 16.6631C46.9024 16.6631 46.1836 16.3479 46.1836 16.4992C46.1836 16.6506 46.3475 16.7389 46.5367 16.8776C46.7258 17.0163 46.774 16.8475 46.7636 17.0398C46.7533 17.2321 46.751 17.4703 46.8645 17.5206C46.9784 17.5711 48.0392 17.4197 48.0392 17.4197Z" fill="#FFBE9D"/>
<path d="M47.7838 16.8791C47.7777 16.8874 47.7183 16.841 47.6061 16.8585C47.4966 16.8753 47.3405 16.9253 47.1799 16.9934C46.8551 17.1322 46.6375 17.3271 46.6238 17.311C46.6095 17.2999 46.8132 17.0736 47.1517 16.9284C47.3202 16.8574 47.4784 16.8141 47.6025 16.8085C47.7319 16.8028 47.7939 16.8747 47.7838 16.8791Z" fill="#EB996E"/>
<path d="M38.0353 60.9972L37.7296 63.6621C37.7296 63.6621 40.3358 64.868 40.3272 65.3659L35.1387 64.9586L35.4447 60.7867L38.0353 60.9972Z" fill="#FF725E"/>
<path d="M36.144 63.3114C36.0415 63.3309 35.9631 63.4384 35.9785 63.5416C35.9939 63.645 36.1024 63.7255 36.2053 63.7077C36.3083 63.69 36.4061 63.5638 36.3793 63.4629C36.3525 63.362 36.2198 63.2744 36.1241 63.3163" fill="#E0E0E0"/>
<path d="M35.127 65.0676L35.1562 64.6634L40.1436 65.0868C40.1436 65.0868 40.3668 65.2054 40.3279 65.3661L35.127 65.0676Z" fill="#263238"/>
<path d="M37.8173 63.6424C37.8145 63.6677 37.6869 63.6692 37.5559 63.7409C37.4229 63.8092 37.35 63.9139 37.3276 63.9019C37.3046 63.8951 37.3542 63.7466 37.5144 63.6627C37.6738 63.5773 37.8247 63.6196 37.8173 63.6424Z" fill="#263238"/>
<path d="M38.3438 63.9102C38.3478 63.9352 38.2346 63.9697 38.1401 64.07C38.0427 64.1677 38.0119 64.2818 37.9867 64.2788C37.9626 64.2808 37.9567 64.1311 38.0765 64.0085C38.1953 63.8849 38.3452 63.886 38.3438 63.9102Z" fill="#263238"/>
<path d="M38.6018 64.5858C38.5784 64.5893 38.553 64.46 38.629 64.3265C38.7041 64.1922 38.8278 64.1469 38.8368 64.1688C38.8495 64.1907 38.7668 64.2591 38.706 64.3698C38.6427 64.4789 38.6271 64.5853 38.6018 64.5858Z" fill="#263238"/>
<path d="M37.819 63.0273C37.8066 63.0496 37.693 63.0055 37.549 63.004C37.4051 62.9995 37.2899 63.039 37.2784 63.0161C37.2652 62.9967 37.3813 62.9114 37.5509 62.9156C37.7205 62.9183 37.833 63.0084 37.819 63.0273Z" fill="#263238"/>
<path d="M32.7178 61.188L32.5652 63.8661C32.5652 63.8661 35.2361 64.9207 35.2561 65.4184L30.0527 65.309L30.1194 61.1263L32.7178 61.188Z" fill="#FF725E"/>
<path d="M30.9605 63.6069C30.8591 63.6323 30.7872 63.7441 30.8084 63.8463C30.8296 63.9485 30.9426 64.0226 31.0444 63.999C31.1461 63.9755 31.2365 63.8438 31.204 63.7447C31.1715 63.6454 31.034 63.5657 30.941 63.613" fill="#E0E0E0"/>
<path d="M30.0469 65.4185L30.0529 65.0132L35.0563 65.1501C35.0563 65.1501 35.2859 65.2558 35.2562 65.4185H30.0469Z" fill="#263238"/>
<path d="M32.6501 63.8415C32.6487 63.867 32.5214 63.8758 32.3946 63.9548C32.2659 64.0306 32.1991 64.1394 32.176 64.1288C32.1527 64.1233 32.1938 63.9722 32.3488 63.8792C32.503 63.7848 32.656 63.8184 32.6501 63.8415Z" fill="#263238"/>
<path d="M33.192 64.0787C33.1973 64.1035 33.0863 64.1443 32.9978 64.2499C32.9061 64.353 32.8819 64.4688 32.8566 64.4671C32.8327 64.4707 32.8181 64.3215 32.9309 64.1921C33.0421 64.062 33.1918 64.0545 33.192 64.0787Z" fill="#263238"/>
<path d="M33.4875 64.7385C33.4643 64.7434 33.4316 64.6156 33.4998 64.4779C33.567 64.3396 33.688 64.2872 33.6982 64.3086C33.7121 64.3298 33.6335 64.4028 33.5792 64.5168C33.5224 64.6295 33.5128 64.7366 33.4875 64.7385Z" fill="#263238"/>
<path d="M32.6177 63.2274C32.6066 63.2503 32.4907 63.2128 32.347 63.2196C32.2031 63.2234 32.0903 63.2692 32.0774 63.2472C32.0631 63.2286 32.1742 63.1368 32.3437 63.1312C32.5131 63.1243 32.6307 63.2076 32.6177 63.2274Z" fill="#263238"/>
<path d="M26.9024 16.1864C26.9046 16.1818 26.9883 16.2184 27.1393 16.2845C27.2905 16.3485 27.5085 16.4484 27.7924 16.5176C28.0713 16.5849 28.4386 16.6121 28.7857 16.4492C28.9576 16.3687 29.1065 16.2299 29.2171 16.0542C29.329 15.8789 29.4087 15.6751 29.4967 15.4675C29.6699 15.048 29.9114 14.6817 30.1687 14.3855C30.4281 14.09 30.7014 13.861 30.9477 13.696C31.1945 13.5313 31.4097 13.4226 31.5628 13.3601C31.6379 13.3254 31.6999 13.307 31.7406 13.2915C31.7817 13.2772 31.8037 13.2709 31.8045 13.2732C31.8068 13.279 31.7222 13.3137 31.5743 13.3851C31.4257 13.455 31.2164 13.5694 30.9761 13.7372C30.7365 13.9053 30.4705 14.135 30.2181 14.4281C29.9676 14.7224 29.7325 15.0818 29.562 15.4951C29.4746 15.7012 29.3932 15.9088 29.2756 16.0916C29.1599 16.2748 28.9972 16.4246 28.814 16.5081C28.4444 16.6771 28.0644 16.6408 27.7805 16.5661C27.4921 16.4889 27.2761 16.3813 27.128 16.3094C27.054 16.2726 26.9975 16.2426 26.9592 16.2216C26.9207 16.2007 26.9013 16.1887 26.9024 16.1864Z" fill="#263238"/>
<path d="M36.2838 22.0444C36.2814 22.0444 36.2807 22.0187 36.2817 21.9697C36.2852 21.921 36.2791 21.8474 36.2958 21.7555C36.3135 21.5693 36.3816 21.3044 36.5103 20.9963C36.6387 20.6878 36.8346 20.342 37.0439 19.9573C37.2498 19.5728 37.4738 19.1401 37.5645 18.6465C37.652 18.1524 37.5968 17.6667 37.4941 17.2448C37.3894 16.8214 37.2365 16.4563 37.0994 16.1554C36.9608 15.8547 36.8364 15.6167 36.7528 15.4511C36.7141 15.374 36.6825 15.3107 36.657 15.2599C36.6357 15.2158 36.6256 15.1921 36.6278 15.1909C36.63 15.1897 36.6442 15.2112 36.6695 15.2531C36.6981 15.3022 36.7336 15.3634 36.777 15.438C36.8681 15.5999 36.9996 15.8346 37.1447 16.1341C37.2882 16.4338 37.4475 16.8001 37.5573 17.229C37.6651 17.656 37.7239 18.1515 37.6342 18.6589C37.5408 19.1667 37.3106 19.6045 37.1012 19.9886C36.888 20.3728 36.689 20.7136 36.5562 21.0162C36.4232 21.3181 36.3488 21.5767 36.323 21.7594C36.2935 21.9414 36.2916 22.0448 36.2838 22.0444Z" fill="#263238"/>
<path d="M33.0668 13.0642C32.3846 12.7952 31.5844 13.1141 31.0748 13.6414C30.5652 14.1686 30.2813 14.8677 29.9996 15.5447C29.718 16.2217 29.4122 16.9158 28.8739 17.4139C28.5426 17.7206 28.1278 17.9481 27.8794 18.3252C27.6045 18.7425 27.574 19.2846 27.2993 19.7019C26.6022 20.7607 24.8089 20.4668 24.0104 21.4514C23.7274 21.8004 23.6207 22.2557 23.4246 22.6599C23.2284 23.0641 22.8689 23.4559 22.4199 23.4417C22.868 23.9073 23.6268 24.0382 24.2049 23.7496C24.2688 24.3242 23.2637 24.613 23.3708 25.1812C23.4142 25.4109 23.6326 25.5603 23.8384 25.6711C26.0332 26.8545 28.9615 26.4845 30.793 24.7926C31.4832 24.1549 32.0142 23.3663 32.6447 22.6695C33.2752 21.9726 34.0536 21.345 34.9799 21.1869L33.0668 13.0642Z" fill="#263238"/>
<path d="M30.1732 17.2211C30.1057 16.1126 30.0315 14.9597 30.7006 14.0733C31.2967 13.2834 32.1108 12.8913 33.0771 12.6778C33.5528 12.5727 34.1418 12.6488 34.6133 12.7722C35.2597 12.9412 35.6688 13.5232 36.0955 14.0374C36.9502 15.0674 37.3031 16.6756 37.0525 17.2151L32.8332 21.1079C31.8448 20.8862 31.2079 20.8295 30.7256 19.9387C30.3971 19.3321 30.2151 17.9097 30.1732 17.2211Z" fill="#263238"/>
<path d="M31.0648 15.0145L33.911 13.2842C34.8673 12.8754 35.8992 13.8901 36.2671 14.8629C36.6758 15.9435 37.1322 17.2792 37.2547 18.1416C37.4872 19.7771 36.3903 20.2783 36.2691 20.3445C36.2617 20.3486 36.2617 20.3486 36.2617 20.3486C36.2706 20.3837 36.342 20.6411 36.444 20.9965L36.7858 22.102C36.782 23.5689 36.1948 24.7963 34.2833 24.6092L30.7261 15.7646C30.627 15.4645 30.7743 15.1387 31.0648 15.0145Z" fill="#FFBE9D"/>
<path d="M35.6178 16.4261C35.6298 16.3896 35.8214 16.4443 36.0237 16.3587C36.2271 16.2766 36.3275 16.1013 36.3609 16.119C36.3768 16.1263 36.3736 16.1844 36.3307 16.2626C36.2887 16.3401 36.2011 16.4352 36.0748 16.4874C35.9483 16.5395 35.8206 16.5336 35.7375 16.5077C35.653 16.482 35.6114 16.4428 35.6178 16.4261Z" fill="#263238"/>
<path d="M33.4759 17.0101C33.4934 16.9742 33.6914 17.0421 33.9187 16.9696C34.1469 16.9004 34.277 16.7305 34.3105 16.7505C34.3265 16.7591 34.3158 16.8172 34.2595 16.8932C34.2045 16.9687 34.0987 17.0584 33.9566 17.1028C33.8146 17.1468 33.6788 17.1323 33.5934 17.1006C33.5066 17.0689 33.4669 17.0266 33.4759 17.0101Z" fill="#263238"/>
<path d="M35.3097 17.8248C35.3047 17.8122 35.4389 17.744 35.6598 17.6438C35.7162 17.6199 35.7678 17.5913 35.7655 17.5486C35.7663 17.5022 35.7225 17.447 35.6734 17.3878C35.5752 17.2637 35.4724 17.1335 35.3646 16.9971C34.9308 16.4391 34.5976 15.9729 34.6202 15.9556C34.6428 15.9384 35.0129 16.3767 35.4466 16.9347C35.5521 17.0727 35.6529 17.2042 35.749 17.3302C35.7915 17.3896 35.8525 17.4531 35.8497 17.5496C35.8474 17.598 35.8143 17.6427 35.78 17.6642C35.7462 17.687 35.7135 17.6978 35.6852 17.7084C35.4577 17.7923 35.3145 17.8375 35.3097 17.8248Z" fill="#263238"/>
<path d="M36.2635 20.3494C36.2635 20.3494 35.1732 20.7636 33.8672 20.4403C33.8672 20.4403 34.7709 21.4289 36.3782 20.7647L36.2635 20.3494Z" fill="#EB996E"/>
<path d="M34.6861 18.4828C34.7187 18.3564 34.8199 18.2641 34.9397 18.2229C35.1126 18.1634 35.2774 18.1783 35.4403 18.3043C35.4934 18.339 35.5304 18.4713 35.5255 18.5124C35.5206 18.5536 35.5275 18.532 35.507 18.5656C35.4326 18.6872 35.3526 18.8104 35.231 18.8821C35.1096 18.9537 34.9354 18.9611 34.8102 18.8594C34.6994 18.7689 34.6534 18.6091 34.6861 18.4828Z" fill="#EB996E"/>
<path d="M34.6471 18.2103C34.6834 18.1965 34.7616 18.4436 35.0283 18.5526C35.2948 18.6623 35.5497 18.5518 35.5625 18.5856C35.5708 18.6 35.5188 18.6521 35.4085 18.6901C35.3005 18.7282 35.1303 18.7431 34.9671 18.6765C34.8041 18.6094 34.7035 18.4832 34.6632 18.3845C34.6214 18.2841 34.6296 18.2142 34.6471 18.2103Z" fill="#263238"/>
<path d="M33.8781 15.7007C33.8786 15.7697 33.6446 15.824 33.3938 15.9533C33.1404 16.0776 32.9574 16.2332 32.9021 16.1916C32.8769 16.1713 32.8925 16.1004 32.9561 16.0096C33.0191 15.9192 33.1338 15.813 33.2847 15.7368C33.4359 15.6609 33.5895 15.6322 33.6997 15.6356C33.8105 15.6385 33.8769 15.6683 33.8781 15.7007Z" fill="#263238"/>
<path d="M36.093 15.3234C36.0527 15.3827 35.8637 15.348 35.6439 15.3708C35.4234 15.3869 35.2428 15.4541 35.1935 15.4028C35.1716 15.3776 35.1945 15.3203 35.2698 15.2599C35.3439 15.1998 35.4729 15.1426 35.6242 15.1292C35.7754 15.116 35.9118 15.1496 35.9945 15.196C36.0785 15.2422 36.1104 15.2947 36.093 15.3234Z" fill="#263238"/>
<path d="M33.8844 13.0833C34.1609 13.7289 34.0134 14.3827 33.9103 15.0774C33.8814 15.2714 33.7673 15.6099 33.6621 15.7755C33.5567 15.941 33.3634 16.0651 33.1676 16.0755C33.3506 15.6291 33.7178 15.0591 33.6059 14.5899C33.5346 15.1178 33.4604 15.6558 33.2289 16.1353C32.9973 16.615 32.5779 17.0352 32.0533 17.1277L31.995 16.7746C31.987 17.0407 31.9297 17.3169 31.7612 17.5231C31.5928 17.7291 31.2919 17.8428 31.0492 17.7334C30.9958 16.8507 30.2388 16.0817 30.3464 15.204C30.4209 14.5961 30.9006 14.1149 31.4162 13.7843C32.1412 13.3193 32.992 13.0525 33.8526 13.02" fill="#263238"/>
<path d="M33.8184 13.1155C33.8243 13.1268 33.8299 13.1384 33.8359 13.1497L33.8307 13.1536C33.8267 13.141 33.8226 13.1283 33.8184 13.1155Z" fill="#263238"/>
<path d="M33.8359 13.1498L33.926 13.0805C34.1969 12.8327 34.3534 12.5924 34.9603 12.8931C35.2892 13.056 35.6212 13.3436 35.8882 13.6564C36.1264 13.9356 36.385 14.2392 36.534 14.5746C36.7292 15.0136 36.8354 15.3432 36.9159 15.846C36.582 15.735 36.346 15.4384 36.1667 15.1357C35.9875 14.833 35.8409 14.504 35.5951 14.2521C35.7189 14.5188 35.8442 14.7916 35.8747 15.0841C35.883 15.1641 35.8827 15.2503 35.8395 15.3182C35.7964 15.3861 35.6966 15.4229 35.6322 15.3745C35.6481 15.0234 35.532 14.6763 35.3583 14.3706C35.1846 14.065 34.9551 13.7954 34.725 13.5297C34.9534 14.0734 35.088 14.6564 35.1207 15.2453C35.1255 15.3299 35.1269 15.4195 35.0852 15.4932C35.0229 15.6034 34.8849 15.6438 34.7591 15.6583C34.6333 15.6729 34.4993 15.6738 34.3919 15.7409C34.4458 14.8482 34.2509 13.942 33.8359 13.1498Z" fill="#263238"/>
<path d="M30.1368 13.3828C30.135 13.3782 30.1951 13.3507 30.3054 13.3049C30.4156 13.2592 30.5759 13.195 30.7749 13.1182C31.1729 12.9652 31.7256 12.7584 32.3487 12.5665C32.6606 12.4742 32.9571 12.3763 33.2438 12.3443C33.5275 12.3098 33.8036 12.365 33.9786 12.5029C34.1584 12.6324 34.2415 12.8048 34.2612 12.9244C34.2706 12.985 34.269 13.0326 34.2641 13.0642C34.2584 13.0957 34.2543 13.1116 34.2518 13.1112C34.2441 13.1107 34.2603 13.0438 34.2342 12.9299C34.2074 12.8184 34.1225 12.6606 33.9497 12.5437C33.7816 12.4197 33.5255 12.3731 33.2512 12.4092C32.9762 12.4429 32.6805 12.5421 32.3695 12.6343C31.7488 12.8255 31.1946 13.0243 30.7921 13.1652C30.6008 13.2316 30.4407 13.2872 30.3151 13.3309C30.2018 13.3685 30.1384 13.3874 30.1368 13.3828Z" fill="#263238"/>
<path d="M22.6113 21.4353C22.6109 21.4342 22.6214 21.4293 22.6425 21.4207C22.6676 21.411 22.6987 21.3992 22.7369 21.3847C22.7788 21.3698 22.8327 21.3587 22.8956 21.3418C22.9596 21.3316 23.0332 21.3146 23.1175 21.309C23.2856 21.2912 23.4926 21.2918 23.7312 21.3013C23.9693 21.308 24.2417 21.3294 24.5371 21.2946C24.8309 21.2646 25.1509 21.1509 25.3999 20.9057C25.6518 20.6656 25.8386 20.3312 25.9705 19.9616C26.1045 19.5904 26.1891 19.1812 26.3278 18.7687C26.4634 18.3589 26.6773 17.935 27.0444 17.6376C27.2254 17.4892 27.443 17.3849 27.6711 17.351C27.8986 17.3172 28.1206 17.3403 28.3319 17.3238C28.5439 17.3128 28.7417 17.2394 28.8974 17.1094C29.0542 16.9815 29.1724 16.8159 29.2702 16.6466C29.4615 16.3036 29.5936 15.9474 29.7297 15.6222C29.8633 15.2951 29.9946 14.9916 30.1404 14.7269C30.4282 14.1941 30.787 13.8387 31.0719 13.6581C31.2137 13.5659 31.3342 13.512 31.4171 13.4803C31.4584 13.4643 31.4913 13.4555 31.5128 13.4485C31.5346 13.442 31.5459 13.4393 31.5463 13.4404C31.5472 13.4432 31.5036 13.4595 31.4225 13.4935C31.342 13.5292 31.2249 13.5864 31.0873 13.6809C30.8108 13.8663 30.4634 14.221 30.1845 14.7507C30.0431 15.014 29.9152 15.3165 29.7843 15.6442C29.65 15.9708 29.5212 16.3266 29.3269 16.6789C29.2273 16.8527 29.1062 17.0253 28.9401 17.1617C28.7766 17.3006 28.5574 17.3819 28.3372 17.3929C28.1177 17.4101 27.8971 17.3878 27.6817 17.4205C27.4671 17.4528 27.262 17.5507 27.0887 17.6925C26.737 17.9776 26.5279 18.3867 26.3934 18.7909C26.2555 19.1974 26.1694 19.6074 26.0319 19.9836C25.8959 20.3591 25.7032 20.701 25.4401 20.9482C25.1802 21.2011 24.8426 21.3175 24.5427 21.3443C24.2401 21.3766 23.9671 21.3512 23.7293 21.3409C23.4913 21.3275 23.2863 21.3231 23.1197 21.3365C22.7849 21.3581 22.6143 21.4467 22.6113 21.4353Z" fill="#263238"/>
<path d="M31.9248 33.238C31.9248 33.238 30.5994 34.6291 29.9037 36.3412C29.2082 38.0533 29.5137 46.2962 29.5137 46.2962L29.6594 50.6176C29.6594 50.6176 29.1356 54.8166 29.2962 57.4638C29.4567 60.1112 29.9507 62.5622 29.9507 62.5622L32.84 62.7009L35.9058 40.2434L35.1389 50.6003L34.4585 62.7009L38.1433 62.6649C38.1433 62.6649 39.331 52.1523 39.5713 50.4496C39.8429 48.5252 40.2302 46.6122 40.2302 46.6122C40.2302 46.6122 40.847 41.5473 40.6329 38.8186C40.4189 36.0899 38.7927 32.275 38.7393 32.1145L32.2045 33.2916" fill="#455A64"/>
<path d="M18.4365 10.1396C18.4365 10.1396 18.1447 10.3001 18.1885 10.7376C18.2323 11.1751 18.4365 11.4668 18.4365 11.4668C18.4365 11.4668 16.8903 10.0811 16.7152 10.0228C16.5402 9.96444 16.3068 10.1104 16.3214 10.3145C16.3359 10.5188 17.2542 11.2189 17.3785 11.3939C17.5028 11.569 17.3861 11.4961 17.2694 11.4668C17.1527 11.4376 16.2485 10.7356 16.2047 10.7584C16.1609 10.7813 15.7234 10.8543 15.9713 11.1897C16.2192 11.5252 16.9341 11.846 17.0215 11.9772C17.1091 12.1085 17.2095 12.1316 17.1949 12.2628C17.1804 12.3941 16.428 12.069 16.428 12.069L16.0532 11.875C15.8724 11.7814 15.6826 11.9843 15.7881 12.1583C15.8163 12.2046 15.8565 12.2518 15.913 12.2981C16.2339 12.5605 16.9194 12.7939 16.9194 12.7939C16.9194 12.7939 17.1965 12.9544 17.182 13.1147C17.1674 13.2752 15.8839 13.7711 15.8839 13.7711C15.8839 13.7711 15.811 13.9752 15.986 14.0483C16.161 14.1211 16.4907 13.9321 16.4907 13.9321C16.4907 13.9321 17.2696 13.6107 17.4592 13.6691C17.6487 13.7274 18.4218 14.1504 18.772 14.2087C19.1222 14.2671 19.443 14.2087 19.443 14.2087L20.0467 12.9189C20.0467 12.9189 19.4137 11.5979 19.2971 11.3353C19.1804 11.0728 18.7865 10.9707 18.7136 10.679C18.6406 10.3875 18.4365 10.1396 18.4365 10.1396Z" fill="#FFBE9D"/>
<path d="M18.7871 13.8535C18.7871 13.8535 21.8743 17.3876 22.6892 18.5551C23.5313 19.7617 26.1107 21.9185 26.1107 21.9185C26.1107 21.9185 29.4604 25.4582 29.7698 25.4891C30.0792 25.5201 31.2569 25.395 31.2569 25.395L31.0403 22.1151C31.0403 22.1151 25.7801 17.5974 25.5634 17.4118C25.3468 17.2261 19.7101 12.6454 19.7101 12.6454L18.7871 13.8535Z" fill="#FFBE9D"/>
<path d="M18.283 11.1495C18.2935 11.1464 18.3303 11.2517 18.4369 11.3965C18.4854 11.4724 18.5649 11.548 18.6031 11.6804C18.617 11.7498 18.5982 11.8222 18.568 11.8833C18.5385 11.9445 18.5071 11.9989 18.5054 12.0587C18.5147 12.3225 18.6222 12.5576 18.6953 12.7191C18.772 12.8825 18.822 12.9836 18.8126 12.9888C18.8047 12.9932 18.7398 12.9012 18.6506 12.7418C18.5655 12.5818 18.4452 12.3504 18.4345 12.0557C18.4375 11.9748 18.4784 11.9084 18.5054 11.8533C18.5336 11.7984 18.5468 11.7425 18.5389 11.6929C18.5145 11.591 18.4391 11.5021 18.3949 11.424C18.2962 11.2679 18.2743 11.1509 18.283 11.1495Z" fill="#EB996E"/>
<path d="M23.3557 17.3109C23.3583 17.3031 23.4388 17.3197 23.5489 17.3909C23.6581 17.4604 23.7935 17.5935 23.8702 17.7816C23.9466 17.9698 23.9426 18.1597 23.913 18.2856C23.8838 18.4134 23.8378 18.4814 23.8306 18.4778C23.8201 18.4734 23.8487 18.3998 23.8636 18.2772C23.8793 18.1556 23.8746 17.9811 23.8045 17.8084C23.7342 17.6358 23.6156 17.5075 23.5195 17.4315C23.423 17.3541 23.3512 17.3214 23.3557 17.3109Z" fill="#EB996E"/>
<path d="M36.6481 21.6199C36.6481 21.6199 36.7423 21.6353 37.0208 21.7282L39.3347 21.5769L40.3467 24.6093L39.5823 25.1044C39.6751 25.6304 40.0773 26.3421 39.9845 27.3013C39.8917 28.2605 39.706 28.8484 39.706 28.8484L39.4894 33.1804L38.097 35.5011H35.0027L31.6609 32.9021L31.2587 29.5603L29.5878 25.6613L28.3984 24.857L29.2784 20.5815C29.2784 20.5815 30.6088 20.8342 31.1659 21.4222L31.5991 21.8244C31.5991 21.8244 32.0322 21.6697 32.4035 21.8244L32.9295 21.7317C32.9295 21.7317 35.0675 23.375 36.1499 23.0611C37.0673 22.7948 36.6481 21.6199 36.6481 21.6199Z" fill="#DFF000"/>
<path d="M36.9524 25.7748C36.9566 25.7744 36.966 25.8258 36.9725 25.92C36.9792 26.0141 36.9792 26.1513 36.9597 26.3194C36.9233 26.6537 36.7865 27.1193 36.4735 27.5367C36.1605 27.9541 35.7516 28.2158 35.4409 28.3443C35.2849 28.41 35.1531 28.4485 35.061 28.4683C34.9688 28.4885 34.9169 28.4938 34.9161 28.4895C34.9127 28.4763 35.119 28.4391 35.4203 28.2986C35.7202 28.1607 36.1127 27.8996 36.4168 27.4943C36.7208 27.089 36.8617 26.6391 36.9101 26.3127C36.9608 25.9837 36.9388 25.7753 36.9524 25.7748Z" fill="#263238"/>
<g opacity="0.3">
<path d="M36.981 25.9688C36.8872 27.1228 36.1155 28.1177 35.0117 28.4673C35.6666 28.4695 36.425 28.3009 36.8402 27.7945C37.2554 27.2881 37.3516 26.5085 36.981 25.9688Z" fill="black"/>
</g>
<path d="M38.5851 23.0245C38.6031 23.0166 38.8329 23.4959 39.0986 24.095C39.3644 24.6942 39.5654 25.1864 39.5474 25.1943C39.5295 25.2021 39.2996 24.723 39.0339 24.1237C38.7682 23.5247 38.5671 23.0325 38.5851 23.0245Z" fill="#263238"/>
<path d="M36.7735 26.6985C36.7741 26.701 36.7518 26.7078 36.7089 26.7188C36.6579 26.7309 36.5959 26.7457 36.5208 26.7635C36.3574 26.8019 36.1189 26.8495 35.8231 26.9012C35.2317 27.0052 34.407 27.1121 33.4907 27.1545C32.5741 27.1957 31.743 27.1645 31.1445 27.1147C30.8451 27.0901 30.6035 27.0644 30.4371 27.0411C30.3608 27.0301 30.2976 27.0211 30.2458 27.0136C30.2021 27.0066 30.1794 27.0017 30.1797 26.9994C30.18 26.9969 30.2034 26.997 30.2474 26.9995C30.2996 27.0033 30.3632 27.0081 30.44 27.0136C30.607 27.0285 30.8489 27.0466 31.1479 27.0646C31.7459 27.1015 32.574 27.1248 33.4873 27.0837C34.4003 27.0414 35.2228 26.9428 35.815 26.8517C36.1111 26.8064 36.3504 26.7663 36.5154 26.7363C36.5914 26.7237 36.6542 26.7132 36.7059 26.7046C36.7497 26.6984 36.773 26.6961 36.7735 26.6985Z" fill="white"/>
<path d="M39.765 25.9221C39.7685 25.9301 39.623 26.0048 39.3774 26.1021C39.1321 26.1994 38.7849 26.3153 38.3918 26.4066C37.9985 26.4973 37.6356 26.5457 37.3725 26.5661C37.1091 26.5866 36.9456 26.5835 36.9453 26.5748C36.9448 26.564 37.107 26.5494 37.3673 26.5163C37.6278 26.4834 37.986 26.4276 38.3759 26.3376C38.7655 26.2472 39.1119 26.1399 39.3603 26.055C39.6086 25.9703 39.7608 25.9122 39.765 25.9221Z" fill="white"/>
<path d="M39.6382 29.2046C39.639 29.2069 39.6119 29.2188 39.5597 29.2393C39.5001 29.2618 39.4239 29.2906 39.3297 29.3261C39.2299 29.364 39.107 29.408 38.9617 29.4519C38.8169 29.4966 38.6533 29.5528 38.468 29.5994C38.2839 29.6502 38.0818 29.7044 37.862 29.7508C37.6437 29.8041 37.4071 29.8445 37.1586 29.8903C36.6601 29.9715 36.1076 30.0361 35.525 30.064C34.942 30.0878 34.3859 30.0725 33.882 30.0357C33.6304 30.0121 33.3912 29.9928 33.1689 29.9592C32.9459 29.9324 32.7397 29.8963 32.5519 29.8621C32.3633 29.8319 32.1953 29.7905 32.0471 29.7587C31.8986 29.7278 31.7722 29.6949 31.6694 29.6659C31.5726 29.6389 31.4941 29.617 31.4328 29.6C31.3789 29.5841 31.3509 29.5747 31.3516 29.5724C31.3523 29.5701 31.3814 29.5748 31.4364 29.5863C31.4986 29.6 31.578 29.6175 31.6761 29.6393C31.7797 29.664 31.9066 29.693 32.0555 29.7201C32.2042 29.7481 32.3721 29.7859 32.5606 29.8128C32.7484 29.8438 32.9541 29.8769 33.1766 29.901C33.3981 29.932 33.6366 29.9491 33.887 29.9707C34.3887 30.0036 34.942 30.017 35.522 29.9933C36.1016 29.9656 36.6514 29.9031 37.1482 29.826C37.3957 29.7822 37.6316 29.7441 37.8497 29.6936C38.0692 29.6499 38.271 29.5986 38.4553 29.5512C38.6406 29.5076 38.8046 29.4551 38.9502 29.4141C39.0961 29.374 39.22 29.3338 39.3209 29.3C39.4166 29.2696 39.4943 29.2452 39.5548 29.2258C39.6087 29.2098 39.6374 29.2023 39.6382 29.2046Z" fill="white"/>
<path d="M39.4536 32.3945C39.4541 32.3969 39.4272 32.4055 39.3754 32.4197C39.3158 32.435 39.2405 32.4543 39.1476 32.4783C39.0486 32.5038 38.927 32.5329 38.7845 32.5603C38.6421 32.5884 38.4807 32.6249 38.2999 32.6517C37.9399 32.7149 37.5074 32.7685 37.0255 32.8067C36.5432 32.8402 36.0112 32.8554 35.4534 32.8366C34.8956 32.8143 34.366 32.7601 33.8874 32.6914C33.4095 32.6178 32.982 32.5327 32.6278 32.4432C32.4495 32.4032 32.2912 32.3551 32.1512 32.3164C32.011 32.2788 31.892 32.2408 31.7952 32.208C31.7043 32.1774 31.6305 32.1526 31.5723 32.133C31.5215 32.115 31.4954 32.1045 31.4961 32.1022C31.4969 32.0999 31.5245 32.1059 31.5766 32.1194C31.6358 32.1357 31.7107 32.1562 31.8031 32.1817C31.9008 32.2102 32.0208 32.2442 32.1616 32.2782C32.302 32.313 32.4608 32.3576 32.6392 32.3944C32.9939 32.4773 33.4204 32.557 33.8968 32.6268C34.3737 32.6917 34.9009 32.7437 35.456 32.7659C36.0112 32.7845 36.5405 32.7714 37.0208 32.7417C37.5009 32.7072 37.9322 32.659 38.2919 32.6023C38.4726 32.5788 38.6341 32.5459 38.7767 32.5215C38.9197 32.498 39.0418 32.4728 39.1415 32.4515C39.2355 32.4328 39.3118 32.4179 39.372 32.4059C39.425 32.3961 39.4531 32.3922 39.4536 32.3945Z" fill="white"/>
<path d="M31.6571 24.9013C31.6591 24.9247 31.1594 24.9209 30.5901 25.1257C30.0185 25.3245 29.6326 25.6418 29.6194 25.6224C29.6141 25.616 29.7029 25.5288 29.8678 25.4139C30.0323 25.299 30.2767 25.1619 30.5665 25.0589C30.8564 24.9568 31.1326 24.9096 31.3327 24.8956C31.5333 24.8812 31.6572 24.8931 31.6571 24.9013Z" fill="white"/>
<path d="M32.8968 24.5419C32.9012 24.5609 32.7899 24.6034 32.648 24.6367C32.506 24.67 32.3874 24.6816 32.3829 24.6625C32.3785 24.6435 32.4898 24.601 32.6318 24.5677C32.7737 24.5344 32.8923 24.5228 32.8968 24.5419Z" fill="white"/>
<path d="M33.7134 23.9386C33.7119 23.9591 33.5654 23.9606 33.3933 24.0025C33.2208 24.0426 33.0894 24.1073 33.0788 24.0897C33.068 24.0746 33.1915 23.977 33.3769 23.9335C33.5618 23.8889 33.7161 23.9203 33.7134 23.9386Z" fill="white"/>
<path d="M38.7658 23.5871C38.7666 23.592 38.702 23.6066 38.5847 23.629C38.4673 23.6516 38.2969 23.6807 38.0858 23.7139C37.6638 23.7803 37.0787 23.8598 36.4303 23.9267C35.7816 23.9934 35.1925 24.0348 34.7658 24.0559C34.5524 24.0665 34.3797 24.0728 34.2601 24.0746C34.1407 24.0766 34.0745 24.0754 34.0742 24.0706C34.0739 24.0657 34.1396 24.0576 34.2586 24.0471C34.3914 24.0362 34.5604 24.0225 34.7625 24.006C35.1879 23.9723 35.7753 23.9229 36.4231 23.8564C37.0706 23.7895 37.6555 23.7181 38.0789 23.6644C38.28 23.6394 38.4484 23.6184 38.5806 23.602C38.699 23.5878 38.765 23.5824 38.7658 23.5871Z" fill="white"/>
<path d="M39.6966 22.905C39.6977 22.926 39.4569 22.9464 39.1753 23.0327C38.893 23.1167 38.6811 23.2328 38.6703 23.2148C38.6597 23.2001 38.8621 23.0522 39.1549 22.9649C39.4469 22.8757 39.6971 22.8869 39.6966 22.905Z" fill="white"/>
<path d="M31.9753 22.2164C31.9701 22.2264 31.8237 22.1561 31.5812 22.0586C31.3388 21.9608 30.9977 21.8414 30.6101 21.7503C30.2221 21.6599 29.8635 21.6157 29.6029 21.5957C29.3423 21.5755 29.18 21.5735 29.1797 21.5622C29.1796 21.5573 29.2201 21.5526 29.2937 21.5481C29.3672 21.543 29.4739 21.5418 29.6056 21.5456C29.8691 21.5528 30.2334 21.5897 30.6262 21.6812C31.0185 21.7734 31.3615 21.9021 31.6008 22.0125C31.7206 22.0676 31.8156 22.116 31.8793 22.1531C31.9433 22.1899 31.9775 22.212 31.9753 22.2164Z" fill="white"/>
<path d="M32.7159 22.1258C32.7177 22.1466 32.5659 22.169 32.4015 22.2524C32.2358 22.3335 32.1266 22.441 32.111 22.4272C32.0957 22.4168 32.1896 22.278 32.3698 22.189C32.5494 22.0987 32.7169 22.1074 32.7159 22.1258Z" fill="white"/>
<path d="M33.4693 22.1764C33.4719 22.1958 33.3658 22.2259 33.2325 22.2438C33.0991 22.2617 32.989 22.2604 32.9864 22.241C32.9838 22.2215 33.0897 22.1915 33.2232 22.1735C33.3564 22.1557 33.4667 22.1569 33.4693 22.1764Z" fill="white"/>
<path d="M33.7833 24.042C33.7724 24.0454 33.7239 23.901 33.6275 23.6761C33.5313 23.4511 33.3805 23.1479 33.1736 22.8378C32.966 22.528 32.7432 22.2728 32.572 22.0981C32.4009 21.923 32.286 21.8231 32.2933 21.8142C32.2983 21.8078 32.4249 21.8943 32.6071 22.0622C32.789 22.2296 33.0217 22.4838 33.2327 22.7983C33.4428 23.1133 33.589 23.4253 33.6741 23.6574C33.7595 23.8897 33.7911 24.0399 33.7833 24.042Z" fill="#263238"/>
<path d="M32.923 24.2034C32.9109 24.205 32.8891 24.0509 32.818 23.8122C32.7484 23.5732 32.6197 23.2523 32.4304 22.9227C32.2403 22.5931 32.0302 22.3186 31.867 22.1299C31.704 21.9408 31.5922 21.8329 31.6 21.8245C31.6033 21.8208 31.6345 21.8442 31.6885 21.8896C31.7428 21.9346 31.8172 22.0048 31.9041 22.0963C32.0787 22.2784 32.2986 22.5525 32.4919 22.8873C32.6843 23.2223 32.8082 23.5528 32.8664 23.7991C32.8966 23.9219 32.9139 24.023 32.9199 24.0934C32.9265 24.1638 32.9279 24.2028 32.923 24.2034Z" fill="#263238"/>
<g opacity="0.3">
<path d="M30.9212 25.4425C30.8537 25.5242 30.9238 25.6592 31.0248 25.6913C31.1259 25.7234 31.235 25.6847 31.3307 25.6394C31.9616 25.342 32.4324 24.7267 32.5544 24.0399C32.6065 24.2159 32.7361 24.3675 32.9019 24.4463C32.8093 23.8458 32.7167 23.2452 32.6242 22.6448C32.9094 22.9135 33.1947 23.1823 33.4799 23.451C33.5782 23.1853 33.3772 22.9097 33.1859 22.7008C32.9945 22.4919 32.7836 22.23 32.861 21.9573C32.8811 21.8865 32.9207 21.8185 32.9166 21.7448C32.9093 21.6116 32.7527 21.5258 32.6216 21.5501C32.4905 21.5745 32.3873 21.6755 32.3079 21.7826C32.0431 22.1392 31.9551 22.5958 31.9178 23.0385C31.8807 23.4812 31.8863 23.931 31.778 24.3618C31.6696 24.7925 31.4237 25.216 31.0227 25.407" fill="black"/>
</g>
<path d="M32.4021 32.6882C32.3996 32.6882 32.3973 32.654 32.395 32.589C32.392 32.5241 32.3928 32.4284 32.3855 32.3054C32.3765 32.0593 32.3515 31.7034 32.293 31.2672C32.1763 30.3963 31.9109 29.1987 31.3877 27.9609C31.127 27.3425 30.826 26.7756 30.5061 26.2906C30.1901 25.8026 29.8484 25.4025 29.5359 25.0945C29.2228 24.786 28.9327 24.5764 28.7252 24.4455C28.5183 24.3127 28.3947 24.2538 28.3985 24.2465C28.3996 24.2443 28.4308 24.2582 28.4891 24.2869C28.5472 24.3163 28.635 24.356 28.7396 24.4221C28.953 24.5467 29.2503 24.7519 29.5706 25.0584C29.8903 25.3644 30.239 25.7649 30.5604 26.2545C30.8857 26.7413 31.1905 27.3113 31.4527 27.9333C31.9789 29.1785 32.2381 30.3846 32.3425 31.2608C32.3947 31.6998 32.4123 32.0577 32.4128 32.3048C32.416 32.4283 32.4107 32.5243 32.4092 32.5891C32.4069 32.6542 32.4045 32.6882 32.4021 32.6882Z" fill="#263238"/>
<path d="M33.1202 20.8159C33.1411 20.3498 32.7335 19.9439 32.7583 19.4779C32.7722 19.218 32.9193 18.9864 32.9972 18.7381C33.3009 17.7702 32.5426 16.6376 33.0257 15.7455L30.8717 16.2704C31.1765 16.8651 31.1423 17.5738 31.0401 18.2342C30.9378 18.8946 30.7741 19.5583 30.8448 20.2228C30.9003 20.7438 31.0975 21.2379 31.2207 21.7472C31.5223 22.9933 31.3658 24.345 30.7871 25.4891C31.5513 25.3152 32.1594 24.6023 32.2106 23.8203C32.2449 23.2987 32.0595 22.7506 32.2532 22.2651C32.4649 21.7342 33.0945 21.387 33.1202 20.8159Z" fill="#263238"/>
<path d="M31.5909 32.5126L30.8243 34.5519C30.8243 34.5519 25.127 42.5003 25.2926 43.1627C25.4583 43.8251 28.5631 46.3918 29.4739 45.9778C30.3847 45.5638 32.7445 43.8664 33.5311 42.1691C34.3177 40.4717 36.5531 35.7109 36.5531 35.7109L37.2569 34.3861L36.4703 33.848L31.5909 32.5126Z" fill="#133748"/>
<path d="M39.5423 33.0495C40.8451 37.0495 41.3855 41.2964 41.1262 45.4951C40.648 45.5524 40.1698 45.6095 39.6917 45.6668C39.2954 43.7247 39.3442 41.7233 39.1872 39.7475C39.0303 37.7717 38.6363 35.7405 37.4844 34.1276C38.1747 33.7571 38.8649 33.3866 39.5552 33.0162" fill="#133748"/>
<path d="M33.2172 35.5733C33.2147 35.582 33.0761 35.5542 32.8568 35.4904C32.6375 35.4268 32.3385 35.3244 32.0179 35.1867C31.6975 35.0488 31.4174 34.9022 31.2203 34.7869C31.0231 34.6717 30.9075 34.5902 30.9123 34.5824C30.9177 34.5734 31.0421 34.6395 31.2442 34.7428C31.4465 34.8463 31.7278 34.9846 32.0458 35.1216C32.3639 35.2581 32.6578 35.3672 32.872 35.4427C33.0863 35.5183 33.2199 35.5632 33.2172 35.5733Z" fill="#263238"/>
<g opacity="0.2">
<path d="M29.5227 41.6247L29.3848 41.6348C30.3267 42.6076 31.9032 42.897 33.1293 42.3221C33.5469 42.1263 33.9617 41.7641 33.9431 41.3033C32.5338 41.8031 30.9894 41.9155 29.5227 41.6247Z" fill="black"/>
</g>
<path d="M36.6386 34.3917C36.1062 34.2939 35.0834 34.5727 34.7093 34.964C34.3352 35.3552 34.1104 35.864 33.9261 36.3731C33.5264 37.4763 33.2421 38.6982 32.3749 39.4887C31.559 40.2323 30.3995 40.4317 29.3083 40.5994C29.2787 41.0025 29.2834 41.4824 29.615 41.7135C29.7131 41.7818 29.8292 41.8184 29.9443 41.8502C30.2684 41.9397 30.6009 41.9986 30.936 42.026C32.4892 42.1536 34.1348 41.5283 35.0464 40.2642C36.1997 38.6652 36.2908 36.7441 36.9431 34.8837" fill="#133748"/>
<path d="M36.9431 34.8839C36.9442 34.8843 36.9389 34.9041 36.9273 34.9426C36.9145 34.984 36.897 35.0404 36.8746 35.1126C36.8264 35.2614 36.7614 35.4829 36.6844 35.7699C36.606 36.0565 36.5204 36.4099 36.4209 36.8204C36.3205 37.2305 36.2087 37.6991 36.0516 38.2082C35.8943 38.7163 35.6901 39.2685 35.3722 39.8114C35.2167 40.084 35.0319 40.3538 34.8084 40.6046C34.5846 40.8544 34.3229 41.084 34.0281 41.2803C33.4378 41.6719 32.7245 41.9394 31.9603 42.0358C31.5784 42.0851 31.184 42.0871 30.7884 42.0475C30.5908 42.026 30.3929 41.9935 30.1961 41.9496C30.0977 41.9278 29.9998 41.9028 29.902 41.8753C29.8042 41.8473 29.704 41.8136 29.6134 41.7554C29.5205 41.6938 29.4426 41.6099 29.3906 41.5132C29.3381 41.4169 29.3071 41.3124 29.2883 41.2087C29.2516 41.0002 29.2594 40.7937 29.2732 40.5971L29.2751 40.5691L29.3029 40.5649C30.0324 40.4527 30.7461 40.3316 31.3819 40.0652C31.6983 39.9322 31.9947 39.766 32.2463 39.5546C32.4993 39.3452 32.7091 39.098 32.8804 38.8357C33.2232 38.3086 33.4233 37.7395 33.607 37.2142C33.7898 36.6872 33.945 36.1896 34.1516 35.7611C34.2538 35.5467 34.3703 35.3516 34.4986 35.1802C34.5635 35.0951 34.6311 35.016 34.7015 34.9437C34.7749 34.8726 34.8535 34.8129 34.9345 34.7646C35.2596 34.5713 35.5748 34.4829 35.8305 34.4272C36.0877 34.372 36.2926 34.3616 36.4302 34.3661C36.5683 34.3714 36.6383 34.3917 36.6383 34.3917C36.6376 34.3963 36.5669 34.3804 36.4301 34.3794C36.2936 34.3793 36.0905 34.3937 35.8362 34.4523C35.5836 34.5114 35.2711 34.6036 34.9545 34.7961C34.8755 34.8441 34.7999 34.903 34.7304 34.9714C34.6621 35.0428 34.596 35.1213 34.533 35.2055C34.4081 35.3751 34.2946 35.5685 34.1947 35.7812C33.9931 36.2065 33.8408 36.7034 33.6603 37.232C33.4786 37.759 33.2799 38.3328 32.9333 38.8697C32.76 39.1367 32.5465 39.3901 32.2882 39.605C32.0313 39.8217 31.7291 39.9917 31.4082 40.1275C30.7629 40.3991 30.0437 40.5213 29.3135 40.6342L29.3433 40.602C29.3295 40.7962 29.3227 40.9979 29.3577 41.1958C29.3905 41.3919 29.4811 41.5874 29.6516 41.6956C29.8149 41.7961 30.02 41.8321 30.2114 41.8802C30.4056 41.9236 30.6009 41.9559 30.7959 41.9772C31.1862 42.0165 31.5746 42.0149 31.9515 41.9667C32.7053 41.8726 33.4094 41.6099 33.9918 41.2258C34.2827 41.0331 34.5409 40.8079 34.7619 40.5627C34.9823 40.3172 35.1661 40.051 35.3212 39.7816C35.6383 39.2455 35.8438 38.6981 36.0036 38.193C36.163 37.687 36.2781 37.2199 36.3822 36.8107C36.4855 36.4012 36.5751 36.0483 36.6576 35.7624C36.7388 35.4761 36.8082 35.2557 36.8608 35.1081C36.8861 35.0367 36.9058 34.981 36.9204 34.9402C36.9343 34.9025 36.9419 34.8834 36.9431 34.8839Z" fill="#263238"/>
<path d="M30.524 41.9515C30.5021 41.9451 30.6729 41.6077 30.6228 41.1646C30.5809 40.7206 30.3444 40.4254 30.3645 40.4147C30.3705 40.4097 30.4381 40.474 30.5146 40.6031C30.5913 40.7312 30.669 40.9284 30.6932 41.1574C30.7165 41.3864 30.681 41.5953 30.6323 41.7365C30.5839 41.8783 30.5308 41.9553 30.524 41.9515Z" fill="#263238"/>
<path d="M30.564 40.9599C30.5654 40.9795 30.2927 41.0137 29.9553 41.0362C29.6177 41.0589 29.3432 41.0614 29.3418 41.0419C29.3404 41.0225 29.613 40.9882 29.9505 40.9656C30.2881 40.9429 30.5627 40.9404 30.564 40.9599Z" fill="#263238"/>
<path d="M30.6778 41.404C30.6782 41.4236 30.3948 41.4453 30.0447 41.4527C29.6947 41.46 29.4106 41.4501 29.4102 41.4305C29.4097 41.4109 29.6932 41.3892 30.0432 41.3818C30.3933 41.3746 30.6774 41.3844 30.6778 41.404Z" fill="#263238"/>
<path d="M37.9464 34.7373C38.9003 35.5985 39.2569 36.9636 39.222 38.2483C39.187 39.5329 38.8137 40.7801 38.5268 42.0328C38.2398 43.2854 38.0385 44.6002 38.347 45.8477C37.9392 45.9062 37.5316 45.9645 37.1239 46.023C36.1254 44.9659 35.617 43.4636 35.7685 42.0174C35.8939 40.8196 36.4379 39.7133 36.828 38.5739C37.218 37.4345 37.4492 36.1493 36.9577 35.0498" fill="#133748"/>
<path d="M36.9578 35.0495C36.9589 35.0491 36.9674 35.0672 36.9831 35.1029C36.9995 35.1418 37.022 35.1951 37.0507 35.2633C37.1003 35.4077 37.1724 35.6235 37.2141 35.913C37.2568 36.2015 37.268 36.5614 37.2254 36.9747C37.1829 37.3879 37.0824 37.8526 36.9265 38.3523C36.7696 38.8518 36.5567 39.3844 36.3432 39.961C36.1328 40.5374 35.916 41.1628 35.8223 41.848C35.7278 42.5308 35.7776 43.2706 35.9971 43.9915C36.215 44.7113 36.6004 45.4138 37.1497 45.9983L37.1189 45.9876C37.3095 45.9602 37.514 45.9309 37.7199 45.9013C37.933 45.8709 38.1448 45.8405 38.342 45.8123L38.3127 45.8558C38.1192 45.0645 38.1294 44.2616 38.2223 43.5098C38.3147 42.7552 38.4874 42.0441 38.6511 41.371C38.8162 40.698 38.9728 40.0596 39.0719 39.4544C39.1723 38.8499 39.2155 38.2789 39.1916 37.7604C39.1437 36.7193 38.8236 35.9145 38.5123 35.4311C38.3604 35.1845 38.2079 35.0181 38.1079 34.9038C38.0563 34.8515 38.0159 34.8107 37.9863 34.7808C37.9591 34.7527 37.9457 34.7379 37.9465 34.7371C37.9473 34.7363 37.9624 34.7493 37.9912 34.7757C38.022 34.8046 38.0641 34.8439 38.1181 34.8943C38.2216 35.006 38.3784 35.1705 38.535 35.4167C38.8557 35.8992 39.186 36.7088 39.2405 37.7579C39.2679 38.2808 39.2271 38.8559 39.1287 39.4638C39.0316 40.0722 38.8767 40.7129 38.7135 41.3863C38.5517 42.0596 38.3812 42.7687 38.2906 43.5182C38.1993 44.2653 38.1905 45.0594 38.3814 45.8389L38.3907 45.8769L38.3521 45.8824C38.1549 45.9107 37.9431 45.941 37.73 45.9716C37.5241 46.0012 37.3195 46.0304 37.129 46.0577L37.1108 46.0603L37.0983 46.047C36.5409 45.4536 36.151 44.7411 35.9314 44.0115C35.7101 43.2809 35.6612 42.5308 35.7588 41.8393C35.8556 41.1461 36.0761 40.5178 36.2893 39.941C36.5057 39.3641 36.7209 38.8336 36.88 38.3376C37.038 37.8414 37.1414 37.3804 37.1872 36.9706C37.233 36.5609 37.226 36.2039 37.1878 35.9168C37.1504 35.629 37.083 35.4134 37.0377 35.268C37.0118 35.199 36.9915 35.1451 36.9768 35.1057C36.9631 35.0691 36.9578 35.0495 36.9578 35.0495Z" fill="#263238"/>
<path d="M38.147 44.863C38.1439 44.8853 37.7609 44.8128 37.2929 44.8779C36.8242 44.9383 36.4738 45.1091 36.465 45.0883C36.461 45.0806 36.5435 45.0278 36.6888 44.9666C36.8339 44.9053 37.0441 44.8401 37.2834 44.8078C37.5228 44.7759 37.7427 44.7836 37.8988 44.8045C38.0554 44.8253 38.1488 44.8546 38.147 44.863Z" fill="#263238"/>
<path d="M37.4348 45.9905C37.4174 45.9994 37.2889 45.7826 37.1478 45.5062C37.0067 45.2297 36.9064 44.9985 36.9238 44.9897C36.9412 44.9809 37.0698 45.1976 37.2109 45.474C37.352 45.7505 37.4522 45.9817 37.4348 45.9905Z" fill="#263238"/>
<path d="M38.0744 45.8997C38.0564 45.9074 37.9382 45.6743 37.8105 45.3791C37.6827 45.0837 37.5937 44.8381 37.6117 44.8303C37.6296 44.8226 37.7477 45.0557 37.8755 45.3511C38.0034 45.6463 38.0923 45.8919 38.0744 45.8997Z" fill="#263238"/>
<path d="M36.3207 34.3376C36.3123 34.3403 36.2923 34.3109 36.2822 34.2557C36.2719 34.2009 36.2765 34.1204 36.3106 34.041C36.345 33.9617 36.4005 33.9032 36.4475 33.8731C36.4946 33.8425 36.5296 33.837 36.5334 33.845C36.5429 33.8629 36.433 33.9304 36.3755 34.0691C36.3142 34.2058 36.3403 34.3323 36.3207 34.3376Z" fill="#263238"/>
<path d="M37.9106 34.0394C37.7453 33.7798 37.3545 33.6922 37.049 33.6556C36.6746 33.6233 36.3128 33.9422 36.2767 34.3163C36.2403 34.6903 36.5155 35.0631 36.8783 35.1609C37.2412 35.2585 37.653 35.088 37.8607 34.7748C38.0041 34.5583 38.0501 34.2587 37.9106 34.0394Z" fill="#455A64"/>
<path d="M37.2241 33.8005C37.2285 33.7948 37.3106 33.8533 37.3868 33.9928C37.4629 34.1289 37.5223 34.3567 37.4589 34.5961C37.3942 34.8352 37.2287 35.0027 37.0947 35.0824C36.9589 35.1651 36.8586 35.1748 36.8575 35.1676C36.8537 35.156 36.9462 35.1291 37.0667 35.0409C37.1862 34.9553 37.3315 34.7953 37.3904 34.5777C37.4482 34.3599 37.4024 34.1488 37.3417 34.0148C37.2816 33.8781 37.2149 33.8085 37.2241 33.8005Z" fill="#263238"/>
<path d="M37.8335 33.9417C37.8398 33.9367 37.8869 33.9792 37.932 34.0699C37.9772 34.1598 38.0117 34.3009 37.9956 34.4558C37.9789 34.6107 37.9156 34.7414 37.8525 34.8197C37.7894 34.8991 37.7345 34.9308 37.7295 34.9246C37.7217 34.9161 37.763 34.8721 37.8112 34.7914C37.8597 34.7112 37.9097 34.59 37.925 34.4483C37.9396 34.3066 37.916 34.1776 37.8854 34.089C37.8555 34 37.8242 33.9483 37.8335 33.9417Z" fill="#263238"/>
<g opacity="0.2">
<path d="M37.9275 34.7355C37.685 35.0155 37.3677 35.1361 36.998 35.159C37.0697 35.3249 37.2983 35.4799 37.4788 35.4915C37.6591 35.5031 37.8425 35.4064 37.9347 35.2509C38.027 35.0955 38.0242 34.8883 37.9275 34.7355Z" fill="black"/>
</g>
<g opacity="0.2">
<path d="M33.5733 35.9338C33.4476 35.7786 33.2503 35.7041 33.0624 35.6364C32.3539 35.3806 31.5896 34.9428 30.8809 34.687C31.5273 35.2603 32.2273 35.9365 32.9689 36.3799C33.148 36.4869 33.382 36.5888 33.5518 36.4676C33.7143 36.3516 33.6989 36.089 33.5733 35.9338Z" fill="black"/>
</g>
<g opacity="0.2">
<path d="M39.4425 37.208C39.3319 36.357 38.9386 35.5172 38.252 35.0024C38.6211 35.6748 38.9946 36.3588 39.1593 37.108C39.3404 37.9309 39.2074 38.457 39.1255 39.2957L39.205 39.7093C39.4365 38.8829 39.5529 38.059 39.4425 37.208Z" fill="black"/>
</g>
<path d="M33.191 36.5227C33.1884 36.5268 33.1494 36.5074 33.0809 36.4687C33.0123 36.4303 32.9154 36.3708 32.7979 36.2937C32.5628 36.1398 32.2481 35.9109 31.923 35.6307C31.5983 35.3498 31.3259 35.0717 31.1395 34.8614C31.0462 34.7564 30.9732 34.6693 30.9252 34.607C30.8769 34.545 30.852 34.5092 30.8558 34.5061C30.864 34.4991 30.9811 34.627 31.1761 34.8274C31.371 35.0279 31.6468 35.2983 31.9693 35.5772C32.292 35.8556 32.5996 36.0891 32.8264 36.2526C33.0531 36.4163 33.1967 36.5136 33.191 36.5227Z" fill="#263238"/>
<path d="M18.2369 58.5299C18.5515 58.6664 18.7828 58.9571 18.8988 59.2797C19.015 59.6023 19.0253 59.9548 18.9868 60.2954C18.9122 60.9546 18.5376 61.6199 18.1343 62.1467C17.5792 61.6622 17.4515 60.8171 17.4136 60.3844C17.3539 59.7004 17.6611 58.4279 18.2369 58.5299Z" fill="#FF725E"/>
<path d="M18.7808 63.2346C18.692 62.8621 18.8471 62.4535 19.1329 62.1986C19.419 61.9439 19.8184 61.836 20.2003 61.8653C20.3768 61.8787 20.5676 61.9303 20.6688 62.0757C20.7633 62.2115 20.7527 62.4012 20.676 62.548C20.5993 62.6947 20.4666 62.8043 20.3264 62.8923C19.8456 63.1941 19.3247 63.3978 18.7808 63.2346Z" fill="#FF725E"/>
<path d="M18.0691 65.2557C18.0657 65.2549 18.0735 65.2069 18.0889 65.1204C18.1063 65.0252 18.1289 64.9021 18.1561 64.7544C18.2174 64.4486 18.2961 64.0104 18.5339 63.585C18.7683 63.1607 19.0966 62.8483 19.3731 62.6932C19.5103 62.6138 19.6304 62.5665 19.7153 62.5419C19.7572 62.5277 19.7913 62.5224 19.8139 62.5168C19.8366 62.5121 19.8487 62.5103 19.8491 62.5119C19.8531 62.5227 19.6568 62.558 19.3907 62.7223C19.1238 62.882 18.8065 63.1913 18.5759 63.6084C18.3428 64.0249 18.2591 64.457 18.1894 64.7612C18.1558 64.9147 18.1284 65.039 18.1072 65.1244C18.0861 65.2096 18.0723 65.2564 18.0691 65.2557Z" fill="#263238"/>
<path d="M18.0883 59.5196C18.0899 59.5196 18.0922 59.5399 18.0951 59.5788C18.0977 59.6227 18.1011 59.679 18.1052 59.7486C18.113 59.8962 18.1217 60.1098 18.1302 60.3739C18.1473 60.9022 18.1606 61.6321 18.1574 62.4386C18.1537 63.2452 18.134 63.9751 18.1124 64.5032C18.1016 64.7671 18.091 64.9808 18.0819 65.1282C18.0771 65.1979 18.0733 65.2542 18.0703 65.298C18.0672 65.3367 18.0648 65.3571 18.063 65.357C18.0614 65.357 18.0605 65.3364 18.0605 65.2976C18.0612 65.2536 18.062 65.1972 18.0631 65.1274C18.0668 64.9737 18.072 64.7616 18.0784 64.5021C18.0913 63.974 18.1057 63.2445 18.1094 62.4384C18.1128 61.6326 18.1047 60.903 18.0963 60.3749C18.0922 60.1153 18.089 59.9031 18.0865 59.7494C18.0861 59.6797 18.0857 59.6232 18.0854 59.5793C18.0857 59.5401 18.0867 59.5196 18.0883 59.5196Z" fill="#263238"/>
<path d="M17.8197 63.6359C17.6934 62.8384 17.1559 62.1173 16.4276 61.7685C16.2421 61.6797 15.9999 61.6216 15.8474 61.7595C15.6947 61.8977 15.729 62.1457 15.8036 62.3376C16.1145 63.1362 16.9496 63.7001 17.8065 63.69" fill="#FF725E"/>
<path d="M16.5177 62.3936C16.5192 62.3906 16.5609 62.409 16.6355 62.445C16.6729 62.4627 16.7187 62.4847 16.7686 62.516C16.8185 62.5472 16.8788 62.5776 16.9381 62.6222C16.9986 62.6651 17.0662 62.7105 17.1319 62.7682C17.2008 62.8219 17.268 62.8869 17.3382 62.9556C17.4749 63.0965 17.6126 63.2647 17.7301 63.4592C17.8459 63.6548 17.9298 63.8555 17.9884 64.043C18.0148 64.1378 18.0402 64.2277 18.0537 64.3142C18.0724 64.3996 18.0794 64.4808 18.087 64.5547C18.0972 64.6282 18.0938 64.6958 18.0962 64.7546C18.099 64.8135 18.0951 64.8641 18.0917 64.9054C18.0858 64.9881 18.0807 65.0334 18.0775 65.0331C18.0666 65.0327 18.0855 64.8498 18.0531 64.5583C18.0435 64.4857 18.0348 64.4059 18.0145 64.3221C17.9997 64.2372 17.9732 64.1491 17.9461 64.0564C17.8861 63.8726 17.8026 63.6762 17.6889 63.4841C17.5735 63.293 17.4392 63.1269 17.3065 62.9866C17.2382 62.918 17.1732 62.853 17.1063 62.7988C17.0426 62.7406 16.9771 62.6942 16.9185 62.6501C16.6799 62.479 16.5128 62.403 16.5177 62.3936Z" fill="#263238"/>
<path d="M13.2794 38.5866C13.2201 38.6851 13.1724 38.7905 13.1358 38.9005C13.1035 38.6927 13.0394 38.4967 12.9315 38.3123C12.7663 38.0294 12.5198 37.7847 12.269 37.5501C12.2616 37.5431 12.254 37.5361 12.2465 37.5291C12.117 37.9354 12.0645 38.34 12.1468 38.7041C12.1639 38.78 12.1874 38.8541 12.2159 38.9266C12.1472 38.9002 12.0778 38.8757 12.0077 38.8533C11.5356 38.7027 10.7463 38.6689 10.3633 38.6472C10.724 39.1611 11.1737 39.5775 11.6951 39.8786C11.7274 39.8972 11.76 39.915 11.7928 39.9326C11.6993 39.9655 11.6086 40.0071 11.5204 40.0585C11.2375 40.2238 10.9928 40.47 10.7581 40.7206C10.751 40.728 10.7441 40.7357 10.737 40.7431C11.1434 40.8722 11.5478 40.9246 11.9119 40.8423C12.0789 40.8045 12.2383 40.7382 12.3867 40.6478C12.3508 40.7263 12.3211 40.8072 12.2988 40.8902C12.2149 41.2024 12.2325 41.5459 12.3092 41.8891C12.3154 41.883 12.3215 41.8767 12.3278 41.8706C12.5342 41.6643 12.738 41.4495 12.8813 41.2043C13.0233 40.9613 13.0898 40.6981 13.111 40.4129C13.1242 40.2353 13.1044 40.1596 13.0957 39.8687V39.8685C13.0957 39.8685 13.0957 39.8685 13.0957 39.8687C13.3112 39.6732 13.3796 39.6351 13.4985 39.5024C13.6893 39.2893 13.833 39.0591 13.9096 38.7883C13.987 38.5151 14.0005 38.2193 14.006 37.9275C14.0062 37.9188 14.0063 37.91 14.0064 37.9013C13.7059 38.0841 13.4463 38.3096 13.2794 38.5866Z" fill="#FF725E"/>
<path d="M14.1663 40.2192C14.1605 40.2356 13.5663 40.038 12.8393 39.7779C12.1119 39.5178 11.5274 39.2938 11.5332 39.2773C11.5391 39.261 12.1333 39.4585 12.8605 39.7186C13.5874 39.9788 14.1722 40.2028 14.1663 40.2192Z" fill="#263238"/>
<path d="M12.7714 39.7245C12.7802 39.7395 12.6743 39.8186 12.5347 39.9013C12.3952 39.984 12.275 40.0389 12.2661 40.024C12.2573 40.009 12.3632 39.9299 12.5028 39.8472C12.6422 39.7645 12.7624 39.7095 12.7714 39.7245Z" fill="#263238"/>
<path d="M12.4834 39.6482C12.4658 39.6502 12.4411 39.5569 12.4069 39.4449C12.3733 39.3325 12.3419 39.2414 12.3578 39.2333C12.3727 39.2252 12.4315 39.3082 12.4671 39.4267C12.5032 39.5448 12.5003 39.6464 12.4834 39.6482Z" fill="#263238"/>
<path d="M51.5349 22.8999C51.5642 22.9939 51.6045 23.0845 51.6542 23.1706C51.5028 23.0731 51.3407 23.0026 51.1613 22.9666C50.8862 22.9114 50.5892 22.9299 50.2962 22.9569C50.2874 22.9577 50.2787 22.9586 50.2698 22.9594C50.4564 23.2735 50.6856 23.5375 50.9655 23.692C51.0238 23.7242 51.0847 23.7513 51.1473 23.7744C51.0914 23.8034 51.0362 23.8339 50.9819 23.8661C50.6168 24.0827 50.1459 24.5688 49.9141 24.8018C50.4483 24.8632 50.9709 24.8122 51.4605 24.6497C51.4907 24.6397 51.5208 24.6289 51.5507 24.6179C51.5186 24.6965 51.4936 24.7782 51.4763 24.8641C51.4211 25.1392 51.4394 25.4361 51.4664 25.729C51.4672 25.7377 51.468 25.7466 51.4688 25.7554C51.7827 25.5687 52.0465 25.3395 52.201 25.0595C52.2719 24.931 52.3202 24.7913 52.3468 24.6448C52.3766 24.7126 52.4116 24.7776 52.452 24.839C52.6041 25.0705 52.8341 25.2548 53.0975 25.401C53.0971 25.3935 53.0967 25.386 53.0963 25.3785C53.0818 25.129 53.0602 24.8763 52.9848 24.645C52.91 24.4157 52.7793 24.2234 52.6088 24.0474C52.5026 23.9378 52.4427 23.9074 52.2515 23.7475C52.249 23.4982 52.2636 23.4328 52.2463 23.281C52.2186 23.0376 52.1528 22.8145 52.023 22.6112C51.892 22.4061 51.7103 22.2292 51.5266 22.0596C51.5212 22.0546 51.5156 22.0494 51.51 22.0444C51.4559 22.3407 51.4525 22.6353 51.5349 22.8999Z" fill="#FF725E"/>
<path d="M53.0863 23.2609C53.0934 23.2739 52.6287 23.542 52.0484 23.8595C51.4679 24.1772 50.9917 24.4241 50.9845 24.411C50.9772 24.398 51.442 24.13 52.0224 23.8124C52.6029 23.4947 53.0791 23.2478 53.0863 23.2609Z" fill="#263238"/>
<path d="M51.9738 23.8726C51.9883 23.8755 51.9788 23.9884 51.9523 24.1248C51.9259 24.2612 51.8926 24.3694 51.8779 24.3667C51.8633 24.3638 51.8729 24.251 51.8994 24.1146C51.9259 23.9782 51.9592 23.8698 51.9738 23.8726Z" fill="#263238"/>
<path d="M51.7611 24.0141C51.7524 24.0266 51.6786 23.9892 51.5874 23.9473C51.4963 23.905 51.4202 23.873 51.424 23.8583C51.4274 23.8442 51.5139 23.8538 51.61 23.8985C51.7062 23.9427 51.7695 24.0024 51.7611 24.0141Z" fill="#263238"/>
<path d="M45.6291 32.6672C45.6291 32.6672 47.5109 32.6559 47.4039 30.6583C47.4039 30.6583 45.4475 30.8655 45.6291 32.6672Z" fill="#455A64"/>
<path d="M47.7725 30.1947C47.7862 30.2067 47.4417 30.6234 47.0031 31.1251C46.5644 31.6271 46.1977 32.0241 46.184 32.0121C46.1703 32.0001 46.5147 31.5836 46.9535 31.0817C47.3919 30.5799 47.7587 30.1828 47.7725 30.1947Z" fill="#263238"/>
<path d="M46.1505 31.5882C46.1471 31.5702 46.2502 31.5353 46.3809 31.51C46.5117 31.4847 46.6204 31.4788 46.6239 31.4968C46.6273 31.5147 46.5242 31.5497 46.3934 31.575C46.2627 31.6002 46.154 31.6061 46.1505 31.5882Z" fill="#263238"/>
<path d="M47.0402 31.0183C47.0584 31.0193 47.0668 31.136 47.0591 31.2789C47.0513 31.4218 47.0302 31.537 47.012 31.5359C46.9938 31.535 46.9854 31.4183 46.9931 31.2752C47.0009 31.1324 47.0219 31.0174 47.0402 31.0183Z" fill="#263238"/>
<path d="M26.3105 33.3187C26.3105 33.3187 27.5898 34.6989 28.9906 33.2709C28.9906 33.2709 27.5166 31.9682 26.3105 33.3187Z" fill="#455A64"/>
<path d="M29.583 33.2302C29.5834 33.2485 29.0435 33.2758 28.3773 33.2912C27.7108 33.3065 27.1705 33.3042 27.1699 33.286C27.1695 33.2678 27.7093 33.2404 28.3757 33.2251C29.042 33.2097 29.5826 33.212 29.583 33.2302Z" fill="#263238"/>
<path d="M27.458 32.9741C27.4689 32.9595 27.5644 33.012 27.6713 33.0912C27.7782 33.1707 27.8561 33.2468 27.8451 33.2615C27.8342 33.2762 27.7388 33.2237 27.6319 33.1443C27.525 33.065 27.4472 32.9887 27.458 32.9741Z" fill="#263238"/>
<path d="M28.48 33.2465C28.4916 33.2606 28.4113 33.3456 28.3006 33.4364C28.1899 33.5273 28.0908 33.5894 28.0792 33.5753C28.0677 33.5612 28.148 33.4762 28.2586 33.3853C28.3693 33.2945 28.4685 33.2323 28.48 33.2465Z" fill="#263238"/>
<path d="M45.8822 42.2868C45.8822 42.2868 47.1251 41.6725 46.4101 40.3837C46.4101 40.3837 45.181 41.1519 45.8822 42.2868Z" fill="#455A64"/>
<path d="M46.5045 39.9575C46.5174 39.961 46.4236 40.3481 46.2949 40.8219C46.1661 41.2959 46.0512 41.6771 46.0383 41.6735C46.0254 41.67 46.1192 41.2831 46.248 40.8091C46.3767 40.3353 46.4916 39.9539 46.5045 39.9575Z" fill="#263238"/>
<path d="M45.8797 41.4041C45.8716 41.3934 45.9286 41.3369 46.0071 41.278C46.0856 41.2192 46.1557 41.1801 46.1638 41.1909C46.1718 41.2016 46.1148 41.258 46.0363 41.3169C45.958 41.3758 45.8878 41.4149 45.8797 41.4041Z" fill="#263238"/>
<path d="M46.2865 40.7393C46.2989 40.7342 46.3422 40.8087 46.3831 40.9059C46.424 41.0032 46.4472 41.0861 46.4348 41.0914C46.4224 41.0966 46.3792 41.0221 46.3382 40.9248C46.2973 40.8276 46.2742 40.7445 46.2865 40.7393Z" fill="#263238"/>
<path d="M13.1115 28.6188C13.1115 28.6188 12.9285 30.1618 14.5761 30.2781C14.5761 30.2781 14.6063 28.6541 13.1115 28.6188Z" fill="#455A64"/>
<path d="M14.9188 30.6281C14.9075 30.6382 14.6014 30.3133 14.2351 29.9027C13.8687 29.492 13.5808 29.1509 13.5921 29.1409C13.6034 29.1308 13.9094 29.4556 14.2758 29.8663C14.6422 30.277 14.9301 30.6181 14.9188 30.6281Z" fill="#263238"/>
<path d="M13.9428 29.1557C13.9579 29.1548 13.976 29.2429 13.9833 29.3525C13.9907 29.4623 13.9844 29.552 13.9693 29.553C13.9542 29.5539 13.9361 29.4659 13.9288 29.3562C13.9216 29.2464 13.9278 29.1567 13.9428 29.1557Z" fill="#263238"/>
<path d="M14.3177 29.944C14.315 29.9588 14.2186 29.9537 14.1023 29.9328C13.9859 29.9119 13.8938 29.8829 13.8965 29.8679C13.8993 29.8531 13.9957 29.858 14.1121 29.8791C14.2282 29.9 14.3205 29.929 14.3177 29.944Z" fill="#263238"/>
<path d="M18.0801 48.946C18.0801 48.946 19.8633 50.2468 21.1544 48.2878C21.1544 48.2878 19.1644 47.1199 18.0801 48.946Z" fill="#455A64"/>
<path d="M21.8256 48.1078C21.8283 48.1202 21.2115 48.2663 20.448 48.434C19.6844 48.6016 19.0631 48.7276 19.0606 48.7151C19.0578 48.7027 19.6745 48.5566 20.4382 48.3888C21.2016 48.2213 21.8229 48.0955 21.8256 48.1078Z" fill="#263238"/>
<path d="M19.3225 48.2912C19.3279 48.2796 19.4466 48.3249 19.5875 48.3922C19.7284 48.4595 19.8383 48.5235 19.8327 48.5349C19.8273 48.5464 19.7086 48.5012 19.5677 48.4338C19.4268 48.3665 19.317 48.3026 19.3225 48.2912Z" fill="#263238"/>
<path d="M20.56 48.3744C20.5698 48.3825 20.4911 48.494 20.3842 48.6235C20.2773 48.753 20.1826 48.8513 20.1727 48.8433C20.1629 48.8351 20.2416 48.7236 20.3485 48.5941C20.4556 48.4647 20.5502 48.3663 20.56 48.3744Z" fill="#263238"/>
<path d="M19.9531 37.994C19.9531 37.994 20.2635 39.4226 21.7645 39.0208C21.7645 39.0208 21.2934 37.5673 19.9531 37.994Z" fill="#FF725E"/>
<path d="M22.177 39.2274C22.1729 39.2347 21.8033 39.0356 21.3516 38.7827C20.8998 38.5297 20.537 38.3186 20.541 38.3113C20.5451 38.3039 20.9146 38.5029 21.3666 38.756C21.8182 39.009 22.1812 39.22 22.177 39.2274Z" fill="#263238"/>
<path d="M20.8568 38.2168C20.8646 38.2135 20.9035 38.2882 20.9436 38.3834C20.9837 38.4787 21.01 38.5587 21.0022 38.5619C20.9945 38.5652 20.9556 38.4905 20.9154 38.3952C20.8752 38.3 20.8491 38.22 20.8568 38.2168Z" fill="#263238"/>
<path d="M21.4331 38.8027C21.4345 38.811 21.3463 38.8316 21.2365 38.8486C21.1266 38.8656 21.0364 38.8727 21.0352 38.8644C21.0338 38.8561 21.1219 38.8356 21.2318 38.8184C21.3416 38.8014 21.4317 38.7944 21.4331 38.8027Z" fill="#263238"/>
<path d="M55.2564 33.3235C55.2564 33.3235 56.5564 32.6168 55.7404 31.2722C55.7404 31.2722 54.4616 32.1422 55.2564 33.3235Z" fill="#FF725E"/>
<path d="M55.8252 30.8138C55.8335 30.8157 55.7448 31.2313 55.6272 31.7419C55.5095 32.2527 55.4074 32.665 55.399 32.6631C55.3907 32.6612 55.4792 32.2457 55.597 31.7349C55.7148 31.2242 55.8169 30.8119 55.8252 30.8138Z" fill="#263238"/>
<path d="M55.2171 32.3823C55.2117 32.3756 55.2733 32.3167 55.3545 32.2508C55.4358 32.1847 55.506 32.1365 55.5113 32.1432C55.5167 32.1499 55.4551 32.2087 55.3739 32.2747C55.2927 32.3408 55.2224 32.3889 55.2171 32.3823Z" fill="#263238"/>
<path d="M55.6222 31.6566C55.63 31.6529 55.6749 31.7327 55.7226 31.8346C55.7703 31.9366 55.8027 32.0221 55.795 32.0258C55.7872 32.0295 55.7423 31.9498 55.6946 31.8478C55.6469 31.7458 55.6145 31.6602 55.6222 31.6566Z" fill="#263238"/>
</svg>
