<svg width="73" height="89" viewBox="0 0 73 89" fill="none" xmlns="http://www.w3.org/2000/svg">
<path d="M36.5 88.4948C56.6584 88.4948 73 71.9293 73 51.4948H0C0 71.9293 16.3416 88.4948 36.5 88.4948Z" fill="#DCD7C3"/>
<path d="M37.0662 73.7068C51.5129 73.7068 63.2242 72.6421 63.2242 71.3288C63.2242 70.0155 51.5129 68.9508 37.0662 68.9508C22.6195 68.9508 10.9082 70.0155 10.9082 71.3288C10.9082 72.6421 22.6195 73.7068 37.0662 73.7068Z" fill="#C9C3A9"/>
<path d="M60.5663 20.1927C60.5663 20.1927 60.9443 20.9671 60.7915 21.3043C60.6386 21.6417 60.3362 23.762 61.837 24.828C63.3377 25.894 64.788 25.0302 65.4968 24.5804C66.2056 24.1305 66.4116 24.1399 66.5069 24.3162C66.6022 24.4927 60.4251 29.3633 60.1112 29.4525C59.7973 29.5416 59.0744 29.5434 57.8596 29.0066C56.6447 28.4698 55.3501 27.413 55.336 26.965C55.3219 26.5169 55.0515 25.6441 55.2014 25.3755C55.3513 25.1068 59.9433 19.5105 59.9433 19.5105C59.9433 19.5105 60.2805 19.6635 60.5663 20.1927Z" stroke="#263238" stroke-width="0.1" stroke-miterlimit="10" stroke-linecap="round" stroke-linejoin="round"/>
<path d="M55.3359 26.9651L58.3468 23.6033" stroke="#263238" stroke-width="0.1" stroke-miterlimit="10" stroke-linecap="round" stroke-linejoin="round"/>
<path d="M58.6699 23.3081L59.8312 21.9838" stroke="#263238" stroke-width="0.1" stroke-miterlimit="10" stroke-linecap="round" stroke-linejoin="round"/>
<path d="M59.9434 19.5107L61.7741 16.3235C61.7741 16.3235 62.3268 16.2796 62.4252 16.3873C62.5236 16.4951 62.5018 16.9759 62.5018 16.9759L60.5664 20.1928" stroke="#263238" stroke-width="0.1" stroke-miterlimit="10" stroke-linecap="round" stroke-linejoin="round"/>
<path d="M60.2637 19.6963L62.0542 16.8627L62.5023 16.9759" stroke="#263238" stroke-width="0.1" stroke-miterlimit="10" stroke-linecap="round" stroke-linejoin="round"/>
<path d="M61.2409 19.0928C61.2409 19.0928 62.8201 17.1132 63.0228 16.928C63.2255 16.7429 63.5771 17.0827 63.5771 17.0827C63.5771 17.0827 63.6644 17.5399 63.5292 17.6634C63.3941 17.7869 61.0943 20.4247 60.8593 20.8458C60.8593 20.8458 63.8436 17.8718 63.9825 17.6623C64.1216 17.4527 64.3409 17.3762 64.528 17.5358C64.7151 17.6954 64.8063 18.0665 64.6467 18.2536C64.4872 18.4408 61.9758 20.9826 61.5235 21.4372C61.0712 21.8916 60.6953 22.5655 60.6953 22.5655" stroke="#263238" stroke-width="0.1" stroke-miterlimit="10" stroke-linecap="round" stroke-linejoin="round"/>
<path d="M62.5352 16.7117C62.5352 16.7117 63.0314 15.7626 63.1871 15.6618C63.3427 15.5609 63.7081 15.5989 63.6758 15.8349C63.6435 16.0709 63.0219 16.928 63.0219 16.928" stroke="#263238" stroke-width="0.1" stroke-miterlimit="10" stroke-linecap="round" stroke-linejoin="round"/>
<path d="M63.308 19.6829L61.127 23.9884" stroke="#263238" stroke-width="0.1" stroke-miterlimit="10" stroke-linecap="round" stroke-linejoin="round"/>
<path d="M64.3078 18.5623L61.6367 24.6376" stroke="#263238" stroke-width="0.1" stroke-miterlimit="10" stroke-linecap="round" stroke-linejoin="round"/>
<path d="M60.8574 23.2423L62.1469 21.9405" stroke="#263238" stroke-width="0.1" stroke-miterlimit="10" stroke-linecap="round" stroke-linejoin="round"/>
<path d="M64.766 17.9784C64.766 17.9784 65.5246 16.9549 65.6686 17.1125C65.8126 17.2701 66.4101 17.4267 66.1849 17.6324C65.9597 17.838 64.6398 19.3329 63.9627 20.9431C63.2854 22.5532 62.7832 23.6317 62.7832 23.6317" stroke="#263238" stroke-width="0.1" stroke-miterlimit="10" stroke-linecap="round" stroke-linejoin="round"/>
<path d="M61.8773 24.0873C61.8773 24.0873 63.6624 23.2828 64.0432 22.9762C64.424 22.6695 67.5887 20.4809 67.7219 20.4005C67.8551 20.3202 68.1744 20.896 68.1891 21.0478C68.2039 21.1997 67.922 21.705 67.7065 21.6953C67.491 21.6856 64.1315 23.8868 63.7975 24.1092C63.4636 24.3316 62.547 24.5492 62.3258 24.6688C62.1044 24.7884 61.8359 24.8282 61.8359 24.8282" stroke="#263238" stroke-width="0.1" stroke-miterlimit="10" stroke-linecap="round" stroke-linejoin="round"/>
<path d="M65.2661 23.1825C65.2661 23.1825 64.5259 24.2716 64.246 24.7339C63.966 25.1962 63.8945 25.3442 63.8945 25.3442" stroke="#263238" stroke-width="0.1" stroke-miterlimit="10" stroke-linecap="round" stroke-linejoin="round"/>
<path d="M63.4429 24.3521L62.8828 25.2767" stroke="#263238" stroke-width="0.1" stroke-miterlimit="10" stroke-linecap="round" stroke-linejoin="round"/>
<path d="M66.6544 21.1293C66.6544 21.1293 67.4111 20.1488 67.8468 19.5856C68.2824 19.0224 67.6664 18.8002 67.3706 18.6574C67.0747 18.5145 66.9555 19.2432 66.2232 20.1599C65.491 21.0767 64.4238 22.7124 64.4238 22.7124" stroke="#263238" stroke-width="0.1" stroke-miterlimit="10" stroke-linecap="round" stroke-linejoin="round"/>
<path d="M63.5566 21.8098L66.222 20.16" stroke="#263238" stroke-width="0.1" stroke-miterlimit="10" stroke-linecap="round" stroke-linejoin="round"/>
<path d="M67.5449 20.522C67.5449 20.522 68.5279 19.7893 68.7531 19.5835C68.9783 19.3778 68.5424 18.9911 68.4807 18.9235C68.419 18.856 67.948 19.2448 67.948 19.2448" stroke="#263238" stroke-width="0.1" stroke-miterlimit="10" stroke-linecap="round" stroke-linejoin="round"/>
<path d="M64.2246 21.365C64.3547 20.8743 65.9072 18.0515 65.9953 18.0123C66.0835 17.9731 66.4281 17.9887 66.6133 18.1914C66.7984 18.3941 66.4175 18.7007 66.2031 19.1444C65.9888 19.5881 65.3779 20.6831 65.3779 20.6831" stroke="#263238" stroke-width="0.1" stroke-miterlimit="10" stroke-linecap="round" stroke-linejoin="round"/>
<path d="M66.3978 22.4781L68.0342 22.0988C68.0342 22.0988 68.337 22.5658 68.1754 22.7959C68.0139 23.0262 64.7559 23.9367 64.7559 23.9367" stroke="#263238" stroke-width="0.1" stroke-miterlimit="10" stroke-linecap="round" stroke-linejoin="round"/>
<path d="M64.9727 24.8962L66.2435 23.5288" stroke="#263238" stroke-width="0.1" stroke-miterlimit="10" stroke-linecap="round" stroke-linejoin="round"/>
<path d="M63.5279 17.6634L63.0951 17.687C63.0951 17.687 60.8353 19.9164 60.6582 20.4914" stroke="#263238" stroke-width="0.1" stroke-miterlimit="10" stroke-linecap="round" stroke-linejoin="round"/>
<path d="M64.1583 17.584C64.1583 17.584 64.1711 17.7788 64.1819 18.0168C64.1927 18.2547 61.2535 21.1876 61.0939 21.3747C60.9344 21.5618 60.6582 21.9379 60.6582 21.9379" stroke="#263238" stroke-width="0.1" stroke-miterlimit="10" stroke-linecap="round" stroke-linejoin="round"/>
<path d="M65.7666 17.3544C65.7666 17.3544 63.9719 19.3242 63.8516 19.5994" stroke="#263238" stroke-width="0.1" stroke-miterlimit="10" stroke-linecap="round" stroke-linejoin="round"/>
<path d="M63.2969 22.7912L65.0956 21.6852" stroke="#263238" stroke-width="0.1" stroke-miterlimit="10" stroke-linecap="round" stroke-linejoin="round"/>
<path d="M68.0851 20.9783C68.0851 20.9783 67.3929 21.4867 66.3011 22.2362C65.2094 22.9857 63.3959 23.94 63.0679 24.0332C62.7399 24.1263 61.7988 24.4076 61.7988 24.4076" stroke="#263238" stroke-width="0.1" stroke-miterlimit="10" stroke-linecap="round" stroke-linejoin="round"/>
<path d="M68.1267 22.4266C68.1267 22.4266 66.9623 22.8705 66.1525 23.1146C65.3427 23.3586 64.9883 23.5585 64.9883 23.5585" stroke="#263238" stroke-width="0.1" stroke-miterlimit="10" stroke-linecap="round" stroke-linejoin="round"/>
<path d="M67.37 18.6574C67.37 18.6574 67.7236 18.9541 67.5621 19.1842C67.4005 19.4143 65.4023 22.0658 65.4023 22.0658" stroke="#263238" stroke-width="0.1" stroke-miterlimit="10" stroke-linecap="round" stroke-linejoin="round"/>
<path d="M66.2978 18.026C66.2978 18.026 64.7003 20.8899 64.668 21.1259" stroke="#263238" stroke-width="0.1" stroke-miterlimit="10" stroke-linecap="round" stroke-linejoin="round"/>
<path d="M63.2433 40.2788C62.7601 39.8152 62.1996 39.5032 61.6149 39.5287C61.0025 39.5552 60.4879 40.0149 60.4879 40.0149C60.4879 40.0149 59.7778 39.6084 59.0299 39.8718C58.2821 40.135 57.9502 40.605 57.9502 40.605C57.9502 40.605 57.0436 40.4318 56.475 40.7662C55.9064 41.1008 55.7537 41.6418 55.7537 41.6418C55.7537 41.6418 54.59 41.6984 54.0076 42.2765C53.4252 42.8546 53.2829 43.2131 53.2829 43.2131C53.2829 43.2131 53.1233 43.876 53.5796 44.4515C54.0358 45.0269 54.4115 44.8649 54.9929 45.3863C55.5745 45.9078 57.3429 47.0458 59.571 48.6986C61.7991 50.3512 63.9501 51.2055 64.9776 52.4852C66.005 53.7649 66.6002 54.0427 67.3069 54.5101C68.0135 54.9775 68.1534 53.5804 67.7649 52.8866C67.3764 52.1928 68.1251 50.8301 67.0043 47.957C65.8833 45.0838 64.8765 43.4389 64.7278 42.8185C64.5464 42.0639 63.9865 40.992 63.2433 40.2788Z" stroke="#263238" stroke-width="0.1" stroke-miterlimit="10" stroke-linecap="round" stroke-linejoin="round"/>
<path d="M53.2832 43.213C53.2832 43.213 53.5276 42.1271 54.9581 42.7575C56.3887 43.3879 56.0902 44.3485 56.543 44.9848C56.9958 45.6211 59.2112 46.418 59.8904 47.3725C60.5697 48.327 62.0561 49.3219 62.6445 49.7216C63.2328 50.1213 64.9582 51.7508 65.5501 52.0896C66.1418 52.4284 66.7773 53.0751 67.0003 53.4541C67.2234 53.8331 67.3177 54.3272 67.5107 54.1549C67.7037 53.9825 67.7654 52.8863 67.7654 52.8863" stroke="#263238" stroke-width="0.1" stroke-miterlimit="10" stroke-linecap="round" stroke-linejoin="round"/>
<path d="M56.3673 43.7533C56.3673 43.7533 56.327 43.3845 57.5621 43.1487C58.797 42.9128 58.9061 42.0638 59.5321 41.7935C60.1582 41.5234 61.43 41.7173 61.7954 41.7378C62.1608 41.7583 62.5972 41.5997 62.7833 41.549C62.9695 41.4983 63.7014 40.9506 63.7014 40.9506" stroke="#263238" stroke-width="0.1" stroke-miterlimit="10" stroke-linecap="round" stroke-linejoin="round"/>
<path d="M59.415 43.6389C59.0226 43.7825 58.7303 44.0477 58.6759 44.468C58.5717 45.2728 59.8613 46.1969 60.5853 45.8845C60.961 45.7225 62.3186 44.3939 61.9127 44.0042C61.4519 43.5621 60.2217 43.3437 59.415 43.6389Z" stroke="#263238" stroke-width="0.1" stroke-miterlimit="10" stroke-linecap="round" stroke-linejoin="round"/>
<path d="M64.0102 45.8057C63.7129 45.7841 63.4095 45.8141 63.1941 45.8512C62.8789 45.9055 62.4435 45.952 62.4009 46.3148C62.352 46.7302 63.0513 47.123 63.3854 47.1419C63.8116 47.1658 65.05 46.8691 65.0098 46.5003C64.9563 46.0098 64.4911 45.8405 64.0102 45.8057Z" stroke="#263238" stroke-width="0.1" stroke-miterlimit="10" stroke-linecap="round" stroke-linejoin="round"/>
<path d="M63.8209 43.753C63.4391 43.7812 63.1372 43.9516 63.3668 44.2087C63.8265 44.7232 64.7536 44.5312 64.7674 44.2873C64.79 43.872 64.2542 43.721 63.8209 43.753Z" stroke="#263238" stroke-width="0.1" stroke-miterlimit="10" stroke-linecap="round" stroke-linejoin="round"/>
<path d="M64.4372 48.9277C64.0765 48.8676 63.7285 49.0307 63.8032 49.4866C63.894 50.0411 64.9138 50.3428 65.0541 50.0465C65.3511 49.4197 64.8846 49.0021 64.4372 48.9277Z" stroke="#263238" stroke-width="0.1" stroke-miterlimit="10" stroke-linecap="round" stroke-linejoin="round"/>
<path d="M55.7539 41.6418C55.7539 41.6418 57.1853 41.1726 57.675 42.2388" stroke="#263238" stroke-width="0.1" stroke-miterlimit="10" stroke-linecap="round" stroke-linejoin="round"/>
<path d="M58.6035 40.9471C58.6035 40.9471 59.324 41.1709 59.4286 41.4822" stroke="#263238" stroke-width="0.1" stroke-miterlimit="10" stroke-linecap="round" stroke-linejoin="round"/>
<path d="M60.4199 40.1332C60.4199 40.1332 61.1404 40.357 61.245 40.6683" stroke="#263238" stroke-width="0.1" stroke-miterlimit="10" stroke-linecap="round" stroke-linejoin="round"/>
<path d="M55.6933 44.8759C55.6933 44.8759 54.7036 42.9264 54.2534 43.3287C53.803 43.731 53.9077 44.0423 54.4996 44.3811C55.0913 44.7199 56.0922 45.3871 56.3898 45.5262C56.6873 45.6649 55.6933 44.8759 55.6933 44.8759Z" stroke="#263238" stroke-width="0.1" stroke-miterlimit="10" stroke-linecap="round" stroke-linejoin="round"/>
<path d="M64.6363 5.0672C64.6363 8.72079 61.9203 8.23814 58.5701 8.23814C55.2197 8.23814 52.5039 8.92743 52.5039 5.0672C52.5039 2.82106 55.2199 1 58.5701 1C61.9203 1.00016 64.6363 2.82106 64.6363 5.0672Z" stroke="#263238" stroke-width="0.1" stroke-miterlimit="10" stroke-linecap="round" stroke-linejoin="round"/>
<path d="M64.6088 11.9034C64.6259 12.041 64.6347 12.1884 64.6347 12.3464C64.6347 13.9659 61.9187 14.6586 58.5685 14.6586C55.2182 14.6586 52.5023 13.966 52.5023 12.3464C52.5023 12.0656 52.4851 11.966 52.5443 11.7489" stroke="#263238" stroke-width="0.1" stroke-miterlimit="10" stroke-linecap="round" stroke-linejoin="round"/>
<path d="M64.6235 5.91901C64.6235 5.91901 64.8666 6.4051 65.2067 6.93958C65.5468 7.47422 64.9151 7.52276 64.5263 8.10595C64.1374 8.68913 64.429 9.07797 63.4084 8.98072C62.3879 8.88347 62.4364 8.34899 61.8532 8.68913C61.27 9.02927 60.7354 9.51536 60.1037 9.12652C59.4719 8.73767 59.1316 8.68913 58.6943 8.98072C58.2569 9.27231 57.7222 9.7097 56.9932 9.22377C56.2643 8.73784 56.0212 8.88363 55.3895 9.41811C54.7576 9.95275 54.0286 9.66116 53.8343 8.98072C53.6399 8.30029 53.4454 8.59188 52.8623 8.10595C52.2791 7.62001 52.8137 7.03667 52.8137 7.03667" stroke="#263238" stroke-width="0.1" stroke-miterlimit="10" stroke-linecap="round" stroke-linejoin="round"/>
<path d="M58.2471 2.94699C58.2471 2.94699 58.0423 3.182 57.7896 3.182C57.5369 3.182 57.332 2.94699 57.332 2.94699C57.332 2.94699 57.5369 2.71198 57.7896 2.71198C58.0423 2.71198 58.2471 2.94699 58.2471 2.94699Z" stroke="#263238" stroke-width="0.1" stroke-miterlimit="10" stroke-linecap="round" stroke-linejoin="round"/>
<path d="M60.2257 2.37808C60.2257 2.37808 60.0208 2.61309 59.7681 2.61309C59.5154 2.61309 59.3105 2.37808 59.3105 2.37808C59.3105 2.37808 59.5154 2.14307 59.7681 2.14307C60.0208 2.14307 60.2257 2.37808 60.2257 2.37808Z" stroke="#263238" stroke-width="0.1" stroke-miterlimit="10" stroke-linecap="round" stroke-linejoin="round"/>
<path d="M61.5616 2.10604C61.5616 2.10604 61.3568 2.34106 61.104 2.34106C60.8513 2.34106 60.6465 2.10604 60.6465 2.10604C60.6465 2.10604 60.8513 1.87103 61.104 1.87103C61.3568 1.87103 61.5616 2.10604 61.5616 2.10604Z" stroke="#263238" stroke-width="0.1" stroke-miterlimit="10" stroke-linecap="round" stroke-linejoin="round"/>
<path d="M56.4542 2.37808C56.4542 2.37808 56.2493 2.61309 55.9966 2.61309C55.7439 2.61309 55.5391 2.37808 55.5391 2.37808C55.5391 2.37808 55.7439 2.14307 55.9966 2.14307C56.2493 2.14307 56.4542 2.37808 56.4542 2.37808Z" stroke="#263238" stroke-width="0.1" stroke-miterlimit="10" stroke-linecap="round" stroke-linejoin="round"/>
<path d="M55.503 3.36752C55.503 3.36752 55.2982 3.60253 55.0455 3.60253C54.7927 3.60253 54.5879 3.36752 54.5879 3.36752C54.5879 3.36752 54.7927 3.13251 55.0455 3.13251C55.2982 3.13251 55.503 3.36752 55.503 3.36752Z" stroke="#263238" stroke-width="0.1" stroke-miterlimit="10" stroke-linecap="round" stroke-linejoin="round"/>
<path d="M57.419 3.82504C57.419 3.82504 57.2142 4.06005 56.9615 4.06005C56.7087 4.06005 56.5039 3.82504 56.5039 3.82504C56.5039 3.82504 56.7087 3.59003 56.9615 3.59003C57.2142 3.59003 57.419 3.82504 57.419 3.82504Z" stroke="#263238" stroke-width="0.1" stroke-miterlimit="10" stroke-linecap="round" stroke-linejoin="round"/>
<path d="M54.3272 4.07235C54.3272 4.07235 54.1224 4.30737 53.8697 4.30737C53.6169 4.30737 53.4121 4.07235 53.4121 4.07235C53.4121 4.07235 53.6169 3.83734 53.8697 3.83734C54.1224 3.83734 54.3272 4.07235 54.3272 4.07235Z" stroke="#263238" stroke-width="0.1" stroke-miterlimit="10" stroke-linecap="round" stroke-linejoin="round"/>
<path d="M58.3585 1.89578C58.3585 1.89578 58.1536 2.13079 57.9009 2.13079C57.6482 2.13079 57.4434 1.89578 57.4434 1.89578C57.4434 1.89578 57.6482 1.66077 57.9009 1.66077C58.1536 1.66077 58.3585 1.89578 58.3585 1.89578Z" stroke="#263238" stroke-width="0.1" stroke-miterlimit="10" stroke-linecap="round" stroke-linejoin="round"/>
<path d="M61.5245 3.00882C61.5245 3.00882 61.3197 3.24383 61.0669 3.24383C60.8142 3.24383 60.6094 3.00882 60.6094 3.00882C60.6094 3.00882 60.8142 2.7738 61.0669 2.7738C61.3197 2.7738 61.5245 3.00882 61.5245 3.00882Z" stroke="#263238" stroke-width="0.1" stroke-miterlimit="10" stroke-linecap="round" stroke-linejoin="round"/>
<path d="M62.5382 3.6271C62.5382 3.6271 62.3333 3.86211 62.0806 3.86211C61.8279 3.86211 61.623 3.6271 61.623 3.6271C61.623 3.6271 61.8279 3.39209 62.0806 3.39209C62.3332 3.39209 62.5382 3.6271 62.5382 3.6271Z" stroke="#263238" stroke-width="0.1" stroke-miterlimit="10" stroke-linecap="round" stroke-linejoin="round"/>
<path d="M59.794 3.63943C59.794 3.63943 59.5892 3.87444 59.3365 3.87444C59.0837 3.87444 58.8789 3.63943 58.8789 3.63943C58.8789 3.63943 59.0837 3.40442 59.3365 3.40442C59.5892 3.40458 59.794 3.63943 59.794 3.63943Z" stroke="#263238" stroke-width="0.1" stroke-miterlimit="10" stroke-linecap="round" stroke-linejoin="round"/>
<path d="M55.3887 9.41826C55.3887 9.41826 55.6727 10.7506 57.2622 10.9444C58.8517 11.1383 60.0783 9.93371 59.8844 9.00317" stroke="#263238" stroke-width="0.1" stroke-miterlimit="10" stroke-linecap="round" stroke-linejoin="round"/>
<path d="M55.7109 9.27722C55.7109 9.27722 56.2925 9.89747 56.525 9.93634C56.7576 9.97504 57.0981 9.29526 57.0981 9.29526" stroke="#263238" stroke-width="0.1" stroke-miterlimit="10" stroke-linecap="round" stroke-linejoin="round"/>
<path d="M57.3389 9.39857C57.3389 9.39857 57.2224 10.0526 57.3774 10.2076C57.5324 10.3627 58.1528 10.5177 58.4629 10.2852C58.773 10.0526 58.1915 9.31592 58.1915 9.31592" stroke="#263238" stroke-width="0.1" stroke-miterlimit="10" stroke-linecap="round" stroke-linejoin="round"/>
<path d="M58.5156 9.12175C58.5156 9.12175 58.7741 9.74249 59.0453 9.74249C59.3168 9.74249 59.68 9.086 59.4862 8.81458" stroke="#263238" stroke-width="0.1" stroke-miterlimit="10" stroke-linecap="round" stroke-linejoin="round"/>
<path d="M61.8516 8.6893C61.8516 8.6893 62.3012 9.62623 63.6193 9.78137C64.9374 9.93652 64.3947 8.42444 64.3947 8.42444" stroke="#263238" stroke-width="0.1" stroke-miterlimit="10" stroke-linecap="round" stroke-linejoin="round"/>
<path d="M62.6113 8.81195C62.6113 8.81195 63.1153 9.23835 63.6193 9.31592C64.1232 9.39349 64.0457 8.88952 64.0457 8.88952" stroke="#263238" stroke-width="0.1" stroke-miterlimit="10" stroke-linecap="round" stroke-linejoin="round"/>
<path d="M52.8613 8.10596C52.8613 8.10596 52.1446 8.38558 52.571 9.0834C52.9974 9.78122 53.6178 9.74251 54.0055 9.74251C54.3932 9.74251 55.0134 10.0139 55.2462 10.0139C55.4789 10.0139 55.7434 10.0966 55.7434 10.0966" stroke="#263238" stroke-width="0.1" stroke-miterlimit="10" stroke-linecap="round" stroke-linejoin="round"/>
<path d="M63.9469 9.77631C63.9469 9.77631 63.4651 10.0913 62.9611 10.1301C62.4571 10.1688 61.4879 10.2076 60.7125 10.2076C59.9371 10.2076 59.3242 10.3823 59.3242 10.3823" stroke="#263238" stroke-width="0.1" stroke-miterlimit="10" stroke-linecap="round" stroke-linejoin="round"/>
<path d="M64.3984 9.55012C64.3984 9.55012 65.325 9.3548 65.4026 8.69568C65.4802 8.03657 64.7048 7.80402 64.7048 7.80402" stroke="#263238" stroke-width="0.1" stroke-miterlimit="10" stroke-linecap="round" stroke-linejoin="round"/>
<path d="M52.7601 9.35234C52.704 9.45796 52.6426 9.56981 52.5772 9.68379C52.2618 10.2335 52.8954 10.253 53.3104 10.8177C53.7257 11.3823 53.4521 11.7841 54.4673 11.6401C55.4823 11.4962 55.4093 10.9643 56.0074 11.2774C56.6057 11.5905 57.162 12.0513 57.7753 11.6339C58.3885 11.2165 58.7262 11.1522 59.1766 11.4235C59.6269 11.6946 60.1811 12.1071 60.8869 11.588C61.5928 11.0689 61.8422 11.2034 62.4979 11.7085C63.1536 12.2135 63.8684 11.8888 64.0313 11.2001C64.1941 10.5115 64.4018 10.7939 64.962 10.2816C65.5222 9.76923 64.9613 9.2113 64.9613 9.2113" stroke="#263238" stroke-width="0.1" stroke-miterlimit="10" stroke-linecap="round" stroke-linejoin="round"/>
<path d="M62.4967 11.7086C62.4967 11.7086 62.2742 13.0524 60.6953 13.3192C59.1163 13.5859 57.8358 12.439 57.9867 11.5006" stroke="#263238" stroke-width="0.1" stroke-miterlimit="10" stroke-linecap="round" stroke-linejoin="round"/>
<path d="M62.168 11.5826C62.168 11.5826 61.6157 12.2289 61.3851 12.2784C61.1545 12.3278 60.7832 11.6644 60.7832 11.6644" stroke="#263238" stroke-width="0.1" stroke-miterlimit="10" stroke-linecap="round" stroke-linejoin="round"/>
<path d="M60.548 11.7788C60.548 11.7788 60.6944 12.4267 60.5467 12.5887C60.3989 12.7508 59.7864 12.9341 59.4659 12.716C59.1455 12.4979 59.6924 11.7353 59.6924 11.7353" stroke="#263238" stroke-width="0.1" stroke-miterlimit="10" stroke-linecap="round" stroke-linejoin="round"/>
<path d="M59.3599 11.5563C59.3599 11.5563 59.1303 12.1882 58.8592 12.2007C58.5881 12.2132 58.195 11.5741 58.3762 11.2939" stroke="#263238" stroke-width="0.1" stroke-miterlimit="10" stroke-linecap="round" stroke-linejoin="round"/>
<path d="M56.0068 11.2775C56.0068 11.2775 55.6008 12.2341 54.2911 12.4496C52.9815 12.6651 53.4542 11.1298 53.4542 11.1298" stroke="#263238" stroke-width="0.1" stroke-miterlimit="10" stroke-linecap="round" stroke-linejoin="round"/>
<path d="M55.2534 11.4352C55.2534 11.4352 54.7696 11.8844 54.2696 11.9849C53.7697 12.0856 53.824 11.5785 53.824 11.5785" stroke="#263238" stroke-width="0.1" stroke-miterlimit="10" stroke-linecap="round" stroke-linejoin="round"/>
<path d="M64.9613 10.2816C64.9613 10.2816 65.6902 10.5279 65.2962 11.2446C64.9023 11.9612 64.2809 11.9511 63.8935 11.9688C63.5063 11.9867 62.899 12.2863 62.6668 12.297C62.4346 12.3076 62.1738 12.4024 62.1738 12.4024" stroke="#263238" stroke-width="0.1" stroke-miterlimit="10" stroke-linecap="round" stroke-linejoin="round"/>
<path d="M53.9648 12.4598C53.9648 12.4598 54.4606 12.7524 54.9659 12.768C55.4712 12.7836 56.4411 12.7777 57.2157 12.7421C57.9902 12.7065 58.6105 12.8528 58.6105 12.8528" stroke="#263238" stroke-width="0.1" stroke-miterlimit="10" stroke-linecap="round" stroke-linejoin="round"/>
<path d="M53.502 12.2547C53.502 12.2547 52.5674 12.1022 52.4596 11.4473C52.3519 10.7925 53.1158 10.5245 53.1158 10.5245" stroke="#263238" stroke-width="0.1" stroke-miterlimit="10" stroke-linecap="round" stroke-linejoin="round"/>
<path d="M52.6484 6.48596C52.6484 6.48596 52.8036 6.60224 53.4238 6.87366C54.0441 7.14508 54.0829 7.0288 54.7419 7.0288C55.4008 7.0288 55.401 7.3778 56.2538 7.3778C57.1068 7.3778 57.3393 6.87382 57.9596 7.0288C58.5798 7.18395 58.4636 7.4165 59.5104 7.30022C60.5572 7.18395 60.9449 6.9901 61.3713 7.0288C61.7977 7.06751 61.8365 7.4552 62.6506 7.0288C63.4647 6.6024 64.1625 6.29212 64.5115 6.33098" stroke="#263238" stroke-width="0.1" stroke-miterlimit="10" stroke-linecap="round" stroke-linejoin="round"/>
<path d="M56.8809 37.6912C56.8809 37.6912 57.0495 36.9654 57.2292 36.6497C57.4091 36.334 57.9416 35.931 59.0088 35.6019C60.0741 35.2732 70.7443 32.7435 70.7794 32.7352C71.714 32.5136 71.1608 33.6586 70.9439 34.0437C69.7883 36.095 66.8986 36.894 64.7686 37.4267C62.8083 37.9169 60.7891 38.1849 58.7726 38.2935C56.6455 38.4078 57.3117 38.0232 57.3117 38.0232" stroke="#263238" stroke-width="0.1" stroke-miterlimit="10" stroke-linecap="round" stroke-linejoin="round"/>
<path d="M57.2283 36.6497C57.2283 36.6497 56.0573 37.2368 55.3315 37.0684C54.6056 36.8998 53.6659 35.8164 54.2815 34.8117C54.8974 33.8072 58.1193 33.1632 58.7002 32.9031C59.2811 32.6428 66.0579 30.9922 66.7531 30.8162C68.1384 30.4654 69.7205 30.3157 70.3967 30.571C71.3517 30.9318 71.4538 32.2837 70.7783 32.7352" stroke="#263238" stroke-width="0.1" stroke-miterlimit="10" stroke-linecap="round" stroke-linejoin="round"/>
<path d="M54.2816 34.8117C54.2816 34.8117 53.9411 33.3344 55.1285 32.1366C56.3158 30.9387 57.7387 31.104 59.2644 30.9064C60.7901 30.7088 66.2334 29.0926 67.2717 28.9543C69.3648 28.6757 69.678 29.8586 69.4704 30.3749" stroke="#263238" stroke-width="0.1" stroke-miterlimit="10" stroke-linecap="round" stroke-linejoin="round"/>
<path d="M56.127 33.7733C56.127 33.7733 56.4476 32.9323 57.9434 32.4582C59.4393 31.9841 60.5177 32.0652 62.9954 31.3863C65.4731 30.7073 66.7756 29.6617 67.9117 29.8189C69.0477 29.976 69.0014 30.3103 69.0014 30.3103" stroke="#263238" stroke-width="0.1" stroke-miterlimit="10" stroke-linecap="round" stroke-linejoin="round"/>
<path d="M55.332 37.0684C55.332 37.0684 55.7187 38.2116 58.3619 38.3048" stroke="#263238" stroke-width="0.1" stroke-miterlimit="10" stroke-linecap="round" stroke-linejoin="round"/>
<path d="M57.0938 35.5781C56.6108 35.5781 56.1211 35.5225 55.8275 35.482C55.6409 35.4563 55.5107 35.2841 55.5364 35.0974C55.5622 34.9108 55.7346 34.7798 55.921 34.8062C56.7589 34.9216 57.6286 34.9206 57.8805 34.8104C57.8626 34.7006 57.8264 34.5721 57.7911 34.4473C57.6876 34.0811 57.5704 33.6659 57.8298 33.3681C58.0675 33.0952 58.462 33.1143 58.7381 33.1526C59.2069 33.2173 59.5904 33.3761 59.8984 33.5035C60.421 33.7198 60.6152 33.7835 60.8773 33.5626C61.0836 33.3886 61.1439 33.1891 61.2138 32.9584C61.3273 32.5832 61.4829 32.0693 62.3718 32.0267C63.0539 31.9942 63.5296 32.1717 63.9493 32.3285C64.2606 32.4447 64.5546 32.5545 64.9223 32.5789C64.9355 32.5797 64.9468 32.58 64.9563 32.58C64.956 32.5015 64.9343 32.3703 64.9202 32.2845C64.8728 31.9962 64.8139 31.6374 65.0214 31.3699C65.1405 31.2164 65.3181 31.128 65.5496 31.1072C66.1638 31.053 66.6425 31.2265 67.106 31.3948C67.3873 31.4971 67.6531 31.5936 67.938 31.6331C68.0739 31.652 68.0795 31.6528 68.1638 31.3648C68.2412 31.1003 68.3706 30.6573 68.8897 30.6152C69.556 30.5609 69.8671 30.6698 69.9227 30.6921C70.0975 30.7624 70.1821 30.961 70.1118 31.1359C70.0414 31.3107 69.843 31.3955 69.668 31.3249C69.6669 31.3249 69.4448 31.2546 68.9449 31.2951C68.9262 31.2966 68.9197 31.2999 68.9197 31.2999C68.8865 31.3233 68.8423 31.4747 68.8185 31.556C68.7376 31.8329 68.5684 32.4088 67.8445 32.3088C67.488 32.2594 67.1752 32.1458 66.8729 32.036C66.4615 31.8865 66.0728 31.7453 65.6105 31.7868C65.5862 31.7889 65.5701 31.7923 65.5605 31.7951C65.5434 31.8691 65.5755 32.0652 65.5934 32.1741C65.6426 32.4739 65.6984 32.8139 65.475 33.0599C65.3391 33.2098 65.1382 33.2769 64.8771 33.2597C64.4093 33.2287 64.0541 33.096 63.7104 32.9676C63.3174 32.8208 62.9458 32.6829 62.4041 32.7081C61.9959 32.7276 61.9685 32.8183 61.8664 33.156C61.7867 33.4192 61.6776 33.7797 61.3166 34.0841C60.7239 34.5836 60.1714 34.3548 59.6369 34.1339C59.3368 34.0096 59.0264 33.8812 58.6441 33.8284C58.4773 33.8053 58.3914 33.8141 58.3533 33.8222C58.3499 33.9171 58.4099 34.1293 58.4473 34.2617C58.4998 34.4473 58.5541 34.6394 58.5695 34.8291C58.5834 34.9999 58.5208 35.1602 58.3932 35.2808C58.1504 35.5104 57.6263 35.5781 57.0938 35.5781Z" stroke="#263238" stroke-width="0.1" stroke-miterlimit="10" stroke-linecap="round" stroke-linejoin="round"/>
<path d="M54.992 35.3149C54.992 35.3149 54.5601 35.4989 54.5903 35.8689C54.5903 35.8689 54.3378 36.0122 54.248 35.6996" stroke="#263238" stroke-width="0.1" stroke-miterlimit="10" stroke-linecap="round" stroke-linejoin="round"/>
<path d="M54.6082 36.0337C54.6082 36.0337 54.5751 36.273 54.9395 36.2826" stroke="#263238" stroke-width="0.1" stroke-miterlimit="10" stroke-linecap="round" stroke-linejoin="round"/>
<path d="M5.41455 31.2741C7.54305 31.2741 9.26855 29.5486 9.26855 27.4201C9.26855 25.2916 7.54305 23.5661 5.41455 23.5661C3.28604 23.5661 1.56055 25.2916 1.56055 27.4201C1.56055 29.5486 3.28604 31.2741 5.41455 31.2741Z" stroke="#263238" stroke-width="0.1" stroke-miterlimit="10" stroke-linecap="round" stroke-linejoin="round"/>
<path d="M1.97266 28.6606C2.48073 30.0698 3.82979 31.0775 5.4142 31.0775C6.67962 31.0775 7.79499 30.4347 8.45164 29.4581" stroke="#263238" stroke-width="0.1" stroke-miterlimit="10" stroke-linecap="round" stroke-linejoin="round"/>
<path d="M1.8125 28.0535C1.83333 28.1725 1.8599 28.2895 1.89188 28.4043" stroke="#263238" stroke-width="0.1" stroke-miterlimit="10" stroke-linecap="round" stroke-linejoin="round"/>
<path d="M4.70538 23.8315C3.0252 24.1619 1.75781 25.643 1.75781 27.42C1.75781 27.5736 1.76732 27.725 1.78569 27.8736" stroke="#263238" stroke-width="0.1" stroke-miterlimit="10" stroke-linecap="round" stroke-linejoin="round"/>
<path d="M8.59139 29.2328C8.89692 28.6985 9.07158 28.0797 9.07158 27.4201C9.07158 25.4001 7.43404 23.7628 5.41422 23.7628C5.26137 23.7628 5.11082 23.7721 4.96289 23.7903" stroke="#263238" stroke-width="0.1" stroke-miterlimit="10" stroke-linecap="round" stroke-linejoin="round"/>
<path d="M5.68926 24.2982C5.94773 24.2817 6.18241 24.3015 6.43743 24.3723C6.79134 24.4707 7.02734 24.7656 7.02734 24.8639C7.02734 24.9621 6.98798 25.0605 6.9291 25.2178C6.87006 25.375 5.65105 27.1251 5.65105 27.1251C5.65105 27.1251 5.47409 27.1448 5.45441 27.0267L4.98242 24.5491C4.98242 24.5491 4.98242 24.3919 5.37569 24.3328" stroke="#263238" stroke-width="0.1" stroke-miterlimit="10" stroke-linecap="round" stroke-linejoin="round"/>
<path d="M4.42154 26.6089L3.07887 25.6959C3.07887 25.6959 2.96768 25.5848 3.204 25.265C3.44032 24.9452 3.66287 24.7226 3.98267 24.5419C4.30247 24.3611 4.67787 24.4028 4.7474 24.4723C4.81694 24.5419 4.8586 24.6391 4.92813 24.7921C4.99767 24.9452 5.37306 27.0445 5.37306 27.0445C5.37306 27.0445 5.26187 27.1836 5.16446 27.1141L4.61079 26.7375" stroke="#263238" stroke-width="0.1" stroke-miterlimit="10" stroke-linecap="round" stroke-linejoin="round"/>
<path d="M2.40362 26.2902C2.52465 25.9968 2.77016 25.8077 2.85823 25.8077C2.95646 25.8077 3.05486 25.847 3.21214 25.9061C3.36941 25.9651 5.11946 27.1841 5.11946 27.1841C5.11946 27.1841 5.13914 27.3611 5.02122 27.3808L2.54367 27.8528C2.54367 27.8528 2.3864 27.8528 2.32736 27.4595C2.28308 27.1644 2.27209 26.9139 2.31079 26.6575" stroke="#263238" stroke-width="0.1" stroke-miterlimit="10" stroke-linecap="round" stroke-linejoin="round"/>
<path d="M4.46625 28.616L3.69118 29.7559C3.69118 29.7559 3.57999 29.8671 3.26019 29.6308C2.94039 29.3945 2.71801 29.1719 2.53712 28.8521C2.35639 28.5323 2.39804 28.1569 2.46758 28.0874C2.53712 28.0179 2.63437 27.9762 2.78738 27.9067C2.94023 27.8371 5.03976 27.4617 5.03976 27.4617C5.03976 27.4617 5.17883 27.5729 5.10929 27.6703L4.62566 28.3816" stroke="#263238" stroke-width="0.1" stroke-miterlimit="10" stroke-linecap="round" stroke-linejoin="round"/>
<path d="M5.0019 30.5473C4.79641 30.5496 4.60125 30.5258 4.39264 30.4679C4.03873 30.3697 3.80273 30.0746 3.80273 29.9764C3.80273 29.8782 3.84209 29.7798 3.90097 29.6225C3.96001 29.4652 5.17902 27.7152 5.17902 27.7152C5.17902 27.7152 5.35598 27.6955 5.37566 27.8136L5.84765 30.2911C5.84765 30.2911 5.84765 30.4484 5.45438 30.5074C5.37927 30.5187 5.30711 30.5278 5.23691 30.5345" stroke="#263238" stroke-width="0.1" stroke-miterlimit="10" stroke-linecap="round" stroke-linejoin="round"/>
<path d="M5.66564 27.7259L7.75123 29.1442C7.75123 29.1442 7.86242 29.2554 7.6261 29.5752C7.38977 29.895 7.16722 30.1174 6.84742 30.2983C6.52762 30.479 6.15223 30.4373 6.08269 30.3678C6.01316 30.2983 5.9715 30.201 5.90196 30.048C5.83243 29.895 5.45703 27.7956 5.45703 27.7956C5.45703 27.7956 5.56839 27.6564 5.66564 27.7259Z" stroke="#263238" stroke-width="0.1" stroke-miterlimit="10" stroke-linecap="round" stroke-linejoin="round"/>
<path d="M5.80845 27.4593L8.286 26.9873C8.286 26.9873 8.44328 26.9873 8.50232 27.3806C8.56136 27.7738 8.56136 28.0884 8.46296 28.4425C8.36472 28.7964 8.06968 29.0324 7.97145 29.0324C7.87321 29.0324 7.77481 28.993 7.61754 28.934C7.46026 28.8749 5.71022 27.6559 5.71022 27.6559C5.71022 27.6559 5.69054 27.479 5.80845 27.4593Z" stroke="#263238" stroke-width="0.1" stroke-miterlimit="10" stroke-linecap="round" stroke-linejoin="round"/>
<path d="M8.1175 25.7235C8.18064 25.8048 8.2387 25.8919 8.29282 25.9879C8.47355 26.3077 8.43189 26.6831 8.36235 26.7526C8.29282 26.8221 8.19557 26.8638 8.04255 26.9333C7.88971 27.0029 5.79018 27.3783 5.79018 27.3783C5.79018 27.3783 5.65111 27.2671 5.72064 27.1696L7.13891 25.0841C7.13891 25.0841 7.25011 24.9729 7.56991 25.2092C7.69799 25.3038 7.81033 25.3963 7.91086 25.4936" stroke="#263238" stroke-width="0.1" stroke-miterlimit="10" stroke-linecap="round" stroke-linejoin="round"/>
<path d="M17.1269 12.3593C20.0932 12.3593 22.4979 9.95463 22.4979 6.98831C22.4979 4.02199 20.0932 1.61731 17.1269 1.61731C14.1605 1.61731 11.7559 4.02199 11.7559 6.98831C11.7559 9.95463 14.1605 12.3593 17.1269 12.3593Z" stroke="#263238" stroke-width="0.1" stroke-miterlimit="10" stroke-linecap="round" stroke-linejoin="round"/>
<path d="M12.3301 8.71722C13.0382 10.6813 14.9183 12.0853 17.1264 12.0853C18.8899 12.0853 20.4443 11.1897 21.3594 9.82849" stroke="#263238" stroke-width="0.1" stroke-miterlimit="10" stroke-linecap="round" stroke-linejoin="round"/>
<path d="M12.1055 7.87109C12.1345 8.0369 12.1714 8.20008 12.216 8.35998" stroke="#263238" stroke-width="0.1" stroke-miterlimit="10" stroke-linecap="round" stroke-linejoin="round"/>
<path d="M16.137 1.9873C13.7954 2.44782 12.0293 4.51176 12.0293 6.98832C12.0293 7.20234 12.0424 7.41341 12.0682 7.62054" stroke="#263238" stroke-width="0.1" stroke-miterlimit="10" stroke-linecap="round" stroke-linejoin="round"/>
<path d="M21.5548 9.51457C21.9806 8.77001 22.2239 7.90753 22.2239 6.98831C22.2239 4.17342 19.9419 1.89136 17.127 1.89136C16.914 1.89136 16.7042 1.90448 16.498 1.92973" stroke="#263238" stroke-width="0.1" stroke-miterlimit="10" stroke-linecap="round" stroke-linejoin="round"/>
<path d="M17.5084 2.63757C17.8686 2.61444 18.1956 2.64199 18.5511 2.74089C19.0444 2.87783 19.3733 3.28897 19.3733 3.42591C19.3733 3.56285 19.3185 3.69996 19.2363 3.91923C19.1542 4.13849 17.4551 6.57734 17.4551 6.57734C17.4551 6.57734 17.2085 6.60473 17.1811 6.4404L16.5234 2.98754C16.5234 2.98754 16.5234 2.76827 17.0715 2.68611" stroke="#263238" stroke-width="0.1" stroke-miterlimit="10" stroke-linecap="round" stroke-linejoin="round"/>
<path d="M15.7436 5.85805L13.8724 4.58558C13.8724 4.58558 13.7174 4.4306 14.0467 3.98484C14.3762 3.53926 14.6861 3.22913 15.1319 2.97723C15.5775 2.72532 16.1008 2.78354 16.1976 2.8803C16.2945 2.97723 16.3525 3.11286 16.4495 3.32589C16.5464 3.53909 17.0696 6.46501 17.0696 6.46501C17.0696 6.46501 16.9146 6.65886 16.7789 6.56194L16.0075 6.0373" stroke="#263238" stroke-width="0.1" stroke-miterlimit="10" stroke-linecap="round" stroke-linejoin="round"/>
<path d="M12.93 5.41373C13.0987 5.00472 13.4408 4.74133 13.5635 4.74133C13.7006 4.74133 13.8375 4.79611 14.0568 4.87844C14.2761 4.9606 16.7149 6.65964 16.7149 6.65964C16.7149 6.65964 16.7423 6.9063 16.578 6.93368L13.1251 7.59133C13.1251 7.59133 12.9059 7.59132 12.8237 7.04324C12.762 6.63225 12.7466 6.28277 12.8006 5.92574" stroke="#263238" stroke-width="0.1" stroke-miterlimit="10" stroke-linecap="round" stroke-linejoin="round"/>
<path d="M15.8038 8.65502L14.7236 10.2437C14.7236 10.2437 14.5686 10.3987 14.1228 10.0694C13.6773 9.73988 13.3671 9.42992 13.1152 8.98417C12.8633 8.53858 12.9214 8.01526 13.0183 7.9185C13.1152 7.82157 13.2509 7.76352 13.4639 7.66659C13.6771 7.56967 16.603 7.04651 16.603 7.04651C16.603 7.04651 16.7969 7.20149 16.6999 7.33712L16.0259 8.32833" stroke="#263238" stroke-width="0.1" stroke-miterlimit="10" stroke-linecap="round" stroke-linejoin="round"/>
<path d="M16.5502 11.3464C16.2637 11.3497 15.992 11.3166 15.701 11.2357C15.2077 11.0988 14.8789 10.6877 14.8789 10.5507C14.8789 10.4138 14.9337 10.2767 15.016 10.0574C15.0982 9.83814 16.7972 7.39929 16.7972 7.39929C16.7972 7.39929 17.0439 7.37191 17.0713 7.5364L17.7289 10.9891C17.7289 10.9891 17.7289 11.2084 17.1808 11.2905C17.0762 11.3063 16.9755 11.3189 16.8777 11.3282" stroke="#263238" stroke-width="0.1" stroke-miterlimit="10" stroke-linecap="round" stroke-linejoin="round"/>
<path d="M17.476 7.41471L20.3826 9.39108C20.3826 9.39108 20.5375 9.54606 20.2082 9.99181C19.8788 10.4374 19.5688 10.7475 19.1232 10.9994C18.6775 11.2513 18.1543 11.1933 18.0575 11.0963C17.9606 10.9994 17.9026 10.8638 17.8056 10.6508C17.7087 10.4376 17.1855 7.51164 17.1855 7.51164C17.1855 7.51164 17.3404 7.31779 17.476 7.41471Z" stroke="#263238" stroke-width="0.1" stroke-miterlimit="10" stroke-linecap="round" stroke-linejoin="round"/>
<path d="M17.6738 7.04308L21.1267 6.38544C21.1267 6.38544 21.3459 6.38544 21.4281 6.93353C21.5103 7.48161 21.5103 7.91999 21.3733 8.4133C21.2362 8.90661 20.8252 9.23543 20.6883 9.23543C20.5514 9.23543 20.4142 9.18065 20.195 9.09849C19.9757 9.01632 17.5369 7.31728 17.5369 7.31728C17.5369 7.31728 17.5095 7.07063 17.6738 7.04308Z" stroke="#263238" stroke-width="0.1" stroke-miterlimit="10" stroke-linecap="round" stroke-linejoin="round"/>
<path d="M20.8929 4.6241C20.9809 4.73759 21.0616 4.85895 21.1372 4.99261C21.3891 5.43836 21.3311 5.96152 21.2342 6.05828C21.1372 6.15521 21.0016 6.21326 20.7886 6.31019C20.5754 6.40711 17.6495 6.93027 17.6495 6.93027C17.6495 6.93027 17.4556 6.77529 17.5525 6.63966L19.5289 3.73309C19.5289 3.73309 19.6839 3.57811 20.1296 3.90742C20.3081 4.03928 20.4648 4.16818 20.6047 4.30381" stroke="#263238" stroke-width="0.1" stroke-miterlimit="10" stroke-linecap="round" stroke-linejoin="round"/>
<path d="M11.6712 53.7928C11.6712 53.7928 11.5043 54.1823 11.468 54.2772C11.4318 54.3722 11.4761 54.5885 11.4761 54.5885L11.6073 54.5298L11.6227 54.9165L11.8172 54.8821L11.9541 55.1883L12.1165 54.9057L12.2287 55.0392C12.2287 55.0392 12.4202 54.8222 12.4128 54.7469C12.4053 54.6715 12.7413 54.8362 12.7413 54.8362C12.7413 54.8362 12.986 54.3856 12.9711 54.2349C12.9562 54.0842 13.0482 53.9381 13.0482 53.9381L13.2069 54.2344L13.4815 54.0855L13.6051 53.9515L13.7662 54.1944L13.8916 53.771L13.9251 53.4937L14.0861 53.7365L14.3467 53.9086L14.4889 53.3464L14.4228 53.1397L14.3641 53.0085L14.5488 52.9521C14.5488 52.9521 14.4924 52.7675 14.463 52.7019C14.4337 52.6363 14.3749 52.5051 14.3749 52.5051L14.3623 52.3009L14.4619 52.2302L14.6465 52.1738L14.5804 51.9671L14.7945 51.9763L14.997 52.2532L15.3566 52.1185L15.4906 52.2422L15.4716 52.4344L15.5423 52.5339L15.4772 52.7991C15.4772 52.7991 15.3875 52.8918 15.4168 52.9574C15.4462 53.023 15.4345 53.2905 15.4345 53.2905L15.4081 53.4072L15.7799 53.2409L15.9134 53.1287L16.0061 53.2185C16.0061 53.2185 16.1763 53.2472 16.2759 53.1765C16.3754 53.1058 16.6252 52.7842 16.6252 52.7842L16.7667 52.9833L16.8415 52.7399L16.8456 52.397L16.6841 51.9183L16.8664 51.9155L17.2053 52.2625L17.551 52.449L17.5211 52.1475L17.8399 52.2149L18.1097 52.173L17.8411 51.6897L18.0695 51.6137L17.8475 51.2933L17.6938 51.1258L17.4406 51.0291L17.1725 50.7816C17.1725 50.7816 16.9825 50.7091 17.2882 50.3363C17.5938 49.9636 18.1302 49.4612 18.1302 49.4612C18.1302 49.4612 19.9911 48.5766 21.3566 47.9923C22.7221 47.4079 23.5184 46.8418 24.1056 46.1596C24.6925 45.4772 25.0338 44.7736 25.0569 44.2385C25.08 43.7033 24.6446 42.6124 24.5423 42.5007C24.44 42.389 24.4031 42.2482 23.1258 42.0322C21.8486 41.8162 19.96 42.3459 19.2384 42.6685C18.5168 42.9911 16.265 44.2342 16.0343 44.3636C15.8035 44.493 15.2207 44.8325 15.2207 44.8325L15.409 44.1973C15.409 44.1973 15.2922 44.1709 15.2773 44.02C15.2623 43.8693 15.1904 44.2951 15.1904 44.2951L15.0921 43.8404L15.0696 43.6143L14.8774 43.5953L14.8113 43.3886L14.6595 42.9317L14.465 42.9662L14.4161 42.8568L14.0812 43.1639L14.0225 43.0327L13.7596 42.9142L13.6899 43.2865L13.9292 43.7042L13.4759 43.2771L13.1399 43.1125L12.9357 43.1251L13.0237 43.3219L12.7682 43.2787L12.8074 43.3662L12.5842 43.571L12.5358 43.6976L12.3915 43.3161L12.1539 43.6061L12.1195 43.4116C12.1195 43.4116 12.0119 43.171 11.9825 43.1054C11.9532 43.0398 11.7116 42.6756 11.7116 42.6756L11.6488 42.8873L11.5584 42.7439L11.2737 42.6352L11.1592 42.5552L11.0067 42.8596L10.8537 42.928C10.8537 42.928 10.8248 43.0983 10.8324 43.1736C10.8399 43.2491 10.8599 43.5287 10.8599 43.5287C10.8599 43.5287 10.9359 43.7571 10.9432 43.8326C10.9508 43.908 11.0485 44.1266 11.0485 44.1266L10.7568 44.1785L10.5962 44.1716L10.3897 44.2377L10.5411 44.4586L10.2861 44.6513L10.5905 44.8038L10.7268 44.874L10.6249 44.9983L10.9098 45.107L11.1653 45.1502L11.0415 45.2841L10.7619 45.3041L10.4139 45.1711C10.4139 45.1711 9.92661 44.7856 9.89725 44.72C9.8679 44.6544 9.71669 44.4335 9.71669 44.4335L9.5394 44.5652L9.34949 44.4927L9.24994 44.5634L8.87488 44.3113L8.80518 44.6836L8.52096 44.8107L8.54802 44.9297L8.20051 45.0327L7.64635 45.2018L7.46907 45.3335L7.78329 45.5078L7.93926 45.6218L7.77411 45.7219L7.99567 45.8065L8.11015 45.8865L8.05209 45.9911L8.23741 46.1707C8.23741 46.1707 7.92384 46.2322 7.83873 46.2178C7.75361 46.2034 7.57124 46.2063 7.57124 46.2063L7.39625 46.2845L7.52056 46.3864L7.21438 46.5233L7.01528 46.6649L6.6412 46.8846L6.48819 46.953L6.59052 47.0647L6.19233 47.3477L6.05654 47.5134L6.24645 47.5859L6.43636 47.6584L6.71139 47.7453L6.98642 47.8322L7.07678 47.9755L7.2621 48.1551L7.56189 48.4147L7.61077 48.5241L7.36788 48.6852L7.18256 48.5056L6.90015 48.3432L6.77354 48.2949L6.5692 48.3075L6.19003 48.3983C6.19003 48.3983 6.18774 48.4518 6.26826 48.5733C6.34878 48.6947 6.11049 48.7488 6.11049 48.7488L5.92813 48.7516L6.27613 48.8846L6.45161 49.0422C6.45161 49.0422 6.14772 49.1257 6.0385 49.1745C5.92911 49.2234 5.79561 49.3356 5.79561 49.3356L5.85432 49.4668L5.58963 49.6377L5.23047 50.0082L5.45203 50.0928C5.45203 50.0928 5.36233 50.1854 5.28459 50.2465C5.20685 50.3075 5.63506 50.3258 5.63506 50.3258C5.63506 50.3258 5.84448 50.4421 5.9319 50.4029C6.01931 50.3639 6.47392 50.2655 6.47392 50.2655L6.31156 50.5479L6.63956 50.4013L6.70056 50.479L6.99462 50.3737L7.104 50.3248L7.07809 50.6776L7.19716 50.6505L7.39396 50.5625L7.52516 50.5038L7.57928 50.7421L7.3295 51.0637L7.36394 51.2582C7.36394 51.2582 7.28621 51.3192 7.21831 51.402C7.15042 51.4848 7.13369 51.6236 7.13369 51.6236C7.13369 51.6236 7.31606 51.6208 7.42315 51.6254C7.53024 51.63 7.77591 51.6513 7.84151 51.6219C7.90711 51.5926 7.95877 51.8843 7.95877 51.8843L8.09981 51.8476L8.5595 51.8781L9.05495 51.5778L9.23223 51.4461L9.36343 51.3874L9.13318 51.7528C9.13318 51.7528 8.9536 51.9379 8.888 51.9673C8.8224 51.9967 8.75221 52.1329 8.75221 52.1329L8.96163 52.2492L8.35401 52.416L8.43454 52.5374L8.23544 52.6789C8.23544 52.6789 8.59099 52.8872 8.67611 52.9016C8.76122 52.916 9.02887 52.9275 9.02887 52.9275L8.91489 53.0835L9.21632 53.0536L9.45462 52.9995L9.4333 53.2452L9.74178 53.0548L10.0065 52.8839L10.0299 53.5819L10.3701 53.4036L10.1767 53.9099L9.9763 54.5767L10.2848 54.3863L10.591 54.2494L10.9167 54.1562L11.06 54.0658L11.6712 53.7928Z" stroke="#263238" stroke-width="0.1" stroke-miterlimit="10" stroke-linecap="round" stroke-linejoin="round"/>
<path d="M14.3809 49.6424C14.3809 49.6424 15.0898 49.4791 16.0853 49.1826C17.0198 48.9042 18.2068 48.5088 19.2971 48.0211C21.5493 47.014 22.8177 45.4498 23.1526 45.1424C23.4875 44.8351 24.0815 43.9923 24.0815 43.9923L24.0344 43.5936C24.0344 43.5936 23.7328 43.6234 23.791 43.5188C23.8491 43.4142 23.9073 43.3094 23.9073 43.3094" stroke="#263238" stroke-width="0.1" stroke-miterlimit="10" stroke-linecap="round" stroke-linejoin="round"/>
<path d="M23.152 42.9124C23.152 42.9124 21.4401 43.0744 20.0476 43.5397C18.6551 44.0049 16.8598 44.8602 16.0386 45.2536C15.2175 45.6471 13.7479 46.4092 13.5947 46.4777C13.4417 46.5461 11.7971 47.3866 11.7971 47.3866C11.7971 47.3866 11.7297 47.7054 11.5313 48.0828C11.3327 48.4601 11.2653 48.779 11.1634 48.9033C11.0616 49.0276 10.9499 49.1299 10.9499 49.1299L10.874 48.9015C10.874 48.9015 10.707 49.291 10.6293 49.352C10.5515 49.413 10.452 49.4837 10.452 49.4837L9.99278 49.689L9.86618 49.6406L9.94326 49.3438C9.94326 49.3438 9.61066 49.5975 9.54506 49.6268C9.47946 49.6562 9.38976 49.7489 9.30218 49.7879C9.21477 49.8269 9.02765 49.9368 8.87463 50.0054C8.72162 50.0737 8.57074 50.0887 8.46381 50.0841C8.35672 50.0795 8.15254 50.0921 8.05529 50.1093C7.95804 50.1265 7.75369 50.1392 7.75369 50.1392C7.75369 50.1392 7.66628 50.1782 7.78485 49.9153C7.90342 49.6524 8.2206 49.012 8.2206 49.012C8.2206 49.012 8.4197 48.8705 8.4853 48.8411C8.5509 48.8118 8.94909 48.5287 8.94909 48.5287L9.15802 48.409C9.15802 48.409 8.95614 48.3681 9.02404 48.2853C9.09193 48.2025 9.41304 48.2163 9.49816 48.2307C9.58328 48.2451 9.43207 48.0241 9.43207 48.0241L9.641 47.9043C9.56048 47.783 9.37008 47.4745 9.37008 47.4745L9.39894 47.3041C9.39894 47.3041 9.34023 47.1729 9.26725 47.1268C9.19427 47.0807 9.19427 47.0807 9.19427 47.0807C9.19427 47.0807 9.5636 46.9681 9.71218 47.0066C9.8606 47.0452 10.031 47.074 10.1794 47.1126C10.3278 47.1511 10.4861 47.2116 10.6029 47.238C10.7196 47.2644 10.8997 47.3151 10.9751 47.3077C11.0506 47.3002 11.1651 47.3802 11.2963 47.3217C11.4275 47.2629 11.6853 47.2526 11.8965 47.0794C12.1077 46.9062 12.8461 46.4449 12.9576 46.3426C13.0693 46.2402 13.4553 45.9888 13.5865 45.9301C13.7177 45.8714 14.0721 45.608 14.0721 45.608C14.0721 45.608 13.506 45.8088 13.1947 45.8168C12.8834 45.8248 11.9421 45.7735 11.9421 45.7735C11.9421 45.7735 11.4703 45.7746 11.3437 45.7263C11.217 45.6779 10.7475 45.6254 10.7475 45.6254C10.7475 45.6254 10.4316 45.7404 10.3441 45.7796C10.2567 45.8188 10.2083 45.9452 10.1381 46.0817C10.0679 46.2181 10.1191 46.2739 9.99541 46.4078C9.87175 46.5418 9.51948 46.7519 9.51948 46.7519C9.51948 46.7519 9.43207 46.791 9.32268 46.84C9.21329 46.8889 9.04306 46.86 9.04306 46.86L9.14212 46.5533L8.84528 46.4762L8.91776 46.2863C8.91776 46.2863 8.92236 46.1792 8.76656 46.0654C8.61059 45.9514 8.27177 45.6044 8.27177 45.6044L8.07448 45.4565" stroke="#263238" stroke-width="0.1" stroke-miterlimit="10" stroke-linecap="round" stroke-linejoin="round"/>
<path d="M11.2168 45.4422C11.2168 45.4422 11.3106 45.4511 11.4385 45.4637C11.6424 45.4839 11.9331 45.5136 12.0706 45.5328C12.2944 45.5639 12.6057 45.5559 12.7225 45.5823C12.8392 45.6087 13.0216 45.6059 13.1189 45.5887C13.2161 45.5715 13.3985 45.5687 13.3985 45.5687L12.5395 45.3493L11.9169 45.3653L11.9215 45.2582L11.4887 45.3468L11.2168 45.4422Z" stroke="#263238" stroke-width="0.1" stroke-miterlimit="10" stroke-linecap="round" stroke-linejoin="round"/>
<path d="M13.3243 44.0535L13.5073 44.2865L13.2034 44.37L13.3789 44.5278L13.2748 44.7056L13.3628 44.9024L13.616 44.9991L13.8525 45.2345L14.2755 45.1241C14.2755 45.1241 13.7461 45.4657 13.6534 45.376C13.5608 45.2863 12.7651 45.0911 12.7651 45.0911C12.7651 45.0911 12.5988 44.7193 12.6811 44.5514C12.7634 44.3835 12.8774 44.2275 12.9988 44.147C13.1199 44.0661 13.3243 44.0535 13.3243 44.0535ZM13.3243 44.0535L12.8859 43.7773L13.2064 43.5553L12.9169 43.5535" stroke="#263238" stroke-width="0.1" stroke-miterlimit="10" stroke-linecap="round" stroke-linejoin="round"/>
<path d="M15.1038 44.8059C15.1038 44.8059 14.7827 44.792 14.6728 44.605C14.5629 44.418 14.3847 44.0779 14.3847 44.0779L14.4634 44.4887L13.4082 43.5961L14.3712 44.6348L13.7319 44.7895C13.7319 44.7895 14.3884 44.7321 14.4639 44.7246C14.5393 44.717 14.7366 44.8649 14.7366 44.8649L14.8827 44.9569L14.477 45.1646" stroke="#263238" stroke-width="0.1" stroke-miterlimit="10" stroke-linecap="round" stroke-linejoin="round"/>
<path d="M12.7656 45.0909C12.7656 45.0909 12.3911 45.0747 12.3324 44.9435C12.2736 44.8123 12.355 44.1725 12.355 44.1725C12.355 44.1725 12.1467 44.5281 12.142 44.6352C12.1374 44.7423 12.1644 44.8613 12.1644 44.8613C12.1644 44.8613 11.5673 44.2888 11.4891 44.1138C11.4108 43.9388 11.2344 43.3094 11.2344 43.3094C11.2344 43.3094 11.4333 44.165 11.5017 44.3182C11.5701 44.4712 11.6604 44.6145 11.7652 44.6726C11.8699 44.7306 12.004 44.8544 12.0868 44.9223C12.1697 44.9902 12.294 45.0921 12.3791 45.1065C12.4642 45.1209 12.6835 45.259 12.6835 45.259" stroke="#263238" stroke-width="0.1" stroke-miterlimit="10" stroke-linecap="round" stroke-linejoin="round"/>
<path d="M10.5846 45.4364C10.5846 45.4364 9.74507 45.2607 9.6283 45.2343C9.51154 45.2079 9.08104 45.2428 9.00806 45.1968C8.93508 45.1507 8.55574 45.2415 8.48047 45.2491" stroke="#263238" stroke-width="0.1" stroke-miterlimit="10" stroke-linecap="round" stroke-linejoin="round"/>
<path d="M10.2945 45.4345C10.2945 45.4345 9.97633 45.6031 9.74788 45.679C9.51942 45.755 9.33984 45.9401 9.33984 45.9401" stroke="#263238" stroke-width="0.1" stroke-miterlimit="10" stroke-linecap="round" stroke-linejoin="round"/>
<path d="M8.98438 45.7319C8.98438 45.7319 9.33648 45.522 9.39241 45.4708C9.44817 45.4196 9.64497 45.3316 9.64497 45.3316L9.77387 45.3263L9.87112 45.3091" stroke="#263238" stroke-width="0.1" stroke-miterlimit="10" stroke-linecap="round" stroke-linejoin="round"/>
<path d="M8.70703 49.4511C8.70703 49.4511 9.40846 48.8487 9.84585 48.6532C10.2832 48.4577 10.5865 48.1384 10.7638 48.0066C10.941 47.8749 11.4945 47.4698 11.5601 47.4404" stroke="#263238" stroke-width="0.1" stroke-miterlimit="10" stroke-linecap="round" stroke-linejoin="round"/>
<path d="M10.8619 47.9359C10.8619 47.9359 10.855 48.0964 10.7997 48.3836C10.7444 48.6707 10.711 48.9481 10.6454 48.9774C10.5798 49.0068 10.3398 49.3502 10.3398 49.3502" stroke="#263238" stroke-width="0.1" stroke-miterlimit="10" stroke-linecap="round" stroke-linejoin="round"/>
<path d="M9.84529 48.6532C9.84529 48.6532 9.7095 48.8188 9.61733 48.965C9.52516 49.1111 9.4043 49.4276 9.4043 49.4276" stroke="#263238" stroke-width="0.1" stroke-miterlimit="10" stroke-linecap="round" stroke-linejoin="round"/>
<path d="M11.0979 47.6994C11.0979 47.6994 10.7671 47.6636 10.5749 47.6446C10.3827 47.6256 10.2003 47.6284 10.0957 47.5703" stroke="#263238" stroke-width="0.1" stroke-miterlimit="10" stroke-linecap="round" stroke-linejoin="round"/>
<path d="M9.18555 51.9914L9.63786 51.9466L10.2761 51.3201C10.2761 51.3201 10.5846 51.1297 10.6306 51.0566C10.6766 50.9836 10.9649 50.5134 10.9649 50.5134L11.2269 50.1602L11.0227 50.1728L11.2506 49.861L11.425 49.547L11.578 49.4786L11.1499 49.4601L11.2369 49.185L11.3825 49.0412C11.3825 49.0412 11.3536 49.2116 11.021 49.4651C10.6884 49.7188 10.2809 50.2159 10.201 50.3304C10.121 50.4449 9.98062 50.7176 9.9224 50.8224C9.86434 50.927 9.8527 51.1947 9.79694 51.2458C9.74118 51.297 9.6272 51.453 9.6272 51.453" stroke="#263238" stroke-width="0.1" stroke-miterlimit="10" stroke-linecap="round" stroke-linejoin="round"/>
<path d="M7.92188 51.2185L8.25726 51.1471C8.25726 51.1471 9.28504 50.6876 9.59107 50.5507C9.89726 50.4137 10.4991 49.8822 10.4991 49.8822C10.4991 49.8822 9.9599 50.202 9.7021 50.2123C9.44429 50.2227 8.79764 50.302 8.79764 50.302L8.58132 50.3463" stroke="#263238" stroke-width="0.1" stroke-miterlimit="10" stroke-linecap="round" stroke-linejoin="round"/>
<path d="M10.5 49.8824C10.5 49.8824 10.908 49.6213 11.2377 49.1852C11.5675 48.7492 11.7613 48.4787 12.315 48.0738C12.8685 47.6689 13.2841 47.4831 13.6557 47.3168C14.0275 47.1505 14.5424 46.894 14.5982 46.8428C14.654 46.7917 14.8922 46.7375 15.0453 46.6691C15.1983 46.6008 15.4607 46.4833 15.5384 46.4223C15.6161 46.3613 16.1116 46.061 16.1116 46.061C16.1116 46.061 15.1904 46.2893 15.0638 46.2409C14.9372 46.1926 14.4654 46.1937 14.4654 46.1937L14.2053 46.2575L13.9791 46.28" stroke="#263238" stroke-width="0.1" stroke-miterlimit="10" stroke-linecap="round" stroke-linejoin="round"/>
<path d="M12.9587 46.3429C12.9587 46.3429 12.1705 46.2232 11.9443 46.2455C11.7182 46.268 10.9091 46.6298 10.7901 46.6567C10.671 46.6835 10.2676 46.8379 10.2676 46.8379L10.4919 47.1049" stroke="#263238" stroke-width="0.1" stroke-miterlimit="10" stroke-linecap="round" stroke-linejoin="round"/>
<path d="M9.99609 46.408L10.1498 46.5755C10.1498 46.5755 10.9807 46.2038 11.2822 46.174C11.5836 46.1441 12.0504 46.0141 12.2839 46.067C12.5174 46.12 12.9916 46.0654 12.9916 46.0654L13.3345 46.0695" stroke="#263238" stroke-width="0.1" stroke-miterlimit="10" stroke-linecap="round" stroke-linejoin="round"/>
<path d="M9.11081 48.2998L9.15574 47.755L8.92729 47.8309L8.91417 47.3907L8.66391 47.4763L8.59765 47.2697L8.25063 47.6087L8.16732 47.3048L7.90032 47.5292L7.70008 47.1989L7.57642 47.333L7.3255 47.1826L7.32846 47.3652L7.05622 47.4606L6.68164 47.4444L6.94748 47.7453" stroke="#263238" stroke-width="0.1" stroke-miterlimit="10" stroke-linecap="round" stroke-linejoin="round"/>
<path d="M8.48555 48.8411C8.48555 48.8411 7.71458 48.8185 7.29671 49.058C6.879 49.2972 6.47852 49.6338 6.47852 49.6338" stroke="#263238" stroke-width="0.1" stroke-miterlimit="10" stroke-linecap="round" stroke-linejoin="round"/>
<path d="M8.5542 48.7583C8.5542 48.7583 8.02595 48.5746 7.7793 48.0815" stroke="#263238" stroke-width="0.1" stroke-miterlimit="10" stroke-linecap="round" stroke-linejoin="round"/>
<path d="M17.5499 49.7471C17.5499 49.7471 17.3802 49.9542 16.9997 50.5704C16.6192 51.1865 16.6174 51.476 16.477 51.7487C16.3366 52.0214 16.3032 52.2987 16.1456 52.4742C15.988 52.6497 15.9199 52.7325 15.9199 52.7325" stroke="#263238" stroke-width="0.1" stroke-miterlimit="10" stroke-linecap="round" stroke-linejoin="round"/>
<path d="M16.9414 50.6752C16.9414 50.6752 16.9621 51.1908 17.2376 51.5135" stroke="#263238" stroke-width="0.1" stroke-miterlimit="10" stroke-linecap="round" stroke-linejoin="round"/>
<path d="M17.463 49.7861C17.463 49.7861 16.4877 49.7763 15.841 49.8555C15.1942 49.9349 14.5233 50.0774 14.5233 50.0774L14.6923 50.6315L14.5497 50.9577L14.4772 51.1477L14.2758 51.3426L14.1056 51.3138L13.8684 51.8397L13.6383 51.2078L13.5283 52.018C13.5283 52.018 13.5048 51.32 13.5117 51.1595C13.5186 50.9989 13.5376 50.8067 13.6078 50.6704C13.678 50.5341 13.7915 50.1422 13.7915 50.1422L13.3725 50.9067L13.1302 51.3038L12.9243 51.6059L12.7275 51.6939L12.624 51.1104L12.2701 51.6098L11.7982 51.611C11.7982 51.611 11.8697 50.9492 11.9399 50.8129C12.0101 50.6766 11.4883 51.0937 11.4883 51.0937C11.4883 51.0937 11.7887 50.592 11.8348 50.5189C11.8809 50.4459 11.939 50.3411 12.0747 50.1755C12.2105 50.0098 12.3585 49.8124 12.3585 49.8124L12.458 49.7417L12.2025 49.6986L12.2871 49.477L11.8561 49.2761L11.5517 49.1236L11.7267 49.0453L11.7141 48.8412L12.0715 48.7601L12.4213 48.6037C12.4213 48.6037 12.3942 48.4846 12.3649 48.419C12.3355 48.3534 12.5082 48.3287 12.6128 48.3869C12.7175 48.4449 12.6979 48.4013 13.034 48.5658C13.37 48.7305 13.6887 48.7979 13.7836 48.8341C13.8786 48.8704 14.168 48.8722 14.168 48.8722C14.168 48.8722 14.3481 48.9228 14.858 48.5374C15.3679 48.152 16.3461 47.3471 16.3461 47.3471C16.3461 47.3471 17.9556 46.0763 19.5853 45.0852C21.215 44.0942 22.2449 43.581 22.5873 43.3491C22.9297 43.1172 23.3353 42.9096 23.3353 42.9096" stroke="#263238" stroke-width="0.1" stroke-miterlimit="10" stroke-linecap="round" stroke-linejoin="round"/>
<path d="M14.4174 50.0193C14.4174 50.0193 14.1591 49.7937 14.4768 49.3892C14.7944 48.9848 16.5943 48.0225 17.6285 47.1664C18.6627 46.3103 22.3926 44.8523 22.8275 44.7103C23.2624 44.5683 23.5347 44.4728 23.5347 44.4728" stroke="#263238" stroke-width="0.1" stroke-miterlimit="10" stroke-linecap="round" stroke-linejoin="round"/>
<path d="M14.6133 45.9962C14.6133 45.9962 16.2325 45.7445 17.3378 45.2239C18.4432 44.7034 19.643 43.9833 20.2962 43.5075" stroke="#263238" stroke-width="0.1" stroke-miterlimit="10" stroke-linecap="round" stroke-linejoin="round"/>
<path d="M20.8662 47.1884C20.8662 47.1884 18.4812 47.5464 17.8834 47.7351C17.2855 47.9237 17.0427 48.0848 17.0427 48.0848L16.8574 48.9023" stroke="#263238" stroke-width="0.1" stroke-miterlimit="10" stroke-linecap="round" stroke-linejoin="round"/>
<path d="M15.3067 49.3071L14.9707 49.1424C14.9707 49.1424 15.7187 48.7029 15.7843 48.6736C15.8499 48.6442 16.0611 48.471 16.0611 48.471L15.8504 48.88L16.1226 48.7846L16.1623 49.108" stroke="#263238" stroke-width="0.1" stroke-miterlimit="10" stroke-linecap="round" stroke-linejoin="round"/>
<path d="M13.7821 48.8339L14.7656 48.1579L13.2344 48.6066" stroke="#263238" stroke-width="0.1" stroke-miterlimit="10" stroke-linecap="round" stroke-linejoin="round"/>
<path d="M19.082 46.307C19.082 46.307 20.4239 46.0218 21.3859 45.5916C22.3481 45.1615 22.5564 44.8059 22.5564 44.8059" stroke="#263238" stroke-width="0.1" stroke-miterlimit="10" stroke-linecap="round" stroke-linejoin="round"/>
<path d="M12.8549 51.6888C12.8549 51.6888 13.104 52.1285 13.0804 52.4277C13.0568 52.7268 13.1477 53.106 13.0193 53.3471C12.8908 53.5881 12.6486 53.9852 12.6486 53.9852L12.6573 53.5352L12.5094 53.7324L12.5027 52.8959L12.243 53.1957L12.1786 53.6969L11.888 54.2205L11.8311 53.7999L11.6561 53.8781L11.5703 53.6278" stroke="#263238" stroke-width="0.1" stroke-miterlimit="10" stroke-linecap="round" stroke-linejoin="round"/>
<path d="M10.6929 53.1287L10.4473 53.1072L10.8012 52.608L10.4484 52.582L11.109 52.1816L11.1598 52.0016L10.9629 52.0896L11.2617 51.8772L11.0815 51.8266L11.4216 51.6483L11.5528 51.5896L11.6938 51.5529" stroke="#263238" stroke-width="0.1" stroke-miterlimit="10" stroke-linecap="round" stroke-linejoin="round"/>
<path d="M14.0613 49.1959C14.0613 49.1959 13.6518 49.5829 13.4691 49.9558C13.2864 50.3288 12.9746 50.9343 12.9746 50.9343" stroke="#263238" stroke-width="0.1" stroke-miterlimit="10" stroke-linecap="round" stroke-linejoin="round"/>
<path d="M13.6521 49.5827C13.6521 49.5827 13.5468 49.5426 13.0817 49.2844C12.6167 49.0263 12.4629 49.0078 12.4629 49.0078" stroke="#263238" stroke-width="0.1" stroke-miterlimit="10" stroke-linecap="round" stroke-linejoin="round"/>
<path d="M13.9731 49.3229C13.9731 49.3229 13.9603 49.6199 14.0663 49.922C14.1722 50.2241 14.2034 50.8801 14.1524 50.9611" stroke="#263238" stroke-width="0.1" stroke-miterlimit="10" stroke-linecap="round" stroke-linejoin="round"/>
<path d="M13.4705 49.9557C13.4705 49.9557 12.9557 50.3024 12.6133 50.5138" stroke="#263238" stroke-width="0.1" stroke-miterlimit="10" stroke-linecap="round" stroke-linejoin="round"/>
<path d="M12.4451 51.899C12.4451 51.899 12.0879 52.7287 11.7673 52.9885C11.4466 53.2484 10.9478 53.5007 10.9478 53.5007L10.7324 53.8008" stroke="#263238" stroke-width="0.1" stroke-miterlimit="10" stroke-linecap="round" stroke-linejoin="round"/>
<path d="M12.3552 52.0856C12.3552 52.0856 11.8914 52.3513 11.6001 52.4815C11.3089 52.6117 11.1875 52.666 11.1875 52.666" stroke="#263238" stroke-width="0.1" stroke-miterlimit="10" stroke-linecap="round" stroke-linejoin="round"/>
<path d="M13.0405 22.7157C13.0405 22.7157 13.0038 22.7341 12.7291 22.6974C12.4542 22.6606 12.6009 22.2943 12.491 22.221C12.3811 22.1477 11.7031 22.2943 11.7031 22.2943C11.7031 22.2943 12.2529 22.2759 12.3078 22.2943C12.3627 22.3126 12.3627 22.679 12.3627 22.7707C12.3627 22.8624 12.7658 22.9722 12.9307 22.9722C13.0955 22.9722 13.2237 22.9906 13.2237 22.9906C13.2237 22.9906 13.1139 23.0272 13.0955 23.2287C13.0771 23.4303 12.9856 23.5402 12.8574 23.5585C12.7291 23.5769 12.3809 23.6868 12.3809 23.8334C12.3809 23.8334 12.5458 23.7235 12.7107 23.7235C12.8756 23.7235 13.1321 23.8152 13.2054 23.687C13.2787 23.5587 13.4069 23.2289 13.4069 23.2289C13.4069 23.2289 13.5717 23.3572 13.7184 23.3572C13.865 23.3572 14.158 23.2473 14.213 23.2105C14.2679 23.174 14.5977 22.8991 14.6161 22.8074C14.6345 22.7157 14.671 22.441 14.671 22.441C14.671 22.441 14.7809 22.1662 14.8908 22.0747C15.0007 21.983 15.1289 21.7816 15.1289 21.6534C15.1289 21.5251 15.074 21.287 15.0007 21.2137C14.9274 21.1404 14.7442 21.0671 14.6892 21.0671C14.6343 21.0671 14.4327 21.0671 14.4327 21.0671C14.4327 21.0671 14.726 21.1769 14.7991 21.2502C14.8724 21.3236 14.8724 21.5067 14.8724 21.5067C14.8724 21.5067 14.7991 21.7632 14.7442 21.8C14.6892 21.8365 14.5794 21.9098 14.5794 21.9098C14.5794 21.9098 14.4877 22.0015 14.4327 22.0565C14.3778 22.1114 14.213 22.2397 14.213 22.2397C14.213 22.2397 14.1031 22.0197 14.1031 21.8549C14.1031 21.6901 14.1031 21.3603 14.1031 21.3053C14.1031 21.2504 14.1215 21.0488 14.1215 21.0488V20.8473L14.0849 20.774C14.0849 20.774 13.865 21.2137 13.8468 21.3053C13.8284 21.397 13.7551 21.5069 13.7002 21.6168C13.6452 21.7267 13.5719 21.9282 13.5719 21.9282L13.517 22.1298C13.3887 22.2764 13.297 22.313 13.297 22.313C13.297 22.313 13.2237 22.1481 13.2237 22.0381C13.2237 21.9281 13.2054 21.7449 13.2237 21.6717C13.2421 21.5984 13.2421 21.3419 13.2421 21.3419C13.2421 21.3419 13.1322 21.5618 13.1139 21.6717C13.0955 21.7816 13.0955 21.8183 13.0589 21.9466C13.0222 22.0748 12.9856 22.1847 12.9856 22.1847C12.9856 22.1847 12.9856 22.2031 12.8939 22.2031C12.8023 22.2031 12.7473 22.1847 12.7473 22.1847L12.6924 21.9466C12.6924 21.9466 12.5458 21.8367 12.4542 21.7634C12.3626 21.6901 12.1978 21.5802 12.1978 21.452C12.1978 21.3237 12.3076 20.9755 12.3076 20.9755C12.3076 20.9755 12.1061 21.3237 12.0877 21.4885C12.0693 21.6534 12.2527 21.9282 12.3442 21.965C12.4359 22.0015 12.4724 22.0748 12.5641 22.1665C12.6558 22.2582 12.8023 22.4046 12.839 22.4597C12.8756 22.5142 13.0405 22.7157 13.0405 22.7157Z" stroke="#263238" stroke-width="0.1" stroke-miterlimit="10" stroke-linecap="round" stroke-linejoin="round"/>
<path d="M14.5979 22.8807C14.5979 22.8807 14.5979 22.7159 14.5795 22.5876C14.5611 22.4594 14.5428 22.0746 14.5428 22.0746C14.5428 22.0746 14.2863 22.7892 14.213 22.9724C14.1397 23.1556 14.0481 23.2289 13.9199 23.1923C13.8805 23.181 13.8377 23.1646 13.7974 23.1472C13.6957 23.1036 13.6316 23.0019 13.6372 22.8912C13.6413 22.8112 13.645 22.7174 13.645 22.6426C13.645 22.4778 13.5352 22.2029 13.5352 22.2029C13.5352 22.2029 13.6268 22.0746 13.7367 22.148C13.8466 22.2213 13.9932 22.6977 14.0116 22.8441C14.0299 22.9908 14.0116 23.1556 14.0116 23.1556" stroke="#263238" stroke-width="0.1" stroke-miterlimit="10" stroke-linecap="round" stroke-linejoin="round"/>
<path d="M13.8827 21.2133C13.8827 21.2133 13.0583 21.1767 12.3438 21.6714" stroke="#263238" stroke-width="0.1" stroke-miterlimit="10" stroke-linecap="round" stroke-linejoin="round"/>
<path d="M12.1057 21.7995C12.1057 21.7995 11.7393 22.056 11.666 22.1659C11.5927 22.2758 11.5194 22.404 11.5194 22.404C11.5194 22.404 11.098 22.6239 10.8781 22.8437C10.6582 23.0636 10.4017 23.6681 10.3468 24.3277C10.2918 24.9873 10.4017 25.5369 10.4934 25.7019C10.5851 25.8669 10.7315 26.1416 10.7315 26.1416C10.7315 26.1416 10.9514 27.0942 11.6109 27.644C12.2705 28.1935 13.1682 28.5417 14.7438 28.3036C16.3195 28.0655 16.8325 27.8272 17.5469 27.131C18.2614 26.4348 18.5363 25.592 18.5363 24.7308C18.5363 23.8697 18.2432 22.8986 18.0782 22.6056C17.9132 22.3125 17.7484 22.0742 17.6935 22.0376C17.6385 22.0011 17.1988 21.3415 16.2644 21.0117C15.3301 20.6818 14.7438 20.7735 14.5055 20.865C14.2673 20.9567 14.1207 21.0482 14.1207 21.0482" stroke="#263238" stroke-width="0.1" stroke-miterlimit="10" stroke-linecap="round" stroke-linejoin="round"/>
<path d="M13.1465 25.0975C13.1463 25.1736 13.1476 25.253 13.1508 25.3358" stroke="#263238" stroke-width="0.1" stroke-miterlimit="10" stroke-linecap="round" stroke-linejoin="round"/>
<path d="M13.5894 23.4487C13.5894 23.4487 13.1993 23.7665 13.1504 24.8769" stroke="#263238" stroke-width="0.1" stroke-miterlimit="10" stroke-linecap="round" stroke-linejoin="round"/>
<path d="M15.8984 23.3723C15.9826 23.4506 16.0628 23.5425 16.1361 23.6502" stroke="#263238" stroke-width="0.1" stroke-miterlimit="10" stroke-linecap="round" stroke-linejoin="round"/>
<path d="M14.5234 22.9357C14.5234 22.9357 15.1248 22.8497 15.67 23.1959" stroke="#263238" stroke-width="0.1" stroke-miterlimit="10" stroke-linecap="round" stroke-linejoin="round"/>
<path d="M13.1128 23.1371C13.1128 23.1371 12.1601 23.0272 11.3906 23.7599" stroke="#263238" stroke-width="0.1" stroke-miterlimit="10" stroke-linecap="round" stroke-linejoin="round"/>
<path d="M15.6758 21.6896C15.8285 21.633 16 21.5878 16.1909 21.5615" stroke="#263238" stroke-width="0.1" stroke-miterlimit="10" stroke-linecap="round" stroke-linejoin="round"/>
<path d="M14.6699 22.4409C14.6699 22.4409 14.9343 22.0179 15.5272 21.7504" stroke="#263238" stroke-width="0.1" stroke-miterlimit="10" stroke-linecap="round" stroke-linejoin="round"/>
<path d="M13.5352 22.2028C13.5352 22.2028 13.645 22.3494 13.7733 22.3126C13.9015 22.2761 13.7367 22.1478 13.7367 22.1478" stroke="#263238" stroke-width="0.1" stroke-miterlimit="10" stroke-linecap="round" stroke-linejoin="round"/>
<path d="M12.9844 22.1844C12.9844 22.1844 13.0027 22.1478 13.0761 22.2761C13.1494 22.4043 13.131 22.5142 13.1859 22.5691C13.2409 22.6241 13.479 22.8073 13.479 22.8073" stroke="#263238" stroke-width="0.1" stroke-miterlimit="10" stroke-linecap="round" stroke-linejoin="round"/>
<path d="M14.2122 22.2393C14.2122 22.2393 14.2488 22.2577 14.2488 22.331C14.2488 22.4043 14.084 22.6059 14.084 22.6059" stroke="#263238" stroke-width="0.1" stroke-miterlimit="10" stroke-linecap="round" stroke-linejoin="round"/>
<path d="M13.7372 34.0501C13.7372 34.0501 13.7818 33.2001 12.8253 32.7094C11.8689 32.2187 10.5367 32.1051 9.80821 32.4742C9.07972 32.8434 8.50359 33.5614 8.58838 34.4726C8.67333 35.3838 9.20436 36.1885 9.94941 36.54C10.6943 36.8914 12.4256 36.243 13.1163 35.6183C13.8069 34.9936 13.7372 34.0501 13.7372 34.0501Z" stroke="#263238" stroke-width="0.1" stroke-miterlimit="10" stroke-linecap="round" stroke-linejoin="round"/>
<path d="M16.0285 30.6174C16.0285 30.6174 12.8641 30.9463 10.7974 31.6344C8.73067 32.3225 7.39784 32.8818 6.77579 33.6969C6.15373 34.5121 5.59203 35.8705 5.83541 36.6981C6.07862 37.5254 6.51257 38.2844 7.85212 38.7184C9.19167 39.1523 11.075 38.8529 12.2649 38.3449C13.4547 37.837 15.6503 35.7844 16.1997 35.2913C16.7491 34.7981 17.6633 33.4476 17.9383 32.8646C18.2133 32.2815 18.2481 31.7041 17.692 31.2042C17.1358 30.7042 16.0285 30.6174 16.0285 30.6174Z" stroke="#263238" stroke-width="0.1" stroke-miterlimit="10" stroke-linecap="round" stroke-linejoin="round"/>
<path d="M6.0918 37.4131C6.0918 37.4131 6.47556 38.782 8.11392 39.6735C9.75228 40.5652 12.5603 40.0683 13.8326 38.9659C15.1049 37.8634 16.9363 35.9952 17.7155 34.3433C18.4946 32.6915 18.2496 31.784 18.0192 31.517" stroke="#263238" stroke-width="0.1" stroke-miterlimit="10" stroke-linecap="round" stroke-linejoin="round"/>
<path d="M14.385 31.1898C13.7064 31.2977 12.9914 31.4391 12.3329 31.5672C11.0252 31.8214 9.75153 32.171 8.81722 32.6409C7.88275 33.1109 7.03225 33.739 6.98633 33.8363" stroke="#263238" stroke-width="0.1" stroke-miterlimit="10" stroke-linecap="round" stroke-linejoin="round"/>
<path d="M16.6847 34.1246C17.0409 33.7626 17.6384 33.0596 17.7032 32.3573C17.7801 31.5226 17.224 31.0227 16.1986 31.0142C15.8323 31.011 15.4014 31.0484 14.9395 31.1091" stroke="#263238" stroke-width="0.1" stroke-miterlimit="10" stroke-linecap="round" stroke-linejoin="round"/>
<path d="M15.9297 34.9093C16.094 34.7342 16.2334 34.5825 16.3387 34.47" stroke="#263238" stroke-width="0.1" stroke-miterlimit="10" stroke-linecap="round" stroke-linejoin="round"/>
<path d="M12.5547 37.5933C12.8525 37.4337 13.1341 37.2755 13.3894 37.1338C14.137 36.7187 15.0211 35.8597 15.6649 35.1884" stroke="#263238" stroke-width="0.1" stroke-miterlimit="10" stroke-linecap="round" stroke-linejoin="round"/>
<path d="M6.88478 34.2231C6.88478 34.2231 5.92718 35.0781 6.1166 36.3553C6.30602 37.6325 7.67001 38.4343 8.9889 38.6603C9.93239 38.822 11.1478 38.3217 12.2148 37.7728" stroke="#263238" stroke-width="0.1" stroke-miterlimit="10" stroke-linecap="round" stroke-linejoin="round"/>
<path d="M4.0422 11.4837C4.0422 11.4837 2.7261 11.7215 2.41565 11.709C2.10504 11.6966 1.78704 11.6113 1.75555 11.8798C1.72406 12.1481 1.72406 12.1481 1.72406 12.1481C1.72406 12.1481 1.47888 12.0552 1.36294 12.3618C1.24699 12.6681 1.80442 13.5096 2.57719 14.1523C3.34996 14.795 4.58898 15.9643 5.35847 16.4306C6.12796 16.8968 8.24159 17.9768 8.24159 17.9768C8.24159 17.9768 8.71538 18.5764 8.89086 18.853C9.06651 19.1297 9.60492 19.9289 9.60148 19.7524C9.5982 19.5759 9.62706 18.8512 9.62706 18.8512L9.25691 18.2557C9.25691 18.2557 11.6098 18.7956 12.0315 18.885C12.4529 18.9744 13.0204 19.049 13.0204 19.049L13.9306 19.8838C13.9306 19.8838 14.787 19.4721 15.24 19.2932C15.6929 19.1143 16.9816 19.0413 16.9816 19.0413L17.0512 18.8575L18.2579 19.2789C18.2579 19.2789 18.9951 20.2934 19.5186 20.947C20.042 21.6004 20.7766 22.1586 20.7766 22.1586C20.7766 22.1586 20.4402 20.455 20.3226 20.0251C20.2051 19.5953 20.0799 19.0926 20.0799 19.0926C20.0799 19.0926 21.7239 18.1733 21.9476 17.7674C22.1713 17.3615 22.6639 16.7073 22.6639 16.7073C22.6639 16.7073 20.4609 17.3451 20.012 17.4205C19.5632 17.4959 19.1325 17.8935 18.6497 17.7808C18.1669 17.6681 16.6851 16.8624 16.2569 16.4201C15.8287 15.9778 13.3108 14.1144 12.9589 13.8412C12.6069 13.5678 12.4156 13.4255 12.4156 13.4255L13.0102 13.3351C13.0102 13.3351 12.4867 12.6816 12.1778 12.1094C11.8688 11.537 11.7056 10.9499 11.7056 10.9499L11.6833 10.7313L9.64346 11.9563C9.64346 11.9563 7.50162 11.3212 6.1865 11.279C4.87139 11.2369 4.0422 11.4837 4.0422 11.4837Z" stroke="#263238" stroke-width="0.1" stroke-miterlimit="10" stroke-linecap="round" stroke-linejoin="round"/>
<path d="M3.02692 12.2209C3.0653 12.1194 3.01413 12.0059 2.91261 11.9675C2.8111 11.9291 2.69761 11.9803 2.65924 12.0818C2.62086 12.1833 2.67203 12.2968 2.77354 12.3352C2.87506 12.3736 2.98855 12.3224 3.02692 12.2209Z" fill="#263238"/>
<path d="M5.52979 12.2158C5.57161 12.2875 5.59359 12.3856 5.57784 12.5197C5.51487 13.0563 5.2856 14.1256 4.93185 14.4123C4.57826 14.6989 3.95703 14.674 3.95703 14.674" stroke="#263238" stroke-width="0.1" stroke-miterlimit="10" stroke-linecap="round" stroke-linejoin="round"/>
<path d="M5.09961 12.0238C5.09961 12.0238 5.27066 12.011 5.40924 12.0953" stroke="#263238" stroke-width="0.1" stroke-miterlimit="10" stroke-linecap="round" stroke-linejoin="round"/>
<path d="M4.78711 14.8836C4.78711 14.8836 5.5689 15.0392 6.41957 15.291C7.27023 15.5427 6.98602 15.6454 6.66393 15.6638C6.34183 15.682 5.82326 15.9412 5.52839 15.7946C5.23352 15.648 4.8286 15.1445 4.8286 15.1445" stroke="#263238" stroke-width="0.1" stroke-miterlimit="10" stroke-linecap="round" stroke-linejoin="round"/>
<path d="M3.93028 12.8324C3.93488 12.6717 3.91602 12.5571 3.91602 12.5571" stroke="#263238" stroke-width="0.1" stroke-miterlimit="10" stroke-linecap="round" stroke-linejoin="round"/>
<path d="M1.72409 12.1481C1.72409 12.1481 1.59649 12.4851 1.97091 12.9771C2.34532 13.4691 2.71301 13.6082 2.71301 13.6082C2.71301 13.6082 3.195 14.0008 3.61419 13.6337C3.73276 13.5299 3.80836 13.3987 3.85592 13.2639" stroke="#263238" stroke-width="0.1" stroke-miterlimit="10" stroke-linecap="round" stroke-linejoin="round"/>
<path d="M2.70508 13.8153C2.70508 13.8153 3.34369 14.4423 3.79256 14.3668C4.24143 14.2914 4.48579 13.3679 4.41789 12.992" stroke="#263238" stroke-width="0.1" stroke-miterlimit="10" stroke-linecap="round" stroke-linejoin="round"/>
<path d="M10.6562 11.8086L10.1523 12.1238" stroke="#263238" stroke-width="0.1" stroke-miterlimit="10" stroke-linecap="round" stroke-linejoin="round"/>
<path d="M11.7749 11.1078L10.8457 11.6892" stroke="#263238" stroke-width="0.1" stroke-miterlimit="10" stroke-linecap="round" stroke-linejoin="round"/>
<path d="M13.3496 19.0105C13.3496 19.0105 16.3031 18.7968 16.5791 18.8078" stroke="#263238" stroke-width="0.1" stroke-miterlimit="10" stroke-linecap="round" stroke-linejoin="round"/>
<path d="M10.9573 12.0741L10.5586 12.3349" stroke="#263238" stroke-width="0.1" stroke-miterlimit="10" stroke-linecap="round" stroke-linejoin="round"/>
<path d="M11.889 11.4647L11.2168 11.904" stroke="#263238" stroke-width="0.1" stroke-miterlimit="10" stroke-linecap="round" stroke-linejoin="round"/>
<path d="M11.1682 12.4479L10.9453 12.596" stroke="#263238" stroke-width="0.1" stroke-miterlimit="10" stroke-linecap="round" stroke-linejoin="round"/>
<path d="M12.0159 11.8848L11.4355 12.2704" stroke="#263238" stroke-width="0.1" stroke-miterlimit="10" stroke-linecap="round" stroke-linejoin="round"/>
<path d="M12.2377 12.2834L11.4277 12.8356" stroke="#263238" stroke-width="0.1" stroke-miterlimit="10" stroke-linecap="round" stroke-linejoin="round"/>
<path d="M12.0089 12.9853L11.8398 13.1062" stroke="#263238" stroke-width="0.1" stroke-miterlimit="10" stroke-linecap="round" stroke-linejoin="round"/>
<path d="M12.4692 12.6568L12.125 12.9031" stroke="#263238" stroke-width="0.1" stroke-miterlimit="10" stroke-linecap="round" stroke-linejoin="round"/>
<path d="M12.6685 12.9613L12.1914 13.2388" stroke="#263238" stroke-width="0.1" stroke-miterlimit="10" stroke-linecap="round" stroke-linejoin="round"/>
<path d="M13.6581 19.297L13.5059 19.1454" stroke="#263238" stroke-width="0.1" stroke-miterlimit="10" stroke-linecap="round" stroke-linejoin="round"/>
<path d="M14.1089 19.7457L13.8027 19.4408" stroke="#263238" stroke-width="0.1" stroke-miterlimit="10" stroke-linecap="round" stroke-linejoin="round"/>
<path d="M14.4446 19.615L13.9824 19.0967" stroke="#263238" stroke-width="0.1" stroke-miterlimit="10" stroke-linecap="round" stroke-linejoin="round"/>
<path d="M14.7358 19.5249L14.4395 19.098" stroke="#263238" stroke-width="0.1" stroke-miterlimit="10" stroke-linecap="round" stroke-linejoin="round"/>
<path d="M15.0813 19.3693L14.791 19.002" stroke="#263238" stroke-width="0.1" stroke-miterlimit="10" stroke-linecap="round" stroke-linejoin="round"/>
<path d="M15.391 19.2292L15.207 18.9593" stroke="#263238" stroke-width="0.1" stroke-miterlimit="10" stroke-linecap="round" stroke-linejoin="round"/>
<path d="M15.8779 19.1554L15.75 18.9641" stroke="#263238" stroke-width="0.1" stroke-miterlimit="10" stroke-linecap="round" stroke-linejoin="round"/>
<path d="M22.4944 16.7937L19.8594 17.8576" stroke="#263238" stroke-width="0.1" stroke-miterlimit="10" stroke-linecap="round" stroke-linejoin="round"/>
<path d="M20.9038 17.7339L20.0391 18.068" stroke="#263238" stroke-width="0.1" stroke-miterlimit="10" stroke-linecap="round" stroke-linejoin="round"/>
<path d="M22.2846 17.2004L21.1543 17.6369" stroke="#263238" stroke-width="0.1" stroke-miterlimit="10" stroke-linecap="round" stroke-linejoin="round"/>
<path d="M21.893 17.8541L20.1777 18.3786" stroke="#263238" stroke-width="0.1" stroke-miterlimit="10" stroke-linecap="round" stroke-linejoin="round"/>
<path d="M20.2036 18.6556L20.0059 18.6851" stroke="#263238" stroke-width="0.1" stroke-miterlimit="10" stroke-linecap="round" stroke-linejoin="round"/>
<path d="M21.0354 18.5314L20.5234 18.6077" stroke="#263238" stroke-width="0.1" stroke-miterlimit="10" stroke-linecap="round" stroke-linejoin="round"/>
<path d="M20.1653 19.5471L19.7246 19.1228" stroke="#263238" stroke-width="0.1" stroke-miterlimit="10" stroke-linecap="round" stroke-linejoin="round"/>
<path d="M19.9149 19.7781L19.5449 19.3699" stroke="#263238" stroke-width="0.1" stroke-miterlimit="10" stroke-linecap="round" stroke-linejoin="round"/>
<path d="M20.4132 20.3281L20.0273 19.9022" stroke="#263238" stroke-width="0.1" stroke-miterlimit="10" stroke-linecap="round" stroke-linejoin="round"/>
<path d="M19.8724 20.3403L19.291 19.5884" stroke="#263238" stroke-width="0.1" stroke-miterlimit="10" stroke-linecap="round" stroke-linejoin="round"/>
<path d="M20.6362 21.3281L20.0547 20.5762" stroke="#263238" stroke-width="0.1" stroke-miterlimit="10" stroke-linecap="round" stroke-linejoin="round"/>
<path d="M19.1579 19.9669L18.9238 19.6501" stroke="#263238" stroke-width="0.1" stroke-miterlimit="10" stroke-linecap="round" stroke-linejoin="round"/>
<path d="M20.7771 22.1589L19.3613 20.2413" stroke="#263238" stroke-width="0.1" stroke-miterlimit="10" stroke-linecap="round" stroke-linejoin="round"/>
<path d="M5.42008 15.5153L5.22656 15.3834" stroke="#263238" stroke-width="0.1" stroke-miterlimit="10" stroke-linecap="round" stroke-linejoin="round"/>
<path d="M5.88545 15.8333L5.58008 15.625" stroke="#263238" stroke-width="0.1" stroke-miterlimit="10" stroke-linecap="round" stroke-linejoin="round"/>
<path d="M6.15302 15.7339L5.56836 15.3123" stroke="#263238" stroke-width="0.1" stroke-miterlimit="10" stroke-linecap="round" stroke-linejoin="round"/>
<path d="M6.53843 15.6223L6.04102 15.3482" stroke="#263238" stroke-width="0.1" stroke-miterlimit="10" stroke-linecap="round" stroke-linejoin="round"/>
<path d="M9.58746 19.4378L8.6543 18.1975" stroke="#263238" stroke-width="0.1" stroke-miterlimit="10" stroke-linecap="round" stroke-linejoin="round"/>
<path d="M9.56089 19.0556L8.93359 18.2172" stroke="#263238" stroke-width="0.1" stroke-miterlimit="10" stroke-linecap="round" stroke-linejoin="round"/>
<path d="M55.3253 47.4193H19.538C17.7826 47.4193 16.3594 45.9963 16.3594 44.2407V11.9413C16.3594 10.1859 17.7826 8.7627 19.538 8.7627H55.3253C57.0807 8.7627 58.5039 10.1857 58.5039 11.9413V44.2408C58.5039 45.9963 57.0807 47.4193 55.3253 47.4193Z" fill="white" stroke="#263238" stroke-width="0.1" stroke-miterlimit="10" stroke-linecap="round" stroke-linejoin="round"/>
<path d="M47.215 19.3131C45.9591 19.7971 43.0714 19.6757 43.0714 19.6757H31.7926C31.7926 19.6757 28.9049 19.7971 27.649 19.3131C26.3931 18.8277 25.0114 16.1651 29.4064 13.3798C33.1612 11.001 36.0898 10.919 36.8632 10.9468L36.8617 10.9147C36.8617 10.9147 41.0609 10.5946 45.456 13.3798C49.8512 16.1651 48.4709 18.8277 47.215 19.3131Z" stroke="#263238" stroke-width="0.1" stroke-miterlimit="10" stroke-linecap="round" stroke-linejoin="round"/>
<path d="M45.5358 19.626C44.3222 19.7277 43.0725 19.6752 43.0725 19.6752H31.7926C31.7926 19.6752 30.6971 19.7212 29.5605 19.6441C31.0611 16.8118 34.023 14.87 37.4424 14.8307C37.4785 14.829 37.5162 14.829 37.5523 14.829C41.0127 14.829 44.0155 16.7724 45.5358 19.626Z" stroke="#263238" stroke-width="0.1" stroke-miterlimit="10" stroke-linecap="round" stroke-linejoin="round"/>
<path d="M37.4424 14.8307V19.6752H31.7926C31.7926 19.6752 30.6971 19.7212 29.5605 19.6441C31.0611 16.8118 34.023 14.87 37.4424 14.8307Z" fill="#92E3A9" stroke="#263238" stroke-width="0.1" stroke-miterlimit="10" stroke-linecap="round" stroke-linejoin="round"/>
<path d="M37.4316 11.7059V13.8615" stroke="#263238" stroke-width="0.1" stroke-miterlimit="10" stroke-linecap="round" stroke-linejoin="round"/>
<path d="M31.3555 13.4431L32.4498 15.3099" stroke="#263238" stroke-width="0.1" stroke-miterlimit="10" stroke-linecap="round" stroke-linejoin="round"/>
<path d="M26.9746 17.7502L28.8701 18.8281" stroke="#263238" stroke-width="0.1" stroke-miterlimit="10" stroke-linecap="round" stroke-linejoin="round"/>
<path d="M36.1113 11.6491L36.2456 12.7225" stroke="#263238" stroke-width="0.1" stroke-miterlimit="10" stroke-linecap="round" stroke-linejoin="round"/>
<path d="M34.8477 11.8769L35.0951 12.9306" stroke="#263238" stroke-width="0.1" stroke-miterlimit="10" stroke-linecap="round" stroke-linejoin="round"/>
<path d="M33.6152 12.2336L33.9732 13.256" stroke="#263238" stroke-width="0.1" stroke-miterlimit="10" stroke-linecap="round" stroke-linejoin="round"/>
<path d="M32.4277 12.7151L32.8922 13.6952" stroke="#263238" stroke-width="0.1" stroke-miterlimit="10" stroke-linecap="round" stroke-linejoin="round"/>
<path d="M30.2383 14.0304L30.8995 14.8939" stroke="#263238" stroke-width="0.1" stroke-miterlimit="10" stroke-linecap="round" stroke-linejoin="round"/>
<path d="M29.2598 14.8497L30.0091 15.6404" stroke="#263238" stroke-width="0.1" stroke-miterlimit="10" stroke-linecap="round" stroke-linejoin="round"/>
<path d="M28.373 15.7653L29.2021 16.4745" stroke="#263238" stroke-width="0.1" stroke-miterlimit="10" stroke-linecap="round" stroke-linejoin="round"/>
<path d="M27.5898 16.767L28.4897 17.3871" stroke="#263238" stroke-width="0.1" stroke-miterlimit="10" stroke-linecap="round" stroke-linejoin="round"/>
<path d="M43.4635 13.4431L42.3691 15.3099" stroke="#263238" stroke-width="0.1" stroke-miterlimit="10" stroke-linecap="round" stroke-linejoin="round"/>
<path d="M47.8428 17.7502L45.9473 18.8281" stroke="#263238" stroke-width="0.1" stroke-miterlimit="10" stroke-linecap="round" stroke-linejoin="round"/>
<path d="M38.7064 11.6491L38.5723 12.7225" stroke="#263238" stroke-width="0.1" stroke-miterlimit="10" stroke-linecap="round" stroke-linejoin="round"/>
<path d="M39.9701 11.8769L39.7227 12.9306" stroke="#263238" stroke-width="0.1" stroke-miterlimit="10" stroke-linecap="round" stroke-linejoin="round"/>
<path d="M41.2018 12.2336L40.8438 13.256" stroke="#263238" stroke-width="0.1" stroke-miterlimit="10" stroke-linecap="round" stroke-linejoin="round"/>
<path d="M42.3902 12.7151L41.9258 13.6952" stroke="#263238" stroke-width="0.1" stroke-miterlimit="10" stroke-linecap="round" stroke-linejoin="round"/>
<path d="M44.5792 14.0304L43.918 14.8939" stroke="#263238" stroke-width="0.1" stroke-miterlimit="10" stroke-linecap="round" stroke-linejoin="round"/>
<path d="M45.5579 14.8497L44.8086 15.6404" stroke="#263238" stroke-width="0.1" stroke-miterlimit="10" stroke-linecap="round" stroke-linejoin="round"/>
<path d="M46.4443 15.7653L45.6152 16.4745" stroke="#263238" stroke-width="0.1" stroke-miterlimit="10" stroke-linecap="round" stroke-linejoin="round"/>
<path d="M47.228 16.767L46.3281 17.3871" stroke="#263238" stroke-width="0.1" stroke-miterlimit="10" stroke-linecap="round" stroke-linejoin="round"/>
<path d="M54.8075 9.55334H54.5054L51.6686 16.9516C50.7986 19.2205 48.6198 20.7185 46.1898 20.7185H29.153C26.776 20.7185 24.634 19.2844 23.7281 17.087L20.6227 9.55351H20.0546C18.4896 9.55351 17.2207 10.8222 17.2207 12.3874V43.7952C17.2207 45.3603 18.4894 46.6292 20.0546 46.6292H54.8075C56.3726 46.6292 57.6415 45.3605 57.6415 43.7952V12.3871C57.6413 10.822 56.3726 9.55334 54.8075 9.55334Z" fill="white" stroke="#263238" stroke-width="0.1" stroke-miterlimit="10" stroke-linecap="round" stroke-linejoin="round"/>
<path d="M37.8577 19.6757H36.4497L34.0781 14.5158L37.8577 19.6757Z" fill="#263238" stroke="#263238" stroke-width="0.1" stroke-miterlimit="10" stroke-linecap="round" stroke-linejoin="round"/>
<path d="M37.2713 28.6963C37.2713 28.6963 36.933 30.5385 36.4065 31.3282C35.8803 32.1177 35.3914 32.4937 34.677 32.6065C33.9626 32.7194 32.2708 32.6441 31.7444 33.2456C31.2179 33.8472 29.419 39.4222 29.419 39.4222C29.419 39.4222 28.9623 40.6147 29.3006 41.4043C29.6389 42.1938 30.3533 42.6825 30.9549 42.1187C31.5564 41.5547 33.0227 36.8551 33.0227 36.8551L34.3387 40.6524C34.3387 40.6524 32.6844 43.1714 32.5716 44.1864C32.5716 44.1864 31.594 47.9837 31.8947 50.3899C32.1955 52.7961 34.2258 54.5632 34.1506 56.7062C34.0753 58.8492 32.9099 59.526 32.7971 61.2178C32.6842 62.9096 33.1354 67.3086 33.1354 67.7598C33.1354 68.2109 33.173 68.6245 33.6618 68.7749C34.1507 68.9253 34.5642 68.7374 34.5642 68.7374C34.5642 68.7374 35.0153 66.0304 35.8801 63.9625C36.7449 61.8946 37.196 59.9772 37.5719 57.947C37.9478 55.9167 38.1735 51.9315 38.1735 51.3299C38.1735 50.7284 38.1359 49.7508 38.1359 49.7508L38.6624 49.4876C38.6624 49.4876 38.7375 54.9015 38.9631 56.7437C39.1888 58.5859 39.5647 60.4282 39.5647 60.8793C39.5647 61.3305 39.4896 62.6089 39.7526 63.8495C40.0159 65.0902 40.091 67.91 40.091 67.91C40.091 67.91 39.9781 68.4364 40.1661 68.5867C40.354 68.7371 41.2941 68.6618 41.482 68.6242C41.67 68.5867 41.8203 67.9098 41.8203 67.7594C41.8203 67.6091 42.1211 65.2781 42.5723 63.511C43.0234 61.7439 43.2114 60.9169 43.2114 59.2249C43.2114 57.5331 42.5723 57.1195 42.9857 55.3899C43.3993 53.6604 44.7528 51.8934 44.7528 49.2991C44.7528 46.705 43.7001 44.4114 43.1737 43.6972C43.1737 43.6972 43.5873 42.4565 41.7826 39.9375L42.2713 35.9146C42.2713 35.9146 46.5198 37.6817 47.3094 37.8696C48.0989 38.0576 48.8133 37.2305 48.7382 36.5537C48.6631 35.8769 46.896 34.937 45.7304 34.2979C44.5649 33.6588 43.715 32.5732 42.2863 32.1596C40.8577 31.746 39.9404 32.1924 39.79 32.1924C39.6396 32.1924 39.3013 29.9742 39.3013 29.9742L37.2713 28.6963Z" fill="white" stroke="#263238" stroke-width="0.1" stroke-miterlimit="10" stroke-linecap="round" stroke-linejoin="round"/>
<path d="M39.3016 29.9747L37.2713 28.6963C37.2713 28.6963 37.2497 28.8139 37.209 29.002C37.5221 29.4159 38.7299 30.9705 39.5601 31.4448C39.4277 30.8007 39.3016 29.9747 39.3016 29.9747Z" fill="#263238" stroke="#263238" stroke-width="0.1" stroke-miterlimit="10" stroke-linecap="round" stroke-linejoin="round"/>
<path d="M38.5023 42.0127C38.5023 42.0959 38.4446 42.1633 38.3732 42.1633C38.3019 42.1633 38.2441 42.0959 38.2441 42.0127C38.2441 41.9296 38.3019 41.8622 38.3732 41.8622C38.4446 41.8622 38.5023 41.9296 38.5023 42.0127Z" stroke="#263238" stroke-width="0.1" stroke-miterlimit="10" stroke-linecap="round" stroke-linejoin="round"/>
<path d="M44.7536 49.2994C44.7536 46.7509 43.738 44.4937 43.2032 43.7379C42.4912 44.2394 40.7932 45.1815 38.1366 45.1263C35.25 45.0661 33.2787 44.3091 32.6043 44.0081C32.5897 44.0713 32.5783 44.1313 32.5722 44.1862C32.5722 44.1862 31.5946 47.9835 31.8954 50.3897C32.1961 52.7959 34.2265 54.563 34.1512 56.706C34.0759 58.849 32.9105 59.5258 32.7977 61.2176C32.7606 61.7729 32.7846 62.6202 32.8331 63.5235C33.9052 64.0702 35.2559 63.9433 35.9358 63.8269C36.764 61.8107 37.2049 59.9325 37.5726 57.9467C37.9484 55.9163 38.1741 51.9311 38.1741 51.3296C38.1741 50.728 38.1366 49.7504 38.1366 49.7504L38.663 49.4872C38.663 49.4872 38.7381 54.9012 38.9638 56.7434C39.1894 58.5856 39.5653 60.4278 39.5653 60.879C39.5653 61.3301 39.4902 62.6085 39.7533 63.8492C39.7613 63.8874 39.7693 63.9271 39.777 63.9682C40.0463 63.9709 40.3602 63.9697 40.7309 63.962C41.4477 63.9471 42.0494 63.8488 42.5173 63.7362C42.5357 63.6602 42.5542 63.585 42.5731 63.5108C43.0242 61.7437 43.2122 60.9167 43.2122 59.2247C43.2122 57.5329 42.5731 57.1193 42.9865 55.3897C43.4 53.6607 44.7536 51.8937 44.7536 49.2994Z" fill="#263238" stroke="#263238" stroke-width="0.1" stroke-miterlimit="10" stroke-linecap="round" stroke-linejoin="round"/>
<path d="M41.6329 23.132C41.6329 23.132 38.7003 21.5152 37.3092 21.6281C35.9182 21.7409 33.8127 24.6358 33.5495 26.0269C33.2863 27.4179 34.6398 28.1699 34.7151 28.2827C34.7904 28.3955 33.5871 28.3203 33.6999 29.2226C33.8127 30.1249 35.2414 30.2753 36.0686 30.1249C36.8958 29.9745 37.4596 28.9218 37.4596 28.7714C37.4596 28.621 37.0836 27.6059 37.0836 27.6059C37.0836 27.6059 37.8731 27.681 37.9859 27.0043C38.0987 26.3277 38.7378 24.8236 39.6026 24.7861C40.4674 24.7485 41.144 24.8613 41.2193 25.0493C41.2944 25.2372 41.3697 25.9516 41.3697 25.9516C41.3697 25.9516 42.3473 26.1771 43.1368 25.5004C43.9263 24.8236 44.2271 22.9814 43.1744 22.6055C42.1216 22.2296 41.6329 23.132 41.6329 23.132Z" fill="#263238" stroke="#263238" stroke-width="0.1" stroke-miterlimit="10" stroke-linecap="round" stroke-linejoin="round"/>
<path d="M36.7284 26.982L35.2168 27.8399C35.2168 27.8399 35.7888 28.5344 36.0338 28.6161C36.279 28.6978 36.6875 28.5753 36.6875 28.5753C36.6875 28.5753 37.3821 29.3923 37.9131 29.76C38.4441 30.1277 39.7107 30.8222 40.4053 30.577C41.0998 30.3319 42.1212 28.4934 42.0394 27.8807C41.9577 27.2679 41.59 26.2875 41.6308 25.7971C41.6717 25.3069 41.7533 24.5307 41.7533 24.5307C41.7533 24.5307 40.0782 23.7136 38.7302 24.4899C37.3821 25.2662 37.4638 26.6961 36.7284 26.982Z" fill="white" stroke="#263238" stroke-width="0.1" stroke-miterlimit="10" stroke-linecap="round" stroke-linejoin="round"/>
<path d="M40.4052 26.2466L40.446 26.7368C40.446 26.7368 41.5082 26.8593 41.0997 27.227C40.6912 27.5947 40.1191 27.6764 40.1191 27.6764" stroke="#263238" stroke-width="0.1" stroke-miterlimit="10" stroke-linecap="round" stroke-linejoin="round"/>
<path d="M41.0178 28.3711C41.0178 28.3711 40.2824 28.6163 39.8739 28.6163C39.4653 28.6163 39.0977 28.5346 39.0977 28.5346C39.0977 28.5346 39.4653 28.9023 39.7922 29.1883C40.1191 29.4743 40.5276 29.5152 40.5276 29.5152L40.4867 28.8206L41.0178 28.3711Z" fill="#263238" stroke="#263238" stroke-width="0.1" stroke-miterlimit="10" stroke-linecap="round" stroke-linejoin="round"/>
<path d="M38.4434 25.9198C38.4434 25.9198 38.8519 25.5112 39.3421 25.5521" stroke="#263238" stroke-width="0.1" stroke-miterlimit="10" stroke-linecap="round" stroke-linejoin="round"/>
<path d="M40.5684 25.4296C40.5684 25.4296 40.9769 25.2662 41.3854 25.5929" stroke="#263238" stroke-width="0.1" stroke-miterlimit="10" stroke-linecap="round" stroke-linejoin="round"/>
<path d="M39.1927 26.9084C39.2906 26.9084 39.3699 26.7694 39.3699 26.5979C39.3699 26.4265 39.2906 26.2875 39.1927 26.2875C39.0949 26.2875 39.0156 26.4265 39.0156 26.5979C39.0156 26.7694 39.0949 26.9084 39.1927 26.9084Z" fill="#263238"/>
<path d="M41.0228 26.7203C41.1206 26.7203 41.1999 26.5813 41.1999 26.4098C41.1999 26.2384 41.1206 26.0994 41.0228 26.0994C40.925 26.0994 40.8457 26.2384 40.8457 26.4098C40.8457 26.5813 40.925 26.7203 41.0228 26.7203Z" fill="#263238"/>
<path d="M40.4218 32.0377C40.1988 32.0857 40.0241 32.1364 39.9131 32.1664C40.1153 32.684 40.5071 33.7077 40.6173 34.148C40.7677 34.7496 40.7677 35.0128 40.7677 35.0128C40.7677 35.0128 40.5798 35.4639 38.8127 35.9151C37.0456 36.3663 35.429 35.9151 35.053 35.6519C34.6769 35.3887 34.489 35.2007 34.489 35.2007L35.2991 32.4135C35.1417 32.4914 34.9741 32.5479 34.792 32.5853C34.5024 33.4217 34.0698 34.72 33.8121 35.727C33.5448 36.7717 33.576 37.9254 33.6314 38.6118L34.3386 40.6523C34.3386 40.6523 34.2072 40.8523 34.016 41.1623C35.0354 41.3291 36.8835 41.5921 38.3991 41.5921C40.0519 41.5921 41.5162 40.8618 42.1557 40.4894C42.043 40.3126 41.92 40.1294 41.7827 39.9379L42.2714 35.9149L40.4218 32.0377Z" fill="#DFF000" stroke="#263238" stroke-width="0.1" stroke-miterlimit="10" stroke-linecap="round" stroke-linejoin="round"/>
<path d="M37.6523 39.5349L39.6769 38.5091" stroke="#263238" stroke-width="0.1" stroke-miterlimit="10" stroke-linecap="round" stroke-linejoin="round"/>
<path d="M36.8574 39.9379L37.2208 39.7537" stroke="#263238" stroke-width="0.1" stroke-miterlimit="10" stroke-linecap="round" stroke-linejoin="round"/>
<path d="M39.0761 39.1859L37.4219 40.0882" stroke="#263238" stroke-width="0.1" stroke-miterlimit="10" stroke-linecap="round" stroke-linejoin="round"/>
<path d="M34.3386 68.5118C34.3386 68.5118 34.1507 67.9853 33.7747 67.9478C33.3986 67.9102 32.8348 67.7974 32.6467 68.1357C32.4587 68.474 32.3083 69.1509 32.3083 69.1509C32.3083 69.1509 31.2556 69.9028 30.7669 70.4668C30.2782 71.0308 30.4286 71.4067 30.842 71.7075C31.2556 72.0082 32.2708 72.0458 32.7218 71.8954C33.1729 71.745 33.6241 71.1059 33.6241 71.1059C33.6241 71.1059 34.6393 71.1059 34.7896 70.8051C34.94 70.5044 34.8272 69.3388 34.8272 69.3388C34.8272 69.3388 35.0151 68.9628 34.9776 68.6997C34.94 68.4365 34.7521 68.2861 34.7521 68.2861C34.7521 68.2861 34.5266 68.5118 34.3386 68.5118Z" fill="white" stroke="#263238" stroke-width="0.1" stroke-miterlimit="10" stroke-linecap="round" stroke-linejoin="round"/>
<path d="M32.1947 71.5195C31.591 71.6588 30.9021 71.3824 30.4629 71.1505C30.479 71.3681 30.6226 71.5485 30.8412 71.7075C31.2548 72.0082 32.27 72.0458 32.721 71.8954C33.1722 71.745 33.6233 71.1059 33.6233 71.1059C33.6233 71.1059 34.6385 71.1059 34.7889 70.8051C34.854 70.6748 34.8697 70.382 34.8666 70.0922C34.615 70.2812 34.095 70.6472 33.7362 70.73C33.2474 70.8427 33.1722 71.2939 32.1947 71.5195Z" fill="white" stroke="#263238" stroke-width="0.1" stroke-miterlimit="10" stroke-linecap="round" stroke-linejoin="round"/>
<path d="M40.0913 67.9102C40.0913 67.9102 39.5649 68.3613 39.5649 68.7749C39.5649 69.1885 39.6024 69.7148 39.6024 69.7148C39.6024 69.7148 39.3016 70.73 39.5273 70.9555C39.7528 71.1811 40.2417 71.2938 40.58 71.2938C40.9184 71.2938 41.5199 71.3689 41.5199 71.3689C41.5199 71.3689 42.4222 71.8576 43.2117 72.008C44.0012 72.1584 44.8284 71.9705 44.9036 71.4816C44.9787 70.9929 44.4148 70.5042 44.0763 70.316C43.738 70.1281 43.2116 69.752 43.0612 69.4888C42.9108 69.2256 42.2717 68.6618 42.2717 68.6618C42.2717 68.6618 42.4221 67.8723 41.9709 67.8347C41.5197 67.7972 41.1814 68.4363 41.1814 68.4363C41.1814 68.4363 40.7302 68.3987 40.467 68.3987C40.2038 68.3987 40.0534 68.3987 40.0534 68.3987L40.0913 67.9102Z" fill="white" stroke="#263238" stroke-width="0.1" stroke-miterlimit="10" stroke-linecap="round" stroke-linejoin="round"/>
<path d="M44.9035 71.4818C44.9176 71.3898 44.909 71.2977 44.8836 71.2077C44.6899 71.3655 44.4334 71.5464 44.1515 71.6697C43.55 71.9329 42.7605 71.5193 42.234 71.3314C41.7076 71.1434 41.4821 70.8802 40.6549 70.8427C40.0681 70.8159 39.6528 70.544 39.4603 70.3879C39.4308 70.6272 39.4323 70.8609 39.5269 70.9555C39.7524 71.1811 40.2413 71.2938 40.5796 71.2938C40.9179 71.2938 41.5195 71.3689 41.5195 71.3689C41.5195 71.3689 42.4218 71.8576 43.2113 72.008C44.001 72.1586 44.8282 71.9706 44.9035 71.4818Z" fill="white" stroke="#263238" stroke-width="0.1" stroke-miterlimit="10" stroke-linecap="round" stroke-linejoin="round"/>
<path d="M27.0285 35.072C27.6011 34.4994 27.6011 33.5709 27.0285 32.9983C26.4559 32.4257 25.5274 32.4257 24.9548 32.9983C24.3822 33.5709 24.3822 34.4994 24.9548 35.072C25.5274 35.6446 26.4559 35.6446 27.0285 35.072Z" fill="#263238" stroke="#263238" stroke-width="0.1" stroke-miterlimit="10" stroke-linecap="round" stroke-linejoin="round"/>
<path d="M27.3086 33.7719L27.6846 33.2079C27.6846 33.2079 28.0607 33.3583 28.3615 33.4336C28.6622 33.5087 28.963 33.4712 28.8502 33.6593C28.7374 33.8472 28.2486 33.9976 28.0607 33.9976C27.8726 33.9974 27.3086 33.7719 27.3086 33.7719Z" fill="white" stroke="#263238" stroke-width="0.1" stroke-miterlimit="10" stroke-linecap="round" stroke-linejoin="round"/>
<path d="M31.5193 41.1034C31.5193 41.1034 31.5568 41.3666 31.4442 41.8553C31.3313 42.3441 30.7675 43.0209 30.5043 43.096C30.2411 43.1711 29.5268 43.0209 29.1132 42.1937C28.6996 41.3665 27.7597 38.5844 27.7597 38.5844C27.7597 38.5844 26.5566 35.4638 26.5566 35.2383C26.5566 35.0128 27.1206 33.584 27.1206 33.584C27.1206 33.584 27.0831 33.3961 27.3086 33.4336C27.5342 33.4712 27.9101 33.7344 27.9101 33.7344L28.9253 34.148C28.9253 34.148 29.2261 34.3737 29.1885 34.6744C29.151 34.9752 29.0006 35.3511 29.0006 35.3511C29.0006 35.3511 28.963 35.8775 28.8877 36.1783C28.8126 36.4791 28.4366 37.3063 28.4366 37.3063C28.4366 37.3063 29.0381 38.5845 29.5646 39.2989C30.0908 40.0133 31.1813 40.7277 31.1813 40.7277" fill="white"/>
<path d="M31.5193 41.1034C31.5193 41.1034 31.5568 41.3666 31.4442 41.8553C31.3313 42.3441 30.7675 43.0209 30.5043 43.096C30.2411 43.1711 29.5268 43.0209 29.1132 42.1937C28.6996 41.3665 27.7597 38.5844 27.7597 38.5844C27.7597 38.5844 26.5566 35.4638 26.5566 35.2383C26.5566 35.0128 27.1206 33.584 27.1206 33.584C27.1206 33.584 27.0831 33.3961 27.3086 33.4336C27.5342 33.4712 27.9101 33.7344 27.9101 33.7344L28.9253 34.148C28.9253 34.148 29.2261 34.3737 29.1885 34.6744C29.151 34.9752 29.0006 35.3511 29.0006 35.3511C29.0006 35.3511 28.963 35.8775 28.8877 36.1783C28.8126 36.4791 28.4366 37.3063 28.4366 37.3063C28.4366 37.3063 29.0381 38.5845 29.5646 39.2989C30.0908 40.0133 31.1813 40.7277 31.1813 40.7277" stroke="#263238" stroke-width="0.1" stroke-miterlimit="10" stroke-linecap="round" stroke-linejoin="round"/>
<path d="M27.7598 33.6967C27.7598 33.6967 27.1582 34.5237 27.1582 35.1253" stroke="#263238" stroke-width="0.1" stroke-miterlimit="10" stroke-linecap="round" stroke-linejoin="round"/>
<path d="M28.3609 34.0352C28.3609 34.0352 27.8344 34.7495 27.7969 35.2007" stroke="#263238" stroke-width="0.1" stroke-miterlimit="10" stroke-linecap="round" stroke-linejoin="round"/>
<path d="M29.0009 34.2982C29.0009 34.2982 28.5497 34.8622 28.3242 35.3134" stroke="#263238" stroke-width="0.1" stroke-miterlimit="10" stroke-linecap="round" stroke-linejoin="round"/>
<path d="M30.5491 36.3475C31.3484 36.2175 31.8909 35.4641 31.7609 34.6648C31.6308 33.8655 30.8774 33.3229 30.0781 33.453C29.2788 33.583 28.7363 34.3364 28.8664 35.1357C28.9964 35.935 29.7498 36.4776 30.5491 36.3475Z" fill="#263238" stroke="#263238" stroke-width="0.1" stroke-miterlimit="10" stroke-linecap="round" stroke-linejoin="round"/>
<path d="M43.8888 30.0623C44.6709 30.0623 45.3049 29.4563 45.3049 28.7088C45.3049 27.9613 44.6709 27.3553 43.8888 27.3553C43.1067 27.3553 42.4727 27.9613 42.4727 28.7088C42.4727 29.4563 43.1067 30.0623 43.8888 30.0623Z" fill="#92E3A9" stroke="#263238" stroke-width="0.1" stroke-miterlimit="10" stroke-linecap="round" stroke-linejoin="round"/>
<path d="M44.0762 27.4055L44.2516 26.6034H44.5273L44.3268 27.4055H44.0762Z" fill="#8C8C8C" stroke="#263238" stroke-width="0.1" stroke-miterlimit="10" stroke-linecap="round" stroke-linejoin="round"/>
<path d="M44.1272 27.2049C44.1272 27.2049 44.027 26.9543 43.7012 26.7789C43.3753 26.6034 42.9492 26.5283 42.9492 26.5283C42.9492 26.5283 43.3002 26.9794 43.5257 27.1047C43.7512 27.23 44.1272 27.2049 44.1272 27.2049Z" fill="#92E3A9" stroke="#263238" stroke-width="0.1" stroke-miterlimit="10" stroke-linecap="round" stroke-linejoin="round"/>
<path d="M44.3397 29.3355C44.3397 29.3355 43.1742 30.9522 43.287 31.3281C43.3998 31.704 45.994 36.4788 46.3323 37.0804C46.6706 37.6819 47.2722 38.0578 47.8737 38.0578C48.4753 38.0578 49.1897 37.2308 49.1144 36.5539C49.0393 35.8771 47.2346 34.0724 46.6331 33.4333C46.0315 32.7942 44.4524 31.2151 44.4524 31.2151C44.4524 31.2151 45.9563 29.5232 46.1066 29.1848C46.257 28.8464 46.3699 28.6208 46.257 28.3575C46.1442 28.0943 45.3923 27.1169 45.3923 27.1169C45.3923 27.1169 45.1668 27.004 44.9786 27.1921C44.7907 27.3801 44.7154 27.6058 44.7154 27.6058C44.7154 27.6058 44.3771 27.869 44.3771 28.1322C44.3773 28.3956 44.3397 29.3355 44.3397 29.3355Z" fill="white" stroke="#263238" stroke-width="0.1" stroke-miterlimit="10" stroke-linecap="round" stroke-linejoin="round"/>
<path d="M44.7148 27.6061C44.7148 27.6061 44.8806 29.1467 44.8806 29.3661C44.8806 29.5856 44.7552 29.7894 44.7552 29.7894" stroke="#263238" stroke-width="0.1" stroke-miterlimit="10" stroke-linecap="round" stroke-linejoin="round"/>
<path d="M44.9922 27.1244C44.9922 27.1244 45.3997 28.8488 45.4155 29.1623C45.4312 29.4758 45.4312 29.5855 45.4312 29.5855" stroke="#263238" stroke-width="0.1" stroke-miterlimit="10" stroke-linecap="round" stroke-linejoin="round"/>
<path d="M45.4453 27.1558C45.4453 27.1558 45.947 28.7077 45.9783 28.8958C46.0096 29.0839 45.7431 29.3348 45.7118 29.3975" stroke="#263238" stroke-width="0.1" stroke-miterlimit="10" stroke-linecap="round" stroke-linejoin="round"/>
</svg>
