<svg width="195" height="193" viewBox="0 0 195 193" fill="none" xmlns="http://www.w3.org/2000/svg">
<path d="M97.5 192.848C151.348 192.848 195 149.419 195 95.8476H0C0 149.419 43.6522 192.848 97.5 192.848Z" fill="#DCD7C3"/>
<ellipse cx="102" cy="148.348" rx="67" ry="10.5" fill="#C9C3A9"/>
<path d="M26.9516 116.488C27.9492 116.416 29.9097 115.326 29.911 115.325C29.9315 115.314 28.8007 114.251 28.7218 114.192C27.8067 113.511 25.6385 112.732 24.5979 113.474C23.8485 114.008 23.825 115.052 24.4074 115.715C25.0022 116.393 26.1018 116.551 26.9516 116.488Z" fill="#263238"/>
<path d="M30.6636 121.875C31.5694 121.554 33.0696 120.108 33.1887 119.993C33.9901 120.837 34.8811 121.638 35.8274 122.399C36.3679 122.834 36.9261 123.256 37.4907 123.672C37.2045 123.52 36.9476 123.387 36.9097 123.373C35.8472 122.957 33.5503 122.779 32.7425 123.768C32.1605 124.482 32.4137 125.494 33.1504 125.981C33.9029 126.478 35.0052 126.339 35.8087 126.055C36.6235 125.766 37.9275 124.559 38.2683 124.235C38.4867 124.392 38.7027 124.552 38.9218 124.708C39.9721 125.459 41.0238 126.204 42.0326 126.966C42.3885 127.234 42.7286 127.512 43.0702 127.788C42.8159 127.654 42.6005 127.543 42.5659 127.529C41.5035 127.114 39.2066 126.936 38.3988 127.925C37.8171 128.638 38.07 129.651 38.807 130.138C39.5595 130.634 40.6618 130.495 41.4653 130.211C42.2432 129.936 43.4563 128.833 43.8632 128.45C44.2044 128.743 44.5469 129.037 44.8642 129.336C45.0762 129.546 45.2953 129.733 45.4966 129.955C45.7005 130.171 45.9025 130.385 46.1024 130.597C46.4725 131.019 46.8572 131.452 47.2078 131.873C47.454 132.163 47.6832 132.445 47.915 132.728C47.5641 132.457 46.866 131.94 46.8025 131.903C45.8156 131.332 43.572 130.807 42.6236 131.664C41.9406 132.28 42.0369 133.32 42.6917 133.912C43.3603 134.517 44.4711 134.547 45.308 134.388C46.2296 134.212 47.87 133.065 48.074 132.921C48.4557 133.39 48.8227 133.85 49.1622 134.291C50.0774 135.471 50.8369 136.523 51.428 137.37L52.1794 136.974C51.5538 136.116 50.7413 135.037 49.7553 133.821C49.3695 133.343 48.9479 132.839 48.5097 132.326C48.6141 132.204 49.2038 131.506 49.6725 130.785C50.5809 131.107 52.4495 131.06 52.6907 131.052C52.75 131.654 52.802 132.24 52.8423 132.794C52.951 134.241 53.0043 135.508 53.0315 136.525L53.8487 136.095C53.7977 135.142 53.7202 134.007 53.5964 132.73C53.5387 132.118 53.4646 131.466 53.382 130.796C53.6182 130.729 55.5438 130.166 56.2583 129.556C56.9061 129.002 57.5777 128.117 57.5241 127.217C57.4714 126.335 56.7209 125.61 55.8122 125.757C54.5512 125.961 53.5565 128.04 53.3851 129.167C53.375 129.234 53.3458 129.968 53.3351 130.431C53.3002 130.158 53.269 129.892 53.2294 129.611C53.1549 129.055 53.0644 128.502 52.9688 127.907C52.9127 127.621 52.856 127.333 52.7987 127.041C52.748 126.751 52.6578 126.451 52.5877 126.152C52.4112 125.464 52.1989 124.774 51.9694 124.085C52.4562 124.019 54.1818 123.758 54.9091 123.307C55.633 122.858 56.4311 122.085 56.5143 121.187C56.5958 120.308 55.9638 119.477 55.0436 119.485C53.7662 119.496 52.4682 121.399 52.1277 122.488C52.1066 122.556 51.9499 123.365 51.8728 123.811C51.7319 123.397 51.593 122.984 51.4367 122.57C50.9855 121.376 50.4917 120.182 50.0046 118.988C49.855 118.622 49.7107 118.256 49.5644 117.89C49.7379 117.869 51.7956 117.603 52.6105 117.098C53.3348 116.649 54.1325 115.876 54.2157 114.978C54.2972 114.099 53.6652 113.268 52.745 113.276C51.4675 113.286 50.1696 115.19 49.8291 116.279C49.8036 116.361 49.5799 117.525 49.5376 117.824C49.2162 117.017 48.9036 116.211 48.6272 115.404C48.2447 114.291 47.9307 113.177 47.7066 112.076C47.7875 112.066 49.9365 111.799 50.7708 111.281C51.4951 110.832 52.2928 110.06 52.376 109.162C52.4575 108.282 51.8255 107.451 50.9053 107.459C49.6278 107.47 48.3299 109.374 47.9894 110.462C47.9626 110.548 47.7227 111.8 47.6956 112.03C47.6825 111.965 47.6617 111.898 47.6493 111.832C47.4248 110.654 47.3554 109.484 47.3443 108.385C47.3366 107.747 47.3648 107.136 47.4057 106.543C47.811 106.534 49.6627 106.473 50.4655 106.091C51.2347 105.724 52.1126 105.043 52.2938 104.16C52.4713 103.295 51.9345 102.4 51.019 102.306C49.7479 102.177 48.2491 103.926 47.7912 104.971C47.7663 105.028 47.5771 105.633 47.4453 106.076C47.4678 105.809 47.4862 105.532 47.5127 105.276C47.6107 104.315 47.7593 103.441 47.8975 102.668C47.9794 102.229 48.0626 101.834 48.1437 101.465C48.5369 101.249 50.1109 100.358 50.6373 99.6614C51.1509 98.9818 51.6162 97.9727 51.3703 97.1052C51.1294 96.2558 50.2401 95.7083 49.3846 96.0475C48.1971 96.5185 47.6728 98.7617 47.7479 99.9C47.7546 99.9983 48.0327 101.525 48.0532 101.514C48.0532 101.514 48.0723 101.504 48.077 101.501C47.9914 101.855 47.9039 102.235 47.8167 102.652C47.6613 103.423 47.4933 104.297 47.3742 105.259C47.2527 106.221 47.1477 107.269 47.137 108.384C47.1246 109.5 47.1685 110.676 47.3705 111.881C47.3728 111.895 47.3769 111.908 47.3792 111.922C47.2108 111.588 46.7083 110.669 46.6617 110.603C46.0048 109.671 44.1873 108.255 42.9675 108.635C42.0889 108.908 41.741 109.893 42.0872 110.705C42.4412 111.535 43.4368 112.027 44.2634 112.233C45.1957 112.466 47.2447 112.087 47.4077 112.057C47.6107 113.203 47.9119 114.362 48.2813 115.519C48.4916 116.18 48.7244 116.84 48.966 117.499C48.811 117.214 48.6701 116.961 48.6466 116.928C47.9898 115.995 46.1722 114.58 44.9528 114.959C44.0739 115.233 43.7263 116.218 44.0725 117.03C44.4261 117.859 45.4221 118.352 46.2487 118.558C47.0874 118.767 48.8408 118.479 49.3038 118.397C49.3991 118.649 49.4916 118.901 49.5879 119.152C50.0495 120.358 50.5158 121.559 50.9368 122.752C51.0854 123.172 51.2163 123.591 51.3488 124.01C51.2106 123.757 51.0925 123.546 51.071 123.516C50.4142 122.583 48.597 121.167 47.3772 121.547C46.4986 121.821 46.1507 122.805 46.4969 123.618C46.8505 124.447 47.8465 124.939 48.6731 125.145C49.4735 125.345 51.0942 125.094 51.645 124.999C51.7675 125.432 51.8912 125.866 51.9909 126.291C52.0523 126.583 52.1314 126.86 52.1767 127.156C52.2277 127.449 52.2784 127.739 52.3284 128.025C52.4042 128.582 52.486 129.155 52.5467 129.699C52.5917 130.078 52.6276 130.439 52.6648 130.803C52.5219 130.383 52.2247 129.567 52.1922 129.502C51.8547 128.823 51.0425 127.858 50.1649 127.342C50.1156 127.241 50.0579 127.146 49.9905 127.056C49.4601 126.349 48.4336 126.158 47.7573 126.782C46.8183 127.648 47.135 129.93 47.6144 130.965C47.6426 131.027 48.0233 131.655 48.2699 132.047C48.0897 131.839 47.9173 131.634 47.7291 131.422C47.3601 130.999 46.9797 130.588 46.5718 130.144C46.3675 129.937 46.1608 129.728 45.9521 129.516C45.7499 129.302 45.5087 129.101 45.2859 128.891C44.7589 128.414 44.2013 127.956 43.6297 127.508C43.9991 127.184 45.2943 126.015 45.6522 125.237C46.0085 124.463 46.2477 123.378 45.8216 122.583C45.4047 121.805 44.4191 121.46 43.6559 121.975C42.5965 122.689 42.5639 124.992 42.8806 126.088C42.9004 126.157 43.2157 126.917 43.3976 127.332C43.0517 127.065 42.7082 126.797 42.3496 126.538C41.3147 125.791 40.2439 125.067 39.1787 124.34C38.8523 124.118 38.53 123.892 38.2062 123.668C38.3391 123.554 39.9087 122.197 40.3096 121.327C40.6659 120.553 40.9051 119.468 40.479 118.673C40.062 117.894 39.0764 117.55 38.3132 118.064C37.2538 118.778 37.2213 121.082 37.538 122.178C37.5618 122.26 38.0177 123.354 38.1472 123.627C37.4347 123.132 36.7288 122.632 36.0532 122.111C35.1199 121.394 34.244 120.638 33.4493 119.843C33.511 119.79 35.1558 118.382 35.5664 117.49C35.923 116.716 36.1619 115.631 35.7359 114.836C35.3189 114.058 34.3333 113.713 33.5701 114.228C32.5107 114.942 32.4781 117.245 32.7948 118.341C32.8196 118.427 33.3104 119.604 33.4148 119.811C33.3675 119.764 33.3135 119.72 33.2668 119.672C32.4295 118.813 31.726 117.875 31.1108 116.965C30.7522 116.437 30.4388 115.912 30.1456 115.394C30.4788 115.164 31.99 114.091 32.4483 113.33C32.8874 112.6 33.244 111.548 32.9082 110.711C32.5791 109.891 31.6371 109.44 30.8223 109.868C29.6911 110.461 29.4056 112.747 29.6002 113.871C29.6109 113.933 29.787 114.542 29.9216 114.984C29.7927 114.749 29.6555 114.508 29.5364 114.28C29.0879 113.424 28.7296 112.613 28.4183 111.892C28.2446 111.481 28.0956 111.106 27.9601 110.753C28.1687 110.356 28.99 108.745 29.045 107.873C29.0983 107.023 28.9299 105.925 28.2462 105.337C27.5766 104.762 26.533 104.795 26.0067 105.55C25.2757 106.598 26.0761 108.758 26.7668 109.667C26.8265 109.745 27.9007 110.865 27.9118 110.845C27.9118 110.845 27.9218 110.825 27.9242 110.821C28.048 111.163 28.1845 111.528 28.3418 111.924C28.6381 112.653 28.9792 113.475 29.4113 114.343C29.8404 115.212 30.3315 116.145 30.937 117.08C31.5429 118.018 32.2279 118.974 33.0612 119.868C33.0706 119.878 33.0816 119.888 33.091 119.898C32.7663 119.712 31.8404 119.223 31.7649 119.194C30.7025 118.778 28.4056 118.6 27.5978 119.589C27.0161 120.303 27.269 121.315 28.006 121.802C28.7582 122.297 29.8605 122.158 30.6636 121.875Z" fill="#263238"/>
<path d="M47.2488 106.356C47.272 106.358 46.9154 104.848 46.8818 104.755C46.4947 103.682 45.1156 101.837 43.8388 101.881C42.919 101.913 42.3235 102.771 42.4429 103.645C42.565 104.539 43.3953 105.277 44.1384 105.694C45.0109 106.184 47.2471 106.356 47.2488 106.356Z" fill="#263238"/>
<path d="M181.313 116.488C180.316 116.416 178.355 115.326 178.354 115.325C178.333 115.314 179.464 114.251 179.543 114.192C180.459 113.511 182.627 112.732 183.667 113.474C184.417 114.008 184.44 115.052 183.858 115.715C183.263 116.393 182.163 116.551 181.313 116.488Z" fill="#263238"/>
<path d="M177.602 121.875C176.696 121.554 175.196 120.108 175.077 119.993C174.275 120.837 173.384 121.638 172.438 122.399C171.897 122.834 171.339 123.256 170.775 123.672C171.061 123.52 171.318 123.387 171.356 123.373C172.418 122.957 174.715 122.779 175.523 123.768C176.105 124.482 175.852 125.494 175.115 125.981C174.362 126.478 173.26 126.339 172.457 126.055C171.642 125.766 170.338 124.559 169.997 124.235C169.779 124.392 169.563 124.552 169.344 124.708C168.293 125.459 167.242 126.204 166.233 126.966C165.877 127.234 165.537 127.512 165.195 127.788C165.449 127.654 165.665 127.543 165.699 127.529C166.762 127.114 169.059 126.936 169.867 127.925C170.448 128.638 170.195 129.651 169.458 130.138C168.706 130.634 167.604 130.495 166.8 130.211C166.022 129.936 164.809 128.833 164.402 128.45C164.061 128.743 163.719 129.037 163.401 129.336C163.189 129.546 162.97 129.733 162.769 129.955C162.565 130.171 162.363 130.385 162.163 130.597C161.793 131.019 161.408 131.452 161.058 131.873C160.812 132.163 160.583 132.445 160.351 132.728C160.702 132.457 161.4 131.94 161.463 131.903C162.45 131.332 164.694 130.807 165.642 131.664C166.325 132.28 166.229 133.32 165.574 133.912C164.905 134.517 163.795 134.547 162.958 134.388C162.036 134.212 160.396 133.065 160.192 132.921C159.81 133.39 159.443 133.85 159.103 134.291C158.188 135.471 157.429 136.523 156.838 137.37L156.086 136.974C156.712 136.116 157.524 135.037 158.51 133.821C158.896 133.343 159.317 132.839 159.756 132.326C159.651 132.204 159.062 131.506 158.593 130.785C157.684 131.107 155.816 131.06 155.575 131.052C155.515 131.654 155.463 132.24 155.423 132.794C155.315 134.241 155.261 135.508 155.234 136.525L154.417 136.095C154.468 135.142 154.545 134.007 154.669 132.73C154.727 132.118 154.801 131.466 154.883 130.796C154.647 130.729 152.722 130.166 152.007 129.556C151.359 129.002 150.688 128.117 150.741 127.217C150.794 126.335 151.544 125.61 152.453 125.757C153.714 125.961 154.709 128.04 154.88 129.167C154.89 129.234 154.92 129.968 154.93 130.431C154.965 130.158 154.996 129.892 155.036 129.611C155.11 129.055 155.201 128.502 155.297 127.907C155.353 127.621 155.409 127.333 155.467 127.041C155.518 126.751 155.608 126.451 155.678 126.152C155.854 125.464 156.067 124.774 156.296 124.085C155.81 124.019 154.084 123.758 153.357 123.307C152.633 122.858 151.835 122.085 151.751 121.187C151.67 120.308 152.302 119.477 153.222 119.485C154.5 119.496 155.797 121.399 156.138 122.488C156.159 122.556 156.316 123.365 156.393 123.811C156.534 123.397 156.673 122.984 156.829 122.57C157.28 121.376 157.774 120.182 158.261 118.988C158.411 118.622 158.555 118.256 158.701 117.89C158.528 117.869 156.47 117.603 155.655 117.098C154.931 116.649 154.133 115.876 154.05 114.978C153.968 114.099 154.601 113.268 155.521 113.276C156.798 113.286 158.096 115.19 158.437 116.279C158.462 116.361 158.685 117.525 158.728 117.824C159.049 117.017 159.362 116.211 159.639 115.404C160.021 114.291 160.335 113.177 160.559 112.076C160.478 112.066 158.329 111.799 157.495 111.281C156.771 110.832 155.973 110.06 155.89 109.162C155.808 108.282 156.44 107.451 157.36 107.459C158.638 107.47 159.936 109.374 160.276 110.462C160.303 110.548 160.543 111.8 160.57 112.03C160.583 111.965 160.604 111.898 160.616 111.832C160.841 110.654 160.91 109.484 160.921 108.385C160.929 107.747 160.901 107.136 160.86 106.543C160.455 106.534 158.603 106.473 157.8 106.091C157.031 105.724 156.153 105.043 155.972 104.16C155.794 103.295 156.331 102.4 157.247 102.306C158.518 102.177 160.017 103.926 160.475 104.971C160.499 105.028 160.689 105.633 160.82 106.076C160.798 105.809 160.779 105.532 160.753 105.276C160.655 104.315 160.506 103.441 160.368 102.668C160.286 102.229 160.203 101.834 160.122 101.465C159.729 101.249 158.155 100.358 157.628 99.6614C157.115 98.9818 156.65 97.9727 156.895 97.1052C157.136 96.2558 158.026 95.7083 158.881 96.0475C160.069 96.5185 160.593 98.7617 160.518 99.9C160.511 99.9983 160.233 101.525 160.213 101.514C160.213 101.514 160.193 101.504 160.189 101.501C160.274 101.855 160.362 102.235 160.449 102.652C160.604 103.423 160.773 104.297 160.892 105.259C161.013 106.221 161.118 107.269 161.129 108.384C161.141 109.5 161.097 110.676 160.896 111.881C160.893 111.895 160.889 111.908 160.887 111.922C161.055 111.588 161.558 110.669 161.604 110.603C162.261 109.671 164.079 108.255 165.299 108.635C166.177 108.908 166.525 109.893 166.179 110.705C165.825 111.535 164.829 112.027 164.003 112.233C163.07 112.466 161.021 112.087 160.858 112.057C160.655 113.203 160.354 114.362 159.985 115.519C159.774 116.18 159.542 116.84 159.3 117.499C159.455 117.214 159.596 116.961 159.619 116.928C160.276 115.995 162.094 114.58 163.313 114.959C164.192 115.233 164.54 116.218 164.193 117.03C163.84 117.859 162.844 118.352 162.017 118.558C161.179 118.767 159.425 118.479 158.962 118.397C158.867 118.649 158.774 118.901 158.678 119.152C158.216 120.358 157.75 121.559 157.329 122.752C157.181 123.172 157.05 123.591 156.917 124.01C157.055 123.757 157.174 123.546 157.195 123.516C157.852 122.583 159.669 121.167 160.889 121.547C161.767 121.821 162.115 122.805 161.769 123.618C161.416 124.447 160.42 124.939 159.593 125.145C158.792 125.345 157.172 125.094 156.621 124.999C156.499 125.432 156.375 125.866 156.275 126.291C156.214 126.583 156.135 126.86 156.089 127.156C156.038 127.449 155.988 127.739 155.938 128.025C155.862 128.582 155.78 129.155 155.719 129.699C155.674 130.078 155.638 130.439 155.601 130.803C155.744 130.383 156.041 129.567 156.074 129.502C156.411 128.823 157.224 127.858 158.101 127.342C158.15 127.241 158.208 127.146 158.276 127.056C158.806 126.349 159.832 126.158 160.509 126.782C161.448 127.648 161.131 129.93 160.652 130.965C160.623 131.027 160.243 131.655 159.996 132.047C160.176 131.839 160.349 131.634 160.537 131.422C160.906 130.999 161.286 130.588 161.695 130.144C161.899 129.937 162.106 129.728 162.314 129.516C162.517 129.302 162.758 129.101 162.98 128.891C163.507 128.414 164.065 127.956 164.637 127.508C164.267 127.184 162.972 126.015 162.614 125.237C162.258 124.463 162.019 123.378 162.445 122.583C162.862 121.805 163.847 121.46 164.61 121.975C165.67 122.689 165.702 124.992 165.386 126.088C165.366 126.157 165.051 126.917 164.869 127.332C165.215 127.065 165.558 126.797 165.917 126.538C166.952 125.791 168.023 125.067 169.088 124.34C169.414 124.118 169.736 123.892 170.06 123.668C169.927 123.554 168.358 122.197 167.957 121.327C167.6 120.553 167.361 119.468 167.787 118.673C168.204 117.894 169.19 117.55 169.953 118.064C171.013 118.778 171.045 121.082 170.728 122.178C170.705 122.26 170.249 123.354 170.119 123.627C170.832 123.132 171.538 122.632 172.213 122.111C173.146 121.394 174.022 120.638 174.817 119.843C174.755 119.79 173.111 118.382 172.7 117.49C172.343 116.716 172.104 115.631 172.531 114.836C172.947 114.058 173.933 113.713 174.696 114.228C175.756 114.942 175.788 117.245 175.472 118.341C175.447 118.427 174.956 119.604 174.852 119.811C174.899 119.764 174.953 119.72 174.999 119.672C175.837 118.813 176.54 117.875 177.156 116.965C177.514 116.437 177.828 115.912 178.121 115.394C177.788 115.164 176.276 114.091 175.818 113.33C175.379 112.6 175.022 111.548 175.358 110.711C175.687 109.891 176.629 109.44 177.444 109.868C178.576 110.461 178.861 112.747 178.666 113.871C178.655 113.933 178.479 114.542 178.345 114.984C178.474 114.749 178.611 114.508 178.73 114.28C179.178 113.424 179.537 112.613 179.848 111.892C180.022 111.481 180.171 111.106 180.306 110.753C180.098 110.356 179.276 108.745 179.221 107.873C179.168 107.023 179.336 105.925 180.02 105.337C180.69 104.762 181.733 104.795 182.26 105.55C182.991 106.598 182.19 108.758 181.5 109.667C181.44 109.745 180.366 110.865 180.355 110.845C180.355 110.845 180.345 110.825 180.342 110.821C180.218 111.163 180.082 111.528 179.925 111.924C179.628 112.653 179.287 113.475 178.855 114.343C178.426 115.212 177.935 116.145 177.329 117.08C176.724 118.018 176.038 118.974 175.205 119.868C175.196 119.878 175.185 119.888 175.175 119.898C175.5 119.712 176.426 119.223 176.501 119.194C177.564 118.778 179.861 118.6 180.669 119.589C181.25 120.303 180.997 121.315 180.26 121.802C179.507 122.297 178.405 122.158 177.602 121.875Z" fill="#263238"/>
<path d="M161.017 106.356C160.994 106.358 161.35 104.848 161.384 104.755C161.771 103.682 163.15 101.837 164.427 101.881C165.347 101.913 165.942 102.771 165.822 103.645C165.7 104.539 164.87 105.277 164.127 105.694C163.255 106.184 161.018 106.356 161.017 106.356Z" fill="#263238"/>
<path d="M51.4863 58.0981L51.7678 58.2809" stroke="#263238" stroke-miterlimit="10"/>
<path d="M52.3301 58.6462L103.734 92.0714" stroke="#263238" stroke-miterlimit="10" stroke-dasharray="2 2"/>
<path d="M104.014 92.2539L104.295 92.4368L104.112 92.1556" stroke="#263238" stroke-miterlimit="10"/>
<path d="M103.749 91.5978L59.6543 23.7994" stroke="#263238" stroke-miterlimit="10" stroke-dasharray="1.98 1.98"/>
<path d="M59.4742 23.5202L59.291 23.2391" stroke="#263238" stroke-miterlimit="10"/>
<path d="M157.103 58.0981L156.822 58.2809" stroke="#263238" stroke-miterlimit="10"/>
<path d="M156.261 58.6462L104.857 92.0714" stroke="#263238" stroke-miterlimit="10" stroke-dasharray="2 2"/>
<path d="M104.576 92.2539L104.295 92.4367L104.478 92.1556" stroke="#263238" stroke-miterlimit="10"/>
<path d="M104.842 91.5977L148.936 23.7993" stroke="#263238" stroke-miterlimit="10" stroke-dasharray="1.98 1.98"/>
<path d="M149.117 23.5202L149.3 23.2391" stroke="#263238" stroke-miterlimit="10"/>
<path d="M104.295 12.8336V13.1691" stroke="#263238" stroke-miterlimit="10"/>
<path d="M104.295 13.8436V91.764" stroke="#263238" stroke-miterlimit="10" stroke-dasharray="2.01 2.01"/>
<path d="M104.295 92.1012V92.4367" stroke="#263238" stroke-miterlimit="10"/>
<path d="M104.92 21.6339C110.618 21.6339 115.237 17.0148 115.237 11.3169C115.237 5.61905 110.618 1 104.92 1C99.2226 1 94.6035 5.61905 94.6035 11.3169C94.6035 17.0148 99.2226 21.6339 104.92 21.6339Z" fill="#263238" stroke="#263238" stroke-width="2" stroke-miterlimit="10"/>
<path d="M104.92 11.3169L113.602 5.74652C112.332 3.77096 110.407 2.25801 108.133 1.51294L104.92 11.3169Z" fill="#DFF000" stroke="#263238" stroke-miterlimit="10"/>
<path d="M104.92 11.3169L109.795 20.4108C113.034 18.6707 115.237 15.2516 115.237 11.3169C115.237 9.26422 114.635 7.3534 113.601 5.74686L104.92 11.3169Z" fill="white" stroke="#263238" stroke-miterlimit="10"/>
<path d="M154.869 30.4664C158.896 26.4394 158.896 19.9103 154.869 15.8833C150.842 11.8563 144.313 11.8563 140.286 15.8833C136.259 19.9104 136.259 26.4394 140.286 30.4664C144.313 34.4934 150.842 34.4934 154.869 30.4664Z" stroke="#263238" stroke-miterlimit="10"/>
<path d="M147.578 32.1131C152.514 32.1131 156.516 28.1111 156.516 23.1743C156.516 18.2375 152.514 14.2355 147.578 14.2355C142.641 14.2355 138.639 18.2375 138.639 23.1743C138.639 28.1111 142.641 32.1131 147.578 32.1131Z" fill="#263238"/>
<path d="M152.724 23.1743L144.064 18.1749V28.1734L152.724 23.1743Z" fill="white"/>
<path d="M172.815 59.3195C174.199 53.5399 170.636 47.7326 164.856 46.3485C159.077 44.9644 153.269 48.5276 151.885 54.3071C150.501 60.0867 154.064 65.894 159.844 67.2782C165.623 68.6623 171.431 65.0991 172.815 59.3195Z" fill="#263238"/>
<path d="M169.828 58.6007C170.813 54.4716 168.264 50.326 164.135 49.3411C160.005 48.3563 155.86 50.9052 154.875 55.0343C153.89 59.1634 156.439 63.3091 160.568 64.2939C164.697 65.2787 168.843 62.7298 169.828 58.6007Z" fill="white"/>
<path d="M166.838 57.8867C167.427 55.4088 165.895 52.9229 163.417 52.3343C160.939 51.7457 158.453 53.2773 157.865 55.7552C157.276 58.2332 158.808 60.7191 161.286 61.3077C163.763 61.8963 166.249 60.3647 166.838 57.8867Z" fill="#263238"/>
<path d="M164.776 57.388C165.092 56.0535 164.267 54.7154 162.932 54.3993C161.598 54.0832 160.26 54.9088 159.943 56.2433C159.627 57.5778 160.453 58.9159 161.787 59.232C163.122 59.5481 164.46 58.7225 164.776 57.388Z" fill="white"/>
<path d="M176.071 51.6574L174.702 51.122L175.3 50.8312C175.441 50.7624 175.5 50.5917 175.431 50.4501C175.362 50.3089 175.192 50.2495 175.05 50.3186L174.617 50.5296L175.305 49.0391L172.75 50.1884L172.379 51.6192L162.231 56.5616C162.089 56.6304 162.03 56.8011 162.099 56.9427C162.149 57.044 162.25 57.1031 162.356 57.1031C162.397 57.1031 162.44 57.094 162.48 57.0742L172.662 52.1157L173.772 52.743L176.071 51.6574Z" fill="#263238"/>
<path d="M60.1914 33.4863C66.1338 33.4863 70.9511 28.669 70.9511 22.7265C70.9511 16.7841 66.1338 11.9668 60.1914 11.9668C54.2489 11.9668 49.4316 16.7841 49.4316 22.7265C49.4316 28.669 54.2489 33.4863 60.1914 33.4863Z" fill="white" stroke="#263238" stroke-width="2" stroke-miterlimit="10"/>
<path d="M60.1922 33.4863C64.5009 33.4863 67.9938 28.669 67.9938 22.7265C67.9938 16.7841 64.5009 11.9668 60.1922 11.9668C55.8835 11.9668 52.3906 16.7841 52.3906 22.7265C52.3906 28.669 55.8835 33.4863 60.1922 33.4863Z" fill="white" stroke="#263238" stroke-miterlimit="10"/>
<path d="M60.1919 33.4863C62.0259 33.4863 63.5127 28.669 63.5127 22.7265C63.5127 16.7841 62.0259 11.9668 60.1919 11.9668C58.3579 11.9668 56.8711 16.7841 56.8711 22.7265C56.8711 28.669 58.3579 33.4863 60.1919 33.4863Z" fill="white" stroke="#263238" stroke-miterlimit="10"/>
<path d="M54.4902 13.6391H66.0819" stroke="#263238" stroke-miterlimit="10"/>
<path d="M50.5918 17.8542H69.7707" stroke="#263238" stroke-miterlimit="10"/>
<path d="M49.4844 22.0694H70.9291" stroke="#263238" stroke-miterlimit="10"/>
<path d="M49.959 26.2845H70.297" stroke="#263238" stroke-miterlimit="10"/>
<path d="M52.8574 30.4996H67.7159" stroke="#263238" stroke-miterlimit="10"/>
<path d="M46.1094 67.579C52.0518 67.579 56.8691 62.7617 56.8691 56.8193C56.8691 50.8768 52.0518 46.0595 46.1094 46.0595C40.1669 46.0595 35.3496 50.8768 35.3496 56.8193C35.3496 62.7617 40.1669 67.579 46.1094 67.579Z" fill="#263238" stroke="#263238" stroke-width="2" stroke-miterlimit="10"/>
<path d="M52.9273 51.7339H38.6582V63.1491H52.9273V51.7339Z" fill="white" stroke="#263238" stroke-width="2" stroke-miterlimit="10"/>
<path d="M53.818 51.7339H37.7656V56.3714H53.818V51.7339Z" fill="white" stroke="#263238" stroke-width="2" stroke-miterlimit="10"/>
<path d="M45.7769 51.6191C45.7769 51.6191 42.4095 47.6904 41.8483 47.8773C41.2871 48.0645 39.7902 50.6835 40.6322 50.9643C41.4739 51.245 45.7769 51.6191 45.7769 51.6191Z" fill="#DFF000"/>
<path d="M45.8066 51.6191C45.8066 51.6191 49.1741 47.6904 49.7353 47.8773C50.2965 48.0645 51.793 50.6835 50.9514 50.9643C50.1097 51.245 45.8066 51.6191 45.8066 51.6191Z" fill="#DFF000"/>
<path d="M46.8061 59.7572L45.797 58.002L44.748 59.7572V51.8999H46.8061V59.7572Z" fill="#DFF000"/>
<path d="M50.8691 86.4588L104.255 56.4091L158.95 86.4588V130.019H51.524L50.8691 86.4588Z" fill="#263238" stroke="#263238" stroke-miterlimit="10" stroke-linecap="round" stroke-linejoin="round"/>
<path d="M144.868 64.5152H64.9531V135.587H144.868V64.5152Z" fill="white" stroke="#263238" stroke-miterlimit="10"/>
<path d="M74.123 76.961H134.714" stroke="#263238" stroke-miterlimit="10"/>
<path d="M74.123 83.1836H134.714" stroke="#263238" stroke-miterlimit="10"/>
<path d="M74.123 89.4065H134.714" stroke="#263238" stroke-miterlimit="10"/>
<path d="M74.123 95.6294H134.714" stroke="#263238" stroke-miterlimit="10"/>
<path d="M74.123 101.852H134.714" stroke="#263238" stroke-miterlimit="10"/>
<path d="M74.123 108.075H134.714" stroke="#263238" stroke-miterlimit="10"/>
<path d="M158.95 146.395H50.8691V86.4588L104.91 123.141L158.95 86.4588V146.395Z" fill="#DFF000" stroke="#263238" stroke-miterlimit="10"/>
<path d="M50.8691 146.395L90.164 113.114" stroke="#263238" stroke-miterlimit="10"/>
<path d="M158.778 146.395L119.773 113.062" stroke="#263238" stroke-miterlimit="10"/>
<path d="M116.6 44.7022C116.6 44.7022 116.193 46.6016 116.736 47.2121C117.278 47.8227 119.313 49.9935 119.313 50.3326C119.313 50.6718 118.635 60.4399 118.635 60.4399L115.515 58.2013L113.615 64.0351C113.615 64.0351 118.364 66.07 120.602 66.477C122.841 66.8839 123.248 66.2733 123.248 64.5098C123.248 62.7462 121.484 49.2471 121.484 49.2471C121.484 49.2471 122.027 46.1266 122.027 45.5841C122.027 45.0413 122.231 44.7703 121.756 44.4989C121.281 44.2275 117.414 43.8206 117.414 43.8206C117.414 43.8206 116.6 44.1594 116.6 44.7022Z" fill="white" stroke="#263238" stroke-miterlimit="10" stroke-linecap="round" stroke-linejoin="round"/>
<path d="M115.592 59.0232L114.561 64.2515L113.615 64.0351L115.592 59.0232Z" fill="#263238" stroke="#263238" stroke-miterlimit="10" stroke-linecap="round" stroke-linejoin="round"/>
<path d="M123.212 46.2265L115.527 45.192V43.2775C115.527 43.0966 115.674 42.95 115.855 42.95C116.036 42.95 116.182 43.0966 116.182 43.2775V44.619L122.607 45.4838L122.718 43.9323C122.731 43.7521 122.881 43.6176 123.068 43.629C123.249 43.6421 123.385 43.7988 123.372 43.9793L123.212 46.2265Z" fill="#263238"/>
<path d="M117.279 45.5841L121.485 45.9911L121.756 44.4986L117.415 43.8203L117.279 45.5841Z" fill="white" stroke="#263238" stroke-miterlimit="10" stroke-linecap="round" stroke-linejoin="round"/>
<path d="M116.531 45.7874C116.531 45.7874 116.531 44.0917 116.735 43.9558C116.939 43.8203 119.855 44.0236 119.855 44.4305C119.855 44.8374 119.855 45.041 119.516 45.041C119.177 45.041 118.499 45.1088 118.499 45.1088C118.499 45.1088 120.059 46.5332 119.584 47.8221" fill="white"/>
<path d="M116.531 45.7874C116.531 45.7874 116.531 44.0917 116.735 43.9558C116.939 43.8203 119.855 44.0236 119.855 44.4305C119.855 44.8374 119.855 45.041 119.516 45.041C119.177 45.041 118.499 45.1088 118.499 45.1088C118.499 45.1088 120.059 46.5332 119.584 47.8221" stroke="#263238" stroke-miterlimit="10" stroke-linecap="round" stroke-linejoin="round"/>
<path d="M118.635 60.4399L118.363 63.4246" stroke="#263238" stroke-miterlimit="10" stroke-linecap="round" stroke-linejoin="round"/>
<path d="M84.1872 59.136C84.1872 59.136 74.5993 66.6209 74.8465 67.425C75.0941 68.2291 82.2076 75.0337 84.5582 76.704C86.9089 78.3743 88.2078 79.1164 88.2078 79.1164L89.6926 80.0443C89.6926 80.0443 89.074 81.0339 89.445 81.2197C89.816 81.4056 91.177 82.0856 91.3625 81.7145C91.548 81.3435 92.538 78.5598 92.4142 77.8792C92.2904 77.1988 88.7026 76.642 88.4554 76.3944C88.2078 76.1468 82.3314 66.9919 82.3314 66.9919L86.9089 63.4041L84.1872 59.136Z" fill="white" stroke="#263238" stroke-miterlimit="10" stroke-linecap="round" stroke-linejoin="round"/>
<path d="M84.0215 59.3849L85.7612 64.1072L86.9085 63.4041L84.0215 59.3849Z" fill="#263238" stroke="#263238" stroke-miterlimit="10" stroke-linecap="round" stroke-linejoin="round"/>
<path d="M89.6934 80.0443C89.6934 80.0443 90.1264 80.9722 90.8685 81.0339" stroke="#263238" stroke-miterlimit="10" stroke-linecap="round" stroke-linejoin="round"/>
<path d="M82.331 66.9919L81.0938 64.8268" stroke="#263238" stroke-miterlimit="10" stroke-linecap="round" stroke-linejoin="round"/>
<path d="M90.5599 134.725L90.4609 140.222L94.9676 140.321L95.3638 134.329L90.5599 134.725Z" fill="white" stroke="#263238" stroke-miterlimit="10" stroke-linecap="round" stroke-linejoin="round"/>
<path d="M90.5781 134.427V135.785L95.2498 136.002L95.3585 134.589L90.5781 134.427Z" fill="#263238" stroke="#263238" stroke-miterlimit="10" stroke-linecap="round" stroke-linejoin="round"/>
<path d="M92.6891 138.786C92.6891 138.786 92.095 136.459 91.2033 136.409C90.312 136.359 89.8662 137.053 89.5196 137.696C89.1731 138.34 86.9939 140.519 86.2512 141.064C85.5084 141.609 83.8741 142.302 83.6265 143.887C83.3789 145.472 84.3199 146.116 84.9637 146.264C85.6074 146.413 88.5293 146.462 90.2627 146.264C91.996 146.066 96.7254 146.537 96.9978 146.264C97.2702 145.992 97.6416 145.125 97.394 144.531C97.1464 143.936 96.7006 143.293 96.7006 143.293C96.7006 143.293 97.1958 141.857 96.8985 141.064C96.6013 140.272 96.0072 139.281 96.1062 138.836C96.2051 138.39 97.2947 137.449 96.552 137.4C95.8093 137.35 94.6207 138.242 93.8777 138.489C93.1349 138.736 92.6891 138.786 92.6891 138.786Z" fill="#263238" stroke="#263238" stroke-miterlimit="10" stroke-linecap="round" stroke-linejoin="round"/>
<path d="M95.8588 143.491C95.1654 143.59 92.491 144.877 90.8073 145.274C89.1236 145.67 87.6378 145.719 86.8455 145.323C86.0531 144.927 85.3597 143.738 84.7656 142.996C84.1715 142.253 83.676 144.135 83.676 144.135L83.5938 144.171C83.4945 145.55 84.3596 146.125 84.9635 146.264C85.6072 146.413 88.5292 146.462 90.2625 146.264C91.9959 146.066 96.7253 146.537 96.9977 146.264C97.2701 145.992 97.6414 145.125 97.3939 144.531C97.1463 143.936 96.7004 143.293 96.7004 143.293C96.4036 143.243 96.5522 143.392 95.8588 143.491Z" fill="white" stroke="#263238" stroke-miterlimit="10" stroke-linecap="round" stroke-linejoin="round"/>
<path d="M88.629 139.083C88.629 139.083 89.9661 138.786 91.6498 140.42L90.7585 141.163C90.7585 141.163 89.0251 139.826 87.9355 139.826L88.629 139.083Z" fill="white" stroke="#263238" stroke-miterlimit="10" stroke-linecap="round" stroke-linejoin="round"/>
<path d="M87.3907 140.074C87.3907 140.074 88.7278 139.776 90.4115 141.411L89.5202 142.153C89.5202 142.153 87.7869 140.816 86.6973 140.816L87.3907 140.074Z" fill="white" stroke="#263238" stroke-miterlimit="10" stroke-linecap="round" stroke-linejoin="round"/>
<path d="M91.3027 139.925L92.6892 138.786" stroke="#263238" stroke-miterlimit="10" stroke-linecap="round" stroke-linejoin="round"/>
<path d="M89.5195 142.153C89.5195 142.153 89.866 142.896 89.2719 143.342C88.6775 143.788 84.7653 143.045 84.8149 142.5C84.8646 141.955 86.6969 140.816 86.6969 140.816C86.6969 140.816 88.1823 141.113 89.5195 142.153Z" fill="white" stroke="#263238" stroke-miterlimit="10" stroke-linecap="round" stroke-linejoin="round"/>
<path d="M118.978 134.725L119.077 140.222L114.57 140.321L114.174 134.329L118.978 134.725Z" fill="white" stroke="#263238" stroke-miterlimit="10" stroke-linecap="round" stroke-linejoin="round"/>
<path d="M114.263 135.35V136.165L119.043 136.11L118.989 134.915L114.154 134.861L114.263 135.35Z" fill="#263238" stroke="#263238" stroke-miterlimit="10" stroke-linecap="round" stroke-linejoin="round"/>
<path d="M116.849 138.786C116.849 138.786 117.443 136.459 118.335 136.409C119.226 136.359 119.672 137.053 120.018 137.696C120.365 138.34 122.544 140.519 123.287 141.064C124.029 141.609 125.664 142.302 125.911 143.887C126.159 145.472 125.218 146.116 124.574 146.264C123.93 146.413 121.009 146.462 119.275 146.264C117.542 146.066 112.812 146.537 112.54 146.264C112.268 145.992 111.896 145.125 112.144 144.531C112.391 143.936 112.837 143.293 112.837 143.293C112.837 143.293 112.342 141.857 112.639 141.064C112.936 140.272 113.53 139.281 113.431 138.836C113.332 138.39 112.243 137.449 112.986 137.4C113.728 137.35 114.917 138.242 115.66 138.489C116.403 138.736 116.849 138.786 116.849 138.786Z" fill="#263238" stroke="#263238" stroke-miterlimit="10" stroke-linecap="round" stroke-linejoin="round"/>
<path d="M113.679 143.491C114.372 143.59 117.047 144.877 118.73 145.274C120.414 145.67 121.9 145.719 122.692 145.323C123.485 144.927 124.178 143.738 124.772 142.996C125.367 142.253 125.862 144.135 125.862 144.135L125.944 144.171C126.043 145.55 125.178 146.125 124.574 146.264C123.93 146.413 121.009 146.462 119.275 146.264C117.542 146.066 112.812 146.537 112.54 146.264C112.268 145.992 111.896 145.125 112.144 144.531C112.391 143.936 112.837 143.293 112.837 143.293C113.134 143.243 112.986 143.392 113.679 143.491Z" fill="white" stroke="#263238" stroke-miterlimit="10" stroke-linecap="round" stroke-linejoin="round"/>
<path d="M120.91 139.083C120.91 139.083 119.572 138.786 117.889 140.42L118.78 141.163C118.78 141.163 120.513 139.826 121.603 139.826L120.91 139.083Z" fill="white" stroke="#263238" stroke-miterlimit="10" stroke-linecap="round" stroke-linejoin="round"/>
<path d="M122.148 140.074C122.148 140.074 120.811 139.776 119.127 141.411L120.018 142.153C120.018 142.153 121.752 140.816 122.841 140.816L122.148 140.074Z" fill="white" stroke="#263238" stroke-miterlimit="10" stroke-linecap="round" stroke-linejoin="round"/>
<path d="M118.236 139.925L116.85 138.786" stroke="#263238" stroke-miterlimit="10" stroke-linecap="round" stroke-linejoin="round"/>
<path d="M120.018 142.153C120.018 142.153 119.672 142.896 120.266 143.342C120.86 143.788 124.773 143.045 124.723 142.5C124.673 141.955 122.841 140.816 122.841 140.816C122.841 140.816 121.356 141.113 120.018 142.153Z" fill="white" stroke="#263238" stroke-miterlimit="10" stroke-linecap="round" stroke-linejoin="round"/>
<path d="M92.6292 76.6926C92.6292 76.6926 90.0092 87.3916 89.0266 96.4529C88.044 105.514 86.5156 135.209 86.5156 135.209H98.5246C98.5246 135.209 102.127 105.078 102.673 99.7281C103.219 94.3787 103.219 90.9942 103.219 90.9942L109.988 135.209H124.289C124.289 135.209 118.831 107.152 116.647 94.2697C114.464 81.3871 111.407 76.3652 111.407 76.3652L92.6292 76.6926Z" fill="#B0B0B0" stroke="#263238" stroke-miterlimit="10" stroke-linecap="round" stroke-linejoin="round"/>
<path d="M102.891 77.4568C102.787 77.7674 99.9433 82.0419 100.817 82.3697C101.69 82.6971 103.328 82.6971 103.328 81.8239C103.328 80.9503 103.328 78.3303 103.328 78.3303C103.328 78.3303 103.546 83.2432 104.529 83.0249C105.511 82.8065 106.821 83.0249 106.494 81.9332C106.167 80.8416 103.656 77.3481 103.656 77.3481C103.656 77.3481 103.218 76.4742 102.891 77.4568Z" fill="#B0B0B0" stroke="#263238" stroke-miterlimit="10" stroke-linecap="round" stroke-linejoin="round"/>
<path d="M103.34 77.8151C103.34 77.8151 105.817 81.3307 105.577 81.6501C105.337 81.9698 105.018 82.2892 104.778 81.8098C104.538 81.3307 103.34 77.8151 103.34 77.8151Z" stroke="#263238" stroke-miterlimit="10"/>
<path d="M103.26 77.4155C103.26 77.4155 101.423 81.3307 101.662 81.4904C101.902 81.6501 102.461 81.6501 102.621 81.0909C102.781 80.5317 103.26 77.4155 103.26 77.4155Z" stroke="#263238" stroke-miterlimit="10"/>
<path d="M110.723 88.5731C110.824 89.129 110.908 89.651 110.97 90.121" stroke="#263238" stroke-miterlimit="10" stroke-linecap="round" stroke-linejoin="round"/>
<path d="M108.131 77.7845C108.131 77.7845 109.493 82.6498 110.367 86.7797" stroke="#263238" stroke-miterlimit="10" stroke-linecap="round" stroke-linejoin="round"/>
<path d="M107.15 77.7845C107.15 77.7845 108.024 83.8981 108.46 85.5358" stroke="#263238" stroke-miterlimit="10" stroke-linecap="round" stroke-linejoin="round"/>
<path d="M95.2674 86.2497C95.2218 86.6727 95.1789 87.0592 95.1406 87.3916" stroke="#263238" stroke-miterlimit="10" stroke-linecap="round" stroke-linejoin="round"/>
<path d="M96.1234 77.7845C96.1234 77.7845 95.7618 81.5213 95.4414 84.6062" stroke="#263238" stroke-miterlimit="10" stroke-linecap="round" stroke-linejoin="round"/>
<path d="M95.2493 78.003L94.8125 83.2429" stroke="#263238" stroke-miterlimit="10" stroke-linecap="round" stroke-linejoin="round"/>
<path d="M102.898 33.2384C102.898 33.2384 106.968 33.6453 106.019 35.7483C105.069 37.8514 104.119 38.2583 103.916 38.2583C103.712 38.2583 102.084 35.7483 102.084 35.7483L102.898 33.2384Z" fill="#263238" stroke="#263238" stroke-miterlimit="10" stroke-linecap="round" stroke-linejoin="round"/>
<path d="M102.426 35.2056C102.426 35.2056 103.986 36.0875 104.461 37.7156C104.936 39.3436 106.157 39.8183 106.496 39.7505C106.835 39.6827 107.31 40.7002 106.903 41.3785C106.496 42.0568 106.496 42.0568 106.496 42.0568C106.496 42.0568 106.835 46.6695 106.428 47.28C106.021 47.8906 103.511 47.5514 103.511 47.5514C103.511 47.5514 102.968 49.7222 103.443 51.0788C103.918 52.4355 105.343 53.1138 105.885 53.1138C106.428 53.1138 107.581 52.4355 109.141 53.2493C110.702 54.0632 115.925 57.9978 115.925 57.9978L113.143 65.5955L110.159 64.0352L112.261 76.9916L91.9111 77.4663C91.9111 77.4663 92.1147 68.2406 91.5719 66.5449C91.0291 64.8491 90.1475 63.2888 90.1475 63.2888L87.5698 65.3238L83.9746 59.0831C83.9746 59.0831 89.2656 53.7921 91.3686 53.3171C93.4713 52.8424 95.9813 53.4526 96.7955 52.4351C97.6093 51.4177 96.931 46.6014 96.931 46.6014C96.931 46.6014 94.9638 45.9231 93.8105 42.4634C92.6571 39.0037 96.5918 35.4086 96.5918 35.4086C96.5918 35.4086 98.3557 33.5776 102.426 35.2056Z" fill="white" stroke="#263238" stroke-miterlimit="10" stroke-linecap="round" stroke-linejoin="round"/>
<path d="M103.511 47.5514L101.678 47.2408L103.15 48.9345L103.511 47.5514Z" fill="#263238" stroke="#263238" stroke-miterlimit="10" stroke-linecap="round" stroke-linejoin="round"/>
<path d="M102.65 38.8776C102.65 38.8776 102.65 37.5888 103.804 37.5888" stroke="#263238" stroke-width="2" stroke-miterlimit="10" stroke-linecap="round" stroke-linejoin="round"/>
<path d="M105.682 43.549L103.307 42.3956C103.307 42.3956 103.104 44.8378 103.986 44.7697C104.868 44.7023 105.682 43.549 105.682 43.549Z" fill="#263238" stroke="#263238" stroke-miterlimit="10" stroke-linecap="round" stroke-linejoin="round"/>
<path d="M103.357 40.137C103.357 40.137 104.122 39.309 104.759 40.0095" stroke="#263238" stroke-miterlimit="10" stroke-linecap="round" stroke-linejoin="round"/>
<path d="M103.29 43.1709L105.425 43.8646C105.585 43.6848 105.682 43.549 105.682 43.549L103.307 42.3956C103.307 42.3956 103.279 42.7425 103.29 43.1709Z" fill="white" stroke="#263238" stroke-miterlimit="10" stroke-linecap="round" stroke-linejoin="round"/>
<path d="M90.0108 38.1224C90.0108 38.1224 88.5184 35.0697 86.4157 35.4092C84.313 35.7483 82.6846 38.0547 83.3629 41.3107C83.3629 41.3107 83.7021 42.1926 83.9735 42.9387C83.9735 42.9387 81.328 42.1249 79.9032 43.8884C78.4789 45.652 79.5641 47.4836 81.1921 48.3656C82.8201 49.2475 83.7698 49.1794 83.7698 49.1794C83.7698 49.1794 80.1746 50.2646 81.4635 51.6213C82.7524 52.9779 86.6867 52.0963 85.8729 50.9429C85.0587 49.7896 84.4485 49.9255 84.4485 49.9255C84.4485 49.9255 87.7045 48.7044 87.3654 47.8224C87.0262 46.9405 85.3982 46.2622 85.3982 46.2622C85.3982 46.2622 88.5187 47.3474 90.2145 46.3299C91.9103 45.3125 90.4181 40.9709 90.4181 40.9709L90.0108 38.1224Z" fill="#263238" stroke="#263238" stroke-miterlimit="10" stroke-linecap="round" stroke-linejoin="round"/>
<path d="M103.646 31.7459C103.646 31.7459 104.188 33.6453 103.239 35.2733C102.289 36.9013 100.254 39.6827 99.9826 42.8029C99.7112 45.9234 100.593 49.79 101.136 51.0788C101.679 52.3677 100.458 52.6391 99.5757 52.5713C98.6938 52.5035 98.3546 51.9608 98.3546 50.7397C98.3546 49.5186 98.0832 47.3478 98.0832 47.3478C98.0832 47.3478 94.6235 47.0086 92.9955 46.0589C91.3675 45.1092 88.9934 41.8532 90.0109 38.1224C91.0284 34.3914 93.7419 33.3062 95.37 32.6278C96.998 31.9495 99.2365 32.0173 100.797 31.6781C102.357 31.339 103.578 30.9317 103.646 31.7459Z" fill="#263238" stroke="#263238" stroke-miterlimit="10" stroke-linecap="round" stroke-linejoin="round"/>
<path d="M98.6934 41.2426L98.0828 43.6845C98.0828 43.6845 96.794 43.0739 96.5904 41.9887C96.3867 40.9035 97.947 40.3607 99.0322 41.3104" fill="white"/>
<path d="M98.6934 41.2426L98.0828 43.6845C98.0828 43.6845 96.794 43.0739 96.5904 41.9887C96.3867 40.9035 97.947 40.3607 99.0322 41.3104" stroke="#263238" stroke-miterlimit="10" stroke-linecap="round" stroke-linejoin="round"/>
<path d="M118.501 45.1091L117.619 45.1769" stroke="#263238" stroke-miterlimit="10" stroke-linecap="round" stroke-linejoin="round"/>
<path d="M112.157 43.1503L134.765 46.3128L131.694 29.5878L111.459 39.3297L112.157 43.1503Z" fill="#DFF000" stroke="#263238" stroke-miterlimit="10" stroke-linecap="round" stroke-linejoin="round"/>
<path d="M111.456 39.3343L108.096 39.9486L108.791 43.7511L112.151 43.1369L111.456 39.3343Z" fill="#DFF000" stroke="#263238" stroke-miterlimit="10" stroke-linecap="round" stroke-linejoin="round"/>
<path d="M115.922 57.9977C115.922 57.9977 110.699 54.0633 109.139 53.2492C107.6 52.4464 106.458 53.0942 105.907 53.112C105.05 54.3408 103.055 56.4176 99.3709 56.3697C94.9089 56.3116 93.6653 53.8299 93.3976 53.1069C92.7236 53.126 92.0252 53.1683 91.3667 53.3169C89.2636 53.7916 83.9727 59.0829 83.9727 59.0829L87.5678 65.3236L90.1456 63.2887C90.1456 63.2887 91.0275 64.8489 91.57 66.5447C92.1127 68.2405 91.9091 77.4661 91.9091 77.4661L112.26 76.9914L110.157 64.0351L113.141 65.5953L115.922 57.9977Z" fill="#263238" stroke="#263238" stroke-miterlimit="10" stroke-linecap="round" stroke-linejoin="round"/>
<path d="M103.048 70.9123C106.412 70.1114 108.489 66.7352 107.688 63.3714C106.888 60.0075 103.511 57.9297 100.147 58.7306C96.7836 59.5315 94.7059 62.9076 95.5067 66.2715C96.3076 69.6354 99.6838 71.7131 103.048 70.9123Z" stroke="white" stroke-miterlimit="10"/>
<path d="M105.42 61.9881H97.998L101.656 65.5148L105.42 61.9881Z" fill="#DFF000"/>
<path d="M103.143 64.7349L105.727 67.0184V62.3138L103.143 64.7349Z" fill="#DFF000"/>
<path d="M100.199 64.7305L97.582 62.2078V66.9111L100.199 64.7305Z" fill="#DFF000"/>
<path d="M102.815 65.0422L101.652 66.1318L100.522 65.0425L97.7988 67.3119H105.383L102.815 65.0422Z" fill="#DFF000"/>
</svg>
