<svg width="197" height="173" viewBox="0 0 197 173" fill="none" xmlns="http://www.w3.org/2000/svg">
<path d="M97.5 173C151.348 173 195 129.572 195 76H0C0 129.572 43.6522 173 97.5 173Z" fill="#DCD7C3"/>
<ellipse cx="97" cy="128.5" rx="67" ry="10.5" fill="#C9C3A9"/>
<path d="M44.1092 30.8867C44.1092 30.8867 78.3912 42.6878 93.6351 15.1022C108.879 -12.4834 15.3363 20.6375 44.1092 30.8867Z" fill="#CAE2FF"/>
<path opacity="0.41" d="M86.2292 4.37849C88.6584 5.99115 89.14 8.89985 86.6008 13.4945C75.8159 33.011 55.5045 32.8123 44.543 31.0267C48.5436 32.2711 79.3941 40.8718 93.6347 15.1022C97.8465 7.4805 93.7518 4.49473 86.2292 4.37849Z" fill="#A6CEF4"/>
<path d="M32.8271 116.611C32.8271 116.611 31.5757 115.443 32.4155 111.009C33.2554 106.576 35.3859 102.318 34.3406 97.5086C33.2954 92.6989 25.0996 80.5713 25.0721 79.7647C25.0446 78.9582 22.5438 93.8733 26.7819 99.749C31.0203 105.624 31.5303 107.663 31.342 110.753C31.1537 113.843 31.3857 116.331 31.8506 117.049L32.8271 116.611Z" fill="#EAF198"/>
<path d="M32.0516 107.694C31.5587 109.672 31.2613 114.631 32.0486 115.818C32.122 115.929 32.2282 115.866 32.3594 115.661C32.1195 114.841 31.962 113.405 32.4157 111.009C33.2555 106.575 35.386 102.318 34.3408 97.5081C33.2955 92.6985 25.0998 80.5709 25.0723 79.7643C25.0723 79.7643 26.3075 89.8685 30.4664 96.8233C33.4443 101.802 32.544 105.717 32.0516 107.694Z" fill="#DFF000"/>
<path d="M34.3197 116.303C34.3197 116.303 31.9122 110.292 35.9923 105.087C40.0729 99.8824 46.599 93.1993 46.729 90.5518C46.729 90.5518 48.4062 103.122 43.0945 106.68C37.7833 110.239 34.0585 110.806 34.9796 116.281L34.3197 116.303Z" fill="#EAF198"/>
<path d="M40.0521 104.153C34.1298 108.463 33.6457 113.429 34.5647 115.732C34.6363 115.911 34.7713 116.02 34.95 116.079C34.156 110.794 37.8504 110.193 43.0946 106.68C48.4058 103.122 46.729 90.5513 46.729 90.5513C46.729 90.5513 45.9749 99.8424 40.0521 104.153Z" fill="#DFF000"/>
<path d="M30.3618 116.438C30.3618 116.438 31.1341 113.255 30.7234 109.819C30.3122 106.382 26.7223 104.449 23.3683 100.819C21.6423 98.9517 21.132 89.0758 22.2018 88.1584C22.2018 88.1584 16.2798 95.3347 17.1935 100.59C18.1071 105.845 27.7676 109.259 28.6616 111.798C29.5556 114.337 29.4819 116.468 29.4819 116.468L30.3618 116.438Z" fill="#EAF198"/>
<path d="M20.2006 90.9829C18.243 96.2833 20.2498 102.702 26.7516 106.69C31.5384 109.625 30.014 115.729 30.014 115.729L30.796 113.321C30.8651 112.28 30.8731 111.067 30.7239 109.819C30.3127 106.382 26.7229 104.449 23.3688 100.819C21.7045 99.0179 21.1709 89.7698 22.0953 88.2921C21.8228 88.6337 21.0567 89.6265 20.2006 90.9829Z" fill="#DFF000"/>
<path d="M22.0947 88.2921C22.1618 88.2076 22.2022 88.1584 22.2022 88.1584C22.1643 88.1909 22.1289 88.238 22.0947 88.2921Z" fill="black"/>
<path d="M35.5615 116.041C35.5615 116.041 36.9496 110.891 40.3824 110.198C43.8152 109.505 47.7571 104.432 47.97 103.437C47.97 103.437 47.3913 113.004 35.5615 116.041Z" fill="#EAF198"/>
<path d="M40.1861 111.9C38.0827 112.952 37.2082 114.367 36.8975 115.651C47.4295 112.264 47.9699 103.437 47.9699 103.437C47.9278 103.634 47.7353 103.993 47.4349 104.443C46.4022 106.253 43.9013 110.043 40.1861 111.9Z" fill="#DFF000"/>
<path d="M42.988 114.145H25.0342L27.1663 127.555C27.328 128.572 28.2049 129.32 29.2348 129.32H38.7874C39.8172 129.32 40.6942 128.572 40.8558 127.555L42.988 114.145Z" fill="#F95858"/>
<path d="M42.6351 116.363L42.988 114.145H25.0342L25.3866 116.363H42.6351Z" fill="#E53838"/>
<path d="M38.6391 114.145L36.5069 127.555C36.3453 128.572 35.4683 129.32 34.4385 129.32H38.7882C39.818 129.32 40.695 128.572 40.8566 127.555L42.9888 114.145H38.6391Z" fill="#E53838"/>
<path d="M113.673 98.7834H109.937V129.347H113.673V98.7834Z" fill="white"/>
<path d="M113.674 98.7834H112.206V129.347H113.674V98.7834Z" fill="#E8F2FC"/>
<path d="M122.54 126.844H102.113C101.422 126.844 100.861 127.405 100.861 128.096C100.861 128.787 101.422 129.347 102.113 129.347H122.54C123.231 129.347 123.791 128.787 123.791 128.096C123.791 127.405 123.231 126.844 122.54 126.844Z" fill="white"/>
<path d="M122.54 126.844H102.113C101.658 126.844 101.263 127.09 101.044 127.453H118.735C119.426 127.453 119.987 128.013 119.987 128.704C119.987 128.941 119.918 129.158 119.804 129.347H122.54C123.231 129.347 123.792 128.787 123.792 128.096C123.792 127.405 123.231 126.844 122.54 126.844Z" fill="#E8F2FC"/>
<path d="M113.673 98.7834H109.937V101.505H113.673V98.7834Z" fill="#E8F2FC"/>
<path d="M133.034 56.1712C132.507 55.9379 131.923 55.8092 131.304 55.8092H110.266C108.211 55.8092 106.445 57.2694 106.058 59.2886L99.4653 93.7539C99.3608 94.3088 99.3649 94.86 99.4653 95.3749C99.4674 95.3866 99.4712 95.3978 99.4737 95.4095H93.6254C92.6631 95.4095 91.8828 96.1898 91.8828 97.1521C91.8828 98.1149 92.6631 98.8948 93.6254 98.8948H112.53V98.8423H124.715C126.771 98.8423 128.537 97.3821 128.923 95.3628L135.512 60.8975C135.898 58.8662 134.792 56.9473 133.034 56.1712Z" fill="#FF9933"/>
<path d="M135.511 60.8978L128.924 95.3639C128.539 97.3823 126.773 98.8409 124.718 98.8409H112.531V98.8959H93.6278C92.6646 98.8959 91.8848 98.116 91.8848 97.1528C91.8848 96.1896 92.6646 95.4097 93.6278 95.4097H99.476C99.4715 95.396 99.4669 95.3868 99.4669 95.3731C99.5173 95.3777 99.5769 95.3777 99.6273 95.3777H120.663C123.488 95.3777 125.924 93.3684 126.452 90.5934L133.034 56.1731C134.791 56.9484 135.896 58.8656 135.511 60.8978Z" fill="#E8F2FC"/>
<path d="M126.493 90.3872L126.452 90.5934C125.925 93.3684 123.489 95.3777 120.663 95.3777H99.6276C99.5772 95.3777 99.5176 95.3777 99.4672 95.3731C99.4672 95.3868 99.4718 95.396 99.4764 95.4097H93.6281C92.7566 95.4097 92.0317 96.0517 91.908 96.8866V92.1757C91.908 92.1665 91.9034 92.1528 91.9034 92.139C91.7659 91.2079 92.55 90.3868 93.4952 90.3868H126.493V90.3872Z" fill="white"/>
<path d="M133.034 56.171L126.452 90.5918C125.921 93.3672 123.488 95.3785 120.664 95.3785H99.6264C99.5739 95.3785 99.5176 95.3785 99.4655 95.3743C99.3651 94.8594 99.361 94.3083 99.4655 93.7533L106.059 59.288C106.445 57.2688 108.211 55.8086 110.266 55.8086H131.304C131.923 55.809 132.507 55.9377 133.034 56.171Z" fill="white"/>
<path d="M83.1769 47.9082H47.3635C46.5307 47.9082 45.8916 48.6472 46.0116 49.4713L49.0782 70.5283C49.1761 71.1999 49.7518 71.6977 50.43 71.6977H86.2435C87.0763 71.6977 87.7153 70.9587 87.5953 70.1346L84.5288 49.0776C84.4313 48.406 83.8555 47.9082 83.1769 47.9082Z" fill="#1D54B5"/>
<path d="M78.1673 47.9082H47.3635C46.5307 47.9082 45.8916 48.6472 46.0116 49.4713L47.3672 58.7781C50.6696 60.2229 54.4132 61.0436 58.385 61.0436C68.6546 61.0432 74.7066 55.5874 78.1673 47.9082Z" fill="#3070CE"/>
<path d="M66.9298 63.9803H62.3581H60.1488C59.5631 63.9803 59.1132 64.4981 59.1977 65.0785L61.2524 79.1808C61.2524 79.2245 61.2553 79.2708 61.2607 79.3145L61.3532 79.8703C61.4216 80.3418 61.8273 80.6905 62.3018 80.6905H64.504H68.9945L66.9298 63.9803Z" fill="#4286E8"/>
<path d="M76.8315 79.7043C76.8232 79.1736 76.3904 78.7474 75.8596 78.7474H70.7292C69.9731 78.7474 69.3332 78.1892 69.2307 77.4401L67.7272 66.4548H68.6183C69.2036 66.4548 69.6523 65.9357 69.5681 65.3566L69.4769 64.8005C69.4082 64.3289 69.0036 63.9789 68.527 63.9789L66.7477 63.9793C65.9362 63.9793 65.3105 64.6946 65.4184 65.4995L67.2939 79.4744C67.3872 80.1705 67.9813 80.6904 68.6837 80.6904L75.8592 80.6917C76.402 80.6917 76.8399 80.2472 76.8315 79.7043Z" fill="#1D54B5"/>
<path d="M73.1453 68.6569C73.1453 69.0114 72.8578 69.2989 72.5033 69.2989C72.1488 69.2989 71.8613 69.0114 71.8613 68.6569C71.8613 68.3024 72.1488 68.0149 72.5033 68.0149C72.8578 68.0149 73.1453 68.3024 73.1453 68.6569Z" fill="#4286E8"/>
<path d="M76.4431 68.6569C76.4431 69.0114 76.1557 69.2989 75.8012 69.2989C75.4466 69.2989 75.1592 69.0114 75.1592 68.6569C75.1592 68.3024 75.4466 68.0149 75.8012 68.0149C76.1557 68.0149 76.4431 68.3024 76.4431 68.6569Z" fill="#4286E8"/>
<path d="M78.6898 69.2989C79.0444 69.2989 79.3318 69.0115 79.3318 68.6569C79.3318 68.3024 79.0444 68.0149 78.6898 68.0149C78.3353 68.0149 78.0479 68.3024 78.0479 68.6569C78.0479 69.0115 78.3353 69.2989 78.6898 69.2989Z" fill="#4286E8"/>
<path d="M82.4818 57.6741L84.3536 70.5279C84.4515 71.1994 85.0272 71.6973 85.7054 71.6973H86.2428C87.0756 71.6973 87.7147 70.9582 87.5947 70.1342L84.5281 49.0771C84.4302 48.4056 83.8545 47.9077 83.1763 47.9077H82.6388C81.8061 47.9077 81.167 48.6468 81.287 49.4708L82.4818 57.6741Z" fill="#4286E8"/>
<path d="M68.9309 50.207H56.4241C56.1183 50.207 55.8855 50.4807 55.9342 50.7827L56.0179 51.3005C56.0567 51.5409 56.2642 51.7175 56.5079 51.7175H69.0146C69.3204 51.7175 69.5533 51.4438 69.5045 51.1418L69.4208 50.624C69.3821 50.3836 69.1746 50.207 68.9309 50.207Z" fill="#4286E8"/>
<path d="M119.707 56.6243C119.31 53.576 114.846 55.0016 116.522 52.1608C118.071 49.5338 116.268 48.3714 114.135 47.9619C111.417 47.4391 112.96 46.3688 111.637 43.8318C109.956 40.6085 107.363 41.5659 107.363 41.5659C107.363 41.5659 104.113 39.7987 100.801 42.5928C97.3115 45.5369 98.0722 48.1411 99.9402 51.718C100.884 53.5256 99.7257 55.1362 98.8991 58.4594C97.908 62.4463 102.83 70.4717 113.363 65.0509C117.437 62.9545 119.917 58.2415 119.707 56.6243Z" fill="black"/>
<path d="M105.158 57.4575C105.158 57.4575 103.55 57.63 101.914 59.2664C100.813 60.3662 95.4284 71.0849 95.4284 71.0849L90.4583 55.8644L86.8193 56.1444C86.8193 56.1444 90.9166 80.6238 94.1044 80.6696C97.1189 80.7125 106.694 64.865 106.694 64.865L105.158 57.4575Z" fill="#DFF000"/>
<path d="M115.436 63.874L118.623 75.8029L99.7822 77.3426L99.8685 80.7446C99.8685 80.7446 121.588 80.8417 125.679 80.7983C128.404 80.7696 123.274 59.1943 120.001 56.7255C117.412 54.7729 110.257 55.2937 110.257 55.2937L105.158 57.4575C105.158 57.4575 99.2436 63.3141 102.775 68.8265C105.556 73.1687 102.011 81.6045 102.011 81.6045L114.053 82.321L124.808 82.4227L115.436 63.874Z" fill="#DFF000"/>
<path d="M103.413 77.0456L104.088 76.9223C104.734 74.1015 104.849 70.2479 103.377 68.3957C100.46 64.7255 103.463 59.3951 105.149 57.4679H105.147C104.877 57.7404 99.3296 63.4461 102.774 68.8273C104.42 71.3969 104.018 74.7431 103.413 77.0456Z" fill="#DFF000"/>
<path d="M99.8358 78.1279C97.8433 78.2008 95.7123 78.9136 94.7146 80.0855C94.4934 80.3459 94.6817 80.7463 95.0233 80.7463H99.8667L99.8358 78.1279Z" fill="#FFB19E"/>
<path d="M110.26 51.2881V55.3107L106.655 59.4388L106.632 59.393L105.65 57.2921V55.0354C103.852 54.7829 102.265 53.4206 101.838 51.4714L101.329 48.6872C101.329 48.6872 104.017 48.4027 106.155 46.2285C106.155 46.2285 106.797 47.4074 107.719 48.3202C108.388 48.9851 109.315 49.1505 109.668 49.5129C110.141 49.9945 110.31 50.6273 110.26 51.2881Z" fill="#FFB19E"/>
<path d="M109.275 47.8032C109.275 47.8032 109.138 46.106 108.499 44.6604C107.762 42.9931 106.724 41.0409 104.569 41.0351C104.569 41.0351 109.801 40.2223 110.677 47.5045L109.275 47.8032Z" fill="#FF4751"/>
<path d="M112.405 48.9997C112.253 47.5991 111.08 46.5767 109.784 46.7167C108.488 46.8567 107.559 48.1057 107.71 49.5063C107.862 50.9069 109.035 51.9292 110.331 51.7892C111.628 51.6493 112.556 50.4003 112.405 48.9997Z" fill="#FF4751"/>
<path d="M110.773 51.5422C109.525 51.6768 108.395 50.6928 108.25 49.3442C108.115 48.0944 108.873 46.9717 109.978 46.7067C109.913 46.708 109.849 46.7101 109.784 46.7171C108.488 46.8571 107.559 48.1061 107.71 49.5067C107.862 50.9073 109.035 51.9296 110.331 51.7897C110.73 51.7467 111.095 51.5976 111.403 51.3718C111.207 51.4585 110.996 51.518 110.773 51.5422Z" fill="#CC3241"/>
<path d="M111.5 49.0651C111.426 48.386 110.858 47.8907 110.229 47.9586C109.601 48.0265 109.151 48.6318 109.225 49.3105C109.298 49.9895 109.867 50.4845 110.495 50.417C111.123 50.3491 111.573 49.7437 111.5 49.0651Z" fill="#CC3241"/>
<path d="M109.058 53.329C108.906 53.526 108.053 54.5996 107.37 55.1729C107.094 55.4024 106.948 55.7415 106.948 56.0994L106.631 59.3926L105.649 57.2917V55.0441L105.672 55.0212C105.672 55.0212 107.943 54.6779 109.058 53.329Z" fill="#F48F7A"/>
<path d="M107.525 53.1565L107.485 52.9274C108.801 52.7024 109.762 50.9335 109.772 50.9156L109.977 51.0256C109.935 51.1027 108.951 52.9128 107.525 53.1565Z" fill="#FF4751"/>
<path d="M107.769 53.0265C107.738 52.8107 107.411 52.6924 107.04 52.762C106.668 52.8316 106.392 53.0628 106.423 53.2786C106.455 53.4944 106.781 53.6127 107.153 53.5431C107.524 53.4735 107.801 53.2423 107.769 53.0265Z" fill="#FF4751"/>
<path d="M90.1619 55.9573C90.1619 55.9573 90.6756 51.7451 90.2131 51.5909C89.7507 51.4368 89.2887 53.2348 89.2887 53.2348C89.2887 53.2348 87.3369 49.4338 86.0013 49.8445C84.6657 50.2553 87.1215 56.101 87.1215 56.101L90.1619 55.9573Z" fill="#FFB19E"/>
<path d="M103.406 77.0227L118.243 75.7816C118.752 75.7391 119.111 75.2646 119.012 74.7639C118.464 71.9906 116.88 64.0385 116.785 64.2756C116.67 64.5626 118.278 73.6349 116.383 74.5535C115.087 75.1821 103.406 77.0227 103.406 77.0227Z" fill="#DFF000"/>
<path d="M113.496 120.909C113.389 120.936 113.287 120.999 113.214 121.101C112.27 122.415 111.432 122.725 109.776 122.948C109.678 122.962 109.574 122.996 109.465 123.052C109.592 122.862 110.144 121.957 109.764 121.143C109.336 120.226 108.819 119.558 108.819 119.558L111.239 118.117C111.239 118.117 112.723 119.83 113.496 120.909Z" fill="#FFB19E"/>
<path d="M115.287 123.986C114.86 124.396 107.954 128.171 106.314 129.118C106.114 129.233 105.708 129.445 105.633 129.226C105.517 128.884 108.503 123.122 109.775 122.949C111.431 122.725 112.269 122.416 113.212 121.101C113.409 120.826 113.82 120.827 114.006 121.11C114.669 122.113 115.632 123.657 115.287 123.986Z" fill="#13448C"/>
<path d="M102.106 81.5853C102.106 81.5853 85.3486 89.3528 84.9041 94.7398C84.5088 99.5307 109.205 121.449 109.205 121.449L113.11 119.841L99.5943 98.0551C99.5943 98.0551 113.912 90.9975 117.411 82.5001L102.106 81.5853Z" fill="#455A64"/>
<path d="M91.4253 93.3272C90.288 95.5143 89.4535 98.5688 88.8711 101.337C90.7683 103.589 93.1608 106.125 95.6346 108.619C93.8078 101.401 92.1864 94.1616 92.7463 93.1255C93.8149 91.1488 100.916 85.8921 105.934 83.2775C105.934 83.2775 94.0628 88.2542 91.4253 93.3272Z" fill="#455A64"/>
<path d="M103.624 125.408C103.517 125.378 103.397 125.383 103.283 125.437C101.818 126.123 100.936 125.984 99.3816 125.37C99.2887 125.333 99.1821 125.313 99.0596 125.308C99.2637 125.204 100.187 124.684 100.253 123.789C100.328 122.779 100.203 121.944 100.203 121.944L103.018 121.869C103.018 121.869 103.476 124.088 103.624 125.408Z" fill="#FFB19E"/>
<path d="M103.684 129.173C103.111 129.321 94.9606 129.231 93.0663 129.256C92.8351 129.258 92.6585 129.051 92.7006 128.823C92.766 128.468 98.1863 124.899 99.3812 125.37C100.935 125.983 101.818 126.123 103.283 125.436C103.589 125.292 103.947 125.495 103.972 125.832C104.06 127.031 104.145 129.054 103.684 129.173Z" fill="#13448C"/>
<path d="M124.75 82.386C124.75 82.386 126.153 91.8753 117.648 94.2774C110.943 96.1709 103.753 97.137 103.753 97.137L104.268 124.071H99.7952C99.7952 124.071 91.5849 95.2706 92.7463 93.1264C94.0653 90.6913 104.513 83.2954 108.976 81.9607L124.75 82.386Z" fill="#455A64"/>
<path opacity="0.13" d="M103.753 97.137C103.753 97.137 110.943 96.1709 117.648 94.2774C126.153 91.8753 124.75 82.386 124.75 82.386L119.484 82.2439C117.901 85.6463 112.756 94.0691 100.279 94.9777L103.104 124.07H104.267L103.753 97.137Z" fill="#455A64"/>
<path d="M48.3965 129.343L46.5234 129.329L54.3097 82.5343L56.1936 82.5197L48.3965 129.343Z" fill="white"/>
<path d="M125.523 129.328L127.512 129.343L117.859 81.9998L115.882 82.0148L125.523 129.328Z" fill="white"/>
<path d="M55.6817 85.1139L56.195 82.5197L54.3111 82.5343L53.8008 85.1139H55.6817Z" fill="#E4EDF7"/>
<path d="M118.495 85.1139L117.862 81.9998L115.885 82.0148L116.515 85.1139H118.495Z" fill="#E4EDF7"/>
<path d="M129.218 80.7208H44.7841C44.2588 80.7208 43.833 81.1466 43.833 81.6719C43.833 82.1973 44.2588 82.623 44.7841 82.623H129.218C129.744 82.623 130.17 82.1973 130.17 81.6719C130.17 81.1466 129.744 80.7208 129.218 80.7208Z" fill="white"/>
<path d="M95.8574 39.2392L93.6323 26.3558C93.5457 25.7596 93.0341 25.3172 92.4317 25.3172L71.7321 25.5434C70.9926 25.5434 70.4248 26.1996 70.5315 26.9315L72.4837 38.236L73.471 44.6362C73.5231 44.9745 73.9642 45.0716 74.1538 44.7866L76.7884 40.8227L94.6568 40.6273C95.3962 40.6277 95.9641 39.9715 95.8574 39.2392Z" fill="#DFF000"/>
<path d="M88.4982 29.3149H76.5022C76.2956 29.3149 76.1381 29.4999 76.1715 29.7036L76.2281 30.0535C76.2544 30.216 76.3948 30.3352 76.5593 30.3352H88.5553C88.7619 30.3352 88.9194 30.1502 88.8865 29.9465L88.8298 29.5965C88.8032 29.4341 88.6628 29.3149 88.4982 29.3149Z" fill="white"/>
<path d="M88.9006 32.499H76.9046C76.6979 32.499 76.5405 32.6839 76.5738 32.8877L76.6305 33.2376C76.6567 33.4001 76.7971 33.5192 76.9612 33.5192H88.9572C89.1639 33.5192 89.3213 33.3343 89.288 33.1305L89.2314 32.7806C89.2051 32.6185 89.0651 32.499 88.9006 32.499Z" fill="white"/>
<path d="M86.0437 35.9559L80.4925 35.9655C80.2858 35.9655 80.1284 36.1505 80.1617 36.3546L80.2184 36.7046C80.2446 36.867 80.385 36.9862 80.5491 36.9862L86.1003 36.9766C86.307 36.9766 86.4644 36.7916 86.4311 36.5879L86.3744 36.238C86.3482 36.0751 86.2082 35.9559 86.0437 35.9559Z" fill="white"/>
<path d="M179.943 18.8232L182.697 6.70477C182.839 6.14403 182.525 5.72784 181.958 5.72784L162.402 5.94073C161.706 5.94073 160.926 6.55813 160.75 7.24635L158.334 17.8796L156.854 23.8999C156.776 24.2182 157.155 24.3095 157.44 24.0416L161.41 20.3126L178.291 20.1289C178.987 20.1289 179.768 19.5115 179.943 18.8232Z" fill="#DFF000"/>
<path d="M176.452 9.66306H165.716C165.531 9.66306 165.324 9.82845 165.281 10.0109L165.206 10.3242C165.171 10.4696 165.254 10.5762 165.401 10.5762H176.137C176.322 10.5762 176.529 10.4109 176.573 10.2284L176.647 9.9151C176.682 9.76971 176.599 9.66306 176.452 9.66306Z" fill="white"/>
<path d="M175.672 12.5126H164.937C164.752 12.5126 164.545 12.678 164.501 12.8605L164.427 13.1738C164.392 13.3191 164.475 13.4258 164.622 13.4258H175.358C175.543 13.4258 175.75 13.2604 175.793 13.0779L175.868 12.7647C175.902 12.6197 175.82 12.5126 175.672 12.5126Z" fill="white"/>
<path d="M171.877 15.6063L166.905 15.615C166.72 15.615 166.513 15.7804 166.47 15.9629L166.396 16.2762C166.361 16.4216 166.444 16.5282 166.591 16.5282L171.563 16.5195C171.748 16.5195 171.955 16.3541 171.998 16.1716L172.073 15.8583C172.107 15.7129 172.025 15.6063 171.877 15.6063Z" fill="white"/>
<path d="M68.5428 39.1458C68.8111 39.3687 69.2114 39.1371 69.1518 38.7934L66.4981 23.4929C66.4244 22.9868 65.9907 22.6118 65.4791 22.6118L47.9128 22.8039C47.2849 22.8039 46.8033 23.3609 46.8937 23.982L48.7818 34.9153C48.8555 35.4214 49.2892 35.7968 49.8008 35.7968L63.327 35.6489C63.971 35.6418 64.5963 35.8639 65.0917 36.2759L68.5428 39.1458Z" fill="#F95858"/>
<path d="M63.0728 27.2044H51.0768C50.8701 27.2044 50.7127 27.3894 50.7456 27.5931L50.8022 27.9431C50.8285 28.1055 50.9689 28.2247 51.133 28.2247H63.129C63.3356 28.2247 63.4931 28.0397 63.4598 27.836L63.4031 27.486C63.3773 27.3236 63.2373 27.2044 63.0728 27.2044Z" fill="white"/>
<path d="M63.4765 30.3885H51.4801C51.2735 30.3885 51.116 30.5735 51.1489 30.7772L51.2056 31.1271C51.2318 31.2896 51.3722 31.4087 51.5363 31.4087H63.5323C63.739 31.4087 63.8964 31.2238 63.8631 31.0201L63.8064 30.6701C63.781 30.5076 63.6406 30.3885 63.4765 30.3885Z" fill="white"/>
<path d="M161.15 64.7022L161.086 67.1105L159.64 123.037H153.862L148.743 75.1172C148.743 75.1172 148.738 75.1218 148.738 75.1309L142.232 91.2871L146.673 123.035L144.537 123.054L141.005 123.086C141.005 123.086 130.44 91.4025 130.653 89.3503C130.87 87.3023 138.8 64.9101 138.8 64.9101L161.15 64.7022Z" fill="#455A64"/>
<path d="M161.711 30.0869L150.856 28.5946L150.601 28.5575L145.41 28.5809L145.364 28.59L139.164 30.1415V65.0084H161.711V30.0869Z" fill="#F95858"/>
<path d="M180.287 36.8612C180.287 36.8612 181.077 31.9324 181.649 31.9083C182.222 31.8845 182.16 34.0675 182.16 34.0675C182.16 34.0675 185.603 30.4052 186.979 31.3042C188.355 32.2032 183.678 38.0127 183.678 38.0127L180.287 36.8612Z" fill="#FFB19E"/>
<path d="M145.419 28.6084L146.007 67.1105H137.889L137.316 56.5726L126.545 56.3973C125.425 56.4335 124.596 55.3678 124.905 54.2913L130.271 35.6347C130.895 33.453 132.633 31.775 134.834 31.2246L145.364 28.5896L145.419 28.6084Z" fill="#DFF000"/>
<path d="M184.029 38.1689L173.585 59.6222C172.924 60.824 171.21 60.852 170.502 59.6821L162.329 46.1377L161.922 67.1105H153.25L150.823 28.6038L150.856 28.5946L161.885 30.1106C163.965 30.4252 165.759 31.747 166.679 33.6422L172.259 45.1478C172.397 45.4298 172.781 45.4761 172.984 45.2357L180.081 36.7575L184.029 38.1689Z" fill="#DFF000"/>
<path d="M137.265 56.6751H147.848L147.95 51.2556L137.367 51.1023L137.265 56.6751Z" fill="#DFF000"/>
<path d="M147.915 55.1783C150.9 55.0691 154.093 54.0014 155.587 52.2458C155.918 51.8559 155.636 51.2556 155.124 51.2556H147.868L147.915 55.1783Z" fill="#FFB19E"/>
<path opacity="0.41" d="M143.787 56.8968L143.797 56.723L137.321 56.6756L137.889 67.1105L139.821 58.4644L143.787 56.8968Z" fill="#13448C"/>
<path opacity="0.32" d="M161.086 67.1105L159.64 123.037H159.233L155.354 67.1105H161.086Z" fill="#0E367C"/>
<path opacity="0.41" d="M147.937 51.2173C147.937 51.2173 133.58 52.2571 133.672 51.9842L136.164 43.3964L136.202 43.526L136.446 49.5171C136.479 50.3303 147.188 51.0048 147.937 51.2173Z" fill="#13448C"/>
<path opacity="0.41" d="M173.586 59.6217L184.029 38.1685L183.98 38.1527C182.872 38.1473 173.155 58.464 172.133 58.9756C170.969 59.5576 162.329 46.1377 162.329 46.1377L170.502 59.6821C171.21 60.8515 172.924 60.8241 173.586 59.6217Z" fill="#13448C"/>
<path d="M141.661 123.026C140.415 125.578 134.493 126.868 134.493 126.868C134.493 126.868 134.065 127.621 134.741 128.574C135.417 129.526 141.65 128.943 142.431 128.769C143.212 128.596 143.75 127.962 143.75 127.962C143.75 127.962 144.274 128.532 144.567 128.673C144.86 128.814 146.452 128.495 146.452 128.495C146.826 127.48 146.453 123.604 146.345 122.985L141.661 123.026Z" fill="#13448C"/>
<path d="M159.1 123.026C160.346 125.578 166.268 126.868 166.268 126.868C166.268 126.868 166.696 127.621 166.02 128.574C165.344 129.526 159.112 128.943 158.33 128.769C157.549 128.596 157.011 127.962 157.011 127.962C157.011 127.962 156.487 128.532 156.194 128.673C155.901 128.814 154.31 128.495 154.31 128.495C153.935 127.48 154.308 123.604 154.416 122.985L159.1 123.026Z" fill="#13448C"/>
<path opacity="0.32" d="M142.232 91.2871L146.673 123.035L144.537 123.054C143.219 116.217 138.613 93.358 138.784 91.9249C138.983 90.2144 148.448 75.6158 148.739 75.1305L142.232 91.2871Z" fill="#0E367C"/>
<path fill-rule="evenodd" clip-rule="evenodd" d="M150.835 28.6284C150.048 29.2566 148.146 30.596 148.146 30.596C148.146 30.596 146.211 29.2699 145.412 28.6338L145.405 24.0383H150.835V28.6284H150.835Z" fill="#FFB19E"/>
<path fill-rule="evenodd" clip-rule="evenodd" d="M150.836 24.0383V25.9605C149.264 27.2644 146.983 27.2686 145.406 25.983V24.0387L150.836 24.0383Z" fill="#FFB19E"/>
<path fill-rule="evenodd" clip-rule="evenodd" d="M142.092 21.0679H154.293L154.481 17.6714C157.178 16.5303 155.156 10.0988 155.156 10.0988C155.311 11.6548 151.11 11.7069 149.45 11.4474C147.791 11.1878 146.65 11.8623 146.65 11.8623C146.65 11.8623 141.359 10.7212 141.67 18.1384C141.717 19.259 141.867 20.2047 142.092 21.0679Z" fill="black"/>
<path fill-rule="evenodd" clip-rule="evenodd" d="M153.001 17.666V20.7271C153.001 22.0373 152.463 23.2876 151.512 24.1849C151.356 24.3224 151.201 24.472 151.039 24.6215C149.394 26.1708 146.822 26.1708 145.176 24.6215L144.709 24.1849C143.755 23.2917 143.214 22.0436 143.214 20.7367V18.4008C143.214 18.4008 144.628 17.4535 146.572 15.1351C146.572 15.1351 148.723 17.1994 153.001 17.666Z" fill="#FFB19E"/>
<path fill-rule="evenodd" clip-rule="evenodd" d="M150.835 24.7998V25.9601C149.263 27.264 146.982 27.2682 145.405 25.9826V24.8177C146.982 26.1084 149.263 26.1038 150.835 24.7998Z" fill="#F48F7A"/>
<path fill-rule="evenodd" clip-rule="evenodd" d="M144.43 21.427C145.378 19.9093 143.779 18.3104 142.261 19.2574C142.142 19.3311 142.039 19.434 141.965 19.5523C141.015 21.0712 142.616 22.6727 144.135 21.722C144.253 21.6482 144.356 21.5453 144.43 21.427Z" fill="#FFB19E"/>
<path fill-rule="evenodd" clip-rule="evenodd" d="M154.177 21.4275C155.103 19.9452 153.6 18.385 152.116 19.1949C151.919 19.302 151.756 19.4657 151.648 19.6619C150.839 21.1467 152.399 22.6498 153.881 21.7228C154 21.6491 154.103 21.5462 154.177 21.4275Z" fill="#FFB19E"/>
<path d="M154.13 18.1959H153.666V16.5899C153.666 13.9224 151.233 11.7523 148.243 11.7523H148.014C145.024 11.7523 142.591 13.9224 142.591 16.5899V18.1959H142.127V16.5899C142.127 13.6791 144.768 11.3107 148.015 11.3107H148.243C151.49 11.3107 154.131 13.6791 154.131 16.5899V18.1959H154.13Z" fill="#A31919"/>
<path d="M153.744 17.3393C153.024 17.3393 152.436 17.928 152.436 18.6475V20.9796C152.436 21.699 153.024 22.2877 153.744 22.2877C154.463 22.2877 155.052 21.699 155.052 20.9796V18.6475C155.052 17.928 154.463 17.3393 153.744 17.3393Z" fill="#F95858"/>
<path d="M153.743 17.3393C153.606 17.3393 153.476 17.3668 153.351 17.4064C153.879 17.5747 154.266 18.0655 154.266 18.6475V20.9796C154.266 21.5616 153.878 22.0523 153.351 22.2206C153.475 22.2602 153.606 22.2877 153.743 22.2877C154.462 22.2877 155.051 21.699 155.051 20.9796V18.6475C155.051 17.928 154.462 17.3393 153.743 17.3393Z" fill="#CC3241"/>
<path d="M142.511 17.3393C141.792 17.3393 141.203 17.928 141.203 18.6475V20.9796C141.203 21.6991 141.792 22.2877 142.511 22.2877C143.231 22.2877 143.819 21.6991 143.819 20.9796V18.6475C143.819 17.928 143.231 17.3393 142.511 17.3393Z" fill="#F95858"/>
<path d="M142.511 17.3393C142.373 17.3393 142.243 17.3668 142.118 17.4064C142.646 17.5747 143.034 18.0655 143.034 18.6475V20.9796C143.034 21.5616 142.646 22.0523 142.118 22.2206C142.243 22.2602 142.373 22.2877 142.511 22.2877C143.23 22.2877 143.819 21.6991 143.819 20.9796V18.6475C143.819 17.928 143.23 17.3393 142.511 17.3393Z" fill="#CC3241"/>
<path d="M150.21 23.7487L150.193 23.4888C151.685 23.3942 152.966 21.5382 152.979 21.5195L153.194 21.6666C153.14 21.7474 151.827 23.6462 150.21 23.7487Z" fill="#FF4751"/>
<path d="M150.499 23.6325C150.49 23.3884 150.141 23.218 149.718 23.2513C149.296 23.2846 148.961 23.5096 148.97 23.7533C148.979 23.9974 149.329 24.1678 149.751 24.1345C150.173 24.1016 150.508 23.8766 150.499 23.6325Z" fill="#FF4751"/>
<path d="M156.695 35.346H137.744C136.713 35.346 135.906 36.238 135.95 37.3207L136.447 49.5183C136.487 50.4999 137.315 51.2976 138.287 51.2976H156.152C157.124 51.2976 157.952 50.4999 157.992 49.5183L158.489 37.3207C158.533 36.2384 157.726 35.346 156.695 35.346Z" fill="#13448C"/>
<path d="M156.695 35.346H137.744C137.225 35.346 136.763 35.5731 136.438 35.9355C136.593 35.8897 136.755 35.8572 136.926 35.8572H155.877C156.908 35.8572 157.715 36.7491 157.671 37.8315L157.174 50.0291C157.155 50.4849 156.963 50.8965 156.669 51.2114C157.4 50.9881 157.96 50.3182 157.992 49.5179L158.489 37.3203C158.533 36.2384 157.726 35.346 156.695 35.346Z" fill="#1D54B5"/>
<path d="M149.23 43.6376C149.23 42.4516 148.268 41.4905 147.083 41.4905C145.897 41.4905 144.936 42.452 144.936 43.6376C144.936 44.8237 145.897 45.7848 147.083 45.7848C148.268 45.7852 149.23 44.8237 149.23 43.6376Z" fill="#4286E8"/>
</svg>
