<svg width="195" height="215" viewBox="0 0 195 215" fill="none" xmlns="http://www.w3.org/2000/svg">
<path d="M97.5 215C151.348 215 195 171.572 195 118H0C0 171.572 43.6522 215 97.5 215Z" fill="#DCD7C3"/>
<ellipse cx="97" cy="170.5" rx="67" ry="10.5" fill="#C9C3A9"/>
<path fill-rule="evenodd" clip-rule="evenodd" d="M169.13 117.571H101.891C100.701 117.571 99.7148 116.603 99.7148 115.394V17.4653C99.7148 16.2563 100.701 15.2705 101.891 15.2705H169.13C170.339 15.2705 171.325 16.2563 171.325 17.4653V115.394C171.325 116.603 170.339 117.571 169.13 117.571ZM101.891 15.3635C100.756 15.3635 99.8078 16.3121 99.8078 17.4653V115.394C99.8078 116.548 100.756 117.478 101.891 117.478H169.13C170.283 117.478 171.232 116.548 171.232 115.394V17.4653C171.232 16.3121 170.283 15.3635 169.13 15.3635H101.891Z" fill="#E0E0E0"/>
<path fill-rule="evenodd" clip-rule="evenodd" d="M91.6066 117.571H24.3676C23.1586 117.571 22.1914 116.603 22.1914 115.394V17.4653C22.1914 16.2563 23.1586 15.2705 24.3676 15.2705H91.6066C92.8156 15.2705 93.7828 16.2563 93.7828 17.4653V115.394C93.7828 116.603 92.8156 117.571 91.6066 117.571ZM24.3676 15.3635C23.2144 15.3635 22.2844 16.3121 22.2844 17.4653V115.394C22.2844 116.548 23.2144 117.478 24.3676 117.478H91.6066C92.7598 117.478 93.6898 116.548 93.6898 115.394V17.4653C93.6898 16.3121 92.7598 15.3635 91.6066 15.3635H24.3676Z" fill="#E0E0E0"/>
<path d="M190 140.393H4V140.3H190V140.393Z" fill="#E0E0E0"/>
<path d="M23.2148 145.601H29.204V145.694H23.2148V145.601Z" fill="#E0E0E0"/>
<path d="M67.3711 144.596H87.2917V144.689H67.3711V144.596Z" fill="#E0E0E0"/>
<path d="M29.5742 149.06H43.0592V149.153H29.5742V149.06Z" fill="#E0E0E0"/>
<path d="M144.746 144.541H160.816V144.634H144.746V144.541Z" fill="#E0E0E0"/>
<path d="M164.129 144.541H166.491V144.634H164.129V144.541Z" fill="#E0E0E0"/>
<path d="M121.625 146.865H141.676V146.958H121.625V146.865Z" fill="#E0E0E0"/>
<path d="M30.0045 135.371C30.1905 134.831 30.6183 134.552 31.1019 134.422C31.4739 134.329 31.8087 134.422 32.2179 134.552C32.4039 134.608 32.6271 134.738 32.8503 134.887C32.7945 134.627 32.7945 134.366 32.8131 134.162C32.8875 133.752 32.9433 133.418 33.2223 133.12C33.5571 132.748 33.9663 132.488 34.5429 132.562C35.1009 132.636 35.4915 133.139 35.6589 133.641C35.8263 134.162 35.8077 134.813 35.7333 135.333C35.5473 136.412 35.3427 137.268 34.8405 138.123C33.5943 138.161 32.9991 137.993 31.9389 137.658C31.4553 137.51 30.8601 137.231 30.4695 136.859C30.0975 136.468 29.8185 135.891 30.0045 135.371Z" fill="#EBEBEB"/>
<path d="M178.001 103.435L144.503 113.925L137.453 91.4562L170.952 80.9658L178.001 103.435Z" fill="#EBEBEB"/>
<path d="M137.77 91.6237C137.77 91.6237 158.025 100.608 158.657 100.422C159.29 100.217 170.803 81.2263 170.803 81.2263" stroke="#FAFAFA" stroke-width="2" stroke-linecap="round" stroke-linejoin="round"/>
<path d="M144.504 113.925L151.925 97.7803" stroke="#FAFAFA" stroke-width="2" stroke-miterlimit="10"/>
<path d="M178.002 103.435L162.602 94.7485" stroke="#FAFAFA" stroke-width="2" stroke-miterlimit="10"/>
<path d="M36.7721 115.394L12.8711 103.583L20.7947 87.55L44.6957 99.361L36.7721 115.394Z" fill="#EBEBEB"/>
<path d="M20.8672 87.8105C20.8672 87.8105 27.2842 103.379 27.7306 103.583C28.177 103.807 44.4706 99.4169 44.4706 99.4169" stroke="#FAFAFA" stroke-width="2" stroke-linecap="round" stroke-linejoin="round"/>
<path d="M12.8711 103.583L25.4261 98.6169" stroke="#FAFAFA" stroke-width="2" stroke-miterlimit="10"/>
<path d="M36.7732 115.394L32.8672 102.542" stroke="#FAFAFA" stroke-width="2" stroke-miterlimit="10"/>
<path d="M135.409 52.7866L106.523 50.1268L108.309 30.7456L137.195 33.4054L135.409 52.7866Z" fill="#EBEBEB"/>
<path d="M108.496 30.9688C108.496 30.9688 121.088 44.2864 121.628 44.3236C122.167 44.3794 136.991 33.5728 136.991 33.5728" stroke="#FAFAFA" stroke-width="2" stroke-linecap="round" stroke-linejoin="round"/>
<path d="M106.523 50.1268L117.33 40.1758" stroke="#FAFAFA" stroke-width="2" stroke-miterlimit="10"/>
<path d="M135.41 52.7866L126.426 41.2732" stroke="#FAFAFA" stroke-width="2" stroke-miterlimit="10"/>
<path d="M151.701 55.9859C152.52 55.7999 153.171 56.0975 153.71 56.5811C154.138 56.9717 154.287 57.4367 154.454 58.0319C154.528 58.2923 154.547 58.6829 154.528 59.0735C154.826 58.7945 155.142 58.5713 155.384 58.4597C155.942 58.2365 156.407 58.0319 156.965 58.1249C157.69 58.2365 158.341 58.5341 158.695 59.2967C159.048 60.0035 158.751 60.8777 158.248 61.4915C157.765 62.1239 156.965 62.6075 156.277 62.9051C154.826 63.5561 153.598 63.9653 152.185 64.0211C151.162 62.5517 150.883 61.6775 150.455 60.1523C150.25 59.4269 150.12 58.5155 150.288 57.7343C150.455 56.9531 150.939 56.1719 151.701 55.9859Z" fill="#EBEBEB"/>
<path d="M33.9106 33.5728C34.0966 33.0334 34.5244 32.773 35.008 32.6428C35.3986 32.5312 35.7148 32.6242 36.124 32.7544C36.31 32.8102 36.5332 32.9404 36.7564 33.1078C36.7192 32.8288 36.7006 32.5684 36.7378 32.3824C36.7936 31.9546 36.868 31.6198 37.1284 31.3222C37.4632 30.9502 37.891 30.6898 38.4676 30.7642C39.007 30.8386 39.3976 31.3408 39.565 31.8616C39.7324 32.3824 39.7324 33.0148 39.6394 33.5356C39.472 34.6144 39.2488 35.4886 38.7466 36.3256C37.519 36.3628 36.9052 36.1954 35.8636 35.8792C35.3614 35.7118 34.7848 35.4514 34.3942 35.0608C34.0036 34.6702 33.7246 34.0936 33.9106 33.5728Z" fill="#EBEBEB"/>
<path d="M157.969 31.2293C158.155 30.6899 158.583 30.4295 159.067 30.2807C159.439 30.1877 159.774 30.2807 160.183 30.4109C160.35 30.4667 160.592 30.5969 160.815 30.7457C160.759 30.4853 160.759 30.2249 160.778 30.0203C160.852 29.6111 160.908 29.2763 161.187 28.9787C161.522 28.6067 161.931 28.3463 162.508 28.4207C163.066 28.4951 163.456 28.9973 163.624 29.5181C163.791 30.0203 163.773 30.6713 163.698 31.1921C163.512 32.2709 163.308 33.1265 162.805 33.9821C161.559 34.0193 160.964 33.8519 159.904 33.5357C159.42 33.3683 158.825 33.0893 158.434 32.7173C158.062 32.3267 157.783 31.7501 157.969 31.2293Z" fill="#EBEBEB"/>
<path d="M143.854 149.116L63.6878 141.732C62.6834 141.639 61.958 140.746 62.051 139.742L67.1102 84.7975L108.198 59.2783C109.704 58.3483 111.639 58.4971 112.996 59.6503L150.903 92.5165L145.825 147.479C145.732 148.484 144.84 149.209 143.854 149.116Z" fill="#DFF000"/>
<path opacity="0.2" d="M143.854 149.116L63.6878 141.732C62.6834 141.639 61.958 140.746 62.051 139.742L67.1102 84.7975L108.198 59.2783C109.704 58.3483 111.639 58.4971 112.996 59.6503L150.903 92.5165L145.825 147.479C145.732 148.484 144.84 149.209 143.854 149.116Z" fill="black"/>
<path d="M150.902 92.5166L145.824 147.498C145.731 148.41 144.969 149.116 144.039 149.135L143.853 149.116L63.6868 141.714L63.5008 141.695C62.608 141.509 61.9942 140.672 62.0686 139.761L67.1278 84.7976L100.552 112.716L102.375 114.26L105.314 116.715L108.81 114.855L111.005 113.683L150.902 92.5166Z" fill="#DFF000"/>
<path opacity="0.2" d="M145.899 146.773L145.843 147.312C145.788 148.279 145.007 149.06 144.039 149.116H143.853L63.6873 141.713L63.5013 141.695C62.5713 141.453 61.9575 140.542 62.0877 139.593L62.1249 139.035L100.552 112.716L102.375 114.26L105.314 116.715L108.811 114.855L111.006 113.683L145.899 146.773Z" fill="black"/>
<path d="M143.483 96.4596L111.007 113.683L100.815 112.921L73.9375 90.489L76.6717 60.915L146.161 67.332L143.483 96.4596Z" fill="#EBEBEB"/>
<path opacity="0.7" d="M143.483 96.4596L111.007 113.683L100.815 112.921L73.9375 90.489L76.6717 60.915L146.161 67.332L143.483 96.4596Z" fill="white"/>
<path opacity="0.2" d="M74.1793 87.978L101.465 111.209C101.465 111.209 104.032 109.796 106.283 110.335C108.552 110.875 110.765 112.065 110.765 112.065L143.669 94.395L143.483 96.4596L111.007 113.683L100.815 112.921L73.9375 90.489L74.1793 87.978Z" fill="black"/>
<path d="M145.881 146.921L145.844 147.442C145.751 148.465 144.858 149.228 143.854 149.135L63.7062 141.751C62.7018 141.658 61.9578 140.746 62.0508 139.705L62.1066 139.184L102.469 113.218L103.287 112.679C104.794 111.712 106.728 111.86 108.067 113.051L108.923 113.813L145.881 146.921Z" fill="#DFF000"/>
<path d="M76.5586 93.093L79.1998 64.4304L142.533 70.2708L139.966 98.208" stroke="#DFF000" stroke-width="2" stroke-linecap="round" stroke-linejoin="round"/>
<path d="M88.1844 89.8381C87.5272 89.8009 87.0808 89.6397 86.8452 89.3545C86.6096 89.0693 86.5042 88.7159 86.529 88.2943C86.5538 87.9223 86.653 87.4821 86.8266 86.9737C87.0002 86.4653 87.18 85.9817 87.366 85.5229C87.7008 84.7293 88.0542 83.9047 88.4262 83.0491C88.8106 82.1935 89.195 81.3503 89.5794 80.5195C89.9762 79.6763 90.3668 78.8703 90.7512 78.1015C91.1232 77.3203 91.4766 76.6135 91.8114 75.9811C90.9434 75.9439 90.1994 75.9253 89.5794 75.9253C88.947 75.9129 88.3766 75.9191 87.8682 75.9439C87.3598 75.9563 86.8204 75.9997 86.25 76.0741C86.3368 75.5781 86.6034 75.2061 87.0498 74.9581C87.4962 74.7101 88.0852 74.5489 88.8168 74.4745C89.5608 74.4125 90.3916 74.4125 91.3092 74.4745C91.954 74.5117 92.5368 74.5613 93.0576 74.6233C93.5784 74.6977 94.0806 74.7721 94.5642 74.8465C95.0354 74.9209 95.5004 74.9829 95.9592 75.0325C96.3312 75.2557 96.5792 75.3921 96.7032 75.4417C96.8148 75.5037 96.8334 75.5347 96.759 75.5347C96.449 75.7455 96.0708 75.8943 95.6244 75.9811C95.178 76.0555 94.7192 76.0927 94.248 76.0927C93.7644 76.0927 93.3056 76.0803 92.8716 76.0555C92.2516 77.3575 91.6378 78.7959 91.0302 80.3707C90.4102 81.9455 89.8088 83.5761 89.226 85.2625C89.0276 85.8949 88.854 86.4405 88.7052 86.8993C88.5564 87.3581 88.4386 87.7797 88.3518 88.1641C88.265 88.5361 88.2092 88.9205 88.1844 89.3173C88.172 89.3793 88.172 89.4537 88.1844 89.5405C88.1844 89.6273 88.1844 89.7265 88.1844 89.8381Z" fill="#DFF000"/>
<path fill-rule="evenodd" clip-rule="evenodd" d="M94.135 89.2616C93.8746 89.2492 93.6886 89.0198 93.577 88.5734C93.4778 88.1394 93.4468 87.6496 93.484 87.104C93.5212 86.4964 93.6638 85.7834 93.9118 84.965C94.1722 84.1466 94.4946 83.2786 94.879 82.361C95.2758 81.4558 95.7098 80.5692 96.181 79.7012C96.6398 78.8456 97.1172 78.0644 97.6132 77.3576C98.0968 76.6632 98.5494 76.1114 98.971 75.7022C99.3926 75.293 99.7522 75.0946 100.05 75.107C100.298 75.1194 100.478 75.2744 100.589 75.572C100.701 75.8696 100.75 76.1672 100.738 76.4648C100.713 76.8244 100.608 77.2522 100.422 77.7482C100.223 78.2442 99.9692 78.7712 99.6592 79.3292C99.3368 79.8872 98.971 80.439 98.5618 80.9846C98.1526 81.5178 97.7186 82.0014 97.2598 82.4354C96.7886 82.8818 96.3112 83.229 95.8276 83.477C95.6416 83.8738 95.4866 84.2706 95.3626 84.6674C95.2386 85.0642 95.1394 85.4486 95.065 85.8206C95.003 86.1926 94.9596 86.546 94.9348 86.8808C94.9348 86.9676 94.9348 87.0544 94.9348 87.1412C94.9348 87.228 94.941 87.3024 94.9534 87.3644C95.0526 87.1412 95.189 86.8436 95.3626 86.4716C95.5362 86.0996 95.7408 85.709 95.9764 85.2998C96.212 84.8906 96.4848 84.5 96.7948 84.128C97.1048 83.7684 97.452 83.477 97.8364 83.2538C98.2208 83.043 98.6362 82.95 99.0826 82.9748C99.4918 82.9996 99.8142 83.1112 100.05 83.3096C100.273 83.5204 100.422 83.7684 100.496 84.0536C100.583 84.3388 100.614 84.6302 100.589 84.9278C100.564 85.3246 100.478 85.6966 100.329 86.0438C100.168 86.4034 100.013 86.7444 99.8638 87.0668C99.7026 87.3892 99.6158 87.693 99.6034 87.9782C99.591 88.2138 99.6282 88.3874 99.715 88.499C99.8142 88.6106 99.9444 88.6664 100.106 88.6664C100.378 88.6912 100.713 88.5734 101.11 88.313C101.507 88.0526 101.904 87.6992 102.3 87.2528C102.685 86.8064 103.032 86.3104 103.342 85.7648L103.602 86.0624C103.292 86.6948 102.92 87.259 102.486 87.755C102.052 88.251 101.594 88.6416 101.11 88.9268C100.626 89.2244 100.124 89.3546 99.6034 89.3174C99.1198 89.2926 98.7664 89.1438 98.5432 88.871C98.32 88.6106 98.2146 88.2944 98.227 87.9224C98.2518 87.6496 98.32 87.352 98.4316 87.0296C98.5432 86.7196 98.6548 86.3972 98.7664 86.0624C98.878 85.7276 98.94 85.4176 98.9524 85.1324C98.9772 84.8224 98.9276 84.5992 98.8036 84.4628C98.6672 84.3264 98.506 84.252 98.32 84.2396C97.9976 84.2272 97.7 84.3388 97.4272 84.5744C97.1544 84.8224 96.9002 85.1386 96.6646 85.523C96.429 85.9074 96.212 86.3104 96.0136 86.732C95.8028 87.166 95.5982 87.5814 95.3998 87.9782C95.2014 88.375 95.003 88.6912 94.8046 88.9268C94.5938 89.1624 94.3706 89.274 94.135 89.2616ZM96.2554 82.4168C96.6026 82.144 96.9498 81.8092 97.297 81.4124C97.6442 81.0156 97.9666 80.594 98.2642 80.1476C98.5742 79.7012 98.8408 79.2672 99.064 78.8456C99.2996 78.424 99.4856 78.0458 99.622 77.711C99.7708 77.3762 99.8576 77.1096 99.8824 76.9112C99.8824 76.8864 99.8824 76.8678 99.8824 76.8554C99.87 76.843 99.8576 76.8368 99.8452 76.8368C99.7708 76.8244 99.5972 76.9794 99.3244 77.3018C99.0392 77.6118 98.7106 78.0272 98.3386 78.548C97.9666 79.0812 97.5946 79.6826 97.2226 80.3522C96.8506 81.0342 96.5282 81.7224 96.2554 82.4168Z" fill="#DFF000"/>
<path d="M103.643 90.0054C103.234 89.9806 102.886 89.8194 102.601 89.5218C102.316 89.2366 102.192 88.815 102.229 88.257C102.254 87.7982 102.384 87.3146 102.62 86.8062C102.855 86.2854 103.171 85.7832 103.568 85.2996C103.953 84.8036 104.387 84.3572 104.87 83.9604C105.366 83.5636 105.881 83.2536 106.414 83.0304C106.947 82.8072 107.468 82.7142 107.976 82.7514C108.522 82.7762 108.969 82.9374 109.316 83.235C109.663 83.5326 109.824 83.9046 109.799 84.351C109.774 84.6982 109.65 84.94 109.427 85.0764C109.192 85.2004 108.919 85.2252 108.609 85.1508C108.634 85.0516 108.665 84.94 108.702 84.816C108.727 84.7044 108.739 84.5866 108.739 84.4626C108.764 84.2022 108.721 83.9604 108.609 83.7372C108.51 83.5264 108.293 83.4148 107.958 83.4024C107.598 83.3776 107.226 83.4768 106.842 83.7C106.458 83.9232 106.079 84.2208 105.707 84.5928C105.335 84.9648 105.001 85.3802 104.703 85.839C104.405 86.2978 104.17 86.7566 103.996 87.2154C103.81 87.6618 103.705 88.0648 103.68 88.4244C103.655 88.8584 103.804 89.0878 104.126 89.1126C104.424 89.125 104.752 89.001 105.112 88.7406C105.484 88.4802 105.868 88.1454 106.265 87.7362C106.65 87.3146 107.022 86.8868 107.381 86.4528C107.741 86.0188 108.057 85.6406 108.33 85.3182C108.38 85.2562 108.423 85.2252 108.46 85.2252C108.522 85.2376 108.627 85.2686 108.776 85.3182C108.913 85.3802 109.037 85.4546 109.148 85.5414C109.26 85.6158 109.309 85.7212 109.297 85.8576C109.285 85.9816 109.216 86.1366 109.092 86.3226C108.968 86.521 108.826 86.738 108.665 86.9736C108.516 87.2092 108.373 87.4448 108.237 87.6804C108.113 87.916 108.045 88.1454 108.032 88.3686C108.02 88.5422 108.057 88.7096 108.144 88.8708C108.231 89.0444 108.379 89.1374 108.59 89.1498C108.913 89.1622 109.365 88.9514 109.948 88.5174C110.543 88.0834 111.157 87.3518 111.789 86.3226L112.087 86.6574C111.752 87.327 111.356 87.9098 110.897 88.4058C110.425 88.9142 109.948 89.3048 109.464 89.5776C108.968 89.8504 108.485 89.9682 108.014 89.931C107.493 89.9062 107.121 89.7264 106.898 89.3916C106.675 89.0692 106.563 88.722 106.563 88.35C106.563 88.3128 106.569 88.2694 106.581 88.2198C106.594 88.1826 106.6 88.1392 106.6 88.0896C106.03 88.722 105.515 89.2056 105.056 89.5404C104.597 89.8752 104.126 90.0302 103.643 90.0054Z" fill="#DFF000"/>
<path d="M117.516 90.3218C117.045 90.297 116.692 90.1543 116.456 89.8939C116.22 89.6335 116.109 89.3174 116.121 88.9454C116.146 88.6726 116.208 88.3936 116.307 88.1084C116.419 87.8356 116.53 87.5504 116.642 87.2528C116.741 86.9552 116.803 86.6637 116.828 86.3785C116.84 86.0685 116.778 85.8515 116.642 85.7275C116.518 85.6035 116.357 85.5353 116.158 85.5229C115.774 85.5105 115.371 85.6469 114.949 85.9321C114.528 86.2297 114.112 86.608 113.703 87.0668C113.282 87.5256 112.891 88.0091 112.531 88.5175C112.159 89.0259 111.843 89.4724 111.583 89.8568C111.347 89.8444 111.13 89.7947 110.932 89.7079C110.733 89.6211 110.566 89.4785 110.43 89.2801C110.454 89.2181 110.541 89.0259 110.69 88.7035C110.851 88.3811 111.025 87.9906 111.211 87.5318C111.409 87.073 111.589 86.6017 111.75 86.1181C111.924 85.6221 112.023 85.1634 112.048 84.7418C112.135 84.655 112.271 84.5682 112.457 84.4814C112.643 84.3822 112.835 84.3387 113.034 84.3511C113.443 84.3759 113.635 84.5744 113.61 84.9464C113.598 85.12 113.542 85.3865 113.443 85.7461C113.344 86.1057 113.22 86.4963 113.071 86.9179C113.43 86.4715 113.827 86.0375 114.261 85.6159C114.695 85.2067 115.148 84.8719 115.619 84.6115C116.09 84.3511 116.555 84.2396 117.014 84.2768C117.535 84.3016 117.907 84.5061 118.13 84.8905C118.366 85.2749 118.471 85.6904 118.446 86.1368C118.421 86.5212 118.335 86.8745 118.186 87.1969C118.037 87.5317 117.894 87.8479 117.758 88.1455C117.609 88.4431 117.529 88.7345 117.516 89.0198C117.504 89.2429 117.541 89.4042 117.628 89.5034C117.715 89.6026 117.832 89.6583 117.981 89.6708C118.279 89.6955 118.601 89.5653 118.948 89.2801C119.296 88.9949 119.637 88.6354 119.971 88.2014C120.294 87.7674 120.585 87.3272 120.846 86.8808L121.125 87.1411C120.815 87.7487 120.48 88.3005 120.12 88.7965C119.748 89.2925 119.351 89.6769 118.93 89.9497C118.496 90.2225 118.025 90.3466 117.516 90.3218Z" fill="#DFF000"/>
<path fill-rule="evenodd" clip-rule="evenodd" d="M126.128 91.1774C125.744 91.165 125.415 91.0224 125.142 90.7496C124.882 90.4768 124.677 90.1482 124.528 89.7638C124.38 89.367 124.281 88.964 124.231 88.5548C124.169 88.158 124.144 87.8108 124.156 87.5132C124.33 87.5008 124.553 87.4636 124.826 87.4016C125.099 87.3396 125.378 87.2528 125.663 87.1412C125.961 87.0172 126.209 86.856 126.407 86.6576C126.618 86.4592 126.73 86.2112 126.742 85.9136C126.754 85.678 126.686 85.4796 126.537 85.3184C126.376 85.1572 126.165 85.0704 125.905 85.058C125.533 85.0332 125.173 85.1386 124.826 85.3742C124.479 85.5974 124.157 85.9012 123.859 86.2856C123.561 86.6824 123.288 87.104 123.04 87.5504C122.792 88.0092 122.575 88.4494 122.389 88.871C122.191 89.2926 122.024 89.6522 121.887 89.9498C121.751 90.2722 121.614 90.4892 121.478 90.6008C121.342 90.7 121.162 90.7434 120.939 90.731C120.815 90.731 120.697 90.6752 120.585 90.5636C120.474 90.4644 120.399 90.297 120.362 90.0614C120.312 89.8258 120.3 89.5158 120.325 89.1314C120.362 88.3874 120.517 87.569 120.79 86.6762C121.063 85.771 121.416 84.8472 121.85 83.9048C122.272 82.9624 122.724 82.0634 123.208 81.2078C123.704 80.3522 124.194 79.5834 124.677 78.9014C125.161 78.2318 125.607 77.6986 126.016 77.3018C126.426 76.905 126.748 76.7128 126.984 76.7252C127.195 76.7376 127.356 76.8802 127.467 77.153C127.591 77.4134 127.641 77.7358 127.616 78.1202C127.591 78.5542 127.467 79.0378 127.244 79.571C127.021 80.0918 126.717 80.6126 126.333 81.1334C125.948 81.6542 125.502 82.144 124.993 82.6028C124.485 83.0616 123.921 83.446 123.301 83.756C122.879 84.6488 122.544 85.523 122.296 86.3786C122.036 87.2466 121.869 87.9968 121.794 88.6292C122.042 88.1208 122.334 87.5876 122.668 87.0296C122.991 86.484 123.35 85.9632 123.747 85.4672C124.144 84.9712 124.566 84.5806 125.012 84.2954C125.458 84.0102 125.917 83.88 126.388 83.9048C126.884 83.942 127.306 84.1404 127.653 84.5C128 84.872 128.155 85.3184 128.118 85.8392C128.093 86.2236 127.969 86.5584 127.746 86.8436C127.511 87.1164 127.238 87.3334 126.928 87.4946C126.618 87.6558 126.308 87.7736 125.998 87.848C125.7 87.91 125.446 87.9348 125.235 87.9224C125.248 88.0836 125.279 88.2944 125.328 88.5548C125.378 88.8152 125.458 89.0818 125.57 89.3546C125.669 89.615 125.806 89.8444 125.979 90.0428C126.14 90.2288 126.345 90.328 126.593 90.3404C126.94 90.3652 127.288 90.2412 127.635 89.9684C127.994 89.708 128.348 89.3422 128.695 88.871C129.042 88.4122 129.358 87.8976 129.643 87.3272L129.867 87.6248C129.619 88.2448 129.29 88.8338 128.881 89.3918C128.484 89.9498 128.044 90.3962 127.56 90.731C127.077 91.0658 126.599 91.2146 126.128 91.1774ZM123.859 82.6772C124.318 82.33 124.764 81.9208 125.198 81.4496C125.632 80.966 125.992 80.47 126.277 79.9616C126.575 79.4408 126.742 78.9696 126.779 78.548C126.779 78.5108 126.779 78.4798 126.779 78.455C126.643 78.4674 126.419 78.672 126.109 79.0688C125.799 79.4656 125.446 79.974 125.049 80.594C124.64 81.2264 124.243 81.9208 123.859 82.6772Z" fill="#DFF000"/>
<path fill-rule="evenodd" clip-rule="evenodd" d="M97.1852 104.048C96.8752 104.024 96.5962 103.9 96.3482 103.676C96.1126 103.466 96.0134 103.162 96.0506 102.765C96.0878 102.368 96.2304 102.015 96.4784 101.705C96.7388 101.407 97.0674 101.141 97.4642 100.905C97.8486 100.669 98.2702 100.459 98.729 100.273C99.1878 100.087 99.6466 99.9068 100.105 99.7332C100.291 99.3488 100.496 98.8838 100.719 98.3382C100.955 97.7802 101.166 97.2284 101.352 96.6828C100.905 97.2284 100.44 97.6996 99.9566 98.0964C99.4606 98.4932 98.9398 98.6668 98.3942 98.6172C98.171 98.5924 97.9416 98.5242 97.706 98.4126C97.4704 98.2886 97.2782 98.1026 97.1294 97.8546C96.9806 97.6066 96.9248 97.2904 96.962 96.906C96.9992 96.5712 97.0984 96.1744 97.2596 95.7156C97.4208 95.2568 97.613 94.8166 97.8362 94.395C98.0594 93.961 98.2888 93.6076 98.5244 93.3348C98.7476 93.0496 98.9336 92.9132 99.0824 92.9256C99.1444 92.938 99.2436 92.9752 99.38 93.0372C99.5164 93.0992 99.6466 93.1798 99.7706 93.279C99.8946 93.3782 99.9628 93.4836 99.9752 93.5952C99.8512 93.7316 99.7024 93.9362 99.5288 94.209C99.3676 94.4942 99.2064 94.8104 99.0452 95.1576C98.884 95.4924 98.7476 95.8272 98.636 96.162C98.5244 96.4968 98.4562 96.7882 98.4314 97.0362C98.419 97.2346 98.4438 97.4082 98.5058 97.557C98.5802 97.7058 98.729 97.7864 98.9522 97.7988C99.225 97.8236 99.5164 97.7368 99.8264 97.5384C100.149 97.34 100.471 97.0734 100.794 96.7386C101.116 96.4038 101.414 96.0566 101.686 95.697C101.736 95.5854 101.779 95.449 101.817 95.2878C101.854 95.1142 101.91 94.9344 101.984 94.7484C102.046 94.55 102.17 94.3578 102.356 94.1718C102.53 93.9982 102.759 93.9238 103.044 93.9486C103.131 93.961 103.218 93.9734 103.305 93.9858C103.391 94.0106 103.491 94.0416 103.602 94.0788C103.577 94.2648 103.472 94.6306 103.286 95.1762C103.1 95.7094 102.871 96.3294 102.598 97.0362C102.313 97.743 101.996 98.456 101.649 99.1752C102.22 99.0016 102.815 98.6854 103.435 98.2266C104.055 97.7678 104.582 97.1044 105.016 96.2364L105.313 96.4968C105.065 97.1168 104.724 97.6376 104.29 98.0592C103.856 98.4808 103.385 98.8342 102.877 99.1194C102.368 99.3922 101.86 99.6154 101.352 99.789C100.942 100.583 100.508 101.314 100.05 101.984C99.5908 102.653 99.1258 103.174 98.6546 103.546C98.171 103.931 97.6812 104.098 97.1852 104.048ZM97.0922 103.36C97.3278 103.385 97.6874 103.162 98.171 102.691C98.6546 102.232 99.1754 101.475 99.7334 100.421C99.2622 100.607 98.8096 100.818 98.3756 101.054C97.9292 101.289 97.551 101.55 97.241 101.835C96.931 102.108 96.7636 102.424 96.7388 102.784C96.7264 102.895 96.745 103.019 96.7946 103.156C96.8442 103.28 96.9434 103.348 97.0922 103.36Z" fill="#DFF000"/>
<path fill-rule="evenodd" clip-rule="evenodd" d="M105.557 100.068C104.999 100.018 104.627 99.8013 104.441 99.4169C104.267 99.0325 104.199 98.6109 104.236 98.1521C104.274 97.7553 104.373 97.3523 104.534 96.9431C104.708 96.5339 104.918 96.1557 105.166 95.8085C105.414 95.4613 105.681 95.1885 105.966 94.9901C106.251 94.7793 106.537 94.6863 106.822 94.7111C106.896 94.7235 106.983 94.7483 107.082 94.7855C107.194 94.8351 107.268 94.8847 107.305 94.9343C107.157 95.0707 106.989 95.2753 106.803 95.5481C106.617 95.8085 106.444 96.0937 106.282 96.4037C106.121 96.7137 105.985 97.0237 105.873 97.3337C105.762 97.6561 105.693 97.9475 105.669 98.2079C105.644 98.5055 105.675 98.7411 105.762 98.9147C105.848 99.0883 106.003 99.1875 106.227 99.2123C106.487 99.2371 106.803 99.1255 107.175 98.8775C107.547 98.6419 107.907 98.3381 108.254 97.9661C107.894 97.5941 107.646 97.1725 107.51 96.7013C107.361 96.2425 107.312 95.7279 107.361 95.1575C107.398 94.8351 107.504 94.5003 107.677 94.1531C107.851 93.8183 108.093 93.5455 108.403 93.3347C108.713 93.1115 109.103 93.0247 109.575 93.0743C110.108 93.1239 110.467 93.3037 110.653 93.6137C110.827 93.9361 110.895 94.3081 110.858 94.7297C110.821 95.2009 110.647 95.7155 110.337 96.2735C110.04 96.8439 109.692 97.3771 109.296 97.8731C109.469 97.9971 109.661 98.0653 109.872 98.0777C110.071 98.1025 110.306 98.0839 110.579 98.0219C110.852 97.9475 111.118 97.8173 111.379 97.6313C111.652 97.4453 111.881 97.1911 112.067 96.8687L112.346 97.1291C112.024 97.7243 111.614 98.1397 111.118 98.3753C110.635 98.6233 110.176 98.7287 109.742 98.6915C109.581 98.6791 109.42 98.6481 109.258 98.5985C109.097 98.5489 108.948 98.4869 108.812 98.4125C108.328 98.8961 107.801 99.3053 107.231 99.6401C106.661 99.9749 106.103 100.118 105.557 100.068ZM108.756 97.4453C109.103 97.0361 109.407 96.5835 109.668 96.0875C109.928 95.5915 110.077 95.1265 110.114 94.6925C110.139 94.3825 110.114 94.1469 110.04 93.9857C109.953 93.8369 109.829 93.7501 109.668 93.7253C109.407 93.7129 109.134 93.8679 108.849 94.1903C108.564 94.5127 108.397 94.9405 108.347 95.4737C108.322 95.7713 108.341 96.1123 108.403 96.4967C108.465 96.8811 108.583 97.1973 108.756 97.4453Z" fill="#DFF000"/>
<path d="M112.752 100.682C112.33 100.644 112.002 100.421 111.766 100.012C111.531 99.5905 111.431 99.1193 111.469 98.5985C111.506 98.2389 111.605 97.8235 111.766 97.3523C111.94 96.8811 112.132 96.4223 112.343 95.9759C112.566 95.5295 112.789 95.1637 113.012 94.8785C113.236 94.5933 113.428 94.4569 113.589 94.4693C113.676 94.4817 113.8 94.5437 113.961 94.6553C114.122 94.7545 114.259 94.8723 114.37 95.0087C114.221 95.1947 114.029 95.4985 113.794 95.9201C113.546 96.3293 113.329 96.7695 113.143 97.2407C112.944 97.7119 112.826 98.1521 112.789 98.5613C112.777 98.6233 112.771 98.7535 112.771 98.9519C112.771 99.1503 112.808 99.3363 112.882 99.5099C112.944 99.6835 113.081 99.7827 113.291 99.8075C113.502 99.8199 113.744 99.7207 114.017 99.5099C114.29 99.2991 114.575 99.0139 114.872 98.6543C115.17 98.3071 115.461 97.9227 115.747 97.5011C116.019 97.0795 116.28 96.6703 116.528 96.2735C116.763 95.8891 116.956 95.5667 117.104 95.3063C117.204 95.3311 117.34 95.3683 117.514 95.4179C117.675 95.4799 117.817 95.5543 117.941 95.6411C118.078 95.7279 118.14 95.8457 118.127 95.9945C118.115 96.0317 118.041 96.1805 117.904 96.4409C117.755 96.7137 117.582 97.0361 117.383 97.4081C117.173 97.7925 116.993 98.1831 116.844 98.5799C116.683 98.9643 116.59 99.3115 116.565 99.6215C116.54 99.8075 116.559 99.9749 116.621 100.124C116.683 100.272 116.825 100.359 117.049 100.384C117.309 100.409 117.638 100.316 118.034 100.105C118.431 99.8943 118.847 99.5781 119.281 99.1565C119.715 98.7349 120.118 98.2203 120.49 97.6127L120.731 97.8359C120.384 98.4931 119.969 99.0759 119.485 99.5843C119.002 100.08 118.493 100.458 117.96 100.719C117.427 100.967 116.931 101.072 116.472 101.035C116.112 100.998 115.846 100.892 115.672 100.719C115.499 100.545 115.387 100.328 115.337 100.068C115.288 99.8075 115.275 99.5409 115.3 99.2681C115.313 99.1813 115.325 99.0883 115.337 98.9891C115.35 98.8899 115.368 98.7969 115.393 98.7101C115.145 99.0573 114.879 99.3859 114.593 99.6959C114.296 100.006 113.998 100.26 113.701 100.458C113.391 100.644 113.074 100.719 112.752 100.682Z" fill="#DFF000"/>
<path d="M128.842 99.5844C128.619 99.5844 128.426 99.5286 128.265 99.417C128.104 99.3054 128.023 99.1256 128.023 98.8776C128.023 98.6048 128.172 98.3692 128.47 98.1708C128.767 97.96 129.077 97.8546 129.4 97.8546C129.611 97.8546 129.784 97.9042 129.921 98.0034C130.057 98.1026 130.125 98.27 130.125 98.5056C130.125 98.7536 129.995 98.9954 129.735 99.231C129.474 99.4666 129.177 99.5844 128.842 99.5844ZM130.59 92.7768C130.888 91.9956 131.204 91.171 131.539 90.303C131.886 89.435 132.239 88.5856 132.599 87.7548C132.959 86.924 133.312 86.1738 133.659 85.5042C134.006 84.8222 134.347 84.2828 134.682 83.886C135.005 83.4768 135.308 83.2722 135.594 83.2722C135.742 83.2722 135.873 83.3342 135.984 83.4582C136.096 83.5698 136.152 83.7186 136.152 83.9046C136.152 84.1154 136.034 84.5122 135.798 85.095C135.55 85.6778 135.234 86.3908 134.85 87.234C134.465 88.0648 134.037 88.9514 133.566 89.8938C133.083 90.8238 132.593 91.7476 132.097 92.6652C131.613 93.5828 131.148 94.426 130.702 95.1948C130.255 95.9636 129.877 96.5836 129.567 97.0548C129.518 97.0424 129.48 97.03 129.456 97.0176C129.418 97.0052 129.387 96.9866 129.363 96.9618C129.425 96.4906 129.518 96.0008 129.642 95.4924C129.778 94.9716 129.939 94.4756 130.125 94.0044C130.299 93.5208 130.454 93.1116 130.59 92.7768Z" fill="#DFF000"/>
<path d="M87.1048 94.3207C87.421 94.0603 87.7744 94.0603 88.1278 94.1719C88.3882 94.2463 88.5556 94.4323 88.7602 94.6555C88.8532 94.7485 88.9462 94.9159 89.0206 95.1019C89.095 94.9159 89.188 94.7485 89.2624 94.6555C89.467 94.4323 89.6344 94.2463 89.9134 94.1719C90.2482 94.0603 90.6016 94.0603 90.9364 94.3207C91.234 94.5625 91.2898 95.0275 91.1968 95.3995C91.1038 95.7901 90.862 96.1807 90.6016 96.4597C90.0994 97.0549 89.6344 97.5013 89.0206 97.8175C88.2394 97.3711 87.9418 97.0549 87.421 96.4597C87.1792 96.1807 86.9188 95.7901 86.8258 95.3995C86.7328 95.0275 86.7886 94.5625 87.1048 94.3207Z" fill="#DFF000"/>
<path d="M110.708 75.851C111.043 75.5906 111.396 75.5906 111.749 75.7022C112.01 75.7766 112.177 75.9626 112.382 76.1858C112.475 76.2974 112.568 76.4648 112.642 76.6322C112.717 76.4648 112.81 76.2974 112.884 76.1858C113.089 75.9626 113.256 75.7766 113.516 75.7022C113.87 75.5906 114.223 75.5906 114.558 75.851C114.856 76.1114 114.911 76.5578 114.818 76.9484C114.725 77.3204 114.484 77.711 114.223 77.99C113.721 78.5852 113.256 79.0316 112.642 79.3664C111.861 78.92 111.563 78.5852 111.043 77.99C110.801 77.711 110.54 77.3204 110.447 76.9484C110.354 76.5578 110.41 76.1114 110.708 75.851Z" fill="#DFF000"/>
<path d="M154.546 149.023C154.323 148.056 154.081 147.07 154.062 146.066C154.062 145.061 154.304 144.02 154.937 143.238C155.439 142.606 156.164 142.178 156.648 141.527C157.466 140.448 157.559 138.886 158.582 137.993C159.252 137.398 160.2 137.231 161 136.784C161.781 136.319 162.377 135.594 163.102 135.017C163.809 134.459 164.813 134.05 165.65 134.422C166.692 134.906 166.934 136.319 166.655 137.435C166.376 138.551 165.725 139.574 165.539 140.709C165.409 141.49 165.483 142.383 164.943 142.978C164.385 143.61 163.363 143.61 162.749 144.168C162.079 144.764 162.042 145.768 161.781 146.642C161.391 148.037 160.294 149.228 158.917 149.73C157.559 150.251 155.941 150.065 154.713 149.283" fill="#007C05"/>
<g opacity="0.4">
<path d="M154.546 149.023C154.323 148.056 154.081 147.07 154.062 146.066C154.062 145.061 154.304 144.02 154.937 143.238C155.439 142.606 156.164 142.178 156.648 141.527C157.466 140.448 157.559 138.886 158.582 137.993C159.252 137.398 160.2 137.231 161 136.784C161.781 136.319 162.377 135.594 163.102 135.017C163.809 134.459 164.813 134.05 165.65 134.422C166.692 134.906 166.934 136.319 166.655 137.435C166.376 138.551 165.725 139.574 165.539 140.709C165.409 141.49 165.483 142.383 164.943 142.978C164.385 143.61 163.363 143.61 162.749 144.168C162.079 144.764 162.042 145.768 161.781 146.642C161.391 148.037 160.294 149.228 158.917 149.73C157.559 150.251 155.941 150.065 154.713 149.283" fill="white"/>
</g>
<path d="M154.88 135.24C153.913 134.924 152.964 134.608 152.108 134.087C151.253 133.566 150.49 132.804 150.155 131.855C149.895 131.093 149.914 130.256 149.635 129.493C149.151 128.228 147.868 127.335 147.644 125.996C147.496 125.103 147.868 124.211 147.905 123.299C147.923 122.388 147.626 121.495 147.514 120.584C147.421 119.672 147.607 118.631 148.37 118.11C149.318 117.459 150.658 118.017 151.457 118.835C152.257 119.672 152.778 120.751 153.634 121.514C154.229 122.034 155.029 122.462 155.252 123.225C155.475 124.043 154.954 124.899 155.103 125.736C155.252 126.61 156.07 127.187 156.684 127.838C157.651 128.935 158.079 130.479 157.8 131.911C157.502 133.343 156.498 134.627 155.177 135.24" fill="#61FF00"/>
<g opacity="0.2">
<path d="M154.88 135.24C153.913 134.924 152.964 134.608 152.108 134.087C151.253 133.566 150.49 132.804 150.155 131.855C149.895 131.093 149.914 130.256 149.635 129.493C149.151 128.228 147.868 127.335 147.644 125.996C147.496 125.103 147.868 124.211 147.905 123.299C147.923 122.388 147.626 121.495 147.514 120.584C147.421 119.672 147.607 118.631 148.37 118.11C149.318 117.459 150.658 118.017 151.457 118.835C152.257 119.672 152.778 120.751 153.634 121.514C154.229 122.034 155.029 122.462 155.252 123.225C155.475 124.043 154.954 124.899 155.103 125.736C155.252 126.61 156.07 127.187 156.684 127.838C157.651 128.935 158.079 130.479 157.8 131.911C157.502 133.343 156.498 134.627 155.177 135.24" fill="black"/>
</g>
<path d="M153.172 145.619C152.577 146.103 151.982 146.605 151.294 146.94C150.606 147.293 149.824 147.479 149.08 147.312C148.467 147.182 147.927 146.828 147.332 146.698C146.309 146.512 145.193 146.977 144.244 146.587C143.612 146.308 143.184 145.712 142.608 145.322C142.012 144.931 141.306 144.782 140.692 144.485C140.059 144.187 139.446 143.629 139.427 142.941C139.39 142.048 140.283 141.416 141.138 141.23C141.994 141.044 142.905 141.137 143.761 140.876C144.337 140.709 144.933 140.356 145.509 140.523C146.142 140.709 146.476 141.397 147.072 141.639C147.723 141.881 148.411 141.583 149.08 141.453C150.196 141.267 151.368 141.602 152.187 142.383C153.005 143.146 153.414 144.299 153.284 145.415" fill="#61FF00"/>
<g opacity="0.2">
<path d="M153.172 145.619C152.577 146.103 151.982 146.605 151.294 146.94C150.606 147.293 149.824 147.479 149.08 147.312C148.467 147.182 147.927 146.828 147.332 146.698C146.309 146.512 145.193 146.977 144.244 146.587C143.612 146.308 143.184 145.712 142.608 145.322C142.012 144.931 141.306 144.782 140.692 144.485C140.059 144.187 139.446 143.629 139.427 142.941C139.39 142.048 140.283 141.416 141.138 141.23C141.994 141.044 142.905 141.137 143.761 140.876C144.337 140.709 144.933 140.356 145.509 140.523C146.142 140.709 146.476 141.397 147.072 141.639C147.723 141.881 148.411 141.583 149.08 141.453C150.196 141.267 151.368 141.602 152.187 142.383C153.005 143.146 153.414 144.299 153.284 145.415" fill="black"/>
</g>
<path d="M152.947 142.364C151.943 142.513 150.92 142.68 149.897 142.606C148.874 142.532 147.832 142.197 147.088 141.49C146.493 140.932 146.102 140.151 145.489 139.611C144.466 138.681 142.885 138.458 142.048 137.342C141.49 136.617 141.415 135.631 141.025 134.794C140.615 133.938 139.909 133.287 139.406 132.506C138.886 131.725 138.551 130.683 138.997 129.865C139.574 128.823 141.043 128.693 142.159 129.084C143.275 129.456 144.242 130.2 145.377 130.479C146.177 130.683 147.088 130.683 147.646 131.279C148.241 131.911 148.167 132.934 148.688 133.622C149.246 134.348 150.269 134.478 151.124 134.794C152.519 135.315 153.635 136.524 154.045 137.975C154.454 139.407 154.138 141.025 153.226 142.197" fill="#007C05"/>
<g opacity="0.4">
<path d="M152.947 142.364C151.943 142.513 150.92 142.68 149.897 142.606C148.874 142.532 147.832 142.197 147.088 141.49C146.493 140.932 146.102 140.151 145.489 139.611C144.466 138.681 142.885 138.458 142.048 137.342C141.49 136.617 141.415 135.631 141.025 134.794C140.615 133.938 139.909 133.287 139.406 132.506C138.886 131.725 138.551 130.683 138.997 129.865C139.574 128.823 141.043 128.693 142.159 129.084C143.275 129.456 144.242 130.2 145.377 130.479C146.177 130.683 147.088 130.683 147.646 131.279C148.241 131.911 148.167 132.934 148.688 133.622C149.246 134.348 150.269 134.478 151.124 134.794C152.519 135.315 153.635 136.524 154.045 137.975C154.454 139.407 154.138 141.025 153.226 142.197" fill="white"/>
</g>
<path d="M154.157 136.617C153.692 135.557 153.208 134.496 153.003 133.362C152.799 132.227 152.855 131 153.413 129.995C153.859 129.177 154.584 128.544 155.012 127.726C155.719 126.331 155.496 124.545 156.463 123.336C157.114 122.518 158.156 122.146 158.955 121.476C159.755 120.807 160.276 119.858 160.983 119.058C161.671 118.277 162.713 117.626 163.736 117.887C165.019 118.203 165.577 119.765 165.484 121.086C165.391 122.406 164.87 123.671 164.889 124.992C164.907 125.903 165.149 126.908 164.666 127.689C164.163 128.507 163.029 128.712 162.434 129.474C161.801 130.293 161.95 131.427 161.838 132.45C161.671 134.124 160.667 135.687 159.234 136.542C157.784 137.398 155.942 137.51 154.398 136.859" fill="#007C05"/>
<g opacity="0.4">
<path d="M154.157 136.617C153.692 135.557 153.208 134.496 153.003 133.362C152.799 132.227 152.855 131 153.413 129.995C153.859 129.177 154.584 128.544 155.012 127.726C155.719 126.331 155.496 124.545 156.463 123.336C157.114 122.518 158.156 122.146 158.955 121.476C159.755 120.807 160.276 119.858 160.983 119.058C161.671 118.277 162.713 117.626 163.736 117.887C165.019 118.203 165.577 119.765 165.484 121.086C165.391 122.406 164.87 123.671 164.889 124.992C164.907 125.903 165.149 126.908 164.666 127.689C164.163 128.507 163.029 128.712 162.434 129.474C161.801 130.293 161.95 131.427 161.838 132.45C161.671 134.124 160.667 135.687 159.234 136.542C157.784 137.398 155.942 137.51 154.398 136.859" fill="white"/>
</g>
<path d="M152.872 152.111C156.295 146.847 160.256 141.936 164.311 137.175C164.423 137.026 164.237 136.84 164.125 136.97C160.033 141.769 156.071 146.679 152.63 151.962C152.537 152.111 152.779 152.259 152.872 152.111Z" fill="#263238"/>
<path d="M152.893 152.036C152.558 148 153.395 143.871 154.436 140.002C155.608 135.668 157.189 131.409 159.254 127.41C160.221 125.494 161.318 123.634 162.639 121.96C162.751 121.811 162.565 121.607 162.453 121.755C159.942 124.955 158.156 128.712 156.65 132.469C154.957 136.71 153.637 141.137 152.948 145.656C152.632 147.758 152.446 149.897 152.614 152.036C152.632 152.204 152.911 152.222 152.893 152.036Z" fill="#263238"/>
<path d="M153.338 142.085C152.296 139.965 150.306 138.626 148.409 137.305C146.158 135.761 144.131 134.013 142.513 131.781C142.42 131.632 142.178 131.762 142.271 131.911C143.796 134.013 145.675 135.743 147.795 137.231C149.804 138.626 151.98 139.965 153.096 142.234C153.171 142.383 153.412 142.253 153.338 142.085Z" fill="#263238"/>
<path d="M161.93 151.515H144.763C144.763 151.515 144.112 162.768 149.543 167.214L147.571 169.539H159.419L157.187 167.084C157.187 167.084 161.651 165.168 161.93 151.515Z" fill="#263238"/>
<g opacity="0.3">
<path d="M150.252 152.52L145.77 152.557C146.011 154.975 146.235 157.412 146.904 159.755C147.555 162.099 148.671 164.368 150.438 166.042C149.304 161.708 149.75 156.965 150.252 152.52Z" fill="white"/>
</g>
<path d="M65.3809 35.34C69.4171 32.2152 75.2203 32.9778 78.3451 37.014C81.4699 41.0502 80.7073 46.8534 76.6711 49.9782C73.5463 52.3776 69.3799 52.4706 66.2179 50.5362L63.5581 51.336L63.8185 48.4158C63.7813 48.3786 63.7441 48.3414 63.7069 48.3042C60.6007 44.268 61.3447 38.4648 65.3809 35.34Z" fill="#DFF000"/>
<path d="M78.0865 34.8937C75.9847 32.7361 72.7669 31.7503 69.8281 32.3641" stroke="#DFF000" stroke-linecap="round" stroke-linejoin="round"/>
<path d="M68.4865 32.6804C68.0215 32.7362 67.5937 32.9036 67.2031 33.1268" stroke="#DFF000" stroke-linecap="round" stroke-linejoin="round"/>
<g opacity="0.7">
<path d="M65.3809 35.34C69.4171 32.2152 75.2203 32.9778 78.3451 37.014C81.4699 41.0502 80.7073 46.8534 76.6711 49.9782C73.5463 52.3776 69.3799 52.4706 66.2179 50.5362L63.5581 51.336L63.8185 48.4158C63.7813 48.3786 63.7441 48.3414 63.7069 48.3042C60.6007 44.268 61.3447 38.4648 65.3809 35.34Z" fill="white"/>
</g>
<path d="M66.4605 39.6366C67.2045 39.06 68.0043 39.0414 68.7669 39.2832C69.3807 39.4692 69.7527 39.8784 70.1991 40.3806C70.4037 40.6224 70.6083 40.9944 70.7757 41.4036C70.9431 40.9944 71.1477 40.6224 71.3523 40.3806C71.7987 39.8784 72.1707 39.4692 72.7845 39.2832C73.5471 39.0414 74.3469 39.06 75.0909 39.6366C75.7791 40.1946 75.8907 41.2176 75.6861 42.0732C75.4815 42.9288 74.9049 43.803 74.3655 44.4354C73.1937 45.7746 72.1707 46.779 70.7757 47.5044C69.0459 46.5 68.3577 45.7746 67.1859 44.4354C66.6465 43.803 66.0699 42.9288 65.8653 42.0732C65.6607 41.2176 65.7723 40.1946 66.4605 39.6366Z" fill="#DFF000"/>
<path d="M47.2806 48.3227C46.704 47.6345 45.8112 47.2253 44.9184 47.2253C44.0256 47.2253 43.1328 47.6159 42.5376 48.3041C42.1284 48.7505 41.868 49.3271 41.589 49.8665C40.9194 51.1685 40.1196 52.4147 39.2082 53.5493C38.6874 54.2003 38.1108 54.8513 37.3854 55.2419C36.2694 55.8371 34.9488 55.7999 33.684 55.8371C32.4192 55.8743 31.0614 56.0603 30.15 56.9345C29.964 57.1205 29.8152 57.3251 29.7594 57.5855C29.6292 58.1993 30.2616 58.7573 30.8754 58.9061C31.5078 59.0363 32.1588 58.9247 32.7912 59.0549C32.289 59.3153 31.8054 59.6687 31.545 60.1709C31.266 60.6731 31.266 61.3427 31.638 61.7519C31.917 62.0495 32.3076 62.1797 32.6982 62.2355C33.7212 62.4401 34.7814 62.3471 35.7672 61.9937C35.2092 62.6075 34.5954 63.3515 34.7814 64.1513C35.0046 65.0441 36.0462 65.4161 36.9576 65.4533C39.0222 65.5463 41.0124 64.6907 42.7794 63.5933C45.216 62.0867 47.448 59.8919 48.0432 57.0833C48.3222 55.7999 48.2292 54.4235 48.6756 53.1773L47.2806 48.3227Z" fill="#263238"/>
<path d="M48.0979 44.4539C47.8561 43.8959 47.0563 43.8029 46.4797 44.0261C45.5683 44.3609 44.9173 45.2909 44.8801 46.2581C44.8615 47.2253 45.4567 48.1925 46.3495 48.5831L46.4053 49.0109C45.4753 48.0995 44.2291 47.5043 42.9271 47.3369C42.2017 47.2625 41.4391 47.3183 40.8067 47.6717C40.1743 48.0437 39.7279 48.7691 39.8209 49.4945C39.9511 50.2757 40.7137 50.8709 41.5135 51.0011C42.2947 51.1313 43.1131 50.8895 43.8571 50.5919C44.6011 50.3129 45.3451 49.9409 46.1263 49.7921C46.3867 49.7549 46.6843 49.6991 46.7959 49.4573C46.8517 49.3085 46.8331 49.1597 46.8331 48.9923C46.8145 48.4343 47.1493 47.9507 47.4283 47.4671C47.8003 46.7789 48.0421 46.0349 48.1537 45.2723C48.2095 44.9933 48.2281 44.7143 48.0979 44.4539Z" fill="#DFF000"/>
<path d="M55.5777 47.0578C57.7725 48.6016 58.3491 50.7592 58.2747 52.303C57.9399 54.3862 56.5821 55.7998 55.9683 57.8272L51.3555 45.4768C52.6389 45.7558 53.2341 45.514 55.5777 47.0578Z" fill="#263238"/>
<path d="M52.8215 45.886C50.6825 44.8258 48.5249 45.9418 47.2601 46.7416C45.8651 47.8576 45.0095 49.513 44.9165 51.2986C44.8607 52.954 44.8049 54.9814 45.7907 55.8742C46.3487 56.395 47.0927 56.6554 47.8553 56.5996L56.3183 49.234C55.4627 47.839 54.2537 46.6858 52.8215 45.886Z" fill="#263238"/>
<path d="M52.7505 65.1372C52.2111 64.7094 51.0207 63.1284 51.1509 62.2542L51.7647 59.3154C51.7647 59.2906 51.7647 59.2596 51.7647 59.2224L49.8117 58.1994C49.3281 57.6972 48.5097 57.6786 48.0075 58.1622C47.8215 58.3296 47.6727 58.2552 47.6169 58.5156C47.5983 58.5714 47.6355 58.9248 47.6355 58.9806C47.5611 60.9336 47.2263 62.1612 46.1289 63.0168L50.4999 67.9458C52.9179 66.3276 53.0667 65.4162 52.7505 65.1372Z" fill="#FFA666"/>
<path opacity="0.2" d="M51.1884 62.0867C51.207 61.9937 51.2442 61.8449 51.2628 61.7519C51.393 61.0823 51.5604 60.3197 51.7836 59.2223C51.7712 59.1851 51.7712 59.1541 51.7836 59.1293L49.719 58.0133C49.1982 57.4925 48.3426 57.4739 47.8032 57.9947C47.6172 58.1807 47.673 58.4225 47.6172 58.6829C48.4542 60.2453 49.5516 61.5287 51.1326 62.3471C51.1512 62.2541 51.1884 62.1797 51.1884 62.0867Z" fill="black"/>
<path d="M46.1472 51.8195C46.11 55.6697 46.017 57.3065 47.784 59.4455C50.4624 62.6633 55.0938 61.9565 56.2656 58.2179C57.3072 54.8327 57.177 49.1039 53.6058 47.2253C50.016 45.3653 46.1658 47.9507 46.1472 51.8195Z" fill="#FFA666"/>
<path d="M44.3417 55.0744C44.6951 55.9114 45.3833 56.488 46.0529 56.7484C47.0387 57.1204 47.7455 55.5394 47.5223 54.4606C47.3177 53.512 46.3691 52.7866 45.3647 52.8796C44.3603 52.954 43.9139 54.1072 44.3417 55.0744Z" fill="#FFA666"/>
<path opacity="0.2" d="M46.5189 55.1117C46.5375 54.7397 46.4073 54.3677 46.1469 54.0887C45.9051 53.8283 45.5517 53.6609 45.1797 53.6423" stroke="black" stroke-linecap="round" stroke-linejoin="round"/>
<path d="M50.8138 53.605C50.7952 54.0142 50.9812 54.3676 51.223 54.4048C51.4834 54.442 51.7066 54.1258 51.7438 53.7166C51.7624 53.3074 51.5764 52.954 51.3346 52.9168C51.0742 52.8796 50.851 53.1958 50.8138 53.605Z" fill="#263238"/>
<path d="M54.5716 54.0328C54.553 54.4234 54.739 54.7768 54.9808 54.814C55.2412 54.8512 55.4644 54.5536 55.483 54.163C55.5202 53.7538 55.3342 53.4004 55.0738 53.3818C54.832 53.3446 54.5902 53.6422 54.5716 54.0328Z" fill="#263238"/>
<path d="M50.4605 52.1171C50.5163 52.1171 50.5721 52.1171 50.6093 52.0799C51.2603 51.5963 51.9113 51.8753 51.9299 51.8753C52.0229 51.9125 52.1345 51.8567 52.1531 51.7637C52.1903 51.6707 52.1344 51.5591 52.0414 51.5219C52.0042 51.5033 51.2045 51.1685 50.3861 51.7637C50.3117 51.8195 50.2931 51.9311 50.3489 52.0241C50.3861 52.0737 50.4233 52.1047 50.4605 52.1171Z" fill="#263238"/>
<path d="M56.4119 52.2473C56.4615 52.2473 56.4987 52.2225 56.5235 52.1729C56.5607 52.0985 56.5235 51.9869 56.4491 51.9125C55.6307 51.3173 54.9239 51.6335 54.9053 51.6335C54.8123 51.6707 54.7751 51.7823 54.8309 51.8753C54.8681 51.9683 54.9797 52.0241 55.0541 51.9869C55.0913 51.9683 55.6307 51.7451 56.2817 52.2287C56.3313 52.2535 56.3747 52.2597 56.4119 52.2473Z" fill="#263238"/>
<path d="M53.8287 53.7166C53.8287 53.7166 54.2565 55.2232 54.8331 56.209C54.9447 56.3764 54.8331 56.5996 54.6471 56.6554C54.1449 56.767 53.6055 56.5438 53.6055 56.5438L53.8287 53.7166Z" fill="#E57C35"/>
<path d="M51.1289 52.9353L52.0403 52.8237C52.0403 52.8237 51.4823 53.4189 51.1289 52.9353Z" fill="#263238"/>
<path d="M54.9805 53.3819L55.8919 53.2703C55.8919 53.2703 55.3339 53.8655 54.9805 53.3819Z" fill="#263238"/>
<path d="M53.4185 57.6227C53.0837 57.9761 52.6373 58.6829 52.6373 58.6829C52.5629 58.6457 52.4885 58.6147 52.4141 58.5899C51.4655 58.1621 51.1493 57.6599 51.0935 57.2135C51.0749 56.9717 51.1307 56.7485 51.1865 56.5811C51.2609 56.3765 51.3725 56.2463 51.3725 56.2463C51.7445 56.7857 52.6187 57.2507 53.0837 57.4739C53.2883 57.5669 53.4185 57.6227 53.4185 57.6227Z" fill="#263238"/>
<path d="M53.0847 57.4739L52.8429 57.7715C51.9501 57.3809 51.3549 56.9717 51.1875 56.5811C51.2619 56.3765 51.3735 56.2463 51.3735 56.2463C51.7455 56.7857 52.6197 57.2507 53.0847 57.4739Z" fill="white"/>
<path d="M52.4143 58.5898C51.4657 58.162 51.1495 57.6598 51.0938 57.2134C51.4285 57.3622 51.8006 57.5854 52.0796 57.883C52.3028 58.1248 52.3771 58.3666 52.4143 58.5898Z" fill="#F54948"/>
<path d="M47.4459 52.7867C47.4459 52.7867 49.7151 50.3501 49.8453 48.1925C49.8453 48.1925 57.7875 46.6673 56.8575 53.4563C56.8575 53.4563 58.7361 47.6159 52.3191 46.4813C45.9021 45.3281 44.3397 53.6981 47.1669 56.7113C47.1855 56.6741 46.0323 54.3305 47.4459 52.7867Z" fill="#263238"/>
<path d="M55.221 47.3927C56.0394 48.2483 56.5788 49.3085 56.7462 50.4803C56.7276 51.3173 55.5744 51.8939 55.5744 51.8939L54.2352 50.0153L54.1794 51.6335C51.9102 51.3173 50.6268 50.0525 49.8828 48.2855L51.222 46.0535C51.222 46.0535 54.477 46.7231 55.221 47.3927Z" fill="#263238"/>
<path d="M57.7319 65.4534C57.7691 65.4348 57.8621 65.4348 58.0295 65.4534C58.5131 65.565 59.4989 66.0486 60.3545 67.5738C61.4705 69.6012 63.4979 77.0784 64.0001 76.2972C64.5023 75.4974 65.7671 71.6472 65.7671 71.6472L68.4083 71.238C68.4083 71.238 68.3711 80.6496 66.2321 82.5654C64.0931 84.4812 62.3261 83.142 61.3217 82.212C60.4289 81.375 56.3555 72.54 56.3555 72.54" fill="#DFF000"/>
<path opacity="0.4" d="M57.7319 65.4534C57.7691 65.4348 57.8621 65.4348 58.0295 65.4534C58.5131 65.565 59.4989 66.0486 60.3545 67.5738C61.4705 69.6012 63.4979 77.0784 64.0001 76.2972C64.5023 75.4974 65.7671 71.6472 65.7671 71.6472L68.4083 71.238C68.4083 71.238 68.3711 80.6496 66.2321 82.5654C64.0931 84.4812 62.4005 83.142 61.3217 82.212C60.4103 81.4122 56.3555 72.54 56.3555 72.54" fill="white"/>
<path d="M56.6181 71.7402C55.9857 73.6374 55.4835 75.2742 55.0929 76.7436C54.0141 80.4264 53.3259 84.2208 53.0097 88.0338L37.8321 86.397C37.4229 75.5532 37.8321 69.564 38.1483 66.588C38.5203 63.4074 39.0225 63.2958 39.0225 63.2958C39.0225 63.2958 42.4821 63.0354 45.4767 63.1098C47.8017 63.24 50.1081 63.519 52.3773 63.984C54.5349 64.3746 56.6739 64.9326 58.7571 65.658C58.3851 66.6438 58.0503 67.5924 57.7341 68.4666C57.3249 69.6384 56.9529 70.7358 56.6181 71.7402Z" fill="#DFF000"/>
<path opacity="0.4" d="M56.6181 71.7402C55.9857 73.6374 55.4835 75.2742 55.0929 76.7436C54.0141 80.4264 53.3259 84.2208 53.0097 88.0338L37.8321 86.397C37.4229 75.5532 37.8321 69.564 38.1483 66.588C38.5203 63.4074 39.0225 63.2958 39.0225 63.2958C39.0225 63.2958 42.4821 63.0354 45.4767 63.1098C47.8017 63.24 50.1081 63.519 52.3773 63.984C54.5349 64.3746 56.6739 64.9326 58.7571 65.658C58.3851 66.6438 58.0503 67.5924 57.7341 68.4666C57.3249 69.6384 56.9529 70.7358 56.6181 71.7402Z" fill="white"/>
<path opacity="0.2" d="M40.5285 84.2395L46.4247 81.1891L50.1447 80.5195L53.8647 81.7843L54.4599 79.3105L48.2103 77.8411L37.6641 81.7843L38.0175 84.0721L40.5285 84.2395Z" fill="black"/>
<path d="M63.7042 60.4314C63.2206 60.5802 54.7204 64.7652 56.4874 74.9394L65.6758 74.6232C65.6758 74.6232 64.7086 71.0892 66.1222 68.634C67.5172 66.1974 71.6464 63.8352 71.5534 63.891C71.4604 63.9282 63.7042 60.4314 63.7042 60.4314Z" fill="#407BFF"/>
<path opacity="0.7" d="M63.7042 60.4314C63.2206 60.5802 54.7204 64.7652 56.4874 74.9394L65.6758 74.6232C65.6758 74.6232 64.7086 71.0892 66.1222 68.634C67.5172 66.1974 71.6464 63.8352 71.5534 63.891C71.4604 63.9282 63.7042 60.4314 63.7042 60.4314Z" fill="white"/>
<path d="M57.7321 76.1298L55.2025 72.54C55.2025 72.54 48.7111 73.3026 48.6367 73.4886L46.6465 78.12C46.5721 78.3246 46.6651 78.5664 46.8697 78.6408C46.8697 78.6532 46.8759 78.6594 46.8883 78.6594L55.1281 81.4494C55.3327 81.5052 55.5373 81.4122 55.6303 81.2262L57.6949 76.5762C57.7321 76.4274 57.7507 76.2786 57.7321 76.1298Z" fill="#DFF000"/>
<path opacity="0.1" d="M57.7321 76.2972C56.5231 76.7436 55.2025 76.8738 53.9377 76.6506C51.7987 76.1856 48.6367 73.4886 48.6367 73.4886C48.7111 73.284 55.2025 72.54 55.2025 72.54L57.7321 76.1112C57.7321 76.1112 57.7321 76.2042 57.7321 76.2972Z" fill="black"/>
<path opacity="0.1" d="M49.0664 73.6003C51.8006 74.9395 54.7208 75.8323 57.734 76.2973C57.734 76.2973 52.8236 74.6605 49.0664 73.6003Z" fill="black"/>
<path d="M39.0221 63.2959C39.0221 63.2959 36.8459 63.5935 35.1161 66.6253C32.9957 70.3639 28.0295 77.8411 31.4147 82.7701C34.8185 87.6991 45.8297 80.0731 45.8297 80.0731L44.6765 77.1343C44.6765 77.1343 36.2693 79.3849 36.1949 78.5665C36.0089 76.7809 38.5757 72.2053 38.5757 72.2053L39.0221 63.2959Z" fill="#DFF000"/>
<path d="M45.0872 77.19C45.0872 77.19 45.3104 76.074 46.1102 75.5532C46.8914 75.0324 47.3936 74.4186 48.0074 74.0652C48.6212 73.7304 48.2864 74.6232 48.026 75.0696C47.747 75.4974 47.4494 75.9996 47.8214 76.1484C48.1748 76.2972 51.5228 75.8694 52.0064 76.1298C52.49 76.3902 51.9692 76.632 51.9692 76.632C51.9692 76.632 52.7876 76.539 52.8992 76.8552C52.9364 76.9296 52.8806 77.1714 52.5086 77.283C51.6902 77.4876 49.9418 77.8596 49.9418 77.8596C50.0348 77.841 52.2296 77.5434 52.5644 77.5434C52.9922 77.5248 53.2154 77.748 53.1968 78.0084C53.1968 78.3618 50.4812 78.8268 50.3882 78.9384C50.3882 78.9384 51.932 78.6222 52.2296 78.9756C52.5458 79.329 51.5786 79.5708 50.6858 79.6452C49.8674 79.701 48.2678 80.0358 47.4308 79.9986C46.4078 79.98 45.7196 79.7382 45.3476 78.8454C44.957 77.9526 45.0872 77.19 45.0872 77.19Z" fill="#FFA666"/>
<path opacity="0.4" d="M39.0221 63.2959C39.0221 63.2959 36.8459 63.5935 35.1161 66.6253C32.9957 70.3639 28.0295 77.8411 31.4147 82.7701C34.8185 87.6991 45.8297 80.0731 45.8297 80.0731L44.6765 77.1343C44.6765 77.1343 36.2693 79.3849 36.1949 78.5665C36.0089 76.7809 38.5757 72.2053 38.5757 72.2053L39.0221 63.2959Z" fill="white"/>
<g opacity="0.2">
<path d="M63.814 78.5664C64.2418 79.1244 63.8326 77.0598 63.9256 76.3344C63.721 76.2972 63.5722 75.9624 63.4234 75.6648C63.4234 75.6648 62.7538 77.19 63.814 78.5664Z" fill="black"/>
</g>
<path opacity="0.2" d="M64.1709 66.4392C64.1337 66.495 62.6271 68.4666 63.0177 69.4152C63.4083 70.3638 65.3799 71.2752 65.3799 71.2752L65.6217 69.8244L64.1709 66.4392Z" fill="black"/>
<path d="M68.1302 71.2566L67.814 69.4524C67.814 69.4524 68.2232 68.355 68.0186 67.9086C67.6652 67.0344 65.303 65.937 64.9496 65.7324C64.5962 65.5278 62.9222 68.1876 63.1454 68.7084C63.3686 69.2478 66.1028 70.4754 66.1028 70.4754V71.5728L68.1302 71.2566Z" fill="#FFA666"/>
<path opacity="0.2" d="M37.7013 73.9907L37.7385 73.9163L39.2079 71.2751C39.1335 73.7861 38.7801 76.0925 37.6641 77.8409" fill="black"/>
<path d="M42.0353 160.834C42.0167 161.001 43.6721 166.154 43.6721 166.154H47.5037L47.1131 160.499L42.0353 160.834Z" fill="#FFA666"/>
<path d="M61.7155 160.034C61.6783 160.202 63.3337 165.354 63.3337 165.354H67.1839L65.8075 157.598L61.7155 160.034Z" fill="#FFA666"/>
<path d="M41.3281 63.1469C42.9835 65.7881 45.7363 67.5737 48.8239 67.9643C53.9575 68.5595 55.7431 64.7093 55.7431 64.7093C55.7431 64.7093 48.8239 62.2355 41.3281 63.1469Z" fill="#FFA666"/>
<path d="M70.25 158.193C70.2623 158.217 70.2745 158.23 70.2868 158.23C70.3052 158.211 70.2868 158.193 70.25 158.193Z" fill="#263238"/>
<path d="M44.1406 101.314C45.145 102.207 51.2086 144.02 61.048 160.165C61.048 160.165 66.9442 158.621 67.558 158.677C66.8698 157.319 58.0534 115.32 56.7142 97.8359L44.1406 101.314Z" fill="#455A64"/>
<path d="M37.7776 83.9231C37.7776 83.9231 32.7741 88.7405 32.6625 98.5427C32.5323 108.363 37.7403 155.328 41.8695 161.578C41.8695 161.578 49.0492 161.485 48.3796 161.578C47.71 161.652 44.176 120.937 46.9288 105.648L56.7123 97.8359C56.2287 92.8511 55.2057 88.6475 53.2527 85.7273L37.7776 83.9231Z" fill="#455A64"/>
<path opacity="0.2" d="M46.2779 110.912L46.0547 101.723L48.2123 99.7517C47.8775 99.9191 48.3611 119.356 47.9891 119.207L46.2779 110.912Z" fill="black"/>
<path d="M48.0078 164.852L46.6686 164.814C46.371 164.814 46.0734 164.945 45.8688 165.186C45.0318 166.172 44.4738 165.763 43.6926 164.796C43.1532 164.721 42.9672 165.298 42.9114 165.465L41.6838 168.925C41.5908 169.223 41.7396 169.52 42.0372 169.613C42.0992 169.638 42.155 169.65 42.2046 169.65C43.8414 169.688 44.6226 169.706 46.6686 169.781L52.8996 169.948C54.5922 170.004 55.0572 168.386 54.369 168.2C51.2628 167.456 49.0866 166.507 48.1566 165.614C47.9892 165.447 48.1752 165.335 48.0078 164.852Z" fill="#263238"/>
<path fill-rule="evenodd" clip-rule="evenodd" d="M49.9616 166.116C49.5276 166.092 49.106 166.023 48.6968 165.912C48.6596 165.912 48.641 165.856 48.6596 165.819C48.672 165.806 48.6906 165.794 48.7154 165.782C48.9014 165.707 50.6312 165 51.0404 165.298C51.1148 165.354 51.152 165.428 51.1334 165.521C51.1334 165.689 51.0218 165.837 50.873 165.93C50.594 166.079 50.2778 166.154 49.9616 166.116ZM48.9758 165.837C49.4594 165.93 50.3708 166.079 50.78 165.819C50.8916 165.744 50.9474 165.633 50.966 165.503C50.9846 165.465 50.966 165.428 50.9288 165.41C50.7056 165.261 49.6826 165.558 48.9758 165.837Z" fill="#407BFF"/>
<path fill-rule="evenodd" clip-rule="evenodd" d="M48.715 165.93C48.7026 165.93 48.684 165.924 48.6592 165.912C48.6406 165.893 48.6406 165.875 48.6406 165.837C48.6592 165.782 49.1428 164.201 50.0728 164.331C50.296 164.368 50.3518 164.48 50.3518 164.573C50.389 164.982 49.273 165.744 48.7522 165.93H48.715ZM49.9612 164.48C49.3846 164.461 48.9754 165.372 48.8452 165.726C49.4218 165.465 50.2216 164.833 50.1844 164.573C50.203 164.554 50.203 164.498 50.0356 164.48H49.9612Z" fill="#407BFF"/>
<path d="M48.8827 165.875C48.4177 165.931 47.9713 166.172 47.7109 166.544" stroke="#407BFF" stroke-linecap="round" stroke-linejoin="round"/>
<path d="M49.7021 166.507C49.2185 166.544 48.7721 166.805 48.5117 167.177" stroke="#407BFF" stroke-linecap="round" stroke-linejoin="round"/>
<path d="M50.706 167.046C50.241 167.084 49.7946 167.344 49.5156 167.716" stroke="#407BFF" stroke-linecap="round" stroke-linejoin="round"/>
<path d="M67.4817 162.657L66.1611 162.992C65.8821 163.085 65.6403 163.289 65.5101 163.568C64.9893 164.759 64.3383 164.536 63.3153 163.829C62.7759 163.903 62.7573 164.517 62.7573 164.684L62.5713 168.349C62.5527 168.665 62.7945 168.907 63.1107 168.907C63.1727 168.919 63.2285 168.913 63.2781 168.888C64.8591 168.479 65.6031 168.274 67.5747 167.735L73.6011 166.135C75.2565 165.689 75.2193 164.015 74.5125 164.052C71.3133 164.201 68.9697 163.922 67.8165 163.327C67.6119 163.215 67.7607 163.066 67.4817 162.657Z" fill="#263238"/>
<path fill-rule="evenodd" clip-rule="evenodd" d="M69.6966 163.289C69.275 163.388 68.8534 163.45 68.4318 163.475C68.3946 163.457 68.3574 163.438 68.376 163.382C68.376 163.37 68.3822 163.351 68.3946 163.326C68.562 163.196 70.0314 162.024 70.4964 162.21C70.5894 162.229 70.6452 162.303 70.6638 162.396C70.6824 162.564 70.6452 162.731 70.5336 162.861C70.2918 163.085 69.9942 163.233 69.6966 163.289ZM68.6736 163.308C69.1572 163.271 70.0872 163.14 70.4034 162.768C70.4778 162.675 70.515 162.545 70.4778 162.434C70.4778 162.396 70.4592 162.359 70.422 162.341C70.1616 162.248 69.2688 162.843 68.6736 163.308Z" fill="#407BFF"/>
<path fill-rule="evenodd" clip-rule="evenodd" d="M68.4477 163.475C68.4353 163.475 68.4167 163.475 68.3919 163.475C68.3733 163.475 68.3547 163.438 68.3547 163.419C68.3361 163.345 68.3733 161.708 69.2847 161.559C69.5079 161.522 69.6009 161.615 69.6195 161.69C69.7869 162.099 68.9313 163.141 68.4849 163.475H68.4477ZM69.2289 161.708C68.6523 161.857 68.5407 162.843 68.5221 163.233C68.9871 162.824 69.5823 161.987 69.4707 161.745C69.4707 161.727 69.4521 161.671 69.2847 161.69L69.2289 161.708Z" fill="#407BFF"/>
<path d="M68.597 163.382C68.1692 163.55 67.8158 163.922 67.6484 164.35" stroke="#407BFF" stroke-linecap="round" stroke-linejoin="round"/>
<path d="M69.5463 163.754C69.1185 163.922 68.7651 164.294 68.5977 164.722" stroke="#407BFF" stroke-linecap="round" stroke-linejoin="round"/>
<path d="M70.6634 163.978C70.2356 164.145 69.8822 164.517 69.7148 164.945" stroke="#407BFF" stroke-linecap="round" stroke-linejoin="round"/>
</svg>
